<svg width="216" height="187" viewBox="0 0 216 187" fill="none" xmlns="http://www.w3.org/2000/svg">
<g filter="url(#filter0_f_9_42)">
<g clip-path="url(#clip0_9_42)">
<path d="M17.589 112.754L21.1208 117.686L19.2365 117.434L15.7103 112.495L17.589 112.754Z" fill="#D84905"/>
<path d="M58.0802 83.3287L61.6063 88.2673C64.0003 91.6603 65.2672 95.7413 65.2227 99.9168L61.691 94.9839C61.7367 90.8074 60.4719 86.7248 58.0802 83.3287Z" fill="url(#paint0_linear_9_42)"/>
<path d="M61.6966 94.9782L65.2227 99.9168L63.4343 101.253L59.9025 96.3204L61.6966 94.9782Z" fill="#F67205"/>
<path d="M43.8178 119.092L47.3439 124.03L46.5822 125.275L43.0505 120.336L43.8178 119.092Z" fill="#D84905"/>
<path d="M43.0504 120.342L46.5766 125.275C41.5273 127.295 35.976 127.627 30.7288 126.221C27.0126 125.208 23.6751 123.099 21.1377 120.158L17.6116 115.22C20.1465 118.163 23.485 120.273 27.2026 121.283C32.4492 122.69 38.0006 122.361 43.0504 120.342Z" fill="url(#paint1_linear_9_42)"/>
<path d="M45.1041 119.459L48.6358 124.397L47.3439 124.03L43.8177 119.092L45.1041 119.459Z" fill="#F69D05"/>
<path d="M61.6232 96.8137L65.1494 101.746C64.9007 104.577 64.1716 107.343 62.9942 109.92C60.0384 116.317 54.9524 121.445 48.6358 124.397L45.1041 119.464C51.4226 116.511 56.5104 111.381 59.4681 104.981C60.6403 102.404 61.3692 99.6415 61.6232 96.8137Z" fill="url(#paint2_linear_9_42)"/>
<path style="mix-blend-mode:overlay" opacity="0.7" d="M61.8377 97.089C61.5837 99.9186 60.8548 102.683 59.6825 105.263C56.7245 111.66 51.6366 116.788 45.3185 119.74L44.0265 119.373L43.2649 120.617C38.2187 122.648 32.6664 122.988 27.4171 121.587C23.6997 120.577 20.3614 118.467 17.826 115.524L17.7809 113.058L15.8965 112.799C12.6412 107.196 12.2294 99.8422 15.4677 92.6437C16.43 90.5154 17.6465 88.5158 19.0898 86.6899C19.8484 86.3479 20.5885 85.965 21.307 85.5428L21.6286 83.8908C27.6258 77.9944 35.9136 74.7766 43.7783 75.5624L45.4708 76.962L50.2494 77.2086C57.6458 80.3633 61.9392 87.3323 61.9054 95.2593L60.1169 96.6014L61.8377 97.089Z" fill="url(#paint3_linear_9_42)"/>
<path d="M61.6233 96.8133C61.3692 99.6411 60.6403 102.404 59.4681 104.981C56.5104 111.38 51.4226 116.51 45.1041 119.464L43.8121 119.091L43.0505 120.342C38.0006 122.36 32.4493 122.69 27.2027 121.282C23.485 120.273 20.1465 118.163 17.6116 115.22L17.5665 112.753L15.6821 112.501C12.4268 106.891 12.0149 99.5378 15.2533 92.3394C16.2156 90.2111 17.4321 88.2114 18.8754 86.3856C19.634 86.0436 20.3741 85.6606 21.0926 85.2384L21.4142 83.5865C27.3888 77.736 35.6766 74.5182 43.5413 75.304L45.2338 76.6978L50.0124 76.9444C57.4258 80.0877 61.7022 87.0509 61.691 94.9836L59.9025 96.3487L61.6233 96.8133Z" fill="url(#paint4_linear_9_42)"/>
<path style="mix-blend-mode:overlay" opacity="0.7" d="M44.3142 82.0898C53.1944 84.6308 57.0873 94.0547 52.997 103.163C48.9067 112.272 38.3904 117.572 29.5102 115.031C20.63 112.49 16.7371 103.054 20.8274 93.9572C24.9177 84.8602 35.4228 79.5488 44.3142 82.0898Z" fill="url(#paint5_linear_9_42)"/>
<path d="M44.7712 82.1873C53.657 84.7283 57.5442 94.1695 53.4765 103.261C49.4088 112.352 38.8699 117.675 29.9897 115.134C21.1095 112.593 17.1941 103.152 21.2844 94.0547C25.3747 84.9577 35.891 79.6463 44.7712 82.1873Z" fill="url(#paint6_linear_9_42)"/>
<path d="M31.3776 115.415C22.4974 112.874 18.6045 103.433 22.6949 94.3415C26.4805 85.9156 35.7782 80.7419 44.1901 82.0382C35.4227 79.8872 25.2675 85.1642 21.2844 94.0547C17.1941 103.146 21.0869 112.587 29.9671 115.128C30.6238 115.312 31.2907 115.456 31.9643 115.558L31.3776 115.415Z" fill="#BA3E05"/>
<path d="M48.9631 87.9805C47.687 88.0331 46.4182 88.202 45.1718 88.4852C43.9409 88.7877 42.7355 89.1886 41.5667 89.684C40.4133 90.1853 39.2921 90.7601 38.2098 91.4048C37.1413 92.0699 36.1092 92.7937 35.1181 93.5729C33.1537 95.1292 31.3264 96.8565 29.6569 98.7352C27.9809 100.602 26.4546 102.603 25.0927 104.718L25.4199 104.93C26.8234 102.904 28.3815 100.994 30.08 99.217C31.7735 97.4154 33.6178 95.7669 35.592 94.2899C36.5795 93.5626 37.604 92.8886 38.6612 92.2709C39.7232 91.6745 40.8197 91.144 41.9447 90.6821L42.3566 90.5329C42.5315 91.8407 42.7233 95.4371 40.8107 100.634L40.3424 101.133C39.9475 101.534 39.5244 101.907 39.1182 102.28C38.317 103.077 37.4256 103.771 36.5681 104.505C36.1449 104.884 35.6767 105.205 35.231 105.549L33.8713 106.565C32.9404 107.201 31.9926 107.821 31.0504 108.452L31.2479 108.784C32.2126 108.211 33.1886 107.597 34.1477 106.983L35.5525 106.002C36.0152 105.67 36.4947 105.36 36.9404 104.993C37.8318 104.282 38.7514 103.599 39.5921 102.819C40.0209 102.435 40.4609 102.073 40.8728 101.672L42.1027 100.456C43.7152 98.8066 45.1768 97.0115 46.4694 95.0929C47.1186 94.1252 47.7083 93.1176 48.2353 92.0759C48.5061 91.5597 48.7431 91.0147 48.9744 90.4756C49.2079 89.9149 49.4076 89.3402 49.5724 88.7548L49.7868 87.9403L48.9631 87.9805Z" fill="#BA3E05"/>
<path style="mix-blend-mode:overlay" opacity="0.5" d="M53.9109 115.065C50.3115 118.667 46.9602 121.139 46.4299 120.589C45.8996 120.038 48.3763 116.671 51.9758 113.069C55.5752 109.467 58.9265 106.995 59.4624 107.545C59.9984 108.096 57.5104 111.463 53.9109 115.065Z" fill="url(#paint7_radial_9_42)"/>
<path style="mix-blend-mode:overlay" opacity="0.4" d="M56.5061 81.4359L17.6116 114.176V115.22C20.1465 118.163 23.485 120.273 27.2026 121.283C28.091 121.53 28.9935 121.722 29.9051 121.856L60.1733 96.4007L59.9025 96.3491L61.6909 95.0126C61.7627 89.9742 59.9032 85.1051 56.5061 81.4359Z" fill="url(#paint8_linear_9_42)"/>
<path style="mix-blend-mode:overlay" opacity="0.4" d="M45.262 76.6808L43.5695 75.287C41.2438 75.0626 38.8987 75.1688 36.6019 75.6025L14.5481 94.1694C13.3162 97.4579 12.8433 100.99 13.1659 104.494L46.176 76.7324L45.262 76.6808Z" fill="url(#paint9_linear_9_42)"/>
</g>
</g>
<g filter="url(#filter1_f_9_42)">
<g clip-path="url(#clip1_9_42)">
<path d="M56.4267 31.9678L59.0547 35.6382L57.6525 35.4504L55.0288 31.7757L56.4267 31.9678Z" fill="#D84905"/>
<path d="M86.5555 10.0733L89.1793 13.748C90.9606 16.2727 91.9032 19.3093 91.8702 22.4161L89.2422 18.7457C89.2763 15.638 88.3352 12.6002 86.5555 10.0733Z" fill="url(#paint10_linear_9_42)"/>
<path d="M89.2464 18.7414L91.8701 22.4161L90.5394 23.4106L87.9114 19.7401L89.2464 18.7414Z" fill="#F67205"/>
<path d="M75.9431 36.6838L78.5668 40.3585L78.0001 41.2846L75.3721 37.6099L75.9431 36.6838Z" fill="#D84905"/>
<path d="M75.3721 37.6142L77.9958 41.2846C74.2388 42.7881 70.1081 43.0348 66.2038 41.9889C63.4386 41.2352 60.9552 39.6654 59.0672 37.4777L56.4435 33.803C58.3297 35.9929 60.8138 37.5632 63.58 38.3142C67.4839 39.3614 71.6146 39.1163 75.3721 37.6142Z" fill="url(#paint11_linear_9_42)"/>
<path d="M76.9002 36.957L79.5281 40.6316L78.5668 40.3585L75.9431 36.6838L76.9002 36.957Z" fill="#F69D05"/>
<path d="M89.1919 20.1072L91.8156 23.7776C91.6306 25.8838 91.088 27.9415 90.212 29.8594C88.0126 34.6194 84.2282 38.4352 79.5281 40.6316L76.9002 36.9612C81.6017 34.7633 85.3875 30.9462 87.5882 26.1847C88.4604 24.2669 89.0028 22.2113 89.1919 20.1072Z" fill="url(#paint12_linear_9_42)"/>
<path style="mix-blend-mode:overlay" opacity="0.7" d="M89.3514 20.312C89.1624 22.4175 88.62 24.4746 87.7478 26.3938C85.5468 31.1541 81.7609 34.9698 77.0597 37.1661L76.0984 36.8929L75.5317 37.8191C71.7769 39.3302 67.6455 39.5829 63.7396 38.5404C60.9736 37.7889 58.4896 36.2187 56.603 34.0292L56.5695 32.1939L55.1673 32.0019C52.7451 27.8321 52.4387 22.3606 54.8483 17.0044C55.5643 15.4208 56.4695 13.9328 57.5434 12.5743C58.1079 12.3198 58.6586 12.0349 59.1932 11.7207L59.4325 10.4915C63.8949 6.10409 70.0617 3.70978 75.9137 4.29449L77.1731 5.33586L80.7288 5.51938C86.2323 7.86674 89.4269 13.0523 89.4018 18.9506L88.071 19.9493L89.3514 20.312Z" fill="url(#paint13_linear_9_42)"/>
<path d="M89.1918 20.1069C89.0028 22.211 88.4604 24.2666 87.5882 26.1845C85.3874 30.9459 81.6017 34.763 76.9002 36.961L75.9389 36.6836L75.3721 37.614C71.6146 39.116 67.484 39.3612 63.58 38.3139C60.8138 37.5629 58.3297 35.9926 56.4435 33.8027L56.4099 31.9675L55.0078 31.7797C52.5856 27.6057 52.2791 22.1342 54.6887 16.7779C55.4047 15.1943 56.3099 13.7064 57.3838 12.3478C57.9483 12.0933 58.499 11.8084 59.0336 11.4942L59.2729 10.2651C63.7186 5.91179 69.8854 3.51748 75.7374 4.10218L76.9967 5.13929L80.5524 5.32281C86.0685 7.66164 89.2506 12.8429 89.2422 18.7454L87.9115 19.7612L89.1918 20.1069Z" fill="url(#paint14_linear_9_42)"/>
<path style="mix-blend-mode:overlay" opacity="0.7" d="M76.3124 9.15139C82.92 11.0421 85.8166 18.0543 82.7731 24.8318C79.7296 31.6092 71.9046 35.5528 65.297 33.6621C58.6894 31.7714 55.7928 24.7507 58.8363 17.9817C61.8798 11.2128 69.6965 7.2607 76.3124 9.15139Z" fill="url(#paint15_linear_9_42)"/>
<path d="M76.6525 9.22395C83.2643 11.1146 86.1567 18.1397 83.13 24.9043C80.1033 31.669 72.2614 35.6296 65.6538 33.7389C59.0462 31.8482 56.1329 24.8232 59.1764 18.0543C62.2199 11.2854 70.0449 7.33325 76.6525 9.22395Z" fill="url(#paint16_linear_9_42)"/>
<path d="M66.6866 33.9481C60.079 32.0574 57.1824 25.0324 60.2259 18.2677C63.0427 11.9981 69.961 8.14843 76.2201 9.11298C69.6965 7.51251 62.1402 11.439 59.1764 18.0543C56.1329 24.819 59.0295 31.844 65.6371 33.7347C66.1257 33.8716 66.6219 33.9785 67.1231 34.0548L66.6866 33.9481Z" fill="#BA3E05"/>
<path d="M79.7716 13.5346C78.8221 13.5737 77.878 13.6994 76.9506 13.9101C76.0347 14.1352 75.1377 14.4335 74.2681 14.8021C73.4098 15.1751 72.5756 15.6028 71.7703 16.0825C70.9752 16.5774 70.2073 17.116 69.4698 17.6958C68.0081 18.8538 66.6484 20.139 65.4062 21.5369C64.1591 22.9263 63.0234 24.4148 62.01 25.9884L62.2535 26.1463C63.2978 24.639 64.4572 23.2177 65.721 21.8954C66.9811 20.5549 68.3534 19.3283 69.8224 18.2293C70.5572 17.6881 71.3195 17.1866 72.1061 16.727C72.8964 16.2832 73.7123 15.8884 74.5493 15.5448L74.8558 15.4338C74.9859 16.4069 75.1287 19.0829 73.7055 22.9496L73.3571 23.3209C73.0633 23.6197 72.7484 23.8971 72.4462 24.1745C71.85 24.7677 71.1868 25.2842 70.5487 25.8305C70.2338 26.1121 69.8854 26.3511 69.5538 26.6072L68.542 27.3626C67.8494 27.8364 67.1441 28.2973 66.4431 28.7668L66.59 29.0143C67.3078 28.5875 68.0341 28.1309 68.7477 27.6742L69.793 26.9444C70.1373 26.6969 70.4941 26.4664 70.8257 26.1932C71.489 25.664 72.1733 25.1561 72.7988 24.5757C73.1178 24.2897 73.4453 24.0209 73.7517 23.7221L74.6669 22.8173C75.8667 21.5901 76.9543 20.2544 77.9161 18.8268C78.3991 18.1067 78.838 17.357 79.2301 16.5819C79.4316 16.1977 79.6079 15.7923 79.78 15.3911C79.9538 14.9739 80.1024 14.5463 80.225 14.1107L80.3845 13.5047L79.7716 13.5346Z" fill="#BA3E05"/>
<path style="mix-blend-mode:overlay" opacity="0.5" d="M83.4532 33.6877C80.7749 36.368 78.2813 38.2075 77.8867 37.7977C77.4921 37.388 79.335 34.8828 82.0133 32.2025C84.6916 29.5222 87.1852 27.6828 87.584 28.0925C87.9828 28.5022 86.1315 31.0075 83.4532 33.6877Z" fill="url(#paint17_radial_9_42)"/>
<path style="mix-blend-mode:overlay" opacity="0.4" d="M85.3843 8.66486L56.4435 33.0262V33.803C58.3297 35.9929 60.8138 37.5632 63.58 38.3142C64.241 38.4983 64.9126 38.6409 65.5909 38.741L88.1129 19.7999L87.9114 19.7615L89.2422 18.767C89.2956 15.018 87.912 11.395 85.3843 8.66486Z" fill="url(#paint18_linear_9_42)"/>
<path style="mix-blend-mode:overlay" opacity="0.4" d="M77.0177 5.12666L75.7583 4.08956C74.0278 3.92258 72.2829 4.00158 70.5738 4.32429L54.164 18.1396C53.2473 20.5866 52.8955 23.2148 53.1355 25.8218L77.6978 5.16507L77.0177 5.12666Z" fill="url(#paint19_linear_9_42)"/>
</g>
</g>
<g clip-path="url(#clip2_9_42)">
<path d="M66.4751 151.967L75.107 164.023L70.5015 163.407L61.8834 151.336L66.4751 151.967Z" fill="#D84905"/>
<path d="M165.438 80.0511L174.056 92.1213C179.907 100.414 183.004 110.388 182.895 120.593L174.263 108.537C174.375 98.3295 171.284 88.3513 165.438 80.0511Z" fill="url(#paint20_linear_9_42)"/>
<path d="M174.277 108.523L182.895 120.593L178.524 123.86L169.892 111.804L174.277 108.523Z" fill="#F67205"/>
<path d="M130.58 167.458L139.198 179.528L137.336 182.57L128.705 170.5L130.58 167.458Z" fill="#D84905"/>
<path d="M128.705 170.514L137.323 182.57C124.982 187.508 111.414 188.319 98.5895 184.883C89.5071 182.408 81.3499 177.252 75.1484 170.065L66.5303 157.995C72.7259 165.189 80.8853 170.346 89.9714 172.813C102.795 176.253 116.362 175.448 128.705 170.514Z" fill="url(#paint21_linear_9_42)"/>
<path d="M133.724 168.355L142.356 180.425L139.198 179.528L130.58 167.458L133.724 168.355Z" fill="#F69D05"/>
<path d="M174.098 113.009L182.716 125.065C182.108 131.984 180.326 138.742 177.448 145.042C170.224 160.677 157.794 173.211 142.356 180.425L133.724 168.369C149.167 161.15 161.601 148.612 168.83 132.972C171.695 126.673 173.477 119.921 174.098 113.009Z" fill="url(#paint22_linear_9_42)"/>
<path style="mix-blend-mode:overlay" opacity="0.7" d="M174.622 113.682C174.001 120.598 172.219 127.355 169.354 133.659C162.125 149.295 149.69 161.828 134.248 169.042L131.09 168.145L129.229 171.187C116.895 176.151 103.325 176.981 90.4954 173.556C81.41 171.088 73.2509 165.93 67.0543 158.738L66.944 152.71L62.3384 152.079C54.3822 138.383 53.3756 120.411 61.2905 102.818C63.6423 97.6159 66.6156 92.7286 70.143 88.2661C71.9971 87.4302 73.806 86.4943 75.562 85.4623L76.348 81.4249C91.0056 67.0137 111.262 59.1492 130.483 61.0697L134.62 64.4903L146.299 65.0931C164.377 72.8034 174.87 89.8362 174.787 109.21L170.416 112.49L174.622 113.682Z" fill="url(#paint23_linear_9_42)"/>
<path d="M174.098 113.009C173.477 119.92 171.695 126.672 168.83 132.972C161.601 148.612 149.167 161.15 133.724 168.369L130.566 167.458L128.705 170.514C116.362 175.448 102.795 176.253 89.9714 172.813C80.8853 170.346 72.7259 165.188 66.5303 157.995L66.42 151.967L61.8145 151.35C53.8582 137.64 52.8517 119.668 60.7665 102.075C63.1183 96.8728 66.0916 91.9856 69.619 87.5231C71.4731 86.6872 73.282 85.7513 75.038 84.7193L75.824 80.6819C90.4265 66.3828 110.682 58.5183 129.904 60.4389L134.041 63.8454L145.72 64.4483C163.839 72.1305 174.291 89.1493 174.263 108.537L169.892 111.874L174.098 113.009Z" fill="url(#paint24_linear_9_42)"/>
<path style="mix-blend-mode:overlay" opacity="0.7" d="M131.793 77.0231C153.497 83.2334 163.011 106.266 153.014 128.528C143.017 150.79 117.315 163.743 95.6111 157.533C73.9073 151.322 64.393 128.262 74.3899 106.028C84.3869 83.7941 110.062 70.8128 131.793 77.0231Z" fill="url(#paint25_linear_9_42)"/>
<path d="M132.91 77.2614C154.628 83.4717 164.128 106.547 154.186 128.766C144.245 150.986 118.487 163.995 96.7832 157.785C75.0794 151.575 65.5099 128.5 75.5069 106.266C85.5038 84.0324 111.206 71.0511 132.91 77.2614Z" fill="url(#paint26_linear_9_42)"/>
<path d="M100.175 158.472C78.4715 152.262 68.9571 129.187 78.9541 106.967C88.2065 86.3736 110.931 73.7287 131.49 76.8969C110.062 71.6399 85.2419 84.5371 75.5069 106.266C65.5099 128.486 75.0243 151.561 96.728 157.771C98.3329 158.221 99.963 158.572 101.609 158.822L100.175 158.472Z" fill="#BA3E05"/>
<path d="M143.155 91.4203C140.037 91.5488 136.935 91.9616 133.889 92.654C130.881 93.3932 127.935 94.3729 125.078 95.5839C122.259 96.8091 119.519 98.2137 116.874 99.7895C114.262 101.415 111.74 103.184 109.317 105.089C104.516 108.892 100.05 113.114 95.9696 117.705C91.8735 122.269 88.1432 127.158 84.8144 132.327L85.6142 132.846C89.0443 127.895 92.8527 123.226 97.0038 118.883C101.143 114.48 105.65 110.451 110.476 106.841C112.889 105.063 115.393 103.416 117.977 101.906C120.572 100.449 123.252 99.152 126.002 98.0231L127.009 97.6587C127.436 100.855 127.905 109.645 123.23 122.346L122.086 123.565C121.121 124.547 120.086 125.458 119.094 126.369C117.136 128.318 114.957 130.014 112.861 131.808C111.827 132.734 110.682 133.519 109.593 134.36L106.27 136.841C103.995 138.397 101.678 139.911 99.3755 141.453L99.8581 142.266C102.216 140.864 104.602 139.364 106.946 137.864L110.379 135.467C111.51 134.654 112.682 133.897 113.771 133C115.95 131.262 118.197 129.593 120.252 127.687C121.3 126.748 122.375 125.864 123.382 124.883L126.388 121.911C130.329 117.88 133.901 113.493 137.061 108.804C138.647 106.438 140.089 103.976 141.377 101.43C142.038 100.168 142.618 98.8362 143.183 97.5185C143.754 96.148 144.242 94.7436 144.645 93.3128L145.169 91.3222L143.155 91.4203Z" fill="#BA3E05"/>
<path style="mix-blend-mode:overlay" opacity="0.5" d="M155.248 157.617C146.451 166.421 138.26 172.463 136.964 171.117C135.668 169.771 141.721 161.542 150.519 152.738C159.316 143.935 167.507 137.892 168.817 139.238C170.126 140.584 164.046 148.813 155.248 157.617Z" fill="url(#paint27_radial_9_42)"/>
<path style="mix-blend-mode:overlay" opacity="0.4" d="M161.591 75.4249L66.5303 155.444V157.995C72.7259 165.189 80.8853 170.346 89.9714 172.813C92.1426 173.418 94.3484 173.886 96.5763 174.215L170.554 112L169.892 111.874L174.263 108.607C174.439 96.293 169.894 84.3926 161.591 75.4249Z" fill="url(#paint28_linear_9_42)"/>
<path style="mix-blend-mode:overlay" opacity="0.4" d="M134.11 63.8031L129.973 60.3966C124.289 59.8481 118.557 60.1076 112.944 61.1676L59.0429 106.546C56.032 114.584 54.8762 123.217 55.6646 131.78L136.344 63.9293L134.11 63.8031Z" fill="url(#paint29_linear_9_42)"/>
</g>
<g filter="url(#filter2_f_9_42)">
<g clip-path="url(#clip3_9_42)">
<path d="M157.589 55.8202L161.121 60.753L159.236 60.5006L155.71 55.5621L157.589 55.8202Z" fill="#D84905"/>
<path d="M198.08 26.3954L201.606 31.334C204 34.727 205.267 38.808 205.223 42.9834L201.691 38.0506C201.737 33.8741 200.472 29.7914 198.08 26.3954Z" fill="url(#paint30_linear_9_42)"/>
<path d="M201.697 38.0449L205.223 42.9834L203.434 44.3199L199.903 39.3871L201.697 38.0449Z" fill="#F67205"/>
<path d="M183.818 62.1583L187.344 67.0968L186.582 68.3415L183.05 63.403L183.818 62.1583Z" fill="#D84905"/>
<path d="M183.05 63.4087L186.577 68.3415C181.527 70.362 175.976 70.6936 170.729 69.2879C167.013 68.2751 163.675 66.1654 161.138 63.2252L157.612 58.2866C160.147 61.2297 163.485 63.3401 167.203 64.3494C172.449 65.7568 178.001 65.4273 183.05 63.4087Z" fill="url(#paint31_linear_9_42)"/>
<path d="M185.104 62.5254L188.636 67.4639L187.344 67.0968L183.818 62.1583L185.104 62.5254Z" fill="#F69D05"/>
<path d="M201.623 39.8803L205.149 44.8131C204.901 47.6438 204.172 50.4092 202.994 52.9867C200.038 59.3839 194.952 64.512 188.636 67.4639L185.104 62.5311C191.423 59.5772 196.51 54.4473 199.468 48.0482C200.64 45.4707 201.369 42.7081 201.623 39.8803Z" fill="url(#paint32_linear_9_42)"/>
<path style="mix-blend-mode:overlay" opacity="0.7" d="M201.838 40.1557C201.584 42.9853 200.855 45.7498 199.683 48.3292C196.725 54.7268 191.637 59.8548 185.319 62.8064L184.027 62.4393L183.265 63.684C178.219 65.7149 172.666 66.0545 167.417 64.6534C163.7 63.6434 160.361 61.5332 157.826 58.5906L157.781 56.1242L155.897 55.8661C152.641 50.2622 152.229 42.9089 155.468 35.7104C156.43 33.5821 157.647 31.5824 159.09 29.7566C159.848 29.4146 160.589 29.0317 161.307 28.6094L161.629 26.9575C167.626 21.0611 175.914 17.8433 183.778 18.6291L185.471 20.0286L190.249 20.2753C197.646 23.43 201.939 30.399 201.905 38.3259L200.117 39.6681L201.838 40.1557Z" fill="url(#paint33_linear_9_42)"/>
<path d="M201.623 39.88C201.369 42.7078 200.64 45.4704 199.468 48.0478C196.51 54.4469 191.423 59.5769 185.104 62.5308L183.812 62.158L183.05 63.4084C178.001 65.427 172.449 65.7565 167.203 64.349C163.485 63.3397 160.147 61.2294 157.612 58.2863L157.566 55.8199L155.682 55.5675C152.427 49.9578 152.015 42.6045 155.253 35.406C156.216 33.2778 157.432 31.2781 158.875 29.4523C159.634 29.1102 160.374 28.7273 161.093 28.3051L161.414 26.6532C167.389 20.8026 175.677 17.5848 183.541 18.3706L185.234 19.7644L190.012 20.0111C197.426 23.1543 201.702 30.1176 201.691 38.0503L199.903 39.4154L201.623 39.88Z" fill="url(#paint34_linear_9_42)"/>
<path style="mix-blend-mode:overlay" opacity="0.7" d="M184.314 25.1565C193.194 27.6974 197.087 37.1214 192.997 46.2299C188.907 55.3384 178.39 60.6383 169.51 58.0973C160.63 55.5564 156.737 46.1209 160.827 37.0239C164.918 27.9269 175.423 22.6155 184.314 25.1565Z" fill="url(#paint35_linear_9_42)"/>
<path d="M184.771 25.254C193.657 27.7949 197.544 37.2361 193.476 46.3274C189.409 55.4187 178.87 60.7415 169.99 58.2006C161.11 55.6596 157.194 46.2184 161.284 37.1214C165.375 28.0244 175.891 22.713 184.771 25.254Z" fill="url(#paint36_linear_9_42)"/>
<path d="M171.378 58.4816C162.497 55.9406 158.605 46.4995 162.695 37.4082C166.48 28.9823 175.778 23.8085 184.19 25.1048C175.423 22.9539 165.268 28.2309 161.284 37.1214C157.194 46.2127 161.087 55.6539 169.967 58.1948C170.624 58.3788 171.291 58.5225 171.964 58.625L171.378 58.4816Z" fill="#BA3E05"/>
<path d="M188.963 31.0472C187.687 31.0997 186.418 31.2686 185.172 31.5519C183.941 31.8544 182.735 32.2552 181.567 32.7507C180.413 33.252 179.292 33.8267 178.21 34.4714C177.141 35.1366 176.109 35.8604 175.118 36.6396C173.154 38.1958 171.326 39.9231 169.657 41.8018C167.981 43.669 166.455 45.6695 165.093 47.7843L165.42 47.9965C166.823 45.9708 168.382 44.0606 170.08 42.2836C171.774 40.4821 173.618 38.8335 175.592 37.3566C176.579 36.6292 177.604 35.9553 178.661 35.3376C179.723 34.7412 180.82 34.2106 181.945 33.7487L182.357 33.5996C182.531 34.9074 182.723 38.5037 180.811 43.7004L180.342 44.1994C179.948 44.6009 179.524 44.9737 179.118 45.3466C178.317 46.1439 177.426 46.8379 176.568 47.5721C176.145 47.9506 175.677 48.2718 175.231 48.616L173.871 49.6312C172.94 50.2679 171.993 50.8874 171.05 51.5183L171.248 51.851C172.213 51.2774 173.189 50.6637 174.148 50.05L175.553 49.0691C176.015 48.7365 176.495 48.4267 176.94 48.0596C177.832 47.3484 178.751 46.6658 179.592 45.8857C180.021 45.5014 180.461 45.1401 180.873 44.7386L182.103 43.5226C183.715 41.8732 185.177 40.0782 186.469 38.1596C187.119 37.1918 187.708 36.1842 188.235 35.1425C188.506 34.6263 188.743 34.0814 188.974 33.5422C189.208 32.9815 189.408 32.4069 189.572 31.8215L189.787 31.007L188.963 31.0472Z" fill="#BA3E05"/>
<path style="mix-blend-mode:overlay" opacity="0.5" d="M193.911 58.1317C190.311 61.7338 186.96 64.206 186.43 63.6553C185.9 63.1047 188.376 59.7378 191.976 56.1357C195.575 52.5336 198.926 50.0614 199.462 50.6121C199.998 51.1627 197.51 54.5296 193.911 58.1317Z" fill="url(#paint37_radial_9_42)"/>
<path style="mix-blend-mode:overlay" opacity="0.4" d="M196.506 24.5026L157.612 57.2427V58.2866C160.147 61.2297 163.485 63.3401 167.203 64.3494C168.091 64.5969 168.993 64.7885 169.905 64.923L200.173 39.4674L199.902 39.4157L201.691 38.0793C201.763 33.0409 199.903 28.1718 196.506 24.5026Z" fill="url(#paint38_linear_9_42)"/>
<path style="mix-blend-mode:overlay" opacity="0.4" d="M185.262 19.7475L183.57 18.3537C181.244 18.1293 178.899 18.2354 176.602 18.6691L154.548 37.236C153.316 40.5246 152.843 44.0568 153.166 47.5605L186.176 19.7991L185.262 19.7475Z" fill="url(#paint39_linear_9_42)"/>
</g>
</g>
<path d="M42.4344 45.4376L37.3358 46.793C34.7917 47.4776 32.4915 48.8836 30.7035 50.8469C28.9156 52.8101 27.7136 55.2498 27.2377 57.8813L26.3442 62.7982L25.4507 57.8741C24.971 55.2413 23.764 52.8017 21.9707 50.8407C20.1774 48.8797 17.8721 47.4782 15.3242 46.8002L10.2327 45.4376L15.3313 44.1111C17.8776 43.4475 20.1863 42.0627 21.989 40.1176C23.7916 38.1726 25.0142 35.7473 25.5145 33.1238L26.3442 28.7548L27.1668 33.1165C27.6667 35.7411 28.889 38.1675 30.6916 40.1137C32.4942 42.06 34.8031 43.4461 37.35 44.1111L42.4344 45.4376Z" fill="#FFCF33"/>
<path d="M52.5325 61.8393L49.3911 62.6756C47.8225 63.0943 46.403 63.9566 45.2971 65.1626C44.1913 66.3685 43.4445 67.8686 43.1436 69.4886L42.5905 72.531L42.0302 69.4886C41.735 67.863 40.9907 66.3563 39.8844 65.1448C38.7781 63.9332 37.3555 63.0668 35.7828 62.6468L32.6342 61.8105L35.7899 60.9886C37.362 60.5796 38.7873 59.7247 39.8998 58.5235C41.0122 57.3224 41.7658 55.8244 42.0728 54.2044L42.5834 51.5081L43.0939 54.1972C43.4027 55.8184 44.1576 57.3172 45.2711 58.5195C46.3845 59.7217 47.8108 60.5779 49.384 60.9886L52.5325 61.8393Z" fill="#FFCF33"/>
<path d="M20.7704 29.5406L17.6147 30.3769C16.0402 30.7971 14.6158 31.6643 13.5082 32.8772C12.4006 34.0901 11.6556 35.5984 11.3602 37.226L10.8141 40.2612L10.261 37.2188C9.96439 35.5925 9.21878 34.0857 8.11127 32.8742C7.00376 31.6627 5.58006 30.7965 4.00645 30.3769L0.86499 29.5406L4.01355 28.7187C5.59203 28.31 7.02303 27.4518 8.13847 26.245C9.25391 25.0382 10.0075 23.5328 10.3107 21.9057L10.8212 19.2094L11.3318 21.9057C11.6331 23.5314 12.3843 25.0359 13.4972 26.2426C14.6101 27.4494 16.0385 28.3084 17.6147 28.7187L20.7704 29.5406Z" fill="#FFCF33"/>
<path d="M49.9442 48.4152C49.9442 47.893 50.0966 47.3825 50.3821 46.9484C50.6676 46.5144 51.0733 46.1762 51.548 45.9767C52.0227 45.7772 52.5449 45.7253 53.0486 45.8277C53.5522 45.9301 54.0147 46.1822 54.3773 46.5519C54.74 46.9217 54.9867 47.3925 55.086 47.9048C55.1854 48.4172 55.1329 48.9479 54.9354 49.43C54.7379 49.912 54.4041 50.3236 53.9764 50.6127C53.5486 50.9018 53.0461 51.0553 52.5325 51.0539C52.192 51.0539 51.8548 50.9856 51.5403 50.8529C51.2259 50.7202 50.9402 50.5257 50.6998 50.2806C50.4593 50.0355 50.2688 49.7445 50.1392 49.4244C50.0095 49.1043 49.9432 48.7613 49.9442 48.4152Z" fill="#FFCF33"/>
<path d="M10.8212 55.6535C10.8212 55.1316 10.9734 54.6215 11.2586 54.1875C11.5438 53.7536 11.9492 53.4154 12.4234 53.2157C12.8977 53.016 13.4195 52.9637 13.923 53.0655C14.4265 53.1674 14.8889 53.4187 15.2519 53.7877C15.6149 54.1567 15.8621 54.6269 15.9622 55.1387C16.0624 55.6506 16.011 56.1812 15.8145 56.6633C15.6181 57.1455 15.2854 57.5576 14.8586 57.8475C14.4318 58.1374 13.93 58.2922 13.4167 58.2922C12.7283 58.2922 12.0682 58.0142 11.5814 57.5194C11.0947 57.0245 10.8212 56.3533 10.8212 55.6535Z" fill="#FFCF33"/>
<path d="M46.9091 41.7031C46.9091 41.4179 46.9922 41.1391 47.1481 40.902C47.3039 40.6649 47.5254 40.4801 47.7846 40.371C48.0437 40.2618 48.3289 40.2333 48.604 40.2889C48.8791 40.3446 49.1318 40.4819 49.3302 40.6835C49.5285 40.8852 49.6636 41.1421 49.7183 41.4218C49.7731 41.7015 49.745 41.9914 49.6376 42.2549C49.5303 42.5184 49.3485 42.7436 49.1153 42.902C48.882 43.0604 48.6078 43.145 48.3273 43.145C47.9512 43.145 47.5904 42.9931 47.3245 42.7227C47.0585 42.4523 46.9091 42.0855 46.9091 41.7031Z" fill="#FFCF33"/>
<path d="M5.7793 60.8372C5.7793 60.552 5.86248 60.2732 6.01832 60.0361C6.17416 59.799 6.39566 59.6142 6.65482 59.505C6.91397 59.3959 7.19914 59.3673 7.47425 59.423C7.74937 59.4786 8.00208 59.616 8.20043 59.8176C8.39878 60.0193 8.53386 60.2762 8.58858 60.5559C8.64331 60.8356 8.61522 61.1255 8.50787 61.389C8.40053 61.6525 8.21874 61.8776 7.98551 62.0361C7.75228 62.1945 7.47807 62.2791 7.19757 62.2791C6.82142 62.2791 6.46067 62.1272 6.1947 61.8568C5.92872 61.5864 5.7793 61.2196 5.7793 60.8372Z" fill="#FFCF33"/>
<path d="M51.4617 37.0457C51.4603 36.8284 51.5225 36.6155 51.6404 36.4342C51.7583 36.2529 51.9266 36.1113 52.1238 36.0275C52.321 35.9437 52.5384 35.9213 52.7481 35.9634C52.9578 36.0054 53.1506 36.11 53.3017 36.2637C53.4529 36.4173 53.5557 36.6133 53.5971 36.8265C53.6384 37.0398 53.6165 37.2607 53.534 37.4612C53.4516 37.6618 53.3123 37.8328 53.134 37.9527C52.9556 38.0725 52.7463 38.1358 52.5325 38.1344C52.2491 38.1325 51.9778 38.0172 51.7774 37.8134C51.577 37.6097 51.4636 37.3339 51.4617 37.0457Z" fill="#FFCF33"/>
<path d="M17.4233 65.5162C17.4219 65.2988 17.4841 65.086 17.602 64.9047C17.7199 64.7233 17.8882 64.5818 18.0854 64.4979C18.2827 64.4141 18.5 64.3918 18.7097 64.4339C18.9195 64.4759 19.1122 64.5804 19.2633 64.7341C19.4145 64.8878 19.5173 65.0837 19.5587 65.297C19.6 65.5102 19.5781 65.7311 19.4956 65.9317C19.4132 66.1322 19.2739 66.3033 19.0956 66.4231C18.9173 66.543 18.7079 66.6062 18.4941 66.6048C18.2107 66.6029 17.9394 66.4876 17.739 66.2839C17.5386 66.0801 17.4252 65.8043 17.4233 65.5162Z" fill="#FFCF33"/>
<path d="M173.566 152.188L178.664 153.543C181.208 154.228 183.509 155.634 185.296 157.597C187.084 159.56 188.286 162 188.762 164.631L189.656 169.548L190.549 164.624C191.029 161.991 192.236 159.552 194.029 157.591C195.823 155.63 198.128 154.228 200.676 153.55L205.767 152.188L200.669 150.861C198.122 150.197 195.814 148.813 194.011 146.868C192.208 144.923 190.986 142.497 190.485 139.874L189.656 135.505L188.833 139.867C188.333 142.491 187.111 144.918 185.308 146.864C183.506 148.81 181.197 150.196 178.65 150.861L173.566 152.188Z" fill="#FFCF33"/>
<path d="M163.467 168.589L166.609 169.426C168.177 169.844 169.597 170.707 170.703 171.913C171.809 173.118 172.555 174.619 172.856 176.239L173.41 179.281L173.97 176.239C174.265 174.613 175.009 173.106 176.116 171.895C177.222 170.683 178.645 169.817 180.217 169.397L183.366 168.56L180.21 167.739C178.638 167.33 177.213 166.475 176.1 165.274C174.988 164.072 174.234 162.574 173.927 160.954L173.417 158.258L172.906 160.947C172.597 162.568 171.842 164.067 170.729 165.269C169.615 166.472 168.189 167.328 166.616 167.739L163.467 168.589Z" fill="#FFCF33"/>
<path d="M195.23 136.291L198.385 137.127C199.96 137.547 201.384 138.414 202.492 139.627C203.599 140.84 204.344 142.348 204.64 143.976L205.186 147.011L205.739 143.969C206.036 142.343 206.781 140.836 207.889 139.624C208.996 138.413 210.42 137.547 211.994 137.127L215.135 136.291L211.986 135.469C210.408 135.06 208.977 134.202 207.862 132.995C206.746 131.788 205.993 130.283 205.689 128.656L205.179 125.959L204.668 128.656C204.367 130.281 203.616 131.786 202.503 132.993C201.39 134.199 199.962 135.058 198.385 135.469L195.23 136.291Z" fill="#FFCF33"/>
<path d="M166.056 155.165C166.056 154.643 165.903 154.133 165.618 153.698C165.332 153.264 164.927 152.926 164.452 152.727C163.977 152.527 163.455 152.475 162.951 152.578C162.448 152.68 161.985 152.932 161.623 153.302C161.26 153.672 161.013 154.143 160.914 154.655C160.815 155.167 160.867 155.698 161.065 156.18C161.262 156.662 161.596 157.074 162.024 157.363C162.451 157.652 162.954 157.805 163.467 157.804C163.808 157.804 164.145 157.736 164.46 157.603C164.774 157.47 165.06 157.276 165.3 157.031C165.541 156.785 165.731 156.495 165.861 156.174C165.991 155.854 166.057 155.511 166.056 155.165Z" fill="#FFCF33"/>
<path d="M205.179 162.404C205.179 161.882 205.027 161.371 204.741 160.938C204.456 160.504 204.051 160.165 203.577 159.966C203.102 159.766 202.58 159.714 202.077 159.816C201.574 159.917 201.111 160.169 200.748 160.538C200.385 160.907 200.138 161.377 200.038 161.889C199.938 162.401 199.989 162.931 200.185 163.413C200.382 163.895 200.715 164.308 201.141 164.598C201.568 164.887 202.07 165.042 202.583 165.042C203.272 165.042 203.932 164.764 204.419 164.269C204.905 163.775 205.179 163.103 205.179 162.404Z" fill="#FFCF33"/>
<path d="M169.091 148.453C169.091 148.168 169.008 147.889 168.852 147.652C168.696 147.415 168.475 147.23 168.215 147.121C167.956 147.012 167.671 146.983 167.396 147.039C167.121 147.095 166.868 147.232 166.67 147.434C166.471 147.635 166.336 147.892 166.282 148.172C166.227 148.452 166.255 148.741 166.362 149.005C166.47 149.268 166.651 149.494 166.885 149.652C167.118 149.81 167.392 149.895 167.673 149.895C168.049 149.895 168.41 149.743 168.676 149.473C168.942 149.202 169.091 148.836 169.091 148.453Z" fill="#FFCF33"/>
<path d="M210.221 167.587C210.221 167.302 210.138 167.023 209.982 166.786C209.826 166.549 209.604 166.364 209.345 166.255C209.086 166.146 208.801 166.117 208.526 166.173C208.251 166.229 207.998 166.366 207.8 166.568C207.601 166.769 207.466 167.026 207.411 167.306C207.357 167.586 207.385 167.876 207.492 168.139C207.599 168.402 207.781 168.628 208.014 168.786C208.248 168.945 208.522 169.029 208.802 169.029C209.179 169.029 209.539 168.877 209.805 168.607C210.071 168.336 210.221 167.97 210.221 167.587Z" fill="#FFCF33"/>
<path d="M164.538 143.796C164.54 143.578 164.478 143.366 164.36 143.184C164.242 143.003 164.073 142.861 163.876 142.777C163.679 142.694 163.462 142.671 163.252 142.713C163.042 142.755 162.849 142.86 162.698 143.014C162.547 143.167 162.444 143.363 162.403 143.577C162.362 143.79 162.384 144.011 162.466 144.211C162.548 144.412 162.688 144.583 162.866 144.703C163.044 144.823 163.254 144.886 163.468 144.884C163.751 144.882 164.022 144.767 164.223 144.563C164.423 144.36 164.536 144.084 164.538 143.796Z" fill="#FFCF33"/>
<path d="M198.577 172.266C198.578 172.049 198.516 171.836 198.398 171.655C198.28 171.473 198.112 171.332 197.915 171.248C197.717 171.164 197.5 171.142 197.29 171.184C197.081 171.226 196.888 171.33 196.737 171.484C196.585 171.638 196.483 171.834 196.441 172.047C196.4 172.26 196.422 172.481 196.504 172.682C196.587 172.882 196.726 173.053 196.904 173.173C197.083 173.293 197.292 173.356 197.506 173.355C197.789 173.353 198.061 173.238 198.261 173.034C198.461 172.83 198.575 172.554 198.577 172.266Z" fill="#FFCF33"/>
<defs>
<filter id="filter0_f_9_42" x="9.04736" y="71.1667" width="60.1754" height="59.9207" filterUnits="userSpaceOnUse" color-interpolation-filters="sRGB">
<feFlood flood-opacity="0" result="BackgroundImageFix"/>
<feBlend mode="normal" in="SourceGraphic" in2="BackgroundImageFix" result="shape"/>
<feGaussianBlur stdDeviation="2" result="effect1_foregroundBlur_9_42"/>
</filter>
<filter id="filter1_f_9_42" x="49.0474" y="0" width="46.8228" height="46.6333" filterUnits="userSpaceOnUse" color-interpolation-filters="sRGB">
<feFlood flood-opacity="0" result="BackgroundImageFix"/>
<feBlend mode="normal" in="SourceGraphic" in2="BackgroundImageFix" result="shape"/>
<feGaussianBlur stdDeviation="2" result="effect1_foregroundBlur_9_42"/>
</filter>
<filter id="filter2_f_9_42" x="149.047" y="14.2333" width="60.1754" height="59.9207" filterUnits="userSpaceOnUse" color-interpolation-filters="sRGB">
<feFlood flood-opacity="0" result="BackgroundImageFix"/>
<feBlend mode="normal" in="SourceGraphic" in2="BackgroundImageFix" result="shape"/>
<feGaussianBlur stdDeviation="2" result="effect1_foregroundBlur_9_42"/>
</filter>
<linearGradient id="paint0_linear_9_42" x1="23.6652" y1="125.131" x2="63.9575" y2="90.7449" gradientUnits="userSpaceOnUse">
<stop stop-color="#D13F05"/>
<stop offset="0.29" stop-color="#F67205"/>
<stop offset="0.37" stop-color="#F67705"/>
<stop offset="0.45" stop-color="#F68505"/>
<stop offset="0.54" stop-color="#F69C05"/>
<stop offset="0.56" stop-color="#F6A205"/>
<stop offset="0.6" stop-color="#F69005"/>
<stop offset="0.64" stop-color="#F67F05"/>
<stop offset="0.69" stop-color="#F67505"/>
<stop offset="0.76" stop-color="#F67205"/>
<stop offset="1" stop-color="#D13F05"/>
</linearGradient>
<linearGradient id="paint1_linear_9_42" x1="24.9177" y1="126.594" x2="65.2045" y2="92.2018" gradientUnits="userSpaceOnUse">
<stop stop-color="#D13F05"/>
<stop offset="0.29" stop-color="#F67205"/>
<stop offset="0.37" stop-color="#F67705"/>
<stop offset="0.45" stop-color="#F68505"/>
<stop offset="0.54" stop-color="#F69C05"/>
<stop offset="0.56" stop-color="#F6A205"/>
<stop offset="0.6" stop-color="#F69005"/>
<stop offset="0.64" stop-color="#F67F05"/>
<stop offset="0.69" stop-color="#F67505"/>
<stop offset="0.76" stop-color="#F67205"/>
<stop offset="1" stop-color="#D13F05"/>
</linearGradient>
<linearGradient id="paint2_linear_9_42" x1="30.4918" y1="133.127" x2="70.7841" y2="98.7407" gradientUnits="userSpaceOnUse">
<stop stop-color="#D13F05"/>
<stop offset="0.29" stop-color="#F67205"/>
<stop offset="0.37" stop-color="#F67705"/>
<stop offset="0.45" stop-color="#F68505"/>
<stop offset="0.54" stop-color="#F69C05"/>
<stop offset="0.56" stop-color="#F6A205"/>
<stop offset="0.6" stop-color="#F69005"/>
<stop offset="0.64" stop-color="#F67F05"/>
<stop offset="0.69" stop-color="#F67505"/>
<stop offset="0.76" stop-color="#F67205"/>
<stop offset="1" stop-color="#D13F05"/>
</linearGradient>
<linearGradient id="paint3_linear_9_42" x1="15.795" y1="116.964" x2="60.2526" y2="81.3925" gradientUnits="userSpaceOnUse">
<stop stop-color="white" stop-opacity="0"/>
<stop offset="0.26" stop-color="white"/>
<stop offset="0.76" stop-color="white"/>
<stop offset="1" stop-color="white" stop-opacity="0"/>
</linearGradient>
<linearGradient id="paint4_linear_9_42" x1="54.3453" y1="105.95" x2="9.61702" y2="87.3687" gradientUnits="userSpaceOnUse">
<stop stop-color="#FFAF02"/>
<stop offset="1" stop-color="#F56D05"/>
</linearGradient>
<linearGradient id="paint5_linear_9_42" x1="21.0757" y1="83.1681" x2="47.3113" y2="107.841" gradientUnits="userSpaceOnUse">
<stop stop-color="white" stop-opacity="0"/>
<stop offset="0.26" stop-color="white"/>
<stop offset="0.76" stop-color="white"/>
<stop offset="1" stop-color="white" stop-opacity="0"/>
</linearGradient>
<linearGradient id="paint6_linear_9_42" x1="19.6596" y1="98.6606" x2="55.0844" y2="98.6606" gradientUnits="userSpaceOnUse">
<stop stop-color="#FFAF02"/>
<stop offset="1" stop-color="#F56D05"/>
</linearGradient>
<radialGradient id="paint7_radial_9_42" cx="0" cy="0" r="1" gradientUnits="userSpaceOnUse" gradientTransform="translate(65.5288 127.348) rotate(45.4735) scale(1.32179 9.15687)">
<stop stop-color="white"/>
<stop offset="0.09" stop-color="white" stop-opacity="0.96"/>
<stop offset="0.24" stop-color="white" stop-opacity="0.85"/>
<stop offset="0.43" stop-color="white" stop-opacity="0.66"/>
<stop offset="0.66" stop-color="white" stop-opacity="0.41"/>
<stop offset="0.93" stop-color="white" stop-opacity="0.09"/>
<stop offset="1" stop-color="white" stop-opacity="0"/>
</radialGradient>
<linearGradient id="paint8_linear_9_42" x1="31.5468" y1="91.7203" x2="47.8253" y2="110.503" gradientUnits="userSpaceOnUse">
<stop stop-color="white"/>
<stop offset="1" stop-color="white" stop-opacity="0"/>
</linearGradient>
<linearGradient id="paint9_linear_9_42" x1="22.2322" y1="82.9558" x2="30.9172" y2="91.6225" gradientUnits="userSpaceOnUse">
<stop stop-color="white"/>
<stop offset="1" stop-color="white" stop-opacity="0"/>
</linearGradient>
<linearGradient id="paint10_linear_9_42" x1="60.9479" y1="41.178" x2="90.9287" y2="15.5915" gradientUnits="userSpaceOnUse">
<stop stop-color="#D13F05"/>
<stop offset="0.29" stop-color="#F67205"/>
<stop offset="0.37" stop-color="#F67705"/>
<stop offset="0.45" stop-color="#F68505"/>
<stop offset="0.54" stop-color="#F69C05"/>
<stop offset="0.56" stop-color="#F6A205"/>
<stop offset="0.6" stop-color="#F69005"/>
<stop offset="0.64" stop-color="#F67F05"/>
<stop offset="0.69" stop-color="#F67505"/>
<stop offset="0.76" stop-color="#F67205"/>
<stop offset="1" stop-color="#D13F05"/>
</linearGradient>
<linearGradient id="paint11_linear_9_42" x1="61.8798" y1="42.2663" x2="91.8565" y2="16.6755" gradientUnits="userSpaceOnUse">
<stop stop-color="#D13F05"/>
<stop offset="0.29" stop-color="#F67205"/>
<stop offset="0.37" stop-color="#F67705"/>
<stop offset="0.45" stop-color="#F68505"/>
<stop offset="0.54" stop-color="#F69C05"/>
<stop offset="0.56" stop-color="#F6A205"/>
<stop offset="0.6" stop-color="#F69005"/>
<stop offset="0.64" stop-color="#F67F05"/>
<stop offset="0.69" stop-color="#F67505"/>
<stop offset="0.76" stop-color="#F67205"/>
<stop offset="1" stop-color="#D13F05"/>
</linearGradient>
<linearGradient id="paint12_linear_9_42" x1="66.0275" y1="47.1274" x2="96.0083" y2="21.541" gradientUnits="userSpaceOnUse">
<stop stop-color="#D13F05"/>
<stop offset="0.29" stop-color="#F67205"/>
<stop offset="0.37" stop-color="#F67705"/>
<stop offset="0.45" stop-color="#F68505"/>
<stop offset="0.54" stop-color="#F69C05"/>
<stop offset="0.56" stop-color="#F6A205"/>
<stop offset="0.6" stop-color="#F69005"/>
<stop offset="0.64" stop-color="#F67F05"/>
<stop offset="0.69" stop-color="#F67505"/>
<stop offset="0.76" stop-color="#F67205"/>
<stop offset="1" stop-color="#D13F05"/>
</linearGradient>
<linearGradient id="paint13_linear_9_42" x1="55.0918" y1="35.1004" x2="88.1719" y2="8.63255" gradientUnits="userSpaceOnUse">
<stop stop-color="white" stop-opacity="0"/>
<stop offset="0.26" stop-color="white"/>
<stop offset="0.76" stop-color="white"/>
<stop offset="1" stop-color="white" stop-opacity="0"/>
</linearGradient>
<linearGradient id="paint14_linear_9_42" x1="83.7765" y1="26.9057" x2="50.4949" y2="13.0793" gradientUnits="userSpaceOnUse">
<stop stop-color="#FFAF02"/>
<stop offset="1" stop-color="#F56D05"/>
</linearGradient>
<linearGradient id="paint15_linear_9_42" x1="59.021" y1="9.95376" x2="78.5425" y2="28.3121" gradientUnits="userSpaceOnUse">
<stop stop-color="white" stop-opacity="0"/>
<stop offset="0.26" stop-color="white"/>
<stop offset="0.76" stop-color="white"/>
<stop offset="1" stop-color="white" stop-opacity="0"/>
</linearGradient>
<linearGradient id="paint16_linear_9_42" x1="57.9674" y1="21.4814" x2="84.3264" y2="21.4814" gradientUnits="userSpaceOnUse">
<stop stop-color="#FFAF02"/>
<stop offset="1" stop-color="#F56D05"/>
</linearGradient>
<radialGradient id="paint17_radial_9_42" cx="0" cy="0" r="1" gradientUnits="userSpaceOnUse" gradientTransform="translate(92.0979 42.827) rotate(45.4735) scale(0.983522 6.81347)">
<stop stop-color="white"/>
<stop offset="0.09" stop-color="white" stop-opacity="0.96"/>
<stop offset="0.24" stop-color="white" stop-opacity="0.85"/>
<stop offset="0.43" stop-color="white" stop-opacity="0.66"/>
<stop offset="0.66" stop-color="white" stop-opacity="0.41"/>
<stop offset="0.93" stop-color="white" stop-opacity="0.09"/>
<stop offset="1" stop-color="white" stop-opacity="0"/>
</radialGradient>
<linearGradient id="paint18_linear_9_42" x1="66.8125" y1="16.3173" x2="78.925" y2="30.2934" gradientUnits="userSpaceOnUse">
<stop stop-color="white"/>
<stop offset="1" stop-color="white" stop-opacity="0"/>
</linearGradient>
<linearGradient id="paint19_linear_9_42" x1="59.8816" y1="9.79578" x2="66.3439" y2="16.2445" gradientUnits="userSpaceOnUse">
<stop stop-color="white"/>
<stop offset="1" stop-color="white" stop-opacity="0"/>
</linearGradient>
<linearGradient id="paint20_linear_9_42" x1="81.3258" y1="182.22" x2="179.803" y2="98.1768" gradientUnits="userSpaceOnUse">
<stop stop-color="#D13F05"/>
<stop offset="0.29" stop-color="#F67205"/>
<stop offset="0.37" stop-color="#F67705"/>
<stop offset="0.45" stop-color="#F68505"/>
<stop offset="0.54" stop-color="#F69C05"/>
<stop offset="0.56" stop-color="#F6A205"/>
<stop offset="0.6" stop-color="#F69005"/>
<stop offset="0.64" stop-color="#F67F05"/>
<stop offset="0.69" stop-color="#F67505"/>
<stop offset="0.76" stop-color="#F67205"/>
<stop offset="1" stop-color="#D13F05"/>
</linearGradient>
<linearGradient id="paint21_linear_9_42" x1="84.3869" y1="185.794" x2="182.85" y2="101.737" gradientUnits="userSpaceOnUse">
<stop stop-color="#D13F05"/>
<stop offset="0.29" stop-color="#F67205"/>
<stop offset="0.37" stop-color="#F67705"/>
<stop offset="0.45" stop-color="#F68505"/>
<stop offset="0.54" stop-color="#F69C05"/>
<stop offset="0.56" stop-color="#F6A205"/>
<stop offset="0.6" stop-color="#F69005"/>
<stop offset="0.64" stop-color="#F67F05"/>
<stop offset="0.69" stop-color="#F67505"/>
<stop offset="0.76" stop-color="#F67205"/>
<stop offset="1" stop-color="#D13F05"/>
</linearGradient>
<linearGradient id="paint22_linear_9_42" x1="98.0104" y1="201.762" x2="196.487" y2="117.719" gradientUnits="userSpaceOnUse">
<stop stop-color="#D13F05"/>
<stop offset="0.29" stop-color="#F67205"/>
<stop offset="0.37" stop-color="#F67705"/>
<stop offset="0.45" stop-color="#F68505"/>
<stop offset="0.54" stop-color="#F69C05"/>
<stop offset="0.56" stop-color="#F6A205"/>
<stop offset="0.6" stop-color="#F69005"/>
<stop offset="0.64" stop-color="#F67F05"/>
<stop offset="0.69" stop-color="#F67505"/>
<stop offset="0.76" stop-color="#F67205"/>
<stop offset="1" stop-color="#D13F05"/>
</linearGradient>
<linearGradient id="paint23_linear_9_42" x1="62.0902" y1="162.257" x2="170.748" y2="75.3189" gradientUnits="userSpaceOnUse">
<stop stop-color="white" stop-opacity="0"/>
<stop offset="0.26" stop-color="white"/>
<stop offset="0.76" stop-color="white"/>
<stop offset="1" stop-color="white" stop-opacity="0"/>
</linearGradient>
<linearGradient id="paint24_linear_9_42" x1="156.31" y1="135.341" x2="46.991" y2="89.9259" gradientUnits="userSpaceOnUse">
<stop stop-color="#FFAF02"/>
<stop offset="1" stop-color="#F56D05"/>
</linearGradient>
<linearGradient id="paint25_linear_9_42" x1="74.9967" y1="79.6586" x2="139.118" y2="139.96" gradientUnits="userSpaceOnUse">
<stop stop-color="white" stop-opacity="0"/>
<stop offset="0.26" stop-color="white"/>
<stop offset="0.76" stop-color="white"/>
<stop offset="1" stop-color="white" stop-opacity="0"/>
</linearGradient>
<linearGradient id="paint26_linear_9_42" x1="71.5356" y1="117.523" x2="158.116" y2="117.523" gradientUnits="userSpaceOnUse">
<stop stop-color="#FFAF02"/>
<stop offset="1" stop-color="#F56D05"/>
</linearGradient>
<radialGradient id="paint27_radial_9_42" cx="0" cy="0" r="1" gradientUnits="userSpaceOnUse" gradientTransform="translate(183.643 187.636) rotate(45.4735) scale(3.23054 22.38)">
<stop stop-color="white"/>
<stop offset="0.09" stop-color="white" stop-opacity="0.96"/>
<stop offset="0.24" stop-color="white" stop-opacity="0.85"/>
<stop offset="0.43" stop-color="white" stop-opacity="0.66"/>
<stop offset="0.66" stop-color="white" stop-opacity="0.41"/>
<stop offset="0.93" stop-color="white" stop-opacity="0.09"/>
<stop offset="1" stop-color="white" stop-opacity="0"/>
</radialGradient>
<linearGradient id="paint28_linear_9_42" x1="100.589" y1="100.561" x2="140.375" y2="146.467" gradientUnits="userSpaceOnUse">
<stop stop-color="white"/>
<stop offset="1" stop-color="white" stop-opacity="0"/>
</linearGradient>
<linearGradient id="paint29_linear_9_42" x1="77.8234" y1="79.1397" x2="99.0499" y2="100.322" gradientUnits="userSpaceOnUse">
<stop stop-color="white"/>
<stop offset="1" stop-color="white" stop-opacity="0"/>
</linearGradient>
<linearGradient id="paint30_linear_9_42" x1="163.665" y1="68.1981" x2="203.958" y2="33.8116" gradientUnits="userSpaceOnUse">
<stop stop-color="#D13F05"/>
<stop offset="0.29" stop-color="#F67205"/>
<stop offset="0.37" stop-color="#F67705"/>
<stop offset="0.45" stop-color="#F68505"/>
<stop offset="0.54" stop-color="#F69C05"/>
<stop offset="0.56" stop-color="#F6A205"/>
<stop offset="0.6" stop-color="#F69005"/>
<stop offset="0.64" stop-color="#F67F05"/>
<stop offset="0.69" stop-color="#F67505"/>
<stop offset="0.76" stop-color="#F67205"/>
<stop offset="1" stop-color="#D13F05"/>
</linearGradient>
<linearGradient id="paint31_linear_9_42" x1="164.918" y1="69.6608" x2="205.204" y2="35.2684" gradientUnits="userSpaceOnUse">
<stop stop-color="#D13F05"/>
<stop offset="0.29" stop-color="#F67205"/>
<stop offset="0.37" stop-color="#F67705"/>
<stop offset="0.45" stop-color="#F68505"/>
<stop offset="0.54" stop-color="#F69C05"/>
<stop offset="0.56" stop-color="#F6A205"/>
<stop offset="0.6" stop-color="#F69005"/>
<stop offset="0.64" stop-color="#F67F05"/>
<stop offset="0.69" stop-color="#F67505"/>
<stop offset="0.76" stop-color="#F67205"/>
<stop offset="1" stop-color="#D13F05"/>
</linearGradient>
<linearGradient id="paint32_linear_9_42" x1="170.492" y1="76.1939" x2="210.784" y2="41.8073" gradientUnits="userSpaceOnUse">
<stop stop-color="#D13F05"/>
<stop offset="0.29" stop-color="#F67205"/>
<stop offset="0.37" stop-color="#F67705"/>
<stop offset="0.45" stop-color="#F68505"/>
<stop offset="0.54" stop-color="#F69C05"/>
<stop offset="0.56" stop-color="#F6A205"/>
<stop offset="0.6" stop-color="#F69005"/>
<stop offset="0.64" stop-color="#F67F05"/>
<stop offset="0.69" stop-color="#F67505"/>
<stop offset="0.76" stop-color="#F67205"/>
<stop offset="1" stop-color="#D13F05"/>
</linearGradient>
<linearGradient id="paint33_linear_9_42" x1="155.795" y1="60.0303" x2="200.253" y2="24.4592" gradientUnits="userSpaceOnUse">
<stop stop-color="white" stop-opacity="0"/>
<stop offset="0.26" stop-color="white"/>
<stop offset="0.76" stop-color="white"/>
<stop offset="1" stop-color="white" stop-opacity="0"/>
</linearGradient>
<linearGradient id="paint34_linear_9_42" x1="194.345" y1="49.0172" x2="149.617" y2="30.4354" gradientUnits="userSpaceOnUse">
<stop stop-color="#FFAF02"/>
<stop offset="1" stop-color="#F56D05"/>
</linearGradient>
<linearGradient id="paint35_linear_9_42" x1="161.076" y1="26.2348" x2="187.311" y2="50.9073" gradientUnits="userSpaceOnUse">
<stop stop-color="white" stop-opacity="0"/>
<stop offset="0.26" stop-color="white"/>
<stop offset="0.76" stop-color="white"/>
<stop offset="1" stop-color="white" stop-opacity="0"/>
</linearGradient>
<linearGradient id="paint36_linear_9_42" x1="159.66" y1="41.7273" x2="195.084" y2="41.7273" gradientUnits="userSpaceOnUse">
<stop stop-color="#FFAF02"/>
<stop offset="1" stop-color="#F56D05"/>
</linearGradient>
<radialGradient id="paint37_radial_9_42" cx="0" cy="0" r="1" gradientUnits="userSpaceOnUse" gradientTransform="translate(205.529 70.4143) rotate(45.4735) scale(1.32179 9.15687)">
<stop stop-color="white"/>
<stop offset="0.09" stop-color="white" stop-opacity="0.96"/>
<stop offset="0.24" stop-color="white" stop-opacity="0.85"/>
<stop offset="0.43" stop-color="white" stop-opacity="0.66"/>
<stop offset="0.66" stop-color="white" stop-opacity="0.41"/>
<stop offset="0.93" stop-color="white" stop-opacity="0.09"/>
<stop offset="1" stop-color="white" stop-opacity="0"/>
</radialGradient>
<linearGradient id="paint38_linear_9_42" x1="171.547" y1="34.7869" x2="187.825" y2="53.5699" gradientUnits="userSpaceOnUse">
<stop stop-color="white"/>
<stop offset="1" stop-color="white" stop-opacity="0"/>
</linearGradient>
<linearGradient id="paint39_linear_9_42" x1="162.232" y1="26.0225" x2="170.917" y2="34.6892" gradientUnits="userSpaceOnUse">
<stop stop-color="white"/>
<stop offset="1" stop-color="white" stop-opacity="0"/>
</linearGradient>
<clipPath id="clip0_9_42">
<rect width="52.1754" height="51.9207" fill="white" transform="translate(13.0474 75.1667)"/>
</clipPath>
<clipPath id="clip1_9_42">
<rect width="38.8228" height="38.6333" fill="white" transform="translate(53.0474 4)"/>
</clipPath>
<clipPath id="clip2_9_42">
<rect width="127.52" height="126.898" fill="white" transform="translate(55.375 60.1024)"/>
</clipPath>
<clipPath id="clip3_9_42">
<rect width="52.1754" height="51.9207" fill="white" transform="translate(153.047 18.2333)"/>
</clipPath>
</defs>
</svg>
