<svg xmlns="http://www.w3.org/2000/svg" width="396.61" height="190.517" viewBox="0 0 396.61 190.517">
    <defs>
        <style>
            .cls-1,.cls-2,.cls-3,.cls-4,.cls-5{opacity:.6}.cls-2{fill:#ececec}.cls-3{fill:#bdbdbd}.cls-4{fill:#019bf2}.cls-5{fill:#0b2739}.cls-7{fill:#b9b9b9}.cls-8{fill:#d3d4d3}.cls-11{fill:#86888c}
        </style>
    </defs>
    <g id="group_3_1" transform="translate(-.973 -.483)">
        <g id="Group">
            <g id="Group-2">
                <g id="Group-3">
                    <g id="Group-4" class="cls-1">
                        <g id="Group-5" class="cls-1">
                            <path id="Vector" d="M12.188 71.021c0-2.4 2.1 1.47.919-12.663S5.8 45.982 5.8 41.119s5.175-4.261 7.308 2.475a64.531 64.531 0 0 1 2.739 12.215q2.739-13.515 0-21.365c-2.74-7.848-9.452-8.955-13.23-11.438s-3.184-9.062 0-9.062S16.031 21.158 18.01 26.6a46.572 46.572 0 0 1 2.55 9.883q2.55-15.479 0-22.535C18.01 6.887 17.886 0 20.56 0s5.113 6.039 5.113 9.991v10.53Q27.6 16 34 13.944t9.714 1.825q1.437 4.752-3.135 4.753c-4.573 0-16.044 4.189-16.044 12.134 8.43-1.884 11.471-4.7 19.18 0s-4.232 2.025-12.59 3.823q-8.355 1.8-10.567 12.846 1.508-2.925 7.476-2.925c5.968 0 8.549 5.547 3.094 5.547s-12.543 3.759-15.282 13.748-3.658 7.731-3.658 5.326z" class="cls-2" transform="translate(156.12 93.24)"/>
                            <path id="Vector-2" d="M13.517-80c0 2.709 2.329-1.655 1.02 14.265s-8.1 13.94-8.1 19.418 5.74 4.8 8.1-2.787a73.606 73.606 0 0 0 3.037-13.76q3.037 15.225 0 24.066C14.537-29.959 7.091-28.712 2.9-25.914s-3.53 10.207 0 10.207 14.878-8.126 17.074-14.251A53.229 53.229 0 0 0 22.8-41.091q2.829 17.435 0 25.384C19.975-7.757 19.837 0 22.8 0s5.67-6.8 5.67-11.255v-11.861q2.137 5.091 9.238 7.409t10.774-2.055q1.594-5.355-3.477-5.354c-5.071 0-17.794-4.719-17.794-13.67 9.35 2.124 12.723 5.3 21.271 0s-4.693-2.28-13.961-4.305q-9.27-2.025-11.72-14.47 1.668 3.292 8.288 3.293c6.62 0 9.482-6.248 3.432-6.248S20.612-62.749 17.574-74s-4.057-8.709-4.057-6z" class="cls-3" transform="rotate(180 91.92 42)"/>
                        </g>
                        <g id="Group-6" class="cls-1">
                            <path id="Vector-3" d="M9.086 53.062c0-1.8 1.565 1.1.684-9.461s-5.447-9.246-5.447-12.88 3.858-3.184 5.447 1.849a48.269 48.269 0 0 1 2.042 9.13q2.042-10.1 0-15.962c-2.042-5.868-7.046-6.694-9.862-8.55s-2.374-6.77 0-6.77 10 5.39 11.476 9.452a34.9 34.9 0 0 1 1.9 7.384q1.9-11.563 0-16.836C13.426 5.146 13.333 0 15.326 0s3.812 4.512 3.812 7.465v7.867q1.437-3.376 6.209-4.914t7.242 1.363q1.071 3.552-2.338 3.551c-3.408 0-11.96 3.13-11.96 9.066 6.285-1.408 8.552-3.512 14.3 0s-3.155 1.513-9.385 2.856q-6.229 1.344-7.877 9.6 1.122-2.184 5.57-2.185c4.45 0 6.374 4.144 2.307 4.144s-9.35 2.808-11.392 10.271-2.726 5.777-2.726 3.98z" class="cls-2" transform="translate(209.88 112.56)"/>
                            <path id="Vector-4" d="M10.193-59.593c0 2.018 1.756-1.233.769 10.626S4.85-38.583 4.85-34.5s4.329 3.576 6.112-2.077a54.193 54.193 0 0 0 2.29-10.25q2.292 11.342 0 17.927c-2.29 6.586-7.9 7.514-11.065 9.6s-2.662 7.6 0 7.6 11.22-6.053 12.876-10.616a39.189 39.189 0 0 0 2.137-8.293q2.133 12.987 0 18.909C15.063-5.779 14.959 0 17.2 0s4.276-5.067 4.276-8.383v-8.836q1.611 3.792 6.966 5.519t8.125-1.531q1.2-3.988-2.623-3.988c-3.824 0-13.418-3.515-13.418-10.182 7.051 1.581 9.594 3.944 16.04 0s-3.538-1.7-10.528-3.208q-6.99-1.507-8.838-10.779 1.26 2.454 6.25 2.454c4.992 0 7.15-4.654 2.588-4.654s-10.49-3.154-12.781-11.535-3.06-6.487-3.06-4.47z" class="cls-3" transform="rotate(180 115.44 52.92)"/>
                        </g>
                        <g id="Group-7" class="cls-1">
                            <path id="Vector-5" d="M12.188-71.021c0 2.4 2.1-1.47.919 12.663S5.8-45.982 5.8-41.119s5.175 4.261 7.308-2.475a64.531 64.531 0 0 0 2.739-12.215q2.739 13.515 0 21.365c-2.74 7.848-9.452 8.955-13.23 11.438s-3.184 9.062 0 9.062S16.031-21.158 18.01-26.6a46.572 46.572 0 0 0 2.55-9.883q2.55 15.479 0 22.535C18.01-6.887 17.886 0 20.56 0s5.113-6.039 5.113-9.991v-10.53Q27.6-16 34-13.944t9.714-1.825q1.437-4.752-3.135-4.753c-4.573 0-16.044-4.189-16.044-12.134 8.43 1.884 11.471 4.7 19.18 0s-4.232-2.025-12.59-3.823q-8.355-1.8-10.567-12.846 1.508 2.925 7.476 2.925c5.968 0 8.549-5.547 3.094-5.547s-12.543-3.759-15.282-13.748-3.658-7.731-3.658-5.326z" class="cls-2" transform="rotate(180 138.96 46.62)"/>
                            <path id="Vector-6" d="M13.517 80c0-2.709 2.329 1.655 1.02-14.265s-8.1-13.94-8.1-19.418 5.74-4.8 8.1 2.787a73.606 73.606 0 0 1 3.037 13.76q3.037-15.225 0-24.066C14.537 29.959 7.091 28.712 2.9 25.914s-3.53-10.207 0-10.207 14.878 8.126 17.074 14.251A53.229 53.229 0 0 1 22.8 41.091q2.829-17.435 0-25.384C19.975 7.757 19.837 0 22.8 0s5.67 6.8 5.67 11.255v11.861q2.137-5.091 9.238-7.409t10.774 2.055q1.594 5.355-3.477 5.354c-5.071 0-17.794 4.719-17.794 13.67 9.35-2.124 12.723-5.3 21.271 0s-4.693 2.28-13.961 4.305q-9.27 2.025-11.72 14.47 1.668-3.292 8.288-3.293c6.62 0 9.482 6.248 3.432 6.248S20.612 62.749 17.574 74s-4.057 8.709-4.057 6z" class="cls-3" transform="translate(250.2 84)"/>
                        </g>
                        <g id="Group-8" class="cls-1">
                            <path id="Vector-7" d="M7.756 44.9c0-1.52 1.336.929.585-8.006s-4.65-7.824-4.65-10.9 3.293-2.694 4.65 1.564a40.631 40.631 0 0 1 1.743 7.723q1.743-8.546 0-13.507c-1.743-4.962-6.015-5.661-8.42-7.231s-2.026-5.729 0-5.729 8.537 4.56 9.8 8a29.366 29.366 0 0 1 1.623 6.248q1.623-9.784 0-14.246C11.461 4.354 11.382 0 13.084 0s3.253 3.817 3.253 6.316v6.658q1.227-2.859 5.3-4.159t6.183 1.154q.915 3-2 3.005c-2.91 0-10.21 2.648-10.21 7.67 5.366-1.19 7.3-2.971 12.206 0s-2.693 1.28-8.011 2.417q-5.315 1.139-6.721 8.122.957-1.849 4.756-1.849c3.8 0 5.44 3.506 1.969 3.506s-7.982 2.376-9.725 8.691-2.328 4.888-2.328 3.369z" class="cls-4" transform="translate(135.12 120.96)"/>
                            <path id="Vector-8" d="M8.642-50.613c0 1.714 1.489-1.047.652 9.025S4.112-32.768 4.112-29.3s3.67 3.037 5.182-1.764a46.148 46.148 0 0 0 1.942-8.7q1.943 9.633 0 15.225c-1.942 5.594-6.7 6.382-9.381 8.152s-2.258 6.458 0 6.458 9.512-5.141 10.916-9.016A33.351 33.351 0 0 0 14.579-26q1.809 11.031 0 16.06C12.771-4.908 12.682 0 14.58 0s3.625-4.3 3.625-7.12v-7.505q1.366 3.222 5.907 4.688t6.888-1.3q1.02-3.388-2.223-3.388c-3.243 0-11.377-2.985-11.377-8.647 5.978 1.343 8.134 3.35 13.6 0S28-24.715 22.073-26q-5.925-1.281-7.493-9.154 1.068 2.083 5.3 2.084c4.232 0 6.062-3.953 2.193-3.953s-8.894-2.678-10.836-9.8-2.594-5.51-2.594-3.8z" class="cls-5" transform="rotate(180 76.38 57.54)"/>
                        </g>
                        <path id="Vector-9" d="M165.48 3.78c0 2.088-37.044 3.78-82.74 3.78S0 5.868 0 3.78 37.044 0 82.74 0s82.74 1.692 82.74 3.78z" class="cls-2" transform="translate(118.32 164.64)"/>
                        <g id="Group-9" class="cls-1">
                            <path id="Vector-10" d="M5.137 29.862c0-1.011.885.618.387-5.325s-3.08-5.2-3.08-7.248 2.181-1.792 3.08 1.04a27.024 27.024 0 0 1 1.155 5.136q1.155-5.682 0-8.983c-1.155-3.3-3.979-3.765-5.579-4.81s-1.342-3.81 0-3.81 5.657 3.038 6.491 5.32a19.571 19.571 0 0 1 1.075 4.156q1.074-6.509 0-9.475C7.591 2.9 7.539 0 8.666 0s2.155 2.539 2.155 4.2v4.428a5.247 5.247 0 0 1 3.51-2.765q2.7-.866 4.1.767.606 2-1.321 2c-1.928 0-6.763 1.762-6.763 5.1 3.554-.793 4.835-1.977 8.084 0s-1.783.85-5.306 1.607q-3.522.756-4.454 5.4.635-1.23 3.15-1.23c2.516 0 3.6 2.333 1.3 2.333s-5.287 1.58-6.441 5.78-1.542 3.25-1.542 2.24z" class="cls-4" transform="translate(108.643 136.178)"/>
                            <path id="Vector-11" d="M5.763-33.47c0 1.133.992-.692.434 5.968s-3.456 5.832-3.456 8.124S5.188-17.37 6.2-20.544A30.352 30.352 0 0 0 7.491-26.3q1.295 6.37 0 10.069c-1.3 3.7-4.468 4.22-6.255 5.39s-1.5 4.27 0 4.27 6.342-3.4 7.278-5.962a21.833 21.833 0 0 0 1.205-4.657q1.206 7.294 0 10.62C8.515-3.246 8.456 0 9.721 0s2.417-2.846 2.417-4.709V-9.67a5.891 5.891 0 0 0 3.938 3.1q3.026.969 4.592-.86.679-2.241-1.482-2.24c-2.162 0-7.585-1.974-7.585-5.719 3.986.888 5.423 2.216 9.067 0s-2-.954-5.951-1.8q-3.951-.848-5-6.054.713 1.377 3.533 1.378c2.822 0 4.042-2.614 1.463-2.614s-5.93-1.771-7.224-6.479-1.73-3.643-1.73-2.51z" class="cls-5" transform="rotate(180 60.42 65.52)"/>
                        </g>
                        <g id="Group-10" class="cls-1">
                            <path id="Vector-12" d="M9.75 57.144c0-1.935 1.68 1.182.735-10.19S4.639 37 4.639 33.084s4.14-3.428 5.846 1.991a52.123 52.123 0 0 1 2.192 9.825q2.19-10.875 0-17.19c-2.192-6.315-7.562-7.2-10.585-9.2s-2.547-7.29 0-7.29 10.732 5.8 12.316 10.179a37.638 37.638 0 0 1 2.04 7.952q2.04-12.453 0-18.132C14.408 5.541 14.308 0 16.448 0s4.09 4.859 4.09 8.039v8.473q1.542-3.638 6.664-5.293t7.771 1.468q1.15 3.825-2.508 3.825c-3.658 0-12.835 3.37-12.835 9.763 6.744-1.516 9.177-3.782 15.343 0s-3.385 1.63-10.07 3.076q-6.687 1.449-8.455 10.336 1.2-2.354 5.98-2.353c4.774 0 6.838 4.463 2.474 4.463s-10.034 3.024-12.225 11.06-2.927 6.221-2.927 4.287z" class="cls-4" transform="translate(222.48 108.36)"/>
                            <path id="Vector-13" d="M10.858-64.49c0 2.183 1.87-1.335.819 11.5s-6.51 11.238-6.51 15.654 4.61 3.87 6.51-2.247a59.512 59.512 0 0 0 2.44-11.092q2.44 12.273 0 19.4C11.677-24.15 5.7-23.145 2.33-20.89s-2.836 8.228 0 8.228 11.952-6.55 13.715-11.488a42.969 42.969 0 0 0 2.272-8.975q2.272 14.055 0 20.463C16.045-6.254 15.934 0 18.317 0s4.555-5.483 4.555-9.073v-9.562q1.718 4.105 7.42 5.973t8.655-1.657q1.281-4.316-2.793-4.316c-4.074 0-14.294-3.8-14.294-11.019 7.511 1.712 10.22 4.27 17.087 0s-3.77-1.838-11.215-3.47q-7.446-1.634-9.415-11.666 1.341 2.655 6.659 2.656c5.317 0 7.616-5.037 2.756-5.037s-11.175-3.412-13.615-12.483-3.259-7.02-3.259-4.837z" class="cls-5" transform="rotate(180 122.16 50.4)"/>
                        </g>
                        <g id="Group-11" class="cls-1">
                            <path id="Vector-14" d="M2.88 17.143c0-.58.5.355.218-3.057S1.371 11.1 1.371 9.926s1.223-1.03 1.727.6a15.783 15.783 0 0 1 .647 2.948 10.247 10.247 0 0 0 0-5.157C3.1 6.42 1.511 6.153.618 5.554s-.752-2.188 0-2.188A6.493 6.493 0 0 1 4.257 6.42a11.448 11.448 0 0 1 .6 2.385 12 12 0 0 0 0-5.44C4.257 1.662 4.227 0 4.86 0s1.208 1.458 1.208 2.412v2.542a2.958 2.958 0 0 1 1.969-1.588 1.949 1.949 0 0 1 2.3.44q.339 1.147-.741 1.148c-1.08 0-3.792 1.01-3.792 2.929 1.992-.455 2.711-1.135 4.533 0s-1 .488-2.976.922q-1.974.435-2.5 3.1.355-.705 1.766-.706c1.41 0 2.02 1.34.731 1.34s-2.964.906-3.612 3.317-.864 1.867-.864 1.286z" class="cls-4" transform="translate(277.92 151.2)"/>
                            <path id="Vector-15" d="M3.324-19.592c0 .663.573-.405.25 3.493s-1.992 3.414-1.992 4.756 1.411 1.175 1.993-.683a18.069 18.069 0 0 0 .747-3.37 11.615 11.615 0 0 1 0 5.894C3.575-7.337 1.744-7.032.713-6.346s-.868 2.5 0 2.5 3.659-1.99 4.2-3.49a12.935 12.935 0 0 0 .695-2.727q.7 4.269 0 6.216C4.912-1.9 4.877 0 5.607 0S7-1.666 7-2.756v-2.9a3.4 3.4 0 0 0 2.273 1.809 2.265 2.265 0 0 0 2.65-.5q.39-1.311-.855-1.311c-1.248 0-4.376-1.156-4.376-3.348 2.3.52 3.128 1.3 5.23 0s-1.153-.558-3.433-1.054q-2.28-.495-2.882-3.544.411.807 2.039.807c1.627 0 2.331-1.53.843-1.53s-3.42-1.037-4.167-3.793-1-2.132-1-1.47z" class="cls-5" transform="rotate(180 142.32 74.34)"/>
                        </g>
                    </g>
                    <text id="_Ups_" fill="#0b2739" font-family="Roboto-Bold, Roboto" font-size="60px" font-weight="700" transform="translate(131.73 112)">
                        <tspan x="0" y="63">¡Ups!</tspan>
                    </text>
                    <g id="Group-12">
                        <path id="Vector-16" d="M9 0h12v39H9a9 9 0 0 1-9-9V9a9 9 0 0 1 9-9z" class="cls-7" transform="translate(168 37.483)"/>
                        <path id="Vector-17" d="M1.8 0h10.4A1.8 1.8 0 0 1 14 1.8v.4A1.8 1.8 0 0 1 12.2 4H1.8A1.8 1.8 0 0 1 0 2.2v-.4A1.8 1.8 0 0 1 1.8 0z" class="cls-8" transform="translate(207 46.483)"/>
                        <path id="Vector-18" d="M1.8 0h10.4A1.8 1.8 0 0 1 14 1.8v.4A1.8 1.8 0 0 1 12.2 4H1.8A1.8 1.8 0 0 1 0 2.2v-.4A1.8 1.8 0 0 1 1.8 0z" class="cls-8" transform="translate(207 62.483)"/>
                        <path id="Vector-19" d="M9 0h12v39H9a9 9 0 0 1-9-9V9a9 9 0 0 1 9-9z" class="cls-7" transform="translate(219 37.483)"/>
                        <path id="Vector-20" fill="#50535a" d="M35.375 10.457a.85.85 0 0 1 1.19-.335.939.939 0 0 1 .357 1.169l-.039.078-7.258 13.174a.849.849 0 0 1-1.19.334.937.937 0 0 1-.357-1.168l.039-.079 7.258-13.174zM.436 10.122a.846.846 0 0 1 1.144.26l.045.074L8.883 23.63a.937.937 0 0 1-.319 1.247.846.846 0 0 1-1.144-.26l-.045-.074L.117 11.369a.937.937 0 0 1 .319-1.247zM19 0a.962.962 0 0 1 .995.8L20 .888v20.223A.95.95 0 0 1 19 22a.962.962 0 0 1-1-.8V.888A.949.949 0 0 1 19 0z" transform="translate(188 .483)"/>
                        <path id="Vector-21" d="M373.491 7.8q-50.358 11.142-117.114-.046l-1.35-.228.707-4.051q66.84 11.388 116.848.313l3.626-.8c28.636-6.288 26.576-1.667-2.717 4.812zm-271.854 3.419l1.84-.479c29.517-7.64 46.975-10.1 53.356-7.2l.194.092-1.82 3.741c-5-2.447-22.866.113-52.523 7.874l-1.427.378c-7.46 1.993-15.1 4.35-25.07 7.664l-5.624 1.883-8.1 2.731C40.737 35.2 29.228 38.6 15.109 41.449c-19.334 3.9-20.33-.228-1.734-3.9l.915-.183c13.76-2.777 25.055-6.1 46.2-13.191l13.75-4.626 2.59-.858c9.734-3.21 17.278-5.5 24.808-7.474z" class="cls-8" transform="translate(.973 51.123)"/>
                        <path id="Vector-22" fill="#d8d8d8" d="M5 0v20a5 5 0 0 1-5-5V5a5 5 0 0 1 5-5z" transform="translate(163 46.483)"/>
                        <path id="Vector-23" d="M5 0v-20a5 5 0 0 0-5 5v10a5 5 0 0 0 5 5z" class="cls-7" transform="rotate(180 125 23.242)"/>
                        <path id="Vector-24" d="M3.5 0H11v7H3.5a3.5 3.5 0 0 1 0-7z" class="cls-11" transform="translate(152 53.483)"/>
                        <path id="Vector-25" d="M3.5 0H11v-7H3.5A3.5 3.5 0 0 0 0-3.5 3.5 3.5 0 0 0 3.5 0z" class="cls-11" transform="rotate(180 131 26.742)"/>
                        <path id="Vector-26" d="M2.5 0A2.5 2.5 0 0 1 5 2.5v38a2.5 2.5 0 0 1-5 0v-38A2.5 2.5 0 0 1 2.5 0z" class="cls-11" transform="translate(190 35.483)"/>
                        <path id="Vector-27" d="M2.5 0A2.5 2.5 0 0 1 5 2.5v38a2.5 2.5 0 0 1-5 0v-38A2.5 2.5 0 0 1 2.5 0z" class="cls-11" transform="translate(240 35.483)"/>
                        <path id="Vector-28" fill="none" stroke="#fff" stroke-linecap="round" stroke-linejoin="round" stroke-width="1.5px" d="M8 0zm0 5zm0 4zm0 5zm0 4zm0 5H0" transform="translate(181 44.983)"/>
                    </g>
                </g>
            </g>
        </g>
    </g>
</svg>
