<svg id="Capa_1" data-name="Capa 1" xmlns="http://www.w3.org/2000/svg" xmlns:xlink="http://www.w3.org/1999/xlink" viewBox="0 0 1121.36 393.7"><defs><style>.cls-1{fill:none;}.cls-2{isolation:isolate;}.cls-3{clip-path:url(#clip-path);}.cls-4{fill:#036477;}.cls-5{clip-path:url(#clip-path-2);}.cls-6{fill:#03596b;}.cls-7{clip-path:url(#clip-path-3);}.cls-8{fill:#036073;}.cls-9{fill:#035d6f;}.cls-10{clip-path:url(#clip-path-4);}.cls-11{clip-path:url(#clip-path-5);}.cls-12{fill:#059cbb;}.cls-13{clip-path:url(#clip-path-6);}.cls-14{clip-path:url(#clip-path-7);}.cls-15{clip-path:url(#clip-path-8);}.cls-16{clip-path:url(#clip-path-9);}.cls-17{clip-path:url(#clip-path-10);}.cls-18{clip-path:url(#clip-path-11);}.cls-19{fill:#03677c;}.cls-20{clip-path:url(#clip-path-12);}.cls-21{clip-path:url(#clip-path-13);}.cls-22{clip-path:url(#clip-path-14);}.cls-23{clip-path:url(#clip-path-15);}.cls-24{clip-path:url(#clip-path-16);}.cls-25{clip-path:url(#clip-path-17);}.cls-26{clip-path:url(#clip-path-18);}.cls-27{fill:#862320;}.cls-28{clip-path:url(#clip-path-19);}.cls-29{fill:#78201d;}.cls-30{clip-path:url(#clip-path-20);}.cls-31{fill:#7d211e;}.cls-32{fill:#81221f;}.cls-33{clip-path:url(#clip-path-21);}.cls-34{clip-path:url(#clip-path-22);}.cls-35{fill:#d23732;}.cls-36{clip-path:url(#clip-path-23);}.cls-37{clip-path:url(#clip-path-24);}.cls-38{clip-path:url(#clip-path-25);}.cls-39{clip-path:url(#clip-path-26);}.cls-40{clip-path:url(#clip-path-27);}.cls-41{clip-path:url(#clip-path-28);}.cls-42{clip-path:url(#clip-path-29);}.cls-43{clip-path:url(#clip-path-30);}.cls-44{fill:#8b2521;}.cls-45{clip-path:url(#clip-path-31);}.cls-46{clip-path:url(#clip-path-32);}</style><clipPath id="clip-path"><path class="cls-1" d="M1038.56,96.81l-68.15-15,32.09-2.18,68.15,15Z"/></clipPath><clipPath id="clip-path-2"><path class="cls-1" d="M931.75,188.13l68.15,15c2.24.49,3.17,2.2,3.27,6,.4,17.63,1.33,35.17,2.08,52.77l.42,10-68.15-15c-.15-3.47-.29-6.7-.43-10-.74-17.59-1.68-35.14-2.07-52.76C934.91,190.32,934,188.62,931.75,188.13Z"/></clipPath><clipPath id="clip-path-3"><path class="cls-1" d="M993.45,169.24l-68.16-15,15.69-1c5.11-.35,10.13-.71,15.15-1.13,1.41-.1,3-.13,4.58-.15,1.41,0,2.84,0,4.21-.13,3-.2,5.59-.75,7.13-2.36,2.7-2.89.73-10.7.53-16.34-.54-14.46-1.23-28.9-1.84-43.36l-.33-7.92,68.15,15c.12,2.9.23,5.44.34,7.92.61,14.46,1.3,28.91,1.83,43.37.2,5.64,2.18,13.45-.52,16.33-1.54,1.62-4.19,2.16-7.14,2.36-1.36.09-2.79.11-4.2.13-1.57,0-3.18.05-4.58.15-5,.42-10,.78-15.16,1.13S998.82,168.88,993.45,169.24Z"/></clipPath><clipPath id="clip-path-4"><path class="cls-1" d="M962.78,205.19l-68.15-15c-1.47-34.59-2.91-68.68-4.36-103.06l68.15,15C959.87,136.51,961.32,170.61,962.78,205.19Z"/></clipPath><clipPath id="clip-path-5"><path class="cls-1" d="M958.42,102.13l-68.15-15,32.09-2.18,68.15,15Z"/></clipPath><clipPath id="clip-path-6"><path class="cls-1" d="M904.27,278.9l-68.15-15c-1-22.75-1.92-45.49-2.91-68.72l68.16,15Z"/></clipPath><clipPath id="clip-path-7"><path class="cls-1" d="M899.42,175.26l-68.16-15c-.49-11.72-1-23.11-1.48-35l68.16,15C898.44,152.15,898.92,163.54,899.42,175.26Z"/></clipPath><clipPath id="clip-path-8"><path class="cls-1" d="M852.31,178.46l-68.15-15,47.1-3.2,68.16,15Z"/></clipPath><clipPath id="clip-path-9"><path class="cls-1" d="M824.33,284.21l-68.15-15c-2.44-57.49-4.86-114.81-7.3-172.47l68.15,15C819.47,169.39,821.9,226.72,824.33,284.21Z"/></clipPath><clipPath id="clip-path-10"><path class="cls-1" d="M817,111.74l-68.15-15L861,89.08l68.15,15Z"/></clipPath><clipPath id="clip-path-11"><path class="cls-1" d="M715.69,257.84l-68.16-15a24.14,24.14,0,0,0,5.6-.05l66.14-4.49,6.41-.44,68.16,15-6.42.44-66.14,4.49A24,24,0,0,1,715.69,257.84Z"/></clipPath><clipPath id="clip-path-12"><path class="cls-1" d="M683.06,293.84l-68.16-15c-2.42-57.33-4.85-114.61-7.3-172.59l68.15,15C678.21,179.23,680.63,236.52,683.06,293.84Z"/></clipPath><clipPath id="clip-path-13"><path class="cls-1" d="M675.75,121.25l-68.15-15L639.54,104l68.15,15Z"/></clipPath><clipPath id="clip-path-14"><path class="cls-1" d="M616.48,194.44l-68.15-15.05c-.51-12-1-23.52-1.49-35.15l68.15,15C615.48,170.92,616,182.47,616.48,194.44Z"/></clipPath><clipPath id="clip-path-15"><path class="cls-1" d="M569.57,197.62l-68.15-15,46.91-3.19,68.15,15.05Z"/></clipPath><clipPath id="clip-path-16"><path class="cls-1" d="M541.74,303.4l-68.15-15q-3.63-85.81-7.3-172.6l68.15,15Z"/></clipPath><clipPath id="clip-path-17"><path class="cls-1" d="M534.44,130.81l-68.15-15,111.83-7.59,68.16,15Z"/></clipPath><clipPath id="clip-path-18"><path class="cls-1" d="M478.92,134.28l-68.15-15c3.86-.15,7.3-.35,10.79-.59,4.66-.32,9.42-.69,14.42-1l68.16,15c-5,.34-9.77.72-14.42,1C486.22,133.93,482.79,134.13,478.92,134.28Z"/></clipPath><clipPath id="clip-path-19"><path class="cls-1" d="M483.91,307.53l-68.16-15c-1.39-.31-3-2-3.91-3.34q-19.63-30.6-39.13-61.38c-1.18-1.85-2.47-3.69-3.81-5.73l68.15,15.05c1.34,2,2.63,3.87,3.81,5.72,13.06,20.49,26,41,39.13,61.38C480.89,305.56,482.51,307.22,483.91,307.53Z"/></clipPath><clipPath id="clip-path-20"><path class="cls-1" d="M427.67,205.38l-68.15-15c2.08-2.76,3.23-4.19,4.26-5.73,13.45-20.29,26.94-40.53,40.23-60.92,1.8-2.79,3.62-4.23,6.76-4.44l68.15,15c-3.14.22-5,1.65-6.75,4.44-13.29,20.39-26.78,40.64-40.23,60.92C430.9,201.19,429.75,202.62,427.67,205.38Z"/></clipPath><clipPath id="clip-path-21"><path class="cls-1" d="M392.86,140.5l-68.16-15,32-2.17,68.15,15Z"/></clipPath><clipPath id="clip-path-22"><path class="cls-1" d="M400.16,313.14,332,298.09c-2.44-57.61-4.86-114.94-7.31-172.63l68.16,15C395.3,198.2,397.73,255.52,400.16,313.14Z"/></clipPath><clipPath id="clip-path-23"><path class="cls-1" d="M329.63,284.35l-68.15-15,39.21-2.67,68.15,15.05Z"/></clipPath><clipPath id="clip-path-24"><path class="cls-1" d="M296.1,286.79l-68.15-15c-1.5-35.32-3-70.11-4.47-105.59l68.15,15C293.13,216.68,294.61,251.47,296.1,286.79Z"/></clipPath><clipPath id="clip-path-25"><path class="cls-1" d="M257.52,289.41l-68.15-15L228,271.75l68.15,15Z"/></clipPath><clipPath id="clip-path-26"><path class="cls-1" d="M258.93,322.69l-68.16-15.05c-.46-10.86-.92-21.8-1.4-33.27l68.15,15C258,300.88,258.47,311.83,258.93,322.69Z"/></clipPath><clipPath id="clip-path-27"><path class="cls-1" d="M252.93,183.83l-68.15-15c-.49-11.56-.95-22.38-1.43-33.81l68.15,15C252,161.45,252.44,172.27,252.93,183.83Z"/></clipPath><clipPath id="clip-path-28"><path class="cls-1" d="M251.5,150l-68.15-15,111.37-7.57,68.15,15.05Z"/></clipPath><clipPath id="clip-path-29"><path class="cls-1" d="M192,223.6l-68.15-15c-.53-12.37-1-23.76-1.5-35.32l68.16,15.05C191,199.83,191.45,211.22,192,223.6Z"/></clipPath><clipPath id="clip-path-30"><path class="cls-1" d="M147.18,226.47,79,211.43a.78.78,0,0,0,.26,0c9.83-.56,19.64-1.2,29.55-1.88l15-1,68.15,15-15,1c-9.92.67-19.73,1.32-29.56,1.88Z"/></clipPath><clipPath id="clip-path-31"><path class="cls-1" d="M117.5,332.42,49.35,317.37C46.92,259.92,44.49,202.51,42,144.74l68.16,15C112.64,217.56,115.07,275,117.5,332.42Z"/></clipPath><clipPath id="clip-path-32"><path class="cls-1" d="M110.2,159.78,42,144.74l111.29-7.56,68.16,15Z"/></clipPath></defs><title>LOGO EN SVG</title><g class="cls-2"><g class="cls-2"><g class="cls-3"><g class="cls-2"><path class="cls-4" d="M1038.56,96.81l-68.15-15,32.09-2.18,68.15,15-32.09,2.18"/></g></g></g><g class="cls-2"><g class="cls-5"><g class="cls-2"><path class="cls-6" d="M1005.67,271.89l-68.15-15-.43-10c-.74-17.59-1.68-35.14-2.07-52.76-.11-3.8-1-5.5-3.27-6l68.15,15c2.24.49,3.17,2.2,3.27,6,.4,17.63,1.33,35.17,2.08,52.77l.42,10"/></g></g></g><g class="cls-2"><g class="cls-7"><g class="cls-2"><path class="cls-4" d="M993.45,169.24l-68.16-15,15.69-1c5.11-.35,10.13-.71,15.15-1.13,1.41-.1,3-.13,4.58-.15,1.41,0,2.84,0,4.21-.13a19.45,19.45,0,0,0,4.09-.65l68.15,15a18.72,18.72,0,0,1-4.09.65c-1.36.09-2.79.11-4.2.13-1.57,0-3.18.05-4.58.15-5,.42-10,.78-15.16,1.13s-10.31.68-15.68,1"/><path class="cls-8" d="M1037.16,166.14,969,151.1a8.28,8.28,0,0,0,1.87-.79l68.15,15a7.91,7.91,0,0,1-1.87.79"/><path class="cls-9" d="M1039,165.35l-68.15-15a5.6,5.6,0,0,0,1.09-.83l68.15,15a5.32,5.32,0,0,1-1.09.83"/><path class="cls-6" d="M1040.12,164.52l-68.15-15,.08-.09c2.7-2.89.73-10.7.53-16.34-.54-14.46-1.23-28.9-1.84-43.36l-.33-7.92,68.15,15,.34,7.92c.61,14.46,1.3,28.91,1.83,43.37.2,5.64,2.18,13.45-.52,16.33l-.09.09"/></g></g></g><g class="cls-2"><g class="cls-10"><g class="cls-2"><path class="cls-6" d="M962.78,205.19l-68.15-15L890.27,87.09l68.15,15,4.36,103.06"/></g></g></g><g class="cls-2"><g class="cls-11"><g class="cls-2"><path class="cls-4" d="M958.42,102.13l-68.15-15,32.09-2.18,68.15,15-32.09,2.18"/></g></g></g><path class="cls-12" d="M990.51,100l2.94,69.29c5.37-.36,10.57-.69,15.68-1s10.13-.71,15.16-1.13c1.4-.1,3-.12,4.58-.15,1.41,0,2.84,0,4.2-.13,3-.2,5.6-.74,7.14-2.36,2.7-2.88.72-10.69.52-16.33-.53-14.46-1.22-28.91-1.83-43.37l-.34-7.92,32.09-2.18L1075,197.81l-39.68,2.7,2.93,69.17-32.6,2.21-.42-10c-.75-17.6-1.68-35.14-2.08-52.77-.14-5.07-1.74-6.4-6-6.11l-.74.06c-3.9.4-7.8.71-11.71,1-5.25.35-10.5.63-15.77,1-2,.13-4,.11-6.19.13l-4.36-103.06Z"/></g><g class="cls-2"><g class="cls-2"><g class="cls-13"><g class="cls-2"><path class="cls-6" d="M904.27,278.9l-68.15-15-2.91-68.72,68.16,15,2.9,68.72"/></g></g></g><g class="cls-2"><g class="cls-14"><g class="cls-2"><path class="cls-6" d="M899.42,175.26l-68.16-15-1.48-35,68.16,15,1.48,35"/></g></g></g><g class="cls-2"><g class="cls-15"><g class="cls-2"><path class="cls-4" d="M852.31,178.46l-68.15-15,47.1-3.2,68.16,15-47.11,3.2"/></g></g></g><g class="cls-2"><g class="cls-16"><g class="cls-2"><path class="cls-6" d="M824.33,284.21l-68.15-15-7.3-172.47,68.15,15,7.3,172.47"/></g></g></g><g class="cls-2"><g class="cls-17"><g class="cls-2"><path class="cls-4" d="M817,111.74l-68.15-15L861,89.08l68.15,15L817,111.74"/></g></g></g><path class="cls-12" d="M817,111.74l112.07-7.61,7.31,172.59-32.14,2.18-2.9-68.72-47.73,3.24,2.9,68.6-32.21,2.19Zm82.39,63.52-1.48-35-47.11,3.2,1.48,35,47.11-3.2"/></g><g class="cls-2"><g class="cls-2"><g class="cls-18"><g class="cls-2"><path class="cls-19" d="M715.69,257.84l-68.16-15a6.59,6.59,0,0,0,1,.12l68.16,15a6.26,6.26,0,0,1-1-.12"/><path class="cls-4" d="M716.66,258l-68.16-15a39.75,39.75,0,0,0,4.63-.17l66.14-4.49,6.41-.44,68.16,15-6.42.44-66.14,4.49a39.59,39.59,0,0,1-4.62.17"/></g></g></g><g class="cls-2"><g class="cls-20"><g class="cls-2"><path class="cls-6" d="M683.06,293.84l-68.16-15-7.3-172.59,68.15,15,7.31,172.59"/></g></g></g><g class="cls-2"><g class="cls-21"><g class="cls-2"><path class="cls-4" d="M675.75,121.25l-68.15-15L639.54,104l68.15,15-31.94,2.17"/></g></g></g><path class="cls-12" d="M707.69,119.08l.31,7.35,5.25,124.13c.33,7.75.33,7.75,8,7.23l66.14-4.49,6.42-.44,1.41,33.36-112.19,7.62-7.31-172.59Z"/></g><g class="cls-2"><g class="cls-2"><g class="cls-22"><g class="cls-2"><path class="cls-6" d="M616.48,194.44l-68.15-15.05-1.49-35.15,68.15,15,1.49,35.16"/></g></g></g><g class="cls-2"><g class="cls-23"><g class="cls-2"><path class="cls-4" d="M569.57,197.62l-68.15-15,46.91-3.19,68.15,15.05-46.91,3.18"/></g></g></g><g class="cls-2"><g class="cls-24"><g class="cls-2"><path class="cls-6" d="M541.74,303.4l-68.15-15-7.3-172.6,68.15,15,7.3,172.59"/></g></g></g><g class="cls-2"><g class="cls-25"><g class="cls-2"><path class="cls-4" d="M534.44,130.81l-68.15-15,111.83-7.59,68.16,15-111.84,7.6"/></g></g></g><path class="cls-12" d="M534.44,130.81l111.84-7.6,4.36,103.14-79.7,5.41,2.94,69.46-32.14,2.18Zm82,63.63L615,159.28l-46.91,3.19,1.49,35.15,46.91-3.18"/></g><g class="cls-2"><g class="cls-2"><g class="cls-26"><g class="cls-2"><path class="cls-27" d="M478.92,134.28l-68.15-15c3.86-.15,7.3-.35,10.79-.59,4.66-.32,9.42-.69,14.42-1l68.16,15c-5,.34-9.77.72-14.42,1-3.5.24-6.93.44-10.8.59"/></g></g></g><g class="cls-2"><g class="cls-28"><g class="cls-2"><path class="cls-29" d="M483.91,307.53l-68.16-15c-1.39-.31-3-2-3.91-3.34q-19.63-30.6-39.13-61.38c-1.18-1.85-2.47-3.69-3.81-5.73l68.15,15.05c1.34,2,2.63,3.87,3.81,5.72,13.06,20.49,26,41,39.13,61.38.9,1.37,2.52,3,3.92,3.34"/></g></g></g><g class="cls-2"><g class="cls-30"><g class="cls-2"><path class="cls-29" d="M427.67,205.38l-68.15-15c2.08-2.76,3.23-4.19,4.26-5.73,13.45-20.29,26.94-40.53,40.23-60.92a13.46,13.46,0,0,1,1.77-2.26l68.16,15a13.35,13.35,0,0,0-1.77,2.26c-13.29,20.39-26.78,40.64-40.23,60.92-1,1.55-2.19,3-4.27,5.74"/><path class="cls-31" d="M473.94,136.46l-68.16-15a7.37,7.37,0,0,1,1.49-1.17l68.15,15a7.77,7.77,0,0,0-1.48,1.17"/><path class="cls-32" d="M475.42,135.29l-68.15-15a6.83,6.83,0,0,1,1.56-.68l68.16,15a7.16,7.16,0,0,0-1.57.68"/><path class="cls-27" d="M477,134.61l-68.16-15a9.34,9.34,0,0,1,1.94-.33l68.15,15a9.13,9.13,0,0,0-1.93.33"/></g></g></g><g class="cls-2"><g class="cls-33"><g class="cls-2"><path class="cls-27" d="M392.86,140.5l-68.16-15,32-2.17,68.15,15-32,2.17"/></g></g></g><g class="cls-2"><g class="cls-34"><g class="cls-2"><path class="cls-29" d="M400.16,313.14,332,298.09,324.7,125.46l68.16,15,7.3,172.64"/></g></g></g><path class="cls-35" d="M478.92,134.28c3.87-.15,7.3-.35,10.8-.59,4.65-.31,9.41-.69,14.42-1-1,1.87-1.59,3.22-2.37,4.42-15.28,23.27-30.48,46.62-45.93,69.78-2.47,3.65-2.52,6.15-.21,9.76,17.8,27.87,35.37,55.83,53,83.79,1,1.57,1.86,3.23,3.21,5.47-4.83.33-9.47.68-14,1s-9,.57-13.44.71c-1.49.06-3.41-1.86-4.42-3.39-13.09-20.4-26.07-40.89-39.13-61.38-1.18-1.85-2.47-3.68-3.81-5.72-5.4,5.77-8,11.39-7.38,19.3,1.31,16,1.55,32,2.23,48l.28,6.57-32,2.18-7.3-172.64,32-2.17,2.84,67c2.08-2.76,3.23-4.19,4.27-5.74,13.45-20.28,26.94-40.53,40.23-60.92C474,135.93,475.78,134.5,478.92,134.28Z"/></g><g class="cls-2"><g class="cls-2"><g class="cls-36"><g class="cls-2"><path class="cls-27" d="M329.63,284.35l-68.15-15,39.21-2.67,68.15,15.05-39.21,2.66"/></g></g></g><g class="cls-2"><g class="cls-37"><g class="cls-2"><path class="cls-29" d="M296.1,286.79l-68.15-15-4.47-105.59,68.15,15,4.47,105.59"/></g></g></g><g class="cls-2"><g class="cls-38"><g class="cls-2"><path class="cls-27" d="M257.52,289.41l-68.15-15L228,271.75l68.15,15-38.58,2.62"/></g></g></g><g class="cls-2"><g class="cls-39"><g class="cls-2"><path class="cls-29" d="M258.93,322.69l-68.16-15.05-1.4-33.27,68.15,15,1.41,33.28"/></g></g></g><g class="cls-2"><g class="cls-40"><g class="cls-2"><path class="cls-29" d="M252.93,183.83l-68.15-15L183.35,135l68.15,15,1.43,33.81"/></g></g></g><g class="cls-2"><g class="cls-41"><g class="cls-2"><path class="cls-27" d="M251.5,150l-68.15-15,111.37-7.57,68.15,15.05L251.5,150"/></g></g></g><path class="cls-35" d="M362.87,142.46,364.29,176l-39.13,2.66,4.47,105.67,39.21-2.66,1.42,33.44-111.33,7.56-1.41-33.28,38.58-2.62L291.63,181.2l-38.7,2.63L251.5,150Z"/></g><g class="cls-2"><g class="cls-2"><g class="cls-42"><g class="cls-2"><path class="cls-29" d="M192,223.6l-68.15-15-1.5-35.32,68.16,15.05L192,223.6"/></g></g></g><g class="cls-2"><g class="cls-43"><g class="cls-2"><path class="cls-44" d="M147.18,226.47,79,211.43l.15,0,68.15,15.05-.15,0"/><path class="cls-27" d="M147.33,226.5,79.18,211.45a.21.21,0,0,0,.11,0c9.83-.56,19.64-1.2,29.55-1.88l15-1,68.15,15-15,1c-9.92.67-19.73,1.32-29.56,1.88h-.11"/></g></g></g><g class="cls-2"><g class="cls-45"><g class="cls-2"><path class="cls-29" d="M117.5,332.42,49.35,317.37,42,144.74l68.16,15,7.3,172.64"/></g></g></g><g class="cls-2"><g class="cls-46"><g class="cls-2"><path class="cls-27" d="M110.2,159.78,42,144.74l111.29-7.56,68.16,15L110.2,159.78"/></g></g></g><path class="cls-35" d="M110.2,159.78l111.29-7.56,4.37,103.35-6.41.43c-7,.48-14.07,1-21.07,1.48l-11.42.77c-11.43.78-22.83,1.53-34.24,2.12-5.61.38-6.76,2.34-6.46,7.73,1.1,18.51,1.69,37.11,2.47,55.64.09,2.09,0,4.22,0,6.56l-31.2,2.12ZM192,223.6l-1.49-35.32-47.27,3.21c.47,11.06.85,21.77,1.5,32.45.08.94,1.83,2.62,2.73,2.56,9.83-.56,19.64-1.21,29.56-1.88l15-1"/></g></svg>