<svg id="Capa_1" data-name="Capa 1" xmlns="http://www.w3.org/2000/svg" xmlns:xlink="http://www.w3.org/1999/xlink" viewBox="0 0 1113.7 301.24"><defs><style>.cls-1{fill:none;}.cls-2{isolation:isolate;}.cls-3{clip-path:url(#clip-path);}.cls-4{fill:#03596b;}.cls-5{clip-path:url(#clip-path-2);}.cls-6{fill:#036e84;}.cls-7{clip-path:url(#clip-path-3);}.cls-8{fill:#036b80;}.cls-9{fill:#03677c;}.cls-10{fill:#036477;}.cls-11{fill:#036073;}.cls-12{fill:#035d6f;}.cls-13{clip-path:url(#clip-path-4);}.cls-14{clip-path:url(#clip-path-5);}.cls-15{fill:#0495b3;}.cls-16{clip-path:url(#clip-path-6);}.cls-17{clip-path:url(#clip-path-7);}.cls-18{clip-path:url(#clip-path-8);}.cls-19{clip-path:url(#clip-path-9);}.cls-20{clip-path:url(#clip-path-10);}.cls-21{clip-path:url(#clip-path-11);}.cls-22{clip-path:url(#clip-path-12);}.cls-23{clip-path:url(#clip-path-13);}.cls-24{clip-path:url(#clip-path-14);}.cls-25{clip-path:url(#clip-path-15);}.cls-26{clip-path:url(#clip-path-16);}.cls-27{clip-path:url(#clip-path-17);}.cls-28{clip-path:url(#clip-path-18);}.cls-29{fill:#78201d;}.cls-30{clip-path:url(#clip-path-19);}.cls-31{fill:#942723;}.cls-32{clip-path:url(#clip-path-20);}.cls-33{fill:#81221f;}.cls-34{fill:#862320;}.cls-35{fill:#8b2521;}.cls-36{fill:#8f2622;}.cls-37{clip-path:url(#clip-path-21);}.cls-38{clip-path:url(#clip-path-22);}.cls-39{fill:#c93530;}.cls-40{clip-path:url(#clip-path-23);}.cls-41{clip-path:url(#clip-path-24);}.cls-42{clip-path:url(#clip-path-25);}.cls-43{clip-path:url(#clip-path-26);}.cls-44{clip-path:url(#clip-path-27);}.cls-45{clip-path:url(#clip-path-28);}.cls-46{clip-path:url(#clip-path-29);}.cls-47{clip-path:url(#clip-path-30);}.cls-48{clip-path:url(#clip-path-31);}.cls-49{clip-path:url(#clip-path-32);}</style><clipPath id="clip-path"><path class="cls-1" d="M879.11,136.53l26.46,12.56a2.59,2.59,0,0,1,.92.72,3.45,3.45,0,0,1,.58,1.15,7.84,7.84,0,0,1,.28,1.65,20.13,20.13,0,0,1,0,2.19q-.37,6.48-.67,12.95t-.56,12.94q-.25,6.47-.5,12.93t-.5,12.93L905,209l-.1,2.42-.1,2.45-.1,2.5-26.43-12.79.1-2.49.09-2.44.1-2.41.1-2.4q.26-6.43.5-12.88t.49-12.89q.26-6.45.55-12.9t.66-12.9a17.88,17.88,0,0,0,0-2.19,6.73,6.73,0,0,0-.28-1.64,3.36,3.36,0,0,0-.58-1.15A2.53,2.53,0,0,0,879.11,136.53Z"/></clipPath><clipPath id="clip-path-2"><path class="cls-1" d="M946.7,44.59l-26.62-12.2,7.06-.48,6.94-.46L941,31l7-.47L974.66,42.7l-7,.47-6.93.47-7,.47Z"/></clipPath><clipPath id="clip-path-3"><path class="cls-1" d="M902,115.5,875.5,103.05l4.11-.28,4-.27,4-.26,3.93-.27,2.71-.19,2.69-.2,2.69-.21,2.68-.22,1.08-.07,1,0,1,0h2.77l.91,0,.9,0c.64,0,1.27-.11,1.87-.21a11.37,11.37,0,0,0,1.72-.41,7.16,7.16,0,0,0,1.52-.67,5.19,5.19,0,0,0,1.24-1,6,6,0,0,0,1.3-2.89,22.58,22.58,0,0,0,.41-4.07c0-1.48,0-3,0-4.58s0-3,0-4.43q.24-5.31.47-10.62t.44-10.62l.42-10.63.42-10.63.08-1.84.08-1.89.08-2,.08-2.08,26.62,12.2-.09,2.09-.08,2-.08,1.89-.07,1.85q-.23,5.34-.43,10.66t-.43,10.66q-.21,5.34-.44,10.66c-.16,3.55-.31,7.11-.48,10.66-.07,1.38-.05,2.9,0,4.44s.06,3.12,0,4.6a22.7,22.7,0,0,1-.41,4.08,6.14,6.14,0,0,1-1.31,2.9,5.77,5.77,0,0,1-1.25,1,6.94,6.94,0,0,1-1.52.67,11.37,11.37,0,0,1-1.72.41c-.61.1-1.24.17-1.88.21l-.9.05-.91,0-.92,0h-.92l-.94,0-1,0-1,0-1.08.06-2.69.23c-.9.07-1.79.15-2.69.21l-2.7.21-2.72.19-3.94.27-4,.26-4,.27Z"/></clipPath><clipPath id="clip-path-4"><path class="cls-1" d="M872.6,150.68,846.23,138.1q.51-12.7,1-25.34l1-25.25,1-25.24,1-25.29,26.43,12.25-1,25.37-1,25.32-1,25.34Z"/></clipPath><clipPath id="clip-path-5"><path class="cls-1" d="M876.69,49.23,850.26,37l6.94-.47,6.92-.46,7-.47,7.13-.48,26.51,12.23-7.16.49-7,.47-6.94.47Z"/></clipPath><clipPath id="clip-path-6"><path class="cls-1" d="M813.22,222.89,787,210q.33-8.34.66-16.71l.65-16.77.66-16.88.67-17,26.23,12.62q-.35,8.58-.68,17.08l-.66,16.93-.67,16.83Z"/></clipPath><clipPath id="clip-path-7"><path class="cls-1" d="M816.85,120.9,790.6,108.39c.11-2.88.22-5.74.33-8.6l.34-8.55.33-8.58.34-8.67,26.27,12.39q-.18,4.38-.34,8.7l-.34,8.61-.34,8.58Z"/></clipPath><clipPath id="clip-path-8"><path class="cls-1" d="M775.46,123.78l-26.14-12.53,10.35-.72,10.28-.71,10.29-.71,10.36-.72,26.25,12.51-10.39.72-10.32.72-10.31.72Z"/></clipPath><clipPath id="clip-path-9"><path class="cls-1" d="M743,227.88,717,215q.81-21.17,1.61-42.32l1.61-42.36,1.62-42.45,1.62-42.58L749.55,57.6q-.82,21.41-1.64,42.72l-1.64,42.59-1.63,42.51Z"/></clipPath><clipPath id="clip-path-10"><path class="cls-1" d="M749.55,57.6,723.46,45.28l24.63-1.65L772.64,42l24.55-1.64,24.58-1.65L848.13,51l-24.65,1.67-24.61,1.66-24.62,1.66Z"/></clipPath><clipPath id="clip-path-11"><path class="cls-1" d="M646.2,201.36l-25.77-12.84a2.84,2.84,0,0,0,.85.25,9.6,9.6,0,0,0,1.16.08c.44,0,.94,0,1.51,0l1.9-.13,14.61-1,14.59-1,14.58-1,14.56-1,1.34-.1,1.37-.1,1.43-.1,1.51-.11,26,12.8-1.52.11-1.43.1-1.38.1-1.34.1-14.6,1.05-14.62,1-14.63,1-14.64,1-1.91.13c-.57,0-1.07.05-1.52.05a7.92,7.92,0,0,1-1.16-.08A2.84,2.84,0,0,1,646.2,201.36Z"/></clipPath><clipPath id="clip-path-12"><path class="cls-1" d="M615.26,237.05l-25.67-13q.76-21.2,1.53-42.4l1.54-42.5,1.54-42.69,1.55-42.92L621.51,66q-.79,21.6-1.58,43.07l-1.56,42.82-1.56,42.65Z"/></clipPath><clipPath id="clip-path-13"><path class="cls-1" d="M621.51,66l-25.76-12.4,7-.47,7-.47,7.08-.47,7.29-.49L649.9,64.05l-7.31.5-7.1.48-7,.47Z"/></clipPath><clipPath id="clip-path-14"><path class="cls-1" d="M560.83,138.27,535.26,125.6c.1-3,.21-5.89.31-8.81l.31-8.7.3-8.65.31-8.64,25.59,12.55q-.17,4.34-.31,8.67l-.31,8.68-.31,8.73Z"/></clipPath><clipPath id="clip-path-15"><path class="cls-1" d="M518.91,141.19l-25.46-12.7,10.6-.73,10.48-.73,10.4-.72,10.33-.71,25.57,12.67-10.36.72-10.43.72-10.51.74Z"/></clipPath><clipPath id="clip-path-16"><path class="cls-1" d="M486.53,246.18,461.2,233.12q.74-21.23,1.46-42.52l1.46-42.69L465.59,105l1.47-43.1,25.41,12.48q-.75,21.67-1.49,43.25l-1.49,43L488,203.51Z"/></clipPath><clipPath id="clip-path-17"><path class="cls-1" d="M492.47,74.42,467.06,61.94l25-1.68L517,58.6l24.87-1.67,24.91-1.67,25.68,12.42-25,1.68-24.93,1.69-25,1.68Z"/></clipPath><clipPath id="clip-path-18"><path class="cls-1" d="M434.2,250,409,236.86a4,4,0,0,1-.8-.56,7,7,0,0,1-.75-.78,8.28,8.28,0,0,1-.67-.89,9.57,9.57,0,0,1-.53-.9q-3.84-7.59-7.66-15.21T391,203.27q-3.81-7.64-7.63-15.27t-7.63-15.29c-.24-.47-.47-.93-.72-1.4l-.74-1.39-.77-1.43-.79-1.48,25.11,12.87.79,1.49.77,1.43c.26.47.5.93.75,1.4s.48.93.71,1.4q3.84,7.67,7.65,15.34l7.65,15.32q3.81,7.65,7.65,15.3t7.67,15.25a8,8,0,0,0,.54.91,8.19,8.19,0,0,0,.66.89,7,7,0,0,0,.76.78A4,4,0,0,0,434.2,250Z"/></clipPath><clipPath id="clip-path-19"><path class="cls-1" d="M442.66,77.5,417.38,65l2.45-.09,2.36-.11,2.3-.13,2.28-.15,3.21-.23,3.26-.24,3.32-.24,3.4-.24,25.33,12.5-3.4.24-3.33.25-3.27.24-3.22.23-2.29.14-2.3.14-2.37.11Z"/></clipPath><clipPath id="clip-path-20"><path class="cls-1" d="M391.67,148.2l-25.11-12.77,1.38-1.85,1.11-1.47.91-1.23c.28-.39.54-.77.79-1.14l10.1-15.08,10.09-15.08Q396,92,401,84.48t10-15.13a16.4,16.4,0,0,1,1.36-1.81,8.48,8.48,0,0,1,1.44-1.33,6.3,6.3,0,0,1,1.63-.84,7.26,7.26,0,0,1,1.93-.38L442.66,77.5a7.67,7.67,0,0,0-1.94.38,6.39,6.39,0,0,0-1.64.85,8.87,8.87,0,0,0-1.44,1.33,18,18,0,0,0-1.37,1.82q-5,7.61-10,15.19t-10.1,15.15q-5.06,7.57-10.12,15.13l-10.13,15.13c-.25.38-.51.76-.79,1.15s-.59.8-.92,1.24l-1.11,1.48C392.64,146.89,392.18,147.5,391.67,148.2Z"/></clipPath><clipPath id="clip-path-21"><path class="cls-1" d="M365,83.13,340,70.57l7.27-.49,7.15-.47,7.14-.48,7.24-.49,25.14,12.55-7.27.49-7.16.48-7.16.48Z"/></clipPath><clipPath id="clip-path-22"><path class="cls-1" d="M359.37,255.57l-25-13.14,1.38-42.9,1.39-42.9,1.39-43L340,70.57,365,83.13q-.7,21.68-1.41,43.25l-1.41,43.11-1.41,43Z"/></clipPath><clipPath id="clip-path-23"><path class="cls-1" d="M298,226.65l-24.82-13.07,8.89-.64,8.82-.62,8.81-.63,8.88-.64,24.91,13-8.9.64-8.84.64-8.84.63Z"/></clipPath><clipPath id="clip-path-24"><path class="cls-1" d="M231.47,264.83,206.86,251.6l.24-8.14.25-8.22.26-8.34.26-8.51,24.63,13.12q-.13,4.32-.26,8.53l-.26,8.37-.26,8.25Z"/></clipPath><clipPath id="clip-path-25"><path class="cls-1" d="M232.5,231.51l-24.63-13.12,8.68-.62,8.68-.61,8.75-.63,8.87-.63L267.58,229l-8.9.64-8.77.63-8.71.63Z"/></clipPath><clipPath id="clip-path-26"><path class="cls-1" d="M267.58,229,242.85,215.9q.41-13.2.81-26.32l.81-26.27.82-26.32.82-26.49,24.78,12.73q-.42,13.36-.83,26.59l-.83,26.41-.83,26.35Z"/></clipPath><clipPath id="clip-path-27"><path class="cls-1" d="M235.66,125.65,211,112.89l.26-8.54.26-8.41.25-8.39.26-8.49L236.7,91.7q-.13,4.3-.26,8.53l-.26,8.41-.26,8.43Z"/></clipPath><clipPath id="clip-path-28"><path class="cls-1" d="M236.7,91.7,212,79.06l25.31-1.7,25.19-1.69L287.66,74l25.21-1.69,25,12.58-25.28,1.7-25.23,1.7L262.08,90Z"/></clipPath><clipPath id="clip-path-29"><path class="cls-1" d="M177.61,165.28l-24.5-12.92q.13-4.65.27-9.13l.26-8.88.26-8.71.25-8.67,24.53,12.8c-.09,2.9-.18,5.79-.26,8.69l-.27,8.75-.26,8.9Z"/></clipPath><clipPath id="clip-path-30"><path class="cls-1" d="M136.32,167.84,111.93,154.9l.15.07.14.05.13,0h.13l6.3-.37,6.31-.39,6.32-.42,6.34-.44,3.82-.26,3.83-.27,3.85-.27,3.86-.27,24.5,12.92-3.87.27-3.85.27-3.84.27-3.83.27-6.36.44-6.34.42-6.33.4-6.32.37h-.13l-.13,0-.14-.05Z"/></clipPath><clipPath id="clip-path-31"><path class="cls-1" d="M102.4,274.35,78.15,261q.61-21.57,1.22-43.15l1.23-43.22,1.24-43.34,1.23-43.5,24.34,12.73q-.63,21.85-1.26,43.64l-1.25,43.49-1.25,43.37Z"/></clipPath><clipPath id="clip-path-32"><path class="cls-1" d="M107.41,100.56,83.07,87.83l25.42-1.7,25.38-1.7,25.39-1.71L184.71,81l24.62,12.66L183.81,95.4l-25.47,1.72-25.45,1.72Z"/></clipPath></defs><title>19</title><g class="cls-2"><g class="cls-2"><g class="cls-3"><g class="cls-2"><path class="cls-4" d="M904.71,216.32l-26.43-12.79.1-2.49.09-2.44.1-2.41.1-2.4q.26-6.43.5-12.88t.49-12.89q.26-6.45.55-12.9t.66-12.9a17.88,17.88,0,0,0,0-2.19,6.73,6.73,0,0,0-.28-1.64,3.36,3.36,0,0,0-.58-1.15,2.53,2.53,0,0,0-.91-.71l26.46,12.56a2.59,2.59,0,0,1,.92.72,3.45,3.45,0,0,1,.58,1.15,7.84,7.84,0,0,1,.28,1.65,20.13,20.13,0,0,1,0,2.19q-.37,6.48-.67,12.95t-.56,12.94q-.25,6.47-.5,12.93t-.5,12.93L905,209l-.1,2.42-.1,2.45-.1,2.5"/></g></g></g><g class="cls-2"><g class="cls-5"><g class="cls-2"><path class="cls-6" d="M946.7,44.59l-26.62-12.2,7.06-.48,6.94-.46L941,31l7-.47L974.66,42.7l-7,.47-6.93.47-7,.47-7.07.48"/></g></g></g><g class="cls-2"><g class="cls-7"><g class="cls-2"><path class="cls-6" d="M902,115.5,875.5,103.05l4.11-.28,4-.27,4-.26,3.93-.27,2.71-.19,2.69-.2,2.69-.21,2.68-.22,1.08-.07,1,0,1,0h2.77l.91,0,.9,0,1.21-.11c.39,0,.78-.11,1.15-.19a9.14,9.14,0,0,0,1.09-.27,8.09,8.09,0,0,0,1-.38L941,112.4a8.09,8.09,0,0,1-1,.38,9.64,9.64,0,0,1-1.09.27c-.38.08-.76.14-1.16.19s-.8.08-1.21.11l-.9.05-.91,0-.92,0h-.92l-.94,0-1,0-1,0-1.08.06-2.69.23c-.9.07-1.79.15-2.69.21l-2.7.21-2.72.19-3.94.27-4,.26-4,.27-4.12.28"/><path class="cls-8" d="M941,112.4,914.42,100l.25-.12.25-.13.24-.14.23-.15L942,111.85l-.24.15-.24.15-.25.13-.25.12"/><path class="cls-9" d="M942,111.85,915.39,99.43l.16-.12.15-.11.15-.13L916,99l26.58,12.42-.14.13-.15.12-.16.12-.15.11"/><path class="cls-10" d="M942.57,111.37,916,99l.09-.08a.6.6,0,0,1,.08-.08l.07-.08a.6.6,0,0,0,.08-.08l0,0,0,0,0,0,0,0L943,110.92l0,0,0,0,0,0,0,0-.08.09-.08.08-.08.07-.08.08"/><path class="cls-11" d="M943,110.92,916.42,98.5l.09-.1a1,1,0,0,1,.08-.11l.08-.12.08-.12,26.58,12.43-.08.11-.08.12a1,1,0,0,0-.08.11l-.09.1"/><path class="cls-12" d="M943.33,110.48,916.75,98.05l.1-.17.1-.18.09-.19.09-.19,26.58,12.41-.09.2-.09.19-.1.18-.1.18"/><path class="cls-4" d="M943.71,109.73,917.13,97.32a10.92,10.92,0,0,0,.72-3.06A34.25,34.25,0,0,0,918,90.5c0-1.32,0-2.68-.06-4s0-2.63,0-3.83q.24-5.31.47-10.62t.44-10.62l.42-10.63.42-10.63.08-1.84.08-1.89.08-2,.08-2.08,26.62,12.2-.09,2.09-.08,2-.08,1.89-.07,1.85q-.23,5.34-.43,10.66t-.43,10.66q-.21,5.34-.44,10.66c-.16,3.55-.31,7.11-.48,10.66-.06,1.2-.05,2.51,0,3.84s.06,2.71,0,4a34.66,34.66,0,0,1-.18,3.77,11.17,11.17,0,0,1-.73,3.06"/></g></g></g><g class="cls-2"><g class="cls-13"><g class="cls-2"><path class="cls-4" d="M872.6,150.68,846.23,138.1l1-25.34,1-25.25,1-25.24,1-25.29,26.43,12.25-1,25.37-1,25.32-1,25.34-1,25.42"/></g></g></g><g class="cls-2"><g class="cls-14"><g class="cls-2"><path class="cls-6" d="M876.69,49.23,850.26,37l6.94-.47,6.92-.46,7-.47,7.13-.48,26.51,12.23-7.16.49-7,.47-6.94.47-7,.47"/></g></g></g><path class="cls-15" d="M904.75,47.33l-.69,17-.69,17-.7,17L902,115.5l4.12-.28,4-.27,4-.26,3.94-.27,2.72-.19,2.7-.21c.9-.06,1.79-.14,2.69-.21l2.69-.23,1.08-.06,1,0,1,0,.94,0h.92l.92,0,.91,0,.9-.05c.64,0,1.27-.11,1.88-.21a11.37,11.37,0,0,0,1.72-.41,6.94,6.94,0,0,0,1.52-.67,5.77,5.77,0,0,0,1.25-1,6.14,6.14,0,0,0,1.31-2.9,22.7,22.7,0,0,0,.41-4.08c0-1.48,0-3,0-4.6s-.05-3.06,0-4.44c.17-3.55.32-7.11.48-10.66s.3-7.1.44-10.66.29-7.1.43-10.66.28-7.1.43-10.66l.07-1.85.08-1.89.08-2,.09-2.09,7.07-.48,7-.47,6.93-.47,7-.47-1,25.15-1.05,25.21-1.06,25.36L970.43,144l-8.51.6-8.58.61-8.67.61-8.78.62-.71,17.14-.69,16.93-.7,16.85-.7,16.89-7.07.52-7,.51-7.08.51-7.2.53.1-2.5.1-2.45L905,209l.1-2.4q.25-6.47.5-12.93t.5-12.93q.27-6.47.56-12.94t.67-12.95a14.8,14.8,0,0,0-.09-3.08,4.09,4.09,0,0,0-.76-1.91,2.74,2.74,0,0,0-1.5-.93,7.21,7.21,0,0,0-2.31-.14l-.16,0h-.17l-.17,0-.18,0-2.51.26-2.51.24-2.51.2-2.52.19-3.49.23-3.49.22-3.49.21-3.49.23-1.32.06-1.34,0H872.6l1-25.42,1-25.34,1-25.32,1-25.37,7-.47,6.94-.47,7-.47Z"/></g><g class="cls-2"><g class="cls-2"><g class="cls-16"><g class="cls-2"><path class="cls-4" d="M813.22,222.89,787,210l.66-16.71.65-16.77.66-16.88.67-17,26.23,12.62-.68,17.08-.66,16.93-.67,16.83-.66,16.77"/></g></g></g><g class="cls-2"><g class="cls-17"><g class="cls-2"><path class="cls-4" d="M816.85,120.9,790.6,108.39l.33-8.6.34-8.55.33-8.58.34-8.67,26.27,12.39-.34,8.7-.34,8.61-.34,8.58-.34,8.63"/></g></g></g><g class="cls-2"><g class="cls-18"><g class="cls-2"><path class="cls-6" d="M775.46,123.78l-26.14-12.53,10.35-.72,10.28-.71,10.29-.71,10.36-.72,26.25,12.51-10.39.72-10.32.72-10.31.72-10.37.72"/></g></g></g><g class="cls-2"><g class="cls-19"><g class="cls-2"><path class="cls-4" d="M743,227.88,717,215l1.61-42.32,1.61-42.36,1.62-42.45,1.62-42.58L749.55,57.6l-1.64,42.72-1.64,42.59-1.63,42.51L743,227.88"/></g></g></g><g class="cls-2"><g class="cls-20"><g class="cls-2"><path class="cls-6" d="M749.55,57.6,723.46,45.28l24.63-1.65L772.64,42l24.55-1.64,24.58-1.65L848.13,51l-24.65,1.67-24.61,1.66-24.62,1.66-24.7,1.66"/></g></g></g><path class="cls-15" d="M749.55,57.6l24.7-1.66,24.62-1.66,24.61-1.66L848.13,51l-1.7,42.56L844.74,136l-1.69,42.42-1.7,42.45-7,.51-7,.51-7,.51-7.16.52.66-16.77.67-16.83.66-16.93.68-17.08-10.56.75-10.45.74-10.42.73-10.49.75-.66,16.89L772.66,192,772,208.85l-.66,17-7.14.52-7.07.51-7,.52-7.08.51,1.63-42.46,1.63-42.51,1.64-42.59Zm67.3,63.3.34-8.63.34-8.58.34-8.61.34-8.7-10.53.72-10.36.71-10.27.7-10.25.7-.34,8.72-.33,8.62-.34,8.59-.33,8.64,10.37-.72,10.31-.72,10.32-.72,10.39-.72"/></g><g class="cls-2"><g class="cls-2"><g class="cls-21"><g class="cls-2"><path class="cls-8" d="M646.2,201.36l-25.77-12.84.05,0,0,0,.05,0,0,0,25.76,12.84,0,0-.05,0,0,0,0,0"/><path class="cls-6" d="M646.39,201.44,620.63,188.6a3.22,3.22,0,0,0,.85.2,9.76,9.76,0,0,0,1.14,0l1.44-.06,1.79-.12,14.61-1,14.59-1,14.58-1,14.56-1,1.34-.1,1.37-.1,1.43-.1,1.51-.11,26,12.8-1.52.11-1.43.1-1.38.1-1.34.1-14.6,1.05-14.62,1-14.63,1-14.64,1-1.8.12c-.54,0-1,.06-1.45.06a9.76,9.76,0,0,1-1.14-.05,3.4,3.4,0,0,1-.86-.2"/></g></g></g><g class="cls-2"><g class="cls-22"><g class="cls-2"><path class="cls-4" d="M615.26,237.05l-25.67-13,1.53-42.4,1.54-42.5,1.54-42.69,1.55-42.92L621.51,66,619.93,109l-1.56,42.82-1.56,42.65-1.55,42.54"/></g></g></g><g class="cls-2"><g class="cls-23"><g class="cls-2"><path class="cls-6" d="M621.51,66l-25.76-12.4,7-.47,7-.47,7.08-.47,7.29-.49L649.9,64.05l-7.31.5-7.1.48-7,.47-7,.47"/></g></g></g><path class="cls-15" d="M649.9,64.05l-.07,1.83-.07,1.83-.06,1.81-.07,1.81-1.14,30.8q-.57,15.39-1.13,30.76l-1.14,30.74q-.56,15.36-1.13,30.71c-.07,1.91-.12,3.35-.06,4.42a3.63,3.63,0,0,0,.66,2.22,2.78,2.78,0,0,0,2,.7,37.12,37.12,0,0,0,3.95-.17l14.64-1,14.63-1,14.62-1,14.6-1.05,1.34-.1,1.38-.1,1.43-.1,1.52-.11-.32,8.28-.31,8.19-.31,8.18-.31,8.26-24.72,1.8-24.77,1.8-24.84,1.81-25,1.82,1.55-42.54,1.56-42.65L619.93,109,621.51,66l7-.47,7-.47,7.1-.48Z"/></g><g class="cls-2"><g class="cls-2"><g class="cls-24"><g class="cls-2"><path class="cls-4" d="M560.83,138.27,535.26,125.6l.31-8.81.31-8.7.3-8.65.31-8.64,25.59,12.55-.31,8.67-.31,8.68-.31,8.73-.32,8.84"/></g></g></g><g class="cls-2"><g class="cls-25"><g class="cls-2"><path class="cls-6" d="M518.91,141.19l-25.46-12.7,10.6-.73,10.48-.73,10.4-.72,10.33-.71,25.57,12.67-10.36.72-10.43.72-10.51.74-10.62.74"/></g></g></g><g class="cls-2"><g class="cls-26"><g class="cls-2"><path class="cls-4" d="M486.53,246.18,461.2,233.12l1.46-42.52,1.46-42.69L465.59,105l1.47-43.1,25.41,12.48L491,117.67l-1.49,43L488,203.51l-1.47,42.67"/></g></g></g><g class="cls-2"><g class="cls-27"><g class="cls-2"><path class="cls-6" d="M492.47,74.42,467.06,61.94l25-1.68L517,58.6l24.87-1.67,24.91-1.67,25.68,12.42-25,1.68-24.93,1.69-25,1.68-25.09,1.69"/></g></g></g><path class="cls-15" d="M492.47,74.42l25.09-1.69,25-1.68,24.93-1.69,25-1.68-.92,25.5-.92,25.51-.93,25.62-.93,25.81-17.6,1.24-17.68,1.25-17.81,1.26-18,1.27-.61,17.41-.6,17.22-.6,17.14-.61,17.18-7.24.52-7.15.53-7.12.51-7.2.53L488,203.51l1.49-42.82,1.49-43Zm68.36,63.85.32-8.84.31-8.73.31-8.68.31-8.67-10.54.72-10.44.71-10.44.72-10.53.72-.31,8.91-.3,8.73-.31,8.66-.3,8.67,10.62-.74,10.51-.74,10.43-.72,10.36-.72"/></g><g class="cls-2"><g class="cls-2"><g class="cls-28"><g class="cls-2"><path class="cls-29" d="M434.2,250,409,236.86a4,4,0,0,1-.8-.56,7,7,0,0,1-.75-.78,8.28,8.28,0,0,1-.67-.89,9.57,9.57,0,0,1-.53-.9q-3.84-7.59-7.66-15.21T391,203.27q-3.81-7.64-7.63-15.27t-7.63-15.29c-.24-.47-.47-.93-.72-1.4l-.74-1.39-.77-1.43-.79-1.48,25.11,12.87.79,1.49.77,1.43c.26.47.5.93.75,1.4s.48.93.71,1.4q3.84,7.67,7.65,15.34l7.65,15.32q3.81,7.65,7.65,15.3t7.67,15.25a8,8,0,0,0,.54.91,8.19,8.19,0,0,0,.66.89,7,7,0,0,0,.76.78,4,4,0,0,0,.8.56"/></g></g></g><g class="cls-2"><g class="cls-30"><g class="cls-2"><path class="cls-31" d="M442.66,77.5,417.38,65l2.45-.09,2.36-.11,2.3-.13,2.28-.15,3.21-.23,3.26-.24,3.32-.24,3.4-.24,25.33,12.5-3.4.24-3.33.25-3.27.24-3.22.23-2.29.14-2.3.14-2.37.11-2.45.09"/></g></g></g><g class="cls-2"><g class="cls-32"><g class="cls-2"><path class="cls-33" d="M391.67,148.2l-25.11-12.77,1.38-1.85,1.11-1.47.91-1.23c.28-.39.54-.77.79-1.14l10.1-15.08,10.09-15.08Q396,92,401,84.48t10-15.13l.3-.44c.09-.14.19-.28.29-.41s.2-.27.3-.39l.3-.37,25.26,12.52-.3.37-.3.39-.3.42-.3.44q-5,7.61-10,15.19t-10.1,15.15q-5.06,7.57-10.12,15.13l-10.13,15.13c-.25.38-.51.76-.79,1.15s-.59.8-.92,1.24l-1.11,1.48c-.41.54-.87,1.15-1.38,1.85"/><path class="cls-34" d="M437.47,80.26,412.21,67.74a2.85,2.85,0,0,1,.23-.26c.07-.09.15-.17.22-.25l.23-.23.24-.23,25.26,12.52-.24.23-.23.23-.23.25-.22.26"/><path class="cls-35" d="M438.39,79.29,413.13,66.77l.2-.17.21-.17.21-.16a1.37,1.37,0,0,1,.21-.15l25.26,12.51-.21.15-.21.16-.21.17-.2.18"/><path class="cls-36" d="M439.22,78.63,414,66.12l.24-.16.24-.14.24-.13.26-.12L440.2,78.08l-.25.12-.25.14-.24.14-.24.15"/><path class="cls-31" d="M440.2,78.08,414.94,65.57a5.42,5.42,0,0,1,.56-.22,5.72,5.72,0,0,1,.59-.17,5.86,5.86,0,0,1,.63-.12l.66-.07L442.66,77.5l-.67.07c-.22,0-.43.08-.63.12l-.59.17-.57.22"/></g></g></g><g class="cls-2"><g class="cls-37"><g class="cls-2"><path class="cls-31" d="M365,83.13,340,70.57l7.27-.49,7.15-.47,7.14-.48,7.24-.49,25.14,12.55-7.27.49-7.16.48-7.16.48-7.29.49"/></g></g></g><g class="cls-2"><g class="cls-38"><g class="cls-2"><path class="cls-29" d="M359.37,255.57l-25-13.14,1.38-42.9,1.39-42.9,1.39-43L340,70.57,365,83.13l-1.41,43.25-1.41,43.11-1.41,43-1.41,43"/></g></g></g><path class="cls-39" d="M442.66,77.5l2.45-.09,2.37-.11,2.3-.14,2.29-.14,3.22-.23,3.27-.24,3.33-.25,3.4-.24-.7,1.3L464,78.5c-.2.36-.38.69-.57,1s-.37.63-.57.93q-5.75,8.67-11.48,17.36l-11.49,17.36q-5.76,8.67-11.53,17.34T416.77,149.8a15.55,15.55,0,0,0-1.42,2.55,7.69,7.69,0,0,0-.62,2.33,7.1,7.1,0,0,0,.19,2.32,12.1,12.1,0,0,0,1,2.54q5.24,10.44,10.42,20.9t10.35,20.91q5.16,10.46,10.31,20.91l10.29,20.88c.2.39.38.78.57,1.19s.38.82.57,1.26.4.91.62,1.4l.71,1.58-3.25.24-3.2.25-3.15.25-3.11.23-3,.21-3,.18-3,.15c-1,0-2,.09-2.95.11a1.93,1.93,0,0,1-1-.3,4.37,4.37,0,0,1-1-.8,8.93,8.93,0,0,1-.92-1.1,10.1,10.1,0,0,1-.72-1.18q-3.84-7.62-7.67-15.25t-7.65-15.3l-7.65-15.32q-3.81-7.68-7.65-15.34c-.23-.47-.47-.94-.71-1.4s-.49-.93-.75-1.4l-.77-1.43-.79-1.49a38.88,38.88,0,0,0-3.46,4.31,26.63,26.63,0,0,0-2.51,4.49,23.35,23.35,0,0,0-1.51,4.89,27.71,27.71,0,0,0-.5,5.52c0,4,0,7.95-.12,11.94s-.22,8-.37,12-.31,8-.47,12-.32,8-.45,12l-.05,1.58-.05,1.6-.06,1.65-.05,1.72-7.31.54-7.19.52-7.14.52-7.19.52,1.41-43,1.41-43,1.41-43.11L365,83.13l7.29-.49,7.16-.48,7.16-.48,7.27-.49-.55,16.48-.55,16.54L392.24,131l-.57,17.2c.51-.7,1-1.31,1.38-1.85l1.11-1.48c.33-.44.64-.85.92-1.24s.54-.77.79-1.15L406,127.35q5.07-7.56,10.12-15.13t10.1-15.15q5-7.59,10-15.19a18,18,0,0,1,1.37-1.82,8.87,8.87,0,0,1,1.44-1.33,6.39,6.39,0,0,1,1.64-.85A7.67,7.67,0,0,1,442.66,77.5Z"/></g><g class="cls-2"><g class="cls-2"><g class="cls-40"><g class="cls-2"><path class="cls-31" d="M298,226.65l-24.82-13.07,8.89-.64,8.82-.62,8.81-.63,8.88-.64,24.91,13-8.9.64-8.84.64-8.84.63-8.91.64"/></g></g></g><g class="cls-2"><g class="cls-41"><g class="cls-2"><path class="cls-29" d="M231.47,264.83,206.86,251.6l.24-8.14.25-8.22.26-8.34.26-8.51,24.63,13.12-.26,8.53-.26,8.37-.26,8.25-.25,8.17"/></g></g></g><g class="cls-2"><g class="cls-42"><g class="cls-2"><path class="cls-31" d="M232.5,231.51l-24.63-13.12,8.68-.62,8.68-.61,8.75-.63,8.87-.63L267.58,229l-8.9.64-8.77.63-8.71.63-8.7.62"/></g></g></g><g class="cls-2"><g class="cls-43"><g class="cls-2"><path class="cls-29" d="M267.58,229,242.85,215.9l.81-26.32.81-26.27.82-26.32.82-26.49,24.78,12.73-.83,26.59-.83,26.41-.83,26.35L267.58,229"/></g></g></g><g class="cls-2"><g class="cls-44"><g class="cls-2"><path class="cls-29" d="M235.66,125.65,211,112.89l.26-8.54.26-8.41.25-8.39.26-8.49L236.7,91.7l-.26,8.53-.26,8.41-.26,8.43-.26,8.58"/></g></g></g><g class="cls-2"><g class="cls-45"><g class="cls-2"><path class="cls-31" d="M236.7,91.7,212,79.06l25.31-1.7,25.19-1.69L287.66,74l25.21-1.69,25,12.58-25.28,1.7-25.23,1.7L262.08,90,236.7,91.7"/></g></g></g><path class="cls-39" d="M337.85,84.88l-.26,8.29-.27,8.31-.27,8.42-.28,8.57-8.82.61-8.81.6-8.86.61-8.95.61-.85,26.53-.83,26.39-.84,26.37L298,226.65l8.91-.64,8.84-.63,8.84-.64,8.9-.64-.27,8.45-.27,8.32-.26,8.27-.27,8.34-25.09,1.83-25.15,1.83L256.89,263l-25.42,1.85.25-8.17.26-8.25.26-8.37.26-8.53,8.7-.62,8.71-.63,8.77-.63,8.9-.64.82-26.41.83-26.35.83-26.41.83-26.59-8.72.6-8.75.6-8.83.61-8.93.61.26-8.58.26-8.43.26-8.41.26-8.53L262.08,90l25.26-1.71,25.23-1.7Z"/></g><g class="cls-2"><g class="cls-2"><g class="cls-46"><g class="cls-2"><path class="cls-29" d="M177.61,165.28l-24.5-12.92.27-9.13.26-8.88.26-8.71.25-8.67,24.53,12.8-.26,8.69-.27,8.75-.26,8.9-.28,9.17"/></g></g></g><g class="cls-2"><g class="cls-47"><g class="cls-2"><path class="cls-36" d="M136.32,167.84,111.93,154.9l0,0,0,0,0,0,0,0,24.39,12.94,0,0h-.05l0,0-.05,0"/><path class="cls-31" d="M136.5,167.92,112.11,155l.1,0,.09,0h.18l6.3-.37,6.31-.39,6.32-.42,6.34-.44,3.82-.26,3.83-.27,3.85-.27,3.86-.27,24.5,12.92-3.87.27-3.85.27-3.84.27-3.83.27-6.36.44-6.34.42-6.33.4-6.32.37h-.18l-.09,0-.1,0"/></g></g></g><g class="cls-2"><g class="cls-48"><g class="cls-2"><path class="cls-29" d="M102.4,274.35,78.15,261l1.22-43.15,1.23-43.22,1.24-43.34,1.23-43.5,24.34,12.73-1.26,43.64-1.25,43.49-1.25,43.37-1.25,43.29"/></g></g></g><g class="cls-2"><g class="cls-49"><g class="cls-2"><path class="cls-31" d="M107.41,100.56,83.07,87.83l25.42-1.7,25.38-1.7,25.39-1.71L184.71,81l24.62,12.66L183.81,95.4l-25.47,1.72-25.45,1.72-25.48,1.72"/></g></g></g><path class="cls-39" d="M107.41,100.56l25.48-1.72,25.45-1.72,25.47-1.72,25.52-1.72-.79,25.79-.78,25.83-.79,26-.79,26.22-1.45.11-1.46.1-1.46.1-1.46.11-4.17.29-4.17.31-4.17.3-4.17.3-3.85.28-3.85.28-3.85.28-3.86.28-7.22.5-7.21.47-7.22.45-7.23.41a11.16,11.16,0,0,0-3.16.6,4.38,4.38,0,0,0-1.94,1.38,5.65,5.65,0,0,0-1,2.33,18.39,18.39,0,0,0-.31,3.44c-.06,4.65-.16,9.31-.27,14s-.24,9.31-.39,14-.29,9.32-.44,14l-.45,14c0,.52,0,1.05-.07,1.58s-.07,1.07-.12,1.61-.09,1.1-.13,1.66-.09,1.13-.14,1.72l-7.16.52-7.09.52-7.11.52-7.21.52,1.25-43.29,1.25-43.37,1.25-43.49Zm70.2,64.72.28-9.17.26-8.9.27-8.75.26-8.69-10.81.74-10.76.73-10.78.74-10.92.75q-.12,4.19-.25,8.3t-.24,8.19q-.1,4.07-.2,8.11c-.07,2.69-.12,5.37-.15,8.06a1.8,1.8,0,0,0,.23.83,4.31,4.31,0,0,0,.6.86,3.82,3.82,0,0,0,.76.66,1.23,1.23,0,0,0,.71.25l6.32-.37,6.33-.4,6.34-.42,6.36-.44,3.83-.27,3.84-.27,3.85-.27,3.87-.27"/></g></svg>