<svg id="Capa_1" data-name="Capa 1" xmlns="http://www.w3.org/2000/svg" viewBox="0 0 265.01 98.94"><defs><style>.cls-1{font-size:40.85px;fill:#1d1d1d;font-family:Rowdies-Regular, Rowdies;}.cls-2{fill:#00a4c6;letter-spacing:0em;}.cls-3{letter-spacing:0em;}.cls-4{fill:#ea4d42;}.cls-5{fill:#e5961d;letter-spacing:0em;}.cls-6{letter-spacing:0em;}</style></defs><title>logo</title><text class="cls-1" transform="translate(45.32 71.16)">P<tspan class="cls-2" x="28.96" y="0">i</tspan><tspan class="cls-3" x="40.89" y="0">ka</tspan><tspan class="cls-4" x="90.28" y="0">j</tspan><tspan x="106.08" y="0">ue</tspan><tspan class="cls-5" x="152.86" y="0">g</tspan><tspan class="cls-6" x="176.39" y="0">os</tspan></text><path d="M52,35.08c-.64.34-1.29.63-1.9,1-1.05.66-1.05.68-1.71-.4A83.78,83.78,0,0,0,34,17.8,69.63,69.63,0,0,0,14.49,5a4.65,4.65,0,0,0-.52-.2,3.17,3.17,0,0,0-.47,0c.17,2,.27,4,.53,5.94a62.92,62.92,0,0,0,3.15,13.09,12.63,12.63,0,0,0,3.13,4.41A87.74,87.74,0,0,0,40.06,43.72c.21.12.44.22.65.32L44,40.74l.15.16L39.89,47H39l1.16-2.14c-2.77-1.8-5.64-3.52-8.34-5.46a93.74,93.74,0,0,1-28-31.15A35.61,35.61,0,0,1,1.45,2.71C.94,1.26,1.37.8,2.88.8a25.25,25.25,0,0,1,8.88,2,69.64,69.64,0,0,1,37,31.65l.69,1.2L52,34.13Z" transform="translate(-1.24 -0.8)"/></svg>