<?xml version="1.0" encoding="utf-8"?>
<!-- Generator: Adobe Illustrator 24.0.2, SVG Export Plug-In . SVG Version: 6.00 Build 0)  -->
<svg version="1.1" id="Capa_1" xmlns="http://www.w3.org/2000/svg" xmlns:xlink="http://www.w3.org/1999/xlink" x="0px" y="0px"
	 viewBox="0 0 334 128" style="enable-background:new 0 0 334 128;" xml:space="preserve">
<style type="text/css">
	.st0{fill:#333333;}
	.st1{font-family:'KaushanScript-Regular';}
	.st2{font-size:94.7394px;}
	.st3{fill:#ED4526;}
	.st4{fill:#EF6326;}
	.st5{fill:#EB2827;}
	.st6{fill:#EC3E26;}
	.st7{fill:#EE5426;}
	.st8{fill:#EB3527;}
	.st9{fill:#EF6C25;}
	.st10{fill:#EA3427;}
	.st11{fill:#ED5226;}
	.st12{fill:#EC4F28;}
	.st13{fill:#EB4227;}
	.st14{fill:#FCD8C3;}
	.st15{fill:#F9C6A6;}
	.st16{font-size:39.2156px;}
</style>
<text transform="matrix(1 0 0 1 4.3076 82.4878)" class="st0 st1 st2">J  ancho</text>
<g>
	<path class="st3" d="M86.56,66.21c1.72-1.58,2.43-3.62,2.73-5.86c0.62-0.04,0.66,0.46,0.67,0.84c0.07,4.19,0.49,8.43-1.41,12.39
		c-1.02,2.13-2.29,4.02-4.64,4.89c-2.27,0.85-4.58,0.87-6.91,0.29c-0.77-0.19-1.22,0.08-1.48,0.82c-0.26,0.74-0.62,1.43-1.17,2.01
		c-0.55,0.59-1.17,0.89-1.96,0.48c-4.07-1.71-6.8-4.67-8.3-8.83c2.65,2.58,5.72,4.18,9.43,4.41c1.32,0.12,1.51-0.01,1.16-1.14
		c-0.25-0.83-0.15-1.32,0.64-1.67c0.29-0.13,0.6-0.33,0.71-0.64c0.66-1.73,1.8-3.32,1.69-5.3c1.37-0.24,2.74,0.15,4.12,0.01
		C83.82,68.71,85.37,67.78,86.56,66.21z"/>
	<path class="st4" d="M83.79,78.17c3.03-1.34,4.3-4.04,5.22-6.94c1.05-3.32,0.51-6.77,0.61-10.17c0.01-0.29-0.07-0.55-0.33-0.72
		c0.11-0.79-0.08-1.29-0.89-1.75c-1.54-0.88-2.35-2.39-2.87-4.27c2.91,1.04,5.78,0.69,8.65,0.54c0.57-0.03,1.14,0.03,1.58,0.38
		c1.24,0.96,2.71,1.04,4.16,1.24c1.21,0.16,2.17,0.73,2.84,1.74c0.34,0.51,0.39,0.97-0.47,0.95c-0.69-0.01-1.38,0.01-2.07,0.02
		c-0.02-0.51,0.4-0.25,0.63-0.34c-0.37-0.04-0.71,0.1-1.06,0.12c-2.86,0.15-4.53,1.75-5.43,4.35c-0.91,2.64-1.06,5.42-1.55,8.13
		c-0.42,2.29-1.03,4.49-2.36,6.43c-1.6,2.18-3.58,3.86-6.21,4.7c-0.18,0.05-0.36,0.08-0.55,0.1c-0.89,0.09-1.93,0.27-2.26-0.78
		c-0.31-0.99-0.04-2.03,0.84-2.76C82.74,78.77,83.28,78.48,83.79,78.17z"/>
	<path class="st5" d="M86.56,66.21c0.17,0.12,0.3,0.32,0.16,0.46c-1.22,1.26-2.54,2.44-4.37,2.59c-1.55,0.12-3.13,0.14-4.68-0.26
		c-1.66-0.03-2.81-1.12-3.98-2.06c-1.44-1.16-2.71-2.51-3.65-4.14c-0.12-0.22-0.23-0.44-0.37-0.65c-0.34-0.45-0.53-0.97-0.56-1.54
		c-0.11-0.81-0.74-1.48-0.65-2.35c-0.39-2.31-0.07-3.04,2.17-3.66c2.61-0.73,5.1-1.83,7.78-2.31c0.67-0.12,0.88,0.04,0.69,0.7
		c-0.94,3.15-1.99,6.28-1.21,9.65C78.92,67.08,82.78,68.68,86.56,66.21z"/>
	<path class="st6" d="M82.71,36.48c0.34,1.71,0.42,3.43,0.26,5.17c-0.13,1.42-0.43,2.81-1.08,4.1c-1.09,0-2.18-0.41-3.26,0.26
		c-1.7,1.05-3.73,1.32-5.55,2.11c-0.88,0.38-1.73,0.88-2.7,1.06c-0.71,0.13-1.38,0.21-1.89-0.45c0.63-2.67,2.15-4.85,3.86-6.92
		c0.73-0.88,1.56-1.69,2.34-2.52C77.59,38.97,79.89,36.97,82.71,36.48z"/>
	<path class="st7" d="M70.17,62.61c2.01,2.7,4.33,5.05,7.51,6.38c0.55,0.43,0.69,0.92,0.33,1.56c-0.64,1.16-1.07,2.42-1.49,3.67
		c-0.07,0.2-0.22,0.42-0.4,0.53c-0.78,0.47-1.45,0.74-1.03,2.04c0.35,1.11-0.61,1.34-1.57,0.85c0.32-0.03,0.64-0.07,1.16-0.12
		c-3.15-1.84-5.9-3.89-7.87-6.81c-0.26-1.1,0.79-1.77,0.9-2.8C67.93,65.91,69.17,64.3,70.17,62.61z"/>
	<path class="st8" d="M68.5,48.71c1.45,0.53,2.61-0.17,3.88-0.74c1.79-0.8,3.69-1.35,5.55-1.98c0.36-0.12,0.71-0.24,0.92-0.56
		c0.37-0.57,0.72-0.84,1.21-0.09c0.22,0.34,0.54,0.29,0.81,0c0.23-0.25,0.29-0.81,0.77-0.6c0.38,0.17,0.15,0.67,0.25,1.01
		c-1.03,2.37-1.61,4.92-2.78,7.24c-0.07-0.17-0.14-0.33-0.21-0.5c-1.03,0.95-2.52,0.13-3.64,1.01c-1.26,0.99-2.99,0.79-4.44,1.4
		c-2.1,0.89-2.33,1.13-2.35,3.37C67.38,55.08,67.33,51.89,68.5,48.71z"/>
	<path class="st9" d="M70.17,62.61c-0.14,0.94-0.21,1.85-1.15,2.5c-0.86,0.6-0.62,1.8-0.87,2.67c-0.3,1.09-0.82,1.99-1.34,2.93
		c-2.35-2.56-3.74-5.67-4.86-8.89c-1.35-3.9-1.53-7.96-1.21-12.04c0.01-0.11,0.07-0.22,0.23-0.69c1.35,4.94,3.61,8.94,7.49,11.87
		c0.62,0.17,0.92,0.76,1.42,1.09C70.13,62.17,70.16,62.39,70.17,62.61z"/>
	<path class="st10" d="M90.18,77.89c2.44-3.98,2.37-8.6,3.35-12.95c0.61-2.71,1.54-5.26,4.68-6.07c1.1-0.29,2.2-0.04,3.51-0.19
		c-0.54,0.49-1.15,0.12-1.49,0.52c-3.48,0.66-4.64,1.96-4.76,5.51c-0.06,1.8,0.14,3.6,0.03,5.39c-0.25,4.12-1.41,7.86-4.82,10.56
		C89.6,79.9,89.9,78.9,90.18,77.89z"/>
	<path class="st11" d="M83.79,78.17c-0.25,0.46-0.6,0.84-1.06,1.07c-1.14,0.57-1.2,1.74-1,2.61c0.21,0.94,1.31,0.49,2.06,0.48
		c0.18,0,0.37,0,0.55,0c0.13,0.58-0.71,0.82-0.51,1.43c-4.02,0.83-7.83,0.18-11.45-1.7c1.76,0.03,2.36-1.29,2.74-2.6
		c0.36-1.25,0.9-1.42,2.08-1.07C79.39,79.04,81.61,78.86,83.79,78.17z"/>
	<path class="st12" d="M82.71,36.48c-0.75,1.1-2.09,0.91-3.12,1.39c-0.45,0.21-1.03,0.23-1.39,0.52c-1.05,0.85-2.03,1.75-3.49,0.88
		c0.92-0.97,1.88-1.89,2.75-2.9c1.87-2.17,2.37-4.95,3.25-7.56c0.07-0.2,0.14-0.4,0.35-1.01C81.75,30.94,82.52,33.65,82.71,36.48z"
		/>
	<path class="st13" d="M83.84,83.76c-0.45-0.09-0.71-0.28-0.31-0.72c0.24-0.26,0.54-0.47,0.82-0.71c2.32-1,4.21-2.54,5.84-4.44
		c0.2,0.91-0.03,1.91,0.5,2.76C88.79,82.55,86.46,83.48,83.84,83.76z"/>
	<path class="st14" d="M69.89,62.06c-0.65-0.13-1.05-0.59-1.42-1.09c0.27-0.03,0.51-0.1,0.64-0.36
		C69.59,60.98,69.56,61.61,69.89,62.06z"/>
	<path class="st15" d="M95.43,56.9c-0.78,0.28-1.2,0.02-1.57-0.62C94.5,56.22,94.95,56.41,95.43,56.9z"/>
</g>
<text transform="matrix(1 0 0 1 241.0674 119.6074)" class="st8 st1 st16">Fenix</text>
</svg>
