<?xml version="1.0" encoding="utf-8"?>
<!-- Generator: Adobe Illustrator 24.1.1, SVG Export Plug-In . SVG Version: 6.00 Build 0)  -->
<svg version="1.1" id="Layer_1" xmlns="http://www.w3.org/2000/svg" xmlns:xlink="http://www.w3.org/1999/xlink" x="0px" y="0px"
	 viewBox="0 0 3150 875.65" style="enable-background:new 0 0 3150 875.65;" xml:space="preserve">
<style type="text/css">
	.st0{fill:#FEE475;}
	.st1{fill:#FED425;}
	.st2{fill:#FFFFFF;}
	.st3{fill:#FEB724;}
	.st4{fill:#FB9D12;}
	.st5{enable-background:new    ;}
	.st6{fill:#7E4F09;}
	.st7{fill:#89560A;}
	.st8{fill:#DE8B10;}
	.st9{fill:#DB6402;}
	.st10{fill:#DBA97F;}
	.st11{fill:#9F630B;}
	.st12{fill:#AA6A0C;}
	.st13{fill:#835209;}
	.st14{fill:#845209;}
	.st15{fill:#EB9311;}
	.st16{fill:#845309;}
	.st17{fill:#B5710D;}
	.st18{fill:#BE770E;}
	.st19{fill:#8E590A;}
	.st20{fill:#D98810;}
	.st21{fill:#8F590A;}
	.st22{fill:#EE9511;}
	.st23{fill:#A96A0C;}
	.st24{fill:#EC9311;}
	.st25{fill:#A5670C;}
	.st26{fill:#955D0B;}
</style>
<g>
	<g>
		<g>
			
				<ellipse transform="matrix(0.7071 -0.7071 0.7071 0.7071 -177.8041 436.5746)" class="st0" cx="438.09" cy="432.92" rx="174.01" ry="174.01"/>
			
				<ellipse transform="matrix(0.7071 -0.7071 0.7071 0.7071 -177.8041 436.5746)" class="st1" cx="438.09" cy="432.92" rx="169.56" ry="169.56"/>
			<path class="st2" d="M558.32,313.37L318.54,553.14c16.07,15.98,35.33,28.72,56.73,37.26L595.58,370.1
				C587.04,348.7,574.3,329.43,558.32,313.37z"/>
			<path class="st2" d="M603.38,470.67L475.84,598.2C539.16,583.8,588.97,533.99,603.38,470.67z"/>
			<path class="st2" d="M354.82,285.23l-64.42,64.42c-7.1,12.56-12.67,26.1-16.39,40.39l121.2-121.2
				C380.92,272.56,367.38,278.13,354.82,285.23z"/>
			<path class="st2" d="M535.98,294.51l-236.3,236.3c2.75,3.89,5.65,7.66,8.72,11.3l238.87-238.87
				C543.64,300.16,539.87,297.26,535.98,294.51z"/>
			<circle class="st2" cx="441.43" cy="436.06" r="122.86"/>
			
				<ellipse transform="matrix(0.7071 -0.7071 0.7071 0.7071 -177.8041 436.5746)" class="st3" cx="438.09" cy="432.92" rx="122.86" ry="122.86"/>
			<path class="st4" d="M321.9,439.59c0-67.85,55.01-122.86,122.86-122.86c32.23,0,61.55,12.43,83.46,32.73
				c-22.44-24.22-54.51-39.4-90.13-39.4c-67.85,0-122.86,55.01-122.86,122.86c0,35.62,15.18,67.69,39.4,90.13
				C334.33,501.13,321.9,471.82,321.9,439.59z"/>
			<path class="st2" d="M438.09,265.58c94.98,0,172.14,76.12,173.92,170.67c0.02-1.11,0.08-2.22,0.08-3.34
				c0-96.1-77.91-174.01-174.01-174.01c-96.1,0-174.01,77.91-174.01,174.01c0,1.12,0.06,2.22,0.08,3.34
				C265.95,341.7,343.11,265.58,438.09,265.58z"/>
		</g>
	</g>
	<g>
		<g class="st5">
			<g>
				<polygon class="st6" points="506.43,459.4 496.33,460.1 499.77,456.13 509.87,455.43 				"/>
			</g>
			<g>
				<polygon class="st6" points="506.07,401.09 495.97,401.8 492.01,398.38 502.11,397.67 				"/>
			</g>
			<g>
				<polygon class="st7" points="490.11,460.54 480.01,461.24 496.33,460.1 506.43,459.4 				"/>
			</g>
			<g>
				<polygon class="st8" points="516.83,371.22 536.08,387.94 537.83,412.97 507.05,415.12 506.07,401.09 502.11,397.67 
					485.79,398.81 482.35,402.77 486.15,457.1 490.11,460.54 506.43,459.4 509.87,455.43 508.92,441.93 539.71,439.78 
					541.42,464.23 524.68,483.54 475.39,486.99 456.13,470.23 450.8,393.95 467.54,374.67 				"/>
			</g>
			<g>
				<polygon class="st7" points="508.92,441.93 498.82,442.64 529.61,440.49 539.71,439.78 				"/>
			</g>
			<g>
				
					<rect x="499.28" y="442.27" transform="matrix(0.9976 -0.0698 0.0698 0.9976 -30.0942 36.275)" class="st6" width="10.12" height="13.52"/>
			</g>
			<g>
				
					<rect x="496.45" y="401.43" transform="matrix(0.9976 -0.0698 0.0698 0.9976 -27.2708 35.9782)" class="st6" width="10.12" height="14.06"/>
			</g>
			<g>
				<polygon class="st7" points="467.54,374.67 457.44,375.38 506.73,371.93 516.83,371.22 				"/>
			</g>
			<g>
				<polygon class="st6" points="475.39,486.99 465.29,487.69 446.03,470.93 456.13,470.23 				"/>
			</g>
			<g>
				<polygon class="st6" points="450.8,393.95 440.7,394.65 457.44,375.38 467.54,374.67 				"/>
			</g>
			<g>
				
					<rect x="443.35" y="394.21" transform="matrix(0.9976 -0.0698 0.0698 0.9976 -29.073 32.333)" class="st6" width="10.12" height="76.46"/>
			</g>
		</g>
		<g class="st5">
			<g>
				
					<rect x="399.47" y="408.2" transform="matrix(0.9976 -0.0698 0.0698 0.9976 -27.9044 29.2275)" class="st6" width="10.12" height="11.9"/>
			</g>
			<g>
				<polygon class="st6" points="406.71,423.49 396.61,424.2 399.9,420.44 410,419.74 				"/>
			</g>
			<g>
				<polygon class="st6" points="409.17,407.87 399.07,408.57 395.28,405.14 405.38,404.44 				"/>
			</g>
			<g>
				<polygon class="st7" points="394.22,467.24 384.12,467.95 390.85,467.48 400.95,466.77 				"/>
			</g>
			<g>
				<polygon class="st7" points="391.23,424.57 381.13,425.28 396.61,424.2 406.71,423.49 				"/>
			</g>
			<g>
				
					<rect x="351.16" y="407.95" transform="matrix(0.9976 -0.0698 0.0698 0.9976 -29.7472 25.9178)" class="st6" width="10.12" height="61.88"/>
			</g>
			<g>
				<path class="st8" d="M420.09,377.99l19.09,16.75l2.36,33.81l-16.58,19.08L393,449.87l1.21,17.37l6.73-0.47l1.77,25.3
					l-44.24,3.09l-1.77-25.3l6.73-0.47l-4.32-61.72l-6.73,0.47l-1.77-25.3L420.09,377.99z M410,419.74l-0.83-11.87l-3.79-3.43
					l-15.48,1.08l1.33,19.06l15.48-1.08L410,419.74"/>
			</g>
			<g>
				<polygon class="st7" points="356.7,469.87 346.6,470.57 353.33,470.1 363.43,469.4 				"/>
			</g>
			<g>
				
					<rect x="347.47" y="470.19" transform="matrix(0.9976 -0.0698 0.0698 0.9976 -32.8242 25.7678)" class="st6" width="10.12" height="25.36"/>
			</g>
			<g>
				
					<rect x="341.39" y="383.17" transform="matrix(0.9976 -0.0698 0.0698 0.9976 -26.7688 25.1313)" class="st6" width="10.12" height="25.36"/>
			</g>
			<g>
				<polygon class="st7" points="350.62,382.85 340.52,383.55 410,378.69 420.09,377.99 				"/>
			</g>
		</g>
	</g>
</g>
<g>
	<g>
		<g>
			
				<ellipse transform="matrix(0.7071 -0.7071 0.7071 0.7071 488.1823 2044.4081)" class="st0" cx="2711.91" cy="432.92" rx="171.8" ry="171.8"/>
			
				<ellipse transform="matrix(0.7071 -0.7071 0.7071 0.7071 488.1823 2044.4081)" class="st1" cx="2711.91" cy="432.92" rx="167.41" ry="167.41"/>
			<path class="st2" d="M2830.61,314.88l-236.74,236.73c15.86,15.77,34.88,28.35,56.01,36.79L2867.4,370.9
				C2858.97,349.77,2846.39,330.75,2830.61,314.88z"/>
			<path class="st2" d="M2875.1,470.19l-125.92,125.92C2811.7,581.89,2860.88,532.7,2875.1,470.19z"/>
			<path class="st2" d="M2629.7,287.1l-63.6,63.6c-7.01,12.4-12.5,25.77-16.18,39.88l119.66-119.66
				C2655.47,274.6,2642.1,280.09,2629.7,287.1z"/>
			<path class="st2" d="M2808.56,296.27l-233.3,233.3c2.72,3.84,5.58,7.56,8.61,11.15l235.84-235.84
				C2816.12,301.85,2812.39,298.99,2808.56,296.27z"/>
			<circle class="st2" cx="2715.2" cy="436.02" r="121.3"/>
			
				<ellipse transform="matrix(0.7071 -0.7071 0.7071 0.7071 488.1823 2044.4081)" class="st3" cx="2711.91" cy="432.92" rx="121.3" ry="121.3"/>
			<path class="st4" d="M2597.19,439.5c0-66.99,54.31-121.3,121.3-121.3c31.82,0,60.77,12.27,82.4,32.32
				c-22.16-23.92-53.82-38.9-88.99-38.9c-66.99,0-121.3,54.31-121.3,121.3c0,35.17,14.99,66.83,38.9,88.99
				C2609.46,500.27,2597.19,471.32,2597.19,439.5z"/>
			<path class="st2" d="M2711.91,267.7c93.78,0,169.95,75.15,171.72,168.51c0.02-1.1,0.08-2.19,0.08-3.29
				c0-94.88-76.92-171.8-171.8-171.8c-94.88,0-171.8,76.92-171.8,171.8c0,1.1,0.06,2.19,0.08,3.29
				C2541.96,342.85,2618.13,267.7,2711.91,267.7z"/>
		</g>
	</g>
	<g>
		<g class="st5">
			<g>
				<polygon class="st6" points="2779.38,459.06 2769.41,459.76 2772.81,455.84 2782.78,455.14 				"/>
			</g>
			<g>
				<polygon class="st6" points="2779.02,401.49 2769.05,402.19 2765.15,398.82 2775.12,398.12 				"/>
			</g>
			<g>
				<polygon class="st7" points="2763.27,460.19 2753.3,460.88 2769.41,459.76 2779.38,459.06 				"/>
			</g>
			<g>
				<polygon class="st8" points="2789.65,372.01 2808.66,388.51 2810.39,413.22 2779.99,415.35 2779.02,401.49 2775.12,398.12 
					2759.01,399.25 2755.61,403.15 2759.36,456.79 2763.27,460.19 2779.38,459.06 2782.78,455.14 2781.84,441.82 2812.24,439.69 
					2813.93,463.84 2797.4,482.9 2748.74,486.3 2729.72,469.75 2724.46,394.44 2740.98,375.41 				"/>
			</g>
			<g>
				<polygon class="st7" points="2781.84,441.82 2771.87,442.52 2802.27,440.39 2812.24,439.69 				"/>
			</g>
			<g>
				
					<rect x="2772.33" y="442.15" transform="matrix(0.9976 -0.0698 0.0698 0.9976 -24.5432 194.8286)" class="st6" width="9.99" height="13.35"/>
			</g>
			<g>
				
					<rect x="2769.53" y="401.83" transform="matrix(0.9976 -0.0698 0.0698 0.9976 -21.7556 194.5357)" class="st6" width="9.99" height="13.88"/>
			</g>
			<g>
				<polygon class="st7" points="2740.98,375.41 2731.01,376.11 2779.68,372.7 2789.65,372.01 				"/>
			</g>
			<g>
				<polygon class="st6" points="2748.74,486.3 2738.77,487 2719.75,470.45 2729.72,469.75 				"/>
			</g>
			<g>
				<polygon class="st6" points="2724.46,394.44 2714.48,395.14 2731.01,376.11 2740.98,375.41 				"/>
			</g>
			<g>
				
					<rect x="2717.11" y="394.7" transform="matrix(0.9976 -0.0698 0.0698 0.9976 -23.5349 190.9367)" class="st6" width="9.99" height="75.49"/>
			</g>
		</g>
		<g class="st5">
			<g>
				
					<rect x="2673.78" y="408.52" transform="matrix(0.9976 -0.0698 0.0698 0.9976 -22.3811 187.8705)" class="st6" width="9.99" height="11.75"/>
			</g>
			<g>
				<polygon class="st6" points="2680.93,423.61 2670.96,424.31 2674.2,420.6 2684.17,419.9 				"/>
			</g>
			<g>
				<polygon class="st6" points="2683.35,408.18 2673.38,408.88 2669.64,405.49 2679.61,404.8 				"/>
			</g>
			<g>
				<polygon class="st7" points="2668.59,466.81 2658.62,467.5 2665.27,467.04 2675.24,466.34 				"/>
			</g>
			<g>
				<polygon class="st7" points="2665.65,424.68 2655.68,425.38 2670.96,424.31 2680.93,423.61 				"/>
			</g>
			<g>
				
					<rect x="2626.08" y="408.27" transform="matrix(0.9976 -0.0698 0.0698 0.9976 -24.2006 184.6029)" class="st6" width="9.99" height="61.09"/>
			</g>
			<g>
				<path class="st8" d="M2694.14,378.68l18.85,16.54l2.33,33.38l-16.37,18.84l-31.56,2.21l1.2,17.15l6.64-0.46l1.75,24.98
					l-43.68,3.05l-1.75-24.98l6.64-0.46l-4.26-60.94l-6.64,0.46l-1.75-24.97L2694.14,378.68z M2684.17,419.9l-0.82-11.72l-3.74-3.39
					l-15.28,1.07l1.32,18.81l15.28-1.07L2684.17,419.9"/>
			</g>
			<g>
				<polygon class="st7" points="2631.55,469.4 2621.58,470.09 2628.23,469.63 2638.2,468.93 				"/>
			</g>
			<g>
				
					<rect x="2622.44" y="469.72" transform="matrix(0.9976 -0.0698 0.0698 0.9976 -27.2385 184.4547)" class="st6" width="9.99" height="25.04"/>
			</g>
			<g>
				
					<rect x="2616.44" y="383.8" transform="matrix(0.9976 -0.0698 0.0698 0.9976 -21.2599 183.8264)" class="st6" width="9.99" height="25.04"/>
			</g>
			<g>
				<polygon class="st7" points="2625.55,383.48 2615.58,384.18 2684.17,379.38 2694.14,378.68 				"/>
			</g>
		</g>
	</g>
</g>
<g>
	<g>
		<g>
			<g>
				<path class="st9" d="M851.91,261.12h30.37v343.6h-30.37c-80,0-144.84-76.92-144.84-171.8
					C707.07,338.03,771.92,261.12,851.91,261.12z"/>
				<path class="st10" d="M882.28,595.4v9.32h-30.37c-33.98,0-65.21-13.92-89.92-37.16l120.28,1.32V595.4z"/>
				<path class="st2" d="M818.12,378.55l-103.33-0.99c6.83-23.81,17.93-45.25,32.24-63.07l71.73,0.69L818.12,378.55z"/>
				<path class="st2" d="M818.77,303.12l-61.12-0.58c3.13-3.19,6.37-6.22,9.73-9.08l51.49,0.49L818.77,303.12z"/>
			</g>
			<ellipse class="st0" cx="882.28" cy="432.92" rx="144.84" ry="171.8"/>
			<ellipse class="st1" cx="882.28" cy="432.92" rx="140.09" ry="166.16"/>
			<path class="st2" d="M951.64,577.25L749.87,378.67c6.86-23.54,18.03-44.68,32.42-62.08l214.83,211.43
				C985.24,548.15,969.7,565.01,951.64,577.25z"/>
			<path class="st2" d="M747.05,476.31l124.16,122.2C811.43,592.96,762.21,542.95,747.05,476.31z"/>
			<path class="st2" d="M1016.14,383.83L898.33,267.88c14.13,1.91,27.62,6.32,40.15,12.84l59.54,58.6
				C1005.81,352.85,1011.97,367.82,1016.14,383.83z"/>
			<path class="st2" d="M1004.9,513.25L793.09,304.78c2.55-2.5,5.2-4.86,7.9-7.15l208.4,205.11
				C1007.99,506.32,1006.5,509.83,1004.9,513.25z"/>
			<path class="st2" d="M882.28,267.4c-79.11,0-143.36,75.23-144.78,168.66c-0.02-1.05-0.07-2.09-0.07-3.14
				c0-94.88,64.85-171.8,144.84-171.8c79.99,0,144.84,76.92,144.84,171.8c0,1.05-0.05,2.09-0.07,3.14
				C1025.64,342.63,961.38,267.4,882.28,267.4z"/>
			<ellipse class="st2" cx="879.05" cy="437.57" rx="99.64" ry="118.19"/>
			<ellipse class="st3" cx="882.28" cy="432.92" rx="99.64" ry="118.19"/>
			<path class="st4" d="M975.25,442.92c0-65.27-44.61-118.19-99.64-118.19c-29.76,0-56.45,15.49-74.71,40.02
				c18.05-30.26,47.76-50.03,81.38-50.03c55.03,0,99.64,52.91,99.64,118.19c0,29.98-9.43,57.33-24.93,78.16
				C968.48,491.82,975.25,468.31,975.25,442.92z"/>
		</g>
	</g>
	<g>
		<g class="st5">
			<g>
				<polygon class="st7" points="936.22,444.24 917.12,445.57 940.08,443.97 959.18,442.63 				"/>
			</g>
			<g>
				
					<rect x="917.62" y="444.89" transform="matrix(0.9976 -0.0698 0.0698 0.9976 -29.2997 65.7798)" class="st11" width="19.15" height="15.04"/>
			</g>
			<g>
				
					<rect x="914.46" y="399.47" transform="matrix(0.9976 -0.0698 0.0698 0.9976 -26.1602 65.4498)" class="st11" width="19.15" height="15.64"/>
			</g>
			<g>
				<polygon class="st12" points="934.8,463.56 915.69,464.9 918.17,460.58 937.27,459.24 				"/>
			</g>
			<g>
				<polygon class="st13" points="933.05,398.82 913.94,400.16 910.89,396.26 930,394.93 				"/>
			</g>
			<g>
				<polygon class="st7" points="922.63,464.41 903.52,465.75 915.69,464.9 934.8,463.56 				"/>
			</g>
			<g>
				<polygon class="st7" points="903.56,368.51 884.46,369.84 921.23,367.27 940.33,365.94 				"/>
			</g>
			<g>
				<polygon class="st14" points="912.3,493.4 893.19,494.74 878.36,475.64 897.47,474.3 				"/>
			</g>
			<g>
				<polygon class="st12" points="891.54,389.48 872.43,390.82 884.46,369.84 903.56,368.51 				"/>
			</g>
			<g>
				<polygon class="st15" points="940.33,365.94 955.15,384.98 957.1,412.82 934.14,414.42 933.05,398.82 930,394.93 917.83,395.78 
					915.36,400.08 919.58,460.49 922.63,464.41 934.8,463.56 937.27,459.24 936.22,444.24 959.18,442.63 961.08,469.82 
					949.06,490.83 912.3,493.4 897.47,474.3 891.54,389.48 903.56,368.51 				"/>
			</g>
			<g>
				
					<rect x="875.38" y="390.05" transform="matrix(0.9976 -0.0698 0.0698 0.9976 -28.0182 62.7848)" class="st11" width="19.15" height="85.03"/>
			</g>
		</g>
		<g class="st5">
			<g>
				
					<rect x="842.1" y="404.53" transform="matrix(0.9976 -0.0698 0.0698 0.9976 -26.6053 60.4117)" class="st11" width="19.15" height="13.23"/>
			</g>
			<g>
				<polygon class="st12" points="859.33,421.16 840.23,422.5 842.59,418.41 861.69,417.07 				"/>
			</g>
			<g>
				<polygon class="st16" points="860.77,403.88 841.67,405.21 838.74,401.31 857.85,399.97 				"/>
			</g>
			<g>
				<polygon class="st7" points="851.11,469.41 832,470.75 837.02,470.4 856.12,469.06 				"/>
			</g>
			<g>
				<polygon class="st7" points="847.79,421.97 828.68,423.3 840.23,422.5 859.33,421.16 				"/>
			</g>
			<g>
				
					<rect x="806.62" y="402.97" transform="matrix(0.9976 -0.0698 0.0698 0.9976 -28.5211 58.0001)" class="st11" width="19.15" height="68.8"/>
			</g>
			<g>
				<path class="st15" d="M868.18,370.98l14.7,19.08l2.63,37.6l-11.91,20.76l-23.84,1.67l1.35,19.32l5.02-0.35l1.97,28.13l-33,2.31
					l-1.97-28.13l5.02-0.35l-4.8-68.63l-5.02,0.35l-1.97-28.13L868.18,370.98z M861.69,417.07l-0.92-13.2l-2.92-3.91l-11.54,0.81
					l1.48,21.19l11.54-0.81L861.69,417.07"/>
			</g>
			<g>
				<polygon class="st7" points="823.12,471.37 804.02,472.71 809.04,472.35 828.14,471.02 				"/>
			</g>
			<g>
				
					<rect x="804.98" y="472" transform="matrix(0.9976 -0.0698 0.0698 0.9976 -31.9245 58.0046)" class="st11" width="19.15" height="28.2"/>
			</g>
			<g>
				
					<rect x="798.21" y="375.24" transform="matrix(0.9976 -0.0698 0.0698 0.9976 -25.1912 57.2969)" class="st11" width="19.15" height="28.2"/>
			</g>
			<g>
				<polygon class="st7" points="816.36,374.61 797.25,375.94 849.08,372.32 868.18,370.98 				"/>
			</g>
		</g>
	</g>
</g>
<g>
	<g>
		<g>
			<path class="st9" d="M1244.35,261.12h36.78v343.6h-36.78c-62.54,0-113.23-76.92-113.23-171.8
				C1131.12,338.03,1181.82,261.12,1244.35,261.12z"/>
			<path class="st10" d="M1281.13,595.4v9.32h-36.78c-26.57,0-50.98-13.92-70.29-37.16l107.07,1.32V595.4z"/>
			<path class="st2" d="M1217.94,378.55l-80.78-0.99c5.34-23.81,14.02-45.25,25.2-63.07l56.07,0.69L1217.94,378.55z"/>
			<path class="st2" d="M1218.45,303.12l-47.78-0.58c2.45-3.19,4.98-6.22,7.6-9.08l40.25,0.49L1218.45,303.12z"/>
			<ellipse class="st0" cx="1281.13" cy="432.92" rx="113.24" ry="171.8"/>
			<ellipse class="st1" cx="1281.13" cy="432.92" rx="109.52" ry="166.16"/>
			<path class="st2" d="M1335.36,577.25l-157.74-198.58c5.36-23.54,14.09-44.68,25.35-62.08l167.95,211.43
				C1361.63,548.15,1349.48,565.01,1335.36,577.25z"/>
			<path class="st2" d="M1175.41,476.31l97.06,122.2C1225.75,592.96,1187.27,542.95,1175.41,476.31z"/>
			<path class="st2" d="M1385.78,383.83l-92.1-115.95c11.05,1.91,21.59,6.32,31.39,12.84l46.54,58.6
				C1377.71,352.85,1382.52,367.82,1385.78,383.83z"/>
			<path class="st2" d="M1377,513.25l-165.59-208.47c1.99-2.5,4.07-4.86,6.18-7.15l162.92,205.11
				C1379.41,506.32,1378.25,509.83,1377,513.25z"/>
			<path class="st2" d="M1281.13,267.4c-61.84,0-112.07,75.23-113.18,168.66c-0.01-1.05-0.05-2.09-0.05-3.14
				c0-94.88,50.7-171.8,113.24-171.8c62.54,0,113.23,76.92,113.23,171.8c0,1.05-0.04,2.09-0.05,3.14
				C1393.2,342.63,1342.97,267.4,1281.13,267.4z"/>
			<ellipse class="st2" cx="1278.61" cy="437.57" rx="77.9" ry="118.19"/>
			<ellipse class="st3" cx="1281.13" cy="432.92" rx="77.9" ry="118.19"/>
			<path class="st4" d="M1349.02,436.25c0-65.27-34.88-118.19-77.9-118.19c-3.95,0-7.83,0.45-11.62,1.31
				c6.87-3.01,14.12-4.65,21.63-4.65c43.02,0,77.9,52.91,77.9,118.19c0,59.28-28.77,108.36-66.28,116.87
				C1325.25,535.57,1349.02,490.14,1349.02,436.25z"/>
		</g>
	</g>
	<g>
		<g class="st5">
			<g>
				<polygon class="st7" points="1321.85,445.33 1306.72,446.39 1322.83,445.26 1337.96,444.2 				"/>
			</g>
			<g>
				
					<rect x="1307.22" y="445.84" transform="matrix(0.9976 -0.0698 0.0698 0.9976 -28.4221 92.8206)" class="st17" width="15.17" height="15.04"/>
			</g>
			<g>
				
					<rect x="1304.07" y="400.42" transform="matrix(0.9976 -0.0698 0.0698 0.9976 -25.2825 92.4906)" class="st17" width="15.17" height="15.64"/>
			</g>
			<g>
				<polygon class="st18" points="1321.25,464.6 1306.12,465.65 1307.76,461.39 1322.9,460.33 				"/>
			</g>
			<g>
				<polygon class="st19" points="1318.67,399.91 1303.54,400.97 1301.32,397.02 1316.45,395.96 				"/>
			</g>
			<g>
				<polygon class="st7" points="1312.71,465.19 1297.58,466.25 1306.12,465.65 1321.25,464.6 				"/>
			</g>
			<g>
				<polygon class="st20" points="1323.11,367.23 1333.93,386.56 1335.87,414.39 1319.76,415.52 1318.67,399.91 1316.45,395.96 
					1307.91,396.56 1306.26,400.81 1310.48,461.21 1312.71,465.19 1321.25,464.6 1322.9,460.33 1321.85,445.33 1337.96,444.2 
					1339.86,471.39 1331.84,492.12 1306.05,493.92 1295.23,474.55 1289.3,389.73 1297.32,369.03 				"/>
			</g>
			<g>
				<polygon class="st7" points="1297.32,369.03 1282.18,370.09 1307.98,368.29 1323.11,367.23 				"/>
			</g>
			<g>
				<polygon class="st19" points="1306.05,493.92 1290.92,494.98 1280.09,475.61 1295.23,474.55 				"/>
			</g>
			<g>
				<polygon class="st18" points="1289.3,389.73 1274.16,390.79 1282.18,370.09 1297.32,369.03 				"/>
			</g>
			<g>
				
					<rect x="1277.11" y="390.15" transform="matrix(0.9976 -0.0698 0.0698 0.9976 -27.0519 90.6697)" class="st17" width="15.17" height="85.03"/>
			</g>
		</g>
		<g class="st5">
			<g>
				
					<rect x="1253.27" y="403.97" transform="matrix(0.9976 -0.0698 0.0698 0.9976 -25.5699 88.9532)" class="st17" width="15.17" height="13.23"/>
			</g>
			<g>
				<polygon class="st18" points="1267.31,420.69 1252.18,421.75 1253.75,417.72 1268.89,416.66 				"/>
			</g>
			<g>
				<polygon class="st21" points="1267.96,403.46 1252.83,404.52 1250.7,400.56 1265.83,399.5 				"/>
			</g>
			<g>
				<polygon class="st7" points="1262.53,468.7 1247.4,469.76 1250.92,469.51 1266.05,468.46 				"/>
			</g>
			<g>
				<polygon class="st7" points="1259.21,421.26 1244.08,422.32 1252.18,421.75 1267.31,420.69 				"/>
			</g>
			<g>
				
					<rect x="1228.87" y="401.64" transform="matrix(0.9976 -0.0698 0.0698 0.9976 -27.4047 87.3127)" class="st17" width="15.17" height="68.8"/>
			</g>
			<g>
				<polygon class="st7" points="1242.9,470.08 1227.76,471.13 1231.29,470.89 1246.42,469.83 				"/>
			</g>
			<g>
				
					<rect x="1228.73" y="470.57" transform="matrix(0.9976 -0.0698 0.0698 0.9976 -30.7971 87.4215)" class="st17" width="15.17" height="28.2"/>
			</g>
			<g>
				
					<rect x="1221.96" y="373.81" transform="matrix(0.9976 -0.0698 0.0698 0.9976 -24.0638 86.7138)" class="st17" width="15.17" height="28.2"/>
			</g>
			<g>
				<polygon class="st7" points="1236.13,373.31 1221,374.37 1257.36,371.83 1272.49,370.77 				"/>
			</g>
			<g>
				<path class="st20" d="M1272.49,370.77l10.73,19.36l2.63,37.6l-7.94,20.48l-16.73,1.17l1.35,19.32l3.52-0.25l1.97,28.13
					l-23.15,1.62l-1.97-28.13l3.52-0.25l-4.8-68.64l-3.52,0.25l-1.97-28.13L1272.49,370.77z M1268.89,416.66l-0.92-13.2l-2.14-3.96
					l-8.1,0.57l1.48,21.19l8.1-0.57L1268.89,416.66"/>
			</g>
		</g>
	</g>
</g>
<g>
	<rect x="1552.03" y="261.12" class="st9" width="53.61" height="343.6"/>
	<rect x="1552.03" y="329.86" class="st2" width="53.61" height="65.48"/>
	<rect x="1552.03" y="528.8" class="st10" width="53.61" height="59.59"/>
	<rect x="1552.03" y="595.4" class="st2" width="53.61" height="9.31"/>
	<rect x="1552.03" y="305.59" class="st2" width="53.61" height="12.26"/>
	<polygon class="st2" points="1552.03,261.12 1552.03,371.97 1555.34,265.42 1602.33,265.42 1605.64,371.97 1605.64,261.12 	"/>
</g>
<g>
	<g>
		<g>
			<path class="st9" d="M1905.65,261.12h-36.78v343.6h36.78c62.54,0,113.23-76.92,113.23-171.8
				C2018.88,338.03,1968.18,261.12,1905.65,261.12z"/>
			<path class="st10" d="M1868.87,595.4v9.32h36.78c26.57,0,50.98-13.92,70.29-37.16l-107.07,1.32V595.4z"/>
			<path class="st2" d="M1932.06,378.55l80.78-0.99c-5.34-23.81-14.02-45.25-25.2-63.07l-56.07,0.69L1932.06,378.55z"/>
			<path class="st2" d="M1931.55,303.12l47.78-0.58c-2.45-3.19-4.98-6.22-7.6-9.08l-40.25,0.49L1931.55,303.12z"/>
			<ellipse class="st0" cx="1868.87" cy="432.92" rx="113.24" ry="171.8"/>
			<ellipse class="st1" cx="1868.87" cy="432.92" rx="109.52" ry="166.16"/>
			<path class="st2" d="M1814.64,577.25l157.74-198.58c-5.36-23.54-14.09-44.68-25.35-62.08l-167.95,211.43
				C1788.37,548.15,1800.52,565.01,1814.64,577.25z"/>
			<path class="st2" d="M1974.59,476.31l-97.06,122.2C1924.25,592.96,1962.73,542.95,1974.59,476.31z"/>
			<path class="st2" d="M1764.22,383.83l92.1-115.95c-11.05,1.91-21.59,6.32-31.39,12.84l-46.54,58.6
				C1772.29,352.85,1767.48,367.82,1764.22,383.83z"/>
			<path class="st2" d="M1773,513.25l165.59-208.47c-1.99-2.5-4.07-4.86-6.18-7.15L1769.5,502.74
				C1770.59,506.32,1771.75,509.83,1773,513.25z"/>
			<path class="st2" d="M1868.87,267.4c61.84,0,112.07,75.23,113.18,168.66c0.01-1.05,0.05-2.09,0.05-3.14
				c0-94.88-50.7-171.8-113.24-171.8c-62.54,0-113.23,76.92-113.23,171.8c0,1.05,0.04,2.09,0.05,3.14
				C1756.8,342.63,1807.03,267.4,1868.87,267.4z"/>
			<ellipse class="st2" cx="1871.39" cy="437.57" rx="77.9" ry="118.19"/>
			<ellipse class="st3" cx="1868.87" cy="432.92" rx="77.9" ry="118.19"/>
			<path class="st4" d="M1800.98,436.25c0-65.27,34.88-118.19,77.9-118.19c3.95,0,7.83,0.45,11.62,1.31
				c-6.87-3.01-14.12-4.65-21.63-4.65c-43.02,0-77.9,52.91-77.9,118.19c0,59.28,28.77,108.36,66.28,116.87
				C1824.75,535.57,1800.98,490.14,1800.98,436.25z"/>
		</g>
	</g>
	<g>
		<g class="st5">
			<g>
				<polygon class="st7" points="1815.5,474.24 1830.63,473.18 1834.16,472.93 1819.02,473.99 				"/>
			</g>
			<g>
				
					<rect x="1834.44" y="453" transform="matrix(0.9976 -0.0698 0.0698 0.9976 -27.7878 129.6203)" class="st22" width="15.17" height="19.36"/>
			</g>
			<g>
				
					<rect x="1831.06" y="403.68" transform="matrix(0.9976 -0.0698 0.0698 0.9976 -24.421 129.2664)" class="st22" width="15.17" height="21.24"/>
			</g>
			<g>
				
					<rect x="1839.62" y="472.06" transform="matrix(0.9976 -0.0698 0.0698 0.9976 -29.4127 130.0389)" class="st22" width="15.17" height="28.2"/>
			</g>
			<g>
				<polygon class="st7" points="1835.13,472.87 1850.27,471.81 1853.79,471.56 1838.66,472.62 				"/>
			</g>
			<g>
				<polygon class="st7" points="1831.82,425.42 1846.95,424.36 1855.05,423.8 1839.92,424.85 				"/>
			</g>
			<g>
				<polygon class="st7" points="1808.74,377.47 1823.87,376.42 1860.23,373.87 1845.1,374.93 				"/>
			</g>
			<g>
				<polygon class="st23" points="1858.46,431.9 1873.59,430.84 1865.64,451.32 1850.51,452.38 				"/>
			</g>
			<g>
				<polygon class="st22" points="1845.1,374.93 1860.23,373.87 1870.96,393.24 1855.83,394.29 				"/>
			</g>
			<g>
				<path class="st13" d="M1845.1,374.93l10.73,19.36l2.63,37.6l-7.94,20.49l-16.73,1.17l1.35,19.31l3.52-0.25l1.97,28.13
					l-23.15,1.62l-1.97-28.13l3.52-0.25l-4.8-68.64l-3.52,0.25l-1.97-28.13L1845.1,374.93z M1841.49,420.82l-0.92-13.2l-2.13-3.96
					l-8.1,0.57l1.48,21.19l8.1-0.57L1841.49,420.82"/>
			</g>
			<g>
				
					<rect x="1857.12" y="393.72" transform="matrix(0.9976 -0.0698 0.0698 0.9976 -24.2368 131.0804)" class="st22" width="15.17" height="37.69"/>
			</g>
		</g>
		<g class="st5">
			<g>
				
					<rect x="1880.96" y="404.37" transform="matrix(0.9976 -0.0698 0.0698 0.9976 -25.7189 132.7971)" class="st22" width="15.17" height="60.55"/>
			</g>
			<g>
				<polygon class="st22" points="1883.09,465.38 1898.22,464.32 1900.45,468.3 1885.32,469.36 				"/>
			</g>
			<g>
				<polygon class="st23" points="1880.52,400.72 1895.65,399.66 1894,403.91 1878.87,404.97 				"/>
			</g>
			<g>
				<polygon class="st7" points="1885.32,469.36 1900.45,468.3 1908.99,467.7 1893.86,468.76 				"/>
			</g>
			<g>
				<polygon class="st7" points="1869.92,373.2 1885.05,372.14 1910.85,370.33 1895.72,371.39 				"/>
			</g>
			<g>
				<polygon class="st23" points="1912.47,475.56 1927.6,474.5 1919.58,495.23 1904.45,496.28 				"/>
			</g>
			<g>
				<polygon class="st7" points="1894.45,449.49 1909.59,448.44 1925.7,447.31 1910.56,448.37 				"/>
			</g>
			<g>
				
					<rect x="1911.5" y="447.81" transform="matrix(0.9976 -0.0698 0.0698 0.9976 -27.5133 134.9924)" class="st22" width="15.17" height="27.26"/>
			</g>
			<g>
				<polygon class="st22" points="1895.72,371.39 1910.85,370.33 1921.67,389.66 1906.53,390.72 				"/>
			</g>
			<g>
				<polygon class="st13" points="1895.72,371.39 1906.53,390.72 1908.48,418.55 1892.37,419.68 1891.28,404.08 1889.06,400.12 
					1880.52,400.72 1878.87,404.97 1883.09,465.38 1885.32,469.36 1893.86,468.76 1895.5,464.5 1894.45,449.49 1910.56,448.37 
					1912.47,475.56 1904.45,496.28 1878.65,498.09 1867.83,478.71 1861.9,393.89 1869.92,373.2 				"/>
			</g>
			<g>
				
					<rect x="1907.49" y="390.16" transform="matrix(0.9976 -0.0698 0.0698 0.9976 -23.5241 134.5731)" class="st22" width="15.17" height="27.9"/>
			</g>
		</g>
	</g>
</g>
<g>
	<g>
		<g>
			<path class="st9" d="M2298.09,261.12h-30.37v343.6h30.37c80,0,144.84-76.92,144.84-171.8
				C2442.93,338.03,2378.08,261.12,2298.09,261.12z"/>
			<path class="st10" d="M2267.72,595.4v9.32h30.37c33.98,0,65.21-13.92,89.92-37.16l-120.28,1.32V595.4z"/>
			<path class="st2" d="M2331.88,378.55l103.33-0.99c-6.83-23.81-17.93-45.25-32.24-63.07l-71.73,0.69L2331.88,378.55z"/>
			<path class="st2" d="M2331.23,303.12l61.12-0.58c-3.13-3.19-6.37-6.22-9.73-9.08l-51.49,0.49L2331.23,303.12z"/>
		</g>
		<ellipse class="st0" cx="2267.72" cy="432.92" rx="144.84" ry="171.8"/>
		<ellipse class="st1" cx="2267.72" cy="432.92" rx="140.09" ry="166.16"/>
		<path class="st2" d="M2198.36,577.25l201.77-198.58c-6.86-23.54-18.03-44.68-32.42-62.08l-214.83,211.43
			C2164.76,548.15,2180.3,565.01,2198.36,577.25z"/>
		<path class="st2" d="M2402.95,476.31l-124.16,122.2C2338.57,592.96,2387.79,542.95,2402.95,476.31z"/>
		<path class="st2" d="M2133.86,383.83l117.81-115.95c-14.13,1.91-27.62,6.32-40.15,12.84l-59.54,58.6
			C2144.19,352.85,2138.03,367.82,2133.86,383.83z"/>
		<path class="st2" d="M2145.1,513.25l211.81-208.47c-2.55-2.5-5.2-4.86-7.9-7.15l-208.4,205.11
			C2142.01,506.32,2143.5,509.83,2145.1,513.25z"/>
		<path class="st2" d="M2267.72,267.4c79.11,0,143.36,75.23,144.78,168.66c0.02-1.05,0.07-2.09,0.07-3.14
			c0-94.88-64.85-171.8-144.84-171.8c-79.99,0-144.84,76.92-144.84,171.8c0,1.05,0.05,2.09,0.07,3.14
			C2124.36,342.63,2188.62,267.4,2267.72,267.4z"/>
		<ellipse class="st2" cx="2270.95" cy="437.57" rx="99.64" ry="118.19"/>
		<ellipse class="st3" cx="2267.72" cy="432.92" rx="99.64" ry="118.19"/>
		<path class="st4" d="M2174.75,442.92c0-65.27,44.61-118.19,99.64-118.19c29.76,0,56.45,15.49,74.71,40.02
			c-18.05-30.26-47.76-50.03-81.38-50.03c-55.03,0-99.64,52.91-99.64,118.19c0,29.98,9.43,57.33,24.93,78.16
			C2181.52,491.82,2174.75,468.31,2174.75,442.92z"/>
	</g>
	<g>
		<g class="st5">
			<g>
				<polygon class="st7" points="2199.49,477.36 2218.59,476.02 2223.61,475.67 2204.51,477.01 				"/>
			</g>
			<g>
				
					<rect x="2226.77" y="455.39" transform="matrix(0.9976 -0.0698 0.0698 0.9976 -26.9945 157.1325)" class="st22" width="19.15" height="19.36"/>
			</g>
			<g>
				
					<rect x="2223.39" y="406.07" transform="matrix(0.9976 -0.0698 0.0698 0.9976 -23.6278 156.7786)" class="st22" width="19.15" height="21.24"/>
			</g>
			<g>
				
					<rect x="2233.45" y="474.35" transform="matrix(0.9976 -0.0698 0.0698 0.9976 -28.6085 157.6551)" class="st22" width="19.15" height="28.2"/>
			</g>
			<g>
				<polygon class="st7" points="2227.47,475.4 2246.57,474.07 2251.59,473.72 2232.49,475.05 				"/>
			</g>
			<g>
				<polygon class="st7" points="2224.15,427.96 2243.25,426.62 2254.8,425.81 2235.69,427.15 				"/>
			</g>
			<g>
				<polygon class="st24" points="2244.54,376.97 2263.65,375.64 2278.35,394.72 2259.24,396.06 				"/>
			</g>
			<g>
				<polygon class="st7" points="2192.72,380.6 2211.82,379.26 2263.65,375.64 2244.54,376.97 				"/>
			</g>
			<g>
				<polygon class="st25" points="2261.87,433.66 2280.98,432.32 2269.06,453.08 2249.96,454.42 				"/>
			</g>
			<g>
				<path class="st26" d="M2244.54,376.97l14.7,19.08l2.63,37.6l-11.91,20.76l-23.84,1.67l1.35,19.32l5.02-0.35l1.97,28.13l-33,2.31
					l-1.97-28.13l5.02-0.35l-4.8-68.64l-5.02,0.35l-1.97-28.13L2244.54,376.97z M2238.06,423.06l-0.92-13.2l-2.92-3.91l-11.54,0.81
					l1.48,21.19l11.54-0.81L2238.06,423.06"/>
			</g>
			<g>
				
					<rect x="2260.53" y="395.34" transform="matrix(0.9976 -0.0698 0.0698 0.9976 -23.3626 159.3638)" class="st22" width="19.15" height="37.69"/>
			</g>
		</g>
		<g class="st5">
			<g>
				
					<rect x="2293.81" y="405.33" transform="matrix(0.9976 -0.0698 0.0698 0.9976 -24.7756 161.737)" class="st22" width="19.15" height="60.55"/>
			</g>
			<g>
				<polygon class="st15" points="2295.94,466.48 2315.05,465.14 2318.09,469.07 2298.99,470.4 				"/>
			</g>
			<g>
				<polygon class="st25" points="2294.19,401.77 2313.29,400.43 2310.82,404.74 2291.72,406.07 				"/>
			</g>
			<g>
				<polygon class="st7" points="2298.99,470.4 2318.09,469.07 2330.26,468.21 2311.16,469.55 				"/>
			</g>
			<g>
				<polygon class="st7" points="2279.93,374.5 2299.03,373.16 2335.8,370.59 2316.69,371.93 				"/>
			</g>
			<g>
				<polygon class="st25" points="2337.45,475.81 2356.55,474.48 2344.53,495.48 2325.42,496.82 				"/>
			</g>
			<g>
				<polygon class="st7" points="2312.58,450.23 2331.69,448.89 2354.65,447.29 2335.55,448.62 				"/>
			</g>
			<g>
				
					<rect x="2336.47" y="447.92" transform="matrix(0.9976 -0.0698 0.0698 0.9976 -26.4812 164.7764)" class="st22" width="19.15" height="27.26"/>
			</g>
			<g>
				<polygon class="st15" points="2316.69,371.93 2335.8,370.59 2350.62,389.64 2331.51,390.97 				"/>
			</g>
			<g>
				<polygon class="st26" points="2316.69,371.93 2331.51,390.97 2333.46,418.81 2310.5,420.41 2309.41,404.81 2306.36,400.92 
					2294.19,401.77 2291.72,406.07 2295.94,466.48 2298.99,470.4 2311.16,469.55 2313.63,465.23 2312.58,450.23 2335.55,448.62 
					2337.45,475.81 2325.42,496.82 2288.66,499.39 2273.83,480.29 2267.9,395.47 2279.93,374.5 				"/>
			</g>
			<g>
				
					<rect x="2332.46" y="390.27" transform="matrix(0.9976 -0.0698 0.0698 0.9976 -22.492 164.3571)" class="st22" width="19.15" height="27.9"/>
			</g>
		</g>
	</g>
</g>
</svg>
