<?xml version="1.0" encoding="utf-8"?>
<!-- Generator: Adobe Illustrator 24.1.0, SVG Export Plug-In . SVG Version: 6.00 Build 0)  -->
<svg version="1.1" id="Capa_1" xmlns="http://www.w3.org/2000/svg" xmlns:xlink="http://www.w3.org/1999/xlink" x="0px" y="0px"
	 viewBox="0 0 224.07 224.04" style="enable-background:new 0 0 224.07 224.04;" xml:space="preserve">
<g>
	<g>
		<g>
			<path d="M85.9,153.09H70.96v-14.94c0-2.06-1.67-3.73-3.73-3.73H52.29c-2.06,0-3.73,1.67-3.73,3.73v14.94H33.62
				c-2.06,0-3.73,1.67-3.73,3.73v14.94c0,2.06,1.67,3.73,3.73,3.73h14.94v14.94c0,2.06,1.67,3.73,3.73,3.73h14.94
				c2.06,0,3.73-1.67,3.73-3.73V175.5H85.9c2.06,0,3.73-1.67,3.73-3.73v-14.94C89.63,154.76,87.96,153.09,85.9,153.09z
				 M82.16,168.03H67.23c-2.06,0-3.73,1.67-3.73,3.73v14.94h-7.47v-14.94c0-2.06-1.67-3.73-3.73-3.73H37.36v-7.47h14.94
				c2.06,0,3.73-1.67,3.73-3.73v-14.94h7.47v14.94c0,2.06,1.67,3.73,3.73,3.73h14.94V168.03z"/>
		</g>
	</g>
	<g>
		<g>
			<path d="M223.68,157.47c-2.86-25.73-27.03-49.8-52.78-52.55c-2.19-0.24-4.39-0.37-6.59-0.37h-41.07V89.61h-7.47v-7.47
				c0-8.25-6.69-14.94-14.94-14.94H82.16c-4.12,0-7.47-3.34-7.47-7.47s3.34-7.47,7.47-7.47h59.74c8.25,0,14.94-6.69,14.94-14.94
				s-6.69-14.94-14.94-14.94h-18.67c-4.12,0-7.47-3.34-7.47-7.47V0h-7.47v14.94c0,8.25,6.69,14.94,14.94,14.94h18.67
				c4.12,0,7.47,3.34,7.47,7.47s-3.34,7.47-7.47,7.47H82.16c-8.25,0-14.94,6.69-14.94,14.94s6.69,14.94,14.94,14.94h18.67
				c4.12,0,7.47,3.34,7.47,7.47v7.47h-7.47v14.94H59.76c-2.2,0.01-4.4,0.13-6.59,0.37c-25.76,2.76-49.92,26.84-52.77,52.57
				c-3.75,32.78,19.78,62.4,52.56,66.15c13.35,1.53,26.82-1.49,38.25-8.56c4.92-3.22,10.54-5.21,16.39-5.79
				c2.89-0.23,5.79-0.24,8.68-0.03c5.94,0.57,11.65,2.58,16.65,5.85c28.07,17.35,64.88,8.65,82.23-19.41
				C222.21,184.28,225.21,170.81,223.68,157.47z M108.3,97.08h7.47v7.47h-7.47V97.08z M203.27,199.15
				c-16.88,18.88-44.88,22.93-66.42,9.61c-6.02-3.92-12.9-6.31-20.05-6.96c-1.58-0.11-3.17-0.17-4.77-0.17
				c-1.7,0-3.36,0.07-5.03,0.2c-7.04,0.67-13.81,3.04-19.75,6.89c-24.55,15.19-56.77,7.6-71.96-16.95
				c-6.18-9.99-8.82-21.78-7.48-33.46c2.46-22.11,24.02-43.59,46.15-45.97c1.92-0.22,3.86-0.33,5.79-0.33h104.55
				c1.93,0,3.87,0.1,5.79,0.31c22.13,2.38,43.69,23.86,46.15,45.97C218.01,173.15,213.28,188.04,203.27,199.15z"/>
		</g>
	</g>
	<g>
		<g>
			<path d="M164.31,126.95c-8.25,0-14.94,6.69-14.94,14.94s6.69,14.94,14.94,14.94s14.94-6.69,14.94-14.94
				S172.56,126.95,164.31,126.95z M164.31,149.36c-4.12,0-7.47-3.34-7.47-7.47s3.34-7.47,7.47-7.47s7.47,3.34,7.47,7.47
				S168.43,149.36,164.31,149.36z"/>
		</g>
	</g>
	<g>
		<g>
			<path d="M164.31,171.76c-8.25,0-14.94,6.69-14.94,14.94s6.69,14.94,14.94,14.94s14.94-6.69,14.94-14.94
				S172.56,171.76,164.31,171.76z M164.31,194.17c-4.12,0-7.47-3.34-7.47-7.47s3.34-7.47,7.47-7.47s7.47,3.34,7.47,7.47
				S168.43,194.17,164.31,194.17z"/>
		</g>
	</g>
	<g>
		<g>
			<path d="M138.17,149.36c-8.25,0-14.94,6.69-14.94,14.94s6.69,14.94,14.94,14.94s14.94-6.69,14.94-14.94
				S146.42,149.36,138.17,149.36z M138.17,171.76c-4.12,0-7.47-3.34-7.47-7.47s3.34-7.47,7.47-7.47s7.47,3.34,7.47,7.47
				S142.3,171.76,138.17,171.76z"/>
		</g>
	</g>
	<g>
		<g>
			<path d="M190.45,149.36c-8.25,0-14.94,6.69-14.94,14.94s6.69,14.94,14.94,14.94s14.94-6.69,14.94-14.94
				S198.7,149.36,190.45,149.36z M190.45,171.76c-4.12,0-7.47-3.34-7.47-7.47s3.34-7.47,7.47-7.47s7.47,3.34,7.47,7.47
				S194.57,171.76,190.45,171.76z"/>
		</g>
	</g>
</g>
<g>
	<g>
		<g>
			<path d="M452.3-10.73h-81.98c-2.06,0-3.73,1.67-3.73,3.73v120.17h7.45V-3.27h74.52v216.12h-61.02v7.45h64.74
				c2.06,0,3.73-1.67,3.73-3.73V-7C456.03-9.06,454.36-10.73,452.3-10.73z"/>
		</g>
	</g>
	<g>
		<g>
			<path d="M403.86-10.73c-2.06,0-3.73,1.67-3.73,3.73v85.7c0,2.06,1.67,3.73,3.73,3.73c2.06,0,3.73-1.67,3.73-3.73V-7
				C407.59-9.06,405.92-10.73,403.86-10.73z"/>
		</g>
	</g>
	<g>
		<g>
			<path d="M403.86,142.05c-2.06,0-3.73,1.67-3.73,3.73v70.8c0,2.06,1.67,3.73,3.73,3.73c2.06,0,3.73-1.67,3.73-3.73v-70.8
				C407.59,143.72,405.92,142.05,403.86,142.05z"/>
		</g>
	</g>
	<g>
		<g>
			<path d="M403.86,97.33c-2.06,0-3.73,1.67-3.73,3.73v22.36c0,2.06,1.67,3.73,3.73,3.73c2.06,0,3.73-1.67,3.73-3.73v-22.36
				C407.59,99,405.92,97.33,403.86,97.33z"/>
		</g>
	</g>
	<g>
		<g>
			<path d="M392.43,163c-0.78-2.9-1.53-5.73-2.26-8.48c-6.75-25.47-11.62-43.87-24.53-47.69c-5.1-1.51-15.7-4.65-27.15,2.14
				c-9,5.34-39.13,5.33-48.12,0c-11.45-6.79-22.05-3.65-27.17-2.13c-12.88,3.81-17.76,22.22-24.5,47.68
				c-0.73,2.75-1.48,5.58-2.26,8.48c-6,22.21-5.97,43.32,0.08,53.79c2.14,3.72,4.96,6.06,8.37,6.97c0.7,0.19,1.4,0.28,2.11,0.28
				c8.12,0,16.33-11.89,24.29-23.41c3.4-4.92,6.91-10.01,8.81-11.49c1.32-1.02,6.38-3.38,24.67-3.13l22.78-0.02
				c15.59,0.07,20.04,2.22,21.23,3.15h0c1.9,1.47,5.41,6.56,8.81,11.49c8.65,12.53,17.6,25.51,26.4,23.14
				c3.41-0.9,6.23-3.25,8.37-6.97C398.4,206.32,398.43,185.2,392.43,163z M385.9,213.06c-1.12,1.94-2.41,3.11-3.83,3.49
				c-3.74,0.94-13.98-13.84-18.35-20.17c-4.23-6.12-7.57-10.96-10.38-13.14c-2.56-1.98-8.01-4.63-25.78-4.71l-22.75,0.02
				c-15.37-0.22-24.95,1.33-29.28,4.69c-2.81,2.18-6.15,7.02-10.38,13.14c-4.37,6.33-14.59,21.17-18.35,20.17
				c-1.42-0.38-2.71-1.55-3.83-3.49c-4.18-7.25-5.6-24.94,0.66-48.12c0.79-2.91,1.54-5.75,2.27-8.51
				c5.9-22.25,10.55-39.82,19.44-42.45c2.37-0.7,5.83-1.73,9.87-1.73c3.47,0,7.37,0.76,11.36,3.12c11.2,6.64,44.53,6.64,55.73,0
				c8.64-5.12,16.83-2.7,21.25-1.39c8.87,2.63,13.52,20.2,19.42,42.45c0.73,2.76,1.48,5.6,2.27,8.51
				C391.5,188.12,390.08,205.81,385.9,213.06z"/>
		</g>
	</g>
	<g>
		<g>
			<rect x="273.44" y="130.88" width="7.45" height="29.81"/>
		</g>
	</g>
	<g>
		<g>
			<path d="M349.83,130.87c-9.25,0-16.77,7.52-16.77,16.77s7.52,16.77,16.77,16.77c9.25,0,16.77-7.52,16.77-16.77
				C366.6,138.39,359.08,130.87,349.83,130.87z M349.83,156.95c-5.14,0-9.32-4.18-9.32-9.32s4.18-9.32,9.32-9.32
				c5.14,0,9.32,4.18,9.32,9.32S354.97,156.95,349.83,156.95z"/>
		</g>
	</g>
	<g>
		<g>
			<path d="M431.81,7.9c-7.19,0-13.04,5.85-13.04,13.04s5.85,13.04,13.04,13.04c7.19,0,13.04-5.85,13.04-13.04S439,7.9,431.81,7.9z
				 M431.81,26.53c-3.08,0-5.59-2.51-5.59-5.59s2.51-5.59,5.59-5.59c3.08,0,5.59,2.51,5.59,5.59S434.89,26.53,431.81,26.53z"/>
		</g>
	</g>
	<g>
		<g>
			<path d="M431.81,41.44c-7.19,0-13.04,5.85-13.04,13.04c0,7.19,5.85,13.04,13.04,13.04c7.19,0,13.04-5.85,13.04-13.04
				C444.85,47.29,439,41.44,431.81,41.44z M431.81,60.07c-3.08,0-5.59-2.51-5.59-5.59s2.51-5.59,5.59-5.59
				c3.08,0,5.59,2.51,5.59,5.59C437.4,57.56,434.89,60.07,431.81,60.07z"/>
		</g>
	</g>
	<g>
		<g>
			<path d="M403.86,74.98c-8.22,0-14.9,6.69-14.9,14.9s6.69,14.9,14.9,14.9c8.22,0,14.9-6.69,14.9-14.9S412.08,74.98,403.86,74.98z
				 M403.86,97.33c-4.11,0-7.45-3.34-7.45-7.45s3.34-7.45,7.45-7.45c4.11,0,7.45,3.34,7.45,7.45S407.97,97.33,403.86,97.33z"/>
		</g>
	</g>
	<g>
		<g>
			<path d="M403.86,119.69c-8.22,0-14.9,6.69-14.9,14.9c0,8.22,6.69,14.9,14.9,14.9c8.22,0,14.9-6.69,14.9-14.9
				C418.77,126.38,412.08,119.69,403.86,119.69z M403.86,142.05c-4.11,0-7.45-3.34-7.45-7.45s3.34-7.45,7.45-7.45
				c4.11,0,7.45,3.34,7.45,7.45C411.32,138.71,407.97,142.05,403.86,142.05z"/>
		</g>
	</g>
	<g>
		<g>
			<rect x="262.26" y="142.05" width="29.81" height="7.45"/>
		</g>
	</g>
</g>
<g>
	<path d="M1025.54,69.62H842.13c-11.22,0.01-20.31,9.11-20.33,20.33v74.69c0.01,11.22,9.11,20.31,20.33,20.33h183.42
		c11.22-0.01,20.31-9.11,20.33-20.33V89.95C1045.86,78.73,1036.76,69.63,1025.54,69.62z M828.42,164.64V89.95
		c0.01-7.57,6.14-13.7,13.71-13.71h23.16v102.11h-23.16C834.56,178.34,828.43,172.21,828.42,164.64z M871.91,178.35V76.24h123.85
		v102.11H871.91z M1039.25,164.64c-0.01,7.57-6.14,13.7-13.71,13.71h-23.16V76.24h23.16c7.57,0.01,13.7,6.14,13.71,13.71V164.64z"/>
	<path d="M987.72,80.97H879.94c-1.83,0-3.31,1.48-3.31,3.31c0,0,0,0,0,0v86.04c0,1.83,1.48,3.31,3.31,3.31c0,0,0,0,0,0h107.78
		c1.83,0,3.31-1.48,3.31-3.31c0,0,0,0,0,0V84.28C991.03,82.45,989.55,80.97,987.72,80.97C987.73,80.97,987.73,80.97,987.72,80.97z
		 M984.42,167H883.25V87.58h101.16V167z"/>
	<path d="M976.38,148.98c1.83,0,3.31-1.48,3.31-3.31c0,0,0,0,0,0v-25.94c0-1.83-1.48-3.31-3.31-3.31c-1.83,0-3.31,1.48-3.31,3.31
		v25.94C973.07,147.5,974.55,148.98,976.38,148.98C976.38,148.98,976.38,148.98,976.38,148.98z"/>
	<path d="M1020.81,142.36c-8.09,0-14.65,6.56-14.65,14.65c0,8.09,6.56,14.65,14.65,14.65s14.65-6.56,14.65-14.65
		C1035.46,148.93,1028.9,142.37,1020.81,142.36z M1020.81,165.05c-4.44,0-8.04-3.6-8.04-8.04c0-4.44,3.6-8.04,8.04-8.04
		c4.44,0,8.04,3.6,8.04,8.04C1028.85,161.45,1025.25,165.05,1020.81,165.05z"/>
	<path d="M1027.79,82.92c-4.96,0-8.98,4.02-8.98,8.98s4.02,8.98,8.98,8.98s8.98-4.02,8.98-8.98
		C1036.76,86.94,1032.74,82.92,1027.79,82.92z M1027.79,94.26c-1.31,0-2.36-1.06-2.36-2.36s1.06-2.36,2.36-2.36
		c1.31,0,2.36,1.06,2.36,2.36C1030.15,93.2,1029.09,94.26,1027.79,94.26z"/>
	<path d="M1013.84,114.82c4.96,0,8.98-4.02,8.98-8.98s-4.02-8.98-8.98-8.98c-4.96,0-8.98,4.02-8.98,8.98
		C1004.86,110.8,1008.88,114.82,1013.84,114.82z M1013.84,103.48c1.31,0,2.36,1.06,2.36,2.36s-1.06,2.36-2.36,2.36
		c-1.31,0-2.36-1.06-2.36-2.36C1011.48,104.54,1012.54,103.48,1013.84,103.48z"/>
	<path d="M846.85,112.22c8.09,0,14.65-6.56,14.65-14.65s-6.56-14.65-14.65-14.65s-14.65,6.56-14.65,14.65
		C832.21,105.66,838.76,112.22,846.85,112.22z M846.85,89.53c4.44,0,8.04,3.6,8.04,8.04c0,4.44-3.6,8.04-8.04,8.04
		s-8.04-3.6-8.04-8.04l0,0C838.82,93.13,842.42,89.54,846.85,89.53z"/>
	<path d="M839.88,153.71c-4.96,0-8.98,4.02-8.98,8.98s4.02,8.98,8.98,8.98s8.98-4.02,8.98-8.98
		C848.86,157.73,844.84,153.71,839.88,153.71z M839.88,165.05c-1.31,0-2.36-1.06-2.36-2.36s1.06-2.36,2.36-2.36
		c1.31,0,2.36,1.06,2.36,2.36C842.24,163.99,841.18,165.05,839.88,165.05z"/>
	<path d="M853.83,139.76c-4.96,0-8.98,4.02-8.98,8.98c0,4.96,4.02,8.98,8.98,8.98s8.98-4.02,8.98-8.98
		C862.8,143.79,858.78,139.77,853.83,139.76z M853.83,151.11c-1.31,0-2.36-1.06-2.36-2.36c0-1.31,1.06-2.36,2.36-2.36
		c1.31,0,2.36,1.06,2.36,2.36C856.19,150.05,855.13,151.1,853.83,151.11z"/>
</g>
<g id="game_controller-video_game_controller-controller-monitor-hands">
	<path d="M216.6,301.64H0c-2.06,0-3.73,1.67-3.73,3.73v171.79c0,2.06,1.67,3.73,3.73,3.73h44.14l4.41,15.46v25.62
		c0,2.06,1.67,3.73,3.73,3.73h29.88c2.06,0,3.73-1.67,3.73-3.73v-22.82c7.32-1.5,13.05-7.21,14.56-14.53h15.68
		c0.73,3.6,2.51,6.9,5.12,9.49c2.59,2.57,5.87,4.33,9.45,5.08v22.78c0,2.06,1.67,3.73,3.73,3.73h29.88c2.06,0,3.73-1.67,3.73-3.73
		v-25.62l4.41-15.46h44.14c2.06,0,3.73-1.67,3.73-3.73V305.37C220.34,303.31,218.66,301.64,216.6,301.64L216.6,301.64z
		 M74.88,485.83l3.55,10.61v21.81H56.02v-22.41c0.01-0.34-0.04-0.68-0.15-1.01l-6.12-21.47c-0.4-1.43,0.07-2.96,1.2-3.92
		l12.55-10.46v15.72c-0.01,1.51,0.91,2.87,2.32,3.44c1.39,0.58,3,0.28,4.07-0.78l8.96-9c1.42-1.46,3.76-1.5,5.23-0.07
		c0.03,0.02,0.05,0.05,0.07,0.07c0.71,0.68,1.1,1.63,1.08,2.61c0.02,0.99-0.37,1.95-1.08,2.65l-8.37,8.37
		C74.77,482.99,74.42,484.48,74.88,485.83L74.88,485.83z M131.86,491.8c-2.01-0.48-3.86-1.5-5.34-2.95
		c-2.11-2.11-3.29-4.97-3.29-7.95c0-2.06-1.67-3.73-3.73-3.73H97.1c-2.06,0-3.73,1.67-3.73,3.73c-0.02,5.19-3.58,9.7-8.63,10.9
		l-2.05-6.16l6.76-6.72c4.38-4.38,4.38-11.49,0-15.87c-4.38-4.38-11.49-4.38-15.87,0l-2.61,2.65v-14.68
		c0.02-6.18,5.02-11.19,11.2-11.2h52.28c6.18,0.02,11.19,5.02,11.2,11.2v14.68l-2.65-2.65c-4.38-4.37-11.48-4.36-15.85,0.02
		c-4.37,4.38-4.36,11.48,0.02,15.85l6.76,6.72L131.86,491.8z M166.86,473.35l-6.12,21.47c-0.11,0.33-0.16,0.67-0.15,1.01v22.41
		h-22.41v-21.81l3.55-10.61c0.45-1.35,0.11-2.84-0.9-3.85l-8.37-8.37c-0.71-0.7-1.1-1.66-1.08-2.65c-0.02-0.98,0.38-1.93,1.08-2.61
		c1.42-1.45,3.76-1.48,5.21-0.05c0.02,0.02,0.04,0.04,0.05,0.05l9,9c1.07,1.06,2.68,1.37,4.07,0.78c1.4-0.56,2.32-1.92,2.32-3.44
		v-15.68l12.55,10.46C166.79,470.41,167.26,471.94,166.86,473.35L166.86,473.35z M212.87,473.43H174.4
		c0.38-3.69-1.11-7.33-3.96-9.71l-17.51-14.6c-0.95-9.5-8.94-16.74-18.49-16.77H82.16c-9.55,0.03-17.53,7.27-18.49,16.77
		l-17.51,14.6c-2.85,2.38-4.34,6.02-3.96,9.71H3.73V309.11h209.13V473.43z"/>
	<path d="M104.57,338.99h7.47v7.47h-7.47V338.99z"/>
	<path d="M141.5,370.92l-14.53-29.09v-6.57c-0.01-3.52-1.67-6.84-4.48-8.96l-11.95-8.96c-1.32-1.01-3.16-1.01-4.48,0l-11.95,8.96
		c-2.82,2.12-4.47,5.44-4.48,8.96v6.57L75.1,370.92c-0.93,1.84-0.19,4.09,1.65,5.02c0.52,0.26,1.09,0.4,1.67,0.4H97.1v7.47
		c0,0.73,0.22,1.45,0.63,2.05l7.47,11.2c1.11,1.71,3.4,2.2,5.11,1.08c0.43-0.28,0.8-0.65,1.08-1.08l7.47-11.2
		c0.42-0.6,0.64-1.32,0.63-2.05v-7.47h18.67c2.06-0.01,3.73-1.68,3.72-3.75C141.9,372,141.76,371.43,141.5,370.92L141.5,370.92z
		 M89.63,368.86h-5.15l5.15-10.31V368.86z M112.03,382.68l-3.73,5.6l-3.73-5.6v-6.35h7.47V382.68z M119.5,368.86h-7.47v-11.2h-7.47
		v11.2H97.1v-33.61c0.01-1.17,0.56-2.28,1.49-2.99l9.71-7.28l9.71,7.28c0.93,0.71,1.49,1.81,1.49,2.99V368.86z M126.97,368.86
		v-10.31l5.15,10.31H126.97z"/>
	<path d="M78.01,400.79L63.49,371.7v-6.57c-0.01-3.52-1.67-6.84-4.48-8.96l-11.95-8.96c-1.32-1.01-3.16-1.01-4.48,0l-11.95,8.96
		c-2.82,2.12-4.47,5.44-4.48,8.96v6.57l-14.53,29.09c-0.93,1.84-0.19,4.09,1.65,5.02c0.52,0.26,1.09,0.4,1.67,0.4h18.67v7.47
		c0,0.73,0.22,1.45,0.63,2.05l7.47,11.2c1.11,1.71,3.4,2.2,5.11,1.08c0.43-0.28,0.8-0.65,1.08-1.08l7.47-11.2
		c0.42-0.6,0.64-1.32,0.63-2.05v-7.47h18.67c2.06-0.01,3.73-1.68,3.72-3.75C78.41,401.88,78.27,401.31,78.01,400.79z M26.14,398.74
		h-5.15l5.15-10.31V398.74z M48.55,412.55l-3.73,5.6l-3.73-5.6v-6.35h7.47V412.55z M56.02,398.74h-7.47v-11.2h-7.47v11.2h-7.47
		v-33.61c0.01-1.17,0.56-2.28,1.49-2.99l9.71-7.28l9.71,7.28c0.93,0.71,1.49,1.81,1.49,2.99V398.74z M63.49,398.74v-10.31
		l5.15,10.31H63.49z"/>
	<path d="M41.08,368.86h7.47v7.47h-7.47V368.86z"/>
	<path d="M168.05,368.86h7.47v7.47h-7.47V368.86z"/>
	<path d="M204.99,400.79l-14.53-29.09v-6.57c-0.01-3.52-1.67-6.84-4.48-8.96l-11.95-8.96c-1.32-1.01-3.16-1.01-4.48,0l-11.95,8.96
		c-2.82,2.12-4.47,5.44-4.48,8.96v6.57l-14.53,29.09c-0.93,1.84-0.19,4.09,1.65,5.02c0.52,0.26,1.09,0.4,1.67,0.4h18.67v7.47
		c0,0.73,0.22,1.45,0.63,2.05l7.47,11.2c1.11,1.71,3.4,2.2,5.11,1.08c0.43-0.28,0.8-0.65,1.08-1.08l7.47-11.2
		c0.42-0.6,0.64-1.32,0.63-2.05v-7.47h18.67c2.06-0.01,3.73-1.68,3.72-3.75C205.38,401.88,205.25,401.31,204.99,400.79
		L204.99,400.79z M153.11,398.74h-5.15l5.15-10.31V398.74z M175.52,412.55l-3.73,5.6l-3.73-5.6v-6.35h7.47V412.55z M182.99,398.74
		h-7.47v-11.2h-7.47v11.2h-7.47v-33.61c0.01-1.17,0.56-2.28,1.49-2.99l9.71-7.28l9.71,7.28c0.93,0.71,1.49,1.81,1.49,2.99V398.74z
		 M190.46,398.74v-10.31l5.15,10.31H190.46z"/>
	<path d="M104.57,406.21h7.47v7.47h-7.47V406.21z"/>
	<path d="M18.67,413.68h7.47v7.47h-7.47V413.68z"/>
	<path d="M63.49,413.68h7.47v7.47h-7.47V413.68z"/>
	<path d="M82.16,383.8h7.47v7.47h-7.47V383.8z"/>
	<path d="M126.97,383.8h7.47v7.47h-7.47V383.8z"/>
	<path d="M145.65,413.68h7.47v7.47h-7.47V413.68z"/>
	<path d="M190.46,413.68h7.47v7.47h-7.47V413.68z"/>
	<path d="M41.08,436.08h7.47v7.47h-7.47V436.08z"/>
	<path d="M168.05,436.08h7.47v7.47h-7.47V436.08z"/>
	<path d="M168.05,316.58h7.47v7.47h-7.47V316.58z"/>
	<path d="M182.99,316.58h7.47v7.47h-7.47V316.58z"/>
	<path d="M197.93,316.58h7.47v7.47h-7.47V316.58z"/>
	<path d="M18.67,324.05h11.2v-7.47H14.94c-2.06,0-3.73,1.67-3.73,3.73v14.94h7.47V324.05z"/>
	<path d="M11.2,342.72h7.47v7.47H11.2V342.72z"/>
</g>
<g>
	<path d="M582.27,294.17c-61.77,0-112.03,50.26-112.03,112.03s50.26,112.03,112.03,112.03S694.3,467.98,694.3,406.21
		S644.04,294.17,582.27,294.17z M582.27,509.62c-57.02,0-103.42-46.4-103.42-103.42s46.4-103.42,103.42-103.42
		c57.02,0,103.42,46.4,103.42,103.42S639.29,509.62,582.27,509.62z"/>
	<path d="M636.13,401.9h-49.55v-47.4c0-2.38-1.93-4.31-4.31-4.31c-2.38,0-4.31,1.93-4.31,4.31v47.4H528.4
		c-2.38,0-4.31,1.93-4.31,4.31c0,2.38,1.93,4.31,4.31,4.31h49.55v51.71c0,2.38,1.93,4.31,4.31,4.31c2.38,0,4.31-1.93,4.31-4.31
		v-51.71h49.55c2.38,0,4.31-1.93,4.31-4.31C640.44,403.82,638.51,401.9,636.13,401.9z"/>
</g>
<g>
	<path d="M370.95,339.46h-60.87c-4.46,0-8.08,3.62-8.08,8.08v55.2c0,4.46,3.62,8.08,8.08,8.08h60.87c4.46,0,8.08-3.62,8.08-8.08
		c0-6.28,0-48.36,0-55.2C379.03,343.09,375.41,339.46,370.95,339.46z M331.14,405.02h-7.16v-7.16h7.16V405.02z M344.1,405.02h-7.16
		v-7.16h7.16V405.02z M344.1,392.07h-7.16v-7.16h7.16V392.07z M357.05,405.02h-7.16v-7.16h7.16V405.02z M370.95,405.02h-8.1v-7.91
		c0.8,0.48,1.72,0.76,2.72,0.76h7.66v4.88h0C373.23,404,372.21,405.02,370.95,405.02z M373.23,392.07h-7.16v-7.16h7.16V392.07z
		 M373.23,379.11h-7.16v-7.16h7.16V379.11z M373.23,366.16h-7.16V359h7.16V366.16z M373.23,347.54v5.66h-7.66
		c-2.92,0-5.29,2.38-5.29,5.29v34.08c0,0.02,0,0.04,0,0.06c-0.68-0.36-1.45-0.57-2.27-0.57h-8.11v-8.11c0-2.67-2.17-4.84-4.84-4.84
		h-9.07c-2.67,0-4.84,2.17-4.84,4.84v8.11h-8.11c-2.67,0-4.84,2.17-4.84,4.84v8.11h-8.1c-1.26,0-2.28-1.02-2.28-2.28v-55.2
		c0-1.26,1.02-2.28,2.28-2.28h60.87C372.21,345.26,373.23,346.28,373.23,347.54L373.23,347.54z"/>
	<path d="M327.56,350.42h-11.58c-1.6,0-2.9,1.3-2.9,2.9s1.3,2.9,2.9,2.9h11.58c1.6,0,2.9-1.3,2.9-2.9
		C330.46,351.72,329.16,350.42,327.56,350.42z"/>
	<path d="M366.05,494.95c8.04,0,14.58-6.54,14.58-14.58c0-8.04-6.54-14.58-14.58-14.58s-14.58,6.54-14.58,14.58
		S358.01,494.95,366.05,494.95z M366.05,471.6c4.84,0,8.78,3.94,8.78,8.78s-3.94,8.78-8.78,8.78c-4.84,0-8.78-3.94-8.78-8.78
		C357.27,475.54,361.21,471.6,366.05,471.6z"/>
	<path d="M392.26,418.73l0-82.61c0-5.61-4.56-10.18-10.18-10.18h-83.13c-5.61,0-10.18,4.56-10.18,10.18v82.6
		c-2.7,0.89-4.65,3.44-4.65,6.43v15.74c0,2.99,1.95,5.54,4.65,6.43v66.44c0,5.61,4.56,10.18,10.18,10.18h34.8
		c0.08,0,0.15-0.02,0.23-0.02h13.08c0.08,0.01,0.15,0.02,0.23,0.02h34.8c5.61,0,10.18-4.56,10.18-10.18v-66.44
		c2.7-0.89,4.65-3.44,4.65-6.43v-15.74C396.91,422.16,394.96,419.62,392.26,418.73z M294.58,336.12c0-2.41,1.96-4.37,4.37-4.37
		h83.13c2.41,0,4.37,1.96,4.37,4.37v36.16c0,0,0,0,0,0.01v13.52c0,0,0,0,0,0v32.57h-91.88V336.12z M386.46,513.76
		c0,2.41-1.96,4.37-4.37,4.37h-83.13c-2.41,0-4.37-1.96-4.37-4.37v-66.09h91.88V513.76z M391.11,440.89c0,0.54-0.44,0.97-0.97,0.97
		c-2.63,0-96.62,0-99.24,0c-0.54,0-0.97-0.44-0.97-0.97v-15.74c0-0.54,0.44-0.97,0.97-0.97h99.24c0.54,0,0.97,0.44,0.97,0.97V440.89
		z"/>
	<path d="M379.46,430.12H365.9c-1.6,0-2.9,1.3-2.9,2.9s1.3,2.9,2.9,2.9h13.56c1.6,0,2.9-1.3,2.9-2.9S381.06,430.12,379.46,430.12z"
		/>
	<path d="M306.41,489.07h3.54c1.67,0,3.24-0.48,4.56-1.3c-0.82,1.33-1.3,2.89-1.3,4.56v3.54c0,3.31,2.69,6,6,6h5.39
		c3.31,0,6-2.69,6-6v-3.54c0-1.67-0.48-3.24-1.3-4.56c1.33,0.82,2.89,1.3,4.56,1.3h3.54c3.31,0,6-2.69,6-6v-5.39c0-3.31-2.69-6-6-6
		h-3.54c-1.67,0-3.24,0.48-4.56,1.3c0.82-1.33,1.3-2.89,1.3-4.56v-3.54c0-3.31-2.69-6-6-6h-5.39c-3.31,0-6,2.69-6,6v3.54
		c0,1.67,0.48,3.24,1.3,4.56c-1.33-0.82-2.89-1.3-4.56-1.3h-3.54c-3.31,0-6,2.69-6,6v5.39C300.41,486.38,303.1,489.07,306.41,489.07
		z M333.87,477.48h3.54c0.11,0,0.2,0.09,0.2,0.2v5.39c0,0.11-0.09,0.2-0.2,0.2h-3.54c-1.6,0-2.9-1.3-2.9-2.9
		C330.98,478.78,332.28,477.48,333.87,477.48z M324.61,496.08h-5.39c-0.11,0-0.2-0.09-0.2-0.2v-3.54c0-1.6,1.3-2.9,2.9-2.9
		s2.9,1.3,2.9,2.9v3.54h0C324.81,495.99,324.72,496.08,324.61,496.08z M319.22,464.67h5.39c0.11,0,0.2,0.09,0.2,0.2v3.54
		c0,1.6-1.3,2.9-2.9,2.9c-1.6,0-2.9-1.3-2.9-2.9v-3.54h0C319.02,464.76,319.11,464.67,319.22,464.67z M317.35,475.81
		c1.33,0.82,2.89,1.3,4.56,1.3c1.67,0,3.24-0.48,4.56-1.3c-0.82,1.33-1.3,2.89-1.3,4.56c0,1.67,0.48,3.24,1.3,4.56
		c-1.33-0.82-2.89-1.3-4.56-1.3c-1.67,0-3.24,0.48-4.56,1.3c0.82-1.33,1.3-2.89,1.3-4.56S318.17,477.14,317.35,475.81z
		 M306.21,477.68c0-0.11,0.09-0.2,0.2-0.2h3.54c1.6,0,2.9,1.3,2.9,2.9c0,1.6-1.3,2.9-2.9,2.9h-3.54c-0.11,0-0.2-0.09-0.2-0.2V477.68
		z"/>
</g>
<g>
	<g>
		<g>
			<circle cx="642.83" cy="55.56" r="3.39"/>
		</g>
	</g>
	<g>
		<g>
			<g>
				<circle cx="627.86" cy="168.84" r="3.39"/>
			</g>
		</g>
		<g>
			<g>
				<path d="M685.8,158.23c-5.85,0-10.61,4.76-10.61,10.61s4.76,10.61,10.61,10.61c5.85,0,10.61-4.76,10.61-10.61
					S691.65,158.23,685.8,158.23z M685.8,172.68c-2.12,0-3.84-1.72-3.84-3.84s1.72-3.84,3.84-3.84c2.12,0,3.84,1.72,3.84,3.84
					S687.92,172.68,685.8,172.68z"/>
			</g>
		</g>
		<g>
			<g>
				<path d="M570.81,51.25c-6.32,0-11.46,5.14-11.46,11.46s5.14,11.45,11.46,11.45s11.45-5.14,11.45-11.45
					C582.27,56.39,577.13,51.25,570.81,51.25z M570.81,67.39c-2.58,0-4.68-2.1-4.68-4.68s2.1-4.68,4.68-4.68s4.68,2.1,4.68,4.68
					C575.49,65.29,573.39,67.39,570.81,67.39z"/>
			</g>
		</g>
		<g>
			<g>
				<path d="M626.52,73.55c-6.32,0-11.46,5.14-11.46,11.46s5.14,11.45,11.46,11.45s11.45-5.14,11.45-11.45
					C637.97,78.69,632.84,73.55,626.52,73.55z M626.52,89.69c-2.58,0-4.68-2.1-4.68-4.68c0-2.58,2.1-4.68,4.68-4.68
					s4.68,2.1,4.68,4.68C631.2,87.59,629.1,89.69,626.52,89.69z"/>
			</g>
		</g>
		<g>
			<g>
				<circle cx="642.83" cy="73.55" r="3.39"/>
			</g>
		</g>
		<g>
			<g>
				<circle cx="633.16" cy="64.7" r="3.39"/>
			</g>
		</g>
		<g>
			<g>
				<circle cx="652.5" cy="64.7" r="3.39"/>
			</g>
		</g>
		<g>
			<g>
				<path d="M596.74,81.62h-4.68v-4.68c0-1.87-1.52-3.39-3.39-3.39s-3.39,1.52-3.39,3.39v4.68h-4.68c-1.87,0-3.39,1.52-3.39,3.39
					s1.52,3.39,3.39,3.39h4.68v4.68c0,1.87,1.52,3.39,3.39,3.39s3.39-1.52,3.39-3.39v-4.68h4.68c1.87,0,3.39-1.52,3.39-3.39
					S598.61,81.62,596.74,81.62z"/>
			</g>
		</g>
		<path d="M710.24,133.37h-38.1c6.63-7.39,9.39-17.79,6.83-27.78c-3.19-12.45-6.01-24.99-9.35-37.4c-2.4-8.93-6.4-18.01-14.52-23.12
			c-1.56-0.98-3.23-1.8-4.97-2.44l-9.3-3.48c-4.16-1.56-8.82-0.79-12.26,1.91h-45.03c-3.44-2.7-8.1-3.47-12.26-1.91l-9.3,3.48
			c-8.8,3.29-15.45,10.69-17.78,19.79l-11.06,43.18c-2.56,9.99,0.2,20.39,6.83,27.78h-38.1c-4.33,0-7.85,3.52-7.85,7.85v21.52v12.19
			v21.52c0,4.33,3.52,7.85,7.85,7.85h13.75v2.25c0,1.87,1.52,3.39,3.39,3.39c1.87,0,3.39-1.52,3.39-3.39v-2.25h167.32v2.25
			c0,1.87,1.52,3.39,3.39,3.39s3.39-1.52,3.39-3.39v-2.25h13.75c4.33,0,7.85-3.52,7.85-7.85v-55.24
			C718.09,136.89,714.57,133.37,710.24,133.37z M621.66,47.84l-3.49,3.49c-1.06,1.06-2.48,1.65-3.99,1.65h-8.13h-8.13
			c-1.51,0-2.92-0.59-3.98-1.65l-3.49-3.49H621.66z M539.69,107.28l11.06-43.18c1.78-6.96,6.86-12.61,13.59-15.13l9.3-3.48
			c2.15-0.81,4.6-0.28,6.23,1.35c0,0,0,0,0,0l9.27,9.27c2.34,2.34,5.46,3.63,8.77,3.63h8.13h8.13c3.31,0,6.43-1.29,8.78-3.63
			l9.27-9.27c1.63-1.63,4.07-2.16,6.23-1.35l9.3,3.48c4.49,1.68,8.22,4.73,10.76,8.7c0.45,1.25,3.89,11.03,6.86,22.17l7.03,27.43
			c2.52,9.82-1.59,20.15-10.01,25.6l-18.05-22.61c-3.54-4.44-8.83-6.98-14.51-6.98h-23.78h-23.78c-5.68,0-10.97,2.55-14.51,6.98
			l-18.05,22.61C541.28,127.42,537.18,117.09,539.69,107.28z M654.13,133.37h-63.28h-10.24h-14.78h-2.23h-5.61l15.07-18.88
			c2.25-2.82,5.61-4.44,9.22-4.44h23.78h23.78c3.61,0,6.97,1.62,9.22,4.44L654.13,133.37z M710.24,197.53H501.87
			c-0.59,0-1.07-0.48-1.07-1.07v-21.52v-8.81H608.5v5.42h-96.57c-1.87,0-3.39,1.52-3.39,3.39c0,1.87,1.52,3.39,3.39,3.39H609
			c3.46,0,6.28-2.82,6.28-6.28v-6.41c0-3.46-2.82-6.28-6.28-6.28h-108.2v-18.14c0-0.59,0.48-1.07,1.07-1.07h48.12
			c0.03,0,0.07,0.01,0.1,0.01c0.04,0,0.08-0.01,0.12-0.01h13.39h2.23h14.78h10.24h71.05c0.04,0,0.08,0.01,0.12,0.01
			c0.03,0,0.07-0.01,0.1-0.01h48.12c0.59,0,1.07,0.48,1.07,1.07v55.24h0C711.31,197.05,710.83,197.53,710.24,197.53z"/>
	</g>
</g>
</svg>
