<svg width="373" height="202" viewBox="0 0 373 202" fill="none" xmlns="http://www.w3.org/2000/svg">
<path d="M57.7243 13.8192L57.7072 13.9418L57.7178 14.1487C57.4422 21.8777 57.3232 29.9607 57.9316 37.8558C58.8837 52.9079 62.3454 67.4508 72.0434 78.5459L72.0837 78.552C72.3263 78.8761 72.5763 79.1593 72.8645 79.448C72.2166 79.0667 71.6093 78.6909 70.9551 78.3505C66.09 75.6707 61.155 74.0584 55.3476 76.2453C53.9465 76.79 52.7561 77.6125 51.8998 78.6882C49.2925 81.6213 48.8126 86.1394 50.8497 89.8187C52.3658 92.5148 54.8476 94.5219 57.3583 96.3248C61.4902 99.228 65.8752 101.796 70.457 103.855L70.3306 103.877L70.29 103.871C68.0805 104.878 65.5571 105.181 63.1624 105.747C59.8369 106.472 56.2273 107.444 54.3699 110.32L54.1455 110.742C52.6528 113.378 53.1923 116.845 54.8062 119.429C56.5307 122.115 59.2328 124.029 61.9698 125.699C66.5062 128.37 71.5678 129.672 76.138 132.101C79.4763 133.899 84.4985 138.087 88.5473 137.796C87.5868 137.867 86.6677 137.94 85.7017 138.052L85.6198 138.042C82.5314 138.262 79.39 138.556 76.2954 138.818C72.2283 139.229 67.7688 142.974 69.4358 146.639C69.5924 146.993 69.8296 147.358 70.0785 147.642C71.4263 149.197 73.8221 149.785 75.9104 150.207C86.3295 152.19 96.8984 153.987 106.404 158.608C115.018 162.81 122.338 169.146 128.627 176.322C131.433 179.533 134.61 182.466 137.416 185.676C139.581 188.174 140.571 190.217 144.052 191.292L144.251 191.36L144.289 191.366C144.73 191.469 145.095 191.522 145.523 191.418L146.059 191.124C147.004 190.307 146.539 188.341 145.945 187.017C144.711 184.362 143.785 181.584 143.2 178.732L143.206 178.692C141.846 172.589 141.81 166.18 142.411 159.944C143.266 150.769 145.336 141.768 146.27 132.604C146.651 129.064 146.643 125.055 144.105 122.585C143.304 121.808 142.304 121.294 141.223 121.057C139.677 120.588 137.966 120.716 136.443 121.245C133.916 122.162 131.886 124.23 130.516 126.596C130.649 126.242 130.787 125.85 130.88 125.49L130.892 125.409C132.523 120.643 134.072 115.863 135.662 111.092C137.177 106.555 138.704 101.939 139.055 97.1536C139.36 92.6954 138.566 85.2252 134.459 82.45L133.88 82.1614L133.845 82.115C131.681 81.0638 128.876 81.9026 126.887 83.395C124.77 84.9119 123.196 86.9599 121.154 88.5259L121.109 88.5612L120.825 88.809C124.335 79.5604 124.268 69.0128 120.709 59.7859C119.974 57.9885 119.112 56.2129 117.59 55.0037L117.515 54.952C114.83 52.9149 110.869 53.4677 108.039 55.336C105.297 57.177 103.407 60.0039 101.642 62.8117L101.481 63.0786C102.869 60.8781 98.6038 52.2531 97.5793 50.167C95.5357 45.9485 92.8518 42.1766 89.5646 38.8568C84.7625 34.001 80.0698 29.2405 74.6827 25.0002C73.272 23.8891 62.9329 17.8704 59.1136 15.0925C58.252 14.4743 57.7009 13.9826 57.7243 13.8192Z" fill="#007537"/>
<path d="M57.5625 19.4157C57.5987 17.5774 57.6497 15.7527 57.7071 13.9417L57.7177 14.1487C57.6562 15.8889 57.6017 17.6455 57.5625 19.4157Z" fill="#13114C"/>
<path d="M82.9326 92.3997C81.1774 90.2864 79.2081 88.3501 77.0561 86.6425C75.5264 85.4769 73.9008 84.393 71.9966 84.1261L71.9062 84.1179C71.672 84.0908 71.4402 84.077 71.2082 84.077C68.1645 84.077 65.3859 86.3974 64.0157 89.1997C63.8243 89.5973 63.6551 90.0031 63.5051 90.4144C61.3795 89.227 59.3029 87.9661 57.4254 86.4301C55.5798 84.8859 53.9008 83.034 52.7616 80.8879C52.3967 80.2561 52.1829 79.4418 51.9157 78.7011C49.5755 81.3346 48.9499 85.2427 50.3168 88.6741C50.3127 88.6721 50.3084 88.668 50.3031 88.666C49.8211 87.4568 49.5861 86.1904 49.5861 84.9431C49.585 82.6391 50.3818 80.395 51.8999 78.6875C52.7561 77.6117 53.9465 76.7893 55.3477 76.2446C57.2412 75.5311 59.0422 75.2233 60.7784 75.2233C64.3667 75.2233 67.6762 76.5442 70.9551 78.3498C71.6093 78.6902 72.2166 79.066 72.8645 79.4473C72.5763 79.1586 72.3263 78.8754 72.0837 78.5513C73.9007 79.4283 75.855 79.9157 77.6732 80.7926C79.6378 81.724 81.356 83.0477 82.9325 84.5482L82.9326 92.3997ZM82.9325 76.0049C81.0401 72.263 78.7102 68.7008 76.2453 65.3021C71.0262 58.1532 65.0838 51.4373 60.7784 43.6756C59.7252 41.7883 58.7658 39.8357 57.9316 37.8557C57.4722 31.7254 57.4403 25.5107 57.5626 19.4157C57.6018 17.6455 57.6563 15.8889 57.7178 14.1487C57.7486 14.1869 57.7807 14.2222 57.8126 14.2576L57.9093 14.549C59.0849 18.1874 60.4796 21.7333 62.0082 25.2165C65.202 32.3654 69.1487 39.1684 73.7901 45.4485C76.8997 49.6371 80.305 53.6649 82.9325 58.1476V76.0049Z" fill="#00622A"/>
<path d="M62.304 99.053C62.304 99.051 62.304 99.0469 62.304 99.0469C62.2911 96.4597 54.4094 91.2934 52.4998 90.0325C51.7827 89.5559 51.0561 89.1038 50.3167 88.6735C48.9499 85.2421 49.5754 81.334 51.9156 78.7005C52.1828 79.4412 52.3966 80.2556 52.7615 80.8874C53.9007 83.0334 55.5797 84.8853 57.4253 86.4295C59.3028 87.9655 61.3794 89.2264 63.505 90.4137C62.5485 93.05 62.3922 95.9477 62.3083 98.7828L62.304 99.053Z" fill="#004719"/>
<path d="M82.9325 84.5482C81.3559 83.0476 79.6377 81.724 77.6731 80.7926C75.8549 79.9157 73.9006 79.4283 72.0836 78.5513L72.0433 78.5451C62.3453 67.4501 58.8836 52.9072 57.9315 37.855C58.7657 39.835 59.7251 41.7876 60.7783 43.6749C65.0837 51.4366 71.0261 58.1525 76.2452 65.3014C78.7101 68.7001 81.04 72.2623 82.9325 76.0042V84.5482Z" fill="#004719"/>
<path d="M82.9325 35.4293C76.9209 29.013 70.156 23.2694 62.8571 18.3945C61.4921 17.4713 59.2688 15.9135 57.8126 14.2577L57.7072 13.9418L57.7243 13.8192C57.7232 13.8253 57.7232 13.8274 57.7232 13.8335C57.7263 14.0051 58.2709 14.4898 59.1124 15.0917C62.9317 17.8695 73.2708 23.8882 74.6815 24.9994C77.5922 27.2897 80.3006 29.7326 82.9325 32.2599V35.4293Z" fill="#00954D"/>
<path d="M57.8126 14.2577C57.7807 14.2224 57.7486 14.1868 57.7178 14.1488L57.7072 13.9419L57.8126 14.2577Z" fill="#008641"/>
<path d="M0.275635 79.0198L0.321387 79.1315L0.435216 79.3031C4.07666 86.0353 8.02774 92.9881 12.5074 99.418C20.868 111.782 31.1158 122.45 44.9509 127.049L44.9893 127.033C45.3583 127.188 45.7126 127.305 46.1042 127.406C45.3605 127.406 44.654 127.39 43.9255 127.428C38.4319 127.583 33.4138 128.684 29.5564 133.463C28.6351 134.629 28.0297 135.928 27.8404 137.273C27.0863 141.086 28.9447 145.179 32.5265 147.295C35.1712 148.834 38.2957 149.302 41.3424 149.58C46.3221 149.986 51.3508 149.978 56.2913 149.436L56.1955 149.517L56.1573 149.534C54.7774 151.5 52.7773 153.022 51.0188 154.709C48.5444 156.993 45.9542 159.632 45.8115 163.017L45.8319 163.491C45.8817 166.49 48.0795 169.175 50.753 170.572C53.5701 171.996 56.8349 172.275 60.0071 172.326C65.2167 172.332 70.1869 170.901 75.3038 170.681C76.2921 170.643 77.4635 170.689 78.7146 170.735C82.206 170.863 86.309 170.994 88.7454 169.316C87.9613 169.855 87.2156 170.381 86.4463 170.962L86.372 170.992C83.8463 172.729 81.3157 174.556 78.8072 176.332C75.5443 178.72 73.6178 184.151 76.8785 186.444C77.189 186.667 77.574 186.858 77.9284 186.974C79.8592 187.626 82.1975 186.929 84.191 186.239C94.0718 182.704 103.99 178.938 114.415 178.111C123.872 177.378 133.291 179.109 142.257 182.078C146.261 183.408 150.441 184.317 154.445 185.646C157.544 186.691 159.412 187.939 162.923 187.108L163.124 187.07L163.162 187.054C163.59 186.923 163.925 186.784 164.238 186.478L164.549 185.958C164.946 184.79 163.563 183.344 162.392 182.513C160.009 180.866 157.824 178.962 155.896 176.824L155.88 176.786C151.659 172.262 148.412 166.814 145.798 161.192C141.926 152.938 139.176 144.22 135.378 135.936C133.928 132.725 131.912 129.307 128.507 128.476C127.436 128.215 126.324 128.277 125.284 128.618C123.73 128.994 122.334 129.96 121.3 131.172C119.606 133.226 118.909 136.006 118.927 138.711C118.863 138.343 118.785 137.94 118.683 137.586L118.653 137.512C117.653 132.627 116.578 127.773 115.54 122.904C114.558 118.277 113.545 113.574 111.445 109.314C109.469 105.357 105.046 99.3849 100.15 99.0772L99.5113 99.1207L99.4582 99.0989C97.0847 99.2868 95.1125 101.408 94.1644 103.68C93.1187 106.035 92.8038 108.571 91.8485 110.932L91.8262 110.987L91.7102 111.341C90.0647 101.689 84.719 92.7262 77.0562 86.6422C75.5265 85.4765 73.9009 84.3926 71.9967 84.1258L71.9063 84.1176C68.5946 83.7281 65.4903 86.1847 64.0158 89.1994C62.5988 92.1434 62.4052 95.504 62.3085 98.783L62.303 99.0908C62.385 96.5199 54.4213 91.3019 52.4999 90.0328C48.6425 87.4619 44.4605 85.5909 39.9914 84.4089C33.4585 82.6714 27.0692 80.9639 20.3479 80.0515C18.5872 79.8119 6.74811 79.861 2.09929 79.4088C1.05351 79.3134 0.337456 79.1696 0.275635 79.0198Z" fill="#009245"/>
<path d="M48.2341 149.869C45.9426 149.869 43.6468 149.771 41.3627 149.585C40.382 149.493 39.3915 149.384 38.4127 149.226C39.3852 149.384 40.3681 149.49 41.3425 149.58C43.6266 149.768 45.9214 149.866 48.2128 149.866C50.9169 149.866 53.6168 149.727 56.2915 149.436L56.2849 149.442C53.619 149.733 50.9286 149.869 48.2341 149.869Z" fill="#0D0F3F"/>
<path d="M60.0506 172.329C60.0433 172.329 60.0359 172.329 60.0283 172.329C58.3529 172.301 56.6507 172.212 55.0028 171.922C56.6445 172.208 58.3379 172.299 60.007 172.325C60.0158 172.325 60.0242 172.325 60.0316 172.325C65.2327 172.325 70.1952 170.901 75.3038 170.681C75.5559 170.67 75.8209 170.666 76.0963 170.666C76.8964 170.666 77.7837 170.699 78.7145 170.734C79.6465 170.77 80.622 170.802 81.5986 170.802C84.2781 170.802 86.959 170.544 88.7453 169.315C88.6421 169.386 88.5389 169.457 88.4356 169.528C86.6592 170.577 84.139 170.806 81.6187 170.806C80.6432 170.806 79.6677 170.773 78.7358 170.738C77.806 170.705 76.9187 170.67 76.1186 170.67C75.8432 170.67 75.5772 170.676 75.3242 170.684C70.2146 170.904 65.2517 172.329 60.0506 172.329Z" fill="#0D0F3F"/>
<path d="M79.6572 187.239C79.3336 187.239 79.0155 187.215 78.7051 187.166C79.0093 187.212 79.3197 187.234 79.6359 187.234C81.1455 187.234 82.7569 186.735 84.1911 186.239C90.9527 183.821 97.7326 181.293 104.679 179.673C104.681 179.675 104.681 179.68 104.685 179.682C97.743 181.298 90.9686 183.826 84.2111 186.244C82.7783 186.738 81.1678 187.239 79.6572 187.239Z" fill="#0D0F3F"/>
<path d="M2.9673 83.9136C2.06831 82.315 1.18866 80.7191 0.321533 79.1313L0.435362 79.3029C1.263 80.8307 2.10562 82.3722 2.9673 83.9136Z" fill="#13114E"/>
<path d="M78.705 187.166C78.44 187.122 78.1816 187.06 77.9283 186.974C77.574 186.858 77.1889 186.667 76.8785 186.444C75.6943 185.61 75.1943 184.363 75.1943 182.999C75.1943 180.607 76.7295 177.851 78.8072 176.332C81.3157 174.556 83.8462 172.729 86.3719 170.992L86.4463 170.962C87.1135 170.457 87.7633 169.997 88.4357 169.529C88.5495 169.464 88.6601 169.393 88.7677 169.319C87.9825 169.859 87.2358 170.386 86.4667 170.964C89.3336 169.848 92.207 168.745 95.1197 167.813C96.943 170.441 98.9281 173.017 101.047 175.539C97.0814 177.821 93.3656 180.515 89.3665 182.814C85.8441 184.785 81.9965 186.498 77.9485 186.978C78.1952 187.062 78.4474 187.122 78.705 187.166ZM55.0029 171.922C53.5243 171.664 52.088 171.244 50.753 170.572C48.0795 169.174 45.8817 166.489 45.8319 163.49L45.8114 163.017C45.9541 159.632 48.5443 156.992 51.0188 154.709C52.7773 153.022 54.7774 151.5 56.1573 149.534L56.1954 149.517L56.2848 149.441C56.2935 149.439 56.3029 149.439 56.3125 149.439L56.2156 149.523C62.2157 147.189 68.5528 145.678 74.9506 145.063C67.1881 142.364 58.936 141.28 50.7307 141.28C50.0327 141.28 49.3349 141.288 48.6369 141.302C46.4212 141.356 44.1946 141.476 41.9774 141.476C40.119 141.476 38.2679 141.391 36.4362 141.108C34.0872 140.716 31.7274 139.978 29.6786 138.72C29.0509 138.366 28.4594 137.775 27.8616 137.279C27.1075 141.089 28.9648 145.182 32.5466 147.298C34.3402 148.341 36.3531 148.894 38.4125 149.227C36.3457 148.894 34.3255 148.341 32.5265 147.296C29.4755 145.493 27.6764 142.257 27.6745 138.984C27.6745 138.412 27.7287 137.84 27.8403 137.274C28.0296 135.928 28.635 134.629 29.5564 133.464C33.4138 128.684 38.4319 127.584 43.9255 127.429C44.3147 127.41 44.6967 127.404 45.0829 127.404C45.419 127.404 45.7572 127.406 46.1042 127.406C45.7126 127.305 45.3583 127.188 44.9892 127.033C46.9784 126.872 48.8913 126.306 50.8818 126.145C51.3584 126.102 51.8339 126.083 52.3083 126.083C56.0402 126.083 59.7135 127.322 63.2454 128.547C57.8605 121.616 49.9477 117.163 41.8946 113.645C33.8574 110.164 25.4201 107.416 17.8553 102.955C16.0108 101.874 14.2106 100.69 12.5074 99.4178C9.05116 94.434 5.91381 89.1616 2.96711 83.9136C2.10543 82.3721 1.26282 80.8307 0.435181 79.3029C0.479851 79.3192 0.524504 79.3329 0.569174 79.3492L0.799028 79.548C3.62672 82.0617 6.59467 84.3875 9.64487 86.5907C15.9552 91.0897 22.734 94.9106 29.8426 97.9418C35.087 100.164 40.5392 102.038 45.3849 104.993C54.7656 110.676 61.2582 120.088 70.1125 126.516C70.4869 126.801 70.9507 127.082 71.4189 127.082C71.5082 127.082 71.5986 127.072 71.689 127.049C72.5581 126.823 72.6455 125.649 72.4943 124.748C71.67 120.186 68.6487 115.388 70.7516 111.243C71.2007 110.317 72.0763 109.475 73.1229 109.475C73.1272 109.475 73.1305 109.475 73.1337 109.475C73.7124 109.502 74.2707 109.797 74.756 110.123C79.6718 113.47 80.8485 119.849 82.9325 125.56V133.46C82.9325 143.06 85.9366 152.35 90.9251 161.157C87.7379 160.487 84.527 160.068 81.3156 160.068C79.5941 160.068 77.874 160.187 76.1537 160.454C71.5985 161.187 67.2613 162.881 62.7933 164.147C59.8496 164.956 56.7934 165.583 53.7762 165.583C52.1985 165.583 50.6326 165.411 49.0988 165.005C48.1562 164.735 46.9922 164.033 45.8519 163.494C45.9018 166.492 48.0998 169.178 50.7742 170.574C52.1029 171.247 53.5317 171.664 55.0029 171.922Z" fill="#007F36"/>
<path d="M48.2127 149.866C45.9212 149.866 43.6265 149.768 41.3424 149.58C40.368 149.49 39.3851 149.384 38.4126 149.226C36.3532 148.894 34.3403 148.341 32.5467 147.298C28.9649 145.182 27.1075 141.088 27.8617 137.278C28.4594 137.774 29.051 138.365 29.6787 138.719C31.7275 139.977 34.0873 140.715 36.4362 141.107C38.268 141.391 40.1191 141.475 41.9775 141.475C44.1946 141.475 46.4213 141.355 48.637 141.301C49.335 141.287 50.0327 141.279 50.7307 141.279C58.936 141.279 67.1882 142.363 74.9506 145.062C68.5529 145.677 62.2158 147.189 56.2156 149.523L56.3126 149.438C56.303 149.438 56.2936 149.438 56.2848 149.44L56.2914 149.434C53.6167 149.726 50.9167 149.866 48.2127 149.866Z" fill="#006422"/>
<path d="M60.0316 172.325C60.0243 172.325 60.0159 172.325 60.0071 172.325C58.338 172.299 56.6446 172.209 55.0029 171.922C53.5317 171.664 52.103 171.247 50.7743 170.575C48.0999 169.178 45.9019 166.492 45.8521 163.494C46.9923 164.033 48.1563 164.735 49.0989 165.005C50.6327 165.411 52.1986 165.583 53.7763 165.583C56.7935 165.583 59.8497 164.956 62.7934 164.147C67.2614 162.881 71.5987 161.187 76.1538 160.454C77.8742 160.187 79.5943 160.068 81.3157 160.068C84.5271 160.068 87.738 160.487 90.9252 161.157C92.1984 163.41 93.6039 165.629 95.1197 167.813C92.2071 168.745 89.3336 169.848 86.4667 170.964C87.2358 170.386 87.9826 169.859 88.7677 169.319C88.6601 169.393 88.5496 169.464 88.4357 169.529C88.5389 169.457 88.6422 169.387 88.7454 169.316C86.9591 170.545 84.2782 170.803 81.5987 170.803C80.6221 170.803 79.6466 170.77 78.7146 170.735C77.7838 170.7 76.8965 170.667 76.0964 170.667C75.821 170.667 75.556 170.671 75.3038 170.681C70.1953 170.902 65.2328 172.325 60.0316 172.325Z" fill="#006422"/>
<path d="M79.6359 187.234C79.3197 187.234 79.0092 187.211 78.705 187.166C78.4474 187.122 78.1952 187.062 77.9485 186.977C81.9965 186.498 85.8441 184.785 89.3665 182.814C93.3656 180.515 97.0814 177.821 101.047 175.539C102.218 176.934 103.431 178.315 104.679 179.673C97.7325 181.294 90.9526 183.821 84.191 186.239C82.7569 186.735 81.1455 187.234 79.6359 187.234Z" fill="#006422"/>
<path d="M63.2455 128.547C59.7135 127.322 56.0402 126.083 52.3084 126.083C51.834 126.083 51.3585 126.101 50.8819 126.145C48.8913 126.306 46.9784 126.872 44.9893 127.033L44.9509 127.049C31.1158 122.45 20.868 111.782 12.5074 99.418C14.2107 100.69 16.0108 101.874 17.8554 102.956C25.4201 107.417 33.8574 110.164 41.8947 113.645C49.9477 117.163 57.8605 121.616 63.2455 128.547Z" fill="#006422"/>
<path d="M64.8945 106.997C64.2284 106.439 63.7177 105.731 63.3795 104.908C63.0412 104.083 62.3732 103.307 61.8103 102.577C61.2454 101.844 60.6455 101.128 60.0605 100.45C58.671 98.876 57.1231 97.4571 55.5179 96.1035C53.8743 94.7636 52.1488 93.549 50.3424 92.4542C48.5201 91.3186 46.6541 90.2919 44.6913 89.3469C42.7425 88.4427 40.7732 87.5875 38.7595 86.8413C36.7456 86.0924 34.7243 85.4333 32.6818 84.8287C24.3161 82.3586 15.6426 80.8472 6.94792 80.3488C5.32152 80.2452 2.64171 80.0301 0.569217 79.3493L0.321387 79.1314L0.275635 79.0197C0.337462 79.1694 1.05343 79.3138 2.09921 79.4091C6.74803 79.8612 18.5871 79.8122 20.3478 80.0518C27.0691 80.9642 33.4585 82.6717 39.9913 84.4092C44.4604 85.5912 48.6424 87.4621 52.4998 90.033C54.4095 91.2939 62.2912 96.4602 62.304 99.0474C62.304 99.0474 62.304 99.0495 62.304 99.0536L62.3083 98.7839L62.4859 99.3232C62.6593 100.17 62.8102 101.072 63.021 101.905C63.1305 102.384 63.2623 102.812 63.4094 103.278C63.6891 104.168 63.9677 105.059 64.3209 105.922C64.438 106.311 64.6657 106.654 64.8945 106.997Z" fill="#00B15E"/>
<path d="M0.569355 79.3493C0.524685 79.3329 0.480032 79.3192 0.435362 79.3029L0.321533 79.1313L0.569355 79.3493Z" fill="#00A451"/>
<path d="M82.9324 94.5185C81.0205 91.5119 78.7601 88.7586 76.0313 86.4927C74.7973 85.5123 73.4877 84.5618 71.9963 84.1261C73.9005 84.393 75.5261 85.4769 77.0558 86.6425C79.2078 88.3501 81.1771 90.2864 82.9324 92.3997V94.5185Z" fill="#00B15E"/>
<path d="M314.828 13.8192L314.844 13.9418L314.834 14.1487C315.109 21.8777 315.229 29.9607 314.621 37.8558C313.668 52.9079 310.207 67.4508 300.509 78.5459L300.468 78.552C300.226 78.8761 299.978 79.1593 299.686 79.448C300.335 79.0667 300.942 78.6909 301.595 78.3505C306.462 75.6707 311.397 74.0584 317.206 76.2453C318.606 76.79 319.796 77.6125 320.651 78.6882C323.26 81.6213 323.739 86.1394 321.702 89.8187C320.188 92.5148 317.704 94.5219 315.193 96.3248C311.062 99.228 306.677 101.796 302.094 103.855L302.222 103.877L302.263 103.871C304.471 104.878 306.996 105.181 309.39 105.747C312.715 106.472 316.324 107.444 318.181 110.32L318.407 110.742C319.899 113.378 319.36 116.845 317.745 119.429C316.021 122.115 313.32 124.029 310.583 125.699C306.048 128.37 300.986 129.672 296.416 132.101C293.077 133.899 288.055 138.087 284.005 137.796C284.964 137.867 285.884 137.94 286.851 138.052L286.933 138.042C290.021 138.262 293.161 138.556 296.258 138.818C300.324 139.229 304.782 142.974 303.118 146.639C302.96 146.993 302.723 147.358 302.475 147.642C301.127 149.197 298.731 149.785 296.642 150.207C286.222 152.19 275.653 153.987 266.148 158.608C257.534 162.81 250.216 169.146 243.925 176.322C241.117 179.533 237.942 182.466 235.137 185.676C232.972 188.174 231.98 190.217 228.5 191.292L228.304 191.36L228.263 191.366C227.822 191.469 227.457 191.522 227.029 191.418L226.493 191.124C225.548 190.307 226.013 188.341 226.607 187.017C227.841 184.362 228.767 181.584 229.352 178.732L229.346 178.692C230.708 172.589 230.743 166.18 230.141 159.944C229.289 150.769 227.219 141.768 226.282 132.604C225.901 129.064 225.909 125.055 228.447 122.585C229.248 121.808 230.248 121.294 231.329 121.057C232.876 120.588 234.586 120.716 236.108 121.245C238.636 122.162 240.667 124.23 242.037 126.596C241.904 126.242 241.765 125.85 241.672 125.49L241.662 125.409C240.031 120.643 238.481 115.863 236.891 111.092C235.376 106.555 233.851 101.939 233.5 97.1536C233.192 92.6954 233.988 85.2252 238.094 82.45L238.674 82.1614L238.707 82.115C240.872 81.0638 243.677 81.9026 245.668 83.395C247.784 84.9119 249.356 86.9599 251.398 88.5259L251.444 88.5612L251.728 88.809C248.22 79.5604 248.285 69.0128 251.845 59.7859C252.58 57.9885 253.441 56.2129 254.963 55.0037L255.039 54.952C257.724 52.9149 261.684 53.4677 264.514 55.336C267.256 57.177 269.146 60.0039 270.911 62.8117L271.072 63.0786C269.686 60.8781 273.95 52.2531 274.974 50.167C277.017 45.9485 279.702 42.1766 282.989 38.8568C287.791 34.001 292.483 29.2405 297.87 25.0002C299.281 23.8891 309.621 17.8704 313.44 15.0925C314.3 14.4743 314.85 13.9826 314.828 13.8192Z" fill="#007537"/>
<path d="M314.991 19.4538C314.95 17.6727 314.896 15.9025 314.833 14.1487L314.843 13.9417C314.9 15.7637 314.953 17.6019 314.991 19.4538Z" fill="#13114C"/>
<path d="M289.62 92.3998V84.5455C291.197 83.0477 292.913 81.7241 294.879 80.7927C296.695 79.9158 298.651 79.4283 300.467 78.5514C300.225 78.8755 299.977 79.1587 299.686 79.4474C300.334 79.0661 300.941 78.6903 301.595 78.3499C304.874 76.5443 308.185 75.2234 311.772 75.2234C313.51 75.2234 315.31 75.5312 317.205 76.2447C318.605 76.7894 319.795 77.6118 320.65 78.6875C322.17 80.3951 322.965 82.6392 322.965 84.9432C322.965 86.1905 322.731 87.4568 322.249 88.666C322.243 88.6681 322.239 88.6722 322.235 88.6742C323.602 85.24 322.975 81.332 320.633 78.7012C320.369 79.4419 320.154 80.2562 319.789 80.888C318.648 83.034 316.97 84.886 315.124 86.4301C313.247 87.9661 311.172 89.227 309.045 90.4144C308.895 90.0032 308.727 89.5974 308.536 89.1998C307.163 86.3974 304.385 84.0771 301.343 84.0771C301.112 84.0771 300.878 84.0914 300.646 84.118L300.554 84.1262C298.65 84.393 297.024 85.477 295.496 86.6426C293.342 88.3501 291.377 90.2865 289.62 92.3998ZM289.619 76.005V58.1477C292.247 53.665 295.652 49.6372 298.762 45.4486C303.402 39.1685 307.349 32.3655 310.543 25.2166C312.071 21.7334 313.465 18.1875 314.642 14.5491L314.737 14.2577C314.77 14.2224 314.803 14.1868 314.833 14.1488C314.895 15.9027 314.95 17.6728 314.991 19.4539C315.11 25.538 315.078 31.7392 314.62 37.8559C313.787 39.8358 312.825 41.7884 311.771 43.6757C307.466 51.4374 301.523 58.1533 296.305 65.3022C293.841 68.701 291.512 72.2631 289.619 76.005Z" fill="#00622A"/>
<path d="M310.247 99.053L310.245 98.7834C310.16 95.9483 310.002 93.0506 309.046 90.4144C311.173 89.227 313.249 87.9661 315.125 86.4301C316.971 84.8859 318.649 83.034 319.79 80.888C320.155 80.2561 320.37 79.4419 320.634 78.7011C322.977 81.3319 323.603 85.24 322.236 88.6741C321.498 89.1044 320.768 89.5565 320.052 90.0331C318.142 91.2941 310.261 96.4603 310.247 99.0475C310.247 99.0475 310.247 99.0489 310.247 99.053Z" fill="#004719"/>
<path d="M289.62 84.5455V76.0049C291.513 72.263 293.841 68.7008 296.306 65.302C301.524 58.1531 307.466 51.4372 311.772 43.6756C312.826 41.7883 313.787 39.8356 314.621 37.8557C313.667 52.9079 310.206 67.4508 300.508 78.5459L300.467 78.552C298.651 79.4289 296.695 79.9164 294.879 80.7934C292.912 81.7248 291.197 83.0476 289.62 84.5455Z" fill="#004719"/>
<path d="M289.62 35.4292V32.2592C292.251 29.7319 294.958 27.289 297.869 24.9987C299.28 23.8875 309.62 17.8688 313.439 15.091C314.28 14.4891 314.825 14.0043 314.828 13.8328C314.828 13.8266 314.828 13.8245 314.828 13.8184L314.844 13.941L314.738 14.2569C313.283 15.9127 311.061 17.4705 309.694 18.3937C302.395 23.2686 295.63 29.0129 289.62 35.4292Z" fill="#00954D"/>
<path d="M314.738 14.2576L314.844 13.9417L314.834 14.1487C314.804 14.1869 314.77 14.2223 314.738 14.2576Z" fill="#008641"/>
<path d="M372.275 79.0198L372.229 79.1315L372.114 79.3031C368.473 86.0353 364.524 92.9881 360.044 99.418C351.683 111.782 341.435 122.45 327.6 127.049L327.562 127.033C327.192 127.188 326.838 127.305 326.446 127.406C327.192 127.406 327.897 127.39 328.627 127.428C334.12 127.583 339.137 128.684 342.996 133.463C343.916 134.629 344.521 135.928 344.711 137.273C345.466 141.086 343.608 145.179 340.024 147.295C337.38 148.834 334.256 149.302 331.209 149.58C326.228 149.986 321.2 149.978 316.26 149.436L316.356 149.517L316.394 149.534C317.774 151.5 319.773 153.022 321.533 154.709C324.008 156.993 326.598 159.632 326.74 163.017L326.721 163.491C326.67 166.49 324.472 169.175 321.8 170.572C318.982 171.996 315.716 172.275 312.544 172.326C307.334 172.332 302.366 170.901 297.249 170.681C296.26 170.643 295.089 170.689 293.839 170.735C290.345 170.863 286.241 170.994 283.806 169.316C284.591 169.855 285.337 170.381 286.105 170.962L286.181 170.992C288.706 172.729 291.236 174.556 293.747 176.332C297.009 178.72 298.935 184.151 295.675 186.444C295.364 186.667 294.978 186.858 294.624 186.974C292.693 187.626 290.353 186.929 288.363 186.239C278.479 182.704 268.564 178.938 258.138 178.111C248.68 177.378 239.26 179.109 230.294 182.078C226.291 183.408 222.111 184.317 218.107 185.646C215.008 186.691 213.14 187.939 209.629 187.108L209.428 187.07L209.39 187.054C208.962 186.923 208.627 186.784 208.314 186.478L208.003 185.958C207.609 184.79 208.989 183.344 210.16 182.513C212.546 180.866 214.728 178.962 216.656 176.824L216.672 176.786C220.893 172.262 224.137 166.814 226.754 161.192C230.627 152.938 233.377 144.22 237.174 135.936C238.625 132.725 240.641 129.307 244.045 128.476C245.115 128.215 246.229 128.277 247.269 128.618C248.822 128.994 250.219 129.96 251.254 131.172C252.948 133.226 253.642 136.006 253.626 138.711C253.688 138.343 253.767 137.94 253.868 137.586L253.901 137.512C254.9 132.627 255.973 127.773 257.011 122.904C257.994 118.277 259.007 113.574 261.107 109.314C263.084 105.357 267.507 99.3849 272.401 99.0772L273.041 99.1207L273.092 99.0989C275.467 99.2868 277.439 101.408 278.387 103.68C279.432 106.035 279.748 108.571 280.701 110.932L280.726 110.987L280.843 111.341C282.488 101.689 287.834 92.7262 295.498 86.6422C297.025 85.4765 298.651 84.3926 300.555 84.1258L300.647 84.1176C303.956 83.7281 307.061 86.1847 308.537 89.1994C309.953 92.1434 310.147 95.504 310.245 98.783L310.251 99.0908C310.169 96.5199 318.132 91.3019 320.052 90.0328C323.911 87.4619 328.092 85.5909 332.561 84.4089C339.094 82.6714 345.483 80.9639 352.204 80.0515C353.967 79.8119 365.805 79.861 370.454 79.4088C371.5 79.3134 372.215 79.1696 372.275 79.0198Z" fill="#009245"/>
<path d="M324.318 149.869C321.622 149.869 318.932 149.732 316.265 149.441L316.259 149.435C318.934 149.726 321.632 149.865 324.337 149.865C326.63 149.865 328.926 149.767 331.208 149.579C332.177 149.492 333.155 149.383 334.122 149.228C333.15 149.386 332.164 149.495 331.186 149.585C328.904 149.77 326.609 149.869 324.318 149.869Z" fill="#0D0F3F"/>
<path d="M312.499 172.329C307.3 172.329 302.335 170.904 297.226 170.684C296.973 170.676 296.709 170.67 296.431 170.67C295.633 170.67 294.745 170.705 293.814 170.738C292.882 170.773 291.908 170.806 290.933 170.806C288.411 170.806 285.886 170.577 284.11 169.525C284.01 169.455 283.906 169.387 283.805 169.315C285.592 170.544 288.272 170.802 290.952 170.802C291.929 170.802 292.904 170.77 293.838 170.734C294.767 170.699 295.655 170.666 296.456 170.666C296.731 170.666 296.995 170.67 297.248 170.681C302.357 170.901 307.319 172.325 312.518 172.325C312.526 172.325 312.534 172.325 312.543 172.325C314.201 172.299 315.884 172.209 317.515 171.927C315.879 172.211 314.188 172.301 312.524 172.329C312.515 172.329 312.507 172.329 312.499 172.329Z" fill="#0D0F3F"/>
<path d="M292.893 187.239C291.385 187.239 289.772 186.738 288.34 186.245C281.581 183.827 274.805 181.299 267.857 179.679C267.859 179.676 267.864 179.672 267.866 179.67C274.813 181.292 281.597 183.821 288.362 186.239C289.794 186.735 291.407 187.234 292.915 187.234C293.226 187.234 293.533 187.212 293.833 187.166C293.525 187.215 293.212 187.239 292.893 187.239Z" fill="#0D0F3F"/>
<path d="M369.494 84.077C370.387 82.4811 371.259 80.8852 372.114 79.3029L372.228 79.1313C371.335 80.7708 370.423 82.4239 369.494 84.077Z" fill="#13114E"/>
<path d="M293.833 187.166C294.094 187.124 294.35 187.062 294.601 186.978C290.554 186.498 286.706 184.785 283.185 182.814C279.184 180.515 275.467 177.819 271.499 175.536C273.617 173.015 275.603 170.438 277.427 167.811C280.339 168.745 283.215 169.845 286.085 170.964C285.317 170.386 284.568 169.859 283.784 169.319C283.89 169.389 283.999 169.461 284.111 169.526C284.783 169.995 285.437 170.458 286.104 170.962L286.18 170.992C288.705 172.729 291.235 174.557 293.746 176.332C295.821 177.851 297.357 180.607 297.357 182.999C297.357 184.363 296.859 185.611 295.674 186.444C295.364 186.667 294.977 186.857 294.623 186.974C294.367 187.062 294.103 187.124 293.833 187.166ZM317.516 171.928C319 171.669 320.438 171.25 321.778 170.575C324.452 169.178 326.647 166.492 326.699 163.494C325.558 164.033 324.395 164.735 323.453 165.005C321.919 165.411 320.353 165.583 318.776 165.583C315.759 165.583 312.701 164.957 309.757 164.147C305.29 162.881 300.952 161.187 296.398 160.454C294.677 160.187 292.956 160.068 291.235 160.068C288.021 160.068 284.81 160.487 281.621 161.16C286.611 152.35 289.62 143.06 289.62 133.46V125.56C291.703 119.849 292.88 113.471 297.796 110.124C298.28 109.797 298.839 109.503 299.419 109.475C299.421 109.475 299.425 109.475 299.427 109.475C300.475 109.475 301.35 110.317 301.799 111.243C303.904 115.388 300.881 120.186 300.056 124.748C299.906 125.65 299.993 126.823 300.862 127.049C300.952 127.071 301.042 127.082 301.132 127.082C301.6 127.082 302.063 126.802 302.439 126.516C311.293 120.088 317.785 110.676 327.165 104.993C332.012 102.038 337.464 100.164 342.71 97.9418C349.818 94.9107 356.596 91.0898 362.906 86.5908C365.956 84.3876 368.925 82.0618 371.752 79.5481L371.981 79.3494C372.027 79.333 372.07 79.3193 372.114 79.303C371.259 80.8853 370.387 82.4812 369.494 84.0771C366.575 89.2706 363.464 94.4859 360.044 99.418C358.342 100.69 356.542 101.874 354.695 102.956C347.13 107.417 338.693 110.164 330.656 113.645C322.603 117.163 314.691 121.616 309.304 128.547C312.837 127.322 316.511 126.083 320.244 126.083C320.718 126.083 321.195 126.101 321.669 126.145C323.659 126.306 325.571 126.872 327.562 127.033C327.192 127.188 326.838 127.305 326.445 127.406C326.794 127.406 327.132 127.404 327.469 127.404C327.853 127.404 328.237 127.41 328.627 127.429C334.12 127.584 339.136 128.684 342.995 133.464C343.916 134.629 344.521 135.928 344.711 137.274C344.823 137.84 344.877 138.412 344.877 138.984C344.875 142.258 343.074 145.493 340.024 147.296C338.221 148.344 336.195 148.897 334.123 149.229C336.187 148.894 338.208 148.344 340.005 147.299C343.586 145.182 345.444 141.089 344.689 137.279C344.09 137.775 343.499 138.366 342.873 138.72C340.825 139.978 338.464 140.716 336.116 141.108C334.283 141.392 332.431 141.476 330.574 141.476C328.357 141.476 326.129 141.356 323.913 141.302C323.215 141.287 322.518 141.28 321.821 141.28C313.616 141.28 305.364 142.364 297.599 145.063C303.999 145.678 310.337 147.19 316.336 149.524L316.238 149.439C316.246 149.439 316.257 149.439 316.265 149.441L316.355 149.517L316.393 149.534C317.774 151.5 319.773 153.022 321.532 154.709C324.008 156.993 326.598 159.632 326.74 163.017L326.721 163.491C326.669 166.49 324.472 169.174 321.8 170.572C320.455 171.25 319.005 171.669 317.516 171.928Z" fill="#007F36"/>
<path d="M324.338 149.866C321.633 149.866 318.935 149.727 316.26 149.436L316.266 149.442C316.258 149.44 316.248 149.44 316.239 149.44L316.337 149.524C310.338 147.19 304 145.679 297.6 145.063C305.365 142.364 313.617 141.28 321.822 141.28C322.519 141.28 323.217 141.288 323.914 141.302C326.131 141.357 328.358 141.476 330.575 141.476C332.432 141.476 334.284 141.392 336.117 141.109C338.465 140.717 340.826 139.979 342.874 138.72C343.5 138.366 344.091 137.775 344.69 137.28C345.445 141.09 343.587 145.183 340.006 147.299C338.209 148.345 336.188 148.895 334.124 149.23C333.157 149.385 332.179 149.494 331.21 149.581C328.927 149.769 326.631 149.866 324.338 149.866Z" fill="#006422"/>
<path d="M312.518 172.325C307.319 172.325 302.357 170.901 297.248 170.681C296.995 170.671 296.731 170.667 296.456 170.667C295.655 170.667 294.767 170.699 293.838 170.735C292.904 170.77 291.929 170.803 290.952 170.803C288.272 170.803 285.592 170.544 283.805 169.315C283.906 169.387 284.01 169.455 284.11 169.525C283.999 169.46 283.89 169.389 283.784 169.319C284.568 169.858 285.317 170.386 286.085 170.963C283.214 169.844 280.339 168.744 277.427 167.81C278.941 165.628 280.347 163.406 281.621 161.159C284.81 160.487 288.021 160.068 291.235 160.068C292.956 160.068 294.677 160.187 296.398 160.454C300.952 161.187 305.29 162.881 309.757 164.146C312.701 164.956 315.759 165.582 318.776 165.582C320.353 165.582 321.919 165.41 323.452 165.005C324.395 164.735 325.558 164.033 326.699 163.493C326.647 166.492 324.452 169.177 321.778 170.574C320.438 171.25 319 171.669 317.515 171.927C315.884 172.208 314.201 172.299 312.543 172.325C312.534 172.325 312.526 172.325 312.518 172.325Z" fill="#006422"/>
<path d="M292.915 187.234C291.406 187.234 289.794 186.735 288.362 186.239C281.597 183.821 274.813 181.291 267.865 179.67C269.113 178.312 270.327 176.931 271.498 175.536C275.466 177.819 279.184 180.515 283.184 182.814C286.706 184.785 290.554 186.498 294.601 186.978C294.35 187.062 294.094 187.124 293.833 187.166C293.533 187.211 293.226 187.234 292.915 187.234Z" fill="#006422"/>
<path d="M309.305 128.547C314.691 121.616 322.603 117.163 330.656 113.645C338.693 110.164 347.13 107.416 354.695 102.956C356.542 101.874 358.342 100.69 360.044 99.4178C351.683 111.782 341.435 122.45 327.6 127.049L327.562 127.033C325.571 126.872 323.659 126.306 321.669 126.145C321.195 126.102 320.718 126.082 320.244 126.082C316.511 126.082 312.837 127.322 309.305 128.547Z" fill="#006422"/>
<path d="M307.657 106.997C307.886 106.654 308.115 106.311 308.229 105.921C308.583 105.058 308.863 104.168 309.141 103.277C309.288 102.811 309.422 102.384 309.531 101.904C309.74 101.071 309.893 100.17 310.064 99.3227L310.244 98.7835L310.246 99.053C310.246 99.051 310.246 99.0469 310.246 99.0469C310.261 96.4597 318.141 91.2935 320.05 90.0325C323.909 87.4617 328.09 85.5907 332.559 84.4088C339.092 82.6712 345.481 80.9637 352.203 80.0513C353.965 79.8117 365.803 79.8607 370.452 79.4086C371.498 79.3132 372.214 79.1689 372.274 79.0192L372.228 79.1309L371.98 79.3488C369.91 80.0296 367.23 80.2448 365.602 80.3482C356.909 80.8466 348.235 82.3581 339.868 84.8282C337.826 85.4328 335.805 86.0919 333.793 86.8408C331.777 87.587 329.808 88.4421 327.861 89.3463C325.897 90.2913 324.029 91.318 322.21 92.4537C320.402 93.5485 318.678 94.7631 317.033 96.1031C315.426 97.4566 313.879 98.8754 312.49 100.45C311.905 101.128 311.306 101.844 310.742 102.576C310.178 103.306 309.511 104.083 309.17 104.908C308.833 105.73 308.324 106.439 307.657 106.997Z" fill="#00B15E"/>
<path d="M371.98 79.3492L372.228 79.1313L372.114 79.3029C372.07 79.3192 372.027 79.3329 371.98 79.3492Z" fill="#00A451"/>
<path d="M289.62 94.5158V92.3997C291.376 90.2864 293.343 88.3501 295.497 86.6425C297.025 85.4769 298.651 84.393 300.554 84.1261C299.062 84.5618 297.755 85.5123 296.518 86.4927C293.792 88.7586 291.532 91.5119 289.62 94.5158Z" fill="#00B15E"/>
<path d="M163.69 130.854C163.821 130.805 163.952 130.75 164.08 130.688C163.952 130.751 163.824 130.805 163.693 130.851L163.69 130.854Z" fill="#FF923B"/>
<path d="M248.183 88.9189C247.796 88.827 247.409 88.7462 247.02 88.6795C247.022 88.6816 247.022 88.6816 247.026 88.6816C247.413 88.7457 247.799 88.8269 248.183 88.9189Z" fill="#090D31"/>
<path d="M260.845 192.835H111.703C111.703 157.07 131.795 126.557 160.008 114.649C162.674 113.511 164.932 111.638 166.499 109.297C168.088 106.956 168.985 104.125 168.985 101.113C168.985 95.1094 165.361 89.8375 160.008 87.5773C133.89 76.5436 114.737 49.5939 112.051 17.2499C111.806 14.6641 111.703 12.0392 111.703 9.39215H260.845C260.845 15.2569 260.297 20.977 259.278 26.5133C254.048 54.6821 236.136 77.6236 212.543 87.5773C207.191 89.8375 203.567 95.1094 203.567 101.113C203.567 107.14 207.191 112.389 212.543 114.649C240.757 126.557 260.845 157.07 260.845 192.835Z" fill="#CEEDFC"/>
<path d="M248.662 147.074C248.66 147.072 248.655 147.072 248.655 147.068C243.512 138.294 236.926 130.665 229.285 124.611C236.931 130.668 243.515 138.295 248.662 147.074Z" fill="#131262"/>
<path d="M259.935 179.735C259.668 177.837 259.342 175.961 258.963 174.107C258.963 174.105 258.963 174.107 258.963 174.105C259.342 175.959 259.668 177.837 259.935 179.735Z" fill="#008344"/>
<path d="M258.963 174.107C256.959 164.329 253.424 155.205 248.656 147.069C248.656 147.071 248.658 147.071 248.662 147.075C253.43 155.205 256.963 164.33 258.964 174.105C258.964 174.107 258.963 174.105 258.963 174.107Z" fill="#007235"/>
<path d="M207.205 110.797C204.925 108.197 203.567 104.801 203.567 101.113C203.567 97.6255 204.789 94.3856 206.862 91.8387C204.794 94.3828 203.578 97.6228 203.578 101.116C203.578 104.796 204.928 108.194 207.205 110.797Z" fill="#131262"/>
<path d="M260.683 187.304C260.082 187.134 259.445 187.039 258.791 187.031C258.784 187.031 258.78 187.031 258.776 187.031C258.768 187.031 258.757 187.031 258.748 187.031C258.734 187.031 258.72 187.031 258.704 187.031H254.645C254.019 179.733 252.516 172.315 249.905 165.526C247.609 159.552 240.358 158.066 235.103 155.717C233.474 154.982 231.76 154.23 230.001 154.23C229.792 154.23 229.583 154.241 229.374 154.264C228.781 154.328 228.233 154.481 227.699 154.692C220.871 137.118 210.371 123.381 197.854 116.049C197.022 115.562 196.242 114.947 195.527 114.223C195.517 113.411 195.508 112.595 195.508 111.777C195.506 108.27 195.653 104.748 196.304 101.291C196.986 97.6478 198.055 93.9347 200.263 91.0454C202.453 86.9982 205.974 83.775 210.353 81.9184C224.278 76.0341 235.821 65.2954 243.668 51.79C241.812 50.4066 240.077 48.795 238.012 47.779C236.295 46.944 234.497 46.5766 232.676 46.5766C231.042 46.5766 229.389 46.8688 227.761 47.3866C230.589 40.0688 232.785 32.0913 234.227 23.6351C243.345 24.4925 251.857 25.4444 259.278 26.5133C254.039 54.6765 236.133 77.6291 212.54 87.5772C210.297 88.5236 208.357 89.9988 206.862 91.8387C204.788 94.3856 203.567 97.6256 203.567 101.113C203.567 104.801 204.925 108.197 207.205 110.797C208.646 112.448 210.464 113.778 212.54 114.655C218.525 117.18 224.148 120.542 229.286 124.611C236.926 130.665 243.512 138.295 248.656 147.069C253.424 155.205 256.959 164.329 258.963 174.107C259.342 175.961 259.667 177.837 259.935 179.735C260.283 182.224 260.536 184.746 260.683 187.304Z" fill="#93D4F7"/>
<path d="M259.364 26.0485C260.013 22.416 260.461 18.7056 260.684 14.9285C260.464 18.7084 260.018 22.4244 259.364 26.0485Z" fill="#131262"/>
<path d="M259.278 26.5133C259.306 26.3574 259.334 26.2043 259.364 26.0485C259.336 26.2044 259.308 26.3574 259.278 26.5133Z" fill="#62ACD1"/>
<path d="M234.227 23.6352C189.546 19.4544 130.188 17.7064 112.051 17.2499C111.979 16.4788 111.918 15.7051 111.868 14.9285C112.497 15.1065 113.159 15.2012 113.847 15.2012H235.396C235.089 18.0599 234.7 20.874 234.227 23.6352Z" fill="#62ACD1"/>
<path d="M259.278 26.5133C251.857 25.4444 243.345 24.4925 234.227 23.6352C234.7 20.874 235.089 18.0599 235.396 15.2012H235.435H258.704C259.392 15.2012 260.055 15.1067 260.684 14.9285C260.461 18.7056 260.013 22.416 259.364 26.0485C259.334 26.2044 259.306 26.3574 259.278 26.5105" fill="#469ACC"/>
<path d="M258.704 15.2014H113.847C109.816 15.2014 106.551 11.9363 106.551 7.90587C106.551 3.87818 109.816 0.613159 113.847 0.613159H258.704C262.735 0.613159 266 3.87818 266 7.90587C266 11.9363 262.735 15.2014 258.704 15.2014Z" fill="#CA7300"/>
<path d="M106.69 9.29205C106.604 8.84391 106.551 8.38185 106.551 7.90587C106.551 3.87818 109.816 0.613159 113.847 0.613159H258.704H235.434C235.883 1.12254 236.278 1.67924 236.615 2.27212H114.957C110.79 2.27212 107.356 5.31445 106.69 9.29205Z" fill="#E19B1C"/>
<path d="M258.704 15.2013H235.435C236.913 13.5117 237.84 11.3267 237.84 8.90508V6.90932C237.84 5.21975 237.389 3.64431 236.615 2.27206H263.286C262.05 1.26722 260.503 0.632584 258.791 0.613098C262.779 0.657627 266 3.90595 266 7.90581C266 11.2488 263.751 14.0656 260.684 14.9285C260.054 15.1066 259.392 15.2013 258.704 15.2013Z" fill="#BD6000"/>
<path d="M263.286 2.27206H236.615C236.278 1.67918 235.883 1.12247 235.435 0.613098H258.704C258.721 0.613098 258.735 0.613098 258.749 0.613098C258.757 0.613098 258.766 0.613098 258.774 0.613098C258.78 0.613098 258.784 0.613098 258.791 0.613098C260.502 0.632513 262.05 1.26722 263.286 2.27206Z" fill="#D38114"/>
<path d="M243.668 51.7902C235.822 65.2956 224.278 76.0343 210.353 81.9186C205.974 83.7752 202.453 86.9984 200.263 91.0456C198.055 93.9349 196.986 97.648 196.304 101.292C195.481 105.673 195.464 110.157 195.533 114.588C195.567 116.901 195.411 124.556 195.183 126.026C194.991 127.287 194.64 128.706 193.518 129.318L192.975 129.513C191.854 129.775 190.576 129.143 189.911 128.147C188.825 126.518 189.07 122.382 188.964 119.615C188.772 114.132 189.594 108.632 188.736 103.168C188.385 101.066 187.439 98.6639 185.46 98.174L185.354 98.1406C183.008 97.6674 181.151 100.189 180.327 102.536C179.434 105.163 179.086 108.002 179.278 110.769C179.4 112.487 179.47 114.727 177.928 115.376C177.508 115.568 177.051 115.568 176.614 115.393C175.843 115.131 175.144 114.413 174.847 113.589C174.39 112.311 174.582 110.892 174.688 109.525C174.81 107.791 174.827 102.185 174.827 101.116C174.827 92.6906 169.87 85.1585 162.215 81.9185C150.269 76.8749 140.109 68.2377 132.49 57.3961C133.417 57.6243 134.417 57.7106 135.485 57.5881C139.708 57.0787 142.806 53.4018 146.258 50.7909C149.236 48.5307 152.704 47.0944 156.331 46.4653H156.348C162.583 45.3603 169.224 46.6741 174.443 50.4234C179.05 53.733 183.551 58.9715 189.034 57.8164C189.543 57.7105 190.033 57.5352 190.523 57.3432C191.678 56.9396 192.817 56.4497 194.028 56.4664C196.566 56.5192 198.545 58.6737 200.911 59.6729C203.959 60.9339 207.48 60.199 210.369 58.6375C213.278 57.0453 215.714 54.7518 218.305 52.6642C220.986 50.5125 224.12 48.6031 227.363 47.5147C230.934 46.3067 234.63 46.1313 238.012 47.7792C240.077 48.7951 241.812 50.4068 243.668 51.7902Z" fill="#E0B151"/>
<path d="M254.757 188.473H117.774C118.512 177.965 122.261 156.051 132.507 148.764C135.992 146.275 140.251 145.504 145.383 147.45C153.299 150.462 157.575 159.45 164.667 164.179C170.833 168.312 178.54 168.855 185.863 169.275C188.369 169.434 191.049 169.503 193.203 168.329C193.535 168.153 193.852 167.945 194.15 167.717C195.269 166.84 196.059 165.579 197.075 164.546C198.055 163.547 199.263 162.776 200.577 162.322C201.367 162.024 202.208 161.849 203.049 161.796C205.072 161.66 207.101 162.202 209.117 162.745C211.808 163.469 214.469 164.193 217.044 163.302C217.848 163.021 218.586 162.6 219.285 162.094C222.23 159.903 224.384 156.12 227.554 154.754C228.131 154.509 228.726 154.334 229.375 154.264C231.354 154.052 233.283 154.893 235.103 155.717C240.358 158.066 247.609 159.553 249.906 165.526C252.689 172.76 254.215 180.715 254.757 188.473Z" fill="#E0B151"/>
<path d="M172.133 179.538C169.995 179.538 167.863 179.321 165.772 178.875C159.624 177.578 153.879 174.249 149.865 169.434C148.114 167.313 146.697 164.93 145.208 162.62C144.264 161.156 143.293 159.711 142.294 158.286C145.742 158.172 149.843 156.482 153.776 153.51C157.305 157.153 160.501 161.401 164.667 164.179C170.833 168.312 178.54 168.855 185.864 169.275C186.618 169.323 187.389 169.361 188.157 169.361C189.936 169.361 191.698 169.15 193.204 168.329L193.045 169.066C192.012 173.077 188.124 175.685 184.269 177.211C180.422 178.725 176.274 179.538 172.133 179.538ZM134.205 149.471C133.671 149.195 133.089 148.964 132.507 148.764C133.108 148.335 133.735 147.956 134.38 147.634C134.286 148.263 134.227 148.878 134.205 149.471Z" fill="#D29635"/>
<path d="M212.401 170.845C210.503 170.845 208.585 169.759 207.146 168.418C205.326 166.684 203.942 164.51 201.927 162.987C201.56 162.706 201.087 162.497 200.577 162.322C201.368 162.024 202.208 161.849 203.049 161.796C203.26 161.781 203.475 161.774 203.686 161.774C205.498 161.774 207.313 162.261 209.117 162.745C210.918 163.229 212.708 163.714 214.464 163.714C215.332 163.714 216.192 163.597 217.044 163.302C217.849 163.021 218.586 162.6 219.285 162.094C219.285 164.599 218.113 167.174 216.29 168.994C215.625 169.662 214.854 170.258 213.98 170.572C213.462 170.759 212.933 170.845 212.401 170.845Z" fill="#D29635"/>
<path d="M153.776 153.509C151.296 150.951 148.648 148.691 145.383 147.45C143.404 146.701 141.556 146.353 139.833 146.353C137.854 146.353 136.042 146.81 134.38 147.634C135.06 143.172 137.579 137.953 141.673 133.251C147.079 127.047 153.762 123.434 158.889 123.434C160.915 123.434 162.697 123.996 164.063 125.188C168.887 129.391 166.685 139.815 159.142 148.471C157.45 150.417 155.632 152.107 153.776 153.509Z" fill="#F5FBFE"/>
<path d="M141.926 158.292C139.903 158.292 138.119 157.726 136.752 156.538C134.918 154.937 134.099 152.435 134.205 149.471C134.411 149.579 134.612 149.693 134.801 149.813C137.131 151.322 138.884 153.582 140.529 155.823C141.128 156.638 141.715 157.459 142.294 158.286C142.171 158.288 142.049 158.292 141.926 158.292Z" fill="#F9EFDC"/>
<path d="M142.294 158.286C141.715 157.459 141.128 156.638 140.529 155.823C138.884 153.582 137.131 151.322 134.801 149.813C134.611 149.694 134.411 149.579 134.205 149.471C134.227 148.878 134.286 148.263 134.38 147.634C136.042 146.81 137.854 146.353 139.833 146.353C141.556 146.353 143.404 146.701 145.384 147.45C148.649 148.691 151.296 150.952 153.776 153.51C149.843 156.482 145.743 158.172 142.294 158.286Z" fill="#F6EAD7"/>
<path d="M133.17 50.5181C130.061 50.5181 126.069 47.7096 123.261 43.2254C119.706 37.5527 119.389 31.351 122.548 29.372C123.21 28.9573 123.97 28.7596 124.794 28.7596C127.903 28.7596 131.895 31.5682 134.703 36.0524C138.258 41.7251 138.575 47.9267 135.416 49.9057C134.756 50.3205 133.994 50.5181 133.17 50.5181Z" fill="#F5FBFE"/>
<path d="M192.975 129.513C195.62 117.6 191.013 104.236 194.412 92.2535C197.231 82.3054 205.081 74.7371 212.418 67.45C217.779 62.1252 223.193 56.433 226.416 49.4937C226.731 48.8285 227.045 48.1632 227.362 47.5147C229.122 46.9218 230.909 46.5767 232.676 46.5767C234.496 46.5767 236.295 46.9441 238.012 47.7791C240.077 48.7951 241.811 50.4067 243.668 51.7901C235.821 65.2955 224.278 76.0342 210.353 81.9185C205.974 83.7751 202.453 86.9983 200.262 91.0455C198.055 93.9348 196.986 97.6479 196.304 101.291C195.653 104.749 195.505 108.27 195.508 111.777C195.508 112.715 195.519 113.653 195.533 114.588C195.535 114.805 195.54 115.07 195.54 115.37C195.54 118.282 195.389 124.692 195.183 126.025C194.991 127.286 194.641 128.706 193.519 129.318L192.975 129.513Z" fill="#D29635"/>
<path d="M177.263 115.523C177.046 115.523 176.829 115.479 176.614 115.393C178.418 110.822 176.141 104.988 178.173 100.328C178.682 99.1371 179.523 98.0515 180.645 97.403C181.277 97.055 182.003 96.8546 182.727 96.8546C183.303 96.8546 183.876 96.9826 184.391 97.2638C184.778 97.4725 185.146 97.7899 185.46 98.174L185.354 98.1406C185.162 98.1015 184.97 98.0821 184.784 98.0821C182.71 98.0821 181.084 100.384 180.327 102.536C179.595 104.693 179.228 106.989 179.225 109.272C179.225 109.773 179.242 110.271 179.278 110.769C179.309 111.198 179.336 111.66 179.336 112.122C179.334 113.508 179.086 114.889 177.928 115.376C177.714 115.473 177.488 115.523 177.263 115.523Z" fill="#D29635"/>
<path d="M181.107 61.1146C178.752 61.1146 176.405 60.6024 174.268 59.6032C171.203 58.1836 168.678 55.8343 166.21 53.5074C163.757 51.1776 161.269 48.7949 158.257 47.2696C157.645 46.955 156.996 46.6739 156.348 46.4652C157.77 46.2119 159.212 46.0866 160.656 46.0866C165.539 46.0866 170.413 47.5285 174.443 50.4233C178.604 53.4155 182.682 57.9776 187.475 57.9776C187.985 57.9776 188.505 57.9275 189.034 57.8163C189.543 57.7104 190.033 57.5351 190.523 57.3431C188.948 59.1802 186.476 60.391 184.04 60.8447C183.072 61.0257 182.089 61.1146 181.107 61.1146Z" fill="#D29635"/>
<path d="M254.646 187.031H224.994C227.822 182.633 229.673 177.614 230.305 172.429C231.092 166.035 229.918 160.307 227.555 154.754C228.131 154.509 228.727 154.333 229.375 154.264C229.584 154.242 229.793 154.23 230.001 154.23C231.76 154.23 233.475 154.982 235.103 155.717C240.359 158.066 247.61 159.552 249.906 165.526C252.517 172.315 254.02 179.733 254.646 187.031Z" fill="#D29635"/>
<path d="M258.704 201.619H113.847C109.816 201.619 106.551 198.354 106.551 194.324C106.551 190.296 109.816 187.031 113.847 187.031H258.704C262.735 187.031 266 190.296 266 194.324C266 198.354 262.735 201.619 258.704 201.619Z" fill="#CA7300"/>
<path d="M258.704 201.619C261.68 201.619 264.238 199.838 265.374 197.285C264.241 199.838 261.68 201.619 258.704 201.619Z" fill="#191146"/>
<path d="M258.704 201.619H232.623C234.755 199.857 236.144 197.23 236.144 194.249V192.253C236.144 190.992 235.897 189.792 235.451 188.693H263.286C262.05 187.685 260.503 187.053 258.791 187.031C259.445 187.039 260.082 187.134 260.684 187.304H260.686C262.395 187.783 263.848 188.871 264.802 190.321C265.56 191.471 265.999 192.846 265.999 194.324C265.999 195.379 265.777 196.381 265.373 197.285C264.237 199.838 261.68 201.619 258.704 201.619Z" fill="#BD6000"/>
<path d="M106.69 195.713C106.604 195.262 106.551 194.8 106.551 194.324C106.551 190.296 109.816 187.031 113.847 187.031H234.583C234.922 187.552 235.215 188.108 235.451 188.693H114.957C110.79 188.693 107.356 191.732 106.69 195.713Z" fill="#E19B1C"/>
<path d="M263.286 188.693H235.451C235.215 188.108 234.922 187.552 234.583 187.031H258.704C258.721 187.031 258.735 187.031 258.749 187.031C258.757 187.031 258.766 187.031 258.774 187.031C258.78 187.031 258.784 187.031 258.791 187.031C260.502 187.053 262.05 187.685 263.286 188.693Z" fill="#DA8E1C"/>
</svg>
