<svg width="372" height="186" viewBox="0 0 372 186" fill="none" xmlns="http://www.w3.org/2000/svg">
<path d="M57.4487 4.70044L57.4315 4.82299L57.4422 5.02993C57.1666 12.7589 57.0476 20.8419 57.656 28.737C58.6081 43.7892 62.0698 58.3321 71.7677 69.4271L71.808 69.4333C72.0507 69.7573 72.3007 70.0406 72.5888 70.3292C71.9409 69.948 71.3336 69.5721 70.6795 69.2317C65.8144 66.5519 60.8794 64.9397 55.072 67.1265C53.6708 67.6712 52.4804 68.4937 51.6242 69.5695C49.0168 72.5025 48.537 77.0206 50.5741 80.6999C52.0902 83.396 54.572 85.4032 57.0827 87.2061C61.2146 90.1092 65.5995 92.6774 70.1814 94.7362L70.055 94.758L70.0144 94.7519C67.8049 95.7596 65.2814 96.0619 62.8867 96.6284C59.5612 97.3528 55.9516 98.3251 54.0943 101.201L53.8699 101.623C52.3772 104.259 52.9167 107.726 54.5306 110.311C56.255 112.996 58.9572 114.91 61.6942 116.58C66.2305 119.252 71.2922 120.553 75.8623 122.983C79.2007 124.78 84.2229 128.969 88.2717 128.677C87.3112 128.748 86.392 128.822 85.426 128.933L85.3441 128.923C82.2558 129.143 79.1144 129.438 76.0198 129.699C71.9527 130.11 67.4931 133.855 69.1601 137.521C69.3167 137.875 69.5539 138.24 69.8029 138.523C71.1507 140.078 73.5464 140.666 75.6347 141.088C86.0539 143.071 96.6228 144.868 106.128 149.489C114.743 153.692 122.062 160.027 128.351 167.203C131.158 170.414 134.334 173.347 137.141 176.557C139.306 179.055 140.295 181.098 143.777 182.173L143.975 182.241L144.013 182.247C144.455 182.351 144.82 182.403 145.247 182.3L145.784 182.005C146.729 181.188 146.263 179.222 145.669 177.899C144.436 175.243 143.51 172.466 142.924 169.614L142.93 169.573C141.57 163.47 141.534 157.061 142.135 150.825C142.99 141.65 145.06 132.649 145.994 123.485C146.375 119.945 146.367 115.936 143.829 113.466C143.028 112.69 142.029 112.175 140.948 111.938C139.402 111.47 137.69 111.598 136.168 112.126C133.64 113.044 131.611 115.111 130.24 117.477C130.373 117.123 130.512 116.731 130.604 116.372L130.616 116.29C132.247 111.524 133.796 106.745 135.386 101.973C136.902 97.436 138.428 92.8198 138.779 88.0348C139.084 83.5766 138.291 76.1064 134.183 73.3313L133.605 73.0426L133.569 72.9962C131.406 71.945 128.6 72.7838 126.611 74.2762C124.494 75.7932 122.921 77.8411 120.878 79.4071L120.833 79.4424L120.549 79.6903C124.059 70.4417 123.993 59.894 120.433 50.6672C119.698 48.8697 118.837 47.0941 117.314 45.8849L117.24 45.8332C114.555 43.7961 110.593 44.3489 107.763 46.2172C105.022 48.0582 103.132 50.8851 101.366 53.6929L101.205 53.9598C102.593 51.7593 98.3282 43.1343 97.3037 41.0482C95.26 36.8297 92.5761 33.0578 89.289 29.738C84.4869 24.8822 79.7942 20.1217 74.4071 15.8814C72.9963 14.7703 62.6573 8.75158 58.838 5.97372C57.9763 5.35553 57.4253 4.86384 57.4487 4.70044Z" fill="#007537"/>
<path d="M57.2869 10.2969C57.3231 8.45866 57.374 6.63398 57.4315 4.82294L57.4421 5.02988C57.3806 6.77013 57.3261 8.52674 57.2869 10.2969Z" fill="#13114C"/>
<path d="M82.657 83.281C80.9018 81.1676 78.9325 79.2313 76.7805 77.5237C75.2508 76.3581 73.6252 75.2742 71.721 75.0073L71.6306 74.9992C71.3963 74.972 71.1646 74.9583 70.9325 74.9583C67.8889 74.9583 65.1102 77.2786 63.7401 80.0809C63.5486 80.4785 63.3795 80.8844 63.2294 81.2956C61.1038 80.1082 59.0273 78.8473 57.1498 77.3113C55.3041 75.7671 53.6252 73.9152 52.486 71.7692C52.121 71.1374 51.9073 70.3231 51.6401 69.5823C49.2999 72.2158 48.6743 76.1239 50.0412 79.5554C50.0371 79.5533 50.0328 79.5492 50.0275 79.5472C49.5455 78.338 49.3104 77.0716 49.3104 75.8243C49.3093 73.5203 50.1062 71.2762 51.6242 69.5687C52.4805 68.4929 53.6708 67.6705 55.072 67.1258C56.9656 66.4123 58.7666 66.1046 60.5027 66.1046C64.0911 66.1046 67.4005 67.4254 70.6795 69.231C71.3336 69.5714 71.941 69.9472 72.5889 70.3285C72.3007 70.0398 72.0507 69.7566 71.808 69.4325C73.6251 70.3095 75.5794 70.7969 77.3975 71.6739C79.3622 72.6053 81.0803 73.9289 82.6569 75.4294L82.657 83.281ZM82.6569 66.8862C80.7644 63.1442 78.4346 59.5821 75.9696 56.1833C70.7506 49.0344 64.8081 42.3185 60.5027 34.5568C59.4496 32.6695 58.4901 30.7169 57.656 28.737C57.1965 22.6066 57.1647 16.3919 57.287 10.297C57.3262 8.52676 57.3806 6.77015 57.4422 5.02991C57.473 5.0681 57.5051 5.10347 57.537 5.1388L57.6336 5.43021C58.8093 9.06865 60.204 12.6145 61.7326 16.0977C64.9263 23.2466 68.873 30.0496 73.5145 36.3297C76.6241 40.5183 80.0294 44.5461 82.6569 49.0288V66.8862Z" fill="#00622A"/>
<path d="M62.0283 89.9343C62.0283 89.9322 62.0283 89.9281 62.0283 89.9281C62.0155 87.3409 54.1338 82.1747 52.2242 80.9137C51.5071 80.4371 50.7805 79.9851 50.0411 79.5548C48.6742 76.1233 49.2998 72.2152 51.64 69.5817C51.9072 70.3225 52.1209 71.1368 52.4859 71.7686C53.6251 73.9147 55.304 75.7665 57.1497 77.3107C59.0272 78.8467 61.1038 80.1076 63.2294 81.295C62.2729 83.9312 62.1166 86.8289 62.0327 89.664L62.0283 89.9343Z" fill="#004719"/>
<path d="M82.6568 75.4294C81.0803 73.9289 79.3621 72.6053 77.3974 71.6739C75.5793 70.7969 73.625 70.3095 71.808 69.4325L71.7677 69.4264C62.0697 58.3313 58.608 43.7884 57.6559 28.7363C58.4901 30.7162 59.4495 32.6688 60.5026 34.5561C64.8081 42.3178 70.7505 49.0337 75.9696 56.1826C78.4345 59.5814 80.7644 63.1435 82.6568 66.8855V75.4294Z" fill="#004719"/>
<path d="M82.6569 26.3105C76.6453 19.8942 69.8804 14.1506 62.5815 9.27571C61.2165 8.3525 58.9931 6.79472 57.5369 5.13889L57.4315 4.82299L57.4487 4.70044C57.4476 4.70657 57.4476 4.70859 57.4476 4.71471C57.4507 4.88629 57.9953 5.37106 58.8368 5.97291C62.6561 8.75077 72.9951 14.7695 74.4058 15.8806C77.3166 18.171 80.025 20.6138 82.6569 23.1411V26.3105Z" fill="#00954D"/>
<path d="M57.5369 5.13896C57.5051 5.10363 57.4729 5.06806 57.4421 5.03007L57.4315 4.82312L57.5369 5.13896Z" fill="#008641"/>
<path d="M0 69.901L0.0457527 70.0127L0.159581 70.1843C3.80102 76.9165 7.7521 83.8693 12.2318 90.2992C20.5923 102.663 30.8402 113.331 44.6752 117.931L44.7136 117.914C45.0827 118.07 45.437 118.187 45.8286 118.287C45.0848 118.287 44.3784 118.271 43.6499 118.309C38.1563 118.465 33.1382 119.565 29.2808 124.344C28.3594 125.51 27.754 126.809 27.5647 128.154C26.8106 131.967 28.6691 136.06 32.2509 138.176C34.8956 139.715 38.0201 140.184 41.0667 140.461C46.0465 140.867 51.0752 140.859 56.0157 140.317L55.9198 140.399L55.8817 140.415C54.5017 142.381 52.5017 143.904 50.7432 145.59C48.2687 147.874 45.6785 150.513 45.5358 153.899L45.5562 154.372C45.6061 157.371 47.8039 160.056 50.4774 161.454C53.2945 162.877 56.5593 163.156 59.7315 163.207C64.941 163.213 69.9112 161.782 75.0282 161.562C76.0165 161.524 77.1878 161.57 78.439 161.616C81.9304 161.744 86.0334 161.875 88.4697 160.197C87.6857 160.737 86.94 161.262 86.1707 161.843L86.0963 161.873C83.5706 163.61 81.0401 165.438 78.5316 167.213C75.2687 169.601 73.3421 175.032 76.6029 177.325C76.9133 177.548 77.2984 177.739 77.6527 177.856C79.5836 178.507 81.9219 177.81 83.9154 177.121C93.7961 173.586 103.714 169.819 114.14 168.992C123.596 168.259 133.015 169.991 141.981 172.959C145.985 174.289 150.166 175.198 154.169 176.527C157.268 177.573 159.136 178.82 162.647 177.989L162.848 177.951L162.887 177.935C163.314 177.804 163.649 177.665 163.962 177.36L164.273 176.839C164.671 175.671 163.287 174.225 162.116 173.395C159.733 171.747 157.549 169.843 155.621 167.705L155.604 167.667C151.383 163.144 148.137 157.695 145.522 152.073C141.65 143.819 138.9 135.101 135.102 126.817C133.652 123.606 131.637 120.188 128.231 119.357C127.16 119.096 126.048 119.159 125.008 119.499C123.455 119.875 122.058 120.842 121.024 122.054C119.33 124.107 118.634 126.888 118.652 129.592C118.588 129.224 118.509 128.821 118.408 128.467L118.377 128.394C117.377 123.508 116.303 118.655 115.264 113.785C114.282 109.158 113.27 104.455 111.17 100.196C109.193 96.2385 104.771 90.2661 99.874 89.9584L99.2356 90.0019L99.1825 89.9801C96.8091 90.168 94.8368 92.2895 93.8888 94.5608C92.843 96.9165 92.5282 99.452 91.5729 101.813L91.5506 101.868L91.4346 102.222C89.7891 92.5701 84.4434 83.6074 76.7806 77.5234C75.2509 76.3578 73.6253 75.2739 71.7211 75.007L71.6306 74.9988C68.319 74.6094 65.2146 77.0659 63.7402 80.0807C62.3232 83.0246 62.1296 86.3853 62.0329 89.6642L62.0274 89.972C62.1093 87.4011 54.1456 82.1831 52.2243 80.914C48.3669 78.3431 44.1848 76.4721 39.7158 75.2902C33.1829 73.5527 26.7936 71.8451 20.0722 70.9328C18.3116 70.6931 6.47248 70.7422 1.82366 70.29C0.777876 70.1946 0.0618215 70.0508 0 69.901Z" fill="#009245"/>
<path d="M47.9584 140.75C45.667 140.75 43.3712 140.652 41.0871 140.467C40.1064 140.374 39.1159 140.265 38.1371 140.107C39.1096 140.265 40.0925 140.371 41.0669 140.461C43.351 140.649 45.6457 140.747 47.9372 140.747C50.6412 140.747 53.3412 140.608 56.0158 140.317L56.0093 140.323C53.3434 140.614 50.6529 140.75 47.9584 140.75Z" fill="#0D0F3F"/>
<path d="M59.775 163.21C59.7676 163.21 59.7603 163.21 59.7526 163.21C58.0772 163.182 56.3751 163.093 54.7272 162.804C56.3688 163.09 58.0622 163.18 59.7314 163.207C59.7402 163.207 59.7486 163.207 59.7559 163.207C64.957 163.207 69.9196 161.782 75.0281 161.562C75.2803 161.552 75.5453 161.548 75.8206 161.548C76.6208 161.548 77.508 161.581 78.4389 161.616C79.3708 161.651 80.3463 161.684 81.3229 161.684C84.0025 161.684 86.6834 161.425 88.4697 160.197C88.3665 160.268 88.2632 160.338 88.16 160.409C86.3835 161.458 83.8633 161.687 81.3431 161.687C80.3676 161.687 79.3921 161.654 78.4601 161.619C77.5304 161.586 76.6431 161.551 75.8429 161.551C75.5676 161.551 75.3015 161.557 75.0485 161.565C69.9389 161.785 64.9761 163.21 59.775 163.21Z" fill="#0D0F3F"/>
<path d="M79.3814 178.121C79.0579 178.121 78.7398 178.096 78.4293 178.047C78.7335 178.093 79.044 178.115 79.3602 178.115C80.8697 178.115 82.4812 177.616 83.9153 177.12C90.6769 174.702 97.4568 172.175 104.404 170.555C104.406 170.557 104.406 170.561 104.41 170.563C97.4673 172.18 90.6928 174.708 83.9353 177.126C82.5025 177.619 80.8921 178.121 79.3814 178.121Z" fill="#0D0F3F"/>
<path d="M2.69167 74.7949C1.79268 73.1962 0.913026 71.6003 0.0458984 70.0126L0.159727 70.1841C0.987364 71.7119 1.82999 73.2534 2.69167 74.7949Z" fill="#13114E"/>
<path d="M78.4294 178.047C78.1644 178.003 77.906 177.941 77.6527 177.856C77.2984 177.739 76.9133 177.548 76.6028 177.325C75.4187 176.492 74.9187 175.244 74.9187 173.88C74.9187 171.489 76.4538 168.732 78.5315 167.213C81.04 165.438 83.5706 163.61 86.0963 161.873L86.1706 161.843C86.8378 161.339 87.4877 160.878 88.1601 160.41C88.2738 160.345 88.3845 160.274 88.492 160.2C87.7069 160.74 86.9601 161.267 86.191 161.845C89.058 160.729 91.9314 159.626 94.8441 158.694C96.6674 161.323 98.6525 163.898 100.772 166.421C96.8057 168.702 93.0899 171.396 89.0909 173.695C85.5685 175.666 81.7209 177.379 77.6729 177.859C77.9196 177.943 78.1718 178.003 78.4294 178.047ZM54.7272 162.803C53.2487 162.545 51.8124 162.126 50.4774 161.454C47.8038 160.056 45.6061 157.371 45.5562 154.372L45.5358 153.898C45.6785 150.513 48.2687 147.874 50.7432 145.59C52.5017 143.904 54.5017 142.381 55.8817 140.415L55.9198 140.398L56.0091 140.322C56.0179 140.32 56.0273 140.32 56.0369 140.32L55.9399 140.405C61.9401 138.071 68.2772 136.559 74.6749 135.944C66.9125 133.245 58.6603 132.161 50.455 132.161C49.757 132.161 49.0593 132.169 48.3613 132.183C46.1456 132.237 43.9189 132.357 41.7018 132.357C39.8434 132.357 37.9923 132.273 36.1605 131.989C33.8116 131.597 31.4518 130.859 29.403 129.601C28.7753 129.247 28.1837 128.656 27.586 128.16C26.8318 131.97 28.6892 136.064 32.271 138.18C34.0646 139.223 36.0775 139.776 38.1369 140.108C36.0701 139.776 34.0499 139.223 32.2508 138.177C29.1998 136.374 27.4008 133.139 27.3989 129.865C27.3989 129.293 27.453 128.721 27.5647 128.155C27.754 126.809 28.3594 125.51 29.2807 124.345C33.1381 119.565 38.1562 118.465 43.6499 118.31C44.039 118.291 44.4211 118.285 44.8073 118.285C45.1434 118.285 45.4816 118.287 45.8286 118.287C45.4369 118.187 45.0826 118.069 44.7136 117.914C46.7028 117.753 48.6157 117.187 50.6062 117.026C51.0828 116.983 51.5583 116.964 52.0327 116.964C55.7645 116.964 59.4379 118.203 62.9698 119.428C57.5849 112.497 49.6721 108.045 41.619 104.526C33.5818 101.046 25.1444 98.2976 17.5797 93.8367C15.7351 92.7555 13.935 91.5709 12.2318 90.2991C8.77553 85.3153 5.63818 80.0428 2.69147 74.7948C1.82979 73.2534 0.987183 71.7119 0.159546 70.1841C0.204216 70.2004 0.248869 70.2141 0.293539 70.2305L0.523394 70.4292C3.35109 72.9429 6.31904 75.2687 9.36923 77.4719C15.6796 81.971 22.4584 85.7919 29.5669 88.823C34.8114 91.0453 40.2636 92.919 45.1093 95.8738C54.49 101.558 60.9826 110.97 69.8368 117.397C70.2113 117.683 70.6751 117.963 71.1432 117.963C71.2326 117.963 71.323 117.953 71.4134 117.931C72.2824 117.705 72.3699 116.531 72.2187 115.629C71.3943 111.068 68.373 106.269 70.476 102.124C70.9251 101.198 71.8007 100.356 72.8473 100.356C72.8516 100.356 72.8548 100.356 72.8581 100.356C73.4368 100.384 73.9951 100.678 74.4804 101.005C79.3961 104.352 80.5729 110.73 82.6568 116.441V124.341C82.6568 133.941 85.661 143.231 90.6494 152.039C87.4622 151.368 84.2514 150.949 81.04 150.949C79.3185 150.949 77.5984 151.068 75.878 151.335C71.3229 152.068 66.9856 153.762 62.5177 155.028C59.574 155.838 56.5178 156.464 53.5005 156.464C51.9229 156.464 50.3569 156.292 48.8231 155.886C47.8806 155.616 46.7166 154.914 45.5763 154.375C45.6261 157.374 47.8242 160.059 50.4985 161.456C51.8273 162.128 53.2561 162.545 54.7272 162.803Z" fill="#007F36"/>
<path d="M47.9371 140.747C45.6456 140.747 43.3509 140.649 41.0668 140.461C40.0923 140.371 39.1095 140.265 38.137 140.107C36.0775 139.775 34.0647 139.222 32.2711 138.179C28.6893 136.063 26.8319 131.97 27.586 128.16C28.1838 128.655 28.7753 129.246 29.4031 129.6C31.4519 130.859 33.8117 131.597 36.1606 131.989C37.9924 132.272 39.8434 132.356 41.7019 132.356C43.919 132.356 46.1456 132.236 48.3614 132.182C49.0594 132.168 49.7571 132.16 50.4551 132.16C58.6604 132.16 66.9125 133.244 74.675 135.943C68.2772 136.559 61.9402 138.07 55.94 140.404L56.037 140.32C56.0274 140.32 56.018 140.32 56.0092 140.322L56.0157 140.316C53.3411 140.607 50.6411 140.747 47.9371 140.747Z" fill="#006422"/>
<path d="M59.756 163.207C59.7486 163.207 59.7403 163.207 59.7315 163.207C58.0623 163.18 56.3689 163.09 54.7273 162.804C53.2561 162.545 51.8274 162.128 50.4987 161.456C47.8243 160.059 45.6263 157.374 45.5764 154.375C46.7167 154.914 47.8807 155.616 48.8232 155.886C50.357 156.292 51.923 156.464 53.5007 156.464C56.5179 156.464 59.5741 155.838 62.5178 155.028C66.9858 153.762 71.323 152.068 75.8782 151.335C77.5985 151.068 79.3186 150.949 81.0401 150.949C84.2515 150.949 87.4624 151.368 90.6495 152.039C91.9227 154.291 93.3283 156.51 94.8441 158.694C91.9314 159.626 89.058 160.729 86.1911 161.845C86.9602 161.267 87.7069 160.74 88.4921 160.2C88.3844 160.274 88.2739 160.345 88.1601 160.41C88.2633 160.339 88.3665 160.268 88.4697 160.197C86.6835 161.426 84.0026 161.684 81.323 161.684C80.3464 161.684 79.3709 161.651 78.439 161.616C77.5081 161.581 76.6208 161.548 75.8207 161.548C75.5454 161.548 75.2804 161.552 75.0282 161.562C69.9197 161.783 64.9571 163.207 59.756 163.207Z" fill="#006422"/>
<path d="M79.3602 178.115C79.0441 178.115 78.7336 178.093 78.4294 178.047C78.1718 178.003 77.9196 177.943 77.6729 177.859C81.7209 177.379 85.5685 175.666 89.0909 173.695C93.0899 171.396 96.8057 168.702 100.772 166.421C101.942 167.815 103.156 169.196 104.404 170.555C97.4569 172.175 90.677 174.702 83.9154 177.12C82.4813 177.616 80.8698 178.115 79.3602 178.115Z" fill="#006422"/>
<path d="M62.9699 119.429C59.4379 118.203 55.7646 116.964 52.0327 116.964C51.5583 116.964 51.0828 116.982 50.6062 117.027C48.6157 117.187 46.7028 117.754 44.7136 117.914L44.6752 117.931C30.8402 113.331 20.5923 102.663 12.2318 90.2992C13.935 91.571 15.7352 92.7557 17.5797 93.8369C25.1445 98.2978 33.5818 101.046 41.619 104.526C49.6721 108.045 57.5849 112.497 62.9699 119.429Z" fill="#006422"/>
<path d="M64.6189 97.8783C63.9527 97.32 63.4421 96.6119 63.1038 95.7895C62.7656 94.9643 62.0976 94.1881 61.5346 93.4583C60.9698 92.7257 60.3698 92.0095 59.7849 91.3313C58.3954 89.7572 56.8474 88.3383 55.2423 86.9848C53.5987 85.6449 51.8732 84.4303 50.0667 83.3355C48.2445 82.1998 46.3784 81.1731 44.4157 80.2281C42.4668 79.3239 40.4976 78.4687 38.4839 77.7225C36.47 76.9736 34.4487 76.3146 32.4061 75.71C24.0404 73.2398 15.367 71.7284 6.67229 71.23C5.04588 71.1265 2.36608 70.9113 0.293582 70.2305L0.0457527 70.0126L0 69.9009C0.0618277 70.0506 0.777798 70.195 1.82358 70.2903C6.4724 70.7424 18.3115 70.6934 20.0722 70.9331C26.7935 71.8454 33.1828 73.553 39.7157 75.2905C44.1848 76.4724 48.3668 78.3434 52.2242 80.9142C54.1338 82.1752 62.0156 87.3414 62.0284 89.9286C62.0284 89.9286 62.0284 89.9307 62.0284 89.9348L62.0327 89.6652L62.2102 90.2044C62.3837 91.0514 62.5346 91.9528 62.7454 92.7862C62.8549 93.2655 62.9867 93.6931 63.1337 94.1588C63.4134 95.0493 63.692 95.9398 64.0453 96.8031C64.1624 97.1926 64.3901 97.5352 64.6189 97.8783Z" fill="#00B15E"/>
<path d="M0.29372 70.2305C0.24905 70.2142 0.204397 70.2005 0.159727 70.1841L0.0458984 70.0126L0.29372 70.2305Z" fill="#00A451"/>
<path d="M82.6567 85.3997C80.7449 82.3931 78.4845 79.6398 75.7557 77.3739C74.5217 76.3935 73.212 75.4431 71.7207 75.0073C73.6249 75.2742 75.2505 76.3581 76.7802 77.5237C78.9322 79.2313 80.9015 81.1676 82.6567 83.281V85.3997Z" fill="#00B15E"/>
<path d="M314.552 4.70044L314.568 4.82299L314.558 5.02993C314.833 12.7589 314.953 20.8419 314.346 28.737C313.393 43.7892 309.931 58.3321 300.233 69.4271L300.192 69.4333C299.95 69.7573 299.702 70.0406 299.411 70.3292C300.059 69.948 300.666 69.5721 301.32 69.2317C306.187 66.5519 311.121 64.9397 316.93 67.1265C318.33 67.6712 319.52 68.4937 320.375 69.5695C322.984 72.5025 323.464 77.0206 321.427 80.6999C319.912 83.396 317.429 85.4032 314.918 87.2061C310.786 90.1092 306.402 92.6774 301.818 94.7362L301.946 94.758L301.987 94.7519C304.196 95.7596 306.72 96.0619 309.114 96.6284C312.439 97.3528 316.048 98.3251 317.905 101.201L318.131 101.623C319.624 104.259 319.085 107.726 317.47 110.311C315.746 112.996 313.044 114.91 310.307 116.58C305.773 119.252 300.71 120.553 296.14 122.983C292.801 124.78 287.779 128.969 283.73 128.677C284.688 128.748 285.609 128.822 286.575 128.933L286.657 128.923C289.746 129.143 292.886 129.438 295.982 129.699C300.048 130.11 304.506 133.855 302.842 137.521C302.684 137.875 302.447 138.24 302.2 138.523C300.851 140.078 298.455 140.666 296.366 141.088C285.946 143.071 275.377 144.868 265.872 149.489C257.258 153.692 249.941 160.027 243.649 167.203C240.842 170.414 237.666 173.347 234.861 176.557C232.696 179.055 231.705 181.098 228.224 182.173L228.028 182.241L227.987 182.247C227.546 182.351 227.181 182.403 226.754 182.3L226.217 182.005C225.272 181.188 225.738 179.222 226.331 177.899C227.565 175.243 228.491 172.466 229.077 169.614L229.071 169.573C230.432 163.47 230.468 157.061 229.866 150.825C229.013 141.65 226.944 132.649 226.007 123.485C225.625 119.945 225.634 115.936 228.172 113.466C228.972 112.69 229.972 112.175 231.053 111.938C232.6 111.47 234.31 111.598 235.833 112.126C238.36 113.044 240.392 115.111 241.762 117.477C241.628 117.123 241.489 116.731 241.397 116.372L241.386 116.29C239.755 111.524 238.205 106.745 236.615 101.973C235.101 97.436 233.576 92.8198 233.224 88.0348C232.917 83.5766 233.712 76.1064 237.819 73.3313L238.399 73.0426L238.432 72.9962C240.597 71.945 243.402 72.7838 245.392 74.2762C247.509 75.7932 249.08 77.8411 251.122 79.4071L251.169 79.4424L251.452 79.6903C247.944 70.4417 248.01 59.894 251.569 50.6672C252.304 48.8697 253.165 47.0941 254.687 45.8849L254.764 45.8332C257.449 43.7961 261.409 44.3489 264.238 46.2172C266.981 48.0582 268.871 50.8851 270.635 53.6929L270.796 53.9598C269.41 51.7593 273.675 43.1343 274.699 41.0482C276.741 36.8297 279.427 33.0578 282.714 29.738C287.515 24.8822 292.207 20.1217 297.594 15.8814C299.005 14.7703 309.346 8.75158 313.164 5.97372C314.024 5.35553 314.574 4.86384 314.552 4.70044Z" fill="#007537"/>
<path d="M314.715 10.335C314.674 8.55392 314.62 6.78375 314.557 5.02988L314.568 4.82294C314.625 6.64488 314.677 8.48312 314.715 10.335Z" fill="#13114C"/>
<path d="M289.344 83.281V75.4268C290.921 73.9289 292.637 72.6053 294.603 71.6739C296.42 70.797 298.375 70.3096 300.192 69.4326C299.949 69.7567 299.701 70.0399 299.41 70.3286C300.058 69.9473 300.665 69.5715 301.319 69.2311C304.598 67.4255 307.91 66.1046 311.496 66.1046C313.234 66.1046 315.034 66.4124 316.93 67.1259C318.329 67.6706 319.519 68.493 320.375 69.5687C321.894 71.2763 322.689 73.5204 322.689 75.8244C322.689 77.0717 322.455 78.3381 321.973 79.5473C321.967 79.5493 321.963 79.5534 321.959 79.5554C323.326 76.1212 322.7 72.2132 320.358 69.5824C320.093 70.3231 319.878 71.1374 319.513 71.7692C318.372 73.9153 316.695 75.7672 314.848 77.3114C312.972 78.8474 310.897 80.1083 308.77 81.2956C308.62 80.8844 308.451 80.4786 308.26 80.081C306.888 77.2787 304.11 74.9583 301.068 74.9583C300.836 74.9583 300.602 74.9727 300.371 74.9992L300.278 75.0074C298.374 75.2743 296.749 76.3582 295.221 77.5238C293.067 79.2314 291.101 81.1677 289.344 83.281ZM289.344 66.8862V49.029C291.972 44.5463 295.376 40.5184 298.486 36.3299C303.127 30.0497 307.073 23.2467 310.268 16.0978C311.795 12.6146 313.19 9.06877 314.366 5.43033L314.462 5.13893C314.494 5.10359 314.527 5.06802 314.557 5.03003C314.62 6.7839 314.674 8.55406 314.715 10.3352C314.835 16.4192 314.802 22.6204 314.345 28.7371C313.511 30.717 312.55 32.6697 311.496 34.557C307.19 42.3186 301.248 49.0345 296.03 56.1834C293.565 59.5822 291.237 63.1443 289.344 66.8862Z" fill="#00622A"/>
<path d="M309.971 89.9342L309.969 89.6646C309.885 86.8295 309.727 83.9318 308.771 81.2956C310.898 80.1082 312.973 78.8473 314.849 77.3113C316.696 75.7671 318.373 73.9152 319.515 71.7692C319.879 71.1374 320.095 70.3231 320.359 69.5823C322.701 72.2131 323.327 76.1212 321.96 79.5554C321.222 79.9857 320.492 80.4377 319.776 80.9144C317.867 82.1753 309.985 87.3415 309.972 89.9288C309.972 89.9288 309.971 89.9301 309.971 89.9342Z" fill="#004719"/>
<path d="M289.344 75.4267V66.8861C291.237 63.1442 293.565 59.582 296.03 56.1833C301.248 49.0344 307.191 42.3185 311.496 34.5568C312.55 32.6695 313.512 30.7169 314.345 28.7369C313.392 43.7891 309.93 58.332 300.232 69.4271L300.191 69.4332C298.375 70.3102 296.42 70.7976 294.603 71.6746C292.637 72.606 290.921 73.9288 289.344 75.4267Z" fill="#004719"/>
<path d="M289.344 26.3104V23.1404C291.975 20.6131 294.682 18.1702 297.593 15.8799C299.004 14.7687 309.345 8.75004 313.163 5.97218C314.004 5.37033 314.549 4.88556 314.552 4.71398C314.552 4.70786 314.552 4.70577 314.552 4.69965L314.568 4.82226L314.462 5.1381C313.008 6.79392 310.785 8.35171 309.418 9.27491C302.12 14.1498 295.355 19.8941 289.344 26.3104Z" fill="#00954D"/>
<path d="M314.462 5.13884L314.568 4.82294L314.558 5.02988C314.528 5.06808 314.495 5.10351 314.462 5.13884Z" fill="#008641"/>
<path d="M371.999 69.901L371.953 70.0127L371.838 70.1843C368.197 76.9165 364.248 83.8693 359.768 90.2992C351.408 102.663 341.159 113.331 327.325 117.931L327.286 117.914C326.916 118.07 326.562 118.187 326.17 118.287C326.916 118.287 327.621 118.271 328.351 118.309C333.844 118.465 338.861 119.565 342.72 124.344C343.64 125.51 344.245 126.809 344.436 128.154C345.19 131.967 343.333 136.06 339.749 138.176C337.104 139.715 333.981 140.184 330.933 140.461C325.952 140.867 320.925 140.859 315.984 140.317L316.08 140.399L316.118 140.415C317.499 142.381 319.498 143.904 321.257 145.59C323.733 147.874 326.323 150.513 326.464 153.899L326.446 154.372C326.394 157.371 324.196 160.056 321.525 161.454C318.706 162.877 315.441 163.156 312.268 163.207C307.058 163.213 302.09 161.782 296.973 161.562C295.985 161.524 294.814 161.57 293.564 161.616C290.069 161.744 285.965 161.875 283.531 160.197C284.315 160.737 285.061 161.262 285.829 161.843L285.905 161.873C288.43 163.61 290.96 165.438 293.471 167.213C296.734 169.601 298.659 175.032 295.399 177.325C295.089 177.548 294.702 177.739 294.348 177.856C292.417 178.507 290.078 177.81 288.087 177.121C278.204 173.586 268.288 169.819 257.863 168.992C248.404 168.259 238.984 169.991 230.019 172.959C226.015 174.289 221.835 175.198 217.832 176.527C214.732 177.573 212.864 178.82 209.354 177.989L209.152 177.951L209.114 177.935C208.686 177.804 208.351 177.665 208.038 177.36L207.728 176.839C207.333 175.671 208.714 174.225 209.885 173.395C212.27 171.747 214.452 169.843 216.38 167.705L216.396 167.667C220.617 163.144 223.861 157.695 226.478 152.073C230.351 143.819 233.102 135.101 236.898 126.817C238.349 123.606 240.365 120.188 243.769 119.357C244.839 119.096 245.953 119.159 246.993 119.499C248.546 119.875 249.943 120.842 250.978 122.054C252.672 124.107 253.366 126.888 253.35 129.592C253.413 129.224 253.491 128.821 253.592 128.467L253.625 128.394C254.624 123.508 255.697 118.655 256.735 113.785C257.718 109.158 258.731 104.455 260.831 100.196C262.808 96.2385 267.231 90.2661 272.125 89.9584L272.765 90.0019L272.817 89.9801C275.191 90.168 277.163 92.2895 278.111 94.5608C279.157 96.9165 279.473 99.452 280.426 101.813L280.45 101.868L280.567 102.222C282.212 92.5701 287.558 83.6074 295.222 77.5234C296.75 76.3578 298.375 75.2739 300.279 75.007L300.372 74.9988C303.681 74.6094 306.785 77.0659 308.261 80.0807C309.677 83.0246 309.871 86.3853 309.969 89.6642L309.975 89.972C309.893 87.4011 317.856 82.1831 319.776 80.914C323.635 78.3431 327.816 76.4721 332.285 75.2902C338.818 73.5527 345.207 71.8451 351.929 70.9328C353.691 70.6931 365.529 70.7422 370.178 70.29C371.224 70.1946 371.939 70.0508 371.999 69.901Z" fill="#009245"/>
<path d="M324.043 140.75C321.347 140.75 318.656 140.614 315.99 140.322L315.984 140.316C318.658 140.607 321.357 140.746 324.061 140.746C326.354 140.746 328.65 140.648 330.932 140.46C331.902 140.373 332.88 140.264 333.846 140.109C332.874 140.267 331.888 140.376 330.911 140.466C328.628 140.651 326.333 140.75 324.043 140.75Z" fill="#0D0F3F"/>
<path d="M312.223 163.21C307.024 163.21 302.06 161.785 296.951 161.565C296.697 161.557 296.433 161.551 296.155 161.551C295.357 161.551 294.47 161.586 293.538 161.619C292.607 161.654 291.632 161.687 290.657 161.687C288.135 161.687 285.61 161.458 283.835 160.406C283.734 160.336 283.631 160.268 283.53 160.197C285.316 161.425 287.996 161.684 290.676 161.684C291.654 161.684 292.629 161.651 293.563 161.616C294.491 161.581 295.379 161.548 296.18 161.548C296.455 161.548 296.719 161.552 296.972 161.562C302.082 161.782 307.044 163.207 312.242 163.207C312.251 163.207 312.259 163.207 312.267 163.207C313.926 163.18 315.609 163.09 317.24 162.809C315.603 163.093 313.912 163.182 312.248 163.21C312.24 163.21 312.232 163.21 312.223 163.21Z" fill="#0D0F3F"/>
<path d="M292.618 178.12C291.109 178.12 289.497 177.619 288.064 177.126C281.305 174.708 274.529 172.18 267.582 170.56C267.584 170.558 267.588 170.554 267.59 170.552C274.537 172.173 281.321 174.702 288.086 177.121C289.519 177.616 291.131 178.115 292.64 178.115C292.95 178.115 293.258 178.093 293.557 178.047C293.25 178.096 292.936 178.12 292.618 178.12Z" fill="#0D0F3F"/>
<path d="M369.219 74.9582C370.112 73.3623 370.983 71.7664 371.838 70.1841L371.953 70.0126C371.06 71.6521 370.147 73.3051 369.219 74.9582Z" fill="#13114E"/>
<path d="M293.557 178.047C293.819 178.005 294.075 177.943 294.325 177.859C290.278 177.379 286.43 175.666 282.909 173.695C278.908 171.396 275.191 168.7 271.223 166.417C273.342 163.896 275.327 161.32 277.152 158.692C280.063 159.626 282.939 160.726 285.809 161.845C285.041 161.267 284.292 160.74 283.508 160.2C283.614 160.271 283.723 160.342 283.835 160.407C284.508 160.876 285.161 161.339 285.828 161.843L285.905 161.873C288.429 163.61 290.959 165.438 293.47 167.213C295.545 168.732 297.081 171.489 297.081 173.88C297.081 175.244 296.583 176.492 295.398 177.325C295.088 177.548 294.701 177.739 294.347 177.856C294.091 177.943 293.827 178.006 293.557 178.047ZM317.24 162.809C318.724 162.55 320.162 162.131 321.502 161.456C324.176 160.059 326.371 157.374 326.423 154.375C325.282 154.914 324.119 155.616 323.177 155.887C321.644 156.292 320.078 156.464 318.501 156.464C315.483 156.464 312.425 155.838 309.481 155.028C305.015 153.762 300.676 152.069 296.123 151.335C294.402 151.069 292.68 150.949 290.959 150.949C287.746 150.949 284.535 151.368 281.346 152.041C286.335 143.231 289.344 133.941 289.344 124.341V116.441C291.428 110.73 292.604 104.352 297.52 101.005C298.005 100.678 298.563 100.384 299.143 100.357C299.145 100.357 299.149 100.357 299.151 100.357C300.2 100.357 301.074 101.198 301.523 102.124C303.628 106.269 300.605 111.068 299.78 115.629C299.631 116.531 299.718 117.705 300.586 117.931C300.676 117.952 300.766 117.963 300.856 117.963C301.324 117.963 301.787 117.683 302.163 117.397C311.017 110.97 317.51 101.558 326.889 95.874C331.737 92.9191 337.189 91.0453 342.434 88.8231C349.542 85.7919 356.32 81.9711 362.631 77.472C365.681 75.2688 368.649 72.943 371.476 70.4293L371.705 70.2306C371.751 70.2142 371.795 70.2005 371.838 70.1842C370.983 71.7665 370.112 73.3624 369.218 74.9583C366.299 80.1518 363.189 85.3671 359.768 90.2992C358.066 91.571 356.266 92.7557 354.42 93.8368C346.854 98.2978 338.417 101.046 330.38 104.526C322.327 108.045 314.416 112.497 309.029 119.428C312.561 118.203 316.235 116.964 319.969 116.964C320.443 116.964 320.919 116.982 321.393 117.027C323.384 117.187 325.296 117.754 327.286 117.914C326.916 118.07 326.562 118.187 326.17 118.287C326.518 118.287 326.856 118.285 327.194 118.285C327.578 118.285 327.962 118.292 328.351 118.31C333.844 118.465 338.861 119.565 342.72 124.345C343.64 125.511 344.245 126.81 344.436 128.155C344.547 128.721 344.602 129.293 344.602 129.865C344.6 133.139 342.799 136.374 339.749 138.177C337.946 139.226 335.919 139.778 333.847 140.111C335.911 139.776 337.932 139.226 339.73 138.18C343.311 136.064 345.168 131.97 344.414 128.16C343.815 128.656 343.224 129.247 342.597 129.601C340.549 130.859 338.188 131.597 335.84 131.99C334.008 132.273 332.156 132.357 330.298 132.357C328.082 132.357 325.854 132.237 323.637 132.183C322.94 132.169 322.243 132.161 321.545 132.161C313.34 132.161 305.088 133.245 297.324 135.944C303.724 136.559 310.061 138.071 316.061 140.405L315.963 140.32C315.971 140.32 315.981 140.32 315.99 140.322L316.08 140.399L316.118 140.415C317.499 142.381 319.497 143.904 321.257 145.59C323.732 147.874 326.322 150.513 326.464 153.898L326.445 154.372C326.394 157.371 324.196 160.056 321.524 161.454C320.179 162.131 318.73 162.55 317.24 162.809Z" fill="#007F36"/>
<path d="M324.062 140.747C321.358 140.747 318.659 140.608 315.985 140.317L315.991 140.323C315.983 140.321 315.972 140.321 315.964 140.321L316.062 140.405C310.062 138.071 303.725 136.56 297.325 135.944C305.089 133.245 313.341 132.162 321.547 132.162C322.244 132.162 322.941 132.17 323.638 132.183C325.855 132.238 328.083 132.358 330.299 132.358C332.157 132.358 334.009 132.273 335.842 131.99C338.189 131.598 340.55 130.86 342.598 129.602C343.225 129.247 343.816 128.657 344.415 128.161C345.169 131.971 343.312 136.064 339.731 138.18C337.933 139.226 335.912 139.776 333.848 140.111C332.881 140.266 331.904 140.375 330.934 140.462C328.652 140.65 326.355 140.747 324.062 140.747Z" fill="#006422"/>
<path d="M312.242 163.207C307.043 163.207 302.081 161.782 296.972 161.562C296.719 161.552 296.455 161.548 296.18 161.548C295.379 161.548 294.491 161.581 293.563 161.616C292.629 161.651 291.654 161.684 290.676 161.684C287.996 161.684 285.316 161.425 283.53 160.197C283.63 160.268 283.734 160.336 283.835 160.406C283.723 160.342 283.614 160.27 283.508 160.2C284.292 160.739 285.041 161.267 285.809 161.844C282.939 160.725 280.063 159.626 277.152 158.691C278.666 156.509 280.071 154.287 281.346 152.04C284.535 151.368 287.746 150.949 290.959 150.949C292.68 150.949 294.402 151.068 296.123 151.335C300.676 152.068 305.015 153.762 309.481 155.028C312.425 155.837 315.483 156.464 318.501 156.464C320.078 156.464 321.644 156.291 323.177 155.886C324.119 155.616 325.282 154.914 326.423 154.375C326.371 157.373 324.176 160.059 321.502 161.455C320.162 162.131 318.724 162.55 317.24 162.808C315.609 163.089 313.925 163.18 312.267 163.206C312.259 163.206 312.251 163.207 312.242 163.207Z" fill="#006422"/>
<path d="M292.64 178.115C291.131 178.115 289.519 177.616 288.086 177.12C281.321 174.702 274.537 172.173 267.59 170.551C268.837 169.193 270.052 167.812 271.223 166.417C275.191 168.7 278.908 171.396 282.909 173.695C286.43 175.666 290.278 177.379 294.325 177.859C294.075 177.943 293.819 178.006 293.557 178.047C293.258 178.093 292.95 178.115 292.64 178.115Z" fill="#006422"/>
<path d="M309.029 119.428C314.416 112.497 322.327 108.045 330.38 104.526C338.417 101.046 346.854 98.2976 354.42 93.8367C356.266 92.7556 358.066 91.5709 359.768 90.2991C351.407 102.663 341.159 113.331 327.325 117.931L327.286 117.914C325.296 117.753 323.384 117.187 321.393 117.026C320.919 116.983 320.443 116.964 319.969 116.964C316.235 116.964 312.561 118.203 309.029 119.428Z" fill="#006422"/>
<path d="M307.381 97.8784C307.61 97.5353 307.839 97.1921 307.953 96.8027C308.307 95.9394 308.588 95.0488 308.865 94.1583C309.013 93.6926 309.146 93.2649 309.255 92.7856C309.465 91.9523 309.617 91.0509 309.789 90.2039L309.968 89.6647L309.971 89.9343C309.971 89.9322 309.971 89.9282 309.971 89.9282C309.985 87.3409 317.866 82.1747 319.775 80.9138C323.634 78.3429 327.814 76.4719 332.283 75.29C338.817 73.5525 345.206 71.8449 351.927 70.9326C353.689 70.6929 365.528 70.7419 370.176 70.2898C371.222 70.1944 371.938 70.0502 371.998 69.9004L371.952 70.0121L371.704 70.23C369.634 70.9108 366.955 71.126 365.326 71.2295C356.633 71.7278 347.959 73.2393 339.593 75.7094C337.55 76.314 335.529 76.9731 333.517 77.722C331.502 78.4682 329.533 79.3234 327.585 80.2275C325.622 81.1725 323.753 82.1993 321.934 83.3349C320.126 84.4297 318.402 85.6444 316.757 86.9843C315.15 88.3378 313.603 89.7567 312.215 91.3308C311.629 92.0089 311.03 92.7251 310.466 93.4577C309.902 94.1876 309.235 94.9637 308.895 95.7889C308.557 96.6114 308.048 97.3201 307.381 97.8784Z" fill="#00B15E"/>
<path d="M371.705 70.2304L371.953 70.0126L371.838 70.1841C371.795 70.2005 371.751 70.2141 371.705 70.2304Z" fill="#00A451"/>
<path d="M289.344 85.397V83.281C291.101 81.1676 293.067 79.2313 295.221 77.5237C296.749 76.3581 298.375 75.2742 300.279 75.0073C298.786 75.4431 297.479 76.3935 296.243 77.3739C293.516 79.6398 291.256 82.3931 289.344 85.397Z" fill="#00B15E"/>
<path d="M163.415 121.735C163.546 121.686 163.676 121.632 163.804 121.569C163.676 121.632 163.548 121.686 163.418 121.733L163.415 121.735Z" fill="#FF923B"/>
<path d="M109.266 146.101C109.266 146.101 107.838 145.949 105.555 145.644C105.914 145.59 106.275 145.564 106.637 145.564C107.529 145.564 108.422 145.733 109.266 146.101Z" fill="#00B15E"/>
<path d="M262.731 146.101C263.578 145.733 264.468 145.564 265.363 145.564C265.724 145.564 266.086 145.59 266.445 145.644C264.162 145.949 262.731 146.101 262.731 146.101Z" fill="#00B15E"/>
<path d="M260.147 32.2773V179.276C260.147 182.532 257.48 185.171 254.178 185.171H169.975C127.725 176.21 111.852 149.995 111.852 149.995V32.2773C111.852 29.021 114.52 26.3845 117.819 26.3845H254.178C257.48 26.3845 260.147 29.021 260.147 32.2773Z" fill="#CEEDFC"/>
<path d="M254.178 185.171H202.025C202.435 185.084 202.839 184.997 203.241 184.908C229.064 183.006 247.771 175.264 260.148 167.825V179.276C260.148 182.532 257.48 185.171 254.178 185.171Z" fill="#93D4F7"/>
<path d="M194.651 185.269C193.324 185.269 192.065 185.238 190.871 185.171H198.829C197.369 185.238 195.977 185.269 194.651 185.269Z" fill="#0D0F53"/>
<path d="M203.241 184.908C218.156 181.589 229.714 176.118 238.397 170.493C242.723 167.684 246.335 164.835 249.292 162.188C256.774 155.501 260.071 150.118 260.145 149.995C260.145 149.995 260.145 149.995 260.147 149.995V167.825C247.77 175.264 229.063 183.006 203.241 184.908Z" fill="#469ACC"/>
<path d="M260.147 32.2773V149.995C260.147 149.995 244.275 176.21 202.025 185.171H117.819C114.52 185.171 111.852 182.532 111.852 179.276V32.2773C111.852 29.021 114.52 26.3845 117.819 26.3845H254.178C257.48 26.3845 260.147 29.021 260.147 32.2773Z" fill="#CEEDFC"/>
<path d="M120.769 185.171H117.819C114.52 185.171 111.852 182.532 111.852 179.276V51.717V57.8467H114.802V179.276C114.802 182.532 117.47 185.171 120.769 185.171Z" fill="#F6FEFF"/>
<path d="M238.397 170.493L238.399 170.485C242.722 167.679 246.335 164.832 249.292 162.188C246.335 164.835 242.723 167.684 238.397 170.493Z" fill="#328AC8"/>
<path d="M202.025 185.171H139.499C190.376 157.364 208.832 106.846 215.17 67.3306C215.718 67.5029 216.299 67.5962 216.902 67.5962C219.778 67.5962 222.183 65.474 222.628 62.7178C222.68 62.4235 222.707 62.1125 222.707 61.7919C222.707 60.4544 222.252 59.2223 221.489 58.2389V57.8466H243.218V58.2366C242.455 59.2199 241.998 60.4544 241.998 61.7919C241.998 62.1125 242.024 62.4235 242.079 62.7178C242.522 65.474 244.928 67.5962 247.804 67.5962C250.68 67.5962 253.085 65.474 253.53 62.7178C253.582 62.4235 253.609 62.1125 253.609 61.7919C253.609 60.4544 253.154 59.2223 252.391 58.2389V57.8466H260.147V62.9547V89.0262V149.995C260.146 149.995 260.146 149.995 260.146 149.995C260.072 150.118 256.772 155.501 249.293 162.188C246.336 164.832 242.723 167.678 238.4 170.485L243.805 156.551C243.805 156.551 222.023 156.14 213.079 151.056C213.079 151.056 214.964 169.21 202.025 185.171Z" fill="#93D4F7"/>
<path d="M212.316 57.8469H190.587V51.8057H212.316V57.8469ZM181.414 57.8469H159.684V51.8057H181.414V57.8469ZM150.511 57.8469H128.785V51.8057H150.511V57.8469ZM119.609 57.8469H114.803V51.8057H115.819H119.609V57.8469Z" fill="#62ACD1"/>
<path d="M114.802 57.8467H111.852V51.717C112.183 51.7744 112.522 51.8055 112.869 51.8055H114.802V57.8467Z" fill="#75B8D3"/>
<path d="M260.147 57.8469H252.391V51.8057H259.131C259.478 51.8057 259.817 51.7746 260.147 51.7172V57.8469ZM243.218 57.8469H221.489V51.8057H243.218V57.8469Z" fill="#469ACC"/>
<path d="M203.241 184.908C218.156 181.589 229.714 176.119 238.399 170.485L238.397 170.492C229.715 176.118 218.156 181.589 203.241 184.908Z" fill="#1864A5"/>
<path d="M202.025 185.171C214.964 169.21 213.079 151.056 213.079 151.056C222.022 156.14 243.804 156.551 243.804 156.551L238.399 170.485C229.714 176.12 218.156 181.589 203.241 184.908C202.839 184.997 202.435 185.084 202.025 185.171Z" fill="#469ACC"/>
<path d="M265.026 6.85918V45.9104C265.026 49.1666 262.387 51.8056 259.13 51.8056H112.869C109.613 51.8056 106.974 49.1666 106.974 45.9104V6.85918C106.974 3.60053 109.613 0.963928 112.869 0.963928H259.13C262.387 0.963928 265.026 3.60053 265.026 6.85918Z" fill="#FF5766"/>
<path d="M115.819 51.8055H112.869C112.522 51.8055 112.183 51.7745 111.852 51.717C109.079 51.2361 106.974 48.8196 106.974 45.9103V6.85918C106.974 3.60053 109.613 0.963928 112.869 0.963928H115.819C112.561 0.963928 109.924 3.60053 109.924 6.85918V45.9103C109.924 49.1666 112.561 51.8055 115.819 51.8055Z" fill="#FF90A3"/>
<path d="M259.131 51.8056H252.391V46.1328C252.972 45.3816 253.372 44.4892 253.53 43.5154C253.582 43.2211 253.609 42.9101 253.609 42.5895C253.609 39.3907 251.003 36.7828 247.804 36.7828C244.605 36.7828 241.997 39.3907 241.997 42.5895C241.997 42.9101 242.024 43.2211 242.079 43.5154C242.234 44.4892 242.636 45.384 243.218 46.1328V51.8056H221.489V46.1328C222.07 45.3816 222.469 44.4892 222.627 43.5154C222.68 43.2211 222.706 42.9101 222.706 42.5895C222.706 39.3907 220.101 36.7828 216.902 36.7828C213.703 36.7828 211.095 39.3907 211.095 42.5895C211.095 42.9101 211.122 43.2211 211.177 43.5154C211.332 44.4892 211.734 45.384 212.315 46.1328V51.8056H190.586V46.1328C191.168 45.3816 191.567 44.4892 191.725 43.5154C191.778 43.2211 191.806 42.9101 191.806 42.5895C191.806 39.3907 189.199 36.7828 186 36.7828C182.801 36.7828 180.193 39.3907 180.193 42.5895C180.193 42.9101 180.222 43.2211 180.274 43.5154C180.43 44.4892 180.832 45.384 181.413 46.1328V51.8056H159.684V48.5518C199.642 32.2011 214.306 12.3405 219.637 0.963928H259.13C262.387 0.963928 265.026 3.60053 265.026 6.85918V45.9104C265.026 49.1666 262.387 51.8056 259.131 51.8056Z" fill="#D83743"/>
<path d="M247.804 36.7825C251.003 36.7825 253.609 39.3904 253.609 42.5893C253.609 42.9099 253.582 43.2209 253.53 43.5152C253.085 46.2714 250.68 48.3936 247.804 48.3936C244.928 48.3936 242.522 46.2714 242.079 43.5152C242.024 43.2209 241.998 42.9099 241.998 42.5893C241.998 39.3904 244.605 36.7825 247.804 36.7825Z" fill="#AF3345"/>
<path d="M243.218 46.1325C242.636 45.3837 242.234 44.4889 242.079 43.5151C242.521 40.7469 244.928 38.6367 247.804 38.6367C250.68 38.6367 253.085 40.7469 253.53 43.5151C253.372 44.4889 252.972 45.3813 252.391 46.1325V43.7113C252.391 41.3068 250.424 39.3401 248.02 39.3401H247.589C247.582 39.3401 247.575 39.3401 247.567 39.3401C245.172 39.3527 243.218 41.314 243.218 43.7113V46.1325Z" fill="#931E2C"/>
<path d="M247.804 55.9854C251.003 55.9854 253.609 58.5933 253.609 61.7921C253.609 62.1127 253.582 62.4237 253.53 62.718C253.085 65.4742 250.68 67.5965 247.804 67.5965C244.928 67.5965 242.522 65.4742 242.079 62.718C242.024 62.4237 241.998 62.1127 241.998 61.7921C241.998 58.5933 244.605 55.9854 247.804 55.9854Z" fill="#4B94AA"/>
<path d="M247.804 67.5964C244.928 67.5964 242.521 65.4742 242.079 62.718C242.234 61.7394 242.636 60.8446 243.218 60.0933V61.0001C243.218 63.3974 245.172 65.3593 247.567 65.3713C247.575 65.3713 247.582 65.3713 247.589 65.3713H248.02C248.113 65.3713 248.206 65.3695 248.299 65.3641C250.575 65.2182 252.391 63.3113 252.391 61.0001V60.0957C252.972 60.8446 253.372 61.7418 253.53 62.718C253.085 65.4742 250.68 67.5964 247.804 67.5964Z" fill="#246B8D"/>
<path d="M252.391 43.7114V60.9999C252.391 63.4044 250.424 65.3711 248.02 65.3711H247.589C245.184 65.3711 243.218 63.4044 243.218 60.9999V43.7114C243.218 41.3069 245.184 39.3402 247.589 39.3402H248.02C250.424 39.3402 252.391 41.3069 252.391 43.7114Z" fill="#ADC8DB"/>
<path d="M247.567 65.3711C245.172 65.3586 243.218 63.3973 243.218 60.9999V43.7114C243.218 41.3141 245.172 39.3522 247.567 39.3402C247.122 39.342 246.699 39.4312 246.292 39.5603C246.515 39.6297 246.73 39.7182 246.936 39.8187C245.5 40.5341 244.505 42.0055 244.505 43.7114V60.9999C244.505 62.7058 245.5 64.1796 246.936 64.8926C246.73 64.9954 246.515 65.0816 246.292 65.151C246.699 65.2802 247.122 65.3687 247.567 65.3711Z" fill="#C9DEEB"/>
<path d="M248.02 65.3711L248.448 65.3281C247.91 65.2755 247.4 65.1223 246.936 64.8926C248.371 64.1772 249.369 62.7058 249.369 60.9999V43.7114C249.369 42.0055 248.371 40.5341 246.936 39.8187C247.4 39.589 247.91 39.4383 248.448 39.3833L248.02 39.3402C250.424 39.3402 252.391 41.3069 252.391 43.7114V60.9999C252.391 63.3111 250.575 65.218 248.3 65.3639C248.206 65.3693 248.113 65.3711 248.02 65.3711Z" fill="#80A6C2"/>
<path d="M248.02 65.3711H247.589C247.582 65.3711 247.575 65.3711 247.568 65.3711C247.123 65.3693 246.699 65.2802 246.292 65.151C246.515 65.0816 246.73 64.9954 246.936 64.8926C247.4 65.1223 247.91 65.2754 248.448 65.3281L248.02 65.3711ZM246.936 39.8187C246.73 39.7182 246.515 39.6297 246.292 39.5603C246.699 39.4311 247.123 39.3426 247.568 39.3402C247.575 39.3402 247.582 39.3402 247.589 39.3402H248.02L248.448 39.3833C247.91 39.4383 247.4 39.589 246.936 39.8187Z" fill="#95B8D1"/>
<path d="M216.902 36.7825C220.101 36.7825 222.706 39.3904 222.706 42.5893C222.706 42.9099 222.68 43.2209 222.627 43.5152C222.182 46.2714 219.778 48.3936 216.902 48.3936C214.026 48.3936 211.619 46.2714 211.177 43.5152C211.122 43.2209 211.095 42.9099 211.095 42.5893C211.095 39.3904 213.703 36.7825 216.902 36.7825Z" fill="#AF3345"/>
<path d="M212.316 46.1325C211.734 45.3837 211.332 44.4889 211.177 43.5151C211.619 40.7469 214.026 38.6367 216.902 38.6367C219.778 38.6367 222.182 40.7469 222.627 43.5151C222.469 44.4889 222.07 45.3813 221.489 46.1325V43.7113C221.489 41.3068 219.522 39.3401 217.117 39.3401H216.687C216.68 39.3401 216.672 39.3401 216.665 39.3401C214.27 39.3527 212.316 41.314 212.316 43.7113V46.1325Z" fill="#931E2C"/>
<path d="M216.902 55.9854C220.101 55.9854 222.706 58.5933 222.706 61.7921C222.706 62.1127 222.68 62.4237 222.627 62.718C222.182 65.4742 219.778 67.5965 216.902 67.5965C214.026 67.5965 211.619 65.4742 211.177 62.718C211.122 62.4237 211.095 62.1127 211.095 61.7921C211.095 58.5933 213.703 55.9854 216.902 55.9854Z" fill="#4B94AA"/>
<path d="M216.902 67.5964C214.026 67.5964 211.619 65.4742 211.177 62.718C211.332 61.7394 211.734 60.8446 212.316 60.0933V61.0001C212.316 63.3974 214.273 65.3593 216.665 65.3713C216.672 65.3713 216.68 65.3713 216.687 65.3713H217.117C217.211 65.3713 217.304 65.3695 217.397 65.3641C219.673 65.2182 221.489 63.3113 221.489 61.0001V60.0957C222.07 60.8446 222.469 61.7418 222.627 62.718C222.182 65.4742 219.778 67.5964 216.902 67.5964Z" fill="#246B8D"/>
<path d="M221.488 43.7114V60.9999C221.488 63.4044 219.522 65.3711 217.117 65.3711H216.687C214.282 65.3711 212.315 63.4044 212.315 60.9999V43.7114C212.315 41.3069 214.282 39.3402 216.687 39.3402H217.117C219.522 39.3402 221.488 41.3069 221.488 43.7114Z" fill="#ADC8DB"/>
<path d="M216.665 65.3711C214.273 65.3586 212.315 63.3973 212.315 60.9999V43.7114C212.315 41.3141 214.27 39.3522 216.665 39.3402C216.22 39.342 215.797 39.4312 215.39 39.5603C215.612 39.6297 215.828 39.7182 216.033 39.8187C214.598 40.5341 213.603 42.0055 213.603 43.7114V60.9999C213.603 62.7058 214.598 64.1796 216.033 64.8926C215.828 64.9954 215.612 65.0816 215.39 65.151C215.797 65.2802 216.22 65.3687 216.665 65.3711Z" fill="#C9DEEB"/>
<path d="M217.118 65.3711L217.546 65.3281C217.007 65.2755 216.498 65.1223 216.034 64.8926C217.469 64.1772 218.467 62.7058 218.467 60.9999V43.7114C218.467 42.0055 217.469 40.5341 216.034 39.8187C216.498 39.589 217.007 39.4383 217.546 39.3833L217.118 39.3402C219.522 39.3402 221.489 41.3069 221.489 43.7114V60.9999C221.489 63.3111 219.673 65.218 217.397 65.3639C217.304 65.3693 217.211 65.3711 217.118 65.3711Z" fill="#80A6C2"/>
<path d="M217.118 65.3711H216.687C216.68 65.3711 216.673 65.3711 216.665 65.3711C216.22 65.3693 215.797 65.2802 215.39 65.151C215.613 65.0816 215.828 64.9954 216.034 64.8926C216.498 65.1223 217.008 65.2754 217.546 65.3281L217.118 65.3711ZM216.034 39.8187C215.828 39.7182 215.613 39.6297 215.39 39.5603C215.797 39.4311 216.22 39.3426 216.665 39.3402C216.673 39.3402 216.68 39.3402 216.687 39.3402H217.118L217.546 39.3833C217.008 39.4383 216.498 39.589 216.034 39.8187Z" fill="#95B8D1"/>
<path d="M186 36.7825C189.199 36.7825 191.807 39.3904 191.807 42.5893C191.807 42.9099 191.778 43.2209 191.725 43.5152C191.283 46.2714 188.876 48.3936 186 48.3936C183.124 48.3936 180.717 46.2714 180.275 43.5152C180.222 43.2209 180.193 42.9099 180.193 42.5893C180.193 39.3904 182.801 36.7825 186 36.7825Z" fill="#AF3345"/>
<path d="M181.413 46.1325C180.832 45.3837 180.43 44.4889 180.275 43.5151C180.717 40.7469 183.124 38.6367 186 38.6367C188.876 38.6367 191.283 40.7469 191.725 43.5151C191.567 44.4889 191.168 45.3813 190.586 46.1325V43.7113C190.586 41.3068 188.62 39.3401 186.215 39.3401H185.787C185.78 39.3401 185.773 39.3401 185.763 39.3401C183.368 39.3527 181.413 41.314 181.413 43.7113L181.413 46.1325Z" fill="#931E2C"/>
<path d="M186 55.9854C189.199 55.9854 191.807 58.5933 191.807 61.7921C191.807 62.1127 191.778 62.4237 191.725 62.718C191.283 65.4742 188.876 67.5965 186 67.5965C183.124 67.5965 180.717 65.4742 180.275 62.718C180.222 62.4237 180.193 62.1127 180.193 61.7921C180.193 58.5933 182.801 55.9854 186 55.9854Z" fill="#4B94AA"/>
<path d="M186 67.5964C183.124 67.5964 180.717 65.4742 180.275 62.718C180.43 61.7394 180.832 60.8446 181.413 60.0933V61.0001C181.413 63.3974 183.37 65.3593 185.765 65.3713C185.773 65.3713 185.78 65.3713 185.787 65.3713H186.215C188.62 65.3713 190.586 63.4046 190.586 61.0001V60.0957C191.168 60.8446 191.567 61.7418 191.725 62.718C191.283 65.4742 188.876 67.5964 186 67.5964Z" fill="#246B8D"/>
<path d="M190.586 43.7114V60.9999C190.586 63.4044 188.619 65.3711 186.215 65.3711H185.787C183.38 65.3711 181.413 63.4044 181.413 60.9999V43.7114C181.413 41.3069 183.38 39.3402 185.787 39.3402H186.215C188.619 39.3402 190.586 41.3069 190.586 43.7114Z" fill="#ADC8DB"/>
<path d="M185.765 65.3711C183.37 65.3586 181.413 63.3973 181.413 60.9999V43.7114C181.413 41.3141 183.368 39.3522 185.763 39.3402C185.318 39.342 184.894 39.4312 184.488 39.5603C184.71 39.6297 184.925 39.7182 185.131 39.8187C183.696 40.5341 182.7 42.0055 182.7 43.7114V60.9999C182.7 62.7058 183.696 64.1796 185.131 64.8926C184.925 64.9954 184.71 65.0816 184.488 65.151C184.894 65.2802 185.318 65.3687 185.765 65.3711Z" fill="#C9DEEB"/>
<path d="M186.215 65.3711L186.644 65.3281C186.105 65.2755 185.596 65.1223 185.132 64.8926C186.567 64.1772 187.565 62.7058 187.565 60.9999V43.7114C187.565 42.0055 186.567 40.5341 185.132 39.8187C185.596 39.589 186.105 39.4383 186.644 39.3833L186.215 39.3402C188.62 39.3402 190.587 41.3069 190.587 43.7114V46.1326V51.8054V57.8466V60.0955V60.9999C190.587 63.4044 188.62 65.3711 186.215 65.3711Z" fill="#80A6C2"/>
<path d="M186.215 65.3711H185.787C185.78 65.3711 185.773 65.3711 185.766 65.3711C185.318 65.3693 184.895 65.2802 184.488 65.151C184.711 65.0816 184.926 64.9954 185.132 64.8926C185.596 65.1223 186.105 65.2754 186.644 65.3281L186.215 65.3711ZM185.132 39.8187C184.926 39.7182 184.711 39.6297 184.488 39.5603C184.895 39.4311 185.318 39.3426 185.763 39.3402C185.77 39.3402 185.779 39.3402 185.787 39.3402H186.215L186.644 39.3833C186.105 39.4383 185.596 39.589 185.132 39.8187Z" fill="#95B8D1"/>
<path d="M155.098 36.7825C158.297 36.7825 160.905 39.3904 160.905 42.5893C160.905 42.9099 160.876 43.2209 160.823 43.5152C160.381 46.2714 157.974 48.3936 155.098 48.3936C152.222 48.3936 149.815 46.2714 149.373 43.5152C149.32 43.2209 149.291 42.9099 149.291 42.5893C149.291 39.3904 151.899 36.7825 155.098 36.7825Z" fill="#AF3345"/>
<path d="M150.511 46.1325C149.93 45.3837 149.53 44.4889 149.372 43.5151C149.815 40.7469 152.222 38.6367 155.098 38.6367C157.974 38.6367 160.381 40.7469 160.823 43.5151C160.668 44.4889 160.266 45.3813 159.684 46.1325V43.7113C159.684 41.3068 157.718 39.3401 155.313 39.3401H154.885C154.878 39.3401 154.871 39.3401 154.863 39.3401C152.468 39.3527 150.511 41.314 150.511 43.7113V46.1325Z" fill="#931E2C"/>
<path d="M155.098 55.9854C158.297 55.9854 160.905 58.5933 160.905 61.7921C160.905 62.1127 160.876 62.4237 160.823 62.718C160.381 65.4742 157.974 67.5965 155.098 67.5965C152.222 67.5965 149.815 65.4742 149.373 62.718C149.32 62.4237 149.291 62.1127 149.291 61.7921C149.291 58.5933 151.899 55.9854 155.098 55.9854Z" fill="#4B94AA"/>
<path d="M155.098 67.5964C152.222 67.5964 149.815 65.4742 149.372 62.718C149.53 61.7394 149.93 60.8446 150.511 60.0933V61.0001C150.511 63.3974 152.468 65.3593 154.863 65.3713C154.871 65.3713 154.878 65.3713 154.885 65.3713H155.313C157.718 65.3713 159.684 63.4046 159.684 61.0001V60.0957C160.266 60.8446 160.668 61.7418 160.823 62.718C160.381 65.4742 157.974 67.5964 155.098 67.5964Z" fill="#246B8D"/>
<path d="M159.684 43.7114V60.9999C159.684 63.4044 157.717 65.3711 155.313 65.3711H154.885C152.48 65.3711 150.511 63.4044 150.511 60.9999V43.7114C150.511 41.3069 152.48 39.3402 154.885 39.3402H155.313C157.717 39.3402 159.684 41.3069 159.684 43.7114Z" fill="#ADC8DB"/>
<path d="M154.863 65.3711C152.468 65.3586 150.511 63.3973 150.511 60.9999V43.7114C150.511 41.3141 152.468 39.3522 154.863 39.3402C154.416 39.342 153.992 39.4312 153.588 39.5603C153.808 39.6297 154.023 39.7182 154.229 39.8187C152.794 40.5341 151.801 42.0055 151.801 43.7114V60.9999C151.801 62.7058 152.794 64.1796 154.229 64.8926C154.023 64.9954 153.808 65.0816 153.588 65.151C153.992 65.2802 154.416 65.3687 154.863 65.3711Z" fill="#C9DEEB"/>
<path d="M155.313 65.3711L155.742 65.3281C155.203 65.2755 154.694 65.1223 154.229 64.8926C155.665 64.1772 156.663 62.7058 156.663 60.9999V43.7114C156.663 42.0055 155.665 40.5341 154.229 39.8187C154.694 39.589 155.203 39.4383 155.742 39.3833L155.313 39.3402C157.718 39.3402 159.685 41.3069 159.685 43.7114V48.5515V51.8054V57.8466V60.0955V60.9999C159.685 63.4044 157.718 65.3711 155.313 65.3711Z" fill="#80A6C2"/>
<path d="M155.313 65.3711H154.885C154.878 65.3711 154.871 65.3711 154.863 65.3711C154.416 65.3693 153.992 65.2802 153.588 65.151C153.808 65.0816 154.024 64.9954 154.229 64.8926C154.693 65.1223 155.203 65.2754 155.741 65.3281L155.313 65.3711ZM154.229 39.8187C154.024 39.7182 153.808 39.6297 153.588 39.5603C153.992 39.4311 154.416 39.3426 154.863 39.3402C154.871 39.3402 154.878 39.3402 154.885 39.3402H155.313L155.741 39.3833C155.203 39.4383 154.693 39.589 154.229 39.8187Z" fill="#95B8D1"/>
<path d="M124.196 36.7825C127.395 36.7825 130.003 39.3904 130.003 42.5893C130.003 42.9099 129.976 43.2209 129.921 43.5152C129.479 46.2714 127.072 48.3936 124.196 48.3936C121.32 48.3936 118.913 46.2714 118.471 43.5152C118.418 43.2209 118.389 42.9099 118.389 42.5893C118.389 39.3904 120.997 36.7825 124.196 36.7825Z" fill="#AF3345"/>
<path d="M119.609 46.1325C119.03 45.3837 118.628 44.4889 118.47 43.5151C118.913 40.7469 121.32 38.6367 124.196 38.6367C127.072 38.6367 129.478 40.7469 129.921 43.5151C129.766 44.4889 129.364 45.3813 128.785 46.1325V43.7113C128.785 41.3068 126.816 39.3401 124.411 39.3401H123.983C123.976 39.3401 123.968 39.3401 123.961 39.3401C121.566 39.3527 119.609 41.314 119.609 43.7113V46.1325Z" fill="#931E2C"/>
<path d="M124.196 55.9854C127.395 55.9854 130.003 58.5933 130.003 61.7921C130.003 62.1127 129.976 62.4237 129.921 62.718C129.479 65.4742 127.072 67.5965 124.196 67.5965C121.32 67.5965 118.913 65.4742 118.471 62.718C118.418 62.4237 118.389 62.1127 118.389 61.7921C118.389 58.5933 120.997 55.9854 124.196 55.9854Z" fill="#4B94AA"/>
<path d="M124.196 67.5964C121.32 67.5964 118.913 65.4742 118.47 62.718C118.628 61.7394 119.03 60.8446 119.609 60.0933V61.0001C119.609 63.3974 121.566 65.3593 123.961 65.3713C123.968 65.3713 123.976 65.3713 123.983 65.3713H124.411C124.504 65.3713 124.598 65.3695 124.691 65.3641C126.966 65.2182 128.785 63.3113 128.785 61.0001V60.0957C129.364 60.8446 129.766 61.7418 129.921 62.718C129.478 65.4742 127.072 67.5964 124.196 67.5964Z" fill="#246B8D"/>
<path d="M128.785 43.7114V60.9999C128.785 63.4044 126.816 65.3711 124.411 65.3711H123.983C121.578 65.3711 119.609 63.4044 119.609 60.9999V43.7114C119.609 41.3069 121.578 39.3402 123.983 39.3402H124.411C126.816 39.3402 128.785 41.3069 128.785 43.7114Z" fill="#ADC8DB"/>
<path d="M123.961 65.3711C121.566 65.3586 119.609 63.3973 119.609 60.9999V43.7114C119.609 41.3141 121.566 39.3522 123.961 39.3402C123.514 39.342 123.09 39.4312 122.686 39.5603C122.906 39.6297 123.121 39.7182 123.327 39.8187C121.892 40.5341 120.899 42.0055 120.899 43.7114V60.9999C120.899 62.7058 121.892 64.1796 123.327 64.8926C123.121 64.9954 122.906 65.0816 122.686 65.151C123.09 65.2802 123.514 65.3687 123.961 65.3711Z" fill="#C9DEEB"/>
<path d="M124.411 65.3711L124.842 65.3281C124.303 65.2755 123.791 65.1223 123.327 64.8926C124.763 64.1772 125.76 62.7058 125.76 60.9999V43.7114C125.76 42.0055 124.763 40.5365 123.327 39.8187C123.791 39.589 124.303 39.4383 124.842 39.3833L124.411 39.3402C126.815 39.3402 128.782 41.3069 128.782 43.7114V60.9999C128.782 63.3111 126.966 65.218 124.691 65.3639C124.597 65.3693 124.504 65.3711 124.411 65.3711Z" fill="#80A6C2"/>
<path d="M124.411 65.3711H123.983C123.975 65.3711 123.968 65.3711 123.961 65.3711C123.514 65.3693 123.09 65.2802 122.686 65.151C122.906 65.0816 123.121 64.9954 123.327 64.8926C123.791 65.1223 124.303 65.2754 124.842 65.3281L124.411 65.3711ZM123.327 39.8187C123.121 39.7182 122.906 39.6297 122.686 39.5603C123.09 39.4311 123.514 39.3426 123.961 39.3402C123.968 39.3402 123.975 39.3402 123.983 39.3402H124.411L124.842 39.3833C124.303 39.4383 123.791 39.589 123.327 39.8187Z" fill="#95B8D1"/>
<path d="M221.489 149.986C221.489 149.986 220.692 173.258 202.025 185.171C244.275 176.21 260.148 149.995 260.148 149.995C260.148 149.995 241.998 155.085 221.489 149.986Z" fill="white"/>
<path d="M140.25 96.3739H130.046C127.914 96.3739 126.184 94.6441 126.184 92.5099V82.3082C126.184 80.1764 127.914 78.4465 130.046 78.4465H140.25C142.382 78.4465 144.111 80.1764 144.111 82.3082V92.5099C144.111 94.6441 142.382 96.3739 140.25 96.3739Z" fill="#79B9D3"/>
<path d="M165.675 96.3739H155.473C153.339 96.3739 151.609 94.6441 151.609 92.5099V82.3082C151.609 80.1764 153.339 78.4465 155.473 78.4465H165.675C167.807 78.4465 169.537 80.1764 169.537 82.3082V92.5099C169.537 94.6441 167.807 96.3739 165.675 96.3739Z" fill="#79B9D3"/>
<path d="M191.101 96.3739H180.899C178.765 96.3739 177.037 94.6441 177.037 92.5099V82.3082C177.037 80.1764 178.765 78.4465 180.899 78.4465H191.101C193.235 78.4465 194.962 80.1764 194.962 82.3082V92.5099C194.962 94.6441 193.235 96.3739 191.101 96.3739Z" fill="#79B9D3"/>
<path d="M216.527 96.3739H206.325C204.191 96.3739 202.463 94.6441 202.463 92.5099V82.3082C202.463 80.1764 204.191 78.4465 206.325 78.4465H216.527C218.661 78.4465 220.391 80.1764 220.391 82.3082V92.5099C220.391 94.6441 218.661 96.3739 216.527 96.3739Z" fill="#79B9D3"/>
<path d="M241.952 96.3739H231.75C229.619 96.3739 227.889 94.6441 227.889 92.5099V82.3082C227.889 80.1764 229.619 78.4465 231.75 78.4465H241.952C244.086 78.4465 245.816 80.1764 245.816 82.3082V92.5099C245.816 94.6441 244.086 96.3739 241.952 96.3739Z" fill="#79B9D3"/>
<path d="M140.25 126.712H130.046C127.914 126.712 126.184 124.982 126.184 122.85V112.648C126.184 110.514 127.914 108.784 130.046 108.784H140.25C142.382 108.784 144.111 110.514 144.111 112.648V122.85C144.111 124.982 142.382 126.712 140.25 126.712Z" fill="#79B9D3"/>
<path d="M165.675 126.712H155.473C153.339 126.712 151.609 124.982 151.609 122.85V112.648C151.609 110.514 153.339 108.784 155.473 108.784H165.675C167.807 108.784 169.537 110.514 169.537 112.648V122.85C169.537 124.982 167.807 126.712 165.675 126.712Z" fill="#79B9D3"/>
<path d="M191.101 126.712H180.899C178.765 126.712 177.037 124.982 177.037 122.85V112.648C177.037 110.514 178.765 108.784 180.899 108.784H191.101C193.235 108.784 194.962 110.514 194.962 112.648V122.85C194.962 124.982 193.235 126.712 191.101 126.712Z" fill="#79B9D3"/>
<path d="M216.527 126.712H206.325C204.191 126.712 202.463 124.982 202.463 122.85V112.648C202.463 110.514 204.191 108.784 206.325 108.784H216.527C218.661 108.784 220.391 110.514 220.391 112.648V122.85C220.391 124.982 218.661 126.712 216.527 126.712Z" fill="#FF5766"/>
<path d="M241.952 126.712H231.75C229.619 126.712 227.889 124.982 227.889 122.85V112.648C227.889 110.514 229.619 108.784 231.75 108.784H241.952C244.086 108.784 245.816 110.514 245.816 112.648V122.85C245.816 124.982 244.086 126.712 241.952 126.712Z" fill="#79B9D3"/>
<path d="M140.25 157.051H130.046C127.914 157.051 126.184 155.321 126.184 153.187V142.986C126.184 140.854 127.914 139.124 130.046 139.124H140.25C142.382 139.124 144.111 140.854 144.111 142.986V153.187C144.111 155.321 142.382 157.051 140.25 157.051Z" fill="#79B9D3"/>
<path d="M165.675 157.051H155.473C153.339 157.051 151.609 155.321 151.609 153.187V142.986C151.609 140.854 153.339 139.124 155.473 139.124H165.675C167.807 139.124 169.537 140.854 169.537 142.986V153.187C169.537 155.321 167.807 157.051 165.675 157.051Z" fill="#FF5766"/>
</svg>
