<svg width="373" height="212" viewBox="0 0 373 212" fill="none" xmlns="http://www.w3.org/2000/svg">
<path d="M57.7242 18.8192L57.7071 18.9418L57.7177 19.1487C57.4421 26.8777 57.3231 34.9607 57.9315 42.8558C58.8836 57.9079 62.3453 72.4508 72.0433 83.5459L72.0836 83.552C72.3262 83.8761 72.5762 84.1593 72.8643 84.448C72.2164 84.0667 71.6091 83.6909 70.955 83.3505C66.0899 80.6707 61.1549 79.0584 55.3475 81.2453C53.9463 81.79 52.7559 82.6125 51.8997 83.6882C49.2923 86.6213 48.8125 91.1394 50.8496 94.8187C52.3657 97.5148 54.8475 99.5219 57.3582 101.325C61.4901 104.228 65.875 106.796 70.4569 108.855L70.3305 108.877L70.2899 108.871C68.0804 109.878 65.5569 110.181 63.1623 110.747C59.8367 111.472 56.2272 112.444 54.3698 115.32L54.1454 115.742C52.6527 118.378 53.1922 121.845 54.8061 124.429C56.5305 127.115 59.2327 129.029 61.9697 130.699C66.506 133.37 71.5677 134.672 76.1378 137.101C79.4762 138.899 84.4984 143.087 88.5472 142.796C87.5867 142.867 86.6675 142.94 85.7015 143.052L85.6196 143.042C82.5313 143.262 79.3899 143.556 76.2953 143.818C72.2282 144.229 67.7687 147.974 69.4356 151.639C69.5922 151.993 69.8294 152.358 70.0784 152.642C71.4262 154.197 73.8219 154.785 75.9102 155.207C86.3294 157.19 96.8983 158.987 106.404 163.608C115.018 167.81 122.337 174.146 128.627 181.322C131.433 184.533 134.61 187.466 137.416 190.676C139.581 193.174 140.57 195.217 144.052 196.292L144.251 196.36L144.289 196.366C144.73 196.469 145.095 196.522 145.523 196.418L146.059 196.124C147.004 195.307 146.539 193.341 145.945 192.017C144.711 189.362 143.785 186.584 143.2 183.732L143.206 183.692C141.845 177.589 141.809 171.18 142.411 164.944C143.266 155.769 145.335 146.768 146.27 137.604C146.651 134.064 146.643 130.055 144.104 127.585C143.304 126.808 142.304 126.294 141.223 126.057C139.677 125.588 137.966 125.716 136.443 126.245C133.916 127.162 131.886 129.23 130.516 131.596C130.649 131.242 130.787 130.85 130.88 130.49L130.892 130.409C132.523 125.643 134.072 120.863 135.662 116.092C137.177 111.555 138.703 106.939 139.054 102.154C139.36 97.6954 138.566 90.2252 134.459 87.45L133.88 87.1614L133.845 87.115C131.681 86.0638 128.876 86.9026 126.887 88.395C124.77 89.9119 123.196 91.9599 121.154 93.5259L121.109 93.5612L120.825 93.809C124.335 84.5604 124.268 74.0128 120.709 64.7859C119.974 62.9885 119.112 61.2129 117.59 60.0037L117.515 59.952C114.83 57.9149 110.869 58.4677 108.039 60.336C105.297 62.177 103.407 65.0039 101.642 67.8117L101.48 68.0786C102.869 65.8781 98.6037 57.2531 97.5792 55.167C95.5355 50.9485 92.8516 47.1766 89.5645 43.8568C84.7624 39.001 80.0697 34.2405 74.6826 30.0002C73.2719 28.8891 62.9328 22.8704 59.1135 20.0925C58.2518 19.4743 57.7008 18.9826 57.7242 18.8192Z" fill="#007537"/>
<path d="M57.562 24.4157C57.5982 22.5774 57.6492 20.7527 57.7066 18.9417L57.7173 19.1487C57.6557 20.8889 57.6012 22.6455 57.562 24.4157Z" fill="#13114C"/>
<path d="M82.9325 97.3997C81.1773 95.2864 79.208 93.3501 77.056 91.6425C75.5263 90.4769 73.9007 89.393 71.9965 89.1261L71.9061 89.1179C71.6719 89.0908 71.4401 89.077 71.2081 89.077C68.1644 89.077 65.3857 91.3974 64.0156 94.1997C63.8241 94.5973 63.655 95.0031 63.505 95.4144C61.3794 94.227 59.3028 92.9661 57.4253 91.4301C55.5796 89.8859 53.9007 88.034 52.7615 85.8879C52.3965 85.2561 52.1828 84.4418 51.9156 83.7011C49.5754 86.3346 48.9498 90.2427 50.3167 93.6741C50.3126 93.6721 50.3083 93.668 50.303 93.666C49.821 92.4568 49.5859 91.1904 49.5859 89.9431C49.5848 87.6391 50.3817 85.395 51.8997 83.6875C52.756 82.6117 53.9464 81.7893 55.3475 81.2446C57.2411 80.5311 59.0421 80.2233 60.7782 80.2233C64.3666 80.2233 67.676 81.5442 70.955 83.3498C71.6092 83.6902 72.2165 84.066 72.8644 84.4473C72.5762 84.1586 72.3262 83.8754 72.0836 83.5513C73.9006 84.4283 75.8549 84.9157 77.673 85.7926C79.6377 86.724 81.3559 88.0477 82.9324 89.5482L82.9325 97.3997ZM82.9324 81.0049C81.04 77.263 78.7101 73.7008 76.2452 70.3021C71.0261 63.1532 65.0836 56.4373 60.7782 48.6756C59.7251 46.7883 58.7657 44.8357 57.9315 42.8557C57.472 36.7254 57.4402 30.5107 57.5625 24.4157C57.6017 22.6455 57.6562 20.8889 57.7177 19.1487C57.7485 19.1869 57.7806 19.2222 57.8125 19.2576L57.9091 19.549C59.0848 23.1874 60.4795 26.7333 62.0081 30.2165C65.2018 37.3654 69.1486 44.1684 73.79 50.4485C76.8996 54.6371 80.3049 58.6649 82.9324 63.1476V81.0049Z" fill="#00622A"/>
<path d="M62.3037 104.053C62.3037 104.051 62.3037 104.047 62.3037 104.047C62.2909 101.46 54.4092 96.2934 52.4996 95.0325C51.7825 94.5559 51.0559 94.1038 50.3165 93.6735C48.9496 90.2421 49.5752 86.334 51.9154 83.7005C52.1825 84.4412 52.3963 85.2556 52.7613 85.8874C53.9004 88.0334 55.5794 89.8853 57.4251 91.4295C59.3026 92.9655 61.3792 94.2264 63.5048 95.4137C62.5483 98.05 62.392 100.948 62.3081 103.783L62.3037 104.053Z" fill="#004719"/>
<path d="M82.9321 89.5482C81.3555 88.0476 79.6373 86.724 77.6727 85.7926C75.8546 84.9157 73.9003 84.4283 72.0832 83.5513L72.0429 83.5451C62.3449 72.4501 58.8832 57.9072 57.9312 42.855C58.7653 44.835 59.7248 46.7876 60.7779 48.6749C65.0833 56.4366 71.0257 63.1525 76.2448 70.3014C78.7098 73.7001 81.0396 77.2623 82.9321 81.0042V89.5482Z" fill="#004719"/>
<path d="M82.9324 40.4293C76.9208 34.013 70.1559 28.2694 62.857 23.3945C61.492 22.4713 59.2686 20.9135 57.8124 19.2577L57.707 18.9418L57.7242 18.8192C57.7231 18.8253 57.7231 18.8274 57.7231 18.8335C57.7262 19.0051 58.2708 19.4898 59.1123 20.0917C62.9316 22.8695 73.2706 28.8882 74.6814 29.9994C77.5921 32.2897 80.3005 34.7326 82.9324 37.2599V40.4293Z" fill="#00954D"/>
<path d="M57.8124 19.2577C57.7806 19.2224 57.7484 19.1868 57.7177 19.1488L57.707 18.9419L57.8124 19.2577Z" fill="#008641"/>
<path d="M0.275391 84.0198L0.321143 84.1315L0.434972 84.3031C4.07641 91.0353 8.02749 97.9881 12.5072 104.418C20.8677 116.782 31.1156 127.45 44.9506 132.049L44.989 132.033C45.358 132.188 45.7124 132.305 46.104 132.406C45.3602 132.406 44.6538 132.39 43.9253 132.428C38.4316 132.583 33.4135 133.684 29.5561 138.463C28.6348 139.629 28.0294 140.928 27.8401 142.273C27.086 146.086 28.9445 150.179 32.5263 152.295C35.1709 153.834 38.2955 154.302 41.3421 154.58C46.3218 154.986 51.3506 154.978 56.2911 154.436L56.1952 154.517L56.1571 154.534C54.7771 156.5 52.7771 158.022 51.0186 159.709C48.5441 161.993 45.9539 164.632 45.8112 168.017L45.8316 168.491C45.8815 171.49 48.0792 174.175 50.7528 175.572C53.5699 176.996 56.8347 177.275 60.0069 177.326C65.2164 177.332 70.1866 175.901 75.3036 175.681C76.2919 175.643 77.4632 175.689 78.7144 175.735C82.2057 175.863 86.3088 175.994 88.7451 174.316C87.9611 174.855 87.2154 175.381 86.4461 175.962L86.3717 175.992C83.846 177.729 81.3155 179.556 78.8069 181.332C75.5441 183.72 73.6175 189.151 76.8782 191.444C77.1887 191.667 77.5738 191.858 77.9281 191.974C79.859 192.626 82.1973 191.929 84.1908 191.239C94.0715 187.704 103.99 183.938 114.415 183.111C123.871 182.378 133.29 184.109 142.256 187.078C146.261 188.408 150.441 189.317 154.444 190.646C157.544 191.691 159.412 192.939 162.922 192.108L163.124 192.07L163.162 192.054C163.59 191.923 163.925 191.784 164.238 191.478L164.548 190.958C164.946 189.79 163.562 188.344 162.391 187.513C160.008 185.866 157.824 183.962 155.896 181.824L155.88 181.786C151.658 177.262 148.412 171.814 145.798 166.192C141.926 157.938 139.176 149.22 135.378 140.936C133.928 137.725 131.912 134.307 128.507 133.476C127.435 133.215 126.324 133.277 125.283 133.618C123.73 133.994 122.333 134.96 121.299 136.172C119.606 138.226 118.909 141.006 118.927 143.711C118.863 143.343 118.785 142.94 118.683 142.586L118.652 142.512C117.652 137.627 116.578 132.773 115.54 127.904C114.558 123.277 113.545 118.574 111.445 114.314C109.469 110.357 105.046 104.385 100.149 104.077L99.511 104.121L99.4579 104.099C97.0845 104.287 95.1122 106.408 94.1642 108.68C93.1184 111.035 92.8036 113.571 91.8482 115.932L91.826 115.987L91.71 116.341C90.0645 106.689 84.7188 97.7262 77.056 91.6422C75.5263 90.4765 73.9007 89.3926 71.9965 89.1258L71.906 89.1176C68.5944 88.7281 65.49 91.1847 64.0156 94.1994C62.5986 97.1434 62.405 100.504 62.3083 103.783L62.3028 104.091C62.3847 101.52 54.421 96.3019 52.4997 95.0328C48.6423 92.4619 44.4602 90.5909 39.9912 89.4089C33.4583 87.6714 27.069 85.9639 20.3476 85.0515C18.587 84.8119 6.74787 84.861 2.09905 84.4088C1.05327 84.3134 0.337212 84.1696 0.275391 84.0198Z" fill="#009245"/>
<path d="M48.2339 154.869C45.9425 154.869 43.6467 154.771 41.3626 154.585C40.3819 154.493 39.3914 154.384 38.4126 154.226C39.3851 154.384 40.368 154.49 41.3424 154.58C43.6265 154.768 45.9212 154.866 48.2127 154.866C50.9167 154.866 53.6167 154.727 56.2913 154.436L56.2848 154.442C53.6189 154.733 50.9285 154.869 48.2339 154.869Z" fill="#0D0F3F"/>
<path d="M60.0502 177.329C60.0429 177.329 60.0355 177.329 60.0279 177.329C58.3525 177.301 56.6504 177.212 55.0024 176.922C56.6441 177.208 58.3375 177.299 60.0067 177.325C60.0155 177.325 60.0238 177.325 60.0312 177.325C65.2323 177.325 70.1949 175.901 75.3034 175.681C75.5556 175.67 75.8206 175.666 76.0959 175.666C76.896 175.666 77.7833 175.699 78.7141 175.734C79.6461 175.77 80.6216 175.802 81.5982 175.802C84.2777 175.802 86.9586 175.544 88.7449 174.315C88.6418 174.386 88.5385 174.457 88.4353 174.528C86.6588 175.577 84.1386 175.806 81.6184 175.806C80.6428 175.806 79.6673 175.773 78.7354 175.738C77.8056 175.705 76.9183 175.67 76.1182 175.67C75.8429 175.67 75.5768 175.676 75.3238 175.684C70.2142 175.904 65.2514 177.329 60.0502 177.329Z" fill="#0D0F3F"/>
<path d="M79.6567 192.239C79.3331 192.239 79.0151 192.215 78.7046 192.166C79.0088 192.212 79.3192 192.234 79.6354 192.234C81.145 192.234 82.7564 191.735 84.1906 191.239C90.9522 188.821 97.7321 186.293 104.679 184.673C104.681 184.675 104.681 184.68 104.685 184.682C97.7425 186.298 90.9681 188.826 84.2106 191.244C82.7778 191.738 81.1673 192.239 79.6567 192.239Z" fill="#0D0F3F"/>
<path d="M2.96706 88.9136C2.06807 87.315 1.18842 85.7191 0.321289 84.1313L0.435118 84.3029C1.26275 85.8307 2.10538 87.3722 2.96706 88.9136Z" fill="#13114E"/>
<path d="M78.7049 192.166C78.4399 192.122 78.1815 192.06 77.9282 191.974C77.5739 191.858 77.1888 191.667 76.8783 191.444C75.6942 190.61 75.1942 189.363 75.1942 187.999C75.1942 185.607 76.7294 182.851 78.807 181.332C81.3155 179.556 83.8461 177.729 86.3718 175.992L86.4461 175.962C87.1134 175.457 87.7632 174.997 88.4356 174.529C88.5493 174.464 88.66 174.393 88.7675 174.319C87.9824 174.859 87.2356 175.386 86.4666 175.964C89.3335 174.848 92.2069 173.745 95.1196 172.813C96.9429 175.441 98.928 178.017 101.047 180.539C97.0812 182.821 93.3654 185.515 89.3664 187.814C85.844 189.785 81.9964 191.498 77.9484 191.978C78.1951 192.062 78.4473 192.122 78.7049 192.166ZM55.0027 176.922C53.5242 176.664 52.0879 176.244 50.7529 175.572C48.0793 174.174 45.8816 171.489 45.8317 168.49L45.8113 168.017C45.954 164.632 48.5442 161.992 51.0187 159.709C52.7772 158.022 54.7772 156.5 56.1572 154.534L56.1953 154.517L56.2846 154.441C56.2934 154.439 56.3028 154.439 56.3124 154.439L56.2154 154.523C62.2156 152.189 68.5527 150.678 74.9504 150.063C67.188 147.364 58.9358 146.28 50.7305 146.28C50.0325 146.28 49.3348 146.288 48.6368 146.302C46.4211 146.356 44.1944 146.476 41.9773 146.476C40.1189 146.476 38.2678 146.391 36.436 146.108C34.0871 145.716 31.7273 144.978 29.6785 143.72C29.0508 143.366 28.4592 142.775 27.8615 142.279C27.1074 146.089 28.9647 150.182 32.5465 152.298C34.3401 153.341 36.353 153.894 38.4124 154.227C36.3456 153.894 34.3254 153.341 32.5264 152.296C29.4753 150.493 27.6763 147.257 27.6744 143.984C27.6744 143.412 27.7286 142.84 27.8402 142.274C28.0295 140.928 28.6349 139.629 29.5562 138.464C33.4136 133.684 38.4318 132.584 43.9254 132.429C44.3145 132.41 44.6966 132.404 45.0828 132.404C45.4189 132.404 45.7571 132.406 46.1041 132.406C45.7124 132.305 45.3581 132.188 44.9891 132.033C46.9783 131.872 48.8912 131.306 50.8817 131.145C51.3583 131.102 51.8338 131.083 52.3082 131.083C56.0401 131.083 59.7134 132.322 63.2453 133.547C57.8604 126.616 49.9476 122.163 41.8945 118.645C33.8573 115.164 25.4199 112.416 17.8552 107.955C16.0107 106.874 14.2105 105.69 12.5073 104.418C9.05104 99.434 5.91369 94.1616 2.96699 88.9136C2.10531 87.3721 1.2627 85.8307 0.435059 84.3029C0.479729 84.3192 0.524382 84.3329 0.569052 84.3492L0.798906 84.548C3.6266 87.0617 6.59455 89.3875 9.64474 91.5907C15.9551 96.0897 22.7339 99.9106 29.8425 102.942C35.0869 105.164 40.5391 107.038 45.3848 109.993C54.7655 115.676 61.2581 125.088 70.1123 131.516C70.4868 131.801 70.9506 132.082 71.4188 132.082C71.5081 132.082 71.5985 132.072 71.6889 132.049C72.5579 131.823 72.6454 130.649 72.4942 129.748C71.6699 125.186 68.6485 120.388 70.7515 116.243C71.2006 115.317 72.0762 114.475 73.1228 114.475C73.1271 114.475 73.1303 114.475 73.1336 114.475C73.7123 114.502 74.2706 114.797 74.7559 115.123C79.6716 118.47 80.8484 124.849 82.9323 130.56V138.46C82.9323 148.06 85.9365 157.35 90.9249 166.157C87.7378 165.487 84.5269 165.068 81.3155 165.068C79.594 165.068 77.8739 165.187 76.1535 165.454C71.5984 166.187 67.2612 167.881 62.7932 169.147C59.8495 169.956 56.7933 170.583 53.776 170.583C52.1984 170.583 50.6324 170.411 49.0986 170.005C48.1561 169.735 46.9921 169.033 45.8518 168.494C45.9016 171.492 48.0997 174.178 50.7741 175.574C52.1028 176.247 53.5316 176.664 55.0027 176.922Z" fill="#007F36"/>
<path d="M48.2125 154.866C45.921 154.866 43.6263 154.768 41.3422 154.58C40.3677 154.49 39.3849 154.384 38.4124 154.226C36.3529 153.894 34.3401 153.341 32.5465 152.298C28.9647 150.182 27.1073 146.088 27.8614 142.278C28.4592 142.774 29.0507 143.365 29.6785 143.719C31.7273 144.977 34.0871 145.715 36.436 146.107C38.2677 146.391 40.1188 146.475 41.9773 146.475C44.1944 146.475 46.421 146.355 48.6368 146.301C49.3348 146.287 50.0325 146.279 50.7305 146.279C58.9358 146.279 67.1879 147.363 74.9504 150.062C68.5526 150.677 62.2156 152.189 56.2154 154.523L56.3124 154.438C56.3028 154.438 56.2934 154.438 56.2846 154.44L56.2911 154.434C53.6165 154.726 50.9165 154.866 48.2125 154.866Z" fill="#006422"/>
<path d="M60.0311 177.325C60.0238 177.325 60.0154 177.325 60.0066 177.325C58.3375 177.299 56.6441 177.209 55.0024 176.922C53.5312 176.664 52.1026 176.247 50.7738 175.575C48.0994 174.178 45.9014 171.492 45.8516 168.494C46.9918 169.033 48.1558 169.735 49.0984 170.005C50.6322 170.411 52.1981 170.583 53.7758 170.583C56.793 170.583 59.8492 169.956 62.7929 169.147C67.2609 167.881 71.5982 166.187 76.1533 165.454C77.8737 165.187 79.5938 165.068 81.3152 165.068C84.5266 165.068 87.7375 165.487 90.9247 166.157C92.1979 168.41 93.6034 170.629 95.1193 172.813C92.2066 173.745 89.3331 174.848 86.4662 175.964C87.2353 175.386 87.9821 174.859 88.7672 174.319C88.6596 174.393 88.5491 174.464 88.4353 174.529C88.5384 174.457 88.6417 174.387 88.7449 174.316C86.9586 175.545 84.2777 175.803 81.5982 175.803C80.6216 175.803 79.6461 175.77 78.7141 175.735C77.7833 175.7 76.896 175.667 76.0959 175.667C75.8205 175.667 75.5555 175.671 75.3034 175.681C70.1948 175.902 65.2323 177.325 60.0311 177.325Z" fill="#006422"/>
<path d="M79.6356 192.234C79.3195 192.234 79.009 192.211 78.7048 192.166C78.4472 192.122 78.195 192.062 77.9482 191.977C81.9963 191.498 85.8439 189.785 89.3663 187.814C93.3653 185.515 97.0811 182.821 101.047 180.539C102.217 181.934 103.431 183.315 104.679 184.673C97.7323 186.294 90.9524 188.821 84.1908 191.239C82.7566 191.735 81.1452 192.234 79.6356 192.234Z" fill="#006422"/>
<path d="M63.2454 133.547C59.7134 132.322 56.0401 131.083 52.3083 131.083C51.8338 131.083 51.3583 131.101 50.8817 131.145C48.8912 131.306 46.9783 131.872 44.9891 132.033L44.9507 132.049C31.1157 127.45 20.8678 116.782 12.5073 104.418C14.2105 105.69 16.0107 106.874 17.8552 107.956C25.42 112.417 33.8573 115.164 41.8946 118.645C49.9476 122.163 57.8604 126.616 63.2454 133.547Z" fill="#006422"/>
<path d="M64.8943 111.997C64.2281 111.439 63.7175 110.731 63.3792 109.908C63.041 109.083 62.373 108.307 61.81 107.577C61.2452 106.844 60.6452 106.128 60.0603 105.45C58.6708 103.876 57.1228 102.457 55.5176 101.104C53.8741 99.7636 52.1485 98.549 50.3421 97.4542C48.5199 96.3186 46.6538 95.2919 44.6911 94.3469C42.7422 93.4427 40.773 92.5875 38.7593 91.8413C36.7453 91.0924 34.724 90.4333 32.6815 89.8287C24.3158 87.3586 15.6424 85.8472 6.94768 85.3488C5.32127 85.2452 2.64147 85.0301 0.568973 84.3493L0.321143 84.1314L0.275391 84.0197C0.337218 84.1694 1.05319 84.3138 2.09897 84.4091C6.74779 84.8612 18.5869 84.8122 20.3476 85.0518C27.0689 85.9642 33.4582 87.6717 39.9911 89.4092C44.4602 90.5912 48.6422 92.4621 52.4996 95.033C54.4092 96.2939 62.291 101.46 62.3038 104.047C62.3038 104.047 62.3038 104.05 62.3038 104.054L62.3081 103.784L62.4856 104.323C62.6591 105.17 62.81 106.072 63.0208 106.905C63.1302 107.384 63.2621 107.812 63.4091 108.278C63.6888 109.168 63.9674 110.059 64.3206 110.922C64.4377 111.311 64.6655 111.654 64.8943 111.997Z" fill="#00B15E"/>
<path d="M0.569111 84.3493C0.524441 84.3329 0.479788 84.3192 0.435118 84.3029L0.321289 84.1313L0.569111 84.3493Z" fill="#00A451"/>
<path d="M82.9321 99.5185C81.0203 96.5119 78.7599 93.7586 76.031 91.4927C74.7971 90.5123 73.4874 89.5618 71.9961 89.1261C73.9003 89.393 75.5259 90.4769 77.0556 91.6425C79.2076 93.3501 81.1769 95.2864 82.9321 97.3997V99.5185Z" fill="#00B15E"/>
<path d="M314.827 18.8192L314.844 18.9418L314.834 19.1487C315.109 26.8777 315.228 34.9607 314.621 42.8558C313.668 57.9079 310.207 72.4508 300.509 83.5459L300.468 83.552C300.225 83.8761 299.978 84.1593 299.686 84.448C300.334 84.0667 300.942 83.6909 301.595 83.3505C306.462 80.6707 311.397 79.0584 317.206 81.2453C318.606 81.79 319.796 82.6125 320.651 83.6882C323.26 86.6213 323.739 91.1394 321.702 94.8187C320.188 97.5148 317.704 99.5219 315.193 101.325C311.062 104.228 306.677 106.796 302.094 108.855L302.222 108.877L302.263 108.871C304.471 109.878 306.996 110.181 309.39 110.747C312.715 111.472 316.323 112.444 318.181 115.32L318.407 115.742C319.899 118.378 319.36 121.845 317.745 124.429C316.021 127.115 313.319 129.029 310.582 130.699C306.048 133.37 300.985 134.672 296.415 137.101C293.077 138.899 288.055 143.087 284.005 142.796C284.964 142.867 285.884 142.94 286.851 143.052L286.933 143.042C290.021 143.262 293.161 143.556 296.257 143.818C300.323 144.229 304.782 147.974 303.118 151.639C302.96 151.993 302.723 152.358 302.475 152.642C301.127 154.197 298.73 154.785 296.641 155.207C286.222 157.19 275.652 158.987 266.148 163.608C257.534 167.81 250.216 174.146 243.925 181.322C241.117 184.533 237.942 187.466 235.137 190.676C232.971 193.174 231.98 195.217 228.5 196.292L228.304 196.36L228.263 196.366C227.822 196.469 227.457 196.522 227.029 196.418L226.492 196.124C225.547 195.307 226.013 193.341 226.607 192.017C227.841 189.362 228.767 186.584 229.352 183.732L229.346 183.692C230.708 177.589 230.743 171.18 230.141 164.944C229.289 155.769 227.219 146.768 226.282 137.604C225.901 134.064 225.909 130.055 228.447 127.585C229.248 126.808 230.247 126.294 231.329 126.057C232.875 125.588 234.586 125.716 236.108 126.245C238.635 127.162 240.667 129.23 242.037 131.596C241.904 131.242 241.765 130.85 241.672 130.49L241.662 130.409C240.03 125.643 238.481 120.863 236.89 116.092C235.376 111.555 233.851 106.939 233.5 102.154C233.192 97.6954 233.987 90.2252 238.094 87.45L238.674 87.1614L238.707 87.115C240.872 86.0638 243.677 86.9026 245.668 88.395C247.784 89.9119 249.355 91.9599 251.398 93.5259L251.444 93.5612L251.727 93.809C248.22 84.5604 248.285 74.0128 251.844 64.7859C252.58 62.9885 253.44 61.2129 254.963 60.0037L255.039 59.952C257.724 57.9149 261.684 58.4677 264.514 60.336C267.256 62.177 269.146 65.0039 270.911 67.8117L271.072 68.0786C269.685 65.8781 273.95 57.2531 274.974 55.167C277.017 50.9485 279.702 47.1766 282.989 43.8568C287.79 39.001 292.483 34.2405 297.87 30.0002C299.28 28.8891 309.621 22.8704 313.439 20.0925C314.3 19.4743 314.849 18.9826 314.827 18.8192Z" fill="#007537"/>
<path d="M314.99 24.4538C314.95 22.6727 314.895 20.9025 314.833 19.1487L314.843 18.9417C314.9 20.7637 314.952 22.6019 314.99 24.4538Z" fill="#13114C"/>
<path d="M289.62 97.3998V89.5455C291.197 88.0477 292.912 86.7241 294.879 85.7927C296.695 84.9158 298.65 84.4283 300.467 83.5514C300.225 83.8755 299.977 84.1587 299.685 84.4474C300.334 84.0661 300.941 83.6903 301.594 83.3499C304.873 81.5443 308.185 80.2234 311.772 80.2234C313.509 80.2234 315.309 80.5312 317.205 81.2447C318.605 81.7894 319.795 82.6118 320.65 83.6875C322.17 85.3951 322.965 87.6392 322.965 89.9432C322.965 91.1905 322.731 92.4568 322.249 93.666C322.243 93.6681 322.238 93.6722 322.234 93.6742C323.601 90.24 322.975 86.332 320.633 83.7012C320.369 84.4419 320.154 85.2562 319.789 85.888C318.648 88.034 316.97 89.886 315.124 91.4301C313.247 92.9661 311.172 94.227 309.045 95.4144C308.895 95.0032 308.726 94.5974 308.536 94.1998C307.163 91.3974 304.385 89.0771 301.343 89.0771C301.112 89.0771 300.878 89.0914 300.646 89.118L300.554 89.1262C298.65 89.393 297.024 90.477 295.496 91.6426C293.342 93.3501 291.376 95.2865 289.62 97.3998ZM289.619 81.005V63.1477C292.247 58.665 295.651 54.6372 298.762 50.4486C303.402 44.1685 307.348 37.3655 310.543 30.2166C312.071 26.7334 313.465 23.1875 314.642 19.5491L314.737 19.2577C314.77 19.2224 314.802 19.1868 314.832 19.1488C314.895 20.9027 314.949 22.6728 314.99 24.4539C315.11 30.538 315.077 36.7392 314.62 42.8559C313.787 44.8358 312.825 46.7884 311.771 48.6757C307.466 56.4374 301.523 63.1533 296.305 70.3022C293.84 73.701 291.512 77.2631 289.619 81.005Z" fill="#00622A"/>
<path d="M310.247 104.053L310.245 103.783C310.16 100.948 310.002 98.0506 309.046 95.4144C311.173 94.227 313.249 92.9661 315.125 91.4301C316.971 89.8859 318.649 88.034 319.79 85.888C320.155 85.2561 320.37 84.4419 320.634 83.7011C322.977 86.3319 323.603 90.24 322.236 93.6741C321.498 94.1044 320.768 94.5565 320.052 95.0331C318.142 96.2941 310.261 101.46 310.247 104.048C310.247 104.048 310.247 104.049 310.247 104.053Z" fill="#004719"/>
<path d="M289.62 89.5455V81.0049C291.512 77.263 293.841 73.7008 296.306 70.302C301.524 63.1531 307.466 56.4372 311.772 48.6756C312.826 46.7883 313.787 44.8356 314.62 42.8557C313.667 57.9079 310.206 72.4508 300.508 83.5459L300.467 83.552C298.65 84.4289 296.695 84.9164 294.878 85.7934C292.912 86.7248 291.196 88.0476 289.62 89.5455Z" fill="#004719"/>
<path d="M289.62 40.4292V37.2592C292.25 34.7319 294.957 32.289 297.869 29.9987C299.279 28.8875 309.62 22.8688 313.438 20.091C314.28 19.4891 314.825 19.0043 314.827 18.8328C314.827 18.8266 314.827 18.8245 314.827 18.8184L314.844 18.941L314.737 19.2569C313.283 20.9127 311.061 22.4705 309.694 23.3937C302.395 28.2686 295.63 34.0129 289.62 40.4292Z" fill="#00954D"/>
<path d="M314.737 19.2576L314.843 18.9417L314.833 19.1487C314.803 19.1869 314.77 19.2223 314.737 19.2576Z" fill="#008641"/>
<path d="M372.274 84.0198L372.228 84.1315L372.114 84.3031C368.472 91.0353 364.524 97.9881 360.044 104.418C351.683 116.782 341.435 127.45 327.6 132.049L327.562 132.033C327.191 132.188 326.837 132.305 326.445 132.406C327.191 132.406 327.897 132.39 328.627 132.428C334.12 132.583 339.136 133.684 342.995 138.463C343.916 139.629 344.52 140.928 344.711 142.273C345.465 146.086 343.608 150.179 340.024 152.295C337.38 153.834 334.256 154.302 331.208 154.58C326.227 154.986 321.2 154.978 316.26 154.436L316.355 154.517L316.393 154.534C317.774 156.5 319.773 158.022 321.532 159.709C324.008 161.993 326.598 164.632 326.739 168.017L326.721 168.491C326.669 171.49 324.471 174.175 321.8 175.572C318.981 176.996 315.716 177.275 312.543 177.326C307.333 177.332 302.366 175.901 297.249 175.681C296.26 175.643 295.089 175.689 293.839 175.735C290.345 175.863 286.241 175.994 283.806 174.316C284.59 174.855 285.336 175.381 286.104 175.962L286.181 175.992C288.705 177.729 291.235 179.556 293.746 181.332C297.009 183.72 298.934 189.151 295.674 191.444C295.364 191.667 294.977 191.858 294.623 191.974C292.692 192.626 290.353 191.929 288.362 191.239C278.479 187.704 268.563 183.938 258.138 183.111C248.68 182.378 239.259 184.109 230.294 187.078C226.291 188.408 222.11 189.317 218.107 190.646C215.008 191.691 213.139 192.939 209.629 192.108L209.427 192.07L209.389 192.054C208.962 191.923 208.627 191.784 208.313 191.478L208.003 190.958C207.608 189.79 208.989 188.344 210.16 187.513C212.546 185.866 214.727 183.962 216.655 181.824L216.672 181.786C220.893 177.262 224.136 171.814 226.754 166.192C230.626 157.938 233.377 149.22 237.173 140.936C238.625 137.725 240.64 134.307 244.044 133.476C245.115 133.215 246.228 133.277 247.269 133.618C248.821 133.994 250.218 134.96 251.253 136.172C252.947 138.226 253.641 141.006 253.625 143.711C253.688 143.343 253.767 142.94 253.868 142.586L253.9 142.512C254.9 137.627 255.973 132.773 257.01 127.904C257.993 123.277 259.007 118.574 261.106 114.314C263.083 110.357 267.506 104.385 272.4 104.077L273.04 104.121L273.092 104.099C275.467 104.287 277.438 106.408 278.386 108.68C279.432 111.035 279.748 113.571 280.701 115.932L280.725 115.987L280.843 116.341C282.487 106.689 287.833 97.7262 295.497 91.6422C297.025 90.4765 298.651 89.3926 300.554 89.1258L300.647 89.1176C303.956 88.7281 307.06 91.1847 308.537 94.1994C309.953 97.1434 310.146 100.504 310.244 103.783L310.25 104.091C310.169 101.52 318.132 96.3019 320.052 95.0328C323.911 92.4619 328.091 90.5909 332.56 89.4089C339.094 87.6714 345.483 85.9639 352.204 85.0515C353.966 84.8119 365.805 84.861 370.453 84.4088C371.499 84.3134 372.214 84.1696 372.274 84.0198Z" fill="#009245"/>
<path d="M324.318 154.869C321.622 154.869 318.932 154.732 316.265 154.441L316.259 154.435C318.934 154.726 321.632 154.865 324.337 154.865C326.63 154.865 328.926 154.767 331.208 154.579C332.177 154.492 333.155 154.383 334.122 154.228C333.15 154.386 332.164 154.495 331.186 154.585C328.904 154.77 326.609 154.869 324.318 154.869Z" fill="#0D0F3F"/>
<path d="M312.499 177.329C307.3 177.329 302.335 175.904 297.226 175.684C296.973 175.676 296.709 175.67 296.431 175.67C295.633 175.67 294.745 175.705 293.814 175.738C292.882 175.773 291.907 175.806 290.932 175.806C288.41 175.806 285.886 175.577 284.11 174.525C284.01 174.455 283.906 174.387 283.805 174.315C285.592 175.544 288.272 175.802 290.951 175.802C291.929 175.802 292.904 175.77 293.838 175.734C294.767 175.699 295.655 175.666 296.455 175.666C296.73 175.666 296.995 175.67 297.248 175.681C302.357 175.901 307.319 177.325 312.518 177.325C312.526 177.325 312.534 177.325 312.542 177.325C314.201 177.299 315.884 177.209 317.515 176.927C315.878 177.211 314.187 177.301 312.523 177.329C312.515 177.329 312.507 177.329 312.499 177.329Z" fill="#0D0F3F"/>
<path d="M292.893 192.239C291.384 192.239 289.772 191.738 288.339 191.245C281.58 188.827 274.804 186.299 267.857 184.679C267.859 184.676 267.863 184.672 267.865 184.67C274.812 186.292 281.596 188.821 288.361 191.239C289.794 191.735 291.406 192.234 292.915 192.234C293.225 192.234 293.533 192.212 293.833 192.166C293.525 192.215 293.212 192.239 292.893 192.239Z" fill="#0D0F3F"/>
<path d="M369.494 89.077C370.387 87.4811 371.258 85.8852 372.114 84.3029L372.228 84.1313C371.335 85.7708 370.422 87.4239 369.494 89.077Z" fill="#13114E"/>
<path d="M293.833 192.166C294.094 192.124 294.35 192.062 294.601 191.978C290.554 191.498 286.706 189.785 283.185 187.814C279.184 185.515 275.467 182.819 271.499 180.536C273.617 178.015 275.603 175.438 277.427 172.811C280.339 173.745 283.215 174.845 286.085 175.964C285.317 175.386 284.568 174.859 283.784 174.319C283.89 174.389 283.999 174.461 284.111 174.526C284.783 174.995 285.437 175.458 286.104 175.962L286.18 175.992C288.705 177.729 291.235 179.557 293.746 181.332C295.821 182.851 297.357 185.607 297.357 187.999C297.357 189.363 296.859 190.611 295.674 191.444C295.364 191.667 294.977 191.857 294.623 191.974C294.367 192.062 294.103 192.124 293.833 192.166ZM317.516 176.928C319 176.669 320.438 176.25 321.778 175.575C324.452 174.178 326.647 171.492 326.699 168.494C325.558 169.033 324.395 169.735 323.453 170.005C321.919 170.411 320.353 170.583 318.776 170.583C315.759 170.583 312.701 169.957 309.757 169.147C305.29 167.881 300.952 166.187 296.398 165.454C294.677 165.187 292.956 165.068 291.235 165.068C288.021 165.068 284.81 165.487 281.621 166.16C286.611 157.35 289.62 148.06 289.62 138.46V130.56C291.703 124.849 292.88 118.471 297.796 115.124C298.28 114.797 298.839 114.503 299.419 114.475C299.421 114.475 299.425 114.475 299.427 114.475C300.475 114.475 301.35 115.317 301.799 116.243C303.904 120.388 300.881 125.186 300.056 129.748C299.906 130.65 299.993 131.823 300.862 132.049C300.952 132.071 301.042 132.082 301.132 132.082C301.6 132.082 302.063 131.802 302.439 131.516C311.293 125.088 317.785 115.676 327.165 109.993C332.012 107.038 337.464 105.164 342.71 102.942C349.818 99.9107 356.596 96.0898 362.906 91.5908C365.956 89.3876 368.925 87.0618 371.752 84.5481L371.981 84.3494C372.027 84.333 372.07 84.3193 372.114 84.303C371.259 85.8853 370.387 87.4812 369.494 89.0771C366.575 94.2706 363.464 99.4859 360.044 104.418C358.342 105.69 356.542 106.874 354.695 107.956C347.13 112.417 338.693 115.164 330.656 118.645C322.603 122.163 314.691 126.616 309.304 133.547C312.837 132.322 316.511 131.083 320.244 131.083C320.718 131.083 321.195 131.101 321.669 131.145C323.659 131.306 325.571 131.872 327.562 132.033C327.192 132.188 326.838 132.305 326.445 132.406C326.794 132.406 327.132 132.404 327.469 132.404C327.853 132.404 328.237 132.41 328.627 132.429C334.12 132.584 339.136 133.684 342.995 138.464C343.916 139.629 344.521 140.928 344.711 142.274C344.823 142.84 344.877 143.412 344.877 143.984C344.875 147.258 343.074 150.493 340.024 152.296C338.221 153.344 336.195 153.897 334.123 154.229C336.187 153.894 338.208 153.344 340.005 152.299C343.586 150.182 345.444 146.089 344.689 142.279C344.09 142.775 343.499 143.366 342.873 143.72C340.825 144.978 338.464 145.716 336.116 146.108C334.283 146.392 332.431 146.476 330.574 146.476C328.357 146.476 326.129 146.356 323.913 146.302C323.215 146.287 322.518 146.28 321.821 146.28C313.616 146.28 305.364 147.364 297.599 150.063C303.999 150.678 310.337 152.19 316.336 154.524L316.238 154.439C316.246 154.439 316.257 154.439 316.265 154.441L316.355 154.517L316.393 154.534C317.774 156.5 319.773 158.022 321.532 159.709C324.008 161.993 326.598 164.632 326.74 168.017L326.721 168.491C326.669 171.49 324.472 174.174 321.8 175.572C320.455 176.25 319.005 176.669 317.516 176.928Z" fill="#007F36"/>
<path d="M324.338 154.866C321.633 154.866 318.934 154.727 316.26 154.436L316.266 154.442C316.258 154.44 316.248 154.44 316.239 154.44L316.337 154.524C310.337 152.19 304 150.679 297.6 150.063C305.364 147.364 313.616 146.28 321.822 146.28C322.519 146.28 323.216 146.288 323.913 146.302C326.13 146.357 328.358 146.476 330.575 146.476C332.432 146.476 334.284 146.392 336.117 146.109C338.464 145.717 340.826 144.979 342.874 143.72C343.5 143.366 344.091 142.775 344.69 142.28C345.445 146.09 343.587 150.183 340.006 152.299C338.209 153.345 336.188 153.895 334.123 154.23C333.157 154.385 332.179 154.494 331.209 154.581C328.927 154.769 326.631 154.866 324.338 154.866Z" fill="#006422"/>
<path d="M312.518 177.325C307.319 177.325 302.357 175.901 297.248 175.681C296.994 175.671 296.73 175.667 296.455 175.667C295.654 175.667 294.767 175.699 293.838 175.735C292.904 175.77 291.929 175.803 290.951 175.803C288.271 175.803 285.591 175.544 283.805 174.315C283.906 174.387 284.009 174.455 284.11 174.525C283.998 174.46 283.889 174.389 283.783 174.319C284.567 174.858 285.316 175.386 286.084 175.963C283.214 174.844 280.338 173.744 277.427 172.81C278.941 170.628 280.346 168.406 281.621 166.159C284.81 165.487 288.021 165.068 291.234 165.068C292.955 165.068 294.677 165.187 296.398 165.454C300.951 166.187 305.29 167.881 309.756 169.146C312.7 169.956 315.758 170.582 318.776 170.582C320.353 170.582 321.919 170.41 323.452 170.005C324.394 169.735 325.557 169.033 326.698 168.493C326.647 171.492 324.451 174.177 321.777 175.574C320.437 176.25 318.999 176.669 317.515 176.927C315.884 177.208 314.201 177.299 312.542 177.325C312.534 177.325 312.526 177.325 312.518 177.325Z" fill="#006422"/>
<path d="M292.915 192.234C291.406 192.234 289.794 191.735 288.361 191.239C281.597 188.821 274.813 186.291 267.865 184.67C269.113 183.312 270.327 181.931 271.498 180.536C275.466 182.819 279.184 185.515 283.184 187.814C286.706 189.785 290.554 191.498 294.601 191.978C294.35 192.062 294.094 192.124 293.833 192.166C293.533 192.211 293.225 192.234 292.915 192.234Z" fill="#006422"/>
<path d="M309.304 133.547C314.691 126.616 322.603 122.163 330.656 118.645C338.692 115.164 347.129 112.416 354.695 107.956C356.541 106.874 358.342 105.69 360.044 104.418C351.683 116.782 341.435 127.45 327.6 132.049L327.562 132.033C325.571 131.872 323.659 131.306 321.668 131.145C321.195 131.102 320.718 131.082 320.244 131.082C316.51 131.082 312.837 132.322 309.304 133.547Z" fill="#006422"/>
<path d="M307.657 111.997C307.885 111.654 308.114 111.311 308.228 110.921C308.582 110.058 308.863 109.168 309.141 108.277C309.288 107.811 309.421 107.384 309.53 106.904C309.74 106.071 309.892 105.17 310.064 104.323L310.244 103.783L310.246 104.053C310.246 104.051 310.246 104.047 310.246 104.047C310.26 101.46 318.141 96.2935 320.05 95.0325C323.909 92.4617 328.089 90.5907 332.558 89.4088C339.092 87.6712 345.481 85.9637 352.202 85.0513C353.964 84.8117 365.803 84.8607 370.452 84.4086C371.497 84.3132 372.214 84.1689 372.274 84.0192L372.227 84.1309L371.979 84.3488C369.91 85.0296 367.23 85.2448 365.601 85.3482C356.908 85.8466 348.234 87.3581 339.868 89.8282C337.825 90.4328 335.805 91.0919 333.792 91.8408C331.777 92.587 329.808 93.4421 327.861 94.3463C325.897 95.2913 324.029 96.318 322.21 97.4537C320.401 98.5485 318.677 99.7631 317.032 101.103C315.426 102.457 313.879 103.875 312.49 105.45C311.904 106.128 311.305 106.844 310.741 107.576C310.178 108.306 309.51 109.083 309.17 109.908C308.832 110.73 308.324 111.439 307.657 111.997Z" fill="#00B15E"/>
<path d="M371.98 84.3492L372.228 84.1313L372.113 84.3029C372.07 84.3192 372.026 84.3329 371.98 84.3492Z" fill="#00A451"/>
<path d="M289.62 99.5158V97.3997C291.376 95.2864 293.342 93.3501 295.497 91.6425C297.024 90.4769 298.65 89.393 300.554 89.1261C299.062 89.5618 297.754 90.5123 296.518 91.4927C293.792 93.7586 291.531 96.5119 289.62 99.5158Z" fill="#00B15E"/>
<path d="M163.69 135.854C163.821 135.805 163.952 135.75 164.08 135.688C163.952 135.751 163.824 135.805 163.693 135.851L163.69 135.854Z" fill="#FF923B"/>
<path d="M170.493 56.9955H155.454C115.504 54.0942 101.811 30.1854 105.461 16.4718L105.546 16.1296C109.491 2.43647 119.195 6.33792 119.195 6.33792C119.195 6.33792 113.863 13.8045 125.339 30.3345C130.329 37.5438 139.609 43.5568 148.438 48.0373H148.458C159.826 53.7959 170.493 56.9955 170.493 56.9955Z" fill="#D38F07"/>
<path d="M148.438 48.0374C130.373 45.0718 122.608 34.5577 116.168 24.2981C112.178 17.9283 108.613 16.4279 106.168 16.4279C105.92 16.4279 105.683 16.4433 105.46 16.4718L105.545 16.1296C108.303 14.6731 111.591 13.5501 115.442 13.5501C116.293 13.5501 117.171 13.6056 118.074 13.7227C118.519 17.6183 120.324 23.1108 125.339 30.3346C130.329 37.5438 139.609 43.5568 148.438 48.0374ZM108.605 9.68672C108.958 9.23047 109.324 8.82396 109.693 8.46423C109.306 8.85028 108.944 9.25972 108.605 9.68672Z" fill="#C16F03"/>
<path d="M199.052 56.7382C198.584 58.7006 196.364 59.6599 194.402 60.1951C189.006 61.6457 183.396 62.178 177.743 62.137L171.344 54.6909C171.344 54.6909 160.382 50.1285 143.019 30.3112C125.658 10.5202 113.436 11.9708 105.545 16.1296C106.356 12.971 107.911 9.92062 110.406 7.81196C112.562 5.95482 115.314 4.88733 118.107 4.2907C126.638 2.47743 135.128 4.80251 142.785 9.21871C148.33 12.3978 153.428 16.6619 157.779 21.2272C164.158 27.9247 168.978 36.0288 175.824 42.1706C182.244 47.9321 189.836 52.2196 197.557 56.0158C198.049 56.2497 198.561 56.5042 199.052 56.7382Z" fill="#FFB612"/>
<path d="M174.953 52.1963H171.007C158.197 41.4658 147.938 20.85 142.785 9.21875C146.715 11.4707 150.421 14.2696 153.796 17.3346C154.466 19.2386 155.153 21.1337 155.913 22.9967C160.008 32.9375 166.15 41.7465 172.891 49.8068C173.566 50.6169 174.251 51.4183 174.953 52.1963Z" fill="#E98E09"/>
<path d="M190.98 59.4493C187.544 60.3676 183.832 59.3412 180.805 57.3787C180.121 56.9516 179.483 56.4837 178.863 55.9719C176.667 54.2025 174.748 52.0266 172.891 49.8068C166.15 41.7465 160.008 32.9375 155.914 22.9967C153.609 17.3434 151.968 11.3742 149.406 5.84662C154.144 9.40882 159.134 12.5236 164.339 15.1908C164.679 10.1985 165.597 5.27339 167.068 0.515015C171.013 13.9098 176.091 26.9011 182.171 39.3132C182.893 40.7843 183.642 42.2788 184.473 43.6855C184.815 44.2617 185.177 44.8378 185.561 45.3935C187.736 48.5492 190.573 50.7251 193.112 53.4538C195.458 55.9719 193.987 58.6362 190.98 59.4493Z" fill="#FFB612"/>
<path d="M182.297 52.1961H179.963C180.966 49.8008 182.402 47.4611 183.405 45.563C183.747 44.9225 184.09 44.3054 184.473 43.6854C184.815 44.2615 185.178 44.8377 185.561 45.3934C186.377 46.5778 187.289 47.6248 188.24 48.6163C186.307 49.8797 184.318 51.0671 182.297 52.1961Z" fill="#E98E09"/>
<path d="M202.058 56.9955H217.096C257.044 54.0942 270.737 30.1854 267.09 16.4718L267.005 16.1296C263.06 2.43647 253.356 6.33792 253.356 6.33792C253.356 6.33792 258.688 13.8045 247.211 30.3345C242.222 37.5438 232.942 43.5568 224.113 48.0373H224.093C212.725 53.7959 202.058 56.9955 202.058 56.9955Z" fill="#D38F07"/>
<path d="M224.113 48.0374C232.943 43.5569 242.223 37.5438 247.212 30.3346C252.228 23.1107 254.032 17.6183 254.474 13.7227C255.378 13.6058 256.249 13.55 257.097 13.55C260.949 13.55 264.236 14.6731 266.994 16.1296C266.965 16.0096 266.933 15.8927 266.901 15.7757C266.936 15.8926 266.971 16.0097 267.006 16.1296L267.091 16.4718C266.866 16.4426 266.632 16.4279 266.38 16.4279C263.938 16.4279 260.373 17.9282 256.384 24.2981C249.944 34.5577 242.179 45.0718 224.113 48.0374ZM264.47 10.4119C263.891 9.57548 263.23 8.80045 262.476 8.11316C263.166 8.71856 263.839 9.47605 264.47 10.4119Z" fill="#C16F03"/>
<path d="M266.994 16.1296C259.104 11.9708 246.881 10.5202 229.521 30.3112C223.739 36.9238 218.641 41.8313 214.462 45.4344C206.059 52.6641 201.196 54.6909 201.196 54.6909L194.797 62.137C189.743 62.178 184.73 61.751 179.866 60.6221C179.29 60.4933 178.714 60.3442 178.138 60.1951C176.176 59.6599 173.959 58.7006 173.488 56.7382C173.979 56.5042 174.491 56.2497 174.982 56.0158C176.453 55.2905 177.924 54.5417 179.375 53.7755C185.561 50.5321 191.512 46.8207 196.715 42.1706C198.315 40.7433 199.786 39.2079 201.216 37.6052C205.887 32.338 209.856 26.3658 214.76 21.2272C219.112 16.6619 224.21 12.3978 229.755 9.21871C237.412 4.80251 245.902 2.47743 254.433 4.2907C257.226 4.88733 259.978 5.95482 262.133 7.81196C264.628 9.92062 266.184 12.971 266.994 16.1296Z" fill="#FFB612"/>
<path d="M205.586 52.1962H182.297C187.43 49.333 192.337 46.0837 196.715 42.1705C198.315 40.7433 199.786 39.2079 201.216 37.6052C203.775 38.737 206.08 40.5064 208.469 42.0447C210.408 43.2819 212.415 44.3903 214.462 45.4344C210.792 48.593 207.797 50.7602 205.586 52.1962Z" fill="#E98E09"/>
<path d="M269.705 90.974V198.878C269.705 205.979 263.946 211.718 256.842 211.718H115.708C108.604 211.718 102.866 205.979 102.866 198.878V90.974C102.866 83.8701 108.604 78.132 115.708 78.132H256.842C263.946 78.132 269.705 83.8701 269.705 90.974Z" fill="#FF5766"/>
<path d="M108.446 209.468C105.221 207.257 103.059 203.613 102.881 199.443C102.879 199.425 102.879 199.41 102.879 199.393C102.876 199.343 102.876 199.291 102.872 199.241C102.872 199.239 102.872 199.235 102.872 199.233C102.872 199.217 102.872 199.206 102.872 199.195C102.872 199.188 102.872 199.186 102.872 199.179C102.87 199.168 102.87 199.156 102.87 199.141C102.87 199.139 102.87 199.135 102.87 199.133C102.87 199.1 102.87 199.068 102.87 199.036C102.87 199.034 102.87 199.027 102.87 199.021C102.87 199.01 102.87 199.001 102.87 198.989C102.87 198.982 102.868 198.978 102.868 198.971C102.868 198.962 102.868 198.951 102.868 198.939C102.868 198.932 102.868 198.93 102.868 198.923C102.868 198.908 102.868 198.891 102.868 198.877V99.1204V103.534C103.874 103.551 104.941 103.572 106.067 103.592V201.801C106.067 204.65 106.946 207.289 108.446 209.468Z" fill="#FF90A3"/>
<path d="M256.843 211.717H199.166V180.877C206.346 169.649 212.561 157.881 217.255 145.34C221.589 133.752 224.534 121.641 226.052 109.349C240.977 110.581 255.801 112.069 269.705 113.859V114.918V189.572V198.878C269.705 199.291 269.685 199.7 269.647 200.104C269.421 202.484 268.547 204.675 267.202 206.497C264.859 209.664 261.092 211.717 256.843 211.717Z" fill="#D83743"/>
<path d="M177.436 211.717H176.474C176.795 211.325 177.114 210.934 177.436 210.542V211.717Z" fill="#D83743"/>
<path d="M195.115 187.01V107.13C196.463 107.211 197.809 107.296 199.166 107.384V180.877C197.847 182.942 196.496 184.983 195.115 187.01Z" fill="#D83743"/>
<path d="M199.166 211.717H195.115V187.01C196.496 184.983 197.847 182.942 199.166 180.877V211.717Z" fill="#B7222C"/>
<path d="M177.436 211.717H195.116V78.1324H177.436V211.717Z" fill="#FFB612"/>
<path d="M195.115 211.718H189.562V106.796C191.404 106.904 193.255 107.016 195.115 107.13V187.01V211.718Z" fill="#FF9C09"/>
<path d="M226.052 109.349C217.068 108.607 208.048 107.954 199.166 107.384V99.122H226.982C226.78 102.538 226.47 105.951 226.052 109.349Z" fill="#D83743"/>
<path d="M269.705 113.859C255.802 112.069 240.977 110.58 226.052 109.349C226.47 105.951 226.781 102.538 226.982 99.1218H269.641C269.661 99.1218 269.682 99.1218 269.705 99.1196V113.859Z" fill="#B7222C"/>
<path d="M199.166 107.384C197.809 107.296 196.463 107.211 195.115 107.13V99.122H199.166V107.384Z" fill="#B7222C"/>
<path d="M177.436 106.124C147.637 104.571 121.33 103.886 106.066 103.594V99.122H177.436V106.124Z" fill="#D83743"/>
<path d="M106.066 103.594C104.94 103.574 103.872 103.553 102.866 103.535V99.1218C102.882 99.1218 102.895 99.1218 102.91 99.1218H106.066V103.594Z" fill="#D85A6B"/>
<path d="M189.562 106.796C185.467 106.556 181.419 106.331 177.436 106.124V99.122H189.562V106.796Z" fill="#D8720C"/>
<path d="M195.115 107.13C193.255 107.016 191.404 106.904 189.562 106.796V99.122H195.115V107.13Z" fill="#D86206"/>
<path d="M276.616 59.1712V92.1465C276.616 95.9865 273.481 99.1217 269.641 99.1217H102.91C99.0702 99.1217 95.9351 95.9865 95.9351 92.1465V59.1712C95.9351 55.3312 99.0702 52.196 102.91 52.196H269.641C273.481 52.196 276.616 55.3312 276.616 59.1712Z" fill="#FF5766"/>
<path d="M195.115 99.1218H199.165V54.6709H195.115V99.1218Z" fill="#D83743"/>
<path d="M177.436 99.1221H195.116V52.1967H177.436V99.1221Z" fill="#FFB612"/>
<path d="M189.562 99.1218H195.116V54.6709H189.562V99.1218Z" fill="#FF9C09"/>
<path d="M97.1607 96.0774C96.4266 95.0099 95.9792 93.7318 95.9382 92.3543C95.9382 92.3521 95.9382 92.3456 95.9382 92.3434C95.9382 92.3346 95.9382 92.3258 95.9382 92.3199C95.9382 92.3111 95.9382 92.3046 95.9382 92.2964C95.9382 92.2877 95.9382 92.2789 95.9382 92.2701C95.9361 92.2614 95.936 92.2526 95.936 92.2438C95.936 92.2372 95.936 92.2328 95.936 92.2262C95.936 92.2175 95.936 92.2087 95.936 92.1999C95.936 92.1977 95.936 92.1912 95.936 92.189C95.936 92.1736 95.936 92.1598 95.936 92.1479V59.1727C95.936 55.3326 99.0712 52.1974 102.911 52.1974H177.437V54.6717H103.979C100.139 54.6717 97.0035 57.8069 97.0035 61.6469V94.6222C97.0035 95.1223 97.0613 95.6066 97.1607 96.0774Z" fill="#FF90A3"/>
<path d="M223.066 54.6702H199.166V52.196H269.641H222.376C222.589 52.9213 222.803 53.6261 222.973 54.3076C223.005 54.4276 223.037 54.5503 223.066 54.6702Z" fill="#FF90A3"/>
<path d="M195.115 54.6703H199.165V52.1958H195.115V54.6703Z" fill="#FF7B8E"/>
<path d="M270.074 52.2109C270.067 52.2086 270.065 52.2086 270.058 52.2086C270.058 52.2086 270.067 52.2086 270.074 52.2109Z" fill="#FF997A"/>
<path d="M177.436 54.6703H189.562V52.1958H177.436V54.6703Z" fill="#FFCF71"/>
<path d="M189.562 54.6703H195.116V52.1958H189.562V54.6703Z" fill="#FFBE6B"/>
<path d="M269.641 99.122H226.982C227.046 97.9258 227.111 96.7326 227.152 95.5364C227.64 81.8403 226.511 67.9542 223.066 54.6705H270.705C273.089 54.6705 275.195 55.8813 276.455 57.7121C275.815 54.7319 273.261 52.4448 270.153 52.2138C273.756 52.4799 276.616 55.504 276.616 59.1715V92.1467C276.616 95.9868 273.481 99.122 269.641 99.122ZM270.015 52.2072C270.008 52.2072 270 52.2072 269.995 52.2072C270.002 52.2072 270.006 52.2072 270.015 52.2072ZM269.825 52.2028C269.823 52.2028 269.816 52.2028 269.809 52.2028C269.816 52.2028 269.82 52.2028 269.825 52.2028Z" fill="#D83743"/>
<path d="M276.455 57.7118C275.194 55.881 273.089 54.6702 270.705 54.6702H223.066C223.037 54.5502 223.004 54.4275 222.972 54.3076C222.802 53.6261 222.589 52.9213 222.375 52.196H269.64C269.656 52.196 269.667 52.196 269.681 52.196C269.688 52.196 269.69 52.196 269.697 52.196C269.706 52.196 269.717 52.196 269.726 52.196C269.733 52.196 269.735 52.196 269.741 52.196C269.75 52.1982 269.759 52.1982 269.768 52.1982C269.774 52.1982 269.779 52.1982 269.785 52.1982C269.794 52.1982 269.803 52.1982 269.812 52.1982C269.818 52.1982 269.823 52.1982 269.827 52.1982C269.836 52.1982 269.844 52.1982 269.853 52.1982C269.86 52.1982 269.864 52.1982 269.871 52.1982C269.879 52.1982 269.888 52.2004 269.897 52.2004C269.904 52.2004 269.908 52.2004 269.915 52.2004C269.923 52.2004 269.934 52.2004 269.947 52.2004C269.956 52.2004 269.964 52.2004 269.973 52.2026C269.982 52.2026 269.989 52.2026 269.997 52.2026C270.003 52.2026 270.012 52.2026 270.016 52.2026C270.023 52.2048 270.027 52.2048 270.034 52.2048C270.043 52.2048 270.052 52.2048 270.06 52.2048C270.067 52.2048 270.069 52.2048 270.076 52.2069C270.084 52.2069 270.093 52.2069 270.102 52.2069C270.108 52.2069 270.111 52.2069 270.117 52.2091C270.126 52.2091 270.135 52.2091 270.144 52.2091H270.155C273.263 52.4402 275.817 54.7272 276.457 57.7075" fill="#D85A6B"/>
<path d="M238.181 88.2217C228.199 78.4739 219.068 67.916 210.944 56.738C209.578 54.8399 208.232 52.9418 207.144 50.8946L207.083 50.7893C206.463 49.7218 201.643 41.7434 196.376 40.6555C195.031 40.401 193.665 40.5736 192.343 41.4042C185.391 45.797 181.914 52.1961 181.914 52.1961H194.732C195.288 54.8604 196.268 57.4867 197.335 60.0458C201.324 69.7731 206.229 79.3279 213.096 87.5607C217 92.2518 221.522 96.4984 225.233 101.339C224.294 95.4953 223.867 89.6284 223.952 83.785C228.518 85.8118 233.296 87.3034 238.181 88.2217Z" fill="#FFB612"/>
<g style="mix-blend-mode:color">
<path d="M57.7242 18.8192L57.7071 18.9418L57.7177 19.1487C57.4421 26.8777 57.3231 34.9607 57.9315 42.8558C58.8836 57.9079 62.3453 72.4508 72.0433 83.5459L72.0836 83.552C72.3262 83.8761 72.5762 84.1593 72.8643 84.448C72.2164 84.0667 71.6091 83.6909 70.955 83.3505C66.0899 80.6707 61.1549 79.0584 55.3475 81.2453C53.9463 81.79 52.7559 82.6125 51.8997 83.6882C49.2923 86.6213 48.8125 91.1394 50.8496 94.8187C52.3657 97.5148 54.8475 99.5219 57.3582 101.325C61.4901 104.228 65.875 106.796 70.4569 108.855L70.3305 108.877L70.2899 108.871C68.0804 109.878 65.5569 110.181 63.1623 110.747C59.8367 111.472 56.2272 112.444 54.3698 115.32L54.1454 115.742C52.6527 118.378 53.1922 121.845 54.8061 124.429C56.5305 127.115 59.2327 129.029 61.9697 130.699C66.506 133.37 71.5677 134.672 76.1378 137.101C79.4762 138.899 84.4984 143.087 88.5472 142.796C87.5867 142.867 86.6675 142.94 85.7015 143.052L85.6196 143.042C82.5313 143.262 79.3899 143.556 76.2953 143.818C72.2282 144.229 67.7687 147.974 69.4356 151.639C69.5922 151.993 69.8294 152.358 70.0784 152.642C71.4262 154.197 73.8219 154.785 75.9102 155.207C86.3294 157.19 96.8983 158.987 106.404 163.608C115.018 167.81 122.337 174.146 128.627 181.322C131.433 184.533 134.61 187.466 137.416 190.676C139.581 193.174 140.57 195.217 144.052 196.292L144.251 196.36L144.289 196.366C144.73 196.469 145.095 196.522 145.523 196.418L146.059 196.124C147.004 195.307 146.539 193.341 145.945 192.017C144.711 189.362 143.785 186.584 143.2 183.732L143.206 183.692C141.845 177.589 141.809 171.18 142.411 164.944C143.266 155.769 145.335 146.768 146.27 137.604C146.651 134.064 146.643 130.055 144.104 127.585C143.304 126.808 142.304 126.294 141.223 126.057C139.677 125.588 137.966 125.716 136.443 126.245C133.916 127.162 131.886 129.23 130.516 131.596C130.649 131.242 130.787 130.85 130.88 130.49L130.892 130.409C132.523 125.643 134.072 120.863 135.662 116.092C137.177 111.555 138.703 106.939 139.054 102.154C139.36 97.6954 138.566 90.2252 134.459 87.45L133.88 87.1614L133.845 87.115C131.681 86.0638 128.876 86.9026 126.887 88.395C124.77 89.9119 123.196 91.9599 121.154 93.5259L121.109 93.5612L120.825 93.809C124.335 84.5604 124.268 74.0128 120.709 64.7859C119.974 62.9885 119.112 61.2129 117.59 60.0037L117.515 59.952C114.83 57.9149 110.869 58.4677 108.039 60.336C105.297 62.177 103.407 65.0039 101.642 67.8117L101.48 68.0786C102.869 65.8781 98.6037 57.2531 97.5792 55.167C95.5355 50.9485 92.8516 47.1766 89.5645 43.8568C84.7624 39.001 80.0697 34.2405 74.6826 30.0002C73.2719 28.8891 62.9328 22.8704 59.1135 20.0925C58.2518 19.4743 57.7008 18.9826 57.7242 18.8192Z" fill="#1E1E1E"/>
<path d="M57.562 24.4157C57.5982 22.5774 57.6492 20.7527 57.7066 18.9417L57.7173 19.1487C57.6557 20.8889 57.6012 22.6455 57.562 24.4157Z" fill="#1E1E1E"/>
<path d="M82.9325 97.3997C81.1773 95.2864 79.208 93.3501 77.056 91.6425C75.5263 90.4769 73.9007 89.393 71.9965 89.1261L71.9061 89.1179C71.6719 89.0908 71.4401 89.077 71.2081 89.077C68.1644 89.077 65.3857 91.3974 64.0156 94.1997C63.8241 94.5973 63.655 95.0031 63.505 95.4144C61.3794 94.227 59.3028 92.9661 57.4253 91.4301C55.5796 89.8859 53.9007 88.034 52.7615 85.8879C52.3965 85.2561 52.1828 84.4418 51.9156 83.7011C49.5754 86.3346 48.9498 90.2427 50.3167 93.6741C50.3126 93.6721 50.3083 93.668 50.303 93.666C49.821 92.4568 49.5859 91.1904 49.5859 89.9431C49.5848 87.6391 50.3817 85.395 51.8997 83.6875C52.756 82.6117 53.9464 81.7893 55.3475 81.2446C57.2411 80.5311 59.0421 80.2233 60.7782 80.2233C64.3666 80.2233 67.676 81.5442 70.955 83.3498C71.6092 83.6902 72.2165 84.066 72.8644 84.4473C72.5762 84.1586 72.3262 83.8754 72.0836 83.5513C73.9006 84.4283 75.8549 84.9157 77.673 85.7926C79.6377 86.724 81.3559 88.0477 82.9324 89.5482L82.9325 97.3997ZM82.9324 81.0049C81.04 77.263 78.7101 73.7008 76.2452 70.3021C71.0261 63.1532 65.0836 56.4373 60.7782 48.6756C59.7251 46.7883 58.7657 44.8357 57.9315 42.8557C57.472 36.7254 57.4402 30.5107 57.5625 24.4157C57.6017 22.6455 57.6562 20.8889 57.7177 19.1487C57.7485 19.1869 57.7806 19.2222 57.8125 19.2576L57.9091 19.549C59.0848 23.1874 60.4795 26.7333 62.0081 30.2165C65.2018 37.3654 69.1486 44.1684 73.79 50.4485C76.8996 54.6371 80.3049 58.6649 82.9324 63.1476V81.0049Z" fill="#1E1E1E"/>
<path d="M62.3037 104.053C62.3037 104.051 62.3037 104.047 62.3037 104.047C62.2909 101.46 54.4092 96.2934 52.4996 95.0325C51.7825 94.5559 51.0559 94.1038 50.3165 93.6735C48.9496 90.2421 49.5752 86.334 51.9154 83.7005C52.1825 84.4412 52.3963 85.2556 52.7613 85.8874C53.9004 88.0334 55.5794 89.8853 57.4251 91.4295C59.3026 92.9655 61.3792 94.2264 63.5048 95.4137C62.5483 98.05 62.392 100.948 62.3081 103.783L62.3037 104.053Z" fill="#1E1E1E"/>
<path d="M82.9321 89.5482C81.3555 88.0476 79.6373 86.724 77.6727 85.7926C75.8546 84.9157 73.9003 84.4283 72.0832 83.5513L72.0429 83.5451C62.3449 72.4501 58.8832 57.9072 57.9312 42.855C58.7653 44.835 59.7248 46.7876 60.7779 48.6749C65.0833 56.4366 71.0257 63.1525 76.2448 70.3014C78.7098 73.7001 81.0396 77.2623 82.9321 81.0042V89.5482Z" fill="#1E1E1E"/>
<path d="M82.9324 40.4293C76.9208 34.013 70.1559 28.2694 62.857 23.3945C61.492 22.4713 59.2686 20.9135 57.8124 19.2577L57.707 18.9418L57.7242 18.8192C57.7231 18.8253 57.7231 18.8274 57.7231 18.8335C57.7262 19.0051 58.2708 19.4898 59.1123 20.0917C62.9316 22.8695 73.2706 28.8882 74.6814 29.9994C77.5921 32.2897 80.3005 34.7326 82.9324 37.2599V40.4293Z" fill="#1E1E1E"/>
<path d="M57.8124 19.2577C57.7806 19.2224 57.7484 19.1868 57.7177 19.1488L57.707 18.9419L57.8124 19.2577Z" fill="#1E1E1E"/>
<path d="M0.275391 84.0198L0.321143 84.1315L0.434972 84.3031C4.07641 91.0353 8.02749 97.9881 12.5072 104.418C20.8677 116.782 31.1156 127.45 44.9506 132.049L44.989 132.033C45.358 132.188 45.7124 132.305 46.104 132.406C45.3602 132.406 44.6538 132.39 43.9253 132.428C38.4316 132.583 33.4135 133.684 29.5561 138.463C28.6348 139.629 28.0294 140.928 27.8401 142.273C27.086 146.086 28.9445 150.179 32.5263 152.295C35.1709 153.834 38.2955 154.302 41.3421 154.58C46.3218 154.986 51.3506 154.978 56.2911 154.436L56.1952 154.517L56.1571 154.534C54.7771 156.5 52.7771 158.022 51.0186 159.709C48.5441 161.993 45.9539 164.632 45.8112 168.017L45.8316 168.491C45.8815 171.49 48.0792 174.175 50.7528 175.572C53.5699 176.996 56.8347 177.275 60.0069 177.326C65.2164 177.332 70.1866 175.901 75.3036 175.681C76.2919 175.643 77.4632 175.689 78.7144 175.735C82.2057 175.863 86.3088 175.994 88.7451 174.316C87.9611 174.855 87.2154 175.381 86.4461 175.962L86.3717 175.992C83.846 177.729 81.3155 179.556 78.8069 181.332C75.5441 183.72 73.6175 189.151 76.8782 191.444C77.1887 191.667 77.5738 191.858 77.9281 191.974C79.859 192.626 82.1973 191.929 84.1908 191.239C94.0715 187.704 103.99 183.938 114.415 183.111C123.871 182.378 133.29 184.109 142.256 187.078C146.261 188.408 150.441 189.317 154.444 190.646C157.544 191.691 159.412 192.939 162.922 192.108L163.124 192.07L163.162 192.054C163.59 191.923 163.925 191.784 164.238 191.478L164.548 190.958C164.946 189.79 163.562 188.344 162.391 187.513C160.008 185.866 157.824 183.962 155.896 181.824L155.88 181.786C151.658 177.262 148.412 171.814 145.798 166.192C141.926 157.938 139.176 149.22 135.378 140.936C133.928 137.725 131.912 134.307 128.507 133.476C127.435 133.215 126.324 133.277 125.283 133.618C123.73 133.994 122.333 134.96 121.299 136.172C119.606 138.226 118.909 141.006 118.927 143.711C118.863 143.343 118.785 142.94 118.683 142.586L118.652 142.512C117.652 137.627 116.578 132.773 115.54 127.904C114.558 123.277 113.545 118.574 111.445 114.314C109.469 110.357 105.046 104.385 100.149 104.077L99.511 104.121L99.4579 104.099C97.0845 104.287 95.1122 106.408 94.1642 108.68C93.1184 111.035 92.8036 113.571 91.8482 115.932L91.826 115.987L91.71 116.341C90.0645 106.689 84.7188 97.7262 77.056 91.6422C75.5263 90.4765 73.9007 89.3926 71.9965 89.1258L71.906 89.1176C68.5944 88.7281 65.49 91.1847 64.0156 94.1994C62.5986 97.1434 62.405 100.504 62.3083 103.783L62.3028 104.091C62.3847 101.52 54.421 96.3019 52.4997 95.0328C48.6423 92.4619 44.4602 90.5909 39.9912 89.4089C33.4583 87.6714 27.069 85.9639 20.3476 85.0515C18.587 84.8119 6.74787 84.861 2.09905 84.4088C1.05327 84.3134 0.337212 84.1696 0.275391 84.0198Z" fill="#1E1E1E"/>
<path d="M48.2339 154.869C45.9425 154.869 43.6467 154.771 41.3626 154.585C40.3819 154.493 39.3914 154.384 38.4126 154.226C39.3851 154.384 40.368 154.49 41.3424 154.58C43.6265 154.768 45.9212 154.866 48.2127 154.866C50.9167 154.866 53.6167 154.727 56.2913 154.436L56.2848 154.442C53.6189 154.733 50.9285 154.869 48.2339 154.869Z" fill="#1E1E1E"/>
<path d="M60.0502 177.329C60.0429 177.329 60.0355 177.329 60.0279 177.329C58.3525 177.301 56.6504 177.212 55.0024 176.922C56.6441 177.208 58.3375 177.299 60.0067 177.325C60.0155 177.325 60.0238 177.325 60.0312 177.325C65.2323 177.325 70.1949 175.901 75.3034 175.681C75.5556 175.67 75.8206 175.666 76.0959 175.666C76.896 175.666 77.7833 175.699 78.7141 175.734C79.6461 175.77 80.6216 175.802 81.5982 175.802C84.2777 175.802 86.9586 175.544 88.7449 174.315C88.6418 174.386 88.5385 174.457 88.4353 174.528C86.6588 175.577 84.1386 175.806 81.6184 175.806C80.6428 175.806 79.6673 175.773 78.7354 175.738C77.8056 175.705 76.9183 175.67 76.1182 175.67C75.8429 175.67 75.5768 175.676 75.3238 175.684C70.2142 175.904 65.2514 177.329 60.0502 177.329Z" fill="#1E1E1E"/>
<path d="M79.6567 192.239C79.3331 192.239 79.0151 192.215 78.7046 192.166C79.0088 192.212 79.3192 192.234 79.6354 192.234C81.145 192.234 82.7564 191.735 84.1906 191.239C90.9522 188.821 97.7321 186.293 104.679 184.673C104.681 184.675 104.681 184.68 104.685 184.682C97.7425 186.298 90.9681 188.826 84.2106 191.244C82.7778 191.738 81.1673 192.239 79.6567 192.239Z" fill="#1E1E1E"/>
<path d="M2.96706 88.9136C2.06807 87.315 1.18842 85.7191 0.321289 84.1313L0.435118 84.3029C1.26275 85.8307 2.10538 87.3722 2.96706 88.9136Z" fill="#1E1E1E"/>
<path d="M78.7049 192.166C78.4399 192.122 78.1815 192.06 77.9282 191.974C77.5739 191.858 77.1888 191.667 76.8783 191.444C75.6942 190.61 75.1942 189.363 75.1942 187.999C75.1942 185.607 76.7294 182.851 78.807 181.332C81.3155 179.556 83.8461 177.729 86.3718 175.992L86.4461 175.962C87.1134 175.457 87.7632 174.997 88.4356 174.529C88.5493 174.464 88.66 174.393 88.7675 174.319C87.9824 174.859 87.2356 175.386 86.4666 175.964C89.3335 174.848 92.2069 173.745 95.1196 172.813C96.9429 175.441 98.928 178.017 101.047 180.539C97.0812 182.821 93.3654 185.515 89.3664 187.814C85.844 189.785 81.9964 191.498 77.9484 191.978C78.1951 192.062 78.4473 192.122 78.7049 192.166ZM55.0027 176.922C53.5242 176.664 52.0879 176.244 50.7529 175.572C48.0793 174.174 45.8816 171.489 45.8317 168.49L45.8113 168.017C45.954 164.632 48.5442 161.992 51.0187 159.709C52.7772 158.022 54.7772 156.5 56.1572 154.534L56.1953 154.517L56.2846 154.441C56.2934 154.439 56.3028 154.439 56.3124 154.439L56.2154 154.523C62.2156 152.189 68.5527 150.678 74.9504 150.063C67.188 147.364 58.9358 146.28 50.7305 146.28C50.0325 146.28 49.3348 146.288 48.6368 146.302C46.4211 146.356 44.1944 146.476 41.9773 146.476C40.1189 146.476 38.2678 146.391 36.436 146.108C34.0871 145.716 31.7273 144.978 29.6785 143.72C29.0508 143.366 28.4592 142.775 27.8615 142.279C27.1074 146.089 28.9647 150.182 32.5465 152.298C34.3401 153.341 36.353 153.894 38.4124 154.227C36.3456 153.894 34.3254 153.341 32.5264 152.296C29.4753 150.493 27.6763 147.257 27.6744 143.984C27.6744 143.412 27.7286 142.84 27.8402 142.274C28.0295 140.928 28.6349 139.629 29.5562 138.464C33.4136 133.684 38.4318 132.584 43.9254 132.429C44.3145 132.41 44.6966 132.404 45.0828 132.404C45.4189 132.404 45.7571 132.406 46.1041 132.406C45.7124 132.305 45.3581 132.188 44.9891 132.033C46.9783 131.872 48.8912 131.306 50.8817 131.145C51.3583 131.102 51.8338 131.083 52.3082 131.083C56.0401 131.083 59.7134 132.322 63.2453 133.547C57.8604 126.616 49.9476 122.163 41.8945 118.645C33.8573 115.164 25.4199 112.416 17.8552 107.955C16.0107 106.874 14.2105 105.69 12.5073 104.418C9.05104 99.434 5.91369 94.1616 2.96699 88.9136C2.10531 87.3721 1.2627 85.8307 0.435059 84.3029C0.479729 84.3192 0.524382 84.3329 0.569052 84.3492L0.798906 84.548C3.6266 87.0617 6.59455 89.3875 9.64474 91.5907C15.9551 96.0897 22.7339 99.9106 29.8425 102.942C35.0869 105.164 40.5391 107.038 45.3848 109.993C54.7655 115.676 61.2581 125.088 70.1123 131.516C70.4868 131.801 70.9506 132.082 71.4188 132.082C71.5081 132.082 71.5985 132.072 71.6889 132.049C72.5579 131.823 72.6454 130.649 72.4942 129.748C71.6699 125.186 68.6485 120.388 70.7515 116.243C71.2006 115.317 72.0762 114.475 73.1228 114.475C73.1271 114.475 73.1303 114.475 73.1336 114.475C73.7123 114.502 74.2706 114.797 74.7559 115.123C79.6716 118.47 80.8484 124.849 82.9323 130.56V138.46C82.9323 148.06 85.9365 157.35 90.9249 166.157C87.7378 165.487 84.5269 165.068 81.3155 165.068C79.594 165.068 77.8739 165.187 76.1535 165.454C71.5984 166.187 67.2612 167.881 62.7932 169.147C59.8495 169.956 56.7933 170.583 53.776 170.583C52.1984 170.583 50.6324 170.411 49.0986 170.005C48.1561 169.735 46.9921 169.033 45.8518 168.494C45.9016 171.492 48.0997 174.178 50.7741 175.574C52.1028 176.247 53.5316 176.664 55.0027 176.922Z" fill="#1E1E1E"/>
<path d="M48.2125 154.866C45.921 154.866 43.6263 154.768 41.3422 154.58C40.3677 154.49 39.3849 154.384 38.4124 154.226C36.3529 153.894 34.3401 153.341 32.5465 152.298C28.9647 150.182 27.1073 146.088 27.8614 142.278C28.4592 142.774 29.0507 143.365 29.6785 143.719C31.7273 144.977 34.0871 145.715 36.436 146.107C38.2677 146.391 40.1188 146.475 41.9773 146.475C44.1944 146.475 46.421 146.355 48.6368 146.301C49.3348 146.287 50.0325 146.279 50.7305 146.279C58.9358 146.279 67.1879 147.363 74.9504 150.062C68.5526 150.677 62.2156 152.189 56.2154 154.523L56.3124 154.438C56.3028 154.438 56.2934 154.438 56.2846 154.44L56.2911 154.434C53.6165 154.726 50.9165 154.866 48.2125 154.866Z" fill="#1E1E1E"/>
<path d="M60.0311 177.325C60.0238 177.325 60.0154 177.325 60.0066 177.325C58.3375 177.299 56.6441 177.209 55.0024 176.922C53.5312 176.664 52.1026 176.247 50.7738 175.575C48.0994 174.178 45.9014 171.492 45.8516 168.494C46.9918 169.033 48.1558 169.735 49.0984 170.005C50.6322 170.411 52.1981 170.583 53.7758 170.583C56.793 170.583 59.8492 169.956 62.7929 169.147C67.2609 167.881 71.5982 166.187 76.1533 165.454C77.8737 165.187 79.5938 165.068 81.3152 165.068C84.5266 165.068 87.7375 165.487 90.9247 166.157C92.1979 168.41 93.6034 170.629 95.1193 172.813C92.2066 173.745 89.3331 174.848 86.4662 175.964C87.2353 175.386 87.9821 174.859 88.7672 174.319C88.6596 174.393 88.5491 174.464 88.4353 174.529C88.5384 174.457 88.6417 174.387 88.7449 174.316C86.9586 175.545 84.2777 175.803 81.5982 175.803C80.6216 175.803 79.6461 175.77 78.7141 175.735C77.7833 175.7 76.896 175.667 76.0959 175.667C75.8205 175.667 75.5555 175.671 75.3034 175.681C70.1948 175.902 65.2323 177.325 60.0311 177.325Z" fill="#1E1E1E"/>
<path d="M79.6356 192.234C79.3195 192.234 79.009 192.211 78.7048 192.166C78.4472 192.122 78.195 192.062 77.9482 191.977C81.9963 191.498 85.8439 189.785 89.3663 187.814C93.3653 185.515 97.0811 182.821 101.047 180.539C102.217 181.934 103.431 183.315 104.679 184.673C97.7323 186.294 90.9524 188.821 84.1908 191.239C82.7566 191.735 81.1452 192.234 79.6356 192.234Z" fill="#1E1E1E"/>
<path d="M63.2454 133.547C59.7134 132.322 56.0401 131.083 52.3083 131.083C51.8338 131.083 51.3583 131.101 50.8817 131.145C48.8912 131.306 46.9783 131.872 44.9891 132.033L44.9507 132.049C31.1157 127.45 20.8678 116.782 12.5073 104.418C14.2105 105.69 16.0107 106.874 17.8552 107.956C25.42 112.417 33.8573 115.164 41.8946 118.645C49.9476 122.163 57.8604 126.616 63.2454 133.547Z" fill="#1E1E1E"/>
<path d="M64.8943 111.997C64.2281 111.439 63.7175 110.731 63.3792 109.908C63.041 109.083 62.373 108.307 61.81 107.577C61.2452 106.844 60.6452 106.128 60.0603 105.45C58.6708 103.876 57.1228 102.457 55.5176 101.104C53.8741 99.7636 52.1485 98.549 50.3421 97.4542C48.5199 96.3186 46.6538 95.2919 44.6911 94.3469C42.7422 93.4427 40.773 92.5875 38.7593 91.8413C36.7453 91.0924 34.724 90.4333 32.6815 89.8287C24.3158 87.3586 15.6424 85.8472 6.94768 85.3488C5.32127 85.2452 2.64147 85.0301 0.568973 84.3493L0.321143 84.1314L0.275391 84.0197C0.337218 84.1694 1.05319 84.3138 2.09897 84.4091C6.74779 84.8612 18.5869 84.8122 20.3476 85.0518C27.0689 85.9642 33.4582 87.6717 39.9911 89.4092C44.4602 90.5912 48.6422 92.4621 52.4996 95.033C54.4092 96.2939 62.291 101.46 62.3038 104.047C62.3038 104.047 62.3038 104.05 62.3038 104.054L62.3081 103.784L62.4856 104.323C62.6591 105.17 62.81 106.072 63.0208 106.905C63.1302 107.384 63.2621 107.812 63.4091 108.278C63.6888 109.168 63.9674 110.059 64.3206 110.922C64.4377 111.311 64.6655 111.654 64.8943 111.997Z" fill="#1E1E1E"/>
<path d="M0.569111 84.3493C0.524441 84.3329 0.479788 84.3192 0.435118 84.3029L0.321289 84.1313L0.569111 84.3493Z" fill="#1E1E1E"/>
<path d="M82.9321 99.5185C81.0203 96.5119 78.7599 93.7586 76.031 91.4927C74.7971 90.5123 73.4874 89.5618 71.9961 89.1261C73.9003 89.393 75.5259 90.4769 77.0556 91.6425C79.2076 93.3501 81.1769 95.2864 82.9321 97.3997V99.5185Z" fill="#1E1E1E"/>
<path d="M314.827 18.8192L314.844 18.9418L314.834 19.1487C315.109 26.8777 315.228 34.9607 314.621 42.8558C313.668 57.9079 310.207 72.4508 300.509 83.5459L300.468 83.552C300.225 83.8761 299.978 84.1593 299.686 84.448C300.334 84.0667 300.942 83.6909 301.595 83.3505C306.462 80.6707 311.397 79.0584 317.206 81.2453C318.606 81.79 319.796 82.6125 320.651 83.6882C323.26 86.6213 323.739 91.1394 321.702 94.8187C320.188 97.5148 317.704 99.5219 315.193 101.325C311.062 104.228 306.677 106.796 302.094 108.855L302.222 108.877L302.263 108.871C304.471 109.878 306.996 110.181 309.39 110.747C312.715 111.472 316.323 112.444 318.181 115.32L318.407 115.742C319.899 118.378 319.36 121.845 317.745 124.429C316.021 127.115 313.319 129.029 310.582 130.699C306.048 133.37 300.985 134.672 296.415 137.101C293.077 138.899 288.055 143.087 284.005 142.796C284.964 142.867 285.884 142.94 286.851 143.052L286.933 143.042C290.021 143.262 293.161 143.556 296.257 143.818C300.323 144.229 304.782 147.974 303.118 151.639C302.96 151.993 302.723 152.358 302.475 152.642C301.127 154.197 298.73 154.785 296.641 155.207C286.222 157.19 275.652 158.987 266.148 163.608C257.534 167.81 250.216 174.146 243.925 181.322C241.117 184.533 237.942 187.466 235.137 190.676C232.971 193.174 231.98 195.217 228.5 196.292L228.304 196.36L228.263 196.366C227.822 196.469 227.457 196.522 227.029 196.418L226.492 196.124C225.547 195.307 226.013 193.341 226.607 192.017C227.841 189.362 228.767 186.584 229.352 183.732L229.346 183.692C230.708 177.589 230.743 171.18 230.141 164.944C229.289 155.769 227.219 146.768 226.282 137.604C225.901 134.064 225.909 130.055 228.447 127.585C229.248 126.808 230.247 126.294 231.329 126.057C232.875 125.588 234.586 125.716 236.108 126.245C238.635 127.162 240.667 129.23 242.037 131.596C241.904 131.242 241.765 130.85 241.672 130.49L241.662 130.409C240.03 125.643 238.481 120.863 236.89 116.092C235.376 111.555 233.851 106.939 233.5 102.154C233.192 97.6954 233.987 90.2252 238.094 87.45L238.674 87.1614L238.707 87.115C240.872 86.0638 243.677 86.9026 245.668 88.395C247.784 89.9119 249.355 91.9599 251.398 93.5259L251.444 93.5612L251.727 93.809C248.22 84.5604 248.285 74.0128 251.844 64.7859C252.58 62.9885 253.44 61.2129 254.963 60.0037L255.039 59.952C257.724 57.9149 261.684 58.4677 264.514 60.336C267.256 62.177 269.146 65.0039 270.911 67.8117L271.072 68.0786C269.685 65.8781 273.95 57.2531 274.974 55.167C277.017 50.9485 279.702 47.1766 282.989 43.8568C287.79 39.001 292.483 34.2405 297.87 30.0002C299.28 28.8891 309.621 22.8704 313.439 20.0925C314.3 19.4743 314.849 18.9826 314.827 18.8192Z" fill="#1E1E1E"/>
<path d="M314.99 24.4538C314.95 22.6727 314.895 20.9025 314.833 19.1487L314.843 18.9417C314.9 20.7637 314.952 22.6019 314.99 24.4538Z" fill="#1E1E1E"/>
<path d="M289.62 97.3998V89.5455C291.197 88.0477 292.912 86.7241 294.879 85.7927C296.695 84.9158 298.65 84.4283 300.467 83.5514C300.225 83.8755 299.977 84.1587 299.685 84.4474C300.334 84.0661 300.941 83.6903 301.594 83.3499C304.873 81.5443 308.185 80.2234 311.772 80.2234C313.509 80.2234 315.309 80.5312 317.205 81.2447C318.605 81.7894 319.795 82.6118 320.65 83.6875C322.17 85.3951 322.965 87.6392 322.965 89.9432C322.965 91.1905 322.731 92.4568 322.249 93.666C322.243 93.6681 322.238 93.6722 322.234 93.6742C323.601 90.24 322.975 86.332 320.633 83.7012C320.369 84.4419 320.154 85.2562 319.789 85.888C318.648 88.034 316.97 89.886 315.124 91.4301C313.247 92.9661 311.172 94.227 309.045 95.4144C308.895 95.0032 308.726 94.5974 308.536 94.1998C307.163 91.3974 304.385 89.0771 301.343 89.0771C301.112 89.0771 300.878 89.0914 300.646 89.118L300.554 89.1262C298.65 89.393 297.024 90.477 295.496 91.6426C293.342 93.3501 291.376 95.2865 289.62 97.3998ZM289.619 81.005V63.1477C292.247 58.665 295.651 54.6372 298.762 50.4486C303.402 44.1685 307.348 37.3655 310.543 30.2166C312.071 26.7334 313.465 23.1875 314.642 19.5491L314.737 19.2577C314.77 19.2224 314.802 19.1868 314.832 19.1488C314.895 20.9027 314.949 22.6728 314.99 24.4539C315.11 30.538 315.077 36.7392 314.62 42.8559C313.787 44.8358 312.825 46.7884 311.771 48.6757C307.466 56.4374 301.523 63.1533 296.305 70.3022C293.84 73.701 291.512 77.2631 289.619 81.005Z" fill="#1E1E1E"/>
<path d="M310.247 104.053L310.245 103.783C310.16 100.948 310.002 98.0506 309.046 95.4144C311.173 94.227 313.249 92.9661 315.125 91.4301C316.971 89.8859 318.649 88.034 319.79 85.888C320.155 85.2561 320.37 84.4419 320.634 83.7011C322.977 86.3319 323.603 90.24 322.236 93.6741C321.498 94.1044 320.768 94.5565 320.052 95.0331C318.142 96.2941 310.261 101.46 310.247 104.048C310.247 104.048 310.247 104.049 310.247 104.053Z" fill="#1E1E1E"/>
<path d="M289.62 89.5455V81.0049C291.512 77.263 293.841 73.7008 296.306 70.302C301.524 63.1531 307.466 56.4372 311.772 48.6756C312.826 46.7883 313.787 44.8356 314.62 42.8557C313.667 57.9079 310.206 72.4508 300.508 83.5459L300.467 83.552C298.65 84.4289 296.695 84.9164 294.878 85.7934C292.912 86.7248 291.196 88.0476 289.62 89.5455Z" fill="#1E1E1E"/>
<path d="M289.62 40.4292V37.2592C292.25 34.7319 294.957 32.289 297.869 29.9987C299.279 28.8875 309.62 22.8688 313.438 20.091C314.28 19.4891 314.825 19.0043 314.827 18.8328C314.827 18.8266 314.827 18.8245 314.827 18.8184L314.844 18.941L314.737 19.2569C313.283 20.9127 311.061 22.4705 309.694 23.3937C302.395 28.2686 295.63 34.0129 289.62 40.4292Z" fill="#1E1E1E"/>
<path d="M314.737 19.2576L314.843 18.9417L314.833 19.1487C314.803 19.1869 314.77 19.2223 314.737 19.2576Z" fill="#1E1E1E"/>
<path d="M372.274 84.0198L372.228 84.1315L372.114 84.3031C368.472 91.0353 364.524 97.9881 360.044 104.418C351.683 116.782 341.435 127.45 327.6 132.049L327.562 132.033C327.191 132.188 326.837 132.305 326.445 132.406C327.191 132.406 327.897 132.39 328.627 132.428C334.12 132.583 339.136 133.684 342.995 138.463C343.916 139.629 344.52 140.928 344.711 142.273C345.465 146.086 343.608 150.179 340.024 152.295C337.38 153.834 334.256 154.302 331.208 154.58C326.227 154.986 321.2 154.978 316.26 154.436L316.355 154.517L316.393 154.534C317.774 156.5 319.773 158.022 321.532 159.709C324.008 161.993 326.598 164.632 326.739 168.017L326.721 168.491C326.669 171.49 324.471 174.175 321.8 175.572C318.981 176.996 315.716 177.275 312.543 177.326C307.333 177.332 302.366 175.901 297.249 175.681C296.26 175.643 295.089 175.689 293.839 175.735C290.345 175.863 286.241 175.994 283.806 174.316C284.59 174.855 285.336 175.381 286.104 175.962L286.181 175.992C288.705 177.729 291.235 179.556 293.746 181.332C297.009 183.72 298.934 189.151 295.674 191.444C295.364 191.667 294.977 191.858 294.623 191.974C292.692 192.626 290.353 191.929 288.362 191.239C278.479 187.704 268.563 183.938 258.138 183.111C248.68 182.378 239.259 184.109 230.294 187.078C226.291 188.408 222.11 189.317 218.107 190.646C215.008 191.691 213.139 192.939 209.629 192.108L209.427 192.07L209.389 192.054C208.962 191.923 208.627 191.784 208.313 191.478L208.003 190.958C207.608 189.79 208.989 188.344 210.16 187.513C212.546 185.866 214.727 183.962 216.655 181.824L216.672 181.786C220.893 177.262 224.136 171.814 226.754 166.192C230.626 157.938 233.377 149.22 237.173 140.936C238.625 137.725 240.64 134.307 244.044 133.476C245.115 133.215 246.228 133.277 247.269 133.618C248.821 133.994 250.218 134.96 251.253 136.172C252.947 138.226 253.641 141.006 253.625 143.711C253.688 143.343 253.767 142.94 253.868 142.586L253.9 142.512C254.9 137.627 255.973 132.773 257.01 127.904C257.993 123.277 259.007 118.574 261.106 114.314C263.083 110.357 267.506 104.385 272.4 104.077L273.04 104.121L273.092 104.099C275.467 104.287 277.438 106.408 278.386 108.68C279.432 111.035 279.748 113.571 280.701 115.932L280.725 115.987L280.843 116.341C282.487 106.689 287.833 97.7262 295.497 91.6422C297.025 90.4765 298.651 89.3926 300.554 89.1258L300.647 89.1176C303.956 88.7281 307.06 91.1847 308.537 94.1994C309.953 97.1434 310.146 100.504 310.244 103.783L310.25 104.091C310.169 101.52 318.132 96.3019 320.052 95.0328C323.911 92.4619 328.091 90.5909 332.56 89.4089C339.094 87.6714 345.483 85.9639 352.204 85.0515C353.966 84.8119 365.805 84.861 370.453 84.4088C371.499 84.3134 372.214 84.1696 372.274 84.0198Z" fill="#1E1E1E"/>
<path d="M324.318 154.869C321.622 154.869 318.932 154.732 316.265 154.441L316.259 154.435C318.934 154.726 321.632 154.865 324.337 154.865C326.63 154.865 328.926 154.767 331.208 154.579C332.177 154.492 333.155 154.383 334.122 154.228C333.15 154.386 332.164 154.495 331.186 154.585C328.904 154.77 326.609 154.869 324.318 154.869Z" fill="#1E1E1E"/>
<path d="M312.499 177.329C307.3 177.329 302.335 175.904 297.226 175.684C296.973 175.676 296.709 175.67 296.431 175.67C295.633 175.67 294.745 175.705 293.814 175.738C292.882 175.773 291.907 175.806 290.932 175.806C288.41 175.806 285.886 175.577 284.11 174.525C284.01 174.455 283.906 174.387 283.805 174.315C285.592 175.544 288.272 175.802 290.951 175.802C291.929 175.802 292.904 175.77 293.838 175.734C294.767 175.699 295.655 175.666 296.455 175.666C296.73 175.666 296.995 175.67 297.248 175.681C302.357 175.901 307.319 177.325 312.518 177.325C312.526 177.325 312.534 177.325 312.542 177.325C314.201 177.299 315.884 177.209 317.515 176.927C315.878 177.211 314.187 177.301 312.523 177.329C312.515 177.329 312.507 177.329 312.499 177.329Z" fill="#1E1E1E"/>
<path d="M292.893 192.239C291.384 192.239 289.772 191.738 288.339 191.245C281.58 188.827 274.804 186.299 267.857 184.679C267.859 184.676 267.863 184.672 267.865 184.67C274.812 186.292 281.596 188.821 288.361 191.239C289.794 191.735 291.406 192.234 292.915 192.234C293.225 192.234 293.533 192.212 293.833 192.166C293.525 192.215 293.212 192.239 292.893 192.239Z" fill="#1E1E1E"/>
<path d="M369.494 89.077C370.387 87.4811 371.258 85.8852 372.114 84.3029L372.228 84.1313C371.335 85.7708 370.422 87.4239 369.494 89.077Z" fill="#1E1E1E"/>
<path d="M293.833 192.166C294.094 192.124 294.35 192.062 294.601 191.978C290.554 191.498 286.706 189.785 283.185 187.814C279.184 185.515 275.467 182.819 271.499 180.536C273.617 178.015 275.603 175.438 277.427 172.811C280.339 173.745 283.215 174.845 286.085 175.964C285.317 175.386 284.568 174.859 283.784 174.319C283.89 174.389 283.999 174.461 284.111 174.526C284.783 174.995 285.437 175.458 286.104 175.962L286.18 175.992C288.705 177.729 291.235 179.557 293.746 181.332C295.821 182.851 297.357 185.607 297.357 187.999C297.357 189.363 296.859 190.611 295.674 191.444C295.364 191.667 294.977 191.857 294.623 191.974C294.367 192.062 294.103 192.124 293.833 192.166ZM317.516 176.928C319 176.669 320.438 176.25 321.778 175.575C324.452 174.178 326.647 171.492 326.699 168.494C325.558 169.033 324.395 169.735 323.453 170.005C321.919 170.411 320.353 170.583 318.776 170.583C315.759 170.583 312.701 169.957 309.757 169.147C305.29 167.881 300.952 166.187 296.398 165.454C294.677 165.187 292.956 165.068 291.235 165.068C288.021 165.068 284.81 165.487 281.621 166.16C286.611 157.35 289.62 148.06 289.62 138.46V130.56C291.703 124.849 292.88 118.471 297.796 115.124C298.28 114.797 298.839 114.503 299.419 114.475C299.421 114.475 299.425 114.475 299.427 114.475C300.475 114.475 301.35 115.317 301.799 116.243C303.904 120.388 300.881 125.186 300.056 129.748C299.906 130.65 299.993 131.823 300.862 132.049C300.952 132.071 301.042 132.082 301.132 132.082C301.6 132.082 302.063 131.802 302.439 131.516C311.293 125.088 317.785 115.676 327.165 109.993C332.012 107.038 337.464 105.164 342.71 102.942C349.818 99.9107 356.596 96.0898 362.906 91.5908C365.956 89.3876 368.925 87.0618 371.752 84.5481L371.981 84.3494C372.027 84.333 372.07 84.3193 372.114 84.303C371.259 85.8853 370.387 87.4812 369.494 89.0771C366.575 94.2706 363.464 99.4859 360.044 104.418C358.342 105.69 356.542 106.874 354.695 107.956C347.13 112.417 338.693 115.164 330.656 118.645C322.603 122.163 314.691 126.616 309.304 133.547C312.837 132.322 316.511 131.083 320.244 131.083C320.718 131.083 321.195 131.101 321.669 131.145C323.659 131.306 325.571 131.872 327.562 132.033C327.192 132.188 326.838 132.305 326.445 132.406C326.794 132.406 327.132 132.404 327.469 132.404C327.853 132.404 328.237 132.41 328.627 132.429C334.12 132.584 339.136 133.684 342.995 138.464C343.916 139.629 344.521 140.928 344.711 142.274C344.823 142.84 344.877 143.412 344.877 143.984C344.875 147.258 343.074 150.493 340.024 152.296C338.221 153.344 336.195 153.897 334.123 154.229C336.187 153.894 338.208 153.344 340.005 152.299C343.586 150.182 345.444 146.089 344.689 142.279C344.09 142.775 343.499 143.366 342.873 143.72C340.825 144.978 338.464 145.716 336.116 146.108C334.283 146.392 332.431 146.476 330.574 146.476C328.357 146.476 326.129 146.356 323.913 146.302C323.215 146.287 322.518 146.28 321.821 146.28C313.616 146.28 305.364 147.364 297.599 150.063C303.999 150.678 310.337 152.19 316.336 154.524L316.238 154.439C316.246 154.439 316.257 154.439 316.265 154.441L316.355 154.517L316.393 154.534C317.774 156.5 319.773 158.022 321.532 159.709C324.008 161.993 326.598 164.632 326.74 168.017L326.721 168.491C326.669 171.49 324.472 174.174 321.8 175.572C320.455 176.25 319.005 176.669 317.516 176.928Z" fill="#1E1E1E"/>
<path d="M324.338 154.866C321.633 154.866 318.934 154.727 316.26 154.436L316.266 154.442C316.258 154.44 316.248 154.44 316.239 154.44L316.337 154.524C310.337 152.19 304 150.679 297.6 150.063C305.364 147.364 313.616 146.28 321.822 146.28C322.519 146.28 323.216 146.288 323.913 146.302C326.13 146.357 328.358 146.476 330.575 146.476C332.432 146.476 334.284 146.392 336.117 146.109C338.464 145.717 340.826 144.979 342.874 143.72C343.5 143.366 344.091 142.775 344.69 142.28C345.445 146.09 343.587 150.183 340.006 152.299C338.209 153.345 336.188 153.895 334.123 154.23C333.157 154.385 332.179 154.494 331.209 154.581C328.927 154.769 326.631 154.866 324.338 154.866Z" fill="#1E1E1E"/>
<path d="M312.518 177.325C307.319 177.325 302.357 175.901 297.248 175.681C296.994 175.671 296.73 175.667 296.455 175.667C295.654 175.667 294.767 175.699 293.838 175.735C292.904 175.77 291.929 175.803 290.951 175.803C288.271 175.803 285.591 175.544 283.805 174.315C283.906 174.387 284.009 174.455 284.11 174.525C283.998 174.46 283.889 174.389 283.783 174.319C284.567 174.858 285.316 175.386 286.084 175.963C283.214 174.844 280.338 173.744 277.427 172.81C278.941 170.628 280.346 168.406 281.621 166.159C284.81 165.487 288.021 165.068 291.234 165.068C292.955 165.068 294.677 165.187 296.398 165.454C300.951 166.187 305.29 167.881 309.756 169.146C312.7 169.956 315.758 170.582 318.776 170.582C320.353 170.582 321.919 170.41 323.452 170.005C324.394 169.735 325.557 169.033 326.698 168.493C326.647 171.492 324.451 174.177 321.777 175.574C320.437 176.25 318.999 176.669 317.515 176.927C315.884 177.208 314.201 177.299 312.542 177.325C312.534 177.325 312.526 177.325 312.518 177.325Z" fill="#1E1E1E"/>
<path d="M292.915 192.234C291.406 192.234 289.794 191.735 288.361 191.239C281.597 188.821 274.813 186.291 267.865 184.67C269.113 183.312 270.327 181.931 271.498 180.536C275.466 182.819 279.184 185.515 283.184 187.814C286.706 189.785 290.554 191.498 294.601 191.978C294.35 192.062 294.094 192.124 293.833 192.166C293.533 192.211 293.225 192.234 292.915 192.234Z" fill="#1E1E1E"/>
<path d="M309.304 133.547C314.691 126.616 322.603 122.163 330.656 118.645C338.692 115.164 347.129 112.416 354.695 107.956C356.541 106.874 358.342 105.69 360.044 104.418C351.683 116.782 341.435 127.45 327.6 132.049L327.562 132.033C325.571 131.872 323.659 131.306 321.668 131.145C321.195 131.102 320.718 131.082 320.244 131.082C316.51 131.082 312.837 132.322 309.304 133.547Z" fill="#1E1E1E"/>
<path d="M307.657 111.997C307.885 111.654 308.114 111.311 308.228 110.921C308.582 110.058 308.863 109.168 309.141 108.277C309.288 107.811 309.421 107.384 309.53 106.904C309.74 106.071 309.892 105.17 310.064 104.323L310.244 103.783L310.246 104.053C310.246 104.051 310.246 104.047 310.246 104.047C310.26 101.46 318.141 96.2935 320.05 95.0325C323.909 92.4617 328.089 90.5907 332.558 89.4088C339.092 87.6712 345.481 85.9637 352.202 85.0513C353.964 84.8117 365.803 84.8607 370.452 84.4086C371.497 84.3132 372.214 84.1689 372.274 84.0192L372.227 84.1309L371.979 84.3488C369.91 85.0296 367.23 85.2448 365.601 85.3482C356.908 85.8466 348.234 87.3581 339.868 89.8282C337.825 90.4328 335.805 91.0919 333.792 91.8408C331.777 92.587 329.808 93.4421 327.861 94.3463C325.897 95.2913 324.029 96.318 322.21 97.4537C320.401 98.5485 318.677 99.7631 317.032 101.103C315.426 102.457 313.879 103.875 312.49 105.45C311.904 106.128 311.305 106.844 310.741 107.576C310.178 108.306 309.51 109.083 309.17 109.908C308.832 110.73 308.324 111.439 307.657 111.997Z" fill="#1E1E1E"/>
<path d="M371.98 84.3492L372.228 84.1313L372.113 84.3029C372.07 84.3192 372.026 84.3329 371.98 84.3492Z" fill="#1E1E1E"/>
<path d="M289.62 99.5158V97.3997C291.376 95.2864 293.342 93.3501 295.497 91.6425C297.024 90.4769 298.65 89.393 300.554 89.1261C299.062 89.5618 297.754 90.5123 296.518 91.4927C293.792 93.7586 291.531 96.5119 289.62 99.5158Z" fill="#1E1E1E"/>
<path d="M163.69 135.854C163.821 135.805 163.952 135.75 164.08 135.688C163.952 135.751 163.824 135.805 163.693 135.851L163.69 135.854Z" fill="#1E1E1E"/>
<path d="M170.493 56.9955H155.454C115.504 54.0942 101.811 30.1854 105.461 16.4718L105.546 16.1296C109.491 2.43647 119.195 6.33792 119.195 6.33792C119.195 6.33792 113.863 13.8045 125.339 30.3345C130.329 37.5438 139.609 43.5568 148.438 48.0373H148.458C159.826 53.7959 170.493 56.9955 170.493 56.9955Z" fill="#1E1E1E"/>
<path d="M148.438 48.0374C130.373 45.0718 122.608 34.5577 116.168 24.2981C112.178 17.9283 108.613 16.4279 106.168 16.4279C105.92 16.4279 105.683 16.4433 105.46 16.4718L105.545 16.1296C108.303 14.6731 111.591 13.5501 115.442 13.5501C116.293 13.5501 117.171 13.6056 118.074 13.7227C118.519 17.6183 120.324 23.1108 125.339 30.3346C130.329 37.5438 139.609 43.5568 148.438 48.0374ZM108.605 9.68672C108.958 9.23047 109.324 8.82396 109.693 8.46423C109.306 8.85028 108.944 9.25972 108.605 9.68672Z" fill="#1E1E1E"/>
<path d="M199.052 56.7382C198.584 58.7006 196.364 59.6599 194.402 60.1951C189.006 61.6457 183.396 62.178 177.743 62.137L171.344 54.6909C171.344 54.6909 160.382 50.1285 143.019 30.3112C125.658 10.5202 113.436 11.9708 105.545 16.1296C106.356 12.971 107.911 9.92062 110.406 7.81196C112.562 5.95482 115.314 4.88733 118.107 4.2907C126.638 2.47743 135.128 4.80251 142.785 9.21871C148.33 12.3978 153.428 16.6619 157.779 21.2272C164.158 27.9247 168.978 36.0288 175.824 42.1706C182.244 47.9321 189.836 52.2196 197.557 56.0158C198.049 56.2497 198.561 56.5042 199.052 56.7382Z" fill="#1E1E1E"/>
<path d="M174.953 52.1963H171.007C158.197 41.4658 147.938 20.85 142.785 9.21875C146.715 11.4707 150.421 14.2696 153.796 17.3346C154.466 19.2386 155.153 21.1337 155.913 22.9967C160.008 32.9375 166.15 41.7465 172.891 49.8068C173.566 50.6169 174.251 51.4183 174.953 52.1963Z" fill="#1E1E1E"/>
<path d="M190.98 59.4493C187.544 60.3676 183.832 59.3412 180.805 57.3787C180.121 56.9516 179.483 56.4837 178.863 55.9719C176.667 54.2025 174.748 52.0266 172.891 49.8068C166.15 41.7465 160.008 32.9375 155.914 22.9967C153.609 17.3434 151.968 11.3742 149.406 5.84662C154.144 9.40882 159.134 12.5236 164.339 15.1908C164.679 10.1985 165.597 5.27339 167.068 0.515015C171.013 13.9098 176.091 26.9011 182.171 39.3132C182.893 40.7843 183.642 42.2788 184.473 43.6855C184.815 44.2617 185.177 44.8378 185.561 45.3935C187.736 48.5492 190.573 50.7251 193.112 53.4538C195.458 55.9719 193.987 58.6362 190.98 59.4493Z" fill="#1E1E1E"/>
<path d="M182.297 52.1961H179.963C180.966 49.8008 182.402 47.4611 183.405 45.563C183.747 44.9225 184.09 44.3054 184.473 43.6854C184.815 44.2615 185.178 44.8377 185.561 45.3934C186.377 46.5778 187.289 47.6248 188.24 48.6163C186.307 49.8797 184.318 51.0671 182.297 52.1961Z" fill="#1E1E1E"/>
<path d="M202.058 56.9955H217.096C257.044 54.0942 270.737 30.1854 267.09 16.4718L267.005 16.1296C263.06 2.43647 253.356 6.33792 253.356 6.33792C253.356 6.33792 258.688 13.8045 247.211 30.3345C242.222 37.5438 232.942 43.5568 224.113 48.0373H224.093C212.725 53.7959 202.058 56.9955 202.058 56.9955Z" fill="#1E1E1E"/>
<path d="M224.113 48.0374C232.943 43.5569 242.223 37.5438 247.212 30.3346C252.228 23.1107 254.032 17.6183 254.474 13.7227C255.378 13.6058 256.249 13.55 257.097 13.55C260.949 13.55 264.236 14.6731 266.994 16.1296C266.965 16.0096 266.933 15.8927 266.901 15.7757C266.936 15.8926 266.971 16.0097 267.006 16.1296L267.091 16.4718C266.866 16.4426 266.632 16.4279 266.38 16.4279C263.938 16.4279 260.373 17.9282 256.384 24.2981C249.944 34.5577 242.179 45.0718 224.113 48.0374ZM264.47 10.4119C263.891 9.57548 263.23 8.80045 262.476 8.11316C263.166 8.71856 263.839 9.47605 264.47 10.4119Z" fill="#1E1E1E"/>
<path d="M266.994 16.1296C259.104 11.9708 246.881 10.5202 229.521 30.3112C223.739 36.9238 218.641 41.8313 214.462 45.4344C206.059 52.6641 201.196 54.6909 201.196 54.6909L194.797 62.137C189.743 62.178 184.73 61.751 179.866 60.6221C179.29 60.4933 178.714 60.3442 178.138 60.1951C176.176 59.6599 173.959 58.7006 173.488 56.7382C173.979 56.5042 174.491 56.2497 174.982 56.0158C176.453 55.2905 177.924 54.5417 179.375 53.7755C185.561 50.5321 191.512 46.8207 196.715 42.1706C198.315 40.7433 199.786 39.2079 201.216 37.6052C205.887 32.338 209.856 26.3658 214.76 21.2272C219.112 16.6619 224.21 12.3978 229.755 9.21871C237.412 4.80251 245.902 2.47743 254.433 4.2907C257.226 4.88733 259.978 5.95482 262.133 7.81196C264.628 9.92062 266.184 12.971 266.994 16.1296Z" fill="#1E1E1E"/>
<path d="M205.586 52.1962H182.297C187.43 49.333 192.337 46.0837 196.715 42.1705C198.315 40.7433 199.786 39.2079 201.216 37.6052C203.775 38.737 206.08 40.5064 208.469 42.0447C210.408 43.2819 212.415 44.3903 214.462 45.4344C210.792 48.593 207.797 50.7602 205.586 52.1962Z" fill="#1E1E1E"/>
<path d="M269.705 90.974V198.878C269.705 205.979 263.946 211.718 256.842 211.718H115.708C108.604 211.718 102.866 205.979 102.866 198.878V90.974C102.866 83.8701 108.604 78.132 115.708 78.132H256.842C263.946 78.132 269.705 83.8701 269.705 90.974Z" fill="#1E1E1E"/>
<path d="M108.446 209.468C105.221 207.257 103.059 203.613 102.881 199.443C102.879 199.425 102.879 199.41 102.879 199.393C102.876 199.343 102.876 199.291 102.872 199.241C102.872 199.239 102.872 199.235 102.872 199.233C102.872 199.217 102.872 199.206 102.872 199.195C102.872 199.188 102.872 199.186 102.872 199.179C102.87 199.168 102.87 199.156 102.87 199.141C102.87 199.139 102.87 199.135 102.87 199.133C102.87 199.1 102.87 199.068 102.87 199.036C102.87 199.034 102.87 199.027 102.87 199.021C102.87 199.01 102.87 199.001 102.87 198.989C102.87 198.982 102.868 198.978 102.868 198.971C102.868 198.962 102.868 198.951 102.868 198.939C102.868 198.932 102.868 198.93 102.868 198.923C102.868 198.908 102.868 198.891 102.868 198.877V99.1204V103.534C103.874 103.551 104.941 103.572 106.067 103.592V201.801C106.067 204.65 106.946 207.289 108.446 209.468Z" fill="#1E1E1E"/>
<path d="M256.843 211.717H199.166V180.877C206.346 169.649 212.561 157.881 217.255 145.34C221.589 133.752 224.534 121.641 226.052 109.349C240.977 110.581 255.801 112.069 269.705 113.859V114.918V189.572V198.878C269.705 199.291 269.685 199.7 269.647 200.104C269.421 202.484 268.547 204.675 267.202 206.497C264.859 209.664 261.092 211.717 256.843 211.717Z" fill="#1E1E1E"/>
<path d="M177.436 211.717H176.474C176.795 211.325 177.114 210.934 177.436 210.542V211.717Z" fill="#1E1E1E"/>
<path d="M195.115 187.01V107.13C196.463 107.211 197.809 107.296 199.166 107.384V180.877C197.847 182.942 196.496 184.983 195.115 187.01Z" fill="#1E1E1E"/>
<path d="M199.166 211.717H195.115V187.01C196.496 184.983 197.847 182.942 199.166 180.877V211.717Z" fill="#1E1E1E"/>
<path d="M177.436 211.717H195.116V78.1324H177.436V211.717Z" fill="#1E1E1E"/>
<path d="M195.115 211.718H189.562V106.796C191.404 106.904 193.255 107.016 195.115 107.13V187.01V211.718Z" fill="#1E1E1E"/>
<path d="M226.052 109.349C217.068 108.607 208.048 107.954 199.166 107.384V99.122H226.982C226.78 102.538 226.47 105.951 226.052 109.349Z" fill="#1E1E1E"/>
<path d="M269.705 113.859C255.802 112.069 240.977 110.58 226.052 109.349C226.47 105.951 226.781 102.538 226.982 99.1218H269.641C269.661 99.1218 269.682 99.1218 269.705 99.1196V113.859Z" fill="#1E1E1E"/>
<path d="M199.166 107.384C197.809 107.296 196.463 107.211 195.115 107.13V99.122H199.166V107.384Z" fill="#1E1E1E"/>
<path d="M177.436 106.124C147.637 104.571 121.33 103.886 106.066 103.594V99.122H177.436V106.124Z" fill="#1E1E1E"/>
<path d="M106.066 103.594C104.94 103.574 103.872 103.553 102.866 103.535V99.1218C102.882 99.1218 102.895 99.1218 102.91 99.1218H106.066V103.594Z" fill="#1E1E1E"/>
<path d="M189.562 106.796C185.467 106.556 181.419 106.331 177.436 106.124V99.122H189.562V106.796Z" fill="#1E1E1E"/>
<path d="M195.115 107.13C193.255 107.016 191.404 106.904 189.562 106.796V99.122H195.115V107.13Z" fill="#1E1E1E"/>
<path d="M276.616 59.1712V92.1465C276.616 95.9865 273.481 99.1217 269.641 99.1217H102.91C99.0702 99.1217 95.9351 95.9865 95.9351 92.1465V59.1712C95.9351 55.3312 99.0702 52.196 102.91 52.196H269.641C273.481 52.196 276.616 55.3312 276.616 59.1712Z" fill="#1E1E1E"/>
<path d="M195.115 99.1218H199.165V54.6709H195.115V99.1218Z" fill="#1E1E1E"/>
<path d="M177.436 99.1221H195.116V52.1967H177.436V99.1221Z" fill="#1E1E1E"/>
<path d="M189.562 99.1218H195.116V54.6709H189.562V99.1218Z" fill="#1E1E1E"/>
<path d="M97.1607 96.0774C96.4266 95.0099 95.9792 93.7318 95.9382 92.3543C95.9382 92.3521 95.9382 92.3456 95.9382 92.3434C95.9382 92.3346 95.9382 92.3258 95.9382 92.3199C95.9382 92.3111 95.9382 92.3046 95.9382 92.2964C95.9382 92.2877 95.9382 92.2789 95.9382 92.2701C95.9361 92.2614 95.936 92.2526 95.936 92.2438C95.936 92.2372 95.936 92.2328 95.936 92.2262C95.936 92.2175 95.936 92.2087 95.936 92.1999C95.936 92.1977 95.936 92.1912 95.936 92.189C95.936 92.1736 95.936 92.1598 95.936 92.1479V59.1727C95.936 55.3326 99.0712 52.1974 102.911 52.1974H177.437V54.6717H103.979C100.139 54.6717 97.0035 57.8069 97.0035 61.6469V94.6222C97.0035 95.1223 97.0613 95.6066 97.1607 96.0774Z" fill="#1E1E1E"/>
<path d="M223.066 54.6702H199.166V52.196H269.641H222.376C222.589 52.9213 222.803 53.6261 222.973 54.3076C223.005 54.4276 223.037 54.5503 223.066 54.6702Z" fill="#1E1E1E"/>
<path d="M195.115 54.6703H199.165V52.1958H195.115V54.6703Z" fill="#1E1E1E"/>
<path d="M270.074 52.2109C270.067 52.2086 270.065 52.2086 270.058 52.2086C270.058 52.2086 270.067 52.2086 270.074 52.2109Z" fill="#1E1E1E"/>
<path d="M177.436 54.6703H189.562V52.1958H177.436V54.6703Z" fill="#1E1E1E"/>
<path d="M189.562 54.6703H195.116V52.1958H189.562V54.6703Z" fill="#1E1E1E"/>
<path d="M269.641 99.122H226.982C227.046 97.9258 227.111 96.7326 227.152 95.5364C227.64 81.8403 226.511 67.9542 223.066 54.6705H270.705C273.089 54.6705 275.195 55.8813 276.455 57.7121C275.815 54.7319 273.261 52.4448 270.153 52.2138C273.756 52.4799 276.616 55.504 276.616 59.1715V92.1467C276.616 95.9868 273.481 99.122 269.641 99.122ZM270.015 52.2072C270.008 52.2072 270 52.2072 269.995 52.2072C270.002 52.2072 270.006 52.2072 270.015 52.2072ZM269.825 52.2028C269.823 52.2028 269.816 52.2028 269.809 52.2028C269.816 52.2028 269.82 52.2028 269.825 52.2028Z" fill="#1E1E1E"/>
<path d="M276.455 57.7118C275.194 55.881 273.089 54.6702 270.705 54.6702H223.066C223.037 54.5502 223.004 54.4275 222.972 54.3076C222.802 53.6261 222.589 52.9213 222.375 52.196H269.64C269.656 52.196 269.667 52.196 269.681 52.196C269.688 52.196 269.69 52.196 269.697 52.196C269.706 52.196 269.717 52.196 269.726 52.196C269.733 52.196 269.735 52.196 269.741 52.196C269.75 52.1982 269.759 52.1982 269.768 52.1982C269.774 52.1982 269.779 52.1982 269.785 52.1982C269.794 52.1982 269.803 52.1982 269.812 52.1982C269.818 52.1982 269.823 52.1982 269.827 52.1982C269.836 52.1982 269.844 52.1982 269.853 52.1982C269.86 52.1982 269.864 52.1982 269.871 52.1982C269.879 52.1982 269.888 52.2004 269.897 52.2004C269.904 52.2004 269.908 52.2004 269.915 52.2004C269.923 52.2004 269.934 52.2004 269.947 52.2004C269.956 52.2004 269.964 52.2004 269.973 52.2026C269.982 52.2026 269.989 52.2026 269.997 52.2026C270.003 52.2026 270.012 52.2026 270.016 52.2026C270.023 52.2048 270.027 52.2048 270.034 52.2048C270.043 52.2048 270.052 52.2048 270.06 52.2048C270.067 52.2048 270.069 52.2048 270.076 52.2069C270.084 52.2069 270.093 52.2069 270.102 52.2069C270.108 52.2069 270.111 52.2069 270.117 52.2091C270.126 52.2091 270.135 52.2091 270.144 52.2091H270.155C273.263 52.4402 275.817 54.7272 276.457 57.7075" fill="#1E1E1E"/>
<path d="M238.181 88.2217C228.199 78.4739 219.068 67.916 210.944 56.738C209.578 54.8399 208.232 52.9418 207.144 50.8946L207.083 50.7893C206.463 49.7218 201.643 41.7434 196.376 40.6555C195.031 40.401 193.665 40.5736 192.343 41.4042C185.391 45.797 181.914 52.1961 181.914 52.1961H194.732C195.288 54.8604 196.268 57.4867 197.335 60.0458C201.324 69.7731 206.229 79.3279 213.096 87.5607C217 92.2518 221.522 96.4984 225.233 101.339C224.294 95.4953 223.867 89.6284 223.952 83.785C228.518 85.8118 233.296 87.3034 238.181 88.2217Z" fill="#1E1E1E"/>
</g>
</svg>
