<svg width="182" height="212" viewBox="0 0 182 212" fill="none" xmlns="http://www.w3.org/2000/svg">
<path d="M75.4931 56.9955H60.4546C20.5041 54.0942 6.81096 30.1854 10.4609 16.4718L10.5458 16.1296C14.4911 2.43647 24.1951 6.33792 24.1951 6.33792C24.1951 6.33792 18.8635 13.8045 30.3397 30.3345C35.3292 37.5438 44.609 43.5568 53.4385 48.0373H53.4582C64.8263 53.7959 75.4931 56.9955 75.4931 56.9955Z" fill="#D38F07"/>
<path d="M53.4385 48.0374C35.373 45.0718 27.6081 34.5577 21.1681 24.2981C17.1788 17.9283 13.6138 16.4279 11.1688 16.4279C10.9202 16.4279 10.6832 16.4433 10.4609 16.4718L10.5458 16.1296C13.3037 14.6731 16.5911 13.5501 20.4428 13.5501C21.2939 13.5501 22.1712 13.6056 23.075 13.7227C23.5195 17.6183 25.324 23.1108 30.3398 30.3346C35.3292 37.5438 44.609 43.5568 53.4385 48.0374ZM13.605 9.68672C13.9589 9.23047 14.3245 8.82396 14.693 8.46423C14.3069 8.85028 13.9443 9.25972 13.605 9.68672Z" fill="#C16F03"/>
<path d="M104.052 56.7382C103.584 58.7006 101.364 59.6599 99.4019 60.1951C94.006 61.6457 88.3965 62.178 82.7432 62.137L76.3441 54.6909C76.3441 54.6909 65.3826 50.1285 48.019 30.3112C30.6584 10.5202 18.4363 11.9708 10.5457 16.1296C11.3558 12.971 12.9117 9.92062 15.4064 7.81196C17.5619 5.95482 20.314 4.88733 23.107 4.2907C31.6381 2.47743 40.1284 4.80251 47.7851 9.21871C53.3302 12.3978 58.4278 16.6619 62.7797 21.2272C69.1583 27.9247 73.9781 36.0288 80.8246 42.1706C87.2442 47.9321 94.8366 52.2196 102.558 56.0158C103.049 56.2497 103.561 56.5042 104.052 56.7382Z" fill="#FFB612"/>
<path d="M79.9529 52.1963H76.0076C63.1977 41.4658 52.9381 20.85 47.7849 9.21875C51.7156 11.4707 55.4211 14.2696 58.7961 17.3346C59.4659 19.2386 60.1532 21.1337 60.9136 22.9967C65.008 32.9375 71.1498 41.7465 77.8911 49.8068C78.5667 50.6169 79.251 51.4183 79.9529 52.1963Z" fill="#E98E09"/>
<path d="M95.98 59.4493C92.5436 60.3676 88.8322 59.3412 85.8052 57.3787C85.1208 56.9516 84.4832 56.4837 83.8631 55.9719C81.6667 54.2025 79.7482 52.0266 77.8911 49.8068C71.1498 41.7465 65.008 32.9375 60.9136 22.9967C58.609 17.3434 56.9682 11.3742 54.4062 5.84662C59.1442 9.40882 64.1336 12.5236 69.3395 15.1908C69.6787 10.1985 70.597 5.27339 72.0681 0.515015C76.0135 13.9098 81.0906 26.9011 87.1709 39.3132C87.8933 40.7843 88.6421 42.2788 89.4727 43.6855C89.8148 44.2617 90.1774 44.8378 90.5606 45.3935C92.7365 48.5492 95.5734 50.7251 98.112 53.4538C100.458 55.9719 98.9865 58.6362 95.98 59.4493Z" fill="#FFB612"/>
<path d="M87.2968 52.1961H84.9629C85.966 49.8008 87.402 47.4611 88.4052 45.563C88.7474 44.9225 89.0896 44.3054 89.4727 43.6854C89.8149 44.2615 90.1775 44.8377 90.5606 45.3934C91.3766 46.5778 92.2892 47.6248 93.2397 48.6163C91.3065 49.8797 89.3177 51.0671 87.2968 52.1961Z" fill="#E98E09"/>
<path d="M107.059 56.9955H122.097C162.045 54.0942 175.738 30.1854 172.091 16.4718L172.006 16.1296C168.06 2.43647 158.357 6.33792 158.357 6.33792C158.357 6.33792 163.688 13.8045 152.212 30.3345C147.222 37.5438 137.943 43.5568 129.113 48.0373H129.093C117.725 53.7959 107.059 56.9955 107.059 56.9955Z" fill="#D38F07"/>
<path d="M129.113 48.0374C137.943 43.5569 147.223 37.5438 152.212 30.3346C157.228 23.1107 159.032 17.6183 159.474 13.7227C160.378 13.6058 161.249 13.55 162.097 13.55C165.949 13.55 169.236 14.6731 171.994 16.1296C171.965 16.0096 171.933 15.8927 171.901 15.7757C171.936 15.8926 171.971 16.0097 172.006 16.1296L172.091 16.4718C171.866 16.4426 171.632 16.4279 171.38 16.4279C168.938 16.4279 165.373 17.9282 161.384 24.2981C154.944 34.5577 147.179 45.0718 129.113 48.0374ZM169.47 10.4119C168.891 9.57548 168.23 8.80045 167.476 8.11316C168.166 8.71856 168.839 9.47605 169.47 10.4119Z" fill="#C16F03"/>
<path d="M171.994 16.1296C164.104 11.9708 151.881 10.5202 134.521 30.3112C128.739 36.9238 123.641 41.8313 119.462 45.4344C111.059 52.6641 106.196 54.6909 106.196 54.6909L99.7967 62.137C94.743 62.178 89.7301 61.751 84.8664 60.6221C84.2902 60.4933 83.7142 60.3442 83.138 60.1951C81.1756 59.6599 78.9586 58.7006 78.4878 56.7382C78.9791 56.5042 79.4909 56.2497 79.9823 56.0158C81.4534 55.2905 82.9244 54.5417 84.3751 53.7755C90.5607 50.5321 96.5123 46.8207 101.715 42.1706C103.315 40.7433 104.786 39.2079 106.216 37.6052C110.887 32.338 114.856 26.3658 119.76 21.2272C124.112 16.6619 129.21 12.3978 134.755 9.21871C142.412 4.80251 150.902 2.47743 159.433 4.2907C162.226 4.88733 164.978 5.95482 167.133 7.81196C169.628 9.92062 171.184 12.971 171.994 16.1296Z" fill="#FFB612"/>
<path d="M110.586 52.1962H87.2971C92.4299 49.333 97.3373 46.0837 101.715 42.1705C103.315 40.7433 104.786 39.2079 106.217 37.6052C108.776 38.737 111.08 40.5064 113.47 42.0447C115.409 43.2819 117.415 44.3903 119.462 45.4344C115.792 48.593 112.797 50.7602 110.586 52.1962Z" fill="#E98E09"/>
<path d="M174.705 90.974V198.878C174.705 205.979 168.947 211.718 161.843 211.718H20.7087C13.6048 211.718 7.8667 205.979 7.8667 198.878V90.974C7.8667 83.8701 13.6048 78.132 20.7087 78.132H161.843C168.947 78.132 174.705 83.8701 174.705 90.974Z" fill="#FF5766"/>
<path d="M13.4469 209.468C10.221 207.257 8.0597 203.613 7.88128 199.443C7.87909 199.425 7.87908 199.41 7.87908 199.393C7.87688 199.343 7.8769 199.291 7.87252 199.241C7.87252 199.239 7.87252 199.235 7.87252 199.233C7.87252 199.217 7.87252 199.206 7.87252 199.195C7.87252 199.188 7.87252 199.186 7.87252 199.179C7.87032 199.168 7.87031 199.156 7.87031 199.141C7.87031 199.139 7.87031 199.135 7.87031 199.133C7.87031 199.1 7.87031 199.068 7.87031 199.036C7.87031 199.034 7.87031 199.027 7.87031 199.021C7.87031 199.01 7.87031 199.001 7.87031 198.989C7.87031 198.982 7.86816 198.978 7.86816 198.971C7.86816 198.962 7.86816 198.951 7.86816 198.939C7.86816 198.932 7.86816 198.93 7.86816 198.923C7.86816 198.908 7.86816 198.891 7.86816 198.877V99.1204V103.534C8.87422 103.551 9.9417 103.572 11.0677 103.592V201.801C11.0677 204.65 11.9466 207.289 13.4469 209.468Z" fill="#FF90A3"/>
<path d="M161.843 211.717H104.166V180.877C111.346 169.649 117.561 157.881 122.255 145.34C126.589 133.752 129.535 121.641 131.052 109.349C145.977 110.581 160.802 112.069 174.705 113.859V114.918V189.572V198.878C174.705 199.291 174.686 199.7 174.647 200.104C174.422 202.484 173.547 204.675 172.202 206.497C169.859 209.664 166.092 211.717 161.843 211.717Z" fill="#D83743"/>
<path d="M82.4361 211.717H81.4739C81.7956 211.325 82.1144 210.934 82.4361 210.542V211.717Z" fill="#D83743"/>
<path d="M100.115 187.01V107.13C101.464 107.211 102.809 107.296 104.166 107.384V180.877C102.847 182.942 101.496 184.983 100.115 187.01Z" fill="#D83743"/>
<path d="M104.166 211.717H100.115V187.01C101.496 184.983 102.847 182.942 104.166 180.877V211.717Z" fill="#B7222C"/>
<path d="M82.436 211.717H100.116V78.1324H82.436V211.717Z" fill="#FFB612"/>
<path d="M100.115 211.718H94.5615V106.796C96.404 106.904 98.2553 107.016 100.115 107.13V187.01V211.718Z" fill="#FF9C09"/>
<path d="M131.052 109.349C122.068 108.607 113.048 107.954 104.166 107.384V99.122H131.982C131.781 102.538 131.471 105.951 131.052 109.349Z" fill="#D83743"/>
<path d="M174.706 113.859C160.802 112.069 145.977 110.58 131.052 109.349C131.471 105.951 131.781 102.538 131.983 99.1218H174.641C174.661 99.1218 174.682 99.1218 174.706 99.1196V113.859Z" fill="#B7222C"/>
<path d="M104.166 107.384C102.809 107.296 101.464 107.211 100.115 107.13V99.122H104.166V107.384Z" fill="#B7222C"/>
<path d="M82.4363 106.124C52.6372 104.571 26.3301 103.886 11.0664 103.594V99.122H82.4363V106.124Z" fill="#D83743"/>
<path d="M11.0662 103.594C9.94023 103.574 8.87276 103.553 7.8667 103.535V99.1218C7.88205 99.1218 7.89585 99.1218 7.91054 99.1218H11.0662V103.594Z" fill="#D85A6B"/>
<path d="M94.5616 106.796C90.4671 106.556 86.4194 106.331 82.436 106.124V99.122H94.5616V106.796Z" fill="#D8720C"/>
<path d="M100.115 107.13C98.2553 107.016 96.404 106.904 94.5615 106.796V99.122H100.115V107.13Z" fill="#D86206"/>
<path d="M181.616 59.1712V92.1465C181.616 95.9865 178.481 99.1217 174.641 99.1217H7.91054C4.07049 99.1217 0.935303 95.9865 0.935303 92.1465V59.1712C0.935303 55.3312 4.07049 52.196 7.91054 52.196H174.641C178.481 52.196 181.616 55.3312 181.616 59.1712Z" fill="#FF5766"/>
<path d="M100.115 99.1218H104.165V54.6709H100.115V99.1218Z" fill="#D83743"/>
<path d="M82.436 99.1221H100.116V52.1967H82.436V99.1221Z" fill="#FFB612"/>
<path d="M94.5615 99.1218H100.116V54.6709H94.5615V99.1218Z" fill="#FF9C09"/>
<path d="M2.16094 96.0774C1.42687 95.0099 0.97944 93.7318 0.938488 92.3543C0.938488 92.3521 0.938488 92.3456 0.938488 92.3434C0.938488 92.3346 0.938488 92.3258 0.938488 92.3199C0.938488 92.3111 0.938488 92.3046 0.938488 92.2964C0.938488 92.2877 0.938488 92.2789 0.938488 92.2701C0.936295 92.2614 0.936279 92.2526 0.936279 92.2438C0.936279 92.2372 0.936279 92.2328 0.936279 92.2262C0.936279 92.2175 0.936279 92.2087 0.936279 92.1999C0.936279 92.1977 0.936279 92.1912 0.936279 92.189C0.936279 92.1736 0.936279 92.1598 0.936279 92.1479V59.1727C0.936279 55.3326 4.07146 52.1974 7.91151 52.1974H82.437V54.6717H8.979C5.13897 54.6717 2.00376 57.8069 2.00376 61.6469V94.6222C2.00376 95.1223 2.06157 95.6066 2.16094 96.0774Z" fill="#FF90A3"/>
<path d="M128.066 54.6702H104.166V52.196H174.641H127.376C127.589 52.9213 127.803 53.6261 127.973 54.3076C128.005 54.4276 128.037 54.5503 128.066 54.6702Z" fill="#FF90A3"/>
<path d="M100.115 54.6703H104.165V52.1958H100.115V54.6703Z" fill="#FF7B8E"/>
<path d="M175.075 52.2109C175.068 52.2086 175.065 52.2086 175.059 52.2086C175.059 52.2086 175.068 52.2086 175.075 52.2109Z" fill="#FF997A"/>
<path d="M82.436 54.6703H94.5619V52.1958H82.436V54.6703Z" fill="#FFCF71"/>
<path d="M94.5615 54.6703H100.116V52.1958H94.5615V54.6703Z" fill="#FFBE6B"/>
<path d="M174.641 99.122H131.982C132.047 97.9258 132.111 96.7326 132.152 95.5364C132.64 81.8403 131.511 67.9542 128.066 54.6705H175.706C178.089 54.6705 180.195 55.8813 181.455 57.7121C180.815 54.7319 178.262 52.4448 175.153 52.2138C178.756 52.4799 181.616 55.504 181.616 59.1715V92.1467C181.616 95.9868 178.481 99.122 174.641 99.122ZM175.015 52.2072C175.009 52.2072 175 52.2072 174.995 52.2072C175.002 52.2072 175.006 52.2072 175.015 52.2072ZM174.825 52.2028C174.823 52.2028 174.816 52.2028 174.81 52.2028C174.816 52.2028 174.821 52.2028 174.825 52.2028Z" fill="#D83743"/>
<path d="M181.455 57.7118C180.195 55.881 178.089 54.6702 175.706 54.6702H128.066C128.037 54.5502 128.005 54.4275 127.973 54.3076C127.803 53.6261 127.589 52.9213 127.376 52.196H174.641C174.656 52.196 174.667 52.196 174.682 52.196C174.688 52.196 174.691 52.196 174.697 52.196C174.706 52.196 174.717 52.196 174.726 52.196C174.733 52.196 174.735 52.196 174.742 52.196C174.751 52.1982 174.759 52.1982 174.768 52.1982C174.775 52.1982 174.779 52.1982 174.786 52.1982C174.794 52.1982 174.803 52.1982 174.812 52.1982C174.819 52.1982 174.823 52.1982 174.827 52.1982C174.836 52.1982 174.845 52.1982 174.854 52.1982C174.86 52.1982 174.865 52.1982 174.871 52.1982C174.88 52.1982 174.889 52.2004 174.898 52.2004C174.904 52.2004 174.909 52.2004 174.915 52.2004C174.924 52.2004 174.935 52.2004 174.947 52.2004C174.956 52.2004 174.965 52.2004 174.974 52.2026C174.983 52.2026 174.989 52.2026 174.997 52.2026C175.004 52.2026 175.012 52.2026 175.017 52.2026C175.023 52.2048 175.028 52.2048 175.034 52.2048C175.043 52.2048 175.052 52.2048 175.061 52.2048C175.067 52.2048 175.07 52.2048 175.076 52.2069C175.085 52.2069 175.094 52.2069 175.102 52.2069C175.109 52.2069 175.111 52.2069 175.118 52.2091C175.127 52.2091 175.135 52.2091 175.144 52.2091H175.155C178.264 52.4402 180.817 54.7272 181.458 57.7075" fill="#D85A6B"/>
<path d="M143.181 88.2217C133.199 78.4739 124.068 67.916 115.944 56.738C114.578 54.8399 113.233 52.9418 112.145 50.8946L112.083 50.7893C111.463 49.7218 106.643 41.7434 101.376 40.6555C100.031 40.401 98.6651 40.5736 97.3431 41.4042C90.3913 45.797 86.9138 52.1961 86.9138 52.1961H99.7325C100.288 54.8604 101.268 57.4867 102.335 60.0458C106.325 69.7731 111.229 79.3279 118.096 87.5607C122.001 92.2518 126.522 96.4984 130.233 101.339C129.295 95.4953 128.868 89.6284 128.953 83.785C133.518 85.8118 138.297 87.3034 143.181 88.2217Z" fill="#FFB612"/>
</svg>
