<svg width="373" height="227" viewBox="0 0 373 227" fill="none" xmlns="http://www.w3.org/2000/svg">
<path d="M58.208 25.8192L58.1908 25.9417L58.2015 26.1486C57.9258 33.8776 57.8068 41.9606 58.4152 49.8557C59.3673 64.9079 62.829 79.4508 72.527 90.5459L72.5673 90.552C72.81 90.8761 73.06 91.1593 73.3481 91.4479C72.7002 91.0667 72.0929 90.6909 71.4387 90.3504C66.5737 87.6706 61.6386 86.0584 55.8313 88.2453C54.4301 88.7899 53.2397 89.6124 52.3835 90.6882C49.7761 93.6213 49.2963 98.1393 51.3333 101.819C52.8495 104.515 55.3313 106.522 57.842 108.325C61.9739 111.228 66.3588 113.796 70.9406 115.855L70.8143 115.877L70.7737 115.871C68.5642 116.878 66.0407 117.181 63.646 117.747C60.3205 118.472 56.7109 119.444 54.8536 122.32L54.6292 122.742C53.1365 125.378 53.676 128.845 55.2899 131.429C57.0143 134.115 59.7165 136.029 62.4535 137.699C66.9898 140.37 72.0515 141.672 76.6216 144.101C79.9599 145.899 84.9821 150.087 89.031 149.796C88.0704 149.867 87.1513 149.94 86.1853 150.052L86.1034 150.042C83.0151 150.262 79.8737 150.556 76.7791 150.818C72.712 151.229 68.2524 154.974 69.9194 158.639C70.076 158.993 70.3132 159.358 70.5621 159.642C71.9099 161.197 74.3057 161.785 76.394 162.207C86.8131 164.19 97.382 165.987 106.887 170.608C115.502 174.81 122.821 181.146 129.111 188.322C131.917 191.533 135.094 194.466 137.9 197.676C140.065 200.174 141.054 202.217 144.536 203.292L144.735 203.36L144.773 203.366C145.214 203.469 145.579 203.522 146.006 203.418L146.543 203.124C147.488 202.307 147.022 200.341 146.429 199.017C145.195 196.362 144.269 193.584 143.683 190.732L143.69 190.692C142.329 184.589 142.293 178.18 142.894 171.944C143.749 162.769 145.819 153.768 146.753 144.604C147.135 141.064 147.126 137.055 144.588 134.585C143.788 133.808 142.788 133.294 141.707 133.057C140.161 132.588 138.449 132.716 136.927 133.245C134.4 134.162 132.37 136.229 131 138.596C131.133 138.242 131.271 137.85 131.363 137.49L131.376 137.409C133.007 132.643 134.555 127.863 136.146 123.092C137.661 118.555 139.187 113.939 139.538 109.154C139.844 104.695 139.05 97.2251 134.943 94.45L134.364 94.1613L134.329 94.1149C132.165 93.0637 129.36 93.9025 127.37 95.395C125.253 96.9119 123.68 98.9598 121.637 100.526L121.593 100.561L121.309 100.809C124.818 91.5604 124.752 81.0127 121.193 71.7859C120.458 69.9885 119.596 68.2128 118.074 67.0036L117.999 66.9519C115.314 64.9148 111.352 65.4677 108.523 67.3359C105.781 69.1769 103.891 72.0038 102.126 74.8116L101.964 75.0785C103.352 72.878 99.0875 64.253 98.0629 62.1669C96.0193 57.9484 93.3354 54.1765 90.0483 50.8567C85.2461 46.0009 80.5535 41.2404 75.1663 37.0001C73.7556 35.889 63.4166 29.8703 59.5973 27.0924C58.7356 26.4742 58.1846 25.9826 58.208 25.8192Z" fill="#007537"/>
<path d="M58.0461 31.4156C58.0824 29.5774 58.1333 27.7527 58.1908 25.9417L58.2014 26.1486C58.1398 27.8888 58.0854 29.6455 58.0461 31.4156Z" fill="#13114C"/>
<path d="M83.4163 104.4C81.6611 102.286 79.6918 100.35 77.5397 98.6424C76.01 97.4768 74.3844 96.3929 72.4803 96.126L72.3898 96.1179C72.1556 96.0907 71.9239 96.077 71.6918 96.077C68.6482 96.077 65.8695 98.3973 64.4994 101.2C64.3079 101.597 64.1388 102.003 63.9887 102.414C61.8631 101.227 59.7865 99.966 57.909 98.43C56.0634 96.8858 54.3844 95.0339 53.2452 92.8879C52.8803 92.2561 52.6665 91.4418 52.3994 90.701C50.0592 93.3345 49.4336 97.2426 50.8005 100.674C50.7964 100.672 50.7921 100.668 50.7868 100.666C50.3047 99.4567 50.0697 98.1903 50.0697 96.943C50.0686 94.6391 50.8655 92.395 52.3835 90.6874C53.2397 89.6116 54.4301 88.7892 55.8313 88.2445C57.7249 87.531 59.5258 87.2233 61.262 87.2233C64.8503 87.2233 68.1598 88.5441 71.4388 90.3497C72.0929 90.6901 72.7002 91.066 73.3481 91.4472C73.06 91.1586 72.81 90.8753 72.5673 90.5513C74.3844 91.4282 76.3387 91.9156 78.1568 92.7926C80.1214 93.724 81.8396 95.0476 83.4162 96.5482L83.4163 104.4ZM83.4162 88.0049C81.5237 84.2629 79.1939 80.7008 76.7289 77.302C71.5098 70.1531 65.5674 63.4372 61.262 55.6756C60.2089 53.7882 59.2494 51.8356 58.4153 49.8557C57.9558 43.7253 57.924 37.5106 58.0462 31.4157C58.0855 29.6455 58.1399 27.8889 58.2015 26.1486C58.2322 26.1868 58.2644 26.2222 58.2962 26.2575L58.3929 26.5489C59.5686 30.1874 60.9632 33.7332 62.4919 37.2164C65.6856 44.3653 69.6323 51.1683 74.2738 57.4484C77.3834 61.637 80.7887 65.6649 83.4162 70.1476V88.0049Z" fill="#00622A"/>
<path d="M62.7876 111.053C62.7876 111.051 62.7876 111.047 62.7876 111.047C62.7747 108.46 54.8931 103.293 52.9834 102.032C52.2664 101.556 51.5398 101.104 50.8004 100.673C49.4335 97.242 50.0591 93.3339 52.3993 90.7004C52.6664 91.4412 52.8802 92.2555 53.2451 92.8873C54.3843 95.0334 56.0633 96.8852 57.9089 98.4294C59.7864 99.9654 61.863 101.226 63.9886 102.414C63.0322 105.05 62.8759 107.948 62.792 110.783L62.7876 111.053Z" fill="#004719"/>
<path d="M83.4161 96.5482C81.8395 95.0476 80.1214 93.724 78.1567 92.7926C76.3386 91.9156 74.3843 91.4282 72.5672 90.5512L72.5269 90.5451C62.829 79.45 59.3673 64.9071 58.4152 49.855C59.2493 51.8349 60.2088 53.7876 61.2619 55.6749C65.5673 63.4365 71.5098 70.1524 76.7288 77.3013C79.1938 80.7001 81.5236 84.2622 83.4161 88.0042V96.5482Z" fill="#004719"/>
<path d="M83.4162 47.4292C77.4046 41.0129 70.6397 35.2693 63.3407 30.3944C61.9758 29.4712 59.7524 27.9134 58.2962 26.2576L58.1908 25.9417L58.208 25.8192C58.2069 25.8253 58.2069 25.8273 58.2069 25.8334C58.2099 26.005 58.7545 26.4898 59.5961 27.0916C63.4153 29.8695 73.7544 35.8882 75.1651 36.9993C78.0759 39.2897 80.7843 41.7326 83.4162 44.2599V47.4292Z" fill="#00954D"/>
<path d="M58.2962 26.2577C58.2643 26.2223 58.2322 26.1868 58.2014 26.1488L58.1908 25.9418L58.2962 26.2577Z" fill="#008641"/>
<path d="M0.759277 91.0197L0.80503 91.1314L0.918859 91.303C4.5603 98.0352 8.51138 104.988 12.9911 111.418C21.3516 123.782 31.5994 134.45 45.4345 139.049L45.4729 139.033C45.8419 139.188 46.1962 139.305 46.5879 139.406C45.8441 139.406 45.1377 139.39 44.4091 139.428C38.9155 139.583 33.8974 140.683 30.04 145.463C29.1187 146.629 28.5133 147.928 28.324 149.273C27.5699 153.086 29.4284 157.179 33.0102 159.295C35.6548 160.834 38.7794 161.302 41.826 161.58C46.8057 161.986 51.8345 161.978 56.775 161.436L56.6791 161.517L56.641 161.534C55.261 163.5 53.261 165.022 51.5025 166.709C49.028 168.993 46.4378 171.632 46.2951 175.017L46.3155 175.49C46.3654 178.489 48.5631 181.174 51.2367 182.572C54.0537 183.996 57.3186 184.275 60.4907 184.325C65.7003 184.332 70.6705 182.901 75.7875 182.681C76.7758 182.643 77.9471 182.689 79.1982 182.735C82.6896 182.863 86.7927 182.994 89.229 181.316C88.4449 181.855 87.6993 182.381 86.9299 182.961L86.8556 182.992C84.3299 184.729 81.7993 186.556 79.2908 188.332C76.0279 190.72 74.1014 196.151 77.3621 198.443C77.6726 198.667 78.0577 198.857 78.412 198.974C80.3429 199.625 82.6812 198.929 84.6747 198.239C94.5554 194.704 104.473 190.938 114.899 190.111C124.355 189.378 133.774 191.109 142.74 194.078C146.744 195.407 150.925 196.317 154.928 197.645C158.027 198.691 159.896 199.939 163.406 199.108L163.608 199.07L163.646 199.054C164.074 198.923 164.409 198.784 164.722 198.478L165.032 197.958C165.43 196.79 164.046 195.344 162.875 194.513C160.492 192.866 158.308 190.962 156.38 188.824L156.364 188.786C152.142 184.262 148.896 178.813 146.282 173.192C142.41 164.938 139.66 156.22 135.862 147.936C134.412 144.725 132.396 141.307 128.991 140.476C127.919 140.215 126.808 140.277 125.767 140.618C124.214 140.994 122.817 141.96 121.783 143.172C120.089 145.226 119.393 148.006 119.411 150.711C119.347 150.343 119.268 149.94 119.167 149.586L119.136 149.512C118.136 144.627 117.062 139.773 116.023 134.904C115.042 130.277 114.029 125.574 111.929 121.314C109.952 117.357 105.53 111.385 100.633 111.077L99.9949 111.121L99.9418 111.099C97.5684 111.287 95.5961 113.408 94.6481 115.679C93.6023 118.035 93.2875 120.571 92.3321 122.932L92.3099 122.986L92.1939 123.341C90.5484 113.689 85.2027 104.726 77.5399 98.6421C76.0101 97.4765 74.3845 96.3926 72.4804 96.1257L72.3899 96.1175C69.0783 95.7281 65.9739 98.1846 64.4995 101.199C63.0825 104.143 62.8888 107.504 62.7922 110.783L62.7867 111.091C62.8686 108.52 54.9049 103.302 52.9836 102.033C49.1262 99.4618 44.9441 97.5908 40.475 96.4089C33.9422 94.6714 27.5528 92.9638 20.8315 92.0515C19.0709 91.8118 7.23175 91.8609 2.58293 91.4087C1.53715 91.3134 0.821099 91.1695 0.759277 91.0197Z" fill="#009245"/>
<path d="M48.7177 161.869C46.4262 161.869 44.1304 161.771 41.8463 161.585C40.8656 161.493 39.8751 161.384 38.8964 161.226C39.8689 161.384 40.8517 161.49 41.8262 161.58C44.1103 161.768 46.405 161.866 48.6965 161.866C51.4005 161.866 54.1005 161.727 56.7751 161.436L56.7686 161.442C54.1027 161.733 51.4122 161.869 48.7177 161.869Z" fill="#0D0F3F"/>
<path d="M60.5343 184.329C60.5269 184.329 60.5195 184.329 60.5119 184.329C58.8365 184.301 57.1344 184.212 55.4865 183.922C57.1281 184.208 58.8215 184.299 60.4907 184.325C60.4995 184.325 60.5078 184.325 60.5152 184.325C65.7163 184.325 70.6789 182.901 75.7874 182.681C76.0396 182.67 76.3046 182.666 76.5799 182.666C77.38 182.666 78.2673 182.699 79.1982 182.734C80.1301 182.77 81.1056 182.802 82.0822 182.802C84.7618 182.802 87.4426 182.544 89.2289 181.315C89.1258 181.386 89.0225 181.457 88.9193 181.528C87.1428 182.577 84.6226 182.806 82.1024 182.806C81.1269 182.806 80.1513 182.773 79.2194 182.738C78.2896 182.705 77.4023 182.67 76.6022 182.67C76.3269 182.67 76.0608 182.676 75.8078 182.684C70.6982 182.904 65.7354 184.329 60.5343 184.329Z" fill="#0D0F3F"/>
<path d="M80.1407 199.239C79.8171 199.239 79.4991 199.215 79.1886 199.166C79.4928 199.211 79.8033 199.234 80.1194 199.234C81.629 199.234 83.2404 198.735 84.6746 198.239C91.4362 195.821 98.2161 193.293 105.163 191.673C105.165 191.675 105.165 191.679 105.169 191.681C98.2266 193.298 91.4521 195.826 84.6946 198.244C83.2618 198.738 81.6513 199.239 80.1407 199.239Z" fill="#0D0F3F"/>
<path d="M3.45095 95.9136C2.55196 94.3149 1.6723 92.719 0.805176 91.1313L0.919004 91.3028C1.74664 92.8306 2.58927 94.3721 3.45095 95.9136Z" fill="#13114E"/>
<path d="M79.1887 199.166C78.9237 199.122 78.6652 199.06 78.412 198.974C78.0576 198.857 77.6726 198.667 77.3621 198.443C76.178 197.61 75.678 196.363 75.678 194.999C75.678 192.607 77.2131 189.851 79.2908 188.332C81.7993 186.556 84.3299 184.729 86.8556 182.992L86.9299 182.962C87.5971 182.457 88.2469 181.997 88.9193 181.529C89.0331 181.464 89.1437 181.392 89.2513 181.319C88.4662 181.859 87.7194 182.386 86.9503 182.964C89.8172 181.848 92.6907 180.745 95.6033 179.813C97.4266 182.441 99.4117 185.017 101.531 187.539C97.565 189.821 93.8492 192.515 89.8502 194.814C86.3278 196.785 82.4802 198.498 78.4321 198.977C78.6789 199.062 78.931 199.122 79.1887 199.166ZM55.4865 183.922C54.008 183.664 52.5717 183.244 51.2367 182.572C48.5631 181.174 46.3653 178.489 46.3155 175.49L46.2951 175.017C46.4378 171.632 49.028 168.992 51.5025 166.709C53.261 165.022 55.261 163.5 56.6409 161.534L56.6791 161.517L56.7684 161.441C56.7772 161.439 56.7866 161.439 56.7962 161.439L56.6992 161.523C62.6994 159.189 69.0364 157.678 75.4342 157.062C67.6717 154.364 59.4196 153.28 51.2143 153.28C50.5163 153.28 49.8186 153.288 49.1206 153.302C46.9048 153.356 44.6782 153.476 42.4611 153.476C40.6026 153.476 38.7516 153.391 36.9198 153.108C34.5709 152.716 32.2111 151.978 30.1623 150.72C29.5345 150.366 28.943 149.775 28.3452 149.279C27.5911 153.089 29.4485 157.182 33.0303 159.298C34.8239 160.341 36.8367 160.894 38.8962 161.226C36.8294 160.894 34.8092 160.341 33.0101 159.296C29.9591 157.493 28.16 154.257 28.1581 150.984C28.1581 150.412 28.2123 149.84 28.324 149.274C28.5133 147.928 29.1187 146.629 30.04 145.464C33.8974 140.684 38.9155 139.584 44.4091 139.429C44.7983 139.41 45.1804 139.404 45.5666 139.404C45.9026 139.404 46.2409 139.406 46.5878 139.406C46.1962 139.305 45.8419 139.188 45.4729 139.033C47.462 138.872 49.3749 138.306 51.3655 138.145C51.8421 138.102 52.3176 138.082 52.792 138.082C56.5238 138.082 60.1971 139.322 63.7291 140.547C58.3441 133.616 50.4313 129.163 42.3783 125.645C34.341 122.164 25.9037 119.416 18.339 114.955C16.4944 113.874 14.6943 112.69 12.9911 111.418C9.53481 106.434 6.39745 101.161 3.45075 95.9135C2.58907 94.3721 1.74646 92.8306 0.918823 91.3028C0.963494 91.3191 1.00815 91.3328 1.05282 91.3492L1.28267 91.548C4.11036 94.0616 7.07832 96.3874 10.1285 98.5906C16.4389 103.09 23.2176 106.911 30.3262 109.942C35.5706 112.164 41.0229 114.038 45.8686 116.993C55.2493 122.676 61.7418 132.088 70.5961 138.515C70.9706 138.801 71.4344 139.082 71.9025 139.082C71.9918 139.082 72.0823 139.072 72.1727 139.049C73.0417 138.823 73.1291 137.649 72.978 136.748C72.1536 132.186 69.1323 127.388 71.2353 123.243C71.6844 122.317 72.5599 121.475 73.6065 121.475C73.6108 121.475 73.6141 121.475 73.6174 121.475C74.1961 121.502 74.7544 121.797 75.2397 122.123C80.1554 125.47 81.3322 131.849 83.4161 137.56V145.46C83.4161 155.06 86.4203 164.35 91.4087 173.157C88.2215 172.487 85.0107 172.068 81.7992 172.068C80.0778 172.068 78.3577 172.187 76.6373 172.454C72.0822 173.187 67.7449 174.881 63.2769 176.147C60.3332 176.956 57.2771 177.583 54.2598 177.583C52.6822 177.583 51.1162 177.41 49.5824 177.005C48.6398 176.735 47.4759 176.033 46.3356 175.494C46.3854 178.492 48.5835 181.178 51.2578 182.574C52.5866 183.247 54.0153 183.664 55.4865 183.922Z" fill="#007F36"/>
<path d="M48.6963 161.866C46.4049 161.866 44.1102 161.768 41.826 161.58C40.8516 161.49 39.8688 161.384 38.8962 161.226C36.8368 160.893 34.824 160.341 33.0303 159.298C29.4485 157.182 27.5912 153.088 28.3453 149.278C28.9431 149.774 29.5346 150.365 30.1623 150.719C32.2111 151.977 34.571 152.715 36.9199 153.107C38.7516 153.391 40.6027 153.475 42.4611 153.475C44.6783 153.475 46.9049 153.355 49.1206 153.301C49.8186 153.287 50.5164 153.279 51.2144 153.279C59.4197 153.279 67.6718 154.363 75.4343 157.062C69.0365 157.677 62.6994 159.189 56.6993 161.523L56.7962 161.438C56.7866 161.438 56.7772 161.438 56.7685 161.44L56.775 161.434C54.1004 161.726 51.4004 161.866 48.6963 161.866Z" fill="#006422"/>
<path d="M60.5153 184.325C60.5079 184.325 60.4995 184.325 60.4908 184.325C58.8216 184.299 57.1282 184.208 55.4865 183.922C54.0154 183.664 52.5867 183.247 51.2579 182.574C48.5836 181.178 46.3855 178.492 46.3357 175.494C47.476 176.033 48.6399 176.735 49.5825 177.005C51.1163 177.411 52.6823 177.583 54.2599 177.583C57.2772 177.583 60.3334 176.956 63.2771 176.147C67.745 174.881 72.0823 173.187 76.6375 172.454C78.3578 172.187 80.0779 172.068 81.7994 172.068C85.0108 172.068 88.2216 172.487 91.4088 173.157C92.682 175.409 94.0875 177.628 95.6034 179.813C92.6907 180.744 89.8173 181.848 86.9504 182.963C87.7194 182.386 88.4662 181.858 89.2514 181.319C89.1437 181.392 89.0332 181.463 88.9194 181.529C89.0225 181.457 89.1258 181.387 89.229 181.316C87.4427 182.544 84.7618 182.803 82.0823 182.803C81.1057 182.803 80.1302 182.77 79.1982 182.735C78.2674 182.7 77.3801 182.667 76.58 182.667C76.3047 182.667 76.0397 182.671 75.7875 182.681C70.679 182.901 65.7164 184.325 60.5153 184.325Z" fill="#006422"/>
<path d="M80.1195 199.234C79.8033 199.234 79.4929 199.211 79.1887 199.166C78.931 199.122 78.6789 199.062 78.4321 198.977C82.4802 198.498 86.3278 196.785 89.8502 194.814C93.8492 192.515 97.565 189.821 101.531 187.539C102.701 188.934 103.915 190.315 105.163 191.673C98.2162 193.294 91.4363 195.821 84.6747 198.239C83.2405 198.735 81.6291 199.234 80.1195 199.234Z" fill="#006422"/>
<path d="M63.7291 140.547C60.1972 139.322 56.5239 138.083 52.792 138.083C52.3176 138.083 51.8421 138.101 51.3655 138.145C49.375 138.306 47.4621 138.872 45.4729 139.033L45.4345 139.049C31.5994 134.45 21.3516 123.782 12.9911 111.418C14.6943 112.69 16.4944 113.874 18.339 114.956C25.9037 119.417 34.3411 122.164 42.3783 125.645C50.4314 129.163 58.3442 133.616 63.7291 140.547Z" fill="#006422"/>
<path d="M65.3782 118.997C64.712 118.439 64.2014 117.731 63.8631 116.908C63.5249 116.083 62.8568 115.307 62.2939 114.577C61.7291 113.844 61.1291 113.128 60.5441 112.45C59.1547 110.876 57.6067 109.457 56.0015 108.103C54.358 106.764 52.6324 105.549 50.826 104.454C49.0038 103.319 47.1377 102.292 45.175 101.347C43.2261 100.443 41.2569 99.5874 39.2432 98.8412C37.2292 98.0923 35.2079 97.4333 33.1654 96.8287C24.7997 94.3586 16.1262 92.8471 7.43157 92.3487C5.80516 92.2452 3.12536 92.0301 1.05286 91.3492L0.80503 91.1314L0.759277 91.0196C0.821105 91.1693 1.53708 91.3137 2.58286 91.4091C7.23168 91.8611 19.0708 91.8121 20.8314 92.0518C27.5528 92.9641 33.9421 94.6717 40.475 96.4092C44.944 97.5911 49.1261 99.4621 52.9835 102.033C54.8931 103.294 62.7749 108.46 62.7877 111.047C62.7877 111.047 62.7877 111.049 62.7877 111.054L62.7919 110.784L62.9695 111.323C63.143 112.17 63.2939 113.072 63.5046 113.905C63.6141 114.384 63.746 114.812 63.893 115.277C64.1727 116.168 64.4513 117.059 64.8045 117.922C64.9216 118.311 65.1494 118.654 65.3782 118.997Z" fill="#00B15E"/>
<path d="M1.053 91.3492C1.00833 91.3329 0.963675 91.3192 0.919004 91.3028L0.805176 91.1313L1.053 91.3492Z" fill="#00A451"/>
<path d="M83.416 106.518C81.5042 103.512 79.2438 100.759 76.5149 98.4926C75.281 97.5122 73.9713 96.5618 72.48 96.126C74.3842 96.3929 76.0098 97.4768 77.5395 98.6424C79.6915 100.35 81.6608 102.286 83.416 104.4V106.518Z" fill="#00B15E"/>
<path d="M315.311 25.8192L315.328 25.9417L315.317 26.1486C315.593 33.8776 315.712 41.9606 315.105 49.8557C314.152 64.9079 310.69 79.4508 300.992 90.5459L300.952 90.552C300.709 90.8761 300.461 91.1593 300.17 91.4479C300.818 91.0667 301.425 90.6909 302.079 90.3504C306.946 87.6706 311.881 86.0584 317.69 88.2453C319.089 88.7899 320.279 89.6124 321.135 90.6882C323.744 93.6213 324.223 98.1393 322.186 101.819C320.672 104.515 318.188 106.522 315.677 108.325C311.546 111.228 307.161 113.796 302.577 115.855L302.706 115.877L302.746 115.871C304.955 116.878 307.48 117.181 309.874 117.747C313.199 118.472 316.807 119.444 318.665 122.32L318.891 122.742C320.383 125.378 319.844 128.845 318.229 131.429C316.505 134.115 313.803 136.029 311.066 137.699C306.532 140.37 301.469 141.672 296.899 144.101C293.56 145.899 288.539 150.087 284.489 149.796C285.447 149.867 286.368 149.94 287.335 150.052L287.416 150.042C290.505 150.262 293.645 150.556 296.741 150.818C300.807 151.229 305.266 154.974 303.602 158.639C303.444 158.993 303.207 159.358 302.959 159.642C301.611 161.197 299.214 161.785 297.125 162.207C286.706 164.19 276.136 165.987 266.632 170.608C258.018 174.81 250.7 181.146 244.409 188.322C241.601 191.533 238.425 194.466 235.62 197.676C233.455 200.174 232.464 202.217 228.984 203.292L228.787 203.36L228.747 203.366C228.305 203.469 227.94 203.522 227.513 203.418L226.976 203.124C226.031 202.307 226.497 200.341 227.091 199.017C228.324 196.362 229.25 193.584 229.836 190.732L229.83 190.692C231.192 184.589 231.227 178.18 230.625 171.944C229.773 162.769 227.703 153.768 226.766 144.604C226.385 141.064 226.393 137.055 228.931 134.585C229.732 133.808 230.731 133.294 231.812 133.057C233.359 132.588 235.07 132.716 236.592 133.245C239.119 134.162 241.151 136.229 242.521 138.596C242.387 138.242 242.248 137.85 242.156 137.49L242.146 137.409C240.514 132.643 238.965 127.863 237.374 123.092C235.86 118.555 234.335 113.939 233.984 109.154C233.676 104.695 234.471 97.2251 238.578 94.45L239.158 94.1613L239.191 94.1149C241.356 93.0637 244.161 93.9025 246.152 95.395C248.268 96.9119 249.839 98.9598 251.882 100.526L251.928 100.561L252.211 100.809C248.704 91.5604 248.769 81.0127 252.328 71.7859C253.064 69.9885 253.924 68.2128 255.447 67.0036L255.523 66.9519C258.208 64.9148 262.168 65.4677 264.997 67.3359C267.74 69.1769 269.63 72.0038 271.395 74.8116L271.555 75.0785C270.169 72.878 274.434 64.253 275.458 62.1669C277.501 57.9484 280.186 54.1765 283.473 50.8567C288.274 46.0009 292.967 41.2404 298.354 37.0001C299.764 35.889 310.105 29.8703 313.923 27.0924C314.784 26.4742 315.333 25.9826 315.311 25.8192Z" fill="#007537"/>
<path d="M315.475 31.4537C315.434 29.6726 315.379 27.9025 315.317 26.1486L315.327 25.9417C315.384 27.7636 315.436 29.6018 315.475 31.4537Z" fill="#13114C"/>
<path d="M290.104 104.4V96.5455C291.68 95.0476 293.396 93.724 295.362 92.7926C297.179 91.9157 299.134 91.4283 300.951 90.5513C300.708 90.8754 300.461 91.1586 300.169 91.4473C300.817 91.066 301.425 90.6902 302.078 90.3498C305.357 88.5442 308.669 87.2233 312.256 87.2233C313.993 87.2233 315.793 87.5311 317.689 88.2446C319.089 88.7893 320.279 89.6117 321.134 90.6875C322.654 92.395 323.449 94.6391 323.449 96.9431C323.449 98.1904 323.215 99.4568 322.733 100.666C322.726 100.668 322.722 100.672 322.718 100.674C324.085 97.24 323.459 93.3319 321.117 90.7011C320.853 91.4419 320.638 92.2561 320.273 92.888C319.132 95.034 317.454 96.8859 315.607 98.4301C313.731 99.9661 311.656 101.227 309.529 102.414C309.379 102.003 309.21 101.597 309.02 101.2C307.647 98.3974 304.869 96.077 301.827 96.077C301.596 96.077 301.361 96.0914 301.13 96.1179L301.037 96.1261C299.134 96.393 297.508 97.4769 295.98 98.6425C293.826 100.35 291.86 102.286 290.104 104.4ZM290.103 88.0049V70.1477C292.731 65.665 296.135 61.6371 299.245 57.4486C303.886 51.1684 307.832 44.3654 311.027 37.2165C312.555 33.7333 313.949 30.1875 315.126 26.549L315.221 26.2576C315.254 26.2223 315.286 26.1867 315.316 26.1487C315.379 27.9026 315.433 29.6728 315.474 31.4539C315.594 37.5379 315.561 43.7391 315.104 49.8558C314.27 51.8357 313.309 53.7884 312.255 55.6757C307.949 63.4373 302.007 70.1532 296.789 77.3021C294.324 80.7009 291.996 84.263 290.103 88.0049Z" fill="#00622A"/>
<path d="M310.73 111.053L310.728 110.783C310.644 107.948 310.486 105.051 309.53 102.414C311.657 101.227 313.732 99.966 315.609 98.43C317.455 96.8859 319.133 95.0339 320.274 92.8879C320.639 92.2561 320.854 91.4418 321.118 90.701C323.46 93.3318 324.087 97.2399 322.719 100.674C321.981 101.104 321.251 101.556 320.535 102.033C318.626 103.294 310.745 108.46 310.731 111.047C310.731 111.047 310.73 111.049 310.73 111.053Z" fill="#004719"/>
<path d="M290.104 96.5454V88.0049C291.996 84.2629 294.325 80.7008 296.789 77.302C302.007 70.1531 307.95 63.4372 312.256 55.6755C313.309 53.7882 314.271 51.8356 315.104 49.8557C314.151 64.9078 310.69 79.4507 300.992 90.5458L300.951 90.5519C299.134 91.4289 297.179 91.9164 295.362 92.7933C293.396 93.7247 291.68 95.0475 290.104 96.5454Z" fill="#004719"/>
<path d="M290.104 47.4291V44.2591C292.734 41.7318 295.441 39.289 298.353 36.9986C299.763 35.8875 310.104 29.8687 313.922 27.0909C314.764 26.489 315.308 26.0043 315.311 25.8327C315.311 25.8266 315.311 25.8245 315.311 25.8184L315.327 25.941L315.221 26.2568C313.767 27.9126 311.545 29.4704 310.178 30.3936C302.879 35.2685 296.114 41.0129 290.104 47.4291Z" fill="#00954D"/>
<path d="M315.221 26.2576L315.327 25.9417L315.317 26.1486C315.287 26.1868 315.254 26.2222 315.221 26.2576Z" fill="#008641"/>
<path d="M372.758 91.0197L372.712 91.1314L372.598 91.303C368.956 98.0352 365.008 104.988 360.528 111.418C352.167 123.782 341.919 134.45 328.084 139.049L328.046 139.033C327.675 139.188 327.321 139.305 326.929 139.406C327.675 139.406 328.381 139.39 329.111 139.428C334.604 139.583 339.62 140.683 343.479 145.463C344.4 146.629 345.004 147.928 345.195 149.273C345.949 153.086 344.092 157.179 340.508 159.295C337.864 160.834 334.74 161.302 331.692 161.58C326.711 161.986 321.684 161.978 316.744 161.436L316.839 161.517L316.877 161.534C318.258 163.5 320.257 165.022 322.016 166.709C324.492 168.993 327.082 171.632 327.223 175.017L327.205 175.49C327.153 178.489 324.956 181.174 322.284 182.572C319.465 183.996 316.2 184.275 313.027 184.325C307.817 184.332 302.85 182.901 297.733 182.681C296.744 182.643 295.573 182.689 294.323 182.735C290.829 182.863 286.725 182.994 284.29 181.316C285.074 181.855 285.82 182.381 286.588 182.961L286.665 182.992C289.189 184.729 291.719 186.556 294.23 188.332C297.493 190.72 299.418 196.151 296.158 198.443C295.848 198.667 295.461 198.857 295.107 198.974C293.176 199.625 290.837 198.929 288.846 198.239C278.963 194.704 269.047 190.938 258.622 190.111C249.164 189.378 239.743 191.109 230.778 194.078C226.775 195.407 222.594 196.317 218.591 197.645C215.492 198.691 213.623 199.939 210.113 199.108L209.911 199.07L209.873 199.054C209.446 198.923 209.111 198.784 208.797 198.478L208.487 197.958C208.092 196.79 209.473 195.344 210.644 194.513C213.03 192.866 215.211 190.962 217.139 188.824L217.156 188.786C221.377 184.262 224.62 178.813 227.238 173.192C231.11 164.938 233.861 156.22 237.657 147.936C239.109 144.725 241.124 141.307 244.528 140.476C245.599 140.215 246.712 140.277 247.753 140.618C249.305 140.994 250.702 141.96 251.737 143.172C253.431 145.226 254.125 148.006 254.109 150.711C254.172 150.343 254.251 149.94 254.352 149.586L254.384 149.512C255.384 144.627 256.457 139.773 257.494 134.904C258.477 130.277 259.491 125.574 261.59 121.314C263.567 117.357 267.99 111.385 272.884 111.077L273.524 111.121L273.576 111.099C275.951 111.287 277.922 113.408 278.87 115.679C279.916 118.035 280.232 120.571 281.185 122.932L281.209 122.986L281.327 123.341C282.971 113.689 288.317 104.726 295.981 98.6421C297.509 97.4765 299.135 96.3926 301.038 96.1257L301.131 96.1175C304.44 95.7281 307.544 98.1846 309.021 101.199C310.437 104.143 310.63 107.504 310.728 110.783L310.734 111.091C310.653 108.52 318.616 103.302 320.536 102.033C324.395 99.4618 328.575 97.5908 333.044 96.4089C339.578 94.6714 345.967 92.9638 352.688 92.0515C354.45 91.8118 366.289 91.8609 370.937 91.4087C371.983 91.3134 372.698 91.1695 372.758 91.0197Z" fill="#009245"/>
<path d="M324.802 161.869C322.106 161.869 319.415 161.732 316.749 161.441L316.743 161.435C319.417 161.726 322.116 161.865 324.821 161.865C327.114 161.865 329.41 161.767 331.692 161.579C332.661 161.492 333.639 161.383 334.606 161.228C333.633 161.386 332.648 161.495 331.67 161.585C329.388 161.77 327.093 161.869 324.802 161.869Z" fill="#0D0F3F"/>
<path d="M312.983 184.329C307.784 184.329 302.819 182.904 297.71 182.684C297.457 182.676 297.193 182.67 296.915 182.67C296.117 182.67 295.229 182.705 294.298 182.738C293.366 182.773 292.391 182.806 291.416 182.806C288.894 182.806 286.37 182.577 284.594 181.525C284.493 181.455 284.39 181.387 284.289 181.315C286.076 182.544 288.755 182.802 291.435 182.802C292.413 182.802 293.388 182.77 294.322 182.734C295.251 182.699 296.139 182.666 296.939 182.666C297.214 182.666 297.478 182.67 297.732 182.681C302.841 182.901 307.803 184.325 313.002 184.325C313.01 184.325 313.018 184.325 313.026 184.325C314.685 184.299 316.368 184.209 317.999 183.927C316.362 184.211 314.671 184.301 313.007 184.329C312.999 184.329 312.991 184.329 312.983 184.329Z" fill="#0D0F3F"/>
<path d="M293.377 199.239C291.868 199.239 290.256 198.738 288.823 198.245C282.064 195.827 275.288 193.299 268.341 191.679C268.343 191.676 268.347 191.672 268.349 191.67C275.296 193.292 282.08 195.821 288.845 198.239C290.278 198.735 291.89 199.234 293.399 199.234C293.709 199.234 294.017 199.212 294.317 199.166C294.009 199.215 293.696 199.239 293.377 199.239Z" fill="#0D0F3F"/>
<path d="M369.978 96.0769C370.871 94.481 371.743 92.8851 372.598 91.3028L372.712 91.1313C371.819 92.7708 370.906 94.4238 369.978 96.0769Z" fill="#13114E"/>
<path d="M294.317 199.166C294.578 199.124 294.834 199.062 295.085 198.978C291.038 198.498 287.19 196.785 283.668 194.814C279.668 192.515 275.95 189.819 271.982 187.536C274.101 185.015 276.086 182.438 277.911 179.811C280.822 180.745 283.698 181.845 286.569 182.964C285.801 182.386 285.052 181.859 284.267 181.319C284.374 181.389 284.483 181.461 284.594 181.526C285.267 181.995 285.92 182.458 286.588 182.962L286.664 182.992C289.188 184.729 291.718 186.557 294.229 188.332C296.305 189.851 297.841 192.607 297.841 194.999C297.841 196.363 297.342 197.611 296.158 198.444C295.847 198.667 295.46 198.857 295.106 198.974C294.85 199.062 294.586 199.124 294.317 199.166ZM317.999 183.928C319.483 183.669 320.921 183.25 322.261 182.575C324.936 181.178 327.131 178.492 327.182 175.494C326.041 176.033 324.878 176.735 323.936 177.005C322.403 177.411 320.837 177.583 319.26 177.583C316.243 177.583 313.184 176.957 310.24 176.147C305.774 174.881 301.436 173.187 296.882 172.454C295.161 172.187 293.44 172.068 291.719 172.068C288.505 172.068 285.294 172.487 282.105 173.16C287.094 164.35 290.104 155.06 290.104 145.46V137.56C292.187 131.849 293.363 125.471 298.279 122.124C298.764 121.797 299.322 121.503 299.902 121.475C299.904 121.475 299.908 121.475 299.91 121.475C300.959 121.475 301.833 122.317 302.283 123.243C304.388 127.388 301.365 132.186 300.54 136.748C300.39 137.65 300.477 138.823 301.346 139.049C301.436 139.071 301.525 139.082 301.615 139.082C302.084 139.082 302.547 138.802 302.923 138.516C311.776 132.088 318.269 122.676 327.648 116.993C332.496 114.038 337.948 112.164 343.193 109.942C350.301 106.911 357.08 103.09 363.39 98.5908C366.44 96.3876 369.409 94.0618 372.235 91.5481L372.464 91.3494C372.511 91.333 372.554 91.3193 372.598 91.303C371.742 92.8853 370.871 94.4812 369.978 96.0771C367.058 101.271 363.948 106.486 360.528 111.418C358.825 112.69 357.025 113.874 355.179 114.956C347.613 119.417 339.176 122.164 331.139 125.645C323.086 129.163 315.175 133.616 309.788 140.547C313.32 139.322 316.994 138.083 320.728 138.083C321.202 138.083 321.678 138.101 322.152 138.145C324.143 138.306 326.055 138.872 328.046 139.033C327.675 139.188 327.321 139.305 326.929 139.406C327.278 139.406 327.615 139.404 327.953 139.404C328.337 139.404 328.721 139.41 329.111 139.429C334.604 139.584 339.62 140.684 343.479 145.464C344.4 146.629 345.004 147.928 345.195 149.274C345.307 149.84 345.361 150.412 345.361 150.984C345.359 154.258 343.558 157.493 340.508 159.296C338.705 160.344 336.679 160.897 334.606 161.229C336.671 160.894 338.691 160.344 340.489 159.299C344.07 157.182 345.927 153.089 345.173 149.279C344.574 149.775 343.983 150.366 343.356 150.72C341.309 151.978 338.947 152.716 336.6 153.108C334.767 153.392 332.915 153.476 331.058 153.476C328.841 153.476 326.613 153.356 324.396 153.302C323.699 153.287 323.002 153.28 322.305 153.28C314.099 153.28 305.847 154.364 298.083 157.063C304.483 157.678 310.82 159.19 316.82 161.524L316.722 161.439C316.73 161.439 316.74 161.439 316.749 161.441L316.839 161.517L316.877 161.534C318.258 163.5 320.257 165.022 322.016 166.709C324.492 168.993 327.082 171.632 327.223 175.017L327.205 175.491C327.153 178.49 324.955 181.174 322.284 182.572C320.938 183.25 319.489 183.669 317.999 183.928Z" fill="#007F36"/>
<path d="M324.821 161.866C322.117 161.866 319.418 161.727 316.744 161.435L316.75 161.442C316.742 161.439 316.732 161.44 316.723 161.44L316.821 161.524C310.821 159.19 304.484 157.678 298.084 157.063C305.848 154.364 314.1 153.28 322.306 153.28C323.003 153.28 323.7 153.288 324.397 153.302C326.614 153.357 328.842 153.476 331.059 153.476C332.916 153.476 334.768 153.392 336.601 153.109C338.948 152.717 341.31 151.978 343.358 150.72C343.984 150.366 344.575 149.775 345.174 149.28C345.928 153.09 344.071 157.183 340.49 159.299C338.692 160.345 336.672 160.895 334.607 161.23C333.641 161.385 332.663 161.494 331.693 161.581C329.411 161.769 327.115 161.866 324.821 161.866Z" fill="#006422"/>
<path d="M313.002 184.325C307.803 184.325 302.841 182.901 297.732 182.681C297.478 182.671 297.214 182.666 296.939 182.666C296.139 182.666 295.251 182.699 294.322 182.734C293.388 182.77 292.413 182.802 291.435 182.802C288.755 182.802 286.076 182.544 284.289 181.315C284.39 181.387 284.493 181.455 284.594 181.525C284.482 181.46 284.373 181.389 284.267 181.319C285.052 181.858 285.801 182.385 286.569 182.963C283.698 181.844 280.822 180.744 277.911 179.81C279.425 177.628 280.83 175.406 282.105 173.159C285.294 172.487 288.505 172.067 291.718 172.067C293.44 172.067 295.161 172.187 296.882 172.454C301.435 173.187 305.774 174.88 310.24 176.146C313.184 176.956 316.243 177.582 319.26 177.582C320.837 177.582 322.403 177.41 323.936 177.005C324.878 176.735 326.041 176.032 327.182 175.493C327.131 178.492 324.936 181.177 322.261 182.574C320.921 183.249 319.483 183.668 317.999 183.927C316.368 184.208 314.685 184.298 313.026 184.325C313.018 184.325 313.01 184.325 313.002 184.325Z" fill="#006422"/>
<path d="M293.399 199.234C291.89 199.234 290.278 198.735 288.845 198.239C282.08 195.821 275.296 193.291 268.349 191.67C269.596 190.312 270.811 188.931 271.982 187.536C275.95 189.819 279.667 192.515 283.668 194.814C287.189 196.785 291.038 198.498 295.085 198.977C294.834 199.062 294.578 199.124 294.317 199.166C294.017 199.211 293.709 199.234 293.399 199.234Z" fill="#006422"/>
<path d="M309.788 140.547C315.175 133.616 323.086 129.163 331.14 125.645C339.176 122.164 347.613 119.416 355.179 114.956C357.025 113.874 358.825 112.69 360.528 111.418C352.167 123.782 341.919 134.45 328.084 139.049L328.046 139.033C326.055 138.872 324.143 138.306 322.152 138.145C321.678 138.102 321.202 138.082 320.728 138.082C316.994 138.082 313.32 139.322 309.788 140.547Z" fill="#006422"/>
<path d="M308.141 118.997C308.369 118.654 308.598 118.311 308.712 117.921C309.066 117.058 309.347 116.168 309.625 115.277C309.772 114.811 309.905 114.384 310.014 113.904C310.224 113.071 310.376 112.17 310.548 111.323L310.728 110.783L310.73 111.053C310.73 111.051 310.73 111.047 310.73 111.047C310.744 108.46 318.625 103.293 320.534 102.032C324.393 99.4616 328.573 97.5907 333.042 96.4087C339.576 94.6712 345.965 92.9636 352.686 92.0513C354.448 91.8116 366.287 91.8607 370.936 91.4085C371.981 91.3131 372.698 91.1689 372.758 91.0191L372.711 91.1308L372.463 91.3487C370.394 92.0296 367.714 92.2447 366.085 92.3482C357.392 92.8466 348.718 94.358 340.352 96.8281C338.309 97.4327 336.289 98.0918 334.276 98.8408C332.261 99.587 330.292 100.442 328.345 101.346C326.381 102.291 324.513 103.318 322.694 104.454C320.885 105.548 319.161 106.763 317.516 108.103C315.91 109.457 314.363 110.875 312.974 112.449C312.388 113.128 311.789 113.844 311.225 114.576C310.662 115.306 309.994 116.082 309.654 116.908C309.316 117.73 308.808 118.439 308.141 118.997Z" fill="#00B15E"/>
<path d="M372.464 91.3491L372.712 91.1313L372.598 91.3028C372.554 91.3192 372.51 91.3328 372.464 91.3491Z" fill="#00A451"/>
<path d="M290.104 106.516V104.4C291.86 102.286 293.826 100.35 295.981 98.6424C297.508 97.4768 299.134 96.3929 301.038 96.126C299.546 96.5618 298.238 97.5122 297.002 98.4926C294.276 100.759 292.015 103.512 290.104 106.516Z" fill="#00B15E"/>
<path d="M164.174 142.854C164.305 142.805 164.436 142.75 164.564 142.688C164.436 142.751 164.308 142.805 164.177 142.851L164.174 142.854Z" fill="#FF923B"/>
<path d="M126.187 26.0294H247.333V5.67371H126.187V26.0294Z" fill="#CA7300"/>
<path d="M239.293 17.6082H235.663V5.67395H239.293V17.6082ZM137.856 17.6082H134.224V5.67395H137.856V17.6082Z" fill="#B55300"/>
<path d="M243.464 26.0296H239.293V17.6083H242.636C242.62 20.9216 242.636 23.8736 243.464 26.0296Z" fill="#BD6000"/>
<path d="M235.663 26.0295H239.293V17.6088H235.663V26.0295Z" fill="#AA4500"/>
<path d="M134.224 26.0296H130.054C130.882 23.8736 130.896 20.9216 130.882 17.6083H134.224V26.0296Z" fill="#BD6000"/>
<path d="M134.224 26.0295H137.856V17.6088H134.224V26.0295Z" fill="#AA4500"/>
<path d="M235.663 3.81164V223.919C235.663 225.42 234.541 226.433 233.492 225.89L228.551 223.322L220.682 219.216L186.759 201.522L152.836 219.216L144.966 223.322L140.027 225.89C138.978 226.433 137.856 225.42 137.856 223.919V3.81164C137.856 1.82308 139.485 0.192871 141.475 0.192871H232.044C234.032 0.192871 235.663 1.82308 235.663 3.81164Z" fill="#FF5766"/>
<path d="M139.442 226.039C138.601 226.039 137.856 225.141 137.856 223.919V137.036V146.937C138.993 148.615 140.206 150.245 141.477 151.825V223.919C141.477 224.33 141.567 224.7 141.711 225.015L140.027 225.89C140.018 225.897 140.007 225.901 139.997 225.908C139.813 225.996 139.628 226.04 139.447 226.04C139.445 226.04 139.444 226.039 139.442 226.039ZM137.855 32.1307V3.81207C137.855 1.8235 139.484 0.193298 141.474 0.193298H145.095H144.965C143.034 0.263794 141.476 1.86463 141.476 3.81207V30.6209C140.206 30.9881 138.994 31.4962 137.855 32.1307Z" fill="#FF90A3"/>
<path d="M234.076 226.039C233.885 226.039 233.686 225.992 233.492 225.89C233.686 225.992 233.883 226.039 234.073 226.039C234.632 226.039 235.143 225.64 235.428 225.015L232.173 223.322L228.551 221.434V155.894C231.116 153.083 233.521 150.093 235.663 146.937V198.414V200.588V223.919C235.663 225.141 234.919 226.039 234.076 226.039Z" fill="#D83743"/>
<path d="M220.682 217.327L190.378 201.522L188.569 202.465L186.759 201.522V183.646C189.726 183.646 192.675 182.887 195.28 181.439C201.581 177.912 211.415 171.825 220.682 163.616V217.327Z" fill="#D83743"/>
<path d="M235.663 32.1302C233.515 30.9377 231.107 30.1857 228.551 29.9889V0.192871H220.682V29.9361H186.759V0.192871H232.044C234.032 0.192871 235.663 1.82308 235.663 3.81164V17.6082V26.0294V31.3959V32.1302Z" fill="#D83743"/>
<path d="M234.073 226.039C233.883 226.039 233.686 225.992 233.492 225.89L228.551 223.322V221.434L232.173 223.322L235.428 225.015C235.143 225.64 234.632 226.039 234.073 226.039Z" fill="#D85A6B"/>
<path d="M220.682 219.216L188.569 202.465L190.378 201.522L220.682 217.327V219.216Z" fill="#D85A6B"/>
<path d="M152.836 0.192871V219.216L144.966 223.322V0.192871H152.836Z" fill="#FFB612"/>
<path d="M228.551 0.192871V223.322L220.682 219.216V0.192871H228.551Z" fill="#FFB612"/>
<path d="M186.759 183.646C183.793 183.646 180.844 182.887 178.238 181.422C171.938 177.905 162.104 171.825 152.836 163.616V153.706C162.104 161.912 171.932 167.996 178.238 171.511C180.846 172.968 183.793 173.738 186.759 173.738V183.646ZM144.966 155.894C143.765 154.574 142.598 153.221 141.477 151.825V141.917C142.598 143.31 143.765 144.668 144.966 145.983V155.894Z" fill="#C92A35"/>
<path d="M141.477 151.825C140.206 150.245 138.993 148.615 137.856 146.937V137.036C138.994 138.711 140.206 140.338 141.477 141.918V151.825Z" fill="#C94555"/>
<path d="M186.759 183.646V173.738C186.959 173.738 187.159 173.731 187.356 173.722C190.12 173.626 192.851 172.873 195.28 171.504C201.584 167.992 211.415 161.909 220.682 153.699V163.615C211.415 171.825 201.581 177.911 195.28 181.438C192.675 182.887 189.726 183.646 186.759 183.646Z" fill="#AB1A23"/>
<path d="M152.836 163.616C150.13 161.219 147.473 158.641 144.966 155.894V145.983C147.473 148.73 150.13 151.309 152.836 153.706V163.616Z" fill="#C9580A"/>
<path d="M228.551 155.894V145.975C231.116 143.164 233.521 140.176 235.663 137.025V146.937C233.521 150.093 231.116 153.083 228.551 155.894Z" fill="#AB1A23"/>
<path d="M220.682 163.616V153.7C223.388 151.3 226.043 148.724 228.551 145.975V155.894C226.046 158.643 223.388 161.219 220.682 163.616Z" fill="#C9580A"/>
<path d="M144.518 99.3886V121.592C144.518 121.592 134.171 118.414 123.934 113.893C119.242 111.828 114.579 109.472 110.949 107.014C103.076 101.715 100.385 94.6184 99.4738 90.609L99.4463 90.139C99.5 88.9406 100.887 88.033 102.315 88.4119L108.053 89.904L123.934 94.0309L144.518 99.3886Z" fill="#FFB612"/>
<path d="M123.934 113.893C119.244 111.822 114.58 109.469 110.949 107.014C103.076 101.715 100.385 94.6185 99.4738 90.609L99.4463 90.1391C100.249 90.753 101.183 91.4197 102.256 92.1188C103.468 96.2399 106.379 102.329 113.338 107.014C116.352 109.052 120.074 111.017 123.934 112.812L123.934 113.893Z" fill="#FFDA1E"/>
<path d="M107.896 89.8659C107.896 89.8681 107.898 89.8637 107.896 89.8659V89.8659Z" fill="#1B0F1A"/>
<path d="M107.897 89.866L102.964 88.5823L107.897 89.863C107.897 89.8652 107.898 89.8637 107.897 89.866Z" fill="#00550B"/>
<path d="M123.934 101.207C113.76 98.5721 106.771 95.0591 102.256 92.1188C102.098 91.5784 101.968 91.0732 101.862 90.609L101.835 90.1391C101.866 89.4665 102.323 88.8937 102.964 88.5823L107.897 89.866L108.031 89.8983C112.527 93.0383 118.306 96.0226 123.934 98.581L123.934 101.207Z" fill="#FF8C04"/>
<path d="M102.256 92.1189C101.183 91.4198 100.249 90.7531 99.4463 90.1392C99.4921 89.1317 100.477 88.3298 101.635 88.3239C101.64 88.3239 101.644 88.3239 101.649 88.3239C101.65 88.3239 101.651 88.3239 101.653 88.3239C101.859 88.3239 102.07 88.3504 102.282 88.4032C102.293 88.4054 102.304 88.4098 102.314 88.4121L102.963 88.5823C102.322 88.8937 101.865 89.4665 101.835 90.1391L101.862 90.609C101.968 91.0732 102.098 91.5784 102.256 92.1189Z" fill="#FFA808"/>
<path d="M144.518 80.4519V106.676C144.518 106.676 134.498 103.383 123.934 98.5692C118.317 96.0226 112.539 93.0529 108.053 89.9041L107.4 89.4518C98.6992 83.1865 95.7342 74.7858 94.7141 70.0744C94.6339 69.7072 94.6604 69.3577 94.7831 69.0346C95.1226 67.8626 96.4823 67.0578 97.8696 67.4543L104.571 69.3283L123.934 74.7124L144.518 80.4519Z" fill="#FFB612"/>
<path d="M108.052 89.904L108.032 89.8974C107.997 89.8739 107.964 89.8506 107.931 89.827C107.932 89.827 107.933 89.8248 107.936 89.8248L108.052 89.904Z" fill="#BA896C"/>
<path d="M107.93 89.8278C107.751 89.7045 107.574 89.5782 107.4 89.4519L107.934 89.8249C107.933 89.8249 107.93 89.8278 107.93 89.8278Z" fill="#B2B734"/>
<path d="M123.934 98.5811C118.306 96.0227 112.527 93.0384 108.031 89.8984L108.053 89.905C112.539 93.0538 118.317 96.0234 123.934 98.5701V98.5811Z" fill="#FFC511"/>
<path d="M123.934 98.5693C118.317 96.0227 112.539 93.053 108.053 89.9042L107.934 89.825L107.4 89.4519C101.342 85.09 98.0648 79.6942 96.2886 75.2265C95.514 73.2762 95.0241 71.505 94.7142 70.0745C94.6834 69.9307 94.6673 69.7895 94.6684 69.6515C94.6696 69.4371 94.7087 69.2315 94.7832 69.0347C95.484 69.5369 96.3162 70.1303 97.2661 70.7853C98.4249 75.5966 101.509 83.4921 109.789 89.4519C113.751 92.3099 118.821 95.0505 123.934 97.4737L123.934 98.5693Z" fill="#FFDA1E"/>
<path d="M99.1695 67.8185L98.4308 67.6099L99.1695 67.8155V67.8185Z" fill="#00620E"/>
<path d="M104.568 69.3255L99.1696 67.8186L104.554 69.3174C104.559 69.3196 104.564 69.3233 104.568 69.3255Z" fill="#00550B"/>
<path d="M123.934 83.5537C112.64 80.7838 102.886 74.6684 97.2662 70.7853C97.2078 70.5415 97.1536 70.3035 97.1032 70.0744C97.0219 69.7073 97.0494 69.3577 97.1721 69.0346C97.3521 68.4119 97.8236 67.9008 98.4307 67.61L99.1695 67.8186L104.568 69.3255C110.035 73.2556 117.192 76.9654 123.934 80.0466L123.934 83.5537ZM97.8339 67.4456C97.6045 67.3811 97.3763 67.3546 97.1524 67.3515C97.3763 67.3515 97.6045 67.3809 97.8339 67.4456Z" fill="#FF8C04"/>
<path d="M97.2661 70.7854C96.3162 70.1304 95.484 69.537 94.7832 69.0348C94.7898 69.0112 94.7986 68.9848 94.8061 68.9614C95.1113 68.0391 96.051 67.3635 97.1216 67.3518C97.1304 67.3518 97.1392 67.3518 97.148 67.3518C97.1489 67.3518 97.1502 67.3518 97.1524 67.3518C97.3763 67.354 97.6045 67.3811 97.8339 67.4459C97.8449 67.4481 97.857 67.4525 97.8698 67.4547L98.4308 67.6104C97.8237 67.9012 97.3522 68.4123 97.1722 69.035C97.0495 69.3581 97.0217 69.7076 97.1032 70.0748C97.1537 70.3039 97.2077 70.5416 97.2661 70.7854Z" fill="#FFA808"/>
<path d="M144.518 58.4544V88.3239C144.518 88.3239 134.756 85.0018 123.934 80.0406C117.203 76.9682 110.038 73.2496 104.571 69.3283C104.286 69.1227 104.001 68.917 103.729 68.7114C94.1705 61.5709 90.9083 52.0275 89.793 46.6435C89.3985 44.7401 91.3019 43.1157 93.2605 43.6709L123.934 52.5122L144.518 58.4544Z" fill="#FFB612"/>
<path d="M104.558 69.3166H104.553C104.438 69.2345 104.322 69.1492 104.208 69.067C104.324 69.1491 104.442 69.2344 104.558 69.3166Z" fill="#B2B734"/>
<path d="M104.571 69.3282L104.567 69.326C104.563 69.3239 104.558 69.3195 104.554 69.3173H104.558C104.563 69.3239 104.567 69.326 104.571 69.3282Z" fill="#B2A917"/>
<path d="M123.934 80.0465C117.192 76.9653 110.036 73.2555 104.568 69.3254L104.573 69.3276C110.039 73.2489 117.204 76.9675 123.935 80.04L123.934 80.0465Z" fill="#FFC511"/>
<path d="M123.934 80.0407C117.203 76.9682 110.038 73.2496 104.572 69.3283C104.567 69.3261 104.563 69.3218 104.558 69.3174C104.443 69.2352 104.325 69.1499 104.21 69.0677C104.049 68.9502 103.892 68.8327 103.734 68.7152C94.1767 61.5775 90.9113 52.0254 89.8008 46.6472C89.46 44.9964 90.8288 43.5659 92.4637 43.5659C92.7242 43.5659 92.9904 43.6012 93.2577 43.6777L94.3879 44.0037C93.5147 44.55 92.9651 45.5428 93.1936 46.6473C94.3042 52.0255 97.5685 61.5776 107.127 68.7152C111.808 72.2136 117.896 75.5562 123.934 78.4583L123.934 80.0407Z" fill="#FFDA1E"/>
<path d="M129.029 116.04C127.431 115.397 125.792 114.71 124.153 113.99C124.08 113.958 124.006 113.926 123.933 113.893C125.645 114.648 127.36 115.368 129.029 116.04ZM128.866 114.989C127.228 114.299 125.567 113.57 123.933 112.812V101.207C125.371 101.58 126.872 101.933 128.44 102.267V108.979C128.44 111.018 128.587 113.024 128.866 114.989Z" fill="#FF8201"/>
<path d="M129.029 116.04C127.36 115.368 125.646 114.648 123.934 113.893V112.812C125.567 113.57 127.228 114.298 128.866 114.989C128.917 115.341 128.971 115.688 129.029 116.04Z" fill="#FF9C02"/>
<path d="M128.441 102.267C126.872 101.932 125.371 101.58 123.934 101.207V98.581C125.456 99.2713 126.969 99.9322 128.441 100.558V102.267Z" fill="#FF6400"/>
<path d="M128.441 99.5267C126.952 98.8717 125.441 98.1873 123.934 97.4735V83.5536C125.411 83.9149 126.914 84.2203 128.441 84.4553V99.5267Z" fill="#FF8201"/>
<path d="M128.441 100.558C126.969 99.9322 125.456 99.2713 123.934 98.581V98.57C125.456 99.2632 126.969 99.9271 128.441 100.553V100.558Z" fill="#FF8D01"/>
<path d="M128.441 100.552C126.969 99.9263 125.456 99.2624 123.934 98.5692V97.4736C125.441 98.1874 126.952 98.8718 128.441 99.5268V100.552Z" fill="#FF9C02"/>
<path d="M128.441 84.4555C126.914 84.2206 125.411 83.9151 123.934 83.5538V80.0466C125.466 80.7487 126.975 81.4154 128.441 82.044V84.4555Z" fill="#FF6400"/>
<path d="M128.441 80.5519C126.956 79.8851 125.446 79.186 123.934 78.4576V52.5123L128.441 53.8136V80.5519Z" fill="#FF8201"/>
<path d="M128.441 82.0439C126.975 81.4153 125.466 80.7485 123.934 80.0465V80.0399C125.466 80.7419 126.975 81.4124 128.441 82.0439Z" fill="#FF8D01"/>
<path d="M128.441 82.044C126.975 81.4125 125.466 80.7428 123.934 80.0408V78.4576C125.446 79.186 126.956 79.8851 128.441 80.5519V82.044Z" fill="#FF9C02"/>
<path d="M229.001 99.3886V121.592C229.001 121.592 239.346 118.414 249.585 113.893C254.276 111.828 258.941 109.472 262.568 107.014C270.44 101.715 273.134 94.6184 274.044 90.609L274.071 90.139C274.018 88.9406 272.631 88.033 271.204 88.4119L265.464 89.904L249.585 94.0309L229.001 99.3886Z" fill="#FFB612"/>
<path d="M249.586 113.893V112.812C253.445 111.017 257.167 109.052 260.18 107.014C267.139 102.329 270.05 96.2399 271.263 92.1188C272.335 91.4197 273.269 90.753 274.071 90.1391L274.044 90.609C273.651 92.3362 272.928 94.639 271.604 97.121C269.85 100.402 267.048 104 262.568 107.014C258.938 109.469 254.274 111.822 249.586 113.893Z" fill="#FFDA1E"/>
<path d="M265.485 89.8981H265.487L265.619 89.8629C265.619 89.8607 265.619 89.8651 265.619 89.8629L265.485 89.8981Z" fill="#1B0F1A"/>
<path d="M265.62 89.866C265.62 89.8638 265.62 89.866 265.62 89.8638L270.555 88.5831L265.62 89.866Z" fill="#00550B"/>
<path d="M249.585 101.207V98.581C255.213 96.0226 260.991 93.0384 265.485 89.8984L265.62 89.866L270.555 88.5823C271.195 88.8937 271.653 89.4665 271.683 90.1392L271.656 90.6091C271.55 91.0732 271.421 91.5784 271.263 92.1189C266.748 95.0591 259.757 98.5722 249.585 101.207Z" fill="#FF8C04"/>
<path d="M271.263 92.1188C271.421 91.5784 271.551 91.0732 271.656 90.609L271.683 90.1391C271.653 89.4665 271.195 88.8937 270.555 88.5823L271.204 88.4121C271.213 88.4098 271.224 88.4054 271.236 88.4032C271.448 88.3504 271.659 88.3239 271.865 88.3239C271.872 88.3239 271.876 88.3239 271.883 88.3239C273.043 88.3305 274.027 89.1317 274.071 90.1392C273.269 90.7531 272.335 91.4198 271.263 92.1188Z" fill="#FFA808"/>
<path d="M229.001 80.4519V106.676C229.001 106.676 239.02 103.383 249.585 98.5692C255.202 96.0226 260.979 93.0529 265.465 89.9041L266.117 89.4518C274.82 83.1865 277.784 74.7858 278.803 70.0744C278.885 69.7072 278.859 69.3577 278.735 69.0346C278.394 67.8626 277.034 67.0578 275.648 67.4543L268.945 69.3283L249.585 74.7124L229.001 80.4519Z" fill="#FFB612"/>
<path d="M265.467 89.9042L265.582 89.8221C265.584 89.8243 265.589 89.8287 265.589 89.8287C265.556 89.8523 265.521 89.8756 265.489 89.8992L265.467 89.9042Z" fill="#BA896C"/>
<path d="M265.588 89.8278C265.588 89.8278 265.586 89.8256 265.581 89.8212L266.116 89.4511C265.943 89.5773 265.767 89.7015 265.588 89.8278Z" fill="#B2B734"/>
<path d="M265.464 89.9042H265.467L265.486 89.8976L265.464 89.9042Z" fill="#BA8625"/>
<path d="M249.586 98.5811V98.5701C255.202 96.0234 260.979 93.0539 265.465 89.9051L265.484 89.8984C260.99 93.0384 255.213 96.0227 249.586 98.5811Z" fill="#FFC511"/>
<path d="M249.586 98.5693V97.4737C254.696 95.0505 259.769 92.3099 263.729 89.4519C272.009 83.4921 275.093 75.5966 276.25 70.7853C277.202 70.1303 278.033 69.5369 278.735 69.0347C278.809 69.2314 278.85 69.4371 278.85 69.6515C278.85 69.7896 278.835 69.9306 278.803 70.0745C278.495 71.505 278.004 73.2762 277.229 75.2265C275.454 79.6942 272.176 85.09 266.117 89.4519L265.582 89.822L265.468 89.9042H265.465C260.98 93.0529 255.202 96.0227 249.586 98.5693Z" fill="#FFDA1E"/>
<path d="M268.951 69.3254C268.953 69.3232 268.96 69.3188 268.962 69.3166L274.349 67.8157L268.951 69.3254Z" fill="#00550B"/>
<path d="M249.586 83.5536V80.0464C256.327 76.9652 263.482 73.2554 268.951 69.3253L274.35 67.8184L275.087 67.6098C275.695 67.9006 276.165 68.4117 276.347 69.0344C276.468 69.3575 276.497 69.7071 276.415 70.0743C276.365 70.3034 276.312 70.5413 276.25 70.7851C270.631 74.6682 260.88 80.7837 249.586 83.5536ZM275.684 67.4454C275.916 67.3808 276.142 67.3513 276.365 67.3513C276.142 67.3513 275.913 67.3806 275.684 67.4454Z" fill="#FF8C04"/>
<path d="M276.25 70.7851C276.312 70.5414 276.365 70.3034 276.415 70.0743C276.497 69.7072 276.468 69.3576 276.347 69.0345C276.165 68.4118 275.695 67.9007 275.087 67.6099L275.648 67.4542C275.659 67.452 275.672 67.4476 275.683 67.4454C275.913 67.3808 276.142 67.3513 276.365 67.3513C276.367 67.3513 276.367 67.3513 276.372 67.3513C276.38 67.3513 276.389 67.3513 276.398 67.3513C277.467 67.3623 278.407 68.0386 278.713 68.9609C278.721 68.9845 278.73 69.0109 278.736 69.0343C278.034 69.5366 277.202 70.1301 276.25 70.7851Z" fill="#FFA808"/>
<path d="M229.001 58.4544V88.3239C229.001 88.3239 238.761 85.0018 249.585 80.0406C256.315 76.9682 263.482 73.2496 268.945 69.3283C269.233 69.1227 269.518 68.917 269.788 68.7114C279.346 61.5709 282.61 52.0275 283.726 46.6435C284.119 44.7401 282.216 43.1157 280.257 43.6709L249.585 52.5122L229.001 58.4544Z" fill="#FFB612"/>
<path d="M268.96 69.3166C269.077 69.2345 269.192 69.1492 269.309 69.067C269.195 69.1491 269.08 69.2344 268.963 69.3166" fill="#B2B734"/>
<path d="M268.945 69.3282C268.952 69.326 268.954 69.3217 268.961 69.3173C268.958 69.3195 268.954 69.3239 268.952 69.326L268.945 69.3282Z" fill="#B2A917"/>
<path d="M249.586 80.0466V80.04C256.315 76.9675 263.482 73.2489 268.945 69.3276L268.952 69.3254C263.483 73.2555 256.327 76.9653 249.586 80.0466Z" fill="#FFC511"/>
<path d="M249.586 80.0407V78.4575C255.625 75.5554 261.711 72.2128 266.393 68.7144C275.951 61.5768 279.214 52.0247 280.325 46.6465C280.554 45.542 280.004 44.5492 279.132 44.0029L280.26 43.6769C280.527 43.6004 280.794 43.5651 281.056 43.5651C282.692 43.5651 284.061 44.9956 283.717 46.6464C282.607 52.0246 279.343 61.5767 269.785 68.7144C269.627 68.8318 269.468 68.9494 269.31 69.0669C269.192 69.149 269.078 69.2343 268.96 69.3166C268.953 69.3232 268.951 69.3254 268.945 69.3276C263.481 73.2489 256.315 76.9683 249.586 80.0407Z" fill="#FFDA1E"/>
<path d="M244.48 116.043C246.152 115.371 247.87 114.651 249.586 113.893C249.512 113.926 249.439 113.958 249.365 113.99C247.723 114.713 246.081 115.4 244.48 116.043ZM244.642 114.995C244.921 113.027 245.068 111.024 245.068 108.982V102.267C246.639 101.935 248.143 101.58 249.585 101.207V112.812C247.946 113.573 246.284 114.302 244.642 114.995Z" fill="#FF8201"/>
<path d="M244.481 116.043C244.539 115.694 244.592 115.344 244.642 114.995C246.284 114.301 247.946 113.573 249.586 112.812V113.893C247.87 114.651 246.152 115.371 244.481 116.043Z" fill="#FF9C02"/>
<path d="M245.068 102.267V100.561C246.542 99.9351 248.058 99.2742 249.585 98.581V101.207C248.143 101.58 246.639 101.935 245.068 102.267Z" fill="#FF6400"/>
<path d="M245.068 99.5296V84.4553C246.598 84.2203 248.105 83.9149 249.585 83.5536V97.4735C248.076 98.1873 246.56 98.8746 245.068 99.5296Z" fill="#FF8201"/>
<path d="M245.068 100.561V100.554C246.545 99.9284 248.058 99.2645 249.585 98.5684V98.5794C248.058 99.2726 246.542 99.935 245.068 100.561Z" fill="#FF8D01"/>
<path d="M245.068 100.555V99.5296C246.56 98.8746 248.076 98.1874 249.585 97.4736V98.5692C248.058 99.2653 246.545 99.9291 245.068 100.555Z" fill="#FF9C02"/>
<path d="M245.068 84.4555V82.0499C246.536 81.4184 248.049 80.7487 249.585 80.0466V83.5538C248.105 83.9151 246.598 84.2206 245.068 84.4555Z" fill="#FF6400"/>
<path d="M245.068 80.5578V53.8136L249.585 52.5123V78.4576C248.067 79.186 246.557 79.8881 245.068 80.5578Z" fill="#FF8201"/>
<path d="M245.068 82.0499V82.0477C246.536 81.4162 248.049 80.7465 249.585 80.0415V80.0482C248.049 80.7502 246.536 81.4184 245.068 82.0499Z" fill="#FF8D01"/>
<path d="M245.068 82.047V80.5578C246.557 79.8881 248.067 79.186 249.585 78.4576V80.0408C248.049 80.7457 246.536 81.4155 245.068 82.047Z" fill="#FF9C02"/>
<path d="M245.068 48.3178V108.982C245.068 140.352 210.243 163.166 195.281 171.505C192.675 172.971 189.726 173.732 186.759 173.732C183.793 173.732 180.844 172.971 178.238 171.505C173.171 168.682 165.808 164.197 158.3 158.246C143.664 146.703 128.449 129.714 128.449 108.982V48.3178C128.449 38.187 136.463 29.9361 146.305 29.9361H227.212C237.055 29.9361 245.068 38.187 245.068 48.3178Z" fill="#FFB612"/>
<path d="M187.356 173.723C187.761 173.703 188.166 173.664 188.569 173.62C186.228 173.373 183.934 172.672 181.86 171.511C176.258 168.389 167.878 163.243 159.583 156.381C162.271 152.358 164.697 147.984 166.88 143.36C174.461 149.491 181.857 153.868 185.076 155.659C185.379 155.826 185.699 155.943 186.028 156.014C186.028 156.014 186.028 156.014 186.03 156.014C186.271 156.067 186.515 156.093 186.759 156.093C187.008 156.093 187.255 156.067 187.502 156.011C187.555 156 187.61 155.988 187.663 155.973C187.96 156.052 188.265 156.093 188.568 156.093C189.147 156.093 189.725 155.947 190.251 155.659C198.067 151.297 230.36 131.884 230.36 108.583V51.2493C230.36 49.2225 228.768 47.5953 226.797 47.5953H186.38C186.738 39.8202 186.803 33.6548 186.794 29.9362H227.212C237.055 29.9362 245.068 38.1871 245.068 48.3179V108.982C245.068 123.275 237.839 135.794 228.551 145.975C226.043 148.724 223.388 151.3 220.682 153.7C211.415 161.91 201.584 167.993 195.28 171.505C192.851 172.874 190.12 173.627 187.356 173.723ZM208.017 44.373L216.303 37.7348V33.8076L220.265 29.9362H212.613H210.314L209.262 32.0804L210.314 37.8464L208.017 44.373Z" fill="#FF9C09"/>
<path d="M137.856 137.036C133.54 130.68 130.301 123.651 129.029 116.04C129.031 116.04 129.036 116.042 129.038 116.042C130.309 123.644 133.545 130.667 137.856 137.015L137.856 137.036ZM128.448 53.812H128.439V48.3104C128.439 42.1068 131.447 36.6111 136.041 33.2831C131.453 36.614 128.447 42.1127 128.447 48.3163L128.448 53.812Z" fill="#BA896C"/>
<path d="M186.759 173.738C183.793 173.738 180.846 172.968 178.238 171.511C171.932 167.995 162.104 161.912 152.836 153.706V153.686C154.647 155.287 156.478 156.808 158.3 158.247C165.807 164.198 173.171 168.683 178.238 171.506C180.844 172.972 183.793 173.733 186.759 173.733V173.738ZM144.966 145.984C143.765 144.67 142.598 143.312 141.477 141.919V141.899C142.598 143.295 143.765 144.65 144.966 145.966V145.984Z" fill="#EF943F"/>
<path d="M141.477 141.918C140.206 140.338 138.994 138.711 137.856 137.036V137.016C138.994 138.691 140.206 140.321 141.477 141.898V141.918Z" fill="#EFA25D"/>
<path d="M186.759 173.738V173.731C186.959 173.731 187.159 173.727 187.356 173.723C187.159 173.731 186.959 173.738 186.759 173.738Z" fill="#E68C2E"/>
<path d="M152.836 153.706C150.13 151.309 147.473 148.73 144.966 145.983V145.963C147.473 148.708 150.132 151.288 152.836 153.685V153.706Z" fill="#EFAB16"/>
<path d="M129.038 116.043C129.034 116.043 129.032 116.041 129.03 116.041C129.032 116.041 129.036 116.041 129.038 116.043ZM128.875 114.995C128.873 114.992 128.869 114.992 128.867 114.988C128.588 113.023 128.441 111.017 128.441 108.978V102.267C128.443 102.267 128.445 102.267 128.45 102.267V108.981C128.45 111.023 128.597 113.027 128.875 114.995Z" fill="#FFC00E"/>
<path d="M129.038 116.043C129.036 116.041 129.032 116.041 129.029 116.041C128.971 115.689 128.917 115.342 128.866 114.99C128.871 114.992 128.873 114.992 128.875 114.996C128.926 115.346 128.98 115.694 129.038 116.043Z" fill="#FFCE0F"/>
<path d="M128.449 102.267C128.444 102.267 128.442 102.267 128.44 102.267V100.558C128.442 100.558 128.446 100.56 128.449 100.56V102.267Z" fill="#FFB10D"/>
<path d="M128.449 99.5295C128.446 99.5295 128.442 99.5274 128.44 99.5274V84.4561C128.442 84.4561 128.446 84.4561 128.449 84.4561V99.5295Z" fill="#FFC00E"/>
<path d="M128.448 100.561L128.44 100.558V100.552C128.44 100.552 128.444 100.554 128.448 100.554V100.561Z" fill="#FFC60E"/>
<path d="M128.449 100.555C128.444 100.555 128.442 100.553 128.44 100.553V99.5276C128.442 99.5276 128.446 99.5299 128.449 99.5299V100.555Z" fill="#FFCE0F"/>
<path d="M128.449 84.4554C128.446 84.4554 128.442 84.4554 128.44 84.4554V82.0439C128.442 82.0461 128.444 82.0461 128.449 82.0505V84.4554Z" fill="#FFB10D"/>
<path d="M128.449 80.5578C128.444 80.5556 128.442 80.5555 128.44 80.5511V53.8128H128.449V80.5578Z" fill="#FFC00E"/>
<path d="M128.448 82.0499C128.444 82.0477 128.442 82.0477 128.44 82.0433C128.44 82.0433 128.444 82.0455 128.448 82.0455V82.0477" fill="#FFC60E"/>
<path d="M128.449 82.0468C128.444 82.0468 128.442 82.0468 128.44 82.0446V80.5524C128.442 80.5546 128.444 80.5547 128.449 80.5591V82.0468Z" fill="#FFCE0F"/>
<path d="M158.3 158.246C156.478 156.807 154.647 155.286 152.836 153.685C150.132 151.288 147.474 148.709 144.966 145.963C143.765 144.647 142.598 143.292 141.477 141.897C140.206 140.32 138.994 138.69 137.856 137.016C133.545 130.668 130.31 123.645 129.038 116.043C128.98 115.694 128.926 115.344 128.875 114.995C128.597 113.027 128.449 111.024 128.449 108.982V102.267V100.561V100.554V99.529V84.4548V82.0491V82.0469V80.5577V53.8135V48.3178C128.449 42.1142 131.454 36.6156 136.042 33.2847C138.949 31.1816 142.493 29.942 146.311 29.942H149.932C140.077 29.942 132.061 38.1841 132.061 48.312V108.979C132.061 120.587 136.828 131.024 143.592 139.988L143.479 140.197L143.65 140.065C148.319 146.233 153.932 151.705 159.583 156.381C159.16 157.01 158.735 157.632 158.3 158.246Z" fill="#FFDA1E"/>
<path d="M186.76 173.732C183.793 173.732 180.844 172.971 178.238 171.505C173.172 168.682 165.808 164.197 158.3 158.246C158.735 157.632 159.161 157.01 159.584 156.381C167.878 163.243 176.259 168.389 181.86 171.511C183.934 172.672 186.228 173.373 188.569 173.62C188.166 173.664 187.761 173.702 187.356 173.723C187.159 173.73 186.959 173.732 186.76 173.732Z" fill="#FFCE15"/>
<path d="M130.875 15.8517C130.875 23.5005 131.417 29.6982 123.768 29.6982C116.121 29.6982 109.922 23.5005 109.922 15.8517C109.922 8.20298 116.121 2.00525 123.768 2.00525C131.417 2.00525 130.875 8.20298 130.875 15.8517Z" fill="#FFB612"/>
<path d="M123.387 29.6938C123.378 29.6938 123.367 29.6938 123.358 29.6938C123.367 29.6938 123.376 29.6938 123.387 29.6938ZM123.352 29.6938C115.897 29.4735 109.922 23.3609 109.922 15.8532C109.922 8.20445 116.121 2.00671 123.769 2.00671C124.103 2.00671 124.402 2.03316 124.705 2.05673C117.521 2.56487 111.846 8.53937 111.846 15.8533C111.846 17.7185 112.216 19.4955 112.884 21.1169C111.993 20.6352 111.16 20.0624 110.4 19.4074C111.936 25.1998 117.12 29.5087 123.352 29.6938Z" fill="#FFDA1E"/>
<path d="M130.882 17.6082C130.88 17.0325 130.874 16.4451 130.874 15.8517C130.874 16.4451 130.878 17.0325 130.882 17.6082Z" fill="#CA6200"/>
<path d="M123.399 29.696C123.394 29.6938 123.39 29.6938 123.386 29.6938C123.388 29.6938 123.394 29.6938 123.399 29.696Z" fill="#005F16"/>
<path d="M123.768 29.6982C124.102 29.6982 124.402 29.6718 124.705 29.6482C119.352 29.2693 114.837 25.8562 112.883 21.1153C114.83 22.164 117.056 22.7631 119.424 22.7631C127.072 22.7631 126.531 16.5625 126.531 8.91666C126.531 6.53451 126.583 4.29627 126.424 2.3371C130.735 3.55607 130.899 8.06485 130.883 13.7015C130.881 14.4035 130.874 15.1203 130.874 15.8517C130.874 16.445 130.877 17.0324 130.881 17.6082C130.894 20.9215 130.882 23.8735 130.054 26.0294C129.178 28.3058 127.392 29.6982 123.768 29.6982Z" fill="#FF9C09"/>
<path d="M123.768 29.6982C123.755 29.6982 123.741 29.6982 123.729 29.6982C123.722 29.6982 123.718 29.6982 123.713 29.6982C123.704 29.6982 123.695 29.6982 123.686 29.6982C123.679 29.6982 123.675 29.6982 123.668 29.6982C123.659 29.6982 123.653 29.6982 123.643 29.6982C123.638 29.6982 123.632 29.6982 123.627 29.6982C123.618 29.6982 123.61 29.6982 123.6 29.6982C123.595 29.6982 123.589 29.6982 123.584 29.6982C123.575 29.6982 123.567 29.6982 123.558 29.6982C123.551 29.6982 123.545 29.6982 123.538 29.6982C123.527 29.696 123.515 29.696 123.504 29.696C123.497 29.696 123.491 29.696 123.484 29.696C123.477 29.696 123.471 29.696 123.462 29.696C123.455 29.696 123.447 29.696 123.439 29.696C123.435 29.696 123.428 29.696 123.424 29.696C123.415 29.696 123.406 29.696 123.397 29.696C123.393 29.6938 123.389 29.6937 123.384 29.6937C123.373 29.6937 123.364 29.6937 123.355 29.6937H123.349C117.116 29.5087 111.932 25.1997 110.396 19.4073C111.157 20.0624 111.99 20.6351 112.88 21.1169C114.834 25.8577 119.349 29.2708 124.702 29.6497C124.399 29.6733 124.099 29.6997 123.765 29.6997" fill="#FFBB10"/>
<path d="M117.575 10.5264C117.003 10.5264 116.548 10.353 116.315 9.99177C115.773 9.15171 116.645 7.62431 118.263 6.58155C119.187 5.98529 120.154 5.67395 120.915 5.67395C121.486 5.67395 121.941 5.8502 122.173 6.20856C122.715 7.04862 121.843 8.57601 120.225 9.62167C119.303 10.218 118.335 10.5264 117.575 10.5264Z" fill="#FFDA1E"/>
<path d="M242.642 15.8517C242.642 23.5005 242.101 29.6982 249.75 29.6982C257.396 29.6982 263.596 23.5005 263.596 15.8517C263.596 8.20298 257.396 2.00525 249.75 2.00525C242.101 2.00525 242.642 8.20298 242.642 15.8517Z" fill="#FFB612"/>
<path d="M250.167 29.6922C256.4 29.5072 261.581 25.1982 263.121 19.4058C262.357 20.0608 261.526 20.6336 260.636 21.1153C261.302 19.494 261.673 17.7169 261.673 15.8517C261.673 8.53778 255.998 2.56329 248.813 2.05515C249.116 2.03157 249.415 2.00513 249.75 2.00513C257.396 2.00513 263.596 8.20286 263.596 15.8516C263.596 23.3594 257.622 29.4719 250.167 29.6922Z" fill="#FFDA1E"/>
<path d="M249.75 29.6981C246.125 29.6981 244.339 28.3058 243.464 26.0294C242.636 23.8735 242.621 20.9215 242.636 17.6082C242.638 17.3056 242.638 17.0031 242.642 16.6976C242.642 16.4156 242.642 16.1366 242.642 15.8517C242.642 15.8362 242.642 15.8223 242.642 15.8105C242.642 15.8082 242.642 15.8016 242.642 15.7994C242.64 9.20518 242.26 3.70655 247.095 2.33777C246.937 4.29695 246.987 6.53518 246.987 8.91733C246.987 16.5631 246.446 22.7638 254.095 22.7638C256.462 22.7638 258.689 22.1646 260.636 21.116C258.68 25.8568 254.165 29.2699 248.814 29.6489C249.116 29.6724 249.415 29.6981 249.75 29.6981Z" fill="#FF9C09"/>
<path d="M249.85 29.6982C249.859 29.6982 249.868 29.6982 249.874 29.6982C249.865 29.6982 249.858 29.6982 249.85 29.6982ZM249.932 29.6982C249.941 29.6982 249.95 29.6982 249.959 29.6982C249.952 29.6982 249.941 29.6982 249.932 29.6982ZM250.161 29.6938C250.161 29.6938 250.164 29.6938 250.168 29.6938C250.166 29.6938 250.161 29.6938 250.161 29.6938Z" fill="#005F16"/>
<path d="M249.75 29.6981C249.415 29.6981 249.116 29.6717 248.813 29.6481C254.165 29.2692 258.679 25.8561 260.636 21.1153C261.526 20.6336 262.357 20.0608 263.121 19.4058C261.581 25.1981 256.4 29.5072 250.167 29.6922C250.165 29.6922 250.16 29.6922 250.16 29.6922C250.149 29.6922 250.141 29.6922 250.131 29.6922C250.129 29.6922 250.122 29.6922 250.12 29.6944C250.111 29.6944 250.103 29.6944 250.094 29.6944C250.087 29.6944 250.083 29.6944 250.076 29.6944C250.069 29.6944 250.061 29.6944 250.056 29.6944C250.047 29.6944 250.041 29.6944 250.033 29.6944C250.026 29.6944 250.022 29.6944 250.015 29.6944C250.004 29.6944 249.992 29.6944 249.98 29.6966C249.973 29.6966 249.969 29.6966 249.96 29.6966C249.951 29.6966 249.942 29.6966 249.934 29.6966C249.931 29.6966 249.925 29.6966 249.918 29.6966C249.909 29.6966 249.901 29.6966 249.892 29.6966C249.885 29.6966 249.881 29.6966 249.874 29.6966C249.867 29.6966 249.859 29.6966 249.851 29.6966C249.844 29.6966 249.84 29.6966 249.833 29.6966C249.824 29.6966 249.815 29.6966 249.806 29.6966C249.8 29.6966 249.798 29.6966 249.791 29.6966C249.776 29.6966 249.762 29.6981 249.75 29.6981Z" fill="#FFBB10"/>
<path d="M255.942 10.5264C255.184 10.5264 254.215 10.218 253.292 9.62167C251.674 8.57601 250.802 7.04862 251.345 6.20856C251.577 5.8502 252.032 5.67395 252.605 5.67395C253.363 5.67395 254.332 5.98529 255.255 6.58155C256.873 7.62431 257.745 9.15171 257.202 9.99177C256.97 10.3531 256.515 10.5264 255.942 10.5264Z" fill="#FFDA1E"/>
<path d="M220.265 29.9361L216.303 33.8074V37.7347L208.017 44.3729L211.944 37.8785L211.218 31.9981L212.614 29.9361H220.265Z" fill="#CA7300"/>
<path d="M155.335 122.482L149.259 129.543L147.787 134.484L143.479 140.197L151.101 134.243L152.56 130.777L155.643 127.978L155.335 122.482Z" fill="#CA7300"/>
<path d="M143.615 140.018C143.606 140.007 143.599 139.998 143.592 139.988L146.73 134.149L147.711 128.874L150.414 125.61C150.725 126.107 151.045 126.597 151.375 127.085L149.259 129.543L147.787 134.484L143.615 140.018Z" fill="#FFDA1E"/>
<path d="M143.479 140.197L143.592 139.988C143.601 139.997 143.607 140.006 143.615 140.017L143.479 140.197Z" fill="#FFEC29"/>
<path d="M143.479 140.197L143.615 140.018L147.787 134.484L143.479 140.197Z" fill="#EFB90D"/>
<path d="M208.017 44.3729L210.314 37.8463L209.262 32.0803L210.314 29.9361H212.614L211.218 31.9981L211.944 37.8785L208.017 44.3729Z" fill="#FFCE15"/>
<path d="M188.569 156.093C188.266 156.093 187.961 156.052 187.664 155.973C187.932 155.9 188.193 155.796 188.443 155.659C196.259 151.297 228.552 131.884 228.552 108.582V51.2492C228.552 49.2224 226.96 47.5952 224.989 47.5952H186.381H226.798C228.769 47.5952 230.361 49.2224 230.361 51.2492V108.582C230.361 131.884 198.068 151.297 190.252 155.659C189.726 155.947 189.148 156.093 188.569 156.093Z" fill="#FFCE15"/>
<path d="M228.551 51.2492V108.583C228.551 131.884 196.258 151.297 188.442 155.659C187.391 156.237 186.125 156.237 185.076 155.659C181.857 153.868 174.458 149.488 166.877 143.354C156.093 134.598 144.966 122.262 144.966 108.583V51.2492C144.966 49.2224 146.559 47.5952 148.531 47.5952H224.988C226.959 47.5952 228.551 49.2224 228.551 51.2492Z" fill="#CA7300"/>
<path d="M186.028 156.014C185.699 155.943 185.379 155.826 185.076 155.659C181.857 153.867 174.458 149.488 166.877 143.354L166.879 143.347C174.451 149.489 181.844 153.852 185.07 155.652C185.375 155.819 185.696 155.943 186.028 156.014Z" fill="#BD6000"/>
<path d="M187.503 156.011C187.829 155.941 188.146 155.82 188.449 155.653C189.221 155.221 190.243 154.634 191.442 153.92C186.152 150.759 177.266 144.937 169.515 137.383C172.487 130.183 174.949 122.511 176.99 114.689L185.69 110.116C186.025 109.94 186.392 109.851 186.76 109.851C187.127 109.851 187.494 109.94 187.829 110.116L201.452 117.277C201.804 117.462 202.169 117.547 202.524 117.547C203.866 117.547 205.049 116.337 204.794 114.851L202.194 99.6824C202.065 98.9334 202.312 98.1727 202.855 97.644L213.876 86.9022C215.242 85.5686 214.487 83.2482 212.598 82.9721L197.371 80.7603H197.365C196.616 80.6517 195.967 80.1817 195.632 79.5002L188.82 65.7007C188.397 64.8459 187.578 64.4171 186.755 64.4171C186.197 64.4171 185.636 64.617 185.204 65.0134C185.768 58.6571 186.138 52.7707 186.379 47.5952H224.987C226.958 47.5952 228.55 49.2224 228.55 51.2492V108.583C228.55 131.884 196.257 151.297 188.441 155.659C188.192 155.796 187.93 155.899 187.663 155.973C187.61 155.988 187.556 155.999 187.503 156.011Z" fill="#BD6000"/>
<path d="M186.759 156.094C187.009 156.094 187.256 156.064 187.503 156.011C187.256 156.067 187.009 156.094 186.759 156.094Z" fill="#E47104"/>
<path d="M145.7 49.0226C146.35 48.1502 147.374 47.5862 148.526 47.5862H157.895C157.818 47.5862 157.742 47.5884 157.665 47.595H150.341H148.531C147.376 47.595 146.351 48.1532 145.7 49.0226Z" fill="#E48409"/>
<path d="M166.88 143.348C156.105 134.607 144.97 122.267 144.97 108.588V51.2433C144.97 50.4091 145.242 49.6395 145.7 49.0227C146.351 48.1533 147.376 47.5952 148.531 47.5952H150.341H157.665C155.808 47.7157 154.337 49.3017 154.337 51.2433V108.588C154.337 119.395 161.284 129.364 169.515 137.383C168.677 139.412 167.799 141.401 166.88 143.348Z" fill="#B55300"/>
<path d="M186.759 156.093C186.516 156.093 186.272 156.067 186.031 156.014C185.699 155.943 185.377 155.82 185.071 155.653C181.846 153.852 174.453 149.49 166.88 143.348C167.8 141.401 168.678 139.412 169.515 137.383C177.267 144.937 186.152 150.759 191.442 153.92C190.244 154.634 189.222 155.221 188.449 155.653C188.147 155.82 187.829 155.941 187.503 156.011C187.257 156.063 187.009 156.093 186.759 156.093Z" fill="#A94500"/>
<path d="M188.821 65.7006L195.633 79.5001C195.968 80.1815 196.617 80.6515 197.366 80.7602L212.596 82.9719C214.485 83.2481 215.239 85.5685 213.874 86.9021L202.853 97.6439C202.309 98.1726 202.063 98.9333 202.189 99.6823L204.791 114.851C205.115 116.73 203.141 118.167 201.452 117.277L187.829 110.116C187.159 109.763 186.357 109.763 185.684 110.116L172.064 117.277C170.375 118.167 168.401 116.73 168.721 114.851L171.324 99.6823C171.453 98.9333 171.203 98.1726 170.663 97.6439L159.642 86.9021C158.276 85.5685 159.028 83.2481 160.917 82.9719L176.147 80.7602C176.899 80.6516 177.545 80.1815 177.88 79.5001L184.691 65.7006C185.537 63.9881 187.978 63.9881 188.821 65.7006Z" fill="#FFB612"/>
<path d="M170.992 117.547C171.242 117.547 171.497 117.506 171.75 117.415C171.494 117.506 171.242 117.547 170.992 117.547Z" fill="#EFB90D"/>
<path d="M170.992 117.547C169.649 117.547 168.469 116.337 168.721 114.851L171.324 99.6826C171.347 99.5533 171.356 99.4242 171.356 99.2979C171.358 98.6811 171.112 98.0818 170.663 97.6442L159.642 86.9024C158.773 86.0564 158.761 84.811 159.351 83.9445C159.689 83.4481 160.227 83.0751 160.917 82.9722L176.147 80.7605C176.158 80.7583 176.173 80.7583 176.185 80.7539C176.67 80.6746 177.107 80.4455 177.445 80.1077C177.621 79.9343 177.768 79.7287 177.88 79.4996L184.691 65.7002C185.114 64.8454 185.934 64.4195 186.753 64.4195C187.153 64.4195 187.555 64.5224 187.911 64.725C187.538 64.9393 187.217 65.2625 187 65.7002L180.188 79.4996C179.854 80.1782 179.205 80.651 178.455 80.7597L163.226 82.9715C161.337 83.2476 160.582 85.5681 161.948 86.9016L172.969 97.6434C173.512 98.1721 173.759 98.9329 173.632 99.6819L171.03 114.85C170.942 115.37 171.03 115.852 171.239 116.257L170.372 117.438C170.584 117.5 170.807 117.535 171.033 117.535C171.268 117.535 171.512 117.497 171.75 117.414C171.497 117.505 171.241 117.547 170.992 117.547Z" fill="#FFDA1E"/>
<path d="M202.527 117.547H202.525C203.867 117.545 205.048 116.337 204.792 114.851L202.19 99.6824C202.064 98.9334 202.31 98.1727 202.854 97.644L213.874 86.9022C215.24 85.5687 214.485 83.2482 212.597 82.9721L197.37 80.7603H197.372L212.597 82.9721C214.485 83.2482 215.24 85.5687 213.874 86.9022L202.856 97.644C202.313 98.1727 202.066 98.9334 202.195 99.6824L204.795 114.851C205.05 116.337 203.869 117.547 202.527 117.547Z" fill="#BD5200"/>
<path d="M171.753 117.415C171.838 117.383 171.926 117.347 172.011 117.303C172.013 117.303 172.018 117.301 172.02 117.301C172.035 117.292 172.049 117.286 172.064 117.277L176.99 114.687L172.067 117.277C171.964 117.332 171.858 117.377 171.753 117.415Z" fill="#CA6200"/>
<path d="M176.99 114.689L185.684 110.117C186.022 109.94 186.389 109.852 186.756 109.852C186.389 109.852 186.024 109.94 185.689 110.117L176.99 114.689Z" fill="#BD5200"/>
<path d="M202.524 117.547C202.172 117.547 201.807 117.462 201.455 117.277L187.832 110.116C187.497 109.939 187.13 109.851 186.762 109.851H186.758C186.391 109.851 186.024 109.939 185.686 110.116L176.991 114.686L172.066 117.277L172.171 117.221C171.778 116.998 171.449 116.663 171.24 116.258L197.373 80.7603L212.597 82.9721C214.486 83.2482 215.241 85.5687 213.875 86.9022L202.854 97.644C202.311 98.1727 202.064 98.9335 202.191 99.6825L204.793 114.851C205.049 116.337 203.866 117.544 202.524 117.547Z" fill="#FF9C09"/>
<path d="M171.75 117.415C171.838 117.383 171.923 117.347 172.011 117.303C171.926 117.347 171.838 117.383 171.753 117.415C171.751 117.415 171.75 117.415 171.75 117.415Z" fill="#EF9E07"/>
<path d="M171.033 117.535C170.807 117.535 170.584 117.5 170.372 117.438L171.239 116.258C171.447 116.663 171.776 116.998 172.17 117.221L172.064 117.277C172.049 117.286 172.035 117.292 172.02 117.301C172.018 117.301 172.013 117.303 172.011 117.303C171.923 117.347 171.838 117.382 171.75 117.414C171.512 117.497 171.268 117.535 171.033 117.535Z" fill="#FFBB10"/>
<path d="M175.771 87.9069C174.291 87.9069 173.13 87.387 172.887 86.4882C172.543 85.2222 174.138 83.686 176.455 83.0574C177.125 82.8752 177.78 82.7872 178.382 82.7872C179.866 82.7872 181.023 83.31 181.27 84.2088C181.613 85.4748 180.016 87.011 177.701 87.6396C177.031 87.8218 176.376 87.9069 175.771 87.9069Z" fill="#FFDA1E"/>
</svg>
