<?xml version="1.0" encoding="utf-8"?>
<!-- Generator: Adobe Illustrator 24.1.0, SVG Export Plug-In . SVG Version: 6.00 Build 0)  -->
<svg version="1.1" id="Capa_1" xmlns="http://www.w3.org/2000/svg" xmlns:xlink="http://www.w3.org/1999/xlink" x="0px" y="0px"
	 viewBox="0 0 224.07 224.07" style="enable-background:new 0 0 224.07 224.07;" xml:space="preserve">
<g>
	<g>
		<g>
			<path d="M-384.33-141.08h-14.94v-14.94c0-2.06-1.67-3.73-3.73-3.73h-14.94c-2.06,0-3.73,1.67-3.73,3.73v14.94h-14.94
				c-2.06,0-3.73,1.67-3.73,3.73v14.94c0,2.06,1.67,3.73,3.73,3.73h14.94v14.94c0,2.06,1.67,3.73,3.73,3.73H-403
				c2.06,0,3.73-1.67,3.73-3.73v-14.94h14.94c2.06,0,3.73-1.67,3.73-3.73v-14.94C-380.6-139.41-382.27-141.08-384.33-141.08z
				 M-388.07-126.14H-403c-2.06,0-3.73,1.67-3.73,3.73v14.94h-7.47v-14.94c0-2.06-1.67-3.73-3.73-3.73h-14.94v-7.47h14.94
				c2.06,0,3.73-1.67,3.73-3.73v-14.94h7.47v14.94c0,2.06,1.67,3.73,3.73,3.73h14.94V-126.14z"/>
		</g>
	</g>
	<g>
		<g>
			<path d="M-246.55-136.7c-2.86-25.73-27.03-49.8-52.78-52.55c-2.19-0.24-4.39-0.37-6.59-0.37h-41.07v-14.94h-7.47v-7.47
				c0-8.25-6.69-14.94-14.94-14.94h-18.67c-4.12,0-7.47-3.34-7.47-7.47s3.34-7.47,7.47-7.47h59.74c8.25,0,14.94-6.69,14.94-14.94
				c0-8.25-6.69-14.94-14.94-14.94h-18.67c-4.12,0-7.47-3.34-7.47-7.47v-14.94h-7.47v14.94c0,8.25,6.69,14.94,14.94,14.94h18.67
				c4.12,0,7.47,3.34,7.47,7.47c0,4.12-3.34,7.47-7.47,7.47h-59.74c-8.25,0-14.94,6.69-14.94,14.94s6.69,14.94,14.94,14.94h18.67
				c4.12,0,7.47,3.34,7.47,7.47v7.47h-7.47v14.94h-41.07c-2.2,0.01-4.4,0.13-6.59,0.37c-25.76,2.76-49.92,26.84-52.77,52.57
				c-3.75,32.78,19.78,62.4,52.56,66.15c13.35,1.53,26.82-1.49,38.25-8.56c4.92-3.22,10.54-5.21,16.39-5.79
				c2.89-0.23,5.79-0.24,8.68-0.03c5.94,0.57,11.65,2.58,16.65,5.85c28.07,17.35,64.88,8.65,82.23-19.41
				C-248.03-109.9-245.02-123.36-246.55-136.7z M-361.93-197.09h7.47v7.47h-7.47V-197.09z M-266.96-95.02
				c-16.88,18.88-44.88,22.93-66.42,9.61c-6.02-3.92-12.9-6.31-20.05-6.96c-1.58-0.11-3.17-0.17-4.77-0.17
				c-1.7,0-3.36,0.07-5.03,0.2c-7.04,0.67-13.81,3.04-19.75,6.89c-24.55,15.19-56.77,7.6-71.96-16.95
				c-6.18-9.99-8.82-21.78-7.48-33.46c2.46-22.11,24.02-43.59,46.15-45.97c1.92-0.22,3.86-0.33,5.79-0.33h104.55
				c1.93,0,3.87,0.1,5.79,0.31c22.13,2.38,43.69,23.86,46.15,45.97C-252.22-121.02-256.95-106.14-266.96-95.02z"/>
		</g>
	</g>
	<g>
		<g>
			<path d="M-305.92-167.22c-8.25,0-14.94,6.69-14.94,14.94s6.69,14.94,14.94,14.94c8.25,0,14.94-6.69,14.94-14.94
				S-297.67-167.22-305.92-167.22z M-305.92-144.81c-4.12,0-7.47-3.34-7.47-7.47s3.34-7.47,7.47-7.47c4.12,0,7.47,3.34,7.47,7.47
				S-301.8-144.81-305.92-144.81z"/>
		</g>
	</g>
	<g>
		<g>
			<path d="M-305.92-122.41c-8.25,0-14.94,6.69-14.94,14.94s6.69,14.94,14.94,14.94c8.25,0,14.94-6.69,14.94-14.94
				S-297.67-122.41-305.92-122.41z M-305.92-100.01c-4.12,0-7.47-3.34-7.47-7.47s3.34-7.47,7.47-7.47c4.12,0,7.47,3.34,7.47,7.47
				S-301.8-100.01-305.92-100.01z"/>
		</g>
	</g>
	<g>
		<g>
			<path d="M-332.06-144.81c-8.25,0-14.94,6.69-14.94,14.94s6.69,14.94,14.94,14.94c8.25,0,14.94-6.69,14.94-14.94
				S-323.81-144.81-332.06-144.81z M-332.06-122.41c-4.12,0-7.47-3.34-7.47-7.47s3.34-7.47,7.47-7.47c4.12,0,7.47,3.34,7.47,7.47
				S-327.93-122.41-332.06-122.41z"/>
		</g>
	</g>
	<g>
		<g>
			<path d="M-279.78-144.81c-8.25,0-14.94,6.69-14.94,14.94s6.69,14.94,14.94,14.94c8.25,0,14.94-6.69,14.94-14.94
				S-271.54-144.81-279.78-144.81z M-279.78-122.41c-4.12,0-7.47-3.34-7.47-7.47s3.34-7.47,7.47-7.47c4.12,0,7.47,3.34,7.47,7.47
				S-275.66-122.41-279.78-122.41z"/>
		</g>
	</g>
</g>
<g>
	<g>
		<g>
			<path d="M-17.93-304.9H-99.9c-2.06,0-3.73,1.67-3.73,3.73V-181h7.45v-116.45h74.52v216.12h-61.02v7.45h64.74
				c2.06,0,3.73-1.67,3.73-3.73v-223.57C-14.2-303.23-15.87-304.9-17.93-304.9z"/>
		</g>
	</g>
	<g>
		<g>
			<path d="M-66.37-304.9c-2.06,0-3.73,1.67-3.73,3.73v85.7c0,2.06,1.67,3.73,3.73,3.73c2.06,0,3.73-1.67,3.73-3.73v-85.7
				C-62.64-303.23-64.31-304.9-66.37-304.9z"/>
		</g>
	</g>
	<g>
		<g>
			<path d="M-66.37-152.12c-2.06,0-3.73,1.67-3.73,3.73v70.8c0,2.06,1.67,3.73,3.73,3.73c2.06,0,3.73-1.67,3.73-3.73v-70.8
				C-62.64-150.45-64.31-152.12-66.37-152.12z"/>
		</g>
	</g>
	<g>
		<g>
			<path d="M-66.37-196.84c-2.06,0-3.73,1.67-3.73,3.73v22.36c0,2.06,1.67,3.73,3.73,3.73c2.06,0,3.73-1.67,3.73-3.73v-22.36
				C-62.64-195.17-64.31-196.84-66.37-196.84z"/>
		</g>
	</g>
	<g>
		<g>
			<path d="M-77.8-131.18c-0.78-2.9-1.53-5.73-2.26-8.48c-6.75-25.47-11.62-43.87-24.53-47.69c-5.1-1.51-15.7-4.65-27.15,2.14
				c-9,5.34-39.13,5.33-48.12,0c-11.45-6.79-22.05-3.65-27.17-2.13c-12.88,3.81-17.76,22.22-24.5,47.68
				c-0.73,2.75-1.48,5.58-2.26,8.48c-6,22.21-5.97,43.32,0.08,53.79c2.14,3.72,4.96,6.06,8.37,6.97c0.7,0.19,1.4,0.28,2.11,0.28
				c8.12,0,16.33-11.89,24.29-23.41c3.4-4.92,6.91-10.01,8.81-11.49c1.32-1.02,6.38-3.38,24.67-3.13l22.78-0.02
				c15.59,0.07,20.04,2.22,21.23,3.15h0c1.9,1.47,5.41,6.56,8.81,11.49c8.65,12.53,17.6,25.51,26.4,23.14
				c3.41-0.9,6.23-3.25,8.37-6.97C-71.83-87.85-71.8-108.97-77.8-131.18z M-84.33-81.11c-1.12,1.94-2.41,3.11-3.83,3.49
				c-3.74,0.94-13.98-13.84-18.35-20.17c-4.23-6.12-7.57-10.96-10.38-13.14c-2.56-1.98-8.01-4.63-25.78-4.71l-22.75,0.02
				c-15.37-0.22-24.95,1.33-29.28,4.69c-2.81,2.18-6.15,7.02-10.38,13.14c-4.37,6.33-14.59,21.17-18.35,20.17
				c-1.42-0.38-2.71-1.55-3.83-3.49c-4.18-7.25-5.6-24.94,0.66-48.12c0.79-2.91,1.54-5.75,2.27-8.51
				c5.89-22.25,10.55-39.82,19.44-42.45c2.37-0.7,5.83-1.73,9.87-1.73c3.47,0,7.37,0.76,11.36,3.12c11.2,6.64,44.53,6.64,55.73,0
				c8.64-5.12,16.83-2.7,21.25-1.39c8.87,2.63,13.52,20.2,19.42,42.45c0.73,2.76,1.48,5.6,2.27,8.51
				C-78.73-106.05-80.15-88.36-84.33-81.11z"/>
		</g>
	</g>
	<g>
		<g>
			<rect x="-196.79" y="-163.3" width="7.45" height="29.81"/>
		</g>
	</g>
	<g>
		<g>
			<path d="M-120.4-163.3c-9.25,0-16.77,7.52-16.77,16.77s7.52,16.77,16.77,16.77s16.77-7.52,16.77-16.77
				C-103.63-155.78-111.15-163.3-120.4-163.3z M-120.4-137.22c-5.14,0-9.32-4.18-9.32-9.32s4.18-9.32,9.32-9.32s9.32,4.18,9.32,9.32
				S-115.26-137.22-120.4-137.22z"/>
		</g>
	</g>
	<g>
		<g>
			<path d="M-38.42-286.27c-7.19,0-13.04,5.85-13.04,13.04c0,7.19,5.85,13.04,13.04,13.04c7.19,0,13.04-5.85,13.04-13.04
				C-25.38-280.41-31.23-286.27-38.42-286.27z M-38.42-267.64c-3.08,0-5.59-2.51-5.59-5.59c0-3.08,2.51-5.59,5.59-5.59
				c3.08,0,5.59,2.51,5.59,5.59C-32.83-270.14-35.34-267.64-38.42-267.64z"/>
		</g>
	</g>
	<g>
		<g>
			<path d="M-38.42-252.73c-7.19,0-13.04,5.85-13.04,13.04s5.85,13.04,13.04,13.04c7.19,0,13.04-5.85,13.04-13.04
				C-25.38-246.88-31.23-252.73-38.42-252.73z M-38.42-234.1c-3.08,0-5.59-2.51-5.59-5.59c0-3.08,2.51-5.59,5.59-5.59
				c3.08,0,5.59,2.51,5.59,5.59C-32.83-236.61-35.34-234.1-38.42-234.1z"/>
		</g>
	</g>
	<g>
		<g>
			<path d="M-66.37-219.2c-8.22,0-14.9,6.69-14.9,14.9s6.69,14.9,14.9,14.9c8.22,0,14.9-6.69,14.9-14.9S-58.15-219.2-66.37-219.2z
				 M-66.37-196.84c-4.11,0-7.45-3.34-7.45-7.45c0-4.11,3.34-7.45,7.45-7.45s7.45,3.34,7.45,7.45
				C-58.92-200.18-62.26-196.84-66.37-196.84z"/>
		</g>
	</g>
	<g>
		<g>
			<path d="M-66.37-174.48c-8.22,0-14.9,6.69-14.9,14.9c0,8.22,6.69,14.9,14.9,14.9c8.22,0,14.9-6.69,14.9-14.9
				C-51.46-167.79-58.15-174.48-66.37-174.48z M-66.37-152.12c-4.11,0-7.45-3.34-7.45-7.45s3.34-7.45,7.45-7.45s7.45,3.34,7.45,7.45
				C-58.92-155.47-62.26-152.12-66.37-152.12z"/>
		</g>
	</g>
	<g>
		<g>
			<rect x="-207.97" y="-152.12" width="29.81" height="7.45"/>
		</g>
	</g>
</g>
<g>
	<path d="M555.31-224.55H371.9c-11.22,0.01-20.31,9.11-20.33,20.33v74.69c0.01,11.22,9.11,20.31,20.33,20.33h183.42
		c11.22-0.01,20.31-9.11,20.33-20.33v-74.69C575.63-215.44,566.53-224.54,555.31-224.55z M358.19-129.53v-74.69
		c0.01-7.57,6.14-13.7,13.71-13.71h23.16v102.11H371.9C364.33-115.83,358.19-121.97,358.19-129.53z M401.68-115.82v-102.11h123.85
		v102.11H401.68z M569.02-129.53c-0.01,7.57-6.14,13.7-13.71,13.71h-23.16v-102.11h23.16c7.57,0.01,13.7,6.14,13.71,13.71V-129.53z"
		/>
	<path d="M517.49-213.2H409.71c-1.83,0-3.31,1.48-3.31,3.31c0,0,0,0,0,0v86.04c0,1.83,1.48,3.31,3.31,3.31c0,0,0,0,0,0h107.78
		c1.83,0,3.31-1.48,3.31-3.31c0,0,0,0,0,0v-86.04C520.8-211.72,519.32-213.2,517.49-213.2C517.5-213.2,517.49-213.2,517.49-213.2z
		 M514.18-127.17H413.02v-79.42h101.16V-127.17z"/>
	<path d="M506.15-145.19c1.83,0,3.31-1.48,3.31-3.31c0,0,0,0,0,0v-25.94c0-1.83-1.48-3.31-3.31-3.31c-1.83,0-3.31,1.48-3.31,3.31
		v25.94C502.84-146.67,504.32-145.19,506.15-145.19C506.15-145.19,506.15-145.19,506.15-145.19z"/>
	<path d="M550.58-151.81c-8.09,0-14.65,6.56-14.65,14.65c0,8.09,6.56,14.65,14.65,14.65c8.09,0,14.65-6.56,14.65-14.65
		C565.23-145.24,558.67-151.8,550.58-151.81z M550.58-129.12c-4.44,0-8.04-3.6-8.04-8.04c0-4.44,3.6-8.04,8.04-8.04
		c4.44,0,8.04,3.6,8.04,8.04C558.62-132.72,555.02-129.12,550.58-129.12z"/>
	<path d="M557.56-211.26c-4.96,0-8.98,4.02-8.98,8.98s4.02,8.98,8.98,8.98s8.98-4.02,8.98-8.98
		C566.53-207.23,562.51-211.25,557.56-211.26z M557.56-199.91c-1.31,0-2.36-1.06-2.36-2.36c0-1.31,1.06-2.36,2.36-2.36
		c1.31,0,2.36,1.06,2.36,2.36C559.92-200.97,558.86-199.91,557.56-199.91z"/>
	<path d="M543.61-179.35c4.96,0,8.98-4.02,8.98-8.98s-4.02-8.98-8.98-8.98s-8.98,4.02-8.98,8.98
		C534.63-183.37,538.65-179.35,543.61-179.35z M543.61-190.69c1.31,0,2.36,1.06,2.36,2.36s-1.06,2.36-2.36,2.36
		c-1.31,0-2.36-1.06-2.36-2.36C541.25-189.63,542.31-190.69,543.61-190.69z"/>
	<path d="M376.62-181.95c8.09,0,14.65-6.56,14.65-14.65s-6.56-14.65-14.65-14.65c-8.09,0-14.65,6.56-14.65,14.65
		C361.98-188.51,368.53-181.96,376.62-181.95z M376.62-204.64c4.44,0,8.04,3.6,8.04,8.04s-3.6,8.04-8.04,8.04s-8.04-3.6-8.04-8.04
		l0,0C368.59-201.04,372.19-204.63,376.62-204.64z"/>
	<path d="M369.65-140.46c-4.96,0-8.98,4.02-8.98,8.98s4.02,8.98,8.98,8.98s8.98-4.02,8.98-8.98
		C378.62-136.44,374.61-140.46,369.65-140.46z M369.65-129.12c-1.31,0-2.36-1.06-2.36-2.36s1.06-2.36,2.36-2.36s2.36,1.06,2.36,2.36
		C372.01-130.18,370.95-129.12,369.65-129.12z"/>
	<path d="M383.59-154.41c-4.96,0-8.98,4.02-8.98,8.98c0,4.96,4.02,8.98,8.98,8.98c4.96,0,8.98-4.02,8.98-8.98
		C392.57-150.39,388.55-154.4,383.59-154.41z M383.59-143.06c-1.31,0-2.36-1.06-2.36-2.36c0-1.31,1.06-2.36,2.36-2.36
		c1.31,0,2.36,1.06,2.36,2.36C385.96-144.12,384.9-143.07,383.59-143.06z"/>
</g>
<g id="game_controller-video_game_controller-controller-monitor-hands">
	<path d="M-253.63,7.47h-216.6c-2.06,0-3.73,1.67-3.73,3.73v171.79c0,2.06,1.67,3.73,3.73,3.73h44.14l4.41,15.46v25.62
		c0,2.06,1.67,3.73,3.73,3.73h29.88c2.06,0,3.73-1.67,3.73-3.73v-22.82c7.32-1.5,13.05-7.21,14.56-14.53h15.68
		c0.73,3.6,2.51,6.9,5.12,9.49c2.59,2.57,5.87,4.33,9.45,5.08v22.78c0,2.06,1.67,3.73,3.73,3.73h29.88c2.06,0,3.73-1.67,3.73-3.73
		v-25.62l4.41-15.46h44.14c2.06,0,3.73-1.67,3.73-3.73V11.2C-249.9,9.14-251.57,7.47-253.63,7.47L-253.63,7.47z M-395.35,191.65
		l3.55,10.61v21.81h-22.41v-22.41c0.01-0.34-0.04-0.68-0.15-1.01l-6.12-21.47c-0.4-1.43,0.07-2.96,1.2-3.92l12.55-10.46v15.72
		c-0.01,1.51,0.91,2.87,2.32,3.44c1.39,0.58,3,0.28,4.07-0.78l8.96-9c1.42-1.46,3.76-1.5,5.23-0.07c0.03,0.02,0.05,0.05,0.07,0.07
		c0.71,0.68,1.1,1.63,1.08,2.61c0.02,0.99-0.37,1.95-1.08,2.65l-8.37,8.37C-395.46,188.82-395.81,190.31-395.35,191.65
		L-395.35,191.65z M-338.37,197.63c-2.01-0.48-3.86-1.5-5.34-2.95c-2.11-2.11-3.29-4.97-3.29-7.95c0-2.06-1.67-3.73-3.73-3.73
		h-22.41c-2.06,0-3.73,1.67-3.73,3.73c-0.02,5.19-3.58,9.7-8.63,10.9l-2.05-6.16l6.76-6.72c4.38-4.38,4.38-11.49,0-15.87
		s-11.49-4.38-15.87,0l-2.61,2.65v-14.68c0.02-6.18,5.02-11.19,11.2-11.2h52.28c6.18,0.02,11.19,5.02,11.2,11.2v14.68l-2.65-2.65
		c-4.38-4.37-11.48-4.36-15.85,0.02c-4.37,4.38-4.36,11.48,0.02,15.85l6.76,6.72L-338.37,197.63z M-303.37,179.18l-6.12,21.47
		c-0.11,0.33-0.16,0.67-0.15,1.01v22.41h-22.41v-21.81l3.55-10.61c0.45-1.35,0.11-2.84-0.9-3.85l-8.37-8.37
		c-0.71-0.7-1.1-1.66-1.08-2.65c-0.02-0.98,0.38-1.93,1.08-2.61c1.42-1.45,3.76-1.48,5.21-0.05c0.02,0.02,0.04,0.04,0.05,0.05l9,9
		c1.07,1.06,2.68,1.37,4.07,0.78c1.4-0.56,2.32-1.92,2.32-3.44v-15.68l12.55,10.46C-303.44,176.24-302.97,177.76-303.37,179.18
		L-303.37,179.18z M-257.36,179.26h-38.47c0.38-3.69-1.11-7.33-3.96-9.71l-17.51-14.6c-0.95-9.5-8.94-16.74-18.49-16.77h-52.28
		c-9.55,0.03-17.53,7.27-18.49,16.77l-17.51,14.6c-2.85,2.38-4.34,6.02-3.96,9.71h-38.47V14.94h209.13V179.26z"/>
	<path d="M-365.67,44.81h7.47v7.47h-7.47V44.81z"/>
	<path d="M-328.73,76.74l-14.53-29.09v-6.57c-0.01-3.52-1.67-6.84-4.48-8.96l-11.95-8.96c-1.32-1.01-3.16-1.01-4.48,0l-11.95,8.96
		c-2.82,2.12-4.47,5.44-4.48,8.96v6.57l-14.53,29.09c-0.93,1.84-0.19,4.09,1.65,5.02c0.52,0.26,1.09,0.4,1.67,0.4h18.67v7.47
		c0,0.73,0.22,1.45,0.63,2.05l7.47,11.2c1.11,1.71,3.4,2.2,5.11,1.08c0.43-0.28,0.8-0.65,1.08-1.08l7.47-11.2
		c0.42-0.6,0.64-1.32,0.63-2.05v-7.47h18.67c2.06-0.01,3.73-1.68,3.72-3.75C-328.33,77.83-328.47,77.26-328.73,76.74L-328.73,76.74z
		 M-380.6,74.69h-5.15l5.15-10.31V74.69z M-358.2,88.51l-3.73,5.6l-3.73-5.6v-6.35h7.47V88.51z M-350.73,74.69h-7.47v-11.2h-7.47
		v11.2h-7.47V41.08c0.01-1.17,0.56-2.28,1.49-2.99l9.71-7.28l9.71,7.28c0.93,0.71,1.49,1.81,1.49,2.99V74.69z M-343.26,74.69V64.38
		l5.15,10.31H-343.26z"/>
	<path d="M-392.22,106.62l-14.53-29.09v-6.57c-0.01-3.52-1.67-6.84-4.48-8.96l-11.95-8.96c-1.32-1.01-3.16-1.01-4.48,0l-11.95,8.96
		c-2.82,2.12-4.47,5.44-4.48,8.96v6.57l-14.53,29.09c-0.93,1.84-0.19,4.09,1.65,5.02c0.52,0.26,1.09,0.4,1.67,0.4h18.67v7.47
		c0,0.73,0.22,1.45,0.63,2.05l7.47,11.2c1.11,1.71,3.4,2.2,5.11,1.08c0.43-0.28,0.8-0.65,1.08-1.08l7.47-11.2
		c0.42-0.6,0.64-1.32,0.63-2.05v-7.47h18.67c2.06-0.01,3.73-1.68,3.72-3.75C-391.82,107.71-391.96,107.14-392.22,106.62z
		 M-444.09,104.57h-5.15l5.15-10.31V104.57z M-421.68,118.38l-3.73,5.6l-3.73-5.6v-6.35h7.47V118.38z M-414.21,104.57h-7.47v-11.2
		h-7.47v11.2h-7.47V70.96c0.01-1.17,0.56-2.28,1.49-2.99l9.71-7.28l9.71,7.28c0.93,0.71,1.49,1.81,1.49,2.99V104.57z
		 M-406.74,104.57V94.26l5.15,10.31H-406.74z"/>
	<path d="M-429.15,74.69h7.47v7.47h-7.47V74.69z"/>
	<path d="M-302.18,74.69h7.47v7.47h-7.47V74.69z"/>
	<path d="M-265.24,106.62l-14.53-29.09v-6.57c-0.01-3.52-1.67-6.84-4.48-8.96l-11.95-8.96c-1.32-1.01-3.16-1.01-4.48,0l-11.95,8.96
		c-2.82,2.12-4.47,5.44-4.48,8.96v6.57l-14.53,29.09c-0.93,1.84-0.19,4.09,1.65,5.02c0.52,0.26,1.09,0.4,1.67,0.4h18.67v7.47
		c0,0.73,0.22,1.45,0.63,2.05l7.47,11.2c1.11,1.71,3.4,2.2,5.11,1.08c0.43-0.28,0.8-0.65,1.08-1.08l7.47-11.2
		c0.42-0.6,0.64-1.32,0.63-2.05v-7.47h18.67c2.06-0.01,3.73-1.68,3.72-3.75C-264.85,107.71-264.98,107.14-265.24,106.62
		L-265.24,106.62z M-317.12,104.57h-5.15l5.15-10.31V104.57z M-294.71,118.38l-3.73,5.6l-3.73-5.6v-6.35h7.47V118.38z
		 M-287.24,104.57h-7.47v-11.2h-7.47v11.2h-7.47V70.96c0.01-1.17,0.56-2.28,1.49-2.99l9.71-7.28l9.71,7.28
		c0.93,0.71,1.49,1.81,1.49,2.99V104.57z M-279.77,104.57V94.26l5.15,10.31H-279.77z"/>
	<path d="M-365.67,112.03h7.47v7.47h-7.47V112.03z"/>
	<path d="M-451.56,119.5h7.47v7.47h-7.47V119.5z"/>
	<path d="M-406.74,119.5h7.47v7.47h-7.47V119.5z"/>
	<path d="M-388.07,89.63h7.47v7.47h-7.47V89.63z"/>
	<path d="M-343.26,89.63h7.47v7.47h-7.47V89.63z"/>
	<path d="M-324.59,119.5h7.47v7.47h-7.47V119.5z"/>
	<path d="M-279.77,119.5h7.47v7.47h-7.47V119.5z"/>
	<path d="M-429.15,141.91h7.47v7.47h-7.47V141.91z"/>
	<path d="M-302.18,141.91h7.47v7.47h-7.47V141.91z"/>
	<path d="M-302.18,22.41h7.47v7.47h-7.47V22.41z"/>
	<path d="M-287.24,22.41h7.47v7.47h-7.47V22.41z"/>
	<path d="M-272.3,22.41h7.47v7.47h-7.47V22.41z"/>
	<path d="M-451.56,29.88h11.2v-7.47h-14.94c-2.06,0-3.73,1.67-3.73,3.73v14.94h7.47V29.88z"/>
	<path d="M-459.03,48.55h7.47v7.47h-7.47V48.55z"/>
</g>
<g>
	<path d="M112.03,0C50.26,0,0,50.26,0,112.03s50.26,112.03,112.03,112.03s112.03-50.26,112.03-112.03S173.81,0,112.03,0z
		 M112.03,215.45c-57.02,0-103.42-46.4-103.42-103.42S55.01,8.62,112.03,8.62s103.42,46.4,103.42,103.42
		S169.06,215.45,112.03,215.45z"/>
	<path d="M165.9,107.73h-49.55v-47.4c0-2.38-1.93-4.31-4.31-4.31s-4.31,1.93-4.31,4.31v47.4H58.17c-2.38,0-4.31,1.93-4.31,4.31
		c0,2.38,1.93,4.31,4.31,4.31h49.55v51.71c0,2.38,1.93,4.31,4.31,4.31s4.31-1.93,4.31-4.31v-51.71h49.55c2.38,0,4.31-1.93,4.31-4.31
		C170.21,109.65,168.28,107.73,165.9,107.73z"/>
</g>
<g>
	<path d="M-99.28,45.29h-60.87c-4.46,0-8.08,3.62-8.08,8.08v55.2c0,4.46,3.62,8.08,8.08,8.08h60.87c4.46,0,8.08-3.62,8.08-8.08
		c0-6.28,0-48.36,0-55.2C-91.2,48.91-94.83,45.29-99.28,45.29z M-139.09,110.85h-7.16v-7.16h7.16V110.85z M-126.14,110.85h-7.16
		v-7.16h7.16V110.85z M-126.14,97.9h-7.16v-7.16h7.16V97.9z M-113.18,110.85h-7.16v-7.16h7.16V110.85z M-99.28,110.85h-8.1v-7.91
		c0.8,0.48,1.72,0.76,2.72,0.76H-97v4.88h0C-97,109.83-98.02,110.85-99.28,110.85z M-97,97.9h-7.16v-7.16H-97V97.9z M-97,84.94
		h-7.16v-7.16H-97V84.94z M-97,71.98h-7.16v-7.16H-97V71.98z M-97,53.37v5.66h-7.66c-2.92,0-5.29,2.38-5.29,5.29V98.4
		c0,0.02,0,0.04,0,0.06c-0.68-0.36-1.45-0.57-2.27-0.57h-8.11v-8.11c0-2.67-2.17-4.84-4.84-4.84h-9.07c-2.67,0-4.84,2.17-4.84,4.84
		v8.11h-8.11c-2.67,0-4.84,2.17-4.84,4.84v8.11h-8.1c-1.26,0-2.28-1.02-2.28-2.28v-55.2c0-1.26,1.02-2.28,2.28-2.28h60.87
		C-98.02,51.09-97,52.11-97,53.37L-97,53.37z"/>
	<path d="M-142.67,56.25h-11.58c-1.6,0-2.9,1.3-2.9,2.9s1.3,2.9,2.9,2.9h11.58c1.6,0,2.9-1.3,2.9-2.9
		C-139.77,57.55-141.07,56.25-142.67,56.25z"/>
	<path d="M-104.18,200.78c8.04,0,14.58-6.54,14.58-14.58c0-8.04-6.54-14.58-14.58-14.58s-14.58,6.54-14.58,14.58
		S-112.22,200.78-104.18,200.78z M-104.18,177.43c4.84,0,8.78,3.94,8.78,8.78s-3.94,8.78-8.78,8.78c-4.84,0-8.78-3.94-8.78-8.78
		C-112.96,181.36-109.02,177.43-104.18,177.43z"/>
	<path d="M-77.97,124.55l0-82.61c0-5.61-4.56-10.18-10.18-10.18h-83.13c-5.61,0-10.18,4.56-10.18,10.18v82.6
		c-2.7,0.89-4.65,3.44-4.65,6.43v15.74c0,2.99,1.95,5.54,4.65,6.43v66.44c0,5.61,4.56,10.18,10.18,10.18h34.8
		c0.08,0,0.15-0.02,0.23-0.02h13.08c0.08,0.01,0.15,0.02,0.23,0.02h34.8c5.61,0,10.18-4.56,10.18-10.18v-66.44
		c2.7-0.89,4.65-3.44,4.65-6.43v-15.74C-73.32,127.99-75.27,125.45-77.97,124.55z M-175.65,41.95c0-2.41,1.96-4.37,4.37-4.37h83.13
		c2.41,0,4.37,1.96,4.37,4.37v36.16c0,0,0,0,0,0.01v13.52c0,0,0,0,0,0v32.57h-91.88V41.95z M-83.77,219.59
		c0,2.41-1.96,4.37-4.37,4.37h-83.13c-2.41,0-4.37-1.96-4.37-4.37V153.5h91.88V219.59z M-79.12,146.72c0,0.54-0.44,0.97-0.97,0.97
		c-2.63,0-96.62,0-99.24,0c-0.54,0-0.97-0.44-0.97-0.97v-15.74c0-0.54,0.44-0.97,0.97-0.97h99.24c0.54,0,0.97,0.44,0.97,0.97V146.72
		z"/>
	<path d="M-90.77,135.95h-13.56c-1.6,0-2.9,1.3-2.9,2.9s1.3,2.9,2.9,2.9h13.56c1.6,0,2.9-1.3,2.9-2.9S-89.17,135.95-90.77,135.95z"
		/>
	<path d="M-163.83,194.9h3.54c1.67,0,3.24-0.48,4.56-1.3c-0.82,1.33-1.3,2.89-1.3,4.56v3.54c0,3.31,2.69,6,6,6h5.39
		c3.31,0,6-2.69,6-6v-3.54c0-1.67-0.48-3.24-1.3-4.56c1.33,0.82,2.89,1.3,4.56,1.3h3.54c3.31,0,6-2.69,6-6v-5.39c0-3.31-2.69-6-6-6
		h-3.54c-1.67,0-3.24,0.48-4.56,1.3c0.82-1.33,1.3-2.89,1.3-4.56v-3.54c0-3.31-2.69-6-6-6h-5.39c-3.31,0-6,2.69-6,6v3.54
		c0,1.67,0.48,3.24,1.3,4.56c-1.33-0.82-2.89-1.3-4.56-1.3h-3.54c-3.31,0-6,2.69-6,6v5.39C-169.82,192.21-167.13,194.9-163.83,194.9
		z M-136.36,183.31h3.54c0.11,0,0.2,0.09,0.2,0.2v5.39c0,0.11-0.09,0.2-0.2,0.2h-3.54c-1.6,0-2.9-1.3-2.9-2.9
		C-139.25,184.61-137.95,183.31-136.36,183.31z M-145.62,201.91h-5.39c-0.11,0-0.2-0.09-0.2-0.2v-3.54c0-1.6,1.3-2.9,2.9-2.9
		s2.9,1.3,2.9,2.9v3.54h0C-145.42,201.82-145.51,201.91-145.62,201.91z M-151.02,170.5h5.39c0.11,0,0.2,0.09,0.2,0.2v3.54
		c0,1.6-1.3,2.9-2.9,2.9c-1.6,0-2.9-1.3-2.9-2.9v-3.54h0C-151.21,170.59-151.13,170.5-151.02,170.5z M-152.88,181.64
		c1.33,0.82,2.89,1.3,4.56,1.3c1.67,0,3.24-0.48,4.56-1.3c-0.82,1.33-1.3,2.89-1.3,4.56c0,1.67,0.48,3.24,1.3,4.56
		c-1.33-0.82-2.89-1.3-4.56-1.3c-1.67,0-3.24,0.48-4.56,1.3c0.82-1.33,1.3-2.89,1.3-4.56S-152.06,182.97-152.88,181.64z
		 M-164.02,183.51c0-0.11,0.09-0.2,0.2-0.2h3.54c1.6,0,2.9,1.3,2.9,2.9c0,1.6-1.3,2.9-2.9,2.9h-3.54c-0.11,0-0.2-0.09-0.2-0.2
		V183.51z"/>
</g>
<g>
	<g>
		<g>
			<circle cx="172.6" cy="-238.61" r="3.39"/>
		</g>
	</g>
	<g>
		<g>
			<g>
				<circle cx="157.63" cy="-125.33" r="3.39"/>
			</g>
		</g>
		<g>
			<g>
				<path d="M215.57-135.94c-5.85,0-10.61,4.76-10.61,10.61c0,5.85,4.76,10.61,10.61,10.61s10.61-4.76,10.61-10.61
					C226.18-131.18,221.42-135.94,215.57-135.94z M215.57-121.49c-2.12,0-3.84-1.72-3.84-3.84c0-2.12,1.72-3.84,3.84-3.84
					c2.12,0,3.84,1.72,3.84,3.84C219.41-123.21,217.69-121.49,215.57-121.49z"/>
			</g>
		</g>
		<g>
			<g>
				<path d="M100.58-242.92c-6.32,0-11.46,5.14-11.46,11.46c0,6.32,5.14,11.45,11.46,11.45c6.32,0,11.45-5.14,11.45-11.45
					C112.03-237.78,106.9-242.92,100.58-242.92z M100.58-226.78c-2.58,0-4.68-2.1-4.68-4.68c0-2.58,2.1-4.68,4.68-4.68
					c2.58,0,4.68,2.1,4.68,4.68C105.26-228.88,103.16-226.78,100.58-226.78z"/>
			</g>
		</g>
		<g>
			<g>
				<path d="M156.29-220.62c-6.32,0-11.46,5.14-11.46,11.46c0,6.32,5.14,11.45,11.46,11.45s11.45-5.14,11.45-11.45
					C167.74-215.48,162.61-220.62,156.29-220.62z M156.29-204.49c-2.58,0-4.68-2.1-4.68-4.68s2.1-4.68,4.68-4.68
					c2.58,0,4.68,2.1,4.68,4.68S158.87-204.49,156.29-204.49z"/>
			</g>
		</g>
		<g>
			<g>
				<circle cx="172.6" cy="-220.62" r="3.39"/>
			</g>
		</g>
		<g>
			<g>
				<circle cx="162.92" cy="-229.47" r="3.39"/>
			</g>
		</g>
		<g>
			<g>
				<circle cx="182.27" cy="-229.47" r="3.39"/>
			</g>
		</g>
		<g>
			<g>
				<path d="M126.51-212.55h-4.68v-4.68c0-1.87-1.52-3.39-3.39-3.39c-1.87,0-3.39,1.52-3.39,3.39v4.68h-4.68
					c-1.87,0-3.39,1.52-3.39,3.39c0,1.87,1.52,3.39,3.39,3.39h4.68v4.68c0,1.87,1.52,3.39,3.39,3.39c1.87,0,3.39-1.52,3.39-3.39
					v-4.68h4.68c1.87,0,3.39-1.52,3.39-3.39C129.9-211.04,128.38-212.55,126.51-212.55z"/>
			</g>
		</g>
		<path d="M240.01-160.8h-38.1c6.63-7.39,9.39-17.79,6.83-27.78c-3.19-12.45-6.01-24.99-9.35-37.4c-2.4-8.93-6.4-18.01-14.52-23.12
			c-1.56-0.98-3.23-1.8-4.97-2.44l-9.3-3.48c-4.16-1.56-8.82-0.79-12.26,1.91h-45.03c-3.44-2.7-8.1-3.47-12.26-1.91l-9.3,3.48
			c-8.8,3.29-15.45,10.69-17.78,19.79L62.9-188.58c-2.56,9.99,0.2,20.39,6.83,27.78H31.63c-4.33,0-7.85,3.52-7.85,7.85v21.52v12.19
			v21.52c0,4.33,3.52,7.85,7.85,7.85h13.75v2.25c0,1.87,1.52,3.39,3.39,3.39c1.87,0,3.39-1.52,3.39-3.39v-2.25h167.32v2.25
			c0,1.87,1.52,3.39,3.39,3.39s3.39-1.52,3.39-3.39v-2.25h13.75c4.33,0,7.85-3.52,7.85-7.85v-55.24
			C247.86-157.28,244.34-160.8,240.01-160.8z M151.43-246.34l-3.49,3.49c-1.06,1.06-2.48,1.65-3.99,1.65h-8.13h-8.13
			c-1.5,0-2.92-0.59-3.98-1.65l-3.49-3.49H151.43z M69.46-186.9l11.06-43.18c1.78-6.96,6.86-12.61,13.59-15.13l9.3-3.48
			c2.15-0.81,4.6-0.28,6.23,1.35c0,0,0,0,0,0l9.27,9.27c2.34,2.34,5.46,3.63,8.77,3.63h8.13h8.13c3.31,0,6.43-1.29,8.78-3.63
			l9.27-9.27c1.63-1.63,4.07-2.16,6.23-1.35l9.3,3.48c4.49,1.68,8.22,4.73,10.76,8.7c0.45,1.25,3.89,11.03,6.86,22.17l7.03,27.43
			c2.52,9.82-1.59,20.15-10.01,25.6l-18.05-22.61c-3.54-4.44-8.83-6.98-14.51-6.98h-23.78h-23.78c-5.68,0-10.97,2.55-14.51,6.98
			l-18.05,22.61C71.05-166.75,66.95-177.08,69.46-186.9z M183.89-160.8h-63.28h-10.24H95.59h-2.23h-5.61l15.07-18.88
			c2.25-2.82,5.61-4.44,9.22-4.44h23.78h23.78c3.61,0,6.97,1.62,9.22,4.44L183.89-160.8z M240.01-96.64H31.63
			c-0.59,0-1.07-0.48-1.07-1.07v-21.52v-8.81h107.71v5.42H41.7c-1.87,0-3.39,1.52-3.39,3.39c0,1.87,1.52,3.39,3.39,3.39h97.06
			c3.46,0,6.28-2.82,6.28-6.28v-6.41c0-3.46-2.82-6.28-6.28-6.28H30.56v-18.14c0-0.59,0.48-1.07,1.07-1.07h48.12
			c0.03,0,0.07,0.01,0.1,0.01c0.04,0,0.08-0.01,0.12-0.01h13.39h2.23h14.78h10.24h71.05c0.04,0,0.08,0.01,0.12,0.01
			c0.03,0,0.07-0.01,0.1-0.01h48.12c0.59,0,1.07,0.48,1.07,1.07v55.24h0C241.08-97.12,240.6-96.64,240.01-96.64z"/>
	</g>
</g>
</svg>
