<?xml version="1.0" encoding="utf-8"?>
<!-- Generator: Adobe Illustrator 24.1.0, SVG Export Plug-In . SVG Version: 6.00 Build 0)  -->
<svg version="1.1" id="Layer_1" xmlns="http://www.w3.org/2000/svg" xmlns:xlink="http://www.w3.org/1999/xlink" x="0px" y="0px"
	 viewBox="0 0 320.05 343.6" style="enable-background:new 0 0 320.05 343.6;" xml:space="preserve">
<style type="text/css">
	.st0{fill:#133441;}
	.st1{fill:#DB6402;}
	.st2{fill:#DBA97F;}
	.st3{fill:#FFFFFF;}
	.st4{fill:#FEE475;}
	.st5{fill:#FED425;}
	.st6{fill:#FEB724;}
	.st7{fill:#FB9D12;}
</style>
<rect x="-1046.1" y="-1255.05" class="st0" width="3150" height="875.65"/>
<g>
	<path class="st1" d="M859.55-997.07h-36.78v343.6h36.78c62.54,0,113.23-76.92,113.23-171.8
		C972.78-920.15,922.09-997.07,859.55-997.07z"/>
	<path class="st2" d="M822.77-662.79v9.32h36.78c26.57,0,50.98-13.92,70.29-37.16l-107.07,1.32V-662.79z"/>
	<path class="st3" d="M885.96-879.63l80.78-0.99c-5.34-23.81-14.02-45.25-25.2-63.07l-56.07,0.69L885.96-879.63z"/>
	<path class="st3" d="M885.46-955.07l47.78-0.58c-2.45-3.19-4.98-6.22-7.6-9.08l-40.25,0.49L885.46-955.07z"/>
	<ellipse class="st4" cx="822.77" cy="-825.27" rx="113.24" ry="171.8"/>
	<ellipse class="st5" cx="822.77" cy="-825.27" rx="109.52" ry="166.16"/>
	<path class="st3" d="M768.55-680.94l157.74-198.59c-5.36-23.54-14.09-44.68-25.35-62.08L732.99-730.17
		C742.28-710.03,754.42-693.17,768.55-680.94z"/>
	<path class="st3" d="M928.49-781.88l-97.06,122.2C878.16-665.23,916.63-715.24,928.49-781.88z"/>
	<path class="st3" d="M718.12-874.36l92.1-115.95c-11.05,1.91-21.59,6.32-31.39,12.84l-46.54,58.6
		C726.19-905.34,721.38-890.37,718.12-874.36z"/>
	<path class="st3" d="M726.91-744.93L892.5-953.4c-1.99-2.5-4.07-4.86-6.18-7.15L723.4-755.44
		C724.49-751.87,725.66-748.36,726.91-744.93z"/>
	<path class="st3" d="M822.77-990.79c61.84,0,112.07,75.23,113.18,168.66c0.01-1.05,0.05-2.09,0.05-3.14
		c0-94.88-50.7-171.8-113.24-171.8c-62.54,0-113.23,76.92-113.23,171.8c0,1.05,0.04,2.09,0.05,3.14
		C710.7-915.56,760.93-990.79,822.77-990.79z"/>
	<ellipse class="st3" cx="825.29" cy="-820.62" rx="77.9" ry="118.19"/>
	<ellipse class="st6" cx="822.77" cy="-825.27" rx="77.9" ry="118.19"/>
	<path class="st7" d="M754.88-821.94c0-65.27,34.88-118.19,77.9-118.19c3.95,0,7.83,0.45,11.62,1.31
		c-6.87-3.01-14.12-4.65-21.63-4.65c-43.02,0-77.9,52.92-77.9,118.19c0,59.28,28.77,108.36,66.28,116.87
		C778.66-722.62,754.88-768.05,754.88-821.94z"/>
</g>
<g>
	<g>
		<path class="st1" d="M1251.99-997.07h-30.37v343.6h30.37c80,0,144.84-76.92,144.84-171.8
			C1396.84-920.15,1331.99-997.07,1251.99-997.07z"/>
		<path class="st2" d="M1221.63-662.79v9.32h30.37c33.98,0,65.21-13.92,89.92-37.16l-120.28,1.32V-662.79z"/>
		<path class="st3" d="M1285.78-879.63l103.33-0.99c-6.83-23.81-17.93-45.25-32.24-63.07l-71.73,0.69L1285.78-879.63z"/>
		<path class="st3" d="M1285.13-955.07l61.12-0.58c-3.13-3.19-6.37-6.22-9.73-9.08l-51.49,0.49L1285.13-955.07z"/>
	</g>
	<ellipse class="st4" cx="1221.63" cy="-825.27" rx="144.84" ry="171.8"/>
	<ellipse class="st5" cx="1221.63" cy="-825.27" rx="140.09" ry="166.16"/>
	<path class="st3" d="M1152.26-680.94l201.77-198.59c-6.86-23.54-18.03-44.68-32.42-62.08l-214.83,211.43
		C1118.66-710.03,1134.2-693.17,1152.26-680.94z"/>
	<path class="st3" d="M1356.85-781.88l-124.16,122.2C1292.47-665.23,1341.69-715.24,1356.85-781.88z"/>
	<path class="st3" d="M1087.76-874.36l117.81-115.95c-14.13,1.91-27.62,6.32-40.15,12.84l-59.54,58.6
		C1098.09-905.34,1091.93-890.37,1087.76-874.36z"/>
	<path class="st3" d="M1099-744.93l211.81-208.47c-2.55-2.5-5.2-4.86-7.9-7.15l-208.4,205.11
		C1095.91-751.87,1097.4-748.36,1099-744.93z"/>
	<path class="st3" d="M1221.63-990.79c79.11,0,143.36,75.23,144.78,168.66c0.02-1.05,0.07-2.09,0.07-3.14
		c0-94.88-64.85-171.8-144.84-171.8c-79.99,0-144.84,76.92-144.84,171.8c0,1.05,0.05,2.09,0.07,3.14
		C1078.27-915.56,1142.52-990.79,1221.63-990.79z"/>
	<ellipse class="st3" cx="1224.85" cy="-820.62" rx="99.64" ry="118.19"/>
	<ellipse class="st6" cx="1221.63" cy="-825.27" rx="99.64" ry="118.19"/>
	<path class="st7" d="M1128.65-815.26c0-65.27,44.61-118.19,99.64-118.19c29.76,0,56.45,15.49,74.71,40.02
		c-18.05-30.26-47.76-50.03-81.38-50.03c-55.03,0-99.64,52.92-99.64,118.19c0,29.98,9.43,57.33,24.93,78.16
		C1135.43-766.37,1128.65-789.87,1128.65-815.26z"/>
</g>
<g>
	<rect x="501.91" y="-998.29" class="st1" width="53.99" height="346.04"/>
	<rect x="501.91" y="-929.06" class="st3" width="53.99" height="65.94"/>
	<rect x="501.91" y="-728.7" class="st2" width="53.99" height="60.01"/>
	<rect x="501.91" y="-661.63" class="st3" width="53.99" height="9.38"/>
	<rect x="501.91" y="-953.5" class="st3" width="53.99" height="12.35"/>
	<polygon class="st3" points="501.91,-998.29 501.91,-886.65 505.24,-993.96 552.56,-993.96 555.9,-886.65 555.9,-998.29 	"/>
</g>
<g>
	
		<ellipse transform="matrix(0.7071 -0.7071 0.7071 0.7071 1071.4597 936.1911)" class="st4" cx="1665.81" cy="-825.27" rx="174.01" ry="174.01"/>
	
		<ellipse transform="matrix(0.7071 -0.7071 0.7071 0.7071 1071.4597 936.1911)" class="st5" cx="1665.81" cy="-825.27" rx="169.56" ry="169.56"/>
	<path class="st3" d="M1786.04-944.82l-239.78,239.78c16.07,15.98,35.33,28.72,56.73,37.26l220.31-220.31
		C1814.76-909.49,1802.02-928.75,1786.04-944.82z"/>
	<path class="st3" d="M1831.1-787.52l-127.54,127.54C1766.88-674.39,1816.7-724.2,1831.1-787.52z"/>
	<path class="st3" d="M1582.55-972.96l-64.42,64.42c-7.1,12.56-12.67,26.1-16.39,40.39l121.2-121.2
		C1608.64-985.63,1595.11-980.06,1582.55-972.96z"/>
	<path class="st3" d="M1763.7-963.68l-236.3,236.3c2.75,3.89,5.65,7.66,8.72,11.3L1775-954.96
		C1771.36-958.02,1767.59-960.92,1763.7-963.68z"/>
	<circle class="st3" cx="1669.15" cy="-822.13" r="122.86"/>
	
		<ellipse transform="matrix(0.7071 -0.7071 0.7071 0.7071 1071.4597 936.1911)" class="st6" cx="1665.81" cy="-825.27" rx="122.86" ry="122.86"/>
	<path class="st7" d="M1549.62-818.6c0-67.85,55.01-122.86,122.86-122.86c32.23,0,61.55,12.43,83.46,32.73
		c-22.44-24.22-54.51-39.4-90.13-39.4c-67.85,0-122.86,55.01-122.86,122.86c0,35.62,15.18,67.69,39.4,90.13
		C1562.05-757.05,1549.62-786.37,1549.62-818.6z"/>
	<path class="st3" d="M1665.81-992.61c94.98,0,172.14,76.12,173.92,170.67c0.02-1.11,0.08-2.22,0.08-3.34
		c0-96.1-77.91-174.01-174.01-174.01c-96.1,0-174.01,77.91-174.01,174.01c0,1.12,0.06,2.22,0.08,3.34
		C1493.68-916.49,1570.83-992.61,1665.81-992.61z"/>
</g>
<g>
	<path class="st1" d="M198.26-997.07h36.78v343.6h-36.78c-62.54,0-113.23-76.92-113.23-171.8
		C85.02-920.15,135.72-997.07,198.26-997.07z"/>
	<path class="st2" d="M235.03-662.79v9.32h-36.78c-26.57,0-50.98-13.92-70.29-37.16l107.07,1.32V-662.79z"/>
	<path class="st3" d="M171.84-879.63l-80.78-0.99c5.34-23.81,14.02-45.25,25.2-63.07l56.07,0.69L171.84-879.63z"/>
	<path class="st3" d="M172.35-955.07l-47.78-0.58c2.45-3.19,4.98-6.22,7.6-9.08l40.25,0.49L172.35-955.07z"/>
	<ellipse class="st4" cx="235.03" cy="-825.27" rx="113.24" ry="171.8"/>
	<ellipse class="st5" cx="235.03" cy="-825.27" rx="109.52" ry="166.16"/>
	<path class="st3" d="M289.26-680.94L131.52-879.52c5.36-23.54,14.09-44.68,25.35-62.08l167.95,211.43
		C315.53-710.03,303.38-693.17,289.26-680.94z"/>
	<path class="st3" d="M129.32-781.88l97.06,122.2C179.65-665.23,141.17-715.24,129.32-781.88z"/>
	<path class="st3" d="M339.69-874.36l-92.1-115.95c11.05,1.91,21.59,6.32,31.39,12.84l46.54,58.6
		C331.61-905.34,336.43-890.37,339.69-874.36z"/>
	<path class="st3" d="M330.9-744.93L165.31-953.4c1.99-2.5,4.07-4.86,6.18-7.15l162.92,205.11
		C333.31-751.87,332.15-748.36,330.9-744.93z"/>
	<path class="st3" d="M235.03-990.79c-61.84,0-112.07,75.23-113.18,168.66c-0.01-1.05-0.05-2.09-0.05-3.14
		c0-94.88,50.7-171.8,113.24-171.8c62.54,0,113.23,76.92,113.23,171.8c0,1.05-0.04,2.09-0.05,3.14
		C347.11-915.56,296.88-990.79,235.03-990.79z"/>
	<ellipse class="st3" cx="232.51" cy="-820.62" rx="77.9" ry="118.19"/>
	<ellipse class="st6" cx="235.03" cy="-825.27" rx="77.9" ry="118.19"/>
	<path class="st7" d="M302.93-821.94c0-65.27-34.88-118.19-77.9-118.19c-3.95,0-7.83,0.45-11.62,1.31
		c6.87-3.01,14.12-4.65,21.63-4.65c43.02,0,77.9,52.92,77.9,118.19c0,59.28-28.77,108.36-66.28,116.87
		C279.15-722.62,302.93-768.05,302.93-821.94z"/>
</g>
<g>
	<g>
		<path class="st1" d="M-194.19-997.07h30.37v343.6h-30.37c-80,0-144.84-76.92-144.84-171.8
			C-339.03-920.15-274.18-997.07-194.19-997.07z"/>
		<path class="st2" d="M-163.82-662.79v9.32h-30.37c-33.98,0-65.21-13.92-89.92-37.16l120.28,1.32V-662.79z"/>
		<path class="st3" d="M-227.98-879.63l-103.33-0.99c6.83-23.81,17.93-45.25,32.24-63.07l71.73,0.69L-227.98-879.63z"/>
		<path class="st3" d="M-227.33-955.07l-61.12-0.58c3.13-3.19,6.37-6.22,9.73-9.08l51.49,0.49L-227.33-955.07z"/>
	</g>
	<ellipse class="st4" cx="-163.82" cy="-825.27" rx="144.84" ry="171.8"/>
	<ellipse class="st5" cx="-163.82" cy="-825.27" rx="140.09" ry="166.16"/>
	<path class="st3" d="M-94.46-680.94l-201.77-198.59c6.86-23.54,18.03-44.68,32.42-62.08l214.83,211.43
		C-60.86-710.03-76.39-693.17-94.46-680.94z"/>
	<path class="st3" d="M-299.05-781.88l124.16,122.2C-234.66-665.23-283.89-715.24-299.05-781.88z"/>
	<path class="st3" d="M-29.96-874.36l-117.81-115.95c14.13,1.91,27.62,6.32,40.15,12.84l59.54,58.6
		C-40.28-905.34-34.12-890.37-29.96-874.36z"/>
	<path class="st3" d="M-41.19-744.93L-253.01-953.4c2.55-2.5,5.2-4.86,7.9-7.15l208.4,205.11
		C-38.11-751.87-39.59-748.36-41.19-744.93z"/>
	<path class="st3" d="M-163.82-990.79c-79.11,0-143.36,75.23-144.78,168.66c-0.02-1.05-0.07-2.09-0.07-3.14
		c0-94.88,64.85-171.8,144.84-171.8c79.99,0,144.84,76.92,144.84,171.8c0,1.05-0.05,2.09-0.07,3.14
		C-20.46-915.56-84.71-990.79-163.82-990.79z"/>
	<ellipse class="st3" cx="-167.05" cy="-820.62" rx="99.64" ry="118.19"/>
	<ellipse class="st6" cx="-163.82" cy="-825.27" rx="99.64" ry="118.19"/>
	<path class="st7" d="M-70.85-815.26c0-65.27-44.61-118.19-99.64-118.19c-29.76,0-56.45,15.49-74.71,40.02
		c18.05-30.26,47.76-50.03,81.38-50.03c55.03,0,99.64,52.92,99.64,118.19c0,29.98-9.43,57.33-24.93,78.16
		C-77.62-766.37-70.85-789.87-70.85-815.26z"/>
</g>
<g>
	
		<ellipse transform="matrix(0.7071 -0.7071 0.7071 0.7071 405.4734 -671.6423)" class="st4" cx="-608.01" cy="-825.27" rx="174.01" ry="174.01"/>
	
		<ellipse transform="matrix(0.7071 -0.7071 0.7071 0.7071 405.4734 -671.6423)" class="st5" cx="-608.01" cy="-825.27" rx="169.56" ry="169.56"/>
	<path class="st3" d="M-487.78-944.82l-239.78,239.78c16.07,15.98,35.33,28.72,56.73,37.26l220.31-220.31
		C-459.06-909.49-471.8-928.75-487.78-944.82z"/>
	<path class="st3" d="M-442.72-787.52l-127.54,127.54C-506.94-674.39-457.12-724.2-442.72-787.52z"/>
	<path class="st3" d="M-691.27-972.96l-64.42,64.42c-7.1,12.56-12.67,26.1-16.39,40.39l121.2-121.2
		C-665.18-985.63-678.71-980.06-691.27-972.96z"/>
	<path class="st3" d="M-510.12-963.68l-236.3,236.3c2.75,3.89,5.65,7.66,8.72,11.3l238.87-238.87
		C-502.46-958.02-506.23-960.92-510.12-963.68z"/>
	<circle class="st3" cx="-604.67" cy="-822.13" r="122.86"/>
	
		<ellipse transform="matrix(0.7071 -0.7071 0.7071 0.7071 405.4734 -671.6423)" class="st6" cx="-608.01" cy="-825.27" rx="122.86" ry="122.86"/>
	<path class="st7" d="M-724.2-818.6c0-67.85,55.01-122.86,122.86-122.86c32.23,0,61.55,12.43,83.46,32.73
		c-22.44-24.22-54.51-39.4-90.13-39.4c-67.85,0-122.86,55.01-122.86,122.86c0,35.62,15.18,67.69,39.4,90.13
		C-711.77-757.05-724.2-786.37-724.2-818.6z"/>
	<path class="st3" d="M-608.01-992.61c94.98,0,172.14,76.12,173.92,170.67c0.02-1.11,0.08-2.22,0.08-3.34
		c0-96.1-77.91-174.01-174.01-174.01s-174.01,77.91-174.01,174.01c0,1.12,0.06,2.22,0.08,3.34
		C-780.14-916.49-702.99-992.61-608.01-992.61z"/>
</g>
<path class="st7" d="M-555.89-754.26c-2.25,0.17-4.52,0.2-6.74,0.53c-3.84,0.57-3.86,0.65-4.4-3.31
	c-3.31-24.03-9.45-47.29-19.14-69.56c-9.87-22.67-23.17-43.12-39.94-61.3c-0.4-0.43-0.82-0.85-1.26-1.24
	c-0.21-0.18-0.49-0.28-1.29-0.74c-2.02,6.03-4.21,11.84-5.91,17.78c-3.89,13.6-6.41,27.44-7.33,41.6c-0.39,6,1.5,11.27,3.46,16.63
	c9.13,24.95,21.59,48.12,37.37,69.49c0.46,0.62,1,1.2,1.46,1.75c4.61-1.82,9.11-3.6,13.62-5.37c0.07,0.21,0.15,0.43,0.22,0.64
	c-6.63,4.08-13.25,8.15-19.88,12.23c-0.91-0.4-1.81-0.79-2.72-1.19c2.06-1.61,4.12-3.23,6.02-4.72
	c-5.71-8.65-11.81-17.18-17.18-26.14c-23.06-38.47-37.14-80-41.43-124.71c-0.6-6.24-0.3-12.62,0.15-18.9
	c0.35-4.8,2.17-5.57,6.51-3.68c8.95,3.9,16.2,10.25,23.04,16.92C-592.49-859.79-570-814-564.3-760.06c0.14,1.37,0.3,2.73,0.47,4.32
	c3.12-0.42,6.12-0.83,9.13-1.24C-555.1-756.08-555.49-755.17-555.89-754.26z"/>
<path class="st7" d="M-95.42-760.56c-2.21,0.47-4.45,0.81-6.61,1.44c-3.73,1.09-3.73,1.17-4.81-2.68
	c-6.55-23.36-15.79-45.57-28.42-66.31c-12.86-21.12-28.82-39.57-47.9-55.3c-0.46-0.38-0.93-0.73-1.42-1.06
	c-0.23-0.15-0.52-0.21-1.38-0.55c-1.18,6.25-2.56,12.3-3.44,18.42c-2,14-2.62,28.06-1.61,42.21c0.43,5.99,3.02,10.96,5.69,16.01
	c12.44,23.48,27.93,44.74,46.47,63.77c0.54,0.56,1.15,1.05,1.69,1.53c4.32-2.43,8.54-4.8,12.76-7.18c0.1,0.2,0.2,0.4,0.31,0.6
	c-6.01,4.94-12.02,9.88-18.03,14.82c-0.95-0.27-1.91-0.54-2.86-0.8c1.82-1.88,3.65-3.76,5.33-5.49
	c-6.83-7.8-14.03-15.42-20.57-23.57c-28.07-34.98-47.67-74.21-58-117.92c-1.44-6.1-2.01-12.47-2.42-18.75
	c-0.31-4.8,1.39-5.82,5.95-4.53c9.4,2.65,17.45,7.95,25.13,13.63c43.55,32.14,72.06,74.45,85.04,127.11
	c0.33,1.33,0.67,2.66,1.05,4.21c3.03-0.84,5.95-1.65,8.87-2.47C-94.88-762.46-95.15-761.51-95.42-760.56z"/>
<g>
	<g>
		<path class="st1" d="M144.84,0h30.37v343.6h-30.37C64.85,343.6,0,266.68,0,171.8C0,76.92,64.85,0,144.84,0z"/>
		<path class="st2" d="M175.21,334.28v9.32h-30.37c-33.98,0-65.21-13.92-89.92-37.16l120.28,1.32V334.28z"/>
		<path class="st3" d="M111.06,117.44L7.73,116.45c6.83-23.81,17.93-45.25,32.24-63.07l71.73,0.69L111.06,117.44z"/>
		<path class="st3" d="M111.71,42l-61.12-0.58c3.13-3.19,6.37-6.22,9.73-9.08l51.49,0.49L111.71,42z"/>
	</g>
	<ellipse class="st4" cx="175.21" cy="171.8" rx="144.84" ry="171.8"/>
	<ellipse class="st5" cx="175.21" cy="171.8" rx="140.09" ry="166.16"/>
	<path class="st3" d="M244.57,316.13L42.8,117.55c6.86-23.54,18.03-44.68,32.42-62.08L290.05,266.9
		C278.17,287.04,262.64,303.9,244.57,316.13z"/>
	<path class="st3" d="M39.98,215.19l124.16,122.2C104.37,331.84,55.15,281.83,39.98,215.19z"/>
	<path class="st3" d="M309.08,122.71L191.26,6.76c14.13,1.91,27.62,6.32,40.15,12.84l59.54,58.6
		C298.75,91.73,304.91,106.7,309.08,122.71z"/>
	<path class="st3" d="M297.84,252.14L86.02,43.67c2.55-2.5,5.2-4.86,7.9-7.15l208.4,205.11
		C300.93,245.2,299.44,248.71,297.84,252.14z"/>
	<path class="st3" d="M175.21,6.28C96.1,6.28,31.85,81.51,30.43,174.94c-0.02-1.05-0.07-2.09-0.07-3.14
		C30.37,76.92,95.21,0,175.21,0c79.99,0,144.84,76.92,144.84,171.8c0,1.05-0.05,2.09-0.07,3.14
		C318.57,81.51,254.32,6.28,175.21,6.28z"/>
	<ellipse class="st3" cx="171.99" cy="176.45" rx="99.64" ry="118.19"/>
	<ellipse class="st6" cx="175.21" cy="171.8" rx="99.64" ry="118.19"/>
	<path class="st7" d="M268.18,181.81c0-65.27-44.61-118.19-99.64-118.19c-29.76,0-56.45,15.49-74.71,40.02
		c18.05-30.26,47.76-50.03,81.38-50.03c55.03,0,99.64,52.92,99.64,118.19c0,29.98-9.43,57.33-24.93,78.16
		C261.41,230.7,268.18,207.2,268.18,181.81z"/>
</g>
<g>
	
		<ellipse transform="matrix(0.7071 -0.7071 0.7071 0.7071 -299.562 -379.6071)" class="st4" cx="-608.01" cy="171.8" rx="174.01" ry="174.01"/>
	
		<ellipse transform="matrix(0.7071 -0.7071 0.7071 0.7071 -299.562 -379.6071)" class="st5" cx="-608.01" cy="171.8" rx="169.56" ry="169.56"/>
	<path class="st3" d="M-487.78,52.25l-239.78,239.78c16.07,15.98,35.33,28.72,56.73,37.26l220.31-220.31
		C-459.06,87.58-471.8,68.32-487.78,52.25z"/>
	<path class="st3" d="M-442.72,209.55l-127.54,127.54C-506.94,322.68-457.12,272.87-442.72,209.55z"/>
	<path class="st3" d="M-691.27,24.11l-64.42,64.42c-7.1,12.56-12.67,26.1-16.39,40.39l121.2-121.2
		C-665.18,11.45-678.71,17.01-691.27,24.11z"/>
	<path class="st3" d="M-510.12,33.39l-236.3,236.3c2.75,3.89,5.65,7.66,8.72,11.3l238.87-238.87
		C-502.46,39.05-506.23,36.15-510.12,33.39z"/>
	<circle class="st3" cx="-604.67" cy="174.95" r="122.86"/>
	
		<ellipse transform="matrix(0.7071 -0.7071 0.7071 0.7071 -299.562 -379.6071)" class="st6" cx="-608.01" cy="171.8" rx="122.86" ry="122.86"/>
	<path class="st7" d="M-724.2,178.47c0-67.85,55.01-122.86,122.86-122.86c32.23,0,61.55,12.43,83.46,32.73
		c-22.44-24.22-54.51-39.4-90.13-39.4c-67.85,0-122.86,55.01-122.86,122.86c0,35.62,15.18,67.69,39.4,90.13
		C-711.77,240.02-724.2,210.7-724.2,178.47z"/>
	<path class="st3" d="M-608.01,4.46c94.98,0,172.14,76.12,173.92,170.67c0.02-1.11,0.08-2.22,0.08-3.34
		c0-96.1-77.91-174.01-174.01-174.01S-782.01,75.7-782.01,171.8c0,1.12,0.06,2.22,0.08,3.34C-780.14,80.58-702.99,4.46-608.01,4.46z
		"/>
</g>
<path class="st7" d="M-555.89,242.81c-2.25,0.17-4.52,0.2-6.74,0.53c-3.84,0.57-3.86,0.65-4.4-3.31
	c-3.31-24.03-9.45-47.29-19.14-69.56c-9.87-22.67-23.17-43.12-39.94-61.3c-0.4-0.43-0.82-0.85-1.26-1.24
	c-0.21-0.18-0.49-0.28-1.29-0.74c-2.02,6.03-4.21,11.84-5.91,17.78c-3.89,13.6-6.41,27.44-7.33,41.6c-0.39,6,1.5,11.27,3.46,16.63
	c9.13,24.95,21.59,48.12,37.37,69.49c0.46,0.62,1,1.19,1.46,1.75c4.61-1.82,9.11-3.6,13.62-5.37c0.07,0.21,0.15,0.43,0.22,0.64
	c-6.63,4.08-13.25,8.15-19.88,12.23c-0.91-0.4-1.81-0.79-2.72-1.19c2.06-1.61,4.12-3.23,6.02-4.72
	c-5.71-8.65-11.81-17.18-17.18-26.14c-23.06-38.47-37.14-80-41.43-124.71c-0.6-6.24-0.3-12.62,0.15-18.9
	c0.35-4.8,2.17-5.57,6.51-3.68c8.95,3.9,16.2,10.25,23.04,16.92c38.78,37.77,61.27,83.56,66.97,137.49c0.14,1.37,0.3,2.73,0.47,4.32
	c3.12-0.42,6.12-0.83,9.13-1.24C-555.1,241-555.49,241.9-555.89,242.81z"/>
<path class="st7" d="M243.61,236.51c-2.21,0.47-4.45,0.81-6.61,1.44c-3.73,1.09-3.73,1.17-4.81-2.68
	c-6.55-23.36-15.79-45.57-28.42-66.31c-12.86-21.12-28.82-39.57-47.9-55.3c-0.46-0.38-0.93-0.73-1.42-1.06
	c-0.23-0.15-0.52-0.21-1.38-0.55c-1.18,6.25-2.56,12.3-3.44,18.42c-2,14-2.62,28.06-1.61,42.21c0.43,5.99,3.02,10.96,5.69,16.01
	c12.44,23.48,27.93,44.74,46.47,63.77c0.54,0.56,1.15,1.05,1.69,1.53c4.32-2.43,8.54-4.8,12.76-7.18c0.1,0.2,0.2,0.4,0.31,0.6
	c-6.01,4.94-12.02,9.88-18.03,14.82c-0.95-0.27-1.91-0.54-2.86-0.8c1.82-1.88,3.65-3.76,5.33-5.49
	c-6.83-7.8-14.03-15.42-20.57-23.57c-28.07-34.98-47.67-74.21-58-117.92c-1.44-6.1-2.01-12.47-2.42-18.75
	c-0.31-4.8,1.39-5.82,5.95-4.53c9.4,2.65,17.45,7.95,25.13,13.63c43.55,32.14,72.06,74.45,85.04,127.11
	c0.33,1.33,0.67,2.66,1.05,4.21c3.03-0.84,5.95-1.65,8.87-2.47C244.15,234.61,243.88,235.56,243.61,236.51z"/>
</svg>
