<?xml version="1.0" encoding="utf-8"?>
<!-- Generator: Adobe Illustrator 24.1.0, SVG Export Plug-In . SVG Version: 6.00 Build 0)  -->
<svg version="1.1" id="Layer_1" xmlns="http://www.w3.org/2000/svg" xmlns:xlink="http://www.w3.org/1999/xlink" x="0px" y="0px"
	 viewBox="0 0 348.01 348.01" style="enable-background:new 0 0 348.01 348.01;" xml:space="preserve">
<style type="text/css">
	.st0{fill:#133441;}
	.st1{fill:#DB6402;}
	.st2{fill:#DBA97F;}
	.st3{fill:#FFFFFF;}
	.st4{fill:#FEE475;}
	.st5{fill:#FED425;}
	.st6{fill:#FEB724;}
	.st7{fill:#FB9D12;}
</style>
<rect x="-264.08" y="-1252.84" class="st0" width="3150" height="875.65"/>
<g>
	<path class="st1" d="M1641.56-994.86h-36.78v343.6h36.78c62.54,0,113.23-76.92,113.23-171.8
		C1754.8-917.95,1704.1-994.86,1641.56-994.86z"/>
	<path class="st2" d="M1604.79-660.58v9.32h36.78c26.57,0,50.98-13.92,70.29-37.16l-107.07,1.32V-660.58z"/>
	<path class="st3" d="M1667.98-877.42l80.78-0.99c-5.34-23.81-14.02-45.25-25.2-63.07l-56.07,0.69L1667.98-877.42z"/>
	<path class="st3" d="M1667.47-952.86l47.78-0.58c-2.45-3.19-4.98-6.22-7.6-9.08l-40.25,0.49L1667.47-952.86z"/>
	<ellipse class="st4" cx="1604.79" cy="-823.06" rx="113.24" ry="171.8"/>
	<ellipse class="st5" cx="1604.79" cy="-823.06" rx="109.52" ry="166.16"/>
	<path class="st3" d="M1550.56-678.73l157.74-198.59c-5.36-23.54-14.09-44.68-25.35-62.08l-167.95,211.43
		C1524.29-707.82,1536.44-690.97,1550.56-678.73z"/>
	<path class="st3" d="M1710.5-779.67l-97.06,122.2C1660.17-663.02,1698.65-713.03,1710.5-779.67z"/>
	<path class="st3" d="M1500.13-872.15l92.1-115.95c-11.05,1.91-21.59,6.32-31.39,12.84l-46.54,58.6
		C1508.21-903.13,1503.39-888.16,1500.13-872.15z"/>
	<path class="st3" d="M1508.92-742.73l165.59-208.47c-1.99-2.5-4.07-4.86-6.18-7.15l-162.92,205.11
		C1506.51-749.66,1507.67-746.15,1508.92-742.73z"/>
	<path class="st3" d="M1604.79-988.58c61.84,0,112.07,75.23,113.18,168.66c0.01-1.05,0.05-2.09,0.05-3.14
		c0-94.88-50.7-171.8-113.24-171.8c-62.54,0-113.23,76.92-113.23,171.8c0,1.05,0.04,2.09,0.05,3.14
		C1492.71-913.35,1542.94-988.58,1604.79-988.58z"/>
	<ellipse class="st3" cx="1607.31" cy="-818.41" rx="77.9" ry="118.19"/>
	<ellipse class="st6" cx="1604.79" cy="-823.06" rx="77.9" ry="118.19"/>
	<path class="st7" d="M1536.89-819.73c0-65.27,34.88-118.19,77.9-118.19c3.95,0,7.83,0.45,11.62,1.31
		c-6.87-3.01-14.12-4.65-21.63-4.65c-43.02,0-77.9,52.92-77.9,118.19c0,59.28,28.77,108.36,66.28,116.87
		C1560.67-720.41,1536.89-765.84,1536.89-819.73z"/>
</g>
<g>
	<g>
		<path class="st1" d="M2034.01-994.86h-30.37v343.6h30.37c80,0,144.84-76.92,144.84-171.8
			C2178.85-917.95,2114-994.86,2034.01-994.86z"/>
		<path class="st2" d="M2003.64-660.58v9.32h30.37c33.98,0,65.21-13.92,89.92-37.16l-120.28,1.32V-660.58z"/>
		<path class="st3" d="M2067.79-877.42l103.33-0.99c-6.83-23.81-17.93-45.25-32.24-63.07l-71.73,0.69L2067.79-877.42z"/>
		<path class="st3" d="M2067.14-952.86l61.12-0.58c-3.13-3.19-6.37-6.22-9.73-9.08l-51.49,0.49L2067.14-952.86z"/>
	</g>
	<ellipse class="st4" cx="2003.64" cy="-823.06" rx="144.84" ry="171.8"/>
	<ellipse class="st5" cx="2003.64" cy="-823.06" rx="140.09" ry="166.16"/>
	<path class="st3" d="M1934.28-678.73l201.77-198.59c-6.86-23.54-18.03-44.68-32.42-62.08L1888.8-727.96
		C1900.67-707.82,1916.21-690.97,1934.28-678.73z"/>
	<path class="st3" d="M2138.87-779.67l-124.16,122.2C2074.48-663.02,2123.7-713.03,2138.87-779.67z"/>
	<path class="st3" d="M1869.77-872.15l117.81-115.95c-14.13,1.91-27.62,6.32-40.15,12.84l-59.54,58.6
		C1880.1-903.13,1873.94-888.16,1869.77-872.15z"/>
	<path class="st3" d="M1881.01-742.73l211.81-208.47c-2.55-2.5-5.2-4.86-7.9-7.15l-208.4,205.11
		C1877.92-749.66,1879.41-746.15,1881.01-742.73z"/>
	<path class="st3" d="M2003.64-988.58c79.11,0,143.36,75.23,144.78,168.66c0.02-1.05,0.07-2.09,0.07-3.14
		c0-94.88-64.85-171.8-144.84-171.8c-79.99,0-144.84,76.92-144.84,171.8c0,1.05,0.05,2.09,0.07,3.14
		C1860.28-913.35,1924.53-988.58,2003.64-988.58z"/>
	<ellipse class="st3" cx="2006.86" cy="-818.41" rx="99.64" ry="118.19"/>
	<ellipse class="st6" cx="2003.64" cy="-823.06" rx="99.64" ry="118.19"/>
	<path class="st7" d="M1910.67-813.06c0-65.27,44.61-118.19,99.64-118.19c29.76,0,56.45,15.49,74.71,40.02
		c-18.05-30.26-47.76-50.03-81.38-50.03c-55.03,0-99.64,52.92-99.64,118.19c0,29.98,9.43,57.33,24.93,78.16
		C1917.44-764.16,1910.67-787.67,1910.67-813.06z"/>
</g>
<g>
	<rect x="1283.92" y="-996.08" class="st1" width="53.99" height="346.04"/>
	<rect x="1283.92" y="-926.85" class="st3" width="53.99" height="65.94"/>
	<rect x="1283.92" y="-726.5" class="st2" width="53.99" height="60.01"/>
	<rect x="1283.92" y="-659.42" class="st3" width="53.99" height="9.38"/>
	<rect x="1283.92" y="-951.29" class="st3" width="53.99" height="12.35"/>
	<polygon class="st3" points="1283.92,-996.08 1283.92,-884.44 1287.26,-991.75 1334.58,-991.75 1337.91,-884.44 1337.91,-996.08 	
		"/>
</g>
<g>
	
		<ellipse transform="matrix(0.7071 -0.7071 0.7071 0.7071 1298.9457 1489.8051)" class="st4" cx="2447.83" cy="-823.06" rx="174.01" ry="174.01"/>
	
		<ellipse transform="matrix(0.7071 -0.7071 0.7071 0.7071 1298.9457 1489.8051)" class="st5" cx="2447.83" cy="-823.06" rx="169.56" ry="169.56"/>
	<path class="st3" d="M2568.06-942.61l-239.78,239.78c16.07,15.98,35.33,28.72,56.73,37.26l220.31-220.31
		C2596.77-907.28,2584.03-926.55,2568.06-942.61z"/>
	<path class="st3" d="M2613.12-785.31l-127.54,127.54C2548.9-672.18,2598.71-721.99,2613.12-785.31z"/>
	<path class="st3" d="M2364.56-970.75l-64.42,64.42c-7.1,12.56-12.67,26.1-16.39,40.39l121.2-121.2
		C2390.66-983.42,2377.12-977.85,2364.56-970.75z"/>
	<path class="st3" d="M2545.72-961.47l-236.3,236.3c2.75,3.89,5.65,7.66,8.72,11.3l238.87-238.87
		C2553.38-955.82,2549.6-958.72,2545.72-961.47z"/>
	<circle class="st3" cx="2451.16" cy="-819.92" r="122.86"/>
	
		<ellipse transform="matrix(0.7071 -0.7071 0.7071 0.7071 1298.9457 1489.8051)" class="st6" cx="2447.83" cy="-823.06" rx="122.86" ry="122.86"/>
	<path class="st7" d="M2331.64-816.39c0-67.85,55.01-122.86,122.86-122.86c32.23,0,61.55,12.43,83.46,32.73
		c-22.44-24.22-54.51-39.4-90.13-39.4c-67.85,0-122.86,55.01-122.86,122.86c0,35.62,15.18,67.69,39.4,90.13
		C2344.06-754.85,2331.64-784.16,2331.64-816.39z"/>
	<path class="st3" d="M2447.83-990.4c94.98,0,172.14,76.12,173.92,170.67c0.02-1.11,0.08-2.22,0.08-3.34
		c0-96.1-77.91-174.01-174.01-174.01c-96.1,0-174.01,77.91-174.01,174.01c0,1.12,0.06,2.22,0.08,3.34
		C2275.69-914.28,2352.84-990.4,2447.83-990.4z"/>
</g>
<g>
	<path class="st1" d="M980.27-994.86h36.78v343.6h-36.78c-62.54,0-113.23-76.92-113.23-171.8
		C867.03-917.95,917.73-994.86,980.27-994.86z"/>
	<path class="st2" d="M1017.05-660.58v9.32h-36.78c-26.57,0-50.98-13.92-70.29-37.16l107.07,1.32V-660.58z"/>
	<path class="st3" d="M953.85-877.42l-80.78-0.99c5.34-23.81,14.02-45.25,25.2-63.07l56.07,0.69L953.85-877.42z"/>
	<path class="st3" d="M954.36-952.86l-47.78-0.58c2.45-3.19,4.98-6.22,7.6-9.08l40.25,0.49L954.36-952.86z"/>
	<ellipse class="st4" cx="1017.05" cy="-823.06" rx="113.24" ry="171.8"/>
	<ellipse class="st5" cx="1017.05" cy="-823.06" rx="109.52" ry="166.16"/>
	<path class="st3" d="M1071.27-678.73L913.54-877.31c5.36-23.54,14.09-44.68,25.35-62.08l167.95,211.43
		C1097.54-707.82,1085.4-690.97,1071.27-678.73z"/>
	<path class="st3" d="M911.33-779.67l97.06,122.2C961.66-663.02,923.18-713.03,911.33-779.67z"/>
	<path class="st3" d="M1121.7-872.15l-92.1-115.95c11.05,1.91,21.59,6.32,31.39,12.84l46.54,58.6
		C1113.63-903.13,1118.44-888.16,1121.7-872.15z"/>
	<path class="st3" d="M1112.91-742.73L947.32-951.19c1.99-2.5,4.07-4.86,6.18-7.15l162.92,205.11
		C1115.33-749.66,1114.16-746.15,1112.91-742.73z"/>
	<path class="st3" d="M1017.05-988.58c-61.84,0-112.07,75.23-113.18,168.66c-0.01-1.05-0.05-2.09-0.05-3.14
		c0-94.88,50.7-171.8,113.24-171.8c62.54,0,113.23,76.92,113.23,171.8c0,1.05-0.04,2.09-0.05,3.14
		C1129.12-913.35,1078.89-988.58,1017.05-988.58z"/>
	<ellipse class="st3" cx="1014.53" cy="-818.41" rx="77.9" ry="118.19"/>
	<ellipse class="st6" cx="1017.05" cy="-823.06" rx="77.9" ry="118.19"/>
	<path class="st7" d="M1084.94-819.73c0-65.27-34.88-118.19-77.9-118.19c-3.95,0-7.83,0.45-11.62,1.31
		c6.87-3.01,14.12-4.65,21.63-4.65c43.02,0,77.9,52.92,77.9,118.19c0,59.28-28.77,108.36-66.28,116.87
		C1061.16-720.41,1084.94-765.84,1084.94-819.73z"/>
</g>
<g>
	<g>
		<path class="st1" d="M587.83-994.86h30.37v343.6h-30.37c-80,0-144.84-76.92-144.84-171.8
			C442.98-917.95,507.83-994.86,587.83-994.86z"/>
		<path class="st2" d="M618.19-660.58v9.32h-30.37c-33.98,0-65.21-13.92-89.92-37.16l120.28,1.32V-660.58z"/>
		<path class="st3" d="M554.04-877.42l-103.33-0.99c6.83-23.81,17.93-45.25,32.24-63.07l71.73,0.69L554.04-877.42z"/>
		<path class="st3" d="M554.69-952.86l-61.12-0.58c3.13-3.19,6.37-6.22,9.73-9.08l51.49,0.49L554.69-952.86z"/>
	</g>
	<ellipse class="st4" cx="618.19" cy="-823.06" rx="144.84" ry="171.8"/>
	<ellipse class="st5" cx="618.19" cy="-823.06" rx="140.09" ry="166.16"/>
	<path class="st3" d="M687.56-678.73L485.79-877.31c6.86-23.54,18.03-44.68,32.42-62.08l214.83,211.43
		C721.16-707.82,705.62-690.97,687.56-678.73z"/>
	<path class="st3" d="M482.96-779.67l124.16,122.2C547.35-663.02,498.13-713.03,482.96-779.67z"/>
	<path class="st3" d="M752.06-872.15L634.25-988.1c14.13,1.91,27.62,6.32,40.15,12.84l59.54,58.6
		C741.73-903.13,747.89-888.16,752.06-872.15z"/>
	<path class="st3" d="M740.82-742.73L529.01-951.19c2.55-2.5,5.2-4.86,7.9-7.15l208.4,205.11
		C743.91-749.66,742.42-746.15,740.82-742.73z"/>
	<path class="st3" d="M618.19-988.58c-79.11,0-143.36,75.23-144.78,168.66c-0.02-1.05-0.07-2.09-0.07-3.14
		c0-94.88,64.85-171.8,144.84-171.8c79.99,0,144.84,76.92,144.84,171.8c0,1.05-0.05,2.09-0.07,3.14
		C761.55-913.35,697.3-988.58,618.19-988.58z"/>
	<ellipse class="st3" cx="614.97" cy="-818.41" rx="99.64" ry="118.19"/>
	<ellipse class="st6" cx="618.19" cy="-823.06" rx="99.64" ry="118.19"/>
	<path class="st7" d="M711.17-813.06c0-65.27-44.61-118.19-99.64-118.19c-29.76,0-56.45,15.49-74.71,40.02
		c18.05-30.26,47.76-50.03,81.38-50.03c55.03,0,99.64,52.92,99.64,118.19c0,29.98-9.43,57.33-24.93,78.16
		C704.39-764.16,711.17-787.67,711.17-813.06z"/>
</g>
<g>
	
		<ellipse transform="matrix(0.7071 -0.7071 0.7071 0.7071 632.9592 -118.0284)" class="st4" cx="174.01" cy="-823.06" rx="174.01" ry="174.01"/>
	
		<ellipse transform="matrix(0.7071 -0.7071 0.7071 0.7071 632.9592 -118.0284)" class="st5" cx="174.01" cy="-823.06" rx="169.56" ry="169.56"/>
	<path class="st3" d="M294.24-942.61L54.46-702.84c16.07,15.98,35.33,28.72,56.73,37.26L331.5-885.88
		C322.95-907.28,310.21-926.55,294.24-942.61z"/>
	<path class="st3" d="M339.3-785.31L211.76-657.78C275.08-672.18,324.89-721.99,339.3-785.31z"/>
	<path class="st3" d="M90.74-970.75l-64.42,64.42c-7.1,12.56-12.67,26.1-16.39,40.39l121.2-121.2
		C116.84-983.42,103.3-977.85,90.74-970.75z"/>
	<path class="st3" d="M271.9-961.47L35.6-725.17c2.75,3.89,5.65,7.66,8.72,11.3l238.87-238.87
		C279.56-955.82,275.78-958.72,271.9-961.47z"/>
	<circle class="st3" cx="177.34" cy="-819.92" r="122.86"/>
	
		<ellipse transform="matrix(0.7071 -0.7071 0.7071 0.7071 632.9592 -118.0284)" class="st6" cx="174.01" cy="-823.06" rx="122.86" ry="122.86"/>
	<path class="st7" d="M57.82-816.39c0-67.85,55.01-122.86,122.86-122.86c32.23,0,61.55,12.43,83.46,32.73
		c-22.44-24.22-54.51-39.4-90.13-39.4c-67.85,0-122.86,55.01-122.86,122.86c0,35.62,15.18,67.69,39.4,90.13
		C70.24-754.85,57.82-784.16,57.82-816.39z"/>
	<path class="st3" d="M174.01-990.4c94.98,0,172.14,76.12,173.92,170.67c0.02-1.11,0.08-2.22,0.08-3.34
		c0-96.1-77.91-174.01-174.01-174.01S0-919.16,0-823.06c0,1.12,0.06,2.22,0.08,3.34C1.87-914.28,79.02-990.4,174.01-990.4z"/>
</g>
<path class="st7" d="M226.13-752.05c-2.25,0.17-4.52,0.2-6.74,0.53c-3.84,0.57-3.86,0.65-4.4-3.31
	c-3.31-24.03-9.45-47.29-19.14-69.56c-9.87-22.67-23.17-43.12-39.94-61.3c-0.4-0.43-0.82-0.85-1.26-1.24
	c-0.21-0.18-0.49-0.28-1.29-0.74c-2.02,6.03-4.21,11.84-5.91,17.78c-3.89,13.6-6.41,27.44-7.33,41.6c-0.39,6,1.5,11.27,3.46,16.63
	c9.13,24.95,21.59,48.12,37.37,69.49c0.46,0.62,1,1.19,1.46,1.75c4.61-1.82,9.11-3.6,13.62-5.37c0.07,0.21,0.15,0.43,0.22,0.64
	c-6.63,4.08-13.25,8.15-19.88,12.23c-0.91-0.4-1.81-0.79-2.72-1.19c2.06-1.61,4.12-3.23,6.02-4.72
	c-5.71-8.65-11.81-17.18-17.18-26.14c-23.06-38.47-37.14-80-41.43-124.71c-0.6-6.24-0.3-12.62,0.15-18.9
	c0.35-4.8,2.17-5.57,6.51-3.68c8.95,3.9,16.2,10.25,23.04,16.92c38.78,37.77,61.27,83.56,66.97,137.49c0.14,1.37,0.3,2.73,0.47,4.32
	c3.12-0.42,6.12-0.83,9.13-1.24C226.92-753.87,226.52-752.96,226.13-752.05z"/>
<path class="st7" d="M686.59-758.35c-2.21,0.47-4.45,0.81-6.61,1.44c-3.73,1.09-3.73,1.17-4.81-2.68
	c-6.55-23.36-15.79-45.57-28.42-66.31c-12.86-21.12-28.82-39.57-47.9-55.3c-0.46-0.38-0.93-0.73-1.42-1.06
	c-0.23-0.15-0.52-0.21-1.38-0.55c-1.18,6.25-2.56,12.3-3.44,18.42c-2,14-2.62,28.06-1.61,42.21c0.43,5.99,3.02,10.96,5.69,16.01
	c12.44,23.48,27.93,44.73,46.47,63.77c0.54,0.56,1.15,1.05,1.69,1.53c4.32-2.43,8.54-4.8,12.76-7.18c0.1,0.2,0.2,0.4,0.31,0.6
	c-6.01,4.94-12.02,9.88-18.03,14.82c-0.95-0.27-1.91-0.54-2.86-0.8c1.82-1.88,3.65-3.76,5.33-5.49
	c-6.83-7.8-14.03-15.42-20.57-23.57c-28.07-34.98-47.67-74.21-58-117.92c-1.44-6.1-2.01-12.47-2.42-18.75
	c-0.31-4.8,1.39-5.82,5.95-4.53c9.4,2.65,17.45,7.95,25.13,13.63c43.55,32.14,72.06,74.45,85.04,127.11
	c0.33,1.33,0.67,2.66,1.05,4.21c3.03-0.84,5.95-1.65,8.87-2.47C687.13-760.26,686.86-759.3,686.59-758.35z"/>
<g>
	<g>
		<path class="st1" d="M926.86,2.21h30.37v343.6h-30.37c-80,0-144.84-76.92-144.84-171.8C782.01,79.12,846.86,2.21,926.86,2.21z"/>
		<path class="st2" d="M957.22,336.49v9.32h-30.37c-33.98,0-65.21-13.92-89.92-37.16l120.28,1.32V336.49z"/>
		<path class="st3" d="M893.07,119.65l-103.33-0.99c6.83-23.81,17.93-45.25,32.24-63.07l71.73,0.69L893.07,119.65z"/>
		<path class="st3" d="M893.72,44.21l-61.12-0.58c3.13-3.19,6.37-6.22,9.73-9.08l51.49,0.49L893.72,44.21z"/>
	</g>
	<ellipse class="st4" cx="957.22" cy="174.01" rx="144.84" ry="171.8"/>
	<ellipse class="st5" cx="957.22" cy="174.01" rx="140.09" ry="166.16"/>
	<path class="st3" d="M1026.59,318.34L824.82,119.76c6.86-23.54,18.03-44.68,32.42-62.08l214.83,211.43
		C1060.19,289.25,1044.65,306.1,1026.59,318.34z"/>
	<path class="st3" d="M822,217.4l124.16,122.2C886.38,334.05,837.16,284.04,822,217.4z"/>
	<path class="st3" d="M1091.09,124.92L973.28,8.97c14.13,1.91,27.62,6.32,40.15,12.84l59.54,58.6
		C1080.76,93.94,1086.92,108.91,1091.09,124.92z"/>
	<path class="st3" d="M1079.85,254.34L868.04,45.88c2.55-2.5,5.2-4.86,7.9-7.15l208.4,205.11
		C1082.94,247.41,1081.45,250.92,1079.85,254.34z"/>
	<path class="st3" d="M957.22,8.49c-79.11,0-143.36,75.23-144.78,168.66c-0.02-1.05-0.07-2.09-0.07-3.14
		c0-94.88,64.85-171.8,144.84-171.8c79.99,0,144.84,76.92,144.84,171.8c0,1.05-0.05,2.09-0.07,3.14
		C1100.58,83.72,1036.33,8.49,957.22,8.49z"/>
	<ellipse class="st3" cx="954" cy="178.66" rx="99.64" ry="118.19"/>
	<ellipse class="st6" cx="957.22" cy="174.01" rx="99.64" ry="118.19"/>
	<path class="st7" d="M1050.2,184.01c0-65.27-44.61-118.19-99.64-118.19c-29.76,0-56.45,15.49-74.71,40.02
		c18.05-30.26,47.76-50.03,81.38-50.03c55.03,0,99.64,52.92,99.64,118.19c0,29.98-9.43,57.33-24.93,78.16
		C1043.42,232.91,1050.2,209.41,1050.2,184.01z"/>
</g>
<g>
	
		<ellipse transform="matrix(0.7071 -0.7071 0.7071 0.7071 -72.0761 174.0069)" class="st4" cx="174.01" cy="174.01" rx="174.01" ry="174.01"/>
	
		<ellipse transform="matrix(0.7071 -0.7071 0.7071 0.7071 -72.0761 174.0069)" class="st5" cx="174.01" cy="174.01" rx="169.56" ry="169.56"/>
	<path class="st3" d="M294.24,54.46L54.46,294.23c16.07,15.98,35.33,28.72,56.73,37.26L331.5,111.19
		C322.95,89.79,310.21,70.53,294.24,54.46z"/>
	<path class="st3" d="M339.3,211.76L211.76,339.3C275.08,324.89,324.89,275.08,339.3,211.76z"/>
	<path class="st3" d="M90.74,26.32L26.32,90.74c-7.1,12.56-12.67,26.1-16.39,40.39l121.2-121.2
		C116.84,13.65,103.3,19.22,90.74,26.32z"/>
	<path class="st3" d="M271.9,35.6L35.6,271.9c2.75,3.89,5.65,7.66,8.72,11.3L283.19,44.32C279.56,41.25,275.78,38.36,271.9,35.6z"/>
	<circle class="st3" cx="177.34" cy="177.15" r="122.86"/>
	
		<ellipse transform="matrix(0.7071 -0.7071 0.7071 0.7071 -72.0761 174.0069)" class="st6" cx="174.01" cy="174.01" rx="122.86" ry="122.86"/>
	<path class="st7" d="M57.82,180.68c0-67.85,55.01-122.86,122.86-122.86c32.23,0,61.55,12.43,83.46,32.73
		c-22.44-24.22-54.51-39.4-90.13-39.4c-67.85,0-122.86,55.01-122.86,122.86c0,35.62,15.18,67.69,39.4,90.13
		C70.24,242.23,57.82,212.91,57.82,180.68z"/>
	<path class="st3" d="M174.01,6.67c94.98,0,172.14,76.12,173.92,170.67c0.02-1.11,0.08-2.22,0.08-3.34
		C348.01,77.91,270.11,0,174.01,0S0,77.91,0,174.01c0,1.12,0.06,2.22,0.08,3.34C1.87,82.79,79.02,6.67,174.01,6.67z"/>
</g>
<path class="st7" d="M226.13,245.02c-2.25,0.17-4.52,0.2-6.74,0.53c-3.84,0.57-3.86,0.65-4.4-3.31
	c-3.31-24.03-9.45-47.29-19.14-69.56c-9.87-22.67-23.17-43.12-39.94-61.3c-0.4-0.43-0.82-0.85-1.26-1.24
	c-0.21-0.18-0.49-0.28-1.29-0.74c-2.02,6.03-4.21,11.84-5.91,17.78c-3.89,13.6-6.41,27.44-7.33,41.6c-0.39,6,1.5,11.27,3.46,16.63
	c9.13,24.95,21.59,48.12,37.37,69.49c0.46,0.62,1,1.19,1.46,1.75c4.61-1.82,9.11-3.6,13.62-5.37c0.07,0.21,0.15,0.43,0.22,0.64
	c-6.63,4.08-13.25,8.15-19.88,12.23c-0.91-0.4-1.81-0.79-2.72-1.19c2.06-1.61,4.12-3.23,6.02-4.72
	c-5.71-8.65-11.81-17.18-17.18-26.14c-23.06-38.47-37.14-80-41.43-124.71c-0.6-6.24-0.3-12.62,0.15-18.9
	c0.35-4.8,2.17-5.57,6.51-3.68c8.95,3.9,16.2,10.25,23.04,16.92c38.78,37.77,61.27,83.56,66.97,137.49c0.14,1.37,0.3,2.73,0.47,4.32
	c3.12-0.42,6.12-0.83,9.13-1.24C226.92,243.2,226.52,244.11,226.13,245.02z"/>
<path class="st7" d="M1025.63,238.72c-2.21,0.47-4.45,0.81-6.61,1.44c-3.73,1.09-3.73,1.17-4.81-2.68
	c-6.55-23.36-15.79-45.57-28.42-66.31c-12.86-21.12-28.82-39.57-47.9-55.3c-0.46-0.38-0.93-0.73-1.42-1.06
	c-0.23-0.15-0.52-0.21-1.38-0.55c-1.18,6.25-2.56,12.3-3.44,18.42c-2.01,14-2.62,28.06-1.61,42.21c0.43,5.99,3.02,10.96,5.69,16.01
	c12.44,23.48,27.93,44.74,46.47,63.77c0.54,0.56,1.15,1.05,1.69,1.53c4.32-2.43,8.54-4.8,12.76-7.18c0.1,0.2,0.2,0.4,0.31,0.6
	c-6.01,4.94-12.02,9.88-18.03,14.82c-0.95-0.27-1.91-0.54-2.86-0.8c1.82-1.88,3.65-3.76,5.33-5.49
	c-6.83-7.8-14.03-15.42-20.57-23.57c-28.07-34.98-47.67-74.21-58-117.92c-1.44-6.1-2.01-12.47-2.42-18.75
	c-0.31-4.8,1.39-5.82,5.95-4.53c9.4,2.65,17.45,7.95,25.13,13.63c43.55,32.14,72.06,74.45,85.04,127.11
	c0.33,1.33,0.67,2.66,1.05,4.21c3.03-0.84,5.95-1.65,8.87-2.47C1026.16,236.81,1025.89,237.77,1025.63,238.72z"/>
</svg>
