<svg height="509pt" viewBox="-31 0 509 509.5" width="509pt" xmlns="http://www.w3.org/2000/svg"><path d="m319.910156 218.519531v147.960938c0 32.238281-26.140625 58.378906-58.378906 58.378906h-75c-32.242188 0-58.382812-26.140625-58.382812-58.378906v-147.960938c0-32.21875 26.140624-58.359375 58.382812-58.359375h.199219c5.519531 0 10-4.480468 10-10v-23.140625h54.597656v23.140625c0 5.519532 4.480469 10 10 10h.203125c32.238281 0 58.378906 26.140625 58.378906 58.359375zm0 0" fill="#d73735"/><path d="m49.292969 92.78125h349.472656v14.316406h-349.472656zm0 0" fill="#d8d6d7"/><path d="m253.628906 442.601562v32.757813c0 10.960937-5.9375 20.519531-14.777344 25.640625-4.363281 2.539062-9.421874 3.980469-14.820312 3.980469-16.359375 0-29.601562-13.261719-29.601562-29.621094v-32.757813c0-16.339843 13.242187-29.601562 29.601562-29.601562 5.398438 0 10.457031 1.441406 14.820312 3.980469 2.238282 1.300781 4.296876 2.878906 6.117188 4.699219 5.339844 5.339843 8.660156 12.742187 8.660156 20.921874zm0 0" fill="#1c868e"/><path d="m253.628906 442.601562v32.757813c0 10.960937-5.9375 20.519531-14.777344 25.640625-8.863281-5.101562-14.820312-14.679688-14.820312-25.640625v-32.757813c0-10.960937 5.957031-20.523437 14.820312-25.621093 2.238282 1.300781 4.296876 2.878906 6.117188 4.699219 5.339844 5.339843 8.660156 12.742187 8.660156 20.921874zm0 0" fill="#40c4df"/><path d="m319.910156 218.519531v147.960938c0 32.238281-26.140625 58.378906-58.378906 58.378906h-35c-32.242188 0-58.382812-26.140625-58.382812-58.378906v-147.960938c0-32.21875 26.140624-58.359375 58.382812-58.359375h.199219c5.519531 0 10-4.480468 10-10v-23.140625h14.597656v23.140625c0 5.519532 4.480469 10 10 10h.203125c32.238281 0 58.378906 26.140625 58.378906 58.359375zm0 0" fill="#f85252"/><path d="m420.367188 32.828125c0 15.917969-12.902344 28.820313-28.820313 28.820313-15.914063 0-28.820313-12.902344-28.820313-28.820313s12.90625-28.820313 28.820313-28.820313c15.917969 0 28.820313 12.902344 28.820313 28.820313zm0 0" fill="#d8d6d7"/><path d="m85.332031 32.828125c0 15.917969-12.902343 28.820313-28.820312 28.820313s-28.820313-12.902344-28.820313-28.820313 12.902344-28.820313 28.820313-28.820313 28.820312 12.902344 28.820312 28.820313zm0 0" fill="#d8d6d7"/><path d="m276.871094 127.210938h.160156c-.0625 0-.140625 0-.222656.019531zm0 0" fill="#d73735"/><path d="m348.269531 107.148438c-2.738281 9.082031-10.839843 15.839843-20.757812 16.542968-83.351563 5.792969-36.910157 3.578125-51.320313 3.578125h-.203125l-.019531.019531c-.019531-.019531-.320312.019532-.339844.019532-12.5 1.441406-10.058594 9.5625-26.558594 18.542968-1.140624.617188-2.28125 1.179688-3.460937 1.699219-20.9375 9.4375-46.878906 4.4375-62.539063-15.019531-6.480468-8.082031-13.699218-4.179688-62.519531-8.839844-6.140625-.421875-11.582031-3.179687-15.5-7.382812-6.058593-6.484375-6.609375-15.085938-6.28125-15.738282 0-6.089843 2.46875-12.03125 6.019531-15.859374 8.359376-9.523438 13.769532-7.550782 65.800782-11.019532.199218-.015625 1.019531-.074218.820312-.0625 4.101563-.277344 8-2.21875 10.460938-5.5 21.058594-28.277344 63.21875-28.320312 84.320312 0 6.457032 8.613282 14.5625 4.425782 61.238282 8.839844 14.980468.980469 25.261718 15.742188 20.839843 30.179688zm0 0" fill="#d73735"/><path d="m348.269531 107.148438c-2.738281 9.082031-10.839843 15.839843-20.757812 16.542968-83.351563 5.792969-36.910157 3.578125-51.320313 3.578125h-.203125l-.019531.019531c-.019531-.019531-.320312.019532-.339844.019532-12.5 1.441406-10.058594 9.5625-26.558594 18.542968-1.140624.617188-2.28125 1.179688-3.460937 1.699219-17.160156-5.582031-33.058594-16.082031-45.460937-31.480469-4.617188-5.742187-11.558594-9.058593-18.878907-9.558593l-82.5-5.761719v-.058594c0-.042968-.019531-.082031 0-.121094 0-6.089843 2.46875-12.03125 6.019531-15.859374 8.359376-9.523438 13.769532-7.550782 65.800782-11.019532.199218-.015625 1.019531-.074218.820312-.0625 4.101563-.277344 8-2.21875 10.460938-5.5 21.058594-28.277344 63.21875-28.320312 84.320312 0 6.457032 8.613282 14.5625 4.425782 61.238282 8.839844 14.980468.980469 25.261718 15.742188 20.839843 30.179688zm0 0" fill="#f85252"/><path d="m251.511719 99.539062c0 11.621094-7.261719 21.582032-17.480469 25.601563-3.101562 1.21875-6.460938 1.878906-10 1.878906-15.160156 0-27.480469-12.320312-27.480469-27.480469 0-15.160156 12.320313-27.480468 27.480469-27.480468 3.539062 0 6.898438.660156 10 1.882812 10.21875 4.019532 17.480469 13.980469 17.480469 25.597656zm0 0" fill="#edaf85"/><path d="m251.511719 99.539062c0-14.136718-7.828125-25.597656-17.480469-25.597656-9.65625 0-17.480469 11.460938-17.480469 25.597656 0 14.140626 7.824219 25.601563 17.480469 25.601563 9.652344 0 17.480469-11.460937 17.480469-25.601563zm0 0" fill="#f7c09a"/><path d="m64.820312 113.429688h-49.582031c-6.074219 0-11-4.921876-11-11v-5.789063c0-6.078125 4.925781-11 11-11h49.578125c6.078125 0 11 4.921875 11 11v5.789063c.003906 6.078124-4.921875 11-10.996094 11zm0 0" fill="#1c868e"/><path d="m432.820312 113.429688h-49.578124c-6.078126 0-11-4.921876-11-11v-5.789063c0-6.078125 4.921874-11 11-11h49.578124c6.074219 0 11 4.921875 11 11v5.789063c0 6.078124-4.925781 11-11 11zm0 0" fill="#1c868e"/><path d="m275.191406 387.039062v54.78125c0 5.519532-4.480468 10-10 10h-82.320312c-5.519532 0-10-4.480468-10-10v-54.78125c0-28.257812 22.898437-51.160156 51.160156-51.160156 7.097656 0 13.839844 1.441406 20 4.0625 6.078125 2.578125 11.578125 6.320313 16.179688 10.917969 9.257812 9.261719 14.980468 22.039063 14.980468 36.179687zm0 0" fill="#d73735"/><path d="m275.191406 387.039062v54.78125c0 5.519532-4.480468 10-10 10h-42.320312c-5.519532 0-10-4.480468-10-10v-54.78125c0-21.160156 12.839844-39.320312 31.160156-47.097656 6.078125 2.578125 11.578125 6.320313 16.179688 10.917969 9.257812 9.261719 14.980468 22.039063 14.980468 36.179687zm0 0" fill="#f85252"/><g fill="#491352"><path d="m224.03125 68.058594c-17.359375 0-31.480469 14.121094-31.480469 31.480468 0 17.359376 14.121094 31.480469 31.480469 31.480469s31.480469-14.121093 31.480469-31.480469c0-17.359374-14.121094-31.480468-31.480469-31.480468zm0 54.960937c-12.941406 0-23.480469-10.539062-23.480469-23.480469 0-12.960937 10.539063-23.480468 23.480469-23.480468 12.9375 0 23.480469 10.519531 23.480469 23.480468 0 12.941407-10.542969 23.480469-23.480469 23.480469zm0 0"/><path d="m432.808594 81.640625h-49.558594c-5.398438 0-10.121094 2.859375-12.761719 7.140625h-19.796875c-7.5-16.019531-24.019531-15.800781-24.242187-15.882812 18.539062-30.378907 17.839843-36.136719 24.359375-36.136719h8.179687c1.941407 16.238281 15.800781 28.878906 32.5625 28.878906 18.097657 0 32.820313-14.71875 32.820313-32.820313 0-18.082031-14.722656-32.820312-32.820313-32.820312-16.722656 0-30.519531 12.578125-32.539062 28.761719-4.023438.617187-15.082031-2.660157-20.722657 7.257812l-20.71875 36.300781c-38-3.519531-43.582031-.441406-48.160156-6.582031-22.699218-30.457031-68.039062-30.457031-90.761718 0-4.597657 6.160157-10.796876 3.121094-48.160157 6.582031l-20.71875-36.300781c-5.660156-9.941406-16.640625-6.640625-20.71875-7.257812-2.019531-16.183594-15.820312-28.761719-32.539062-28.761719-18.101563 0-32.820313 14.738281-32.820313 32.820312 0 18.101563 14.71875 32.820313 32.820313 32.820313 16.757812 0 30.617187-12.640625 32.558593-28.878906 5.441407.539062 10.980469-1.660157 13.738282 3.21875l18.800781 32.917969c-.199219.082031-16.699219-.199219-24.238281 15.882812h-19.800782c-2.640624-4.28125-7.359374-7.140625-12.761718-7.140625h-49.558594c-8.28125 0-15 6.71875-15 15v5.800781c0 8.257813 6.71875 15 15 15h49.558594c5.042968 0 9.5-2.519531 12.222656-6.339844h19.980469c3.9375 9.160157 12.757812 15.839844 23.257812 16.578126 50.839844 4.558593 54.960938 1.480468 59.679688 7.339843 3.699219 4.601563 8.019531 8.5 12.78125 11.679688v3.460937c0 3.261719-2.660157 5.960938-5.859375 6h-.339844c-34.402344 0-62.382812 27.980469-62.382812 62.359375v147.960938c0 27.917969 18.242187 52.058593 44.722656 59.820312v15.519531c0 7.71875 6.277344 14 14 14h7.558594v20.078126c0 18.523437 15.058593 33.601562 33.601562 33.601562 18.539062 0 33.597656-15.078125 33.597656-33.601562v-20.078126h7.5625c7.71875 0 14-6.28125 14-14v-15.519531c26.480469-7.761719 44.71875-31.902343 44.71875-59.820312v-147.960938c0-34.378906-27.980468-62.359375-62.582031-62.359375-3.296875 0-6-2.699218-6-6v-3.460937c4.761719-3.179688 9.082031-7.078125 12.78125-11.679688 4.71875-5.859375 8.800781-2.757812 59.679687-7.339843 10.5-.738282 19.320313-7.417969 23.261719-16.578126h19.980469c2.71875 3.820313 7.179688 6.339844 12.21875 6.339844h49.558594c8.28125 0 15-6.742187 15-15v-5.800781c0-8.28125-6.71875-15-15-15zm-41.257813-73.640625c13.679688 0 24.820313 11.140625 24.820313 24.820312 0 13.699219-11.140625 24.820313-24.820313 24.820313-13.679687 0-24.820312-11.121094-24.820312-24.820313 0-13.679687 11.140625-24.820312 24.820312-24.820312zm-335.039062 49.640625c-13.683594 0-24.820313-11.121094-24.820313-24.820313 0-13.679687 11.136719-24.820312 24.820313-24.820312 13.679687 0 24.816406 11.140625 24.816406 24.820312 0 13.699219-11.136719 24.820313-24.816406 24.820313zm15.296875 44.800781c0 3.859375-3.136719 7-7 7h-49.558594c-3.859375 0-7-3.140625-7-7v-5.800781c0-3.859375 3.140625-7 7-7h49.558594c3.863281 0 7 3.140625 7 7zm23.101562.660156h-15.121094c.0625-1.382812.019532-2.460937.019532-6.320312h15.222656c-.300781 2.179688-.359375 3.980469-.121094 6.320312zm154.71875 372.257813c0 14.121094-11.480468 25.621094-25.597656 25.621094-14.121094 0-25.601562-11.5-25.601562-25.621094v-19.019531h51.199218zm21.5625-33.539063c0 3.300782-2.703125 6-6 6-17.421875 0-52.269531 0-82.320312 0-3.300782 0-6-2.699218-6-6v-54.78125c0-41.738281 50.878906-62.980468 80.519531-33.359374 8.898437 8.921874 13.800781 20.761718 13.800781 33.359374zm-9.660156-277.660156c29.980469 0 54.378906 24.378906 54.378906 54.359375v147.960938c0 23.519531-14.859375 43.980469-36.71875 51.417969-1.941406-20.097657 6.820313-46.898438-16.160156-69.859376-34.640625-34.660156-94.160156-9.820312-94.160156 39v30.859376c-21.859375-7.4375-36.722656-27.898438-36.722656-51.417969v-147.960938c0-29.980469 24.402343-54.359375 54.382812-54.359375h.398438c7.28125-.101562 13.261718-5.878906 13.761718-13.039062 14.820313 6.71875 31.839844 6.738281 46.679688 0 .5 7.257812 6.578125 13.039062 14.160156 13.039062zm65.699219-44.460937-52.300781 3.660156c-5.179688.359375-9.941407 2.78125-13.058594 6.640625-19.5 24.238281-56.199219 24.199219-75.679688 0-3.121094-3.859375-7.882812-6.28125-13.0625-6.640625l-52.300781-3.660156c-10.136719-.699219-18.058594-9.21875-18.058594-19.359375 0-10.179688 7.960938-18.699219 18.121094-19.359375l50.78125-3.359375c5.417969-.359375 10.296875-2.960938 13.398437-7.101563 19.5-26.160156 58.417969-26.179687 77.917969 0 3.101563 4.140625 7.980469 6.742188 13.402344 7.101563l50.78125 3.359375c10.15625.660156 18.117187 9.179687 18.117187 19.359375 0 10.140625-7.917968 18.660156-18.058593 19.359375zm25.917969-16.597657c.242187-2.339843.179687-4.140624-.117188-6.320312h15.21875c0 4.058594-.039062 4.859375.019531 6.320312zm86.660156-.660156c0 3.859375-3.136719 7-7 7h-49.558594c-3.859375 0-7-3.140625-7-7v-5.800781c0-3.859375 3.140625-7 7-7h49.558594c3.863281 0 7 3.140625 7 7zm0 0"/><path d="m175.949219 216.160156h96.160156c5.289063 0 5.296875-8 0-8h-96.160156c-5.289063 0-5.296875 8 0 8zm0 0"/><path d="m272.109375 234.699219h-96.160156c-5.289063 0-5.296875 8 0 8h96.160156c5.289063 0 5.296875-8 0-8zm0 0"/></g></svg>