<svg height="512" viewBox="0 0 64 64" width="512" xmlns="http://www.w3.org/2000/svg"><g id="outline"><path d="m54 44h2v2h-2z"/><path d="m56.257 29h2.743a1 1 0 0 0 1-1v-8a1 1 0 0 0 -1-1h-9.382l-1.618-3.236v-3.764a1 1 0 0 0 -1-1h-6a1 1 0 0 0 -1 1v4a1 1 0 0 0 1 1h5.382l1.618 3.236v26.764h-3v-1a3 3 0 0 0 -3-3v-11a1 1 0 0 0 -1-1h-11v-2.719l2.757.689a1 1 0 0 0 .243.03h8a1 1 0 0 0 1-1v-4a1 1 0 0 0 -1-1h-7.877l-3.123-.781v-16.219a4 4 0 0 0 -4-4h-4a4 4 0 0 0 -4 4v11h-5a3 3 0 0 0 -3 3v3h-7a1 1 0 0 0 -.707 1.707l2.293 2.293-2.293 2.293a1 1 0 0 0 .707 1.707h10a3 3 0 0 0 3-3v-3h2v10h-3a7 7 0 0 0 -6.92 6h-3.08a1 1 0 0 0 -1 1v4a1 1 0 0 0 1 1h3v2h-5a1 1 0 0 0 -1 1v4a1 1 0 0 0 1 1h11a7 7 0 0 0 14 0h18a7 7 0 0 0 14 0h1a1 1 0 0 0 .975-1.225zm-10.257-14h-4v-2h4zm-38 38h-4v-2h4zm0-8h-2v-2h2zm48-24h2v6h-2zm-6 0h4v6h-4zm-8 24a1 1 0 0 1 1 1v1h-5v-2zm-9.243-20.03a1 1 0 0 0 .243.03h7v2h-6.877l-7.123-1.781v-1.938zm-12.757-18.97a2 2 0 0 1 2-2h4a2 2 0 0 1 2 2v1h-4a1 1 0 0 0 -1 1v2h-3zm0 6h4a1 1 0 0 0 1-1v-2h3v2.256l-8 2.4zm0 3.744 8-2.4v4.656h-8zm0 4.256h8v1.719l-2.757-.689a1 1 0 0 0 -1.243.97v4a1 1 0 0 0 .757.97l3.243.811v3.219h-8zm0 13h20v10h-2v-7a1 1 0 0 0 -1-1h-17zm-6-5a1 1 0 0 1 -1 1h-7.586l1.293-1.293a1 1 0 0 0 0-1.414l-1.293-1.293h8.586zm-2-5v-3a1 1 0 0 1 1-1h5v4zm9 37a5.006 5.006 0 0 1 -5-5h2a3 3 0 0 0 6 0h2a5.006 5.006 0 0 1 -5 5zm-1-5h2a1 1 0 0 1 -2 0zm8-2h-14v-10a1 1 0 0 1 1-1h12a1 1 0 0 1 1 1zm4 0h-2v-10a3 3 0 0 0 -3-3h-12a3 3 0 0 0 -3 3v10h-2v-11a5.006 5.006 0 0 1 5-5h12a5.006 5.006 0 0 1 5 5zm-.11-16h4.11v10h-2v-5a6.977 6.977 0 0 0 -2.11-5zm2.11 16v-4h14v4zm19 7a5.006 5.006 0 0 1 -5-5h2a3 3 0 0 0 6 0h2a5.006 5.006 0 0 1 -5 5zm-1-5h2a1 1 0 0 1 -2 0zm-2-2v-7h2v-2h-2v-15h4.2l5.538 24z"/><path d="m16 44h2v2h-2z"/><path d="m20 44h2v2h-2z"/><path d="m24 44h2v2h-2z"/><path d="m45 29a3 3 0 1 0 -3-3 3 3 0 0 0 3 3zm0-4a1 1 0 1 1 -1 1 1 1 0 0 1 1-1z"/><path d="m2 9h13v2h-13z"/><path d="m4 13h12v2h-12z"/></g></svg>