<?xml version="1.0" encoding="utf-8"?>
<!-- Generator: Adobe Illustrator 24.1.0, SVG Export Plug-In . SVG Version: 6.00 Build 0)  -->
<svg version="1.1" id="Capa_1" xmlns="http://www.w3.org/2000/svg" xmlns:xlink="http://www.w3.org/1999/xlink" x="0px" y="0px"
	 viewBox="0 0 232.07 232.07" style="enable-background:new 0 0 232.07 232.07;" xml:space="preserve">
<style type="text/css">
	.st0{fill:none;stroke:#000000;stroke-width:8;stroke-miterlimit:10;}
</style>
<g>
	<g>
		<g>
			<path d="M-630.27-135.9h-14.94v-14.94c0-2.06-1.67-3.73-3.73-3.73h-14.94c-2.06,0-3.73,1.67-3.73,3.73v14.94h-14.94
				c-2.06,0-3.73,1.67-3.73,3.73v14.94c0,2.06,1.67,3.73,3.73,3.73h14.94v14.94c0,2.06,1.67,3.73,3.73,3.73h14.94
				c2.06,0,3.73-1.67,3.73-3.73v-14.94h14.94c2.06,0,3.73-1.67,3.73-3.73v-14.94C-626.53-134.23-628.21-135.9-630.27-135.9z
				 M-634-120.96h-14.94c-2.06,0-3.73,1.67-3.73,3.73v14.94h-7.47v-14.94c0-2.06-1.67-3.73-3.73-3.73h-14.94v-7.47h14.94
				c2.06,0,3.73-1.67,3.73-3.73v-14.94h7.47v14.94c0,2.06,1.67,3.73,3.73,3.73H-634V-120.96z"/>
		</g>
	</g>
	<g>
		<g>
			<path d="M-492.49-131.52c-2.86-25.73-27.03-49.8-52.78-52.55c-2.19-0.24-4.39-0.37-6.59-0.37h-41.07v-14.94h-7.47v-7.47
				c0-8.25-6.69-14.94-14.94-14.94H-634c-4.12,0-7.47-3.34-7.47-7.47s3.34-7.47,7.47-7.47h59.74c8.25,0,14.94-6.69,14.94-14.94
				c0-8.25-6.69-14.94-14.94-14.94h-18.67c-4.12,0-7.47-3.34-7.47-7.47v-14.94h-7.47v14.94c0,8.25,6.69,14.94,14.94,14.94h18.67
				c4.12,0,7.47,3.34,7.47,7.47c0,4.12-3.34,7.47-7.47,7.47H-634c-8.25,0-14.94,6.69-14.94,14.94s6.69,14.94,14.94,14.94h18.67
				c4.12,0,7.47,3.34,7.47,7.47v7.47h-7.47v14.94h-41.07c-2.2,0.01-4.4,0.13-6.59,0.37c-25.76,2.76-49.92,26.84-52.77,52.57
				c-3.75,32.78,19.78,62.4,52.56,66.15c13.35,1.53,26.82-1.49,38.25-8.56c4.92-3.22,10.54-5.21,16.39-5.79
				c2.89-0.23,5.79-0.24,8.68-0.03c5.94,0.57,11.65,2.58,16.65,5.85c28.07,17.35,64.88,8.65,82.23-19.41
				C-493.96-104.71-490.95-118.18-492.49-131.52z M-607.86-191.91h7.47v7.47h-7.47V-191.91z M-512.89-89.84
				c-16.88,18.88-44.88,22.93-66.42,9.61c-6.02-3.92-12.9-6.31-20.05-6.96c-1.58-0.11-3.17-0.17-4.77-0.17
				c-1.7,0-3.36,0.07-5.03,0.2c-7.04,0.67-13.81,3.04-19.75,6.89c-24.55,15.19-56.77,7.6-71.96-16.95
				c-6.18-9.99-8.82-21.78-7.48-33.46c2.46-22.11,24.02-43.59,46.15-45.97c1.92-0.22,3.86-0.33,5.79-0.33h104.55
				c1.93,0,3.87,0.1,5.79,0.31c22.13,2.38,43.69,23.86,46.15,45.97C-498.15-115.84-502.88-100.95-512.89-89.84z"/>
		</g>
	</g>
	<g>
		<g>
			<path d="M-551.85-162.04c-8.25,0-14.94,6.69-14.94,14.94s6.69,14.94,14.94,14.94c8.25,0,14.94-6.69,14.94-14.94
				S-543.61-162.04-551.85-162.04z M-551.85-139.63c-4.12,0-7.47-3.34-7.47-7.47s3.34-7.47,7.47-7.47c4.12,0,7.47,3.34,7.47,7.47
				S-547.73-139.63-551.85-139.63z"/>
		</g>
	</g>
	<g>
		<g>
			<path d="M-551.85-117.23c-8.25,0-14.94,6.69-14.94,14.94s6.69,14.94,14.94,14.94c8.25,0,14.94-6.69,14.94-14.94
				S-543.61-117.23-551.85-117.23z M-551.85-94.82c-4.12,0-7.47-3.34-7.47-7.47s3.34-7.47,7.47-7.47c4.12,0,7.47,3.34,7.47,7.47
				S-547.73-94.82-551.85-94.82z"/>
		</g>
	</g>
	<g>
		<g>
			<path d="M-577.99-139.63c-8.25,0-14.94,6.69-14.94,14.94s6.69,14.94,14.94,14.94c8.25,0,14.94-6.69,14.94-14.94
				S-569.74-139.63-577.99-139.63z M-577.99-117.23c-4.12,0-7.47-3.34-7.47-7.47s3.34-7.47,7.47-7.47c4.12,0,7.47,3.34,7.47,7.47
				S-573.87-117.23-577.99-117.23z"/>
		</g>
	</g>
	<g>
		<g>
			<path d="M-525.72-139.63c-8.25,0-14.94,6.69-14.94,14.94s6.69,14.94,14.94,14.94s14.94-6.69,14.94-14.94
				S-517.47-139.63-525.72-139.63z M-525.72-117.23c-4.12,0-7.47-3.34-7.47-7.47s3.34-7.47,7.47-7.47s7.47,3.34,7.47,7.47
				S-521.59-117.23-525.72-117.23z"/>
		</g>
	</g>
</g>
<g>
	<g>
		<g>
			<path d="M-263.86-299.72h-81.98c-2.06,0-3.73,1.67-3.73,3.73v120.17h7.45v-116.45h74.52v216.12h-61.02v7.45h64.74
				c2.06,0,3.73-1.67,3.73-3.73v-223.57C-260.13-298.05-261.8-299.72-263.86-299.72z"/>
		</g>
	</g>
	<g>
		<g>
			<path d="M-312.3-299.72c-2.06,0-3.73,1.67-3.73,3.73v85.7c0,2.06,1.67,3.73,3.73,3.73c2.06,0,3.73-1.67,3.73-3.73v-85.7
				C-308.58-298.05-310.25-299.72-312.3-299.72z"/>
		</g>
	</g>
	<g>
		<g>
			<path d="M-312.3-146.94c-2.06,0-3.73,1.67-3.73,3.73v70.8c0,2.06,1.67,3.73,3.73,3.73c2.06,0,3.73-1.67,3.73-3.73v-70.8
				C-308.58-145.27-310.25-146.94-312.3-146.94z"/>
		</g>
	</g>
	<g>
		<g>
			<path d="M-312.3-191.66c-2.06,0-3.73,1.67-3.73,3.73v22.36c0,2.06,1.67,3.73,3.73,3.73c2.06,0,3.73-1.67,3.73-3.73v-22.36
				C-308.58-189.99-310.25-191.66-312.3-191.66z"/>
		</g>
	</g>
	<g>
		<g>
			<path d="M-323.74-125.99c-0.78-2.9-1.53-5.73-2.26-8.48c-6.75-25.47-11.62-43.87-24.53-47.69c-5.1-1.51-15.7-4.65-27.15,2.14
				c-9,5.34-39.13,5.33-48.12,0c-11.45-6.79-22.05-3.65-27.17-2.13c-12.88,3.81-17.76,22.22-24.5,47.68
				c-0.73,2.75-1.48,5.58-2.26,8.48c-6,22.21-5.97,43.32,0.08,53.79c2.14,3.72,4.96,6.06,8.37,6.97c0.7,0.19,1.4,0.28,2.11,0.28
				c8.12,0,16.33-11.89,24.29-23.41c3.4-4.92,6.91-10.01,8.81-11.49c1.32-1.02,6.38-3.38,24.67-3.13l22.78-0.02
				c15.59,0.07,20.04,2.22,21.23,3.15h0c1.9,1.47,5.41,6.56,8.81,11.49c8.65,12.53,17.6,25.51,26.4,23.14
				c3.41-0.9,6.23-3.25,8.37-6.97C-317.77-82.67-317.74-103.79-323.74-125.99z M-330.26-75.93c-1.12,1.94-2.41,3.11-3.83,3.49
				c-3.74,0.94-13.98-13.84-18.35-20.17c-4.23-6.12-7.57-10.96-10.38-13.14c-2.56-1.98-8.01-4.63-25.78-4.71l-22.75,0.02
				c-15.37-0.22-24.95,1.33-29.28,4.69c-2.81,2.18-6.15,7.02-10.38,13.14c-4.37,6.33-14.59,21.17-18.35,20.17
				c-1.42-0.38-2.71-1.55-3.83-3.49c-4.18-7.25-5.6-24.94,0.66-48.12c0.79-2.91,1.54-5.75,2.27-8.51
				c5.9-22.25,10.55-39.82,19.44-42.45c2.37-0.7,5.83-1.73,9.87-1.73c3.47,0,7.37,0.76,11.36,3.12c11.2,6.64,44.53,6.64,55.73,0
				c8.64-5.12,16.83-2.7,21.25-1.39c8.87,2.63,13.52,20.2,19.42,42.45c0.73,2.76,1.48,5.6,2.27,8.51
				C-324.66-100.87-326.08-83.18-330.26-75.93z"/>
		</g>
	</g>
	<g>
		<g>
			<rect x="-442.73" y="-158.11" width="7.45" height="29.81"/>
		</g>
	</g>
	<g>
		<g>
			<path d="M-366.33-158.12c-9.25,0-16.77,7.52-16.77,16.77s7.52,16.77,16.77,16.77s16.77-7.52,16.77-16.77
				C-349.56-150.6-357.09-158.12-366.33-158.12z M-366.33-132.04c-5.14,0-9.32-4.18-9.32-9.32s4.18-9.32,9.32-9.32
				s9.32,4.18,9.32,9.32S-361.2-132.04-366.33-132.04z"/>
		</g>
	</g>
	<g>
		<g>
			<path d="M-284.36-281.09c-7.19,0-13.04,5.85-13.04,13.04c0,7.19,5.85,13.04,13.04,13.04c7.19,0,13.04-5.85,13.04-13.04
				C-271.31-275.23-277.17-281.09-284.36-281.09z M-284.36-262.45c-3.08,0-5.59-2.51-5.59-5.59c0-3.08,2.51-5.59,5.59-5.59
				c3.08,0,5.59,2.51,5.59,5.59C-278.77-264.96-281.27-262.45-284.36-262.45z"/>
		</g>
	</g>
	<g>
		<g>
			<path d="M-284.36-247.55c-7.19,0-13.04,5.85-13.04,13.04s5.85,13.04,13.04,13.04c7.19,0,13.04-5.85,13.04-13.04
				C-271.31-241.7-277.17-247.55-284.36-247.55z M-284.36-228.92c-3.08,0-5.59-2.51-5.59-5.59c0-3.08,2.51-5.59,5.59-5.59
				c3.08,0,5.59,2.51,5.59,5.59C-278.77-231.43-281.27-228.92-284.36-228.92z"/>
		</g>
	</g>
	<g>
		<g>
			<path d="M-312.3-214.01c-8.22,0-14.9,6.69-14.9,14.9s6.69,14.9,14.9,14.9c8.22,0,14.9-6.69,14.9-14.9
				S-304.08-214.01-312.3-214.01z M-312.3-191.66c-4.11,0-7.45-3.34-7.45-7.45c0-4.11,3.34-7.45,7.45-7.45
				c4.11,0,7.45,3.34,7.45,7.45C-304.85-195-308.19-191.66-312.3-191.66z"/>
		</g>
	</g>
	<g>
		<g>
			<path d="M-312.3-169.3c-8.22,0-14.9,6.69-14.9,14.9c0,8.22,6.69,14.9,14.9,14.9c8.22,0,14.9-6.69,14.9-14.9
				C-297.4-162.61-304.08-169.3-312.3-169.3z M-312.3-146.94c-4.11,0-7.45-3.34-7.45-7.45s3.34-7.45,7.45-7.45
				c4.11,0,7.45,3.34,7.45,7.45C-304.85-150.28-308.19-146.94-312.3-146.94z"/>
		</g>
	</g>
	<g>
		<g>
			<rect x="-453.9" y="-146.94" width="29.81" height="7.45"/>
		</g>
	</g>
</g>
<g>
	<path d="M309.38-219.37H125.96c-11.22,0.01-20.31,9.11-20.33,20.33v74.69c0.01,11.22,9.11,20.31,20.33,20.33h183.42
		c11.22-0.01,20.31-9.11,20.33-20.33v-74.69C329.69-210.26,320.6-219.36,309.38-219.37z M112.25-124.35v-74.69
		c0.01-7.57,6.14-13.7,13.71-13.71h23.16v102.11h-23.16C118.39-110.65,112.26-116.78,112.25-124.35z M155.74-110.64v-102.11H279.6
		v102.11H155.74z M323.09-124.35c-0.01,7.57-6.14,13.7-13.71,13.71h-23.16v-102.11h23.16c7.57,0.01,13.7,6.14,13.71,13.71V-124.35z"
		/>
	<path d="M271.56-208.02H163.78c-1.83,0-3.31,1.48-3.31,3.31c0,0,0,0,0,0v86.04c0,1.83,1.48,3.31,3.31,3.31c0,0,0,0,0,0h107.78
		c1.83,0,3.31-1.48,3.31-3.31c0,0,0,0,0,0v-86.04C274.87-206.54,273.39-208.02,271.56-208.02
		C271.56-208.02,271.56-208.02,271.56-208.02z M268.25-121.99H167.09v-79.42h101.16V-121.99z"/>
	<path d="M260.21-140.01c1.83,0,3.31-1.48,3.31-3.31c0,0,0,0,0,0v-25.94c0-1.83-1.48-3.31-3.31-3.31s-3.31,1.48-3.31,3.31v25.94
		C256.9-141.49,258.38-140.01,260.21-140.01C260.21-140.01,260.21-140.01,260.21-140.01z"/>
	<path d="M304.65-146.63c-8.09,0-14.65,6.56-14.65,14.65s6.56,14.65,14.65,14.65c8.09,0,14.65-6.56,14.65-14.65
		C319.3-140.06,312.74-146.62,304.65-146.63z M304.65-123.94c-4.44,0-8.04-3.6-8.04-8.04s3.6-8.04,8.04-8.04
		c4.44,0,8.04,3.6,8.04,8.04C312.68-127.54,309.09-123.94,304.65-123.94z"/>
	<path d="M311.62-206.07c-4.96,0-8.98,4.02-8.98,8.98s4.02,8.98,8.98,8.98s8.98-4.02,8.98-8.98
		C320.6-202.05,316.58-206.07,311.62-206.07z M311.62-194.73c-1.31,0-2.36-1.06-2.36-2.36c0-1.31,1.06-2.36,2.36-2.36
		c1.31,0,2.36,1.06,2.36,2.36C313.98-195.79,312.93-194.73,311.62-194.73z"/>
	<path d="M297.68-174.16c4.96,0,8.98-4.02,8.98-8.98s-4.02-8.98-8.98-8.98s-8.98,4.02-8.98,8.98
		C288.7-178.19,292.72-174.17,297.68-174.16z M297.68-185.51c1.31,0,2.36,1.06,2.36,2.36c0,1.31-1.06,2.36-2.36,2.36
		c-1.31,0-2.36-1.06-2.36-2.36C295.31-184.45,296.37-185.51,297.68-185.51z"/>
	<path d="M130.69-176.76c8.09,0,14.65-6.56,14.65-14.65s-6.56-14.65-14.65-14.65s-14.65,6.56-14.65,14.65
		C116.04-183.33,122.6-176.77,130.69-176.76z M130.69-199.46c4.44,0,8.04,3.6,8.04,8.04s-3.6,8.04-8.04,8.04
		c-4.44,0-8.04-3.6-8.04-8.04l0,0C122.66-195.86,126.25-199.45,130.69-199.46z"/>
	<path d="M123.72-135.28c-4.96,0-8.98,4.02-8.98,8.98s4.02,8.98,8.98,8.98c4.96,0,8.98-4.02,8.98-8.98
		C132.69-131.26,128.67-135.28,123.72-135.28z M123.72-123.94c-1.31,0-2.36-1.06-2.36-2.36c0-1.31,1.06-2.36,2.36-2.36
		s2.36,1.06,2.36,2.36C126.08-125,125.02-123.94,123.72-123.94z"/>
	<path d="M137.66-149.23c-4.96,0-8.98,4.02-8.98,8.98s4.02,8.98,8.98,8.98s8.98-4.02,8.98-8.98
		C146.64-145.2,142.62-149.22,137.66-149.23z M137.66-137.88c-1.31,0-2.36-1.06-2.36-2.36c0-1.31,1.06-2.36,2.36-2.36
		c1.31,0,2.36,1.06,2.36,2.36C140.02-138.94,138.97-137.88,137.66-137.88z"/>
</g>
<g id="game_controller-video_game_controller-controller-monitor-hands">
	<path d="M-499.56,12.65h-216.6c-2.06,0-3.73,1.67-3.73,3.73v171.79c0,2.06,1.67,3.73,3.73,3.73h44.14l4.41,15.46v25.62
		c0,2.06,1.67,3.73,3.73,3.73h29.88c2.06,0,3.73-1.67,3.73-3.73v-22.82c7.32-1.5,13.05-7.21,14.56-14.53h15.68
		c0.73,3.6,2.51,6.9,5.12,9.49c2.59,2.57,5.87,4.33,9.45,5.08v22.78c0,2.06,1.67,3.73,3.73,3.73h29.88c2.06,0,3.73-1.67,3.73-3.73
		v-25.62l4.41-15.46h44.14c2.06,0,3.73-1.67,3.73-3.73V16.39C-495.83,14.32-497.5,12.65-499.56,12.65L-499.56,12.65z
		 M-641.29,196.84l3.55,10.61v21.81h-22.41v-22.41c0.01-0.34-0.04-0.68-0.15-1.01l-6.12-21.47c-0.4-1.43,0.07-2.96,1.2-3.92
		l12.55-10.46v15.72c-0.01,1.51,0.91,2.87,2.32,3.44c1.39,0.58,3,0.28,4.07-0.78l8.96-9c1.42-1.46,3.76-1.5,5.23-0.07
		c0.03,0.02,0.05,0.05,0.07,0.07c0.71,0.68,1.1,1.63,1.08,2.61c0.02,0.99-0.37,1.95-1.08,2.65l-8.37,8.37
		C-641.39,194-641.74,195.49-641.29,196.84L-641.29,196.84z M-584.3,202.81c-2.01-0.48-3.86-1.5-5.34-2.95
		c-2.11-2.11-3.29-4.97-3.29-7.95c0-2.06-1.67-3.73-3.73-3.73h-22.41c-2.06,0-3.73,1.67-3.73,3.73c-0.02,5.19-3.58,9.7-8.63,10.9
		l-2.05-6.16l6.76-6.72c4.38-4.38,4.38-11.49,0-15.87s-11.49-4.38-15.87,0l-2.61,2.65v-14.68c0.02-6.18,5.02-11.19,11.2-11.2h52.28
		c6.18,0.02,11.19,5.02,11.2,11.2v14.68l-2.65-2.65c-4.38-4.37-11.48-4.36-15.85,0.02c-4.37,4.38-4.36,11.48,0.02,15.85l6.76,6.72
		L-584.3,202.81z M-549.31,184.36l-6.12,21.47c-0.11,0.33-0.16,0.67-0.15,1.01v22.41h-22.41v-21.81l3.55-10.61
		c0.45-1.35,0.11-2.84-0.9-3.85l-8.37-8.37c-0.71-0.7-1.1-1.66-1.08-2.65c-0.02-0.98,0.38-1.93,1.08-2.61
		c1.42-1.45,3.76-1.48,5.21-0.05c0.02,0.02,0.04,0.04,0.05,0.05l9,9c1.07,1.06,2.68,1.37,4.07,0.78c1.4-0.56,2.32-1.92,2.32-3.44
		v-15.68l12.55,10.46C-549.37,181.42-548.9,182.95-549.31,184.36L-549.31,184.36z M-503.3,184.44h-38.47
		c0.38-3.69-1.11-7.33-3.96-9.71l-17.51-14.6c-0.95-9.5-8.94-16.74-18.49-16.77h-52.28c-9.55,0.03-17.53,7.27-18.49,16.77
		l-17.51,14.6c-2.85,2.38-4.34,6.02-3.96,9.71h-38.47V20.12h209.13V184.44z"/>
	<path d="M-611.6,50h7.47v7.47h-7.47V50z"/>
	<path d="M-574.66,81.93l-14.53-29.09v-6.57c-0.01-3.52-1.67-6.84-4.48-8.96l-11.95-8.96c-1.32-1.01-3.16-1.01-4.48,0l-11.95,8.96
		c-2.82,2.12-4.47,5.44-4.48,8.96v6.57l-14.53,29.09c-0.93,1.84-0.19,4.09,1.65,5.02c0.52,0.26,1.09,0.4,1.67,0.4h18.67v7.47
		c0,0.73,0.22,1.45,0.63,2.05l7.47,11.2c1.11,1.71,3.4,2.2,5.11,1.08c0.43-0.28,0.8-0.65,1.08-1.08l7.47-11.2
		c0.42-0.6,0.64-1.32,0.63-2.05v-7.47h18.67c2.06-0.01,3.73-1.68,3.72-3.75C-574.27,83.02-574.4,82.44-574.66,81.93L-574.66,81.93z
		 M-626.54,79.87h-5.15l5.15-10.31V79.87z M-604.13,93.69l-3.73,5.6l-3.73-5.6v-6.35h7.47V93.69z M-596.66,79.87h-7.47v-11.2h-7.47
		v11.2h-7.47V46.26c0.01-1.17,0.56-2.28,1.49-2.99l9.71-7.28l9.71,7.28c0.93,0.71,1.49,1.81,1.49,2.99V79.87z M-589.19,79.87V69.56
		l5.15,10.31H-589.19z"/>
	<path d="M-638.15,111.8l-14.53-29.09v-6.57c-0.01-3.52-1.67-6.84-4.48-8.96l-11.95-8.96c-1.32-1.01-3.16-1.01-4.48,0l-11.95,8.96
		c-2.82,2.12-4.47,5.44-4.48,8.96v6.57l-14.53,29.09c-0.93,1.84-0.19,4.09,1.65,5.02c0.52,0.26,1.09,0.4,1.67,0.4h18.67v7.47
		c0,0.73,0.22,1.45,0.63,2.05l7.47,11.2c1.11,1.71,3.4,2.2,5.11,1.08c0.43-0.28,0.8-0.65,1.08-1.08l7.47-11.2
		c0.42-0.6,0.64-1.32,0.63-2.05v-7.47h18.67c2.06-0.01,3.73-1.68,3.72-3.75C-637.75,112.89-637.89,112.32-638.15,111.8z
		 M-690.02,109.75h-5.15l5.15-10.31V109.75z M-667.62,123.57l-3.73,5.6l-3.73-5.6v-6.35h7.47V123.57z M-660.15,109.75h-7.47v-11.2
		h-7.47v11.2h-7.47V76.14c0.01-1.17,0.56-2.28,1.49-2.99l9.71-7.28l9.71,7.28c0.93,0.71,1.49,1.81,1.49,2.99V109.75z
		 M-652.68,109.75V99.44l5.15,10.31H-652.68z"/>
	<path d="M-675.09,79.87h7.47v7.47h-7.47V79.87z"/>
	<path d="M-548.11,79.87h7.47v7.47h-7.47V79.87z"/>
	<path d="M-511.18,111.8l-14.53-29.09v-6.57c-0.01-3.52-1.67-6.84-4.48-8.96l-11.95-8.96c-1.32-1.01-3.16-1.01-4.48,0l-11.95,8.96
		c-2.82,2.12-4.47,5.44-4.48,8.96v6.57l-14.53,29.09c-0.93,1.84-0.19,4.09,1.65,5.02c0.52,0.26,1.09,0.4,1.67,0.4h18.67v7.47
		c0,0.73,0.22,1.45,0.63,2.05l7.47,11.2c1.11,1.71,3.4,2.2,5.11,1.08c0.43-0.28,0.8-0.65,1.08-1.08l7.47-11.2
		c0.42-0.6,0.64-1.32,0.63-2.05v-7.47h18.67c2.06-0.01,3.73-1.68,3.72-3.75C-510.78,112.89-510.92,112.32-511.18,111.8
		L-511.18,111.8z M-563.05,109.75h-5.15l5.15-10.31V109.75z M-540.64,123.57l-3.73,5.6l-3.73-5.6v-6.35h7.47V123.57z
		 M-533.17,109.75h-7.47v-11.2h-7.47v11.2h-7.47V76.14c0.01-1.17,0.56-2.28,1.49-2.99l9.71-7.28l9.71,7.28
		c0.93,0.71,1.49,1.81,1.49,2.99V109.75z M-525.71,109.75V99.44l5.15,10.31H-525.71z"/>
	<path d="M-611.6,117.22h7.47v7.47h-7.47V117.22z"/>
	<path d="M-697.49,124.69h7.47v7.47h-7.47V124.69z"/>
	<path d="M-652.68,124.69h7.47v7.47h-7.47V124.69z"/>
	<path d="M-634.01,94.81h7.47v7.47h-7.47V94.81z"/>
	<path d="M-589.19,94.81h7.47v7.47h-7.47V94.81z"/>
	<path d="M-570.52,124.69h7.47v7.47h-7.47V124.69z"/>
	<path d="M-525.71,124.69h7.47v7.47h-7.47V124.69z"/>
	<path d="M-675.09,147.09h7.47v7.47h-7.47V147.09z"/>
	<path d="M-548.11,147.09h7.47v7.47h-7.47V147.09z"/>
	<path d="M-548.11,27.59h7.47v7.47h-7.47V27.59z"/>
	<path d="M-533.17,27.59h7.47v7.47h-7.47V27.59z"/>
	<path d="M-518.24,27.59h7.47v7.47h-7.47V27.59z"/>
	<path d="M-697.49,35.06h11.2v-7.47h-14.94c-2.06,0-3.73,1.67-3.73,3.73v14.94h7.47V35.06z"/>
	<path d="M-704.96,53.73h7.47v7.47h-7.47V53.73z"/>
</g>
<g>
	<path d="M-133.9,5.18c-61.77,0-112.03,50.26-112.03,112.03s50.26,112.03,112.03,112.03S-21.86,179-21.86,117.22
		S-72.12,5.18-133.9,5.18z M-133.9,220.63c-57.02,0-103.42-46.4-103.42-103.42S-190.92,13.8-133.9,13.8S-30.48,60.2-30.48,117.22
		S-76.88,220.63-133.9,220.63z"/>
	<path d="M-80.04,112.91h-49.55v-47.4c0-2.38-1.93-4.31-4.31-4.31s-4.31,1.93-4.31,4.31v47.4h-49.55c-2.38,0-4.31,1.93-4.31,4.31
		c0,2.38,1.93,4.31,4.31,4.31h49.55v51.71c0,2.38,1.93,4.31,4.31,4.31s4.31-1.93,4.31-4.31v-51.71h49.55c2.38,0,4.31-1.93,4.31-4.31
		C-75.73,114.83-77.66,112.91-80.04,112.91z"/>
</g>
<g>
	<path d="M-345.21,50.47h-60.87c-4.46,0-8.08,3.62-8.08,8.08v55.2c0,4.46,3.62,8.08,8.08,8.08h60.87c4.46,0,8.08-3.62,8.08-8.08
		c0-6.28,0-48.36,0-55.2C-337.13,54.1-340.76,50.47-345.21,50.47z M-385.03,116.03h-7.16v-7.16h7.16V116.03z M-372.07,116.03h-7.16
		v-7.16h7.16V116.03z M-372.07,103.08h-7.16v-7.16h7.16V103.08z M-359.11,116.03h-7.16v-7.16h7.16V116.03z M-345.21,116.03h-8.1
		v-7.91c0.8,0.48,1.72,0.76,2.72,0.76h7.66v4.88h0C-342.93,115.01-343.96,116.03-345.21,116.03z M-342.93,103.08h-7.16v-7.16h7.16
		V103.08z M-342.93,90.12h-7.16v-7.16h7.16V90.12z M-342.93,77.17h-7.16v-7.16h7.16V77.17z M-342.93,58.55v5.66h-7.66
		c-2.92,0-5.29,2.38-5.29,5.29v34.08c0,0.02,0,0.04,0,0.06c-0.68-0.36-1.45-0.57-2.27-0.57h-8.11v-8.11c0-2.67-2.17-4.84-4.84-4.84
		h-9.07c-2.67,0-4.84,2.17-4.84,4.84v8.11h-8.11c-2.67,0-4.84,2.17-4.84,4.84v8.11h-8.1c-1.26,0-2.28-1.02-2.28-2.28v-55.2
		c0-1.26,1.02-2.28,2.28-2.28h60.87C-343.96,56.27-342.93,57.29-342.93,58.55L-342.93,58.55z"/>
	<path d="M-388.6,61.43h-11.58c-1.6,0-2.9,1.3-2.9,2.9c0,1.6,1.3,2.9,2.9,2.9h11.58c1.6,0,2.9-1.3,2.9-2.9
		C-385.7,62.73-387,61.43-388.6,61.43z"/>
	<path d="M-350.11,205.96c8.04,0,14.58-6.54,14.58-14.58c0-8.04-6.54-14.58-14.58-14.58s-14.58,6.54-14.58,14.58
		S-358.15,205.96-350.11,205.96z M-350.12,182.61c4.84,0,8.78,3.94,8.78,8.78s-3.94,8.78-8.78,8.78c-4.84,0-8.78-3.94-8.78-8.78
		C-358.89,186.55-354.96,182.61-350.12,182.61z"/>
	<path d="M-323.91,129.74l0-82.61c0-5.61-4.56-10.18-10.18-10.18h-83.13c-5.61,0-10.18,4.56-10.18,10.18v82.6
		c-2.7,0.89-4.65,3.44-4.65,6.43v15.74c0,2.99,1.95,5.54,4.65,6.43v66.44c0,5.61,4.56,10.18,10.18,10.18h34.8
		c0.08,0,0.15-0.02,0.23-0.02h13.08c0.08,0.01,0.15,0.02,0.23,0.02h34.8c5.61,0,10.18-4.56,10.18-10.18v-66.44
		c2.7-0.89,4.65-3.44,4.65-6.43v-15.74C-319.25,133.17-321.21,130.63-323.91,129.74z M-421.59,47.13c0-2.41,1.96-4.37,4.37-4.37
		h83.13c2.41,0,4.37,1.96,4.37,4.37v36.16c0,0,0,0,0,0.01v13.52c0,0,0,0,0,0v32.57h-91.88V47.13z M-329.71,224.78
		c0,2.41-1.96,4.37-4.37,4.37h-83.13c-2.41,0-4.37-1.96-4.37-4.37v-66.09h91.88V224.78z M-325.05,151.9c0,0.54-0.44,0.97-0.97,0.97
		c-2.63,0-96.62,0-99.24,0c-0.54,0-0.97-0.44-0.97-0.97v-15.74c0-0.54,0.44-0.97,0.97-0.97h99.24c0.54,0,0.97,0.44,0.97,0.97V151.9z
		"/>
	<path d="M-336.7,141.14h-13.56c-1.6,0-2.9,1.3-2.9,2.9s1.3,2.9,2.9,2.9h13.56c1.6,0,2.9-1.3,2.9-2.9S-335.1,141.14-336.7,141.14z"
		/>
	<path d="M-409.76,200.08h3.54c1.67,0,3.24-0.48,4.56-1.3c-0.82,1.33-1.3,2.89-1.3,4.56v3.54c0,3.31,2.69,6,6,6h5.39
		c3.31,0,6-2.69,6-6v-3.54c0-1.67-0.48-3.24-1.3-4.56c1.33,0.82,2.89,1.3,4.56,1.3h3.54c3.31,0,6-2.69,6-6v-5.39c0-3.31-2.69-6-6-6
		h-3.54c-1.67,0-3.24,0.48-4.56,1.3c0.82-1.33,1.3-2.89,1.3-4.56v-3.54c0-3.31-2.69-6-6-6h-5.39c-3.31,0-6,2.69-6,6v3.54
		c0,1.67,0.48,3.24,1.3,4.56c-1.33-0.82-2.89-1.3-4.56-1.3h-3.54c-3.31,0-6,2.69-6,6v5.39
		C-415.76,197.39-413.07,200.08-409.76,200.08z M-382.29,188.49h3.54c0.11,0,0.2,0.09,0.2,0.2v5.39c0,0.11-0.09,0.2-0.2,0.2h-3.54
		c-1.6,0-2.9-1.3-2.9-2.9C-385.19,189.79-383.89,188.49-382.29,188.49z M-391.56,207.09h-5.39c-0.11,0-0.2-0.09-0.2-0.2v-3.54
		c0-1.6,1.3-2.9,2.9-2.9s2.9,1.3,2.9,2.9v3.54h0C-391.36,207-391.45,207.09-391.56,207.09z M-396.95,175.68h5.39
		c0.11,0,0.2,0.09,0.2,0.2v3.54c0,1.6-1.3,2.9-2.9,2.9c-1.6,0-2.9-1.3-2.9-2.9v-3.54h0C-397.15,175.77-397.06,175.68-396.95,175.68z
		 M-398.82,186.82c1.33,0.82,2.89,1.3,4.56,1.3c1.67,0,3.24-0.48,4.56-1.3c-0.82,1.33-1.3,2.89-1.3,4.56c0,1.67,0.48,3.24,1.3,4.56
		c-1.33-0.82-2.89-1.3-4.56-1.3c-1.67,0-3.24,0.48-4.56,1.3c0.82-1.33,1.3-2.89,1.3-4.56S-397.99,188.15-398.82,186.82z
		 M-409.96,188.69c0-0.11,0.09-0.2,0.2-0.2h3.54c1.6,0,2.9,1.3,2.9,2.9c0,1.6-1.3,2.9-2.9,2.9h-3.54c-0.11,0-0.2-0.09-0.2-0.2
		V188.69z"/>
</g>
<g>
	<g>
		<g>
			<circle cx="-73.34" cy="-233.43" r="3.39"/>
		</g>
	</g>
	<g>
		<g>
			<g>
				<circle cx="-88.3" cy="-120.15" r="3.39"/>
			</g>
		</g>
		<g>
			<g>
				<path d="M-30.37-130.76c-5.85,0-10.61,4.76-10.61,10.61c0,5.85,4.76,10.61,10.61,10.61s10.61-4.76,10.61-10.61
					C-19.75-126-24.51-130.76-30.37-130.76z M-30.37-116.31c-2.12,0-3.84-1.72-3.84-3.84s1.72-3.84,3.84-3.84
					c2.12,0,3.84,1.72,3.84,3.84S-28.25-116.31-30.37-116.31z"/>
			</g>
		</g>
		<g>
			<g>
				<path d="M-145.35-237.74c-6.32,0-11.46,5.14-11.46,11.46c0,6.32,5.14,11.45,11.46,11.45s11.45-5.14,11.45-11.45
					C-133.9-232.6-139.04-237.74-145.35-237.74z M-145.35-221.6c-2.58,0-4.68-2.1-4.68-4.68c0-2.58,2.1-4.68,4.68-4.68
					s4.68,2.1,4.68,4.68C-140.67-223.7-142.77-221.6-145.35-221.6z"/>
			</g>
		</g>
		<g>
			<g>
				<path d="M-89.64-215.44c-6.32,0-11.46,5.14-11.46,11.46c0,6.32,5.14,11.45,11.46,11.45c6.32,0,11.45-5.14,11.45-11.45
					C-78.19-210.3-83.33-215.44-89.64-215.44z M-89.64-199.3c-2.58,0-4.68-2.1-4.68-4.68c0-2.58,2.1-4.68,4.68-4.68
					c2.58,0,4.68,2.1,4.68,4.68C-84.96-201.4-87.06-199.3-89.64-199.3z"/>
			</g>
		</g>
		<g>
			<g>
				<circle cx="-73.34" cy="-215.44" r="3.39"/>
			</g>
		</g>
		<g>
			<g>
				<circle cx="-83.01" cy="-224.29" r="3.39"/>
			</g>
		</g>
		<g>
			<g>
				<circle cx="-63.67" cy="-224.29" r="3.39"/>
			</g>
		</g>
		<g>
			<g>
				<path d="M-119.42-207.37h-4.68v-4.68c0-1.87-1.52-3.39-3.39-3.39s-3.39,1.52-3.39,3.39v4.68h-4.68c-1.87,0-3.39,1.52-3.39,3.39
					c0,1.87,1.52,3.39,3.39,3.39h4.68v4.68c0,1.87,1.52,3.39,3.39,3.39s3.39-1.52,3.39-3.39v-4.68h4.68c1.87,0,3.39-1.52,3.39-3.39
					C-116.03-205.85-117.55-207.37-119.42-207.37z"/>
			</g>
		</g>
		<path d="M-5.92-155.62h-38.1c6.63-7.39,9.39-17.79,6.83-27.78c-3.19-12.45-6.01-24.99-9.35-37.4c-2.4-8.93-6.4-18.01-14.52-23.12
			c-1.56-0.98-3.23-1.8-4.97-2.44l-9.3-3.48c-4.16-1.56-8.82-0.79-12.26,1.91h-45.03c-3.44-2.7-8.1-3.47-12.26-1.91l-9.3,3.48
			c-8.8,3.29-15.45,10.69-17.78,19.79l-11.06,43.18c-2.56,9.99,0.2,20.39,6.83,27.78h-38.09c-4.33,0-7.85,3.52-7.85,7.85v21.52
			v12.19v21.52c0,4.33,3.52,7.85,7.85,7.85h13.75v2.25c0,1.87,1.52,3.39,3.39,3.39c1.87,0,3.39-1.52,3.39-3.39v-2.25h167.32v2.25
			c0,1.87,1.52,3.39,3.39,3.39c1.87,0,3.39-1.52,3.39-3.39v-2.25h13.75c4.33,0,7.85-3.52,7.85-7.85v-55.24
			C1.92-152.1-1.6-155.62-5.92-155.62z M-94.51-241.15l-3.49,3.49c-1.06,1.06-2.48,1.65-3.99,1.65h-8.13h-8.13
			c-1.5,0-2.92-0.59-3.98-1.65l-3.49-3.49H-94.51z M-176.47-181.71l11.06-43.18c1.78-6.96,6.86-12.61,13.59-15.13l9.3-3.48
			c2.15-0.81,4.6-0.28,6.23,1.35c0,0,0,0,0,0l9.27,9.27c2.34,2.34,5.46,3.63,8.77,3.63h8.13h8.13c3.31,0,6.43-1.29,8.78-3.63
			l9.27-9.27c1.63-1.63,4.07-2.16,6.23-1.35l9.3,3.48c4.49,1.68,8.22,4.73,10.76,8.7c0.45,1.25,3.89,11.03,6.86,22.17l7.03,27.43
			c2.52,9.82-1.59,20.15-10.01,25.6l-18.05-22.61c-3.54-4.44-8.83-6.98-14.51-6.98h-23.78h-23.78c-5.68,0-10.97,2.55-14.51,6.98
			l-18.05,22.61C-174.88-161.57-178.99-171.9-176.47-181.71z M-62.04-155.61h-63.28h-10.24h-14.78h-2.23h-5.61l15.07-18.88
			c2.25-2.82,5.61-4.44,9.22-4.44h23.78h23.78c3.61,0,6.97,1.62,9.22,4.44L-62.04-155.61z M-5.92-91.46H-214.3
			c-0.59,0-1.07-0.48-1.07-1.07v-21.52v-8.81h107.71v5.42h-96.57c-1.87,0-3.39,1.52-3.39,3.39c0,1.87,1.52,3.39,3.39,3.39h97.06
			c3.46,0,6.28-2.82,6.28-6.28v-6.41c0-3.46-2.82-6.28-6.28-6.28h-108.2v-18.14c0-0.59,0.48-1.07,1.07-1.07h48.12
			c0.03,0,0.07,0.01,0.1,0.01c0.04,0,0.08-0.01,0.12-0.01h13.39h2.23h14.78h10.24h71.05c0.04,0,0.08,0.01,0.12,0.01
			c0.03,0,0.07-0.01,0.1-0.01h48.12c0.59,0,1.07,0.48,1.07,1.07v55.24h0C-4.85-91.94-5.33-91.46-5.92-91.46z"/>
	</g>
</g>
<g>
	<g>
		<g>
			<path class="st0" d="M56.74,56.52c-7.36,0-13.35,5.99-13.35,13.35c0,7.36,5.99,13.35,13.35,13.35s13.35-5.99,13.35-13.35
				C70.08,62.5,64.09,56.52,56.74,56.52z"/>
		</g>
	</g>
	<g>
		<g>
			<path class="st0" d="M54.33,4C26.58,4,4,26.58,4,54.33v123.41c0,27.75,22.58,50.33,50.33,50.33h55.14V4H54.33z"/>
		</g>
	</g>
	<g>
		<g>
			<path class="st0" d="M175.33,116.47c-7.36,0-13.35,5.99-13.35,13.35c0,7.36,5.99,13.35,13.35,13.35
				c7.36,0,13.35-5.99,13.35-13.35C188.68,122.46,182.69,116.47,175.33,116.47z"/>
		</g>
	</g>
	<g>
		<g>
			<path class="st0" d="M177.74,4H122.6v224.07h55.14c27.75,0,50.33-22.58,50.33-50.33V54.33C228.07,26.58,205.49,4,177.74,4z"/>
		</g>
	</g>
</g>
</svg>
