<?xml version="1.0" encoding="utf-8"?>
<!-- Generator: Adobe Illustrator 24.1.0, SVG Export Plug-In . SVG Version: 6.00 Build 0)  -->
<svg version="1.1" id="Capa_1" xmlns="http://www.w3.org/2000/svg" xmlns:xlink="http://www.w3.org/1999/xlink" x="0px" y="0px"
	 viewBox="0 0 224.07 115.34" style="enable-background:new 0 0 224.07 115.34;" xml:space="preserve">
<g>
	<g>
		<g>
			<path d="M-735.9,83.47h-14.94V68.53c0-2.06-1.67-3.73-3.73-3.73h-14.94c-2.06,0-3.73,1.67-3.73,3.73v14.94h-14.94
				c-2.06,0-3.73,1.67-3.73,3.73v14.94c0,2.06,1.67,3.73,3.73,3.73h14.94v14.94c0,2.06,1.67,3.73,3.73,3.73h14.94
				c2.06,0,3.73-1.67,3.73-3.73v-14.94h14.94c2.06,0,3.73-1.67,3.73-3.73V87.2C-732.17,85.14-733.84,83.47-735.9,83.47z
				 M-739.64,98.41h-14.94c-2.06,0-3.73,1.67-3.73,3.73v14.94h-7.47v-14.94c0-2.06-1.67-3.73-3.73-3.73h-14.94v-7.47h14.94
				c2.06,0,3.73-1.67,3.73-3.73V72.27h7.47V87.2c0,2.06,1.67,3.73,3.73,3.73h14.94V98.41z"/>
		</g>
	</g>
	<g>
		<g>
			<path d="M-598.12,87.85c-2.86-25.73-27.03-49.8-52.78-52.55c-2.19-0.24-4.39-0.37-6.59-0.37h-41.07V19.99h-7.47v-7.47
				c0-8.25-6.69-14.94-14.94-14.94h-18.67c-4.12,0-7.47-3.34-7.47-7.47s3.34-7.47,7.47-7.47h59.74c8.25,0,14.94-6.69,14.94-14.94
				s-6.69-14.94-14.94-14.94h-18.67c-4.12,0-7.47-3.34-7.47-7.47v-14.94h-7.47v14.94c0,8.25,6.69,14.94,14.94,14.94h18.67
				c4.12,0,7.47,3.34,7.47,7.47s-3.34,7.47-7.47,7.47h-59.74c-8.25,0-14.94,6.69-14.94,14.94s6.69,14.94,14.94,14.94h18.67
				c4.12,0,7.47,3.34,7.47,7.47v7.47h-7.47v14.94h-41.07c-2.2,0.01-4.4,0.13-6.59,0.37c-25.76,2.76-49.92,26.84-52.77,52.57
				c-3.75,32.78,19.78,62.4,52.56,66.15c13.35,1.53,26.82-1.49,38.25-8.56c4.92-3.22,10.54-5.21,16.39-5.79
				c2.89-0.23,5.79-0.24,8.68-0.03c5.94,0.57,11.65,2.58,16.65,5.85c28.07,17.35,64.88,8.65,82.23-19.41
				C-599.59,114.65-596.59,101.19-598.12,87.85z M-713.5,27.46h7.47v7.47h-7.47V27.46z M-618.53,129.53
				c-16.88,18.88-44.88,22.93-66.42,9.61c-6.02-3.92-12.9-6.31-20.05-6.96c-1.58-0.11-3.17-0.17-4.77-0.17
				c-1.7,0-3.36,0.07-5.03,0.2c-7.04,0.67-13.81,3.04-19.75,6.89c-24.55,15.19-56.77,7.6-71.96-16.95
				c-6.18-9.99-8.82-21.78-7.48-33.46c2.46-22.11,24.02-43.59,46.15-45.97c1.92-0.22,3.86-0.33,5.79-0.33h104.55
				c1.93,0,3.87,0.1,5.79,0.31c22.13,2.38,43.69,23.86,46.15,45.97C-603.79,103.53-608.52,118.41-618.53,129.53z"/>
		</g>
	</g>
	<g>
		<g>
			<path d="M-657.49,57.33c-8.25,0-14.94,6.69-14.94,14.94s6.69,14.94,14.94,14.94c8.25,0,14.94-6.69,14.94-14.94
				S-649.24,57.33-657.49,57.33z M-657.49,79.74c-4.12,0-7.47-3.34-7.47-7.47c0-4.12,3.34-7.47,7.47-7.47
				c4.12,0,7.47,3.34,7.47,7.47C-650.02,76.39-653.37,79.74-657.49,79.74z"/>
		</g>
	</g>
	<g>
		<g>
			<path d="M-657.49,102.14c-8.25,0-14.94,6.69-14.94,14.94s6.69,14.94,14.94,14.94c8.25,0,14.94-6.69,14.94-14.94
				S-649.24,102.14-657.49,102.14z M-657.49,124.54c-4.12,0-7.47-3.34-7.47-7.47s3.34-7.47,7.47-7.47c4.12,0,7.47,3.34,7.47,7.47
				S-653.37,124.54-657.49,124.54z"/>
		</g>
	</g>
	<g>
		<g>
			<path d="M-683.63,79.74c-8.25,0-14.94,6.69-14.94,14.94s6.69,14.94,14.94,14.94c8.25,0,14.94-6.69,14.94-14.94
				S-675.38,79.74-683.63,79.74z M-683.63,102.14c-4.12,0-7.47-3.34-7.47-7.47s3.34-7.47,7.47-7.47c4.12,0,7.47,3.34,7.47,7.47
				S-679.5,102.14-683.63,102.14z"/>
		</g>
	</g>
	<g>
		<g>
			<path d="M-631.35,79.74c-8.25,0-14.94,6.69-14.94,14.94s6.69,14.94,14.94,14.94s14.94-6.69,14.94-14.94
				S-623.1,79.74-631.35,79.74z M-631.35,102.14c-4.12,0-7.47-3.34-7.47-7.47s3.34-7.47,7.47-7.47s7.47,3.34,7.47,7.47
				S-627.23,102.14-631.35,102.14z"/>
		</g>
	</g>
</g>
<g>
	<g>
		<g>
			<path d="M-369.5-80.35h-81.98c-2.06,0-3.73,1.67-3.73,3.73V43.55h7.45V-72.9h74.52v216.12h-61.02v7.45h64.74
				c2.06,0,3.73-1.67,3.73-3.73V-76.62C-365.77-78.68-367.44-80.35-369.5-80.35z"/>
		</g>
	</g>
	<g>
		<g>
			<path d="M-417.94-80.35c-2.06,0-3.73,1.67-3.73,3.73v85.7c0,2.06,1.67,3.73,3.73,3.73c2.06,0,3.73-1.67,3.73-3.73v-85.7
				C-414.21-78.68-415.88-80.35-417.94-80.35z"/>
		</g>
	</g>
	<g>
		<g>
			<path d="M-417.94,72.43c-2.06,0-3.73,1.67-3.73,3.73v70.8c0,2.06,1.67,3.73,3.73,3.73c2.06,0,3.73-1.67,3.73-3.73v-70.8
				C-414.21,74.1-415.88,72.43-417.94,72.43z"/>
		</g>
	</g>
	<g>
		<g>
			<path d="M-417.94,27.71c-2.06,0-3.73,1.67-3.73,3.73V53.8c0,2.06,1.67,3.73,3.73,3.73c2.06,0,3.73-1.67,3.73-3.73V31.44
				C-414.21,29.38-415.88,27.71-417.94,27.71z"/>
		</g>
	</g>
	<g>
		<g>
			<path d="M-429.37,93.37c-0.78-2.9-1.53-5.73-2.26-8.48c-6.75-25.47-11.62-43.87-24.53-47.69c-5.1-1.51-15.7-4.65-27.15,2.14
				c-9,5.34-39.13,5.33-48.12,0c-11.45-6.79-22.05-3.65-27.17-2.13c-12.88,3.81-17.76,22.22-24.5,47.68
				c-0.73,2.75-1.48,5.58-2.26,8.48c-6,22.21-5.97,43.32,0.08,53.79c2.14,3.72,4.96,6.06,8.37,6.97c0.7,0.19,1.4,0.28,2.11,0.28
				c8.12,0,16.33-11.89,24.29-23.41c3.4-4.92,6.91-10.01,8.81-11.49c1.32-1.02,6.38-3.38,24.67-3.13l22.78-0.02
				c15.59,0.07,20.04,2.22,21.23,3.15h0c1.9,1.47,5.41,6.56,8.81,11.49c8.65,12.53,17.6,25.51,26.4,23.14
				c3.41-0.9,6.23-3.25,8.37-6.97C-423.4,136.7-423.37,115.58-429.37,93.37z M-435.9,143.44c-1.12,1.94-2.41,3.11-3.83,3.49
				c-3.74,0.94-13.98-13.84-18.35-20.17c-4.23-6.12-7.57-10.96-10.38-13.14c-2.56-1.98-8.01-4.63-25.78-4.71l-22.75,0.02
				c-15.37-0.22-24.95,1.33-29.28,4.69c-2.81,2.18-6.15,7.02-10.38,13.14c-4.37,6.33-14.59,21.17-18.35,20.17
				c-1.42-0.38-2.71-1.55-3.83-3.49c-4.18-7.25-5.6-24.94,0.66-48.12c0.79-2.91,1.54-5.75,2.27-8.51
				c5.89-22.25,10.55-39.82,19.44-42.45c2.37-0.7,5.83-1.73,9.87-1.73c3.47,0,7.37,0.76,11.36,3.12c11.2,6.64,44.53,6.64,55.73,0
				c8.64-5.12,16.83-2.7,21.25-1.39c8.87,2.63,13.52,20.2,19.42,42.45c0.73,2.76,1.48,5.6,2.27,8.51
				C-430.3,118.5-431.71,136.19-435.9,143.44z"/>
		</g>
	</g>
	<g>
		<g>
			<rect x="-548.36" y="61.25" width="7.45" height="29.81"/>
		</g>
	</g>
	<g>
		<g>
			<path d="M-471.97,61.25c-9.25,0-16.77,7.52-16.77,16.77s7.52,16.77,16.77,16.77c9.25,0,16.77-7.52,16.77-16.77
				C-455.2,68.77-462.72,61.25-471.97,61.25z M-471.97,87.33c-5.14,0-9.32-4.18-9.32-9.32s4.18-9.32,9.32-9.32s9.32,4.18,9.32,9.32
				S-466.83,87.33-471.97,87.33z"/>
		</g>
	</g>
	<g>
		<g>
			<path d="M-389.99-61.72c-7.19,0-13.04,5.85-13.04,13.04s5.85,13.04,13.04,13.04c7.19,0,13.04-5.85,13.04-13.04
				S-382.8-61.72-389.99-61.72z M-389.99-43.09c-3.08,0-5.59-2.51-5.59-5.59s2.51-5.59,5.59-5.59c3.08,0,5.59,2.51,5.59,5.59
				S-386.91-43.09-389.99-43.09z"/>
		</g>
	</g>
	<g>
		<g>
			<path d="M-389.99-28.18c-7.19,0-13.04,5.85-13.04,13.04s5.85,13.04,13.04,13.04c7.19,0,13.04-5.85,13.04-13.04
				C-376.95-22.33-382.8-28.18-389.99-28.18z M-389.99-9.55c-3.08,0-5.59-2.51-5.59-5.59c0-3.08,2.51-5.59,5.59-5.59
				c3.08,0,5.59,2.51,5.59,5.59C-384.4-12.06-386.91-9.55-389.99-9.55z"/>
		</g>
	</g>
	<g>
		<g>
			<path d="M-417.94,5.36c-8.22,0-14.9,6.69-14.9,14.9s6.69,14.9,14.9,14.9c8.22,0,14.9-6.69,14.9-14.9S-409.72,5.36-417.94,5.36z
				 M-417.94,27.71c-4.11,0-7.45-3.34-7.45-7.45s3.34-7.45,7.45-7.45c4.11,0,7.45,3.34,7.45,7.45S-413.83,27.71-417.94,27.71z"/>
		</g>
	</g>
	<g>
		<g>
			<path d="M-417.94,50.07c-8.22,0-14.9,6.69-14.9,14.9c0,8.22,6.69,14.9,14.9,14.9c8.22,0,14.9-6.69,14.9-14.9
				C-403.03,56.76-409.72,50.07-417.94,50.07z M-417.94,72.43c-4.11,0-7.45-3.34-7.45-7.45s3.34-7.45,7.45-7.45
				c4.11,0,7.45,3.34,7.45,7.45C-410.48,69.08-413.83,72.43-417.94,72.43z"/>
		</g>
	</g>
	<g>
		<g>
			<rect x="-559.54" y="72.43" width="29.81" height="7.45"/>
		</g>
	</g>
</g>
<g>
	<path d="M203.74,0H20.33C9.11,0.01,0.01,9.11,0,20.33v74.69c0.01,11.22,9.11,20.31,20.33,20.33h183.42
		c11.22-0.01,20.31-9.11,20.33-20.33V20.33C224.06,9.11,214.96,0.01,203.74,0z M6.62,95.02V20.33c0.01-7.57,6.14-13.7,13.71-13.71
		h23.16v102.11H20.33C12.76,108.72,6.63,102.58,6.62,95.02z M50.11,108.73V6.62h123.85v102.11H50.11z M217.45,95.02
		c-0.01,7.57-6.14,13.7-13.71,13.71h-23.16V6.62h23.16c7.57,0.01,13.7,6.14,13.71,13.71V95.02z"/>
	<path d="M165.92,11.35H58.14c-1.83,0-3.31,1.48-3.31,3.31c0,0,0,0,0,0v86.04c0,1.83,1.48,3.31,3.31,3.31c0,0,0,0,0,0h107.78
		c1.83,0,3.31-1.48,3.31-3.31c0,0,0,0,0,0V14.65C169.24,12.83,167.76,11.35,165.92,11.35C165.93,11.35,165.93,11.35,165.92,11.35z
		 M162.62,97.38H61.45V17.96h101.16V97.38z"/>
	<path d="M154.58,79.36c1.83,0,3.31-1.48,3.31-3.31c0,0,0,0,0,0V50.11c0-1.83-1.48-3.31-3.31-3.31c-1.83,0-3.31,1.48-3.31,3.31
		v25.94C151.27,77.88,152.75,79.36,154.58,79.36C154.58,79.36,154.58,79.36,154.58,79.36z"/>
	<path d="M199.02,72.74c-8.09,0-14.65,6.56-14.65,14.65s6.56,14.65,14.65,14.65c8.09,0,14.65-6.56,14.65-14.65
		C213.66,79.31,207.1,72.75,199.02,72.74z M199.02,95.43c-4.44,0-8.04-3.6-8.04-8.04c0-4.44,3.6-8.04,8.04-8.04
		c4.44,0,8.04,3.6,8.04,8.04C207.05,91.83,203.45,95.43,199.02,95.43z"/>
	<path d="M205.99,13.29c-4.96,0-8.98,4.02-8.98,8.98s4.02,8.98,8.98,8.98c4.96,0,8.98-4.02,8.98-8.98
		C214.96,17.32,210.94,13.3,205.99,13.29z M205.99,24.64c-1.31,0-2.36-1.06-2.36-2.36c0-1.31,1.06-2.36,2.36-2.36
		c1.31,0,2.36,1.06,2.36,2.36C208.35,23.58,207.29,24.64,205.99,24.64z"/>
	<path d="M192.04,45.2c4.96,0,8.98-4.02,8.98-8.98s-4.02-8.98-8.98-8.98s-8.98,4.02-8.98,8.98C183.07,41.18,187.08,45.2,192.04,45.2
		z M192.04,33.86c1.31,0,2.36,1.06,2.36,2.36c0,1.31-1.06,2.36-2.36,2.36s-2.36-1.06-2.36-2.36
		C189.68,34.92,190.74,33.86,192.04,33.86z"/>
	<path d="M25.05,42.6c8.09,0,14.65-6.56,14.65-14.65s-6.56-14.65-14.65-14.65S10.4,19.86,10.4,27.95
		C10.41,36.04,16.96,42.59,25.05,42.6z M25.05,19.91c4.44,0,8.04,3.6,8.04,8.04s-3.6,8.04-8.04,8.04s-8.04-3.6-8.04-8.04l0,0
		C17.02,23.51,20.62,19.92,25.05,19.91z"/>
	<path d="M18.08,84.09c-4.96,0-8.98,4.02-8.98,8.98s4.02,8.98,8.98,8.98s8.98-4.02,8.98-8.98C27.06,88.11,23.04,84.09,18.08,84.09z
		 M18.08,95.43c-1.31,0-2.36-1.06-2.36-2.36c0-1.31,1.06-2.36,2.36-2.36c1.31,0,2.36,1.06,2.36,2.36
		C20.44,94.37,19.39,95.43,18.08,95.43z"/>
	<path d="M32.03,70.14c-4.96,0-8.98,4.02-8.98,8.98s4.02,8.98,8.98,8.98s8.98-4.02,8.98-8.98C41,74.16,36.98,70.15,32.03,70.14z
		 M32.03,81.49c-1.31,0-2.36-1.06-2.36-2.36c0-1.31,1.06-2.36,2.36-2.36c1.31,0,2.36,1.06,2.36,2.36
		C34.39,80.43,33.33,81.48,32.03,81.49z"/>
</g>
<g id="game_controller-video_game_controller-controller-monitor-hands">
	<path d="M-605.2,232.02h-216.6c-2.06,0-3.73,1.67-3.73,3.73v171.79c0,2.06,1.67,3.73,3.73,3.73h44.14l4.41,15.46v25.62
		c0,2.06,1.67,3.73,3.73,3.73h29.88c2.06,0,3.73-1.67,3.73-3.73v-22.82c7.32-1.5,13.05-7.21,14.56-14.53h15.68
		c0.73,3.6,2.51,6.9,5.12,9.49c2.59,2.57,5.87,4.33,9.45,5.08v22.78c0,2.06,1.67,3.73,3.73,3.73h29.88c2.06,0,3.73-1.67,3.73-3.73
		v-25.62l4.41-15.46h44.14c2.06,0,3.73-1.67,3.73-3.73V235.75C-601.46,233.69-603.14,232.02-605.2,232.02L-605.2,232.02z
		 M-746.92,416.2l3.55,10.61v21.81h-22.41v-22.41c0.01-0.34-0.04-0.68-0.15-1.01l-6.12-21.47c-0.4-1.43,0.07-2.96,1.2-3.92
		l12.55-10.46v15.72c-0.01,1.51,0.91,2.87,2.32,3.44c1.39,0.58,3,0.28,4.07-0.78l8.96-9c1.42-1.46,3.76-1.5,5.23-0.07
		c0.03,0.02,0.05,0.05,0.07,0.07c0.71,0.68,1.1,1.63,1.08,2.61c0.02,0.99-0.37,1.95-1.08,2.65l-8.37,8.37
		C-747.03,413.37-747.38,414.86-746.92,416.2L-746.92,416.2z M-689.93,422.18c-2.01-0.48-3.86-1.5-5.34-2.95
		c-2.11-2.11-3.29-4.97-3.29-7.95c0-2.06-1.67-3.73-3.73-3.73h-22.41c-2.06,0-3.73,1.67-3.73,3.73c-0.02,5.19-3.58,9.7-8.63,10.9
		l-2.05-6.16l6.76-6.72c4.38-4.38,4.38-11.49,0-15.87c-4.38-4.38-11.49-4.38-15.87,0l-2.61,2.65V381.4
		c0.02-6.18,5.02-11.18,11.2-11.2h52.28c6.18,0.02,11.19,5.02,11.2,11.2v14.68l-2.65-2.65c-4.38-4.37-11.48-4.36-15.85,0.02
		c-4.37,4.38-4.36,11.48,0.02,15.85l6.76,6.72L-689.93,422.18z M-654.94,403.73l-6.12,21.47c-0.11,0.33-0.16,0.67-0.15,1.01v22.41
		h-22.41v-21.81l3.55-10.61c0.45-1.35,0.11-2.84-0.9-3.85l-8.37-8.37c-0.71-0.7-1.1-1.66-1.08-2.65c-0.02-0.98,0.38-1.93,1.08-2.61
		c1.42-1.45,3.76-1.48,5.21-0.05c0.02,0.02,0.04,0.04,0.05,0.05l9,9c1.07,1.06,2.68,1.37,4.07,0.78c1.4-0.56,2.32-1.92,2.32-3.44
		v-15.68l12.55,10.46C-655.01,400.79-654.54,402.31-654.94,403.73L-654.94,403.73z M-608.93,403.81h-38.47
		c0.38-3.69-1.11-7.33-3.96-9.71l-17.51-14.6c-0.95-9.5-8.94-16.74-18.49-16.77h-52.28c-9.55,0.03-17.53,7.27-18.49,16.77
		l-17.51,14.6c-2.85,2.38-4.34,6.02-3.96,9.71h-38.47V239.49h209.13V403.81z"/>
	<path d="M-717.23,269.36h7.47v7.47h-7.47V269.36z"/>
	<path d="M-680.3,301.29l-14.53-29.09v-6.57c-0.01-3.52-1.67-6.84-4.48-8.96l-11.95-8.96c-1.32-1.01-3.16-1.01-4.48,0l-11.95,8.96
		c-2.82,2.12-4.47,5.44-4.48,8.96v6.57l-14.53,29.09c-0.93,1.84-0.19,4.09,1.65,5.02c0.52,0.26,1.09,0.4,1.67,0.4h18.67v7.47
		c0,0.73,0.22,1.45,0.63,2.05l7.47,11.2c1.11,1.71,3.4,2.2,5.11,1.08c0.43-0.28,0.8-0.65,1.08-1.08l7.47-11.2
		c0.42-0.6,0.64-1.32,0.63-2.05v-7.47h18.67c2.06-0.01,3.73-1.68,3.72-3.75C-679.9,302.38-680.04,301.81-680.3,301.29L-680.3,301.29
		z M-732.17,299.24h-5.15l5.15-10.31V299.24z M-709.76,313.06l-3.73,5.6l-3.73-5.6v-6.35h7.47V313.06z M-702.3,299.24h-7.47v-11.2
		h-7.47v11.2h-7.47v-33.61c0.01-1.17,0.56-2.28,1.49-2.99l9.71-7.28l9.71,7.28c0.93,0.71,1.49,1.81,1.49,2.99V299.24z
		 M-694.83,299.24v-10.31l5.15,10.31H-694.83z"/>
	<path d="M-743.79,331.17l-14.53-29.09v-6.57c-0.01-3.52-1.67-6.84-4.48-8.96l-11.95-8.96c-1.32-1.01-3.16-1.01-4.48,0l-11.95,8.96
		c-2.82,2.12-4.47,5.44-4.48,8.96v6.57l-14.53,29.09c-0.93,1.84-0.19,4.09,1.65,5.02c0.52,0.26,1.09,0.4,1.67,0.4h18.67v7.47
		c0,0.73,0.22,1.45,0.63,2.05l7.47,11.2c1.11,1.71,3.4,2.2,5.11,1.08c0.43-0.28,0.8-0.65,1.08-1.08l7.47-11.2
		c0.42-0.6,0.64-1.32,0.63-2.05v-7.47h18.67c2.06-0.01,3.73-1.68,3.72-3.75C-743.39,332.26-743.52,331.69-743.79,331.17z
		 M-795.66,329.12h-5.15l5.15-10.31V329.12z M-773.25,342.93l-3.73,5.6l-3.73-5.6v-6.35h7.47V342.93z M-765.78,329.12h-7.47v-11.2
		h-7.47v11.2h-7.47v-33.61c0.01-1.17,0.56-2.28,1.49-2.99l9.71-7.28l9.71,7.28c0.93,0.71,1.49,1.81,1.49,2.99V329.12z
		 M-758.31,329.12v-10.31l5.15,10.31H-758.31z"/>
	<path d="M-780.72,299.24h7.47v7.47h-7.47V299.24z"/>
	<path d="M-653.75,299.24h7.47v7.47h-7.47V299.24z"/>
	<path d="M-616.81,331.17l-14.53-29.09v-6.57c-0.01-3.52-1.67-6.84-4.48-8.96l-11.95-8.96c-1.32-1.01-3.16-1.01-4.48,0l-11.95,8.96
		c-2.82,2.12-4.47,5.44-4.48,8.96v6.57l-14.53,29.09c-0.93,1.84-0.19,4.09,1.65,5.02c0.52,0.26,1.09,0.4,1.67,0.4h18.67v7.47
		c0,0.73,0.22,1.45,0.63,2.05l7.47,11.2c1.11,1.71,3.4,2.2,5.11,1.08c0.43-0.28,0.8-0.65,1.08-1.08l7.47-11.2
		c0.42-0.6,0.64-1.32,0.63-2.05v-7.47h18.67c2.06-0.01,3.73-1.68,3.72-3.75C-616.42,332.26-616.55,331.69-616.81,331.17
		L-616.81,331.17z M-668.69,329.12h-5.15l5.15-10.31V329.12z M-646.28,342.93l-3.73,5.6l-3.73-5.6v-6.35h7.47V342.93z
		 M-638.81,329.12h-7.47v-11.2h-7.47v11.2h-7.47v-33.61c0.01-1.17,0.56-2.28,1.49-2.99l9.71-7.28l9.71,7.28
		c0.93,0.71,1.49,1.81,1.49,2.99V329.12z M-631.34,329.12v-10.31l5.15,10.31H-631.34z"/>
	<path d="M-717.23,336.58h7.47v7.47h-7.47V336.58z"/>
	<path d="M-803.13,344.05h7.47v7.47h-7.47V344.05z"/>
	<path d="M-758.31,344.05h7.47v7.47h-7.47V344.05z"/>
	<path d="M-739.64,314.18h7.47v7.47h-7.47V314.18z"/>
	<path d="M-694.83,314.18h7.47v7.47h-7.47V314.18z"/>
	<path d="M-676.15,344.05h7.47v7.47h-7.47V344.05z"/>
	<path d="M-631.34,344.05h7.47v7.47h-7.47V344.05z"/>
	<path d="M-780.72,366.46h7.47v7.47h-7.47V366.46z"/>
	<path d="M-653.75,366.46h7.47v7.47h-7.47V366.46z"/>
	<path d="M-653.75,246.96h7.47v7.47h-7.47V246.96z"/>
	<path d="M-638.81,246.96h7.47v7.47h-7.47V246.96z"/>
	<path d="M-623.87,246.96h7.47v7.47h-7.47V246.96z"/>
	<path d="M-803.13,254.43h11.2v-7.47h-14.94c-2.06,0-3.73,1.67-3.73,3.73v14.94h7.47V254.43z"/>
	<path d="M-810.6,273.1h7.47v7.47h-7.47V273.1z"/>
</g>
<g>
	<path d="M-239.53,224.55c-61.77,0-112.03,50.26-112.03,112.03s50.26,112.03,112.03,112.03s112.03-50.26,112.03-112.03
		S-177.76,224.55-239.53,224.55z M-239.53,440c-57.02,0-103.42-46.4-103.42-103.42s46.4-103.42,103.42-103.42
		s103.42,46.4,103.42,103.42S-182.51,440-239.53,440z"/>
	<path d="M-185.67,332.28h-49.55v-47.4c0-2.38-1.93-4.31-4.31-4.31s-4.31,1.93-4.31,4.31v47.4h-49.55c-2.38,0-4.31,1.93-4.31,4.31
		s1.93,4.31,4.31,4.31h49.55v51.71c0,2.38,1.93,4.31,4.31,4.31s4.31-1.93,4.31-4.31v-51.71h49.55c2.38,0,4.31-1.93,4.31-4.31
		S-183.29,332.28-185.67,332.28z"/>
</g>
<g>
	<path d="M-450.85,269.84h-60.87c-4.46,0-8.08,3.62-8.08,8.08v55.2c0,4.46,3.62,8.08,8.08,8.08h60.87c4.46,0,8.08-3.62,8.08-8.08
		c0-6.28,0-48.36,0-55.2C-442.77,273.46-446.39,269.84-450.85,269.84z M-490.66,335.4h-7.16v-7.16h7.16V335.4z M-477.7,335.4h-7.16
		v-7.16h7.16V335.4z M-477.7,322.45h-7.16v-7.16h7.16V322.45z M-464.75,335.4h-7.16v-7.16h7.16V335.4z M-450.85,335.4h-8.1v-7.91
		c0.8,0.48,1.72,0.76,2.72,0.76h7.66v4.88h0C-448.57,334.38-449.59,335.4-450.85,335.4z M-448.57,322.45h-7.16v-7.16h7.16V322.45z
		 M-448.57,309.49h-7.16v-7.16h7.16V309.49z M-448.57,296.53h-7.16v-7.16h7.16V296.53z M-448.57,277.92v5.66h-7.66
		c-2.92,0-5.29,2.38-5.29,5.29v34.08c0,0.02,0,0.04,0,0.06c-0.68-0.36-1.45-0.57-2.27-0.57h-8.11v-8.11c0-2.67-2.17-4.84-4.84-4.84
		h-9.07c-2.67,0-4.84,2.17-4.84,4.84v8.11h-8.11c-2.67,0-4.84,2.17-4.84,4.84v8.11h-8.1c-1.26,0-2.28-1.02-2.28-2.28v-55.2
		c0-1.26,1.02-2.28,2.28-2.28h60.87C-449.59,275.64-448.57,276.66-448.57,277.92L-448.57,277.92z"/>
	<path d="M-494.24,280.8h-11.58c-1.6,0-2.9,1.3-2.9,2.9s1.3,2.9,2.9,2.9h11.58c1.6,0,2.9-1.3,2.9-2.9
		C-491.34,282.1-492.64,280.8-494.24,280.8z"/>
	<path d="M-455.75,425.33c8.04,0,14.58-6.54,14.58-14.58c0-8.04-6.54-14.58-14.58-14.58s-14.58,6.54-14.58,14.58
		S-463.79,425.33-455.75,425.33z M-455.75,401.98c4.84,0,8.78,3.94,8.78,8.78s-3.94,8.78-8.78,8.78c-4.84,0-8.78-3.94-8.78-8.78
		C-464.53,405.91-460.59,401.98-455.75,401.98z"/>
	<path d="M-429.54,349.11l0-82.61c0-5.61-4.56-10.18-10.18-10.18h-83.13c-5.61,0-10.18,4.56-10.18,10.18v82.6
		c-2.7,0.89-4.65,3.44-4.65,6.43v15.74c0,2.99,1.95,5.54,4.65,6.43v66.44c0,5.61,4.56,10.18,10.18,10.18h34.8
		c0.08,0,0.15-0.02,0.23-0.02h13.08c0.08,0.01,0.15,0.02,0.23,0.02h34.8c5.61,0,10.18-4.56,10.18-10.18V377.7
		c2.7-0.89,4.65-3.44,4.65-6.43v-15.74C-424.89,352.54-426.84,350-429.54,349.11z M-527.22,266.5c0-2.41,1.96-4.37,4.37-4.37h83.13
		c2.41,0,4.37,1.96,4.37,4.37v36.16c0,0,0,0,0,0.01v13.52c0,0,0,0,0,0v32.57h-91.88V266.5z M-435.34,444.14
		c0,2.41-1.96,4.37-4.37,4.37h-83.13c-2.41,0-4.37-1.96-4.37-4.37v-66.09h91.88V444.14z M-430.69,371.27c0,0.54-0.44,0.97-0.97,0.97
		c-2.63,0-96.62,0-99.24,0c-0.54,0-0.97-0.44-0.97-0.97v-15.74c0-0.54,0.44-0.97,0.97-0.97h99.24c0.54,0,0.97,0.44,0.97,0.97V371.27
		z"/>
	<path d="M-442.34,360.5h-13.56c-1.6,0-2.9,1.3-2.9,2.9s1.3,2.9,2.9,2.9h13.56c1.6,0,2.9-1.3,2.9-2.9S-440.74,360.5-442.34,360.5z"
		/>
	<path d="M-515.39,419.45h3.54c1.67,0,3.24-0.48,4.56-1.3c-0.82,1.33-1.3,2.89-1.3,4.56v3.54c0,3.31,2.69,6,6,6h5.39
		c3.31,0,6-2.69,6-6v-3.54c0-1.67-0.48-3.24-1.3-4.56c1.33,0.82,2.89,1.3,4.56,1.3h3.54c3.31,0,6-2.69,6-6v-5.39c0-3.31-2.69-6-6-6
		h-3.54c-1.67,0-3.24,0.48-4.56,1.3c0.82-1.33,1.3-2.89,1.3-4.56v-3.54c0-3.31-2.69-6-6-6h-5.39c-3.31,0-6,2.69-6,6v3.54
		c0,1.67,0.48,3.24,1.3,4.56c-1.33-0.82-2.89-1.3-4.56-1.3h-3.54c-3.31,0-6,2.69-6,6v5.39
		C-521.39,416.76-518.7,419.45-515.39,419.45z M-487.92,407.86h3.54c0.11,0,0.2,0.09,0.2,0.2v5.39c0,0.11-0.09,0.2-0.2,0.2h-3.54
		c-1.6,0-2.9-1.3-2.9-2.9C-490.82,409.16-489.52,407.86-487.92,407.86z M-497.19,426.46h-5.39c-0.11,0-0.2-0.09-0.2-0.2v-3.54
		c0-1.6,1.3-2.9,2.9-2.9s2.9,1.3,2.9,2.9v3.54h0C-496.99,426.37-497.08,426.46-497.19,426.46z M-502.58,395.05h5.39
		c0.11,0,0.2,0.09,0.2,0.2v3.54c0,1.6-1.3,2.9-2.9,2.9c-1.6,0-2.9-1.3-2.9-2.9v-3.54h0C-502.78,395.14-502.69,395.05-502.58,395.05z
		 M-504.45,406.19c1.33,0.82,2.89,1.3,4.56,1.3c1.67,0,3.24-0.48,4.56-1.3c-0.82,1.33-1.3,2.89-1.3,4.56c0,1.67,0.48,3.24,1.3,4.56
		c-1.33-0.82-2.89-1.3-4.56-1.3c-1.67,0-3.24,0.48-4.56,1.3c0.82-1.33,1.3-2.89,1.3-4.56S-503.63,407.52-504.45,406.19z
		 M-515.59,408.06c0-0.11,0.09-0.2,0.2-0.2h3.54c1.6,0,2.9,1.3,2.9,2.9c0,1.6-1.3,2.9-2.9,2.9h-3.54c-0.11,0-0.2-0.09-0.2-0.2
		V408.06z"/>
</g>
<g>
	<g>
		<g>
			<circle cx="-178.97" cy="-14.06" r="3.39"/>
		</g>
	</g>
	<g>
		<g>
			<g>
				<circle cx="-193.93" cy="99.22" r="3.39"/>
			</g>
		</g>
		<g>
			<g>
				<path d="M-136,88.61c-5.85,0-10.61,4.76-10.61,10.61c0,5.85,4.76,10.61,10.61,10.61s10.61-4.76,10.61-10.61
					C-125.39,93.37-130.15,88.61-136,88.61z M-136,103.06c-2.12,0-3.84-1.72-3.84-3.84c0-2.12,1.72-3.84,3.84-3.84
					c2.12,0,3.84,1.72,3.84,3.84C-132.16,101.34-133.88,103.06-136,103.06z"/>
			</g>
		</g>
		<g>
			<g>
				<path d="M-250.99-18.37c-6.32,0-11.46,5.14-11.46,11.46s5.14,11.45,11.46,11.45c6.32,0,11.45-5.14,11.45-11.45
					C-239.53-13.23-244.67-18.37-250.99-18.37z M-250.99-2.23c-2.58,0-4.68-2.1-4.68-4.68s2.1-4.68,4.68-4.68
					c2.58,0,4.68,2.1,4.68,4.68C-246.31-4.33-248.41-2.23-250.99-2.23z"/>
			</g>
		</g>
		<g>
			<g>
				<path d="M-195.28,3.93c-6.32,0-11.46,5.14-11.46,11.46s5.14,11.45,11.46,11.45s11.45-5.14,11.45-11.45
					C-183.82,9.07-188.96,3.93-195.28,3.93z M-195.28,20.06c-2.58,0-4.68-2.1-4.68-4.68s2.1-4.68,4.68-4.68s4.68,2.1,4.68,4.68
					S-192.7,20.06-195.28,20.06z"/>
			</g>
		</g>
		<g>
			<g>
				<circle cx="-178.97" cy="3.93" r="3.39"/>
			</g>
		</g>
		<g>
			<g>
				<circle cx="-188.64" cy="-4.92" r="3.39"/>
			</g>
		</g>
		<g>
			<g>
				<circle cx="-169.3" cy="-4.92" r="3.39"/>
			</g>
		</g>
		<g>
			<g>
				<path d="M-225.06,12h-4.68V7.32c0-1.87-1.52-3.39-3.39-3.39c-1.87,0-3.39,1.52-3.39,3.39V12h-4.68c-1.87,0-3.39,1.52-3.39,3.39
					s1.52,3.39,3.39,3.39h4.68v4.68c0,1.87,1.52,3.39,3.39,3.39c1.87,0,3.39-1.52,3.39-3.39v-4.68h4.68c1.87,0,3.39-1.52,3.39-3.39
					S-223.18,12-225.06,12z"/>
			</g>
		</g>
		<path d="M-111.56,63.75h-38.1c6.63-7.39,9.39-17.79,6.83-27.78c-3.19-12.45-6.01-24.99-9.35-37.4c-2.4-8.93-6.4-18.01-14.52-23.12
			c-1.56-0.98-3.23-1.8-4.97-2.44l-9.3-3.48c-4.16-1.56-8.82-0.79-12.26,1.91h-45.03c-3.44-2.7-8.1-3.47-12.26-1.91l-9.3,3.48
			c-8.8,3.29-15.45,10.69-17.78,19.79l-11.06,43.18c-2.56,9.99,0.2,20.39,6.83,27.78h-38.09c-4.33,0-7.85,3.52-7.85,7.85v21.52
			v12.19v21.52c0,4.33,3.52,7.85,7.85,7.85h13.75v2.25c0,1.87,1.52,3.39,3.39,3.39c1.87,0,3.39-1.52,3.39-3.39v-2.25h167.32v2.25
			c0,1.87,1.52,3.39,3.39,3.39s3.39-1.52,3.39-3.39v-2.25h13.75c4.33,0,7.85-3.52,7.85-7.85V71.6
			C-103.71,67.27-107.23,63.75-111.56,63.75z M-200.14-21.79l-3.49,3.49c-1.06,1.06-2.48,1.65-3.99,1.65h-8.13h-8.13
			c-1.5,0-2.92-0.59-3.98-1.65l-3.49-3.49H-200.14z M-282.1,37.65l11.06-43.18c1.78-6.96,6.86-12.61,13.59-15.13l9.3-3.48
			c2.15-0.81,4.6-0.28,6.23,1.35c0,0,0,0,0,0l9.27,9.27c2.34,2.34,5.46,3.63,8.77,3.63h8.13h8.13c3.31,0,6.43-1.29,8.78-3.63
			l9.27-9.27c1.63-1.63,4.07-2.16,6.23-1.35l9.3,3.48c4.49,1.68,8.22,4.73,10.76,8.7c0.45,1.25,3.89,11.03,6.86,22.17l7.03,27.43
			c2.52,9.82-1.59,20.15-10.01,25.6l-18.05-22.61c-3.54-4.44-8.83-6.98-14.51-6.98h-23.78h-23.78c-5.68,0-10.97,2.55-14.51,6.98
			l-18.05,22.61C-280.52,57.8-284.62,47.47-282.1,37.65z M-167.67,63.75h-63.28h-10.24h-14.78h-2.23h-5.61l15.07-18.88
			c2.25-2.82,5.61-4.44,9.22-4.44h23.78h23.78c3.61,0,6.97,1.62,9.22,4.44L-167.67,63.75z M-111.56,127.91h-208.38
			c-0.59,0-1.07-0.48-1.07-1.07v-21.52v-8.81h107.71v5.42h-96.57c-1.87,0-3.39,1.52-3.39,3.39c0,1.87,1.52,3.39,3.39,3.39h97.06
			c3.46,0,6.28-2.82,6.28-6.28v-6.41c0-3.46-2.82-6.28-6.28-6.28h-108.2V71.6c0-0.59,0.48-1.07,1.07-1.07h48.12
			c0.03,0,0.07,0.01,0.1,0.01c0.04,0,0.08-0.01,0.12-0.01h13.39h2.23h14.78h10.24h71.05c0.04,0,0.08,0.01,0.12,0.01
			c0.03,0,0.07-0.01,0.1-0.01h48.12c0.59,0,1.07,0.48,1.07,1.07v55.24h0C-110.49,127.43-110.97,127.91-111.56,127.91z"/>
	</g>
</g>
</svg>
