<?xml version="1.0" encoding="utf-8"?>
<!-- Generator: Adobe Illustrator 24.1.0, SVG Export Plug-In . SVG Version: 6.00 Build 0)  -->
<svg version="1.1" id="Capa_1" xmlns="http://www.w3.org/2000/svg" xmlns:xlink="http://www.w3.org/1999/xlink" x="0px" y="0px"
	 viewBox="0 0 112.79 197.99" style="enable-background:new 0 0 112.79 197.99;" xml:space="preserve">
<g>
	<g>
		<g>
			<path d="M-198.23-172.85h-14.94v-14.94c0-2.06-1.67-3.73-3.73-3.73h-14.94c-2.06,0-3.73,1.67-3.73,3.73v14.94h-14.94
				c-2.06,0-3.73,1.67-3.73,3.73v14.94c0,2.06,1.67,3.73,3.73,3.73h14.94v14.94c0,2.06,1.67,3.73,3.73,3.73h14.94
				c2.06,0,3.73-1.67,3.73-3.73v-14.94h14.94c2.06,0,3.73-1.67,3.73-3.73v-14.94C-194.49-171.18-196.16-172.85-198.23-172.85z
				 M-201.96-157.92h-14.94c-2.06,0-3.73,1.67-3.73,3.73v14.94h-7.47v-14.94c0-2.06-1.67-3.73-3.73-3.73h-14.94v-7.47h14.94
				c2.06,0,3.73-1.67,3.73-3.73v-14.94h7.47v14.94c0,2.06,1.67,3.73,3.73,3.73h14.94V-157.92z"/>
		</g>
	</g>
	<g>
		<g>
			<path d="M-60.44-168.47c-2.86-25.73-27.03-49.8-52.78-52.55c-2.19-0.24-4.39-0.37-6.59-0.37h-41.07v-14.94h-7.47v-7.47
				c0-8.25-6.69-14.94-14.94-14.94h-18.67c-4.12,0-7.47-3.34-7.47-7.47c0-4.12,3.34-7.47,7.47-7.47h59.74
				c8.25,0,14.94-6.69,14.94-14.94c0-8.25-6.69-14.94-14.94-14.94h-18.67c-4.12,0-7.47-3.34-7.47-7.47v-14.94h-7.47v14.94
				c0,8.25,6.69,14.94,14.94,14.94h18.67c4.12,0,7.47,3.34,7.47,7.47c0,4.12-3.34,7.47-7.47,7.47h-59.74
				c-8.25,0-14.94,6.69-14.94,14.94s6.69,14.94,14.94,14.94h18.67c4.12,0,7.47,3.34,7.47,7.47v7.47h-7.47v14.94h-41.07
				c-2.2,0.01-4.4,0.13-6.59,0.37c-25.76,2.76-49.92,26.84-52.77,52.57c-3.75,32.78,19.78,62.4,52.56,66.15
				c13.35,1.53,26.82-1.49,38.25-8.56c4.92-3.22,10.54-5.21,16.39-5.79c2.89-0.23,5.79-0.24,8.68-0.03
				c5.94,0.57,11.65,2.58,16.65,5.85c28.07,17.35,64.88,8.65,82.23-19.41C-61.92-141.67-58.91-155.14-60.44-168.47z M-175.82-228.86
				h7.47v7.47h-7.47V-228.86z M-80.85-126.8c-16.88,18.88-44.88,22.93-66.42,9.61c-6.02-3.92-12.9-6.31-20.05-6.96
				c-1.58-0.11-3.17-0.17-4.77-0.17c-1.7,0-3.36,0.07-5.03,0.2c-7.04,0.67-13.81,3.04-19.75,6.89
				c-24.55,15.19-56.77,7.6-71.96-16.95c-6.18-9.99-8.82-21.78-7.48-33.46c2.46-22.11,24.02-43.59,46.15-45.97
				c1.92-0.22,3.86-0.33,5.79-0.33h104.55c1.93,0,3.87,0.1,5.79,0.31c22.13,2.38,43.69,23.86,46.15,45.97
				C-66.11-152.8-70.84-137.91-80.85-126.8z"/>
		</g>
	</g>
	<g>
		<g>
			<path d="M-119.81-198.99c-8.25,0-14.94,6.69-14.94,14.94s6.69,14.94,14.94,14.94s14.94-6.69,14.94-14.94
				S-111.56-198.99-119.81-198.99z M-119.81-176.59c-4.12,0-7.47-3.34-7.47-7.47s3.34-7.47,7.47-7.47s7.47,3.34,7.47,7.47
				S-115.69-176.59-119.81-176.59z"/>
		</g>
	</g>
	<g>
		<g>
			<path d="M-119.81-154.18c-8.25,0-14.94,6.69-14.94,14.94s6.69,14.94,14.94,14.94s14.94-6.69,14.94-14.94
				S-111.56-154.18-119.81-154.18z M-119.81-131.78c-4.12,0-7.47-3.34-7.47-7.47s3.34-7.47,7.47-7.47s7.47,3.34,7.47,7.47
				S-115.69-131.78-119.81-131.78z"/>
		</g>
	</g>
	<g>
		<g>
			<path d="M-145.95-176.59c-8.25,0-14.94,6.69-14.94,14.94s6.69,14.94,14.94,14.94s14.94-6.69,14.94-14.94
				S-137.7-176.59-145.95-176.59z M-145.95-154.18c-4.12,0-7.47-3.34-7.47-7.47s3.34-7.47,7.47-7.47s7.47,3.34,7.47,7.47
				S-141.83-154.18-145.95-154.18z"/>
		</g>
	</g>
	<g>
		<g>
			<path d="M-93.68-176.59c-8.25,0-14.94,6.69-14.94,14.94s6.69,14.94,14.94,14.94s14.94-6.69,14.94-14.94
				S-85.43-176.59-93.68-176.59z M-93.68-154.18c-4.12,0-7.47-3.34-7.47-7.47s3.34-7.47,7.47-7.47c4.12,0,7.47,3.34,7.47,7.47
				S-89.55-154.18-93.68-154.18z"/>
		</g>
	</g>
</g>
<g>
	<g>
		<g>
			<path d="M168.18-336.67H86.2c-2.06,0-3.73,1.67-3.73,3.73v120.17h7.45v-116.45h74.52v216.12h-61.02v7.45h64.74
				c2.06,0,3.73-1.67,3.73-3.73v-223.57C171.91-335,170.24-336.67,168.18-336.67z"/>
		</g>
	</g>
	<g>
		<g>
			<path d="M119.74-336.67c-2.06,0-3.73,1.67-3.73,3.73v85.7c0,2.06,1.67,3.73,3.73,3.73c2.06,0,3.73-1.67,3.73-3.73v-85.7
				C123.47-335,121.8-336.67,119.74-336.67z"/>
		</g>
	</g>
	<g>
		<g>
			<path d="M119.74-183.9c-2.06,0-3.73,1.67-3.73,3.73v70.8c0,2.06,1.67,3.73,3.73,3.73c2.06,0,3.73-1.67,3.73-3.73v-70.8
				C123.47-182.23,121.8-183.9,119.74-183.9z"/>
		</g>
	</g>
	<g>
		<g>
			<path d="M119.74-228.61c-2.06,0-3.73,1.67-3.73,3.73v22.36c0,2.06,1.67,3.73,3.73,3.73c2.06,0,3.73-1.67,3.73-3.73v-22.36
				C123.47-226.94,121.8-228.61,119.74-228.61z"/>
		</g>
	</g>
	<g>
		<g>
			<path d="M108.31-162.95c-0.78-2.9-1.53-5.73-2.26-8.48c-6.75-25.47-11.62-43.87-24.53-47.69c-5.1-1.51-15.7-4.65-27.15,2.14
				c-9,5.34-39.13,5.33-48.12,0c-11.45-6.79-22.05-3.65-27.17-2.13c-12.88,3.81-17.76,22.22-24.5,47.68
				c-0.73,2.75-1.48,5.58-2.26,8.48c-6,22.21-5.97,43.32,0.08,53.79c2.14,3.72,4.96,6.06,8.37,6.97c0.7,0.19,1.4,0.28,2.11,0.28
				c8.12,0,16.33-11.89,24.29-23.41c3.4-4.92,6.91-10.01,8.81-11.49c1.32-1.02,6.38-3.38,24.67-3.13l22.78-0.02
				c15.59,0.07,20.04,2.22,21.23,3.15h0c1.9,1.47,5.41,6.56,8.81,11.49c8.65,12.53,17.6,25.51,26.4,23.14
				c3.41-0.9,6.23-3.25,8.37-6.97C114.27-119.63,114.31-140.74,108.31-162.95z M101.78-112.89c-1.12,1.94-2.41,3.11-3.83,3.49
				c-3.74,0.94-13.98-13.84-18.35-20.17c-4.23-6.12-7.57-10.96-10.38-13.14c-2.56-1.98-8.01-4.63-25.78-4.71l-22.75,0.02
				c-15.37-0.22-24.95,1.33-29.28,4.69c-2.81,2.18-6.15,7.02-10.38,13.14c-4.37,6.33-14.59,21.17-18.35,20.17
				c-1.42-0.38-2.71-1.55-3.83-3.49c-4.18-7.25-5.6-24.94,0.66-48.12c0.79-2.91,1.54-5.75,2.27-8.51
				c5.89-22.25,10.55-39.82,19.44-42.45c2.37-0.7,5.83-1.73,9.87-1.73c3.47,0,7.37,0.76,11.36,3.12c11.2,6.64,44.53,6.64,55.73,0
				c8.64-5.12,16.83-2.7,21.25-1.39c8.87,2.63,13.52,20.2,19.42,42.45c0.73,2.76,1.48,5.6,2.27,8.51
				C107.38-137.82,105.96-120.13,101.78-112.89z"/>
		</g>
	</g>
	<g>
		<g>
			<rect x="-10.68" y="-195.07" width="7.45" height="29.81"/>
		</g>
	</g>
	<g>
		<g>
			<path d="M65.71-195.08c-9.25,0-16.77,7.52-16.77,16.77s7.52,16.77,16.77,16.77s16.77-7.52,16.77-16.77
				C82.48-187.56,74.96-195.08,65.71-195.08z M65.71-168.99c-5.14,0-9.32-4.18-9.32-9.32s4.18-9.32,9.32-9.32s9.32,4.18,9.32,9.32
				S70.85-168.99,65.71-168.99z"/>
		</g>
	</g>
	<g>
		<g>
			<path d="M147.69-318.04c-7.19,0-13.04,5.85-13.04,13.04c0,7.19,5.85,13.04,13.04,13.04c7.19,0,13.04-5.85,13.04-13.04
				C160.73-312.19,154.88-318.04,147.69-318.04z M147.69-299.41c-3.08,0-5.59-2.51-5.59-5.59c0-3.08,2.51-5.59,5.59-5.59
				c3.08,0,5.59,2.51,5.59,5.59C153.28-301.92,150.77-299.41,147.69-299.41z"/>
		</g>
	</g>
	<g>
		<g>
			<path d="M147.69-284.51c-7.19,0-13.04,5.85-13.04,13.04c0,7.19,5.85,13.04,13.04,13.04c7.19,0,13.04-5.85,13.04-13.04
				C160.73-278.65,154.88-284.51,147.69-284.51z M147.69-265.87c-3.08,0-5.59-2.51-5.59-5.59c0-3.08,2.51-5.59,5.59-5.59
				c3.08,0,5.59,2.51,5.59,5.59C153.28-268.38,150.77-265.87,147.69-265.87z"/>
		</g>
	</g>
	<g>
		<g>
			<path d="M119.74-250.97c-8.22,0-14.9,6.69-14.9,14.9s6.69,14.9,14.9,14.9c8.22,0,14.9-6.69,14.9-14.9
				S127.96-250.97,119.74-250.97z M119.74-228.61c-4.11,0-7.45-3.34-7.45-7.45c0-4.11,3.34-7.45,7.45-7.45s7.45,3.34,7.45,7.45
				C127.19-231.95,123.85-228.61,119.74-228.61z"/>
		</g>
	</g>
	<g>
		<g>
			<path d="M119.74-206.25c-8.22,0-14.9,6.69-14.9,14.9c0,8.22,6.69,14.9,14.9,14.9c8.22,0,14.9-6.69,14.9-14.9
				C134.64-199.57,127.96-206.25,119.74-206.25z M119.74-183.9c-4.11,0-7.45-3.34-7.45-7.45c0-4.11,3.34-7.45,7.45-7.45
				s7.45,3.34,7.45,7.45C127.19-187.24,123.85-183.9,119.74-183.9z"/>
		</g>
	</g>
	<g>
		<g>
			<rect x="-21.86" y="-183.89" width="29.81" height="7.45"/>
		</g>
	</g>
</g>
<g>
	<path d="M741.42-256.32H558c-11.22,0.01-20.31,9.11-20.33,20.33v74.69c0.01,11.22,9.11,20.31,20.33,20.33h183.42
		c11.22-0.01,20.31-9.11,20.33-20.33V-236C761.73-247.22,752.64-256.31,741.42-256.32z M544.29-161.31V-236
		c0.01-7.57,6.14-13.7,13.71-13.71h23.16v102.11H558C550.44-147.61,544.3-153.74,544.29-161.31z M587.78-147.6v-102.11h123.85
		v102.11H587.78z M755.13-161.31c-0.01,7.57-6.14,13.7-13.71,13.71h-23.16v-102.11h23.16c7.57,0.01,13.7,6.14,13.71,13.71V-161.31z"
		/>
	<path d="M703.6-244.98H595.82c-1.83,0-3.31,1.48-3.31,3.31c0,0,0,0,0,0v86.04c0,1.83,1.48,3.31,3.31,3.31c0,0,0,0,0,0H703.6
		c1.83,0,3.31-1.48,3.31-3.31c0,0,0,0,0,0v-86.04C706.91-243.5,705.43-244.98,703.6-244.98C703.6-244.98,703.6-244.98,703.6-244.98z
		 M700.29-158.94H599.13v-79.42h101.16V-158.94z"/>
	<path d="M692.26-176.97c1.83,0,3.31-1.48,3.31-3.31c0,0,0,0,0,0v-25.94c0-1.83-1.48-3.31-3.31-3.31c-1.83,0-3.31,1.48-3.31,3.31
		v25.94C688.95-178.45,690.43-176.97,692.26-176.97C692.25-176.97,692.25-176.97,692.26-176.97z"/>
	<path d="M736.69-183.58c-8.09,0-14.65,6.56-14.65,14.65c0,8.09,6.56,14.65,14.65,14.65c8.09,0,14.65-6.56,14.65-14.65
		C751.34-177.02,744.78-183.57,736.69-183.58z M736.69-160.89c-4.44,0-8.04-3.6-8.04-8.04c0-4.44,3.6-8.04,8.04-8.04
		s8.04,3.6,8.04,8.04C744.72-164.49,741.13-160.9,736.69-160.89z"/>
	<path d="M743.66-243.03c-4.96,0-8.98,4.02-8.98,8.98c0,4.96,4.02,8.98,8.98,8.98s8.98-4.02,8.98-8.98
		C752.64-239.01,748.62-243.02,743.66-243.03z M743.66-231.68c-1.31,0-2.36-1.06-2.36-2.36c0-1.31,1.06-2.36,2.36-2.36
		c1.31,0,2.36,1.06,2.36,2.36C746.03-232.74,744.97-231.69,743.66-231.68z"/>
	<path d="M729.72-211.12c4.96,0,8.98-4.02,8.98-8.98s-4.02-8.98-8.98-8.98s-8.98,4.02-8.98,8.98
		C720.74-215.14,724.76-211.13,729.72-211.12z M729.72-222.47c1.31,0,2.36,1.06,2.36,2.36s-1.06,2.36-2.36,2.36
		c-1.31,0-2.36-1.06-2.36-2.36C727.36-221.41,728.41-222.47,729.72-222.47z"/>
	<path d="M562.73-213.72c8.09,0,14.65-6.56,14.65-14.65c0-8.09-6.56-14.65-14.65-14.65c-8.09,0-14.65,6.56-14.65,14.65
		C548.09-220.29,554.64-213.73,562.73-213.72z M562.73-236.41c4.44,0,8.04,3.6,8.04,8.04c0,4.44-3.6,8.04-8.04,8.04
		s-8.04-3.6-8.04-8.04l0,0C554.7-232.81,558.29-236.41,562.73-236.41z"/>
	<path d="M555.76-172.24c-4.96,0-8.98,4.02-8.98,8.98s4.02,8.98,8.98,8.98s8.98-4.02,8.98-8.98
		C564.73-168.21,560.71-172.23,555.76-172.24z M555.76-160.89c-1.31,0-2.36-1.06-2.36-2.36s1.06-2.36,2.36-2.36
		c1.31,0,2.36,1.06,2.36,2.36C558.12-161.95,557.06-160.9,555.76-160.89z"/>
	<path d="M569.7-186.18c-4.96,0-8.98,4.02-8.98,8.98s4.02,8.98,8.98,8.98s8.98-4.02,8.98-8.98
		C578.68-182.16,574.66-186.18,569.7-186.18z M569.7-174.84c-1.31,0-2.36-1.06-2.36-2.36c0-1.31,1.06-2.36,2.36-2.36
		c1.31,0,2.36,1.06,2.36,2.36C572.06-175.9,571.01-174.84,569.7-174.84z"/>
</g>
<g id="game_controller-video_game_controller-controller-monitor-hands">
	<path d="M-67.52-24.31h-216.6c-2.06,0-3.73,1.67-3.73,3.73v171.79c0,2.06,1.67,3.73,3.73,3.73h44.14l4.41,15.46v25.62
		c0,2.06,1.67,3.73,3.73,3.73h29.88c2.06,0,3.73-1.67,3.73-3.73v-22.82c7.32-1.5,13.05-7.21,14.56-14.53h15.68
		c0.73,3.6,2.51,6.9,5.12,9.49c2.59,2.57,5.87,4.33,9.45,5.08v22.78c0,2.06,1.67,3.73,3.73,3.73h29.88c2.06,0,3.73-1.67,3.73-3.73
		v-25.62l4.41-15.46h44.14c2.06,0,3.73-1.67,3.73-3.73V-20.57C-63.79-22.63-65.46-24.31-67.52-24.31L-67.52-24.31z M-209.25,159.88
		l3.55,10.61v21.81h-22.41v-22.41c0.01-0.34-0.04-0.68-0.15-1.01l-6.12-21.47c-0.4-1.43,0.07-2.96,1.2-3.92l12.55-10.46v15.72
		c-0.01,1.51,0.91,2.87,2.32,3.44c1.39,0.58,3,0.28,4.07-0.78l8.96-9c1.42-1.46,3.76-1.5,5.23-0.07c0.03,0.02,0.05,0.05,0.07,0.07
		c0.71,0.68,1.1,1.63,1.08,2.61c0.02,0.99-0.37,1.95-1.08,2.65l-8.37,8.37C-209.35,157.04-209.7,158.53-209.25,159.88
		L-209.25,159.88z M-152.26,165.86c-2.01-0.48-3.86-1.5-5.34-2.95c-2.11-2.11-3.29-4.97-3.29-7.95c0-2.06-1.67-3.73-3.73-3.73
		h-22.41c-2.06,0-3.73,1.67-3.73,3.73c-0.02,5.19-3.58,9.7-8.63,10.9l-2.05-6.16l6.76-6.72c4.38-4.38,4.38-11.49,0-15.87
		c-4.38-4.38-11.49-4.38-15.87,0l-2.61,2.65v-14.68c0.02-6.18,5.02-11.19,11.2-11.2h52.28c6.18,0.02,11.19,5.02,11.2,11.2v14.68
		l-2.65-2.65c-4.38-4.37-11.48-4.36-15.85,0.02c-4.37,4.38-4.36,11.48,0.02,15.85l6.76,6.72L-152.26,165.86z M-117.27,147.41
		l-6.12,21.47c-0.11,0.33-0.16,0.67-0.15,1.01v22.41h-22.41v-21.81l3.55-10.61c0.45-1.35,0.11-2.84-0.9-3.85l-8.37-8.37
		c-0.71-0.7-1.1-1.66-1.08-2.65c-0.02-0.98,0.38-1.93,1.08-2.61c1.42-1.45,3.76-1.48,5.21-0.05c0.02,0.02,0.04,0.04,0.05,0.05l9,9
		c1.07,1.06,2.68,1.37,4.07,0.78c1.4-0.56,2.32-1.92,2.32-3.44v-15.68l12.55,10.46C-117.33,144.47-116.86,145.99-117.27,147.41
		L-117.27,147.41z M-71.26,147.48h-38.47c0.38-3.69-1.11-7.33-3.96-9.71l-17.51-14.6c-0.95-9.5-8.94-16.74-18.49-16.77h-52.28
		c-9.55,0.03-17.53,7.27-18.49,16.77l-17.51,14.6c-2.85,2.38-4.34,6.02-3.96,9.71h-38.47V-16.84h209.13V147.48z"/>
	<path d="M-179.56,13.04h7.47v7.47h-7.47V13.04z"/>
	<path d="M-142.62,44.97l-14.53-29.09V9.31c-0.01-3.52-1.67-6.84-4.48-8.96l-11.95-8.96c-1.32-1.01-3.16-1.01-4.48,0l-11.95,8.96
		c-2.82,2.12-4.47,5.44-4.48,8.96v6.57l-14.53,29.09c-0.93,1.84-0.19,4.09,1.65,5.02c0.52,0.26,1.09,0.4,1.67,0.4h18.67v7.47
		c0,0.73,0.22,1.45,0.63,2.05l7.47,11.2c1.11,1.71,3.4,2.2,5.11,1.08c0.43-0.28,0.8-0.65,1.08-1.08l7.47-11.2
		c0.42-0.6,0.64-1.32,0.63-2.05v-7.47h18.67c2.06-0.01,3.73-1.68,3.72-3.75C-142.23,46.06-142.36,45.49-142.62,44.97L-142.62,44.97z
		 M-194.5,42.92h-5.15l5.15-10.31V42.92z M-172.09,56.73l-3.73,5.6l-3.73-5.6v-6.35h7.47V56.73z M-164.62,42.92h-7.47v-11.2h-7.47
		v11.2h-7.47V9.31c0.01-1.17,0.56-2.28,1.49-2.99l9.71-7.28l9.71,7.28c0.93,0.71,1.49,1.81,1.49,2.99V42.92z M-157.15,42.92V32.61
		l5.15,10.31H-157.15z"/>
	<path d="M-206.11,74.85l-14.53-29.09v-6.57c-0.01-3.52-1.67-6.84-4.48-8.96l-11.95-8.96c-1.32-1.01-3.16-1.01-4.48,0l-11.95,8.96
		c-2.82,2.12-4.47,5.44-4.48,8.96v6.57l-14.53,29.09c-0.93,1.84-0.19,4.09,1.65,5.02c0.52,0.26,1.09,0.4,1.67,0.4h18.67v7.47
		c0,0.73,0.22,1.45,0.63,2.05l7.47,11.2c1.11,1.71,3.4,2.2,5.11,1.08c0.43-0.28,0.8-0.65,1.08-1.08l7.47-11.2
		c0.42-0.6,0.64-1.32,0.63-2.05v-7.47h18.67c2.06-0.01,3.73-1.68,3.72-3.75C-205.71,75.93-205.85,75.36-206.11,74.85z
		 M-257.98,72.79h-5.15l5.15-10.31V72.79z M-235.57,86.61l-3.73,5.6l-3.73-5.6v-6.35h7.47V86.61z M-228.11,72.79h-7.47v-11.2h-7.47
		v11.2h-7.47V39.18c0.01-1.17,0.56-2.28,1.49-2.99l9.71-7.28l9.71,7.28c0.93,0.71,1.49,1.81,1.49,2.99V72.79z M-220.64,72.79V62.48
		l5.15,10.31H-220.64z"/>
	<path d="M-243.04,42.92h7.47v7.47h-7.47V42.92z"/>
	<path d="M-116.07,42.92h7.47v7.47h-7.47V42.92z"/>
	<path d="M-79.14,74.85l-14.53-29.09v-6.57c-0.01-3.52-1.67-6.84-4.48-8.96l-11.95-8.96c-1.32-1.01-3.16-1.01-4.48,0l-11.95,8.96
		c-2.82,2.12-4.47,5.44-4.48,8.96v6.57l-14.53,29.09c-0.93,1.84-0.19,4.09,1.65,5.02c0.52,0.26,1.09,0.4,1.67,0.4h18.67v7.47
		c0,0.73,0.22,1.45,0.63,2.05l7.47,11.2c1.11,1.71,3.4,2.2,5.11,1.08c0.43-0.28,0.8-0.65,1.08-1.08l7.47-11.2
		c0.42-0.6,0.64-1.32,0.63-2.05v-7.47h18.67c2.06-0.01,3.73-1.68,3.72-3.75C-78.74,75.93-78.88,75.36-79.14,74.85L-79.14,74.85z
		 M-131.01,72.79h-5.15l5.15-10.31V72.79z M-108.6,86.61l-3.73,5.6l-3.73-5.6v-6.35h7.47V86.61z M-101.13,72.79h-7.47v-11.2h-7.47
		v11.2h-7.47V39.18c0.01-1.17,0.56-2.28,1.49-2.99l9.71-7.28l9.71,7.28c0.93,0.71,1.49,1.81,1.49,2.99V72.79z M-93.66,72.79V62.48
		l5.15,10.31H-93.66z"/>
	<path d="M-179.56,80.26h7.47v7.47h-7.47V80.26z"/>
	<path d="M-265.45,87.73h7.47v7.47h-7.47V87.73z"/>
	<path d="M-220.64,87.73h7.47v7.47h-7.47V87.73z"/>
	<path d="M-201.96,57.85h7.47v7.47h-7.47V57.85z"/>
	<path d="M-157.15,57.85h7.47v7.47h-7.47V57.85z"/>
	<path d="M-138.48,87.73h7.47v7.47h-7.47V87.73z"/>
	<path d="M-93.66,87.73h7.47v7.47h-7.47V87.73z"/>
	<path d="M-243.04,110.14h7.47v7.47h-7.47V110.14z"/>
	<path d="M-116.07,110.14h7.47v7.47h-7.47V110.14z"/>
	<path d="M-116.07-9.37h7.47v7.47h-7.47V-9.37z"/>
	<path d="M-101.13-9.37h7.47v7.47h-7.47V-9.37z"/>
	<path d="M-86.2-9.37h7.47v7.47h-7.47V-9.37z"/>
	<path d="M-265.45-1.9h11.2v-7.47h-14.94c-2.06,0-3.73,1.67-3.73,3.73V9.31h7.47V-1.9z"/>
	<path d="M-272.92,16.77h7.47v7.47h-7.47V16.77z"/>
</g>
<g>
	<path d="M298.14-31.77c-61.77,0-112.03,50.26-112.03,112.03S236.37,192.3,298.14,192.3s112.03-50.26,112.03-112.03
		S359.92-31.77,298.14-31.77z M298.14,183.68c-57.02,0-103.42-46.4-103.42-103.42s46.4-103.42,103.42-103.42
		s103.42,46.4,103.42,103.42S355.16,183.68,298.14,183.68z"/>
	<path d="M352.01,75.95h-49.55v-47.4c0-2.38-1.93-4.31-4.31-4.31c-2.38,0-4.31,1.93-4.31,4.31v47.4h-49.55
		c-2.38,0-4.31,1.93-4.31,4.31c0,2.38,1.93,4.31,4.31,4.31h49.55v51.71c0,2.38,1.93,4.31,4.31,4.31c2.38,0,4.31-1.93,4.31-4.31
		V84.57h49.55c2.38,0,4.31-1.93,4.31-4.31C356.31,77.88,354.38,75.95,352.01,75.95z"/>
</g>
<g>
	<path d="M86.83,13.51H25.96c-4.46,0-8.08,3.62-8.08,8.08v55.2c0,4.46,3.62,8.08,8.08,8.08h60.87c4.46,0,8.08-3.62,8.08-8.08
		c0-6.28,0-48.36,0-55.2C94.91,17.14,91.28,13.51,86.83,13.51z M47.02,79.08h-7.16v-7.16h7.16V79.08z M59.97,79.08h-7.16v-7.16h7.16
		V79.08z M59.97,66.12h-7.16v-7.16h7.16V66.12z M72.93,79.08h-7.16v-7.16h7.16V79.08z M86.83,79.08h-8.1v-7.91
		c0.8,0.48,1.72,0.76,2.72,0.76h7.66v4.88h0C89.11,78.06,88.08,79.08,86.83,79.08z M89.11,66.12h-7.16v-7.16h7.16V66.12z
		 M89.11,53.17h-7.16v-7.16h7.16V53.17z M89.11,40.21h-7.16v-7.16h7.16V40.21z M89.11,21.59v5.66h-7.66c-2.92,0-5.29,2.38-5.29,5.29
		v34.08c0,0.02,0,0.04,0,0.06c-0.68-0.36-1.45-0.57-2.27-0.57h-8.11v-8.11c0-2.67-2.17-4.84-4.84-4.84h-9.07
		c-2.67,0-4.84,2.17-4.84,4.84v8.11H38.9c-2.67,0-4.84,2.17-4.84,4.84v8.11h-8.1c-1.26,0-2.28-1.02-2.28-2.28v-55.2
		c0-1.26,1.02-2.28,2.28-2.28h60.87C88.08,19.32,89.11,20.34,89.11,21.59L89.11,21.59z"/>
	<path d="M43.44,24.47H31.85c-1.6,0-2.9,1.3-2.9,2.9s1.3,2.9,2.9,2.9h11.58c1.6,0,2.9-1.3,2.9-2.9
		C46.34,25.77,45.04,24.47,43.44,24.47z"/>
	<path d="M81.93,169.01c8.04,0,14.58-6.54,14.58-14.58c0-8.04-6.54-14.58-14.58-14.58s-14.58,6.54-14.58,14.58
		S73.89,169.01,81.93,169.01z M81.93,145.65c4.84,0,8.78,3.94,8.78,8.78s-3.94,8.78-8.78,8.78c-4.84,0-8.78-3.94-8.78-8.78
		C73.15,149.59,77.09,145.65,81.93,145.65z"/>
	<path d="M108.14,92.78l0-82.61C108.14,4.56,103.57,0,97.96,0H14.83C9.22,0,4.65,4.56,4.65,10.18v82.6C1.95,93.67,0,96.22,0,99.21
		v15.74c0,2.99,1.95,5.54,4.65,6.43v66.44c0,5.61,4.56,10.18,10.18,10.18h34.8c0.08,0,0.15-0.02,0.23-0.02h13.08
		c0.08,0.01,0.15,0.02,0.23,0.02h34.8c5.61,0,10.18-4.56,10.18-10.18v-66.44c2.7-0.89,4.65-3.44,4.65-6.43V99.21
		C112.79,96.22,110.83,93.67,108.14,92.78z M10.45,10.18c0-2.41,1.96-4.37,4.37-4.37h83.13c2.41,0,4.37,1.96,4.37,4.37v36.16
		c0,0,0,0,0,0.01v13.52c0,0,0,0,0,0v32.57H10.45V10.18z M102.34,187.82c0,2.41-1.96,4.37-4.37,4.37H14.83
		c-2.41,0-4.37-1.96-4.37-4.37v-66.09h91.88V187.82z M106.99,114.95c0,0.54-0.44,0.97-0.97,0.97c-2.63,0-96.62,0-99.24,0
		c-0.54,0-0.97-0.44-0.97-0.97V99.21c0-0.54,0.44-0.97,0.97-0.97h99.24c0.54,0,0.97,0.44,0.97,0.97V114.95z"/>
	<path d="M95.34,104.18H81.78c-1.6,0-2.9,1.3-2.9,2.9s1.3,2.9,2.9,2.9h13.56c1.6,0,2.9-1.3,2.9-2.9S96.94,104.18,95.34,104.18z"/>
	<path d="M22.28,163.13h3.54c1.67,0,3.24-0.48,4.56-1.3c-0.82,1.33-1.3,2.89-1.3,4.56v3.54c0,3.31,2.69,6,6,6h5.39
		c3.31,0,6-2.69,6-6v-3.54c0-1.67-0.48-3.24-1.3-4.56c1.33,0.82,2.89,1.3,4.56,1.3h3.54c3.31,0,6-2.69,6-6v-5.39c0-3.31-2.69-6-6-6
		h-3.54c-1.67,0-3.24,0.48-4.56,1.3c0.82-1.33,1.3-2.89,1.3-4.56v-3.54c0-3.31-2.69-6-6-6h-5.39c-3.31,0-6,2.69-6,6v3.54
		c0,1.67,0.48,3.24,1.3,4.56c-1.33-0.82-2.89-1.3-4.56-1.3h-3.54c-3.31,0-6,2.69-6,6v5.39C16.28,160.43,18.97,163.13,22.28,163.13z
		 M49.75,151.53h3.54c0.11,0,0.2,0.09,0.2,0.2v5.39c0,0.11-0.09,0.2-0.2,0.2h-3.54c-1.6,0-2.9-1.3-2.9-2.9
		C46.86,152.83,48.15,151.53,49.75,151.53z M40.49,170.13h-5.39c-0.11,0-0.2-0.09-0.2-0.2v-3.54c0-1.6,1.3-2.9,2.9-2.9
		s2.9,1.3,2.9,2.9v3.54h0C40.69,170.05,40.6,170.13,40.49,170.13z M35.09,138.72h5.39c0.11,0,0.2,0.09,0.2,0.2v3.54
		c0,1.6-1.3,2.9-2.9,2.9c-1.6,0-2.9-1.3-2.9-2.9v-3.54h0C34.89,138.81,34.98,138.72,35.09,138.72z M33.22,149.87
		c1.33,0.82,2.89,1.3,4.56,1.3c1.67,0,3.24-0.48,4.56-1.3c-0.82,1.33-1.3,2.89-1.3,4.56c0,1.67,0.48,3.24,1.3,4.56
		c-1.33-0.82-2.89-1.3-4.56-1.3c-1.67,0-3.24,0.48-4.56,1.3c0.82-1.33,1.3-2.89,1.3-4.56S34.05,151.19,33.22,149.87z M22.08,151.73
		c0-0.11,0.09-0.2,0.2-0.2h3.54c1.6,0,2.9,1.3,2.9,2.9c0,1.6-1.3,2.9-2.9,2.9h-3.54c-0.11,0-0.2-0.09-0.2-0.2V151.73z"/>
</g>
<g>
	<g>
		<g>
			<circle cx="358.7" cy="-270.38" r="3.39"/>
		</g>
	</g>
	<g>
		<g>
			<g>
				<circle cx="343.74" cy="-157.1" r="3.39"/>
			</g>
		</g>
		<g>
			<g>
				<path d="M401.68-167.72c-5.85,0-10.61,4.76-10.61,10.61s4.76,10.61,10.61,10.61s10.61-4.76,10.61-10.61
					S407.53-167.72,401.68-167.72z M401.68-153.27c-2.12,0-3.84-1.72-3.84-3.84s1.72-3.84,3.84-3.84c2.12,0,3.84,1.72,3.84,3.84
					S403.79-153.27,401.68-153.27z"/>
			</g>
		</g>
		<g>
			<g>
				<path d="M286.69-274.69c-6.32,0-11.46,5.14-11.46,11.46s5.14,11.45,11.46,11.45s11.45-5.14,11.45-11.45
					C298.14-269.55,293-274.69,286.69-274.69z M286.69-258.56c-2.58,0-4.68-2.1-4.68-4.68s2.1-4.68,4.68-4.68s4.68,2.1,4.68,4.68
					C291.37-260.66,289.27-258.56,286.69-258.56z"/>
			</g>
		</g>
		<g>
			<g>
				<path d="M342.4-252.4c-6.32,0-11.46,5.14-11.46,11.46s5.14,11.45,11.46,11.45s11.45-5.14,11.45-11.45
					C353.85-247.26,348.71-252.4,342.4-252.4z M342.4-236.26c-2.58,0-4.68-2.1-4.68-4.68s2.1-4.68,4.68-4.68
					c2.58,0,4.68,2.1,4.68,4.68S344.98-236.26,342.4-236.26z"/>
			</g>
		</g>
		<g>
			<g>
				<circle cx="358.7" cy="-252.4" r="3.39"/>
			</g>
		</g>
		<g>
			<g>
				<circle cx="349.03" cy="-261.25" r="3.39"/>
			</g>
		</g>
		<g>
			<g>
				<circle cx="368.38" cy="-261.25" r="3.39"/>
			</g>
		</g>
		<g>
			<g>
				<path d="M312.62-244.33h-4.68v-4.68c0-1.87-1.52-3.39-3.39-3.39c-1.87,0-3.39,1.52-3.39,3.39v4.68h-4.68
					c-1.87,0-3.39,1.52-3.39,3.39c0,1.87,1.52,3.39,3.39,3.39h4.68v4.68c0,1.87,1.52,3.39,3.39,3.39c1.87,0,3.39-1.52,3.39-3.39
					v-4.68h4.68c1.87,0,3.39-1.52,3.39-3.39C316.01-242.81,314.49-244.33,312.62-244.33z"/>
			</g>
		</g>
		<path d="M426.12-192.57h-38.1c6.63-7.39,9.39-17.79,6.83-27.78c-3.19-12.45-6.01-24.99-9.35-37.4c-2.4-8.93-6.4-18.01-14.52-23.12
			c-1.56-0.98-3.23-1.8-4.97-2.44l-9.3-3.48c-4.16-1.56-8.82-0.79-12.26,1.91h-45.03c-3.44-2.7-8.1-3.47-12.26-1.91l-9.3,3.48
			c-8.8,3.29-15.45,10.69-17.78,19.79l-11.06,43.18c-2.56,9.99,0.2,20.39,6.83,27.78h-38.09c-4.33,0-7.85,3.52-7.85,7.85v21.52
			v12.19v21.52c0,4.33,3.52,7.85,7.85,7.85h13.75v2.25c0,1.87,1.52,3.39,3.39,3.39c1.87,0,3.39-1.52,3.39-3.39v-2.25h167.32v2.25
			c0,1.87,1.52,3.39,3.39,3.39s3.39-1.52,3.39-3.39v-2.25h13.75c4.33,0,7.85-3.52,7.85-7.85v-55.24
			C433.96-189.05,430.44-192.57,426.12-192.57z M337.53-278.11l-3.49,3.49c-1.06,1.06-2.48,1.65-3.99,1.65h-8.13h-8.13
			c-1.51,0-2.92-0.59-3.98-1.65l-3.49-3.49H337.53z M255.57-218.67l11.06-43.18c1.78-6.96,6.86-12.61,13.59-15.13l9.3-3.48
			c2.15-0.81,4.6-0.28,6.23,1.35c0,0,0,0,0,0l9.27,9.27c2.34,2.34,5.46,3.63,8.77,3.63h8.13h8.13c3.31,0,6.43-1.29,8.78-3.63
			l9.27-9.27c1.63-1.63,4.07-2.16,6.23-1.35l9.3,3.48c4.49,1.68,8.22,4.73,10.76,8.7c0.45,1.25,3.89,11.03,6.86,22.17l7.03,27.43
			c2.52,9.82-1.59,20.15-10.01,25.6l-18.05-22.61c-3.54-4.44-8.83-6.98-14.51-6.98h-23.78h-23.78c-5.68,0-10.97,2.55-14.51,6.98
			l-18.05,22.61C257.16-198.52,253.06-208.85,255.57-218.67z M370-192.57h-63.28h-10.24H281.7h-2.23h-5.61l15.07-18.88
			c2.25-2.82,5.61-4.44,9.22-4.44h23.78h23.78c3.61,0,6.97,1.62,9.22,4.44L370-192.57z M426.12-128.41H217.74
			c-0.59,0-1.07-0.48-1.07-1.07v-21.52v-8.81h107.71v5.42h-96.57c-1.87,0-3.39,1.52-3.39,3.39c0,1.87,1.52,3.39,3.39,3.39h97.06
			c3.46,0,6.28-2.82,6.28-6.28v-6.41c0-3.46-2.82-6.28-6.28-6.28h-108.2v-18.14c0-0.59,0.48-1.07,1.07-1.07h48.12
			c0.03,0,0.07,0.01,0.1,0.01c0.04,0,0.08-0.01,0.12-0.01h13.39h2.23h14.78h10.24h71.05c0.04,0,0.08,0.01,0.12,0.01
			c0.03,0,0.07-0.01,0.1-0.01h48.12c0.59,0,1.07,0.48,1.07,1.07v55.24h0C427.19-128.89,426.71-128.41,426.12-128.41z"/>
	</g>
</g>
</svg>
