<?xml version="1.0" encoding="utf-8"?>
<!-- Generator: Adobe Illustrator 24.1.0, SVG Export Plug-In . SVG Version: 6.00 Build 0)  -->
<svg version="1.1" id="Capa_1" xmlns="http://www.w3.org/2000/svg" xmlns:xlink="http://www.w3.org/1999/xlink" x="0px" y="0px"
	 viewBox="0 0 224.07 234.77" style="enable-background:new 0 0 224.07 234.77;" xml:space="preserve">
<g>
	<g>
		<g>
			<path d="M-146.06,163.82H-161v-14.94c0-2.06-1.67-3.73-3.73-3.73h-14.94c-2.06,0-3.73,1.67-3.73,3.73v14.94h-14.94
				c-2.06,0-3.73,1.67-3.73,3.73v14.94c0,2.06,1.67,3.73,3.73,3.73h14.94v14.94c0,2.06,1.67,3.73,3.73,3.73h14.94
				c2.06,0,3.73-1.67,3.73-3.73v-14.94h14.94c2.06,0,3.73-1.67,3.73-3.73v-14.94C-142.33,165.49-144,163.82-146.06,163.82z
				 M-149.8,178.75h-14.94c-2.06,0-3.73,1.67-3.73,3.73v14.94h-7.47v-14.94c0-2.06-1.67-3.73-3.73-3.73h-14.94v-7.47h14.94
				c2.06,0,3.73-1.67,3.73-3.73v-14.94h7.47v14.94c0,2.06,1.67,3.73,3.73,3.73h14.94V178.75z"/>
		</g>
	</g>
	<g>
		<g>
			<path d="M-8.28,168.2c-2.86-25.73-27.03-49.8-52.78-52.55c-2.19-0.24-4.39-0.37-6.59-0.37h-41.07v-14.94h-7.47v-7.47
				c0-8.25-6.69-14.94-14.94-14.94h-18.67c-4.12,0-7.47-3.34-7.47-7.47s3.34-7.47,7.47-7.47h59.74c8.25,0,14.94-6.69,14.94-14.94
				s-6.69-14.94-14.94-14.94h-18.67c-4.12,0-7.47-3.34-7.47-7.47V10.73h-7.47v14.94c0,8.25,6.69,14.94,14.94,14.94h18.67
				c4.12,0,7.47,3.34,7.47,7.47s-3.34,7.47-7.47,7.47h-59.74c-8.25,0-14.94,6.69-14.94,14.94s6.69,14.94,14.94,14.94h18.67
				c4.12,0,7.47,3.34,7.47,7.47v7.47h-7.47v14.94h-41.07c-2.2,0.01-4.4,0.13-6.59,0.37c-25.76,2.76-49.92,26.84-52.77,52.57
				c-3.75,32.78,19.78,62.4,52.56,66.15c13.35,1.53,26.82-1.49,38.25-8.56c4.92-3.22,10.54-5.21,16.39-5.79
				c2.89-0.23,5.79-0.24,8.68-0.03c5.94,0.57,11.65,2.58,16.65,5.85c28.07,17.35,64.88,8.65,82.23-19.41
				C-9.76,195-6.75,181.54-8.28,168.2z M-123.66,107.81h7.47v7.47h-7.47V107.81z M-28.69,209.87
				c-16.88,18.88-44.88,22.93-66.42,9.61c-6.02-3.92-12.9-6.31-20.05-6.96c-1.58-0.11-3.17-0.17-4.77-0.17
				c-1.7,0-3.36,0.07-5.03,0.2c-7.04,0.67-13.81,3.04-19.75,6.89c-24.55,15.19-56.77,7.6-71.96-16.95
				c-6.18-9.99-8.82-21.78-7.48-33.46c2.46-22.11,24.02-43.59,46.15-45.97c1.92-0.22,3.86-0.33,5.79-0.33h104.55
				c1.93,0,3.87,0.1,5.79,0.31c22.13,2.38,43.69,23.86,46.15,45.97C-13.95,183.87-18.68,198.76-28.69,209.87z"/>
		</g>
	</g>
	<g>
		<g>
			<path d="M-67.65,137.68c-8.25,0-14.94,6.69-14.94,14.94s6.69,14.94,14.94,14.94s14.94-6.69,14.94-14.94
				S-59.4,137.68-67.65,137.68z M-67.65,160.09c-4.12,0-7.47-3.34-7.47-7.47s3.34-7.47,7.47-7.47s7.47,3.34,7.47,7.47
				S-63.53,160.09-67.65,160.09z"/>
		</g>
	</g>
	<g>
		<g>
			<path d="M-67.65,182.49c-8.25,0-14.94,6.69-14.94,14.94s6.69,14.94,14.94,14.94s14.94-6.69,14.94-14.94
				S-59.4,182.49-67.65,182.49z M-67.65,204.89c-4.12,0-7.47-3.34-7.47-7.47s3.34-7.47,7.47-7.47s7.47,3.34,7.47,7.47
				S-63.53,204.89-67.65,204.89z"/>
		</g>
	</g>
	<g>
		<g>
			<path d="M-93.79,160.09c-8.25,0-14.94,6.69-14.94,14.94s6.69,14.94,14.94,14.94s14.94-6.69,14.94-14.94
				S-85.54,160.09-93.79,160.09z M-93.79,182.49c-4.12,0-7.47-3.34-7.47-7.47s3.34-7.47,7.47-7.47s7.47,3.34,7.47,7.47
				S-89.66,182.49-93.79,182.49z"/>
		</g>
	</g>
	<g>
		<g>
			<path d="M-41.51,160.09c-8.25,0-14.94,6.69-14.94,14.94s6.69,14.94,14.94,14.94s14.94-6.69,14.94-14.94
				S-33.26,160.09-41.51,160.09z M-41.51,182.49c-4.12,0-7.47-3.34-7.47-7.47s3.34-7.47,7.47-7.47s7.47,3.34,7.47,7.47
				S-37.39,182.49-41.51,182.49z"/>
		</g>
	</g>
</g>
<g>
	<g>
		<g>
			<path d="M220.34,0h-81.98c-2.06,0-3.73,1.67-3.73,3.73V123.9h7.45V7.45h74.52v216.12H155.6v7.45h64.74
				c2.06,0,3.73-1.67,3.73-3.73V3.73C224.07,1.67,222.4,0,220.34,0z"/>
		</g>
	</g>
	<g>
		<g>
			<path d="M171.9,0c-2.06,0-3.73,1.67-3.73,3.73v85.7c0,2.06,1.67,3.73,3.73,3.73c2.06,0,3.73-1.67,3.73-3.73V3.73
				C175.63,1.67,173.96,0,171.9,0z"/>
		</g>
	</g>
	<g>
		<g>
			<path d="M171.9,152.78c-2.06,0-3.73,1.67-3.73,3.73v70.8c0,2.06,1.67,3.73,3.73,3.73c2.06,0,3.73-1.67,3.73-3.73v-70.8
				C175.63,154.44,173.96,152.78,171.9,152.78z"/>
		</g>
	</g>
	<g>
		<g>
			<path d="M171.9,108.06c-2.06,0-3.73,1.67-3.73,3.73v22.36c0,2.06,1.67,3.73,3.73,3.73c2.06,0,3.73-1.67,3.73-3.73v-22.36
				C175.63,109.73,173.96,108.06,171.9,108.06z"/>
		</g>
	</g>
	<g>
		<g>
			<path d="M160.47,173.72c-0.78-2.9-1.53-5.73-2.26-8.48c-6.75-25.47-11.62-43.87-24.53-47.69c-5.1-1.51-15.7-4.65-27.15,2.14
				c-9,5.34-39.13,5.33-48.12,0c-11.45-6.79-22.05-3.65-27.17-2.13c-12.88,3.81-17.76,22.22-24.5,47.68
				c-0.73,2.75-1.48,5.58-2.26,8.48c-6,22.21-5.97,43.32,0.08,53.79c2.14,3.72,4.96,6.06,8.37,6.97c0.7,0.19,1.4,0.28,2.11,0.28
				c8.12,0,16.33-11.89,24.29-23.41c3.4-4.92,6.91-10.01,8.81-11.49c1.32-1.02,6.38-3.38,24.67-3.13l22.78-0.02
				c15.59,0.07,20.04,2.22,21.23,3.15h0c1.9,1.47,5.41,6.56,8.81,11.49c8.65,12.53,17.6,25.51,26.4,23.14
				c3.41-0.9,6.23-3.25,8.37-6.97C166.44,217.05,166.47,195.93,160.47,173.72z M153.94,223.79c-1.12,1.94-2.41,3.11-3.83,3.49
				c-3.74,0.94-13.98-13.84-18.35-20.17c-4.23-6.12-7.57-10.96-10.38-13.14c-2.56-1.98-8.01-4.63-25.78-4.71l-22.75,0.02
				c-15.37-0.22-24.95,1.33-29.28,4.69c-2.81,2.18-6.15,7.02-10.38,13.14c-4.37,6.33-14.59,21.17-18.35,20.17
				c-1.42-0.38-2.71-1.55-3.83-3.49c-4.18-7.25-5.6-24.94,0.66-48.12c0.79-2.91,1.54-5.75,2.27-8.51
				c5.89-22.25,10.55-39.82,19.44-42.45c2.37-0.7,5.83-1.73,9.87-1.73c3.47,0,7.37,0.76,11.36,3.12c11.2,6.64,44.53,6.64,55.73,0
				c8.64-5.12,16.83-2.7,21.25-1.39c8.87,2.63,13.52,20.2,19.42,42.45c0.73,2.76,1.48,5.6,2.27,8.51
				C159.54,198.85,158.12,216.54,153.94,223.79z"/>
		</g>
	</g>
	<g>
		<g>
			<rect x="41.48" y="141.6" width="7.45" height="29.81"/>
		</g>
	</g>
	<g>
		<g>
			<path d="M117.87,141.6c-9.25,0-16.77,7.52-16.77,16.77s7.52,16.77,16.77,16.77s16.77-7.52,16.77-16.77
				C134.64,149.12,127.12,141.6,117.87,141.6z M117.87,167.68c-5.14,0-9.32-4.18-9.32-9.32s4.18-9.32,9.32-9.32s9.32,4.18,9.32,9.32
				S123.01,167.68,117.87,167.68z"/>
		</g>
	</g>
	<g>
		<g>
			<path d="M199.85,18.63c-7.19,0-13.04,5.85-13.04,13.04s5.85,13.04,13.04,13.04c7.19,0,13.04-5.85,13.04-13.04
				S207.04,18.63,199.85,18.63z M199.85,37.26c-3.08,0-5.59-2.51-5.59-5.59s2.51-5.59,5.59-5.59c3.08,0,5.59,2.51,5.59,5.59
				S202.93,37.26,199.85,37.26z"/>
		</g>
	</g>
	<g>
		<g>
			<path d="M199.85,52.17c-7.19,0-13.04,5.85-13.04,13.04s5.85,13.04,13.04,13.04c7.19,0,13.04-5.85,13.04-13.04
				C212.89,58.02,207.04,52.17,199.85,52.17z M199.85,70.8c-3.08,0-5.59-2.51-5.59-5.59c0-3.08,2.51-5.59,5.59-5.59
				c3.08,0,5.59,2.51,5.59,5.59C205.44,68.29,202.93,70.8,199.85,70.8z"/>
		</g>
	</g>
	<g>
		<g>
			<path d="M171.9,85.7c-8.22,0-14.9,6.69-14.9,14.9s6.69,14.9,14.9,14.9c8.22,0,14.9-6.69,14.9-14.9S180.12,85.7,171.9,85.7z
				 M171.9,108.06c-4.11,0-7.45-3.34-7.45-7.45s3.34-7.45,7.45-7.45s7.45,3.34,7.45,7.45S176.01,108.06,171.9,108.06z"/>
		</g>
	</g>
	<g>
		<g>
			<path d="M171.9,130.42c-8.22,0-14.9,6.69-14.9,14.9c0,8.22,6.69,14.9,14.9,14.9c8.22,0,14.9-6.69,14.9-14.9
				C186.81,137.1,180.12,130.42,171.9,130.42z M171.9,152.78c-4.11,0-7.45-3.34-7.45-7.45s3.34-7.45,7.45-7.45s7.45,3.34,7.45,7.45
				C179.35,149.43,176.01,152.78,171.9,152.78z"/>
		</g>
	</g>
	<g>
		<g>
			<rect x="30.3" y="152.78" width="29.81" height="7.45"/>
		</g>
	</g>
</g>
<g>
	<path d="M793.58,80.35H610.17c-11.22,0.01-20.31,9.11-20.33,20.33v74.69c0.01,11.22,9.11,20.31,20.33,20.33h183.42
		c11.22-0.01,20.31-9.11,20.33-20.33v-74.69C813.9,89.45,804.8,80.36,793.58,80.35z M596.46,175.37v-74.69
		c0.01-7.57,6.14-13.7,13.71-13.71h23.16v102.11h-23.16C602.6,189.07,596.47,182.93,596.46,175.37z M639.95,189.07V86.97H763.8
		v102.11H639.95z M807.29,175.37c-0.01,7.57-6.14,13.7-13.71,13.71h-23.16V86.97h23.16c7.57,0.01,13.7,6.14,13.71,13.71V175.37z"/>
	<path d="M755.76,91.69H647.98c-1.83,0-3.31,1.48-3.31,3.31c0,0,0,0,0,0v86.04c0,1.83,1.48,3.31,3.31,3.31c0,0,0,0,0,0h107.78
		c1.83,0,3.31-1.48,3.31-3.31c0,0,0,0,0,0V95C759.07,93.18,757.59,91.69,755.76,91.69C755.77,91.69,755.77,91.69,755.76,91.69z
		 M752.45,177.73H651.29V98.31h101.16V177.73z"/>
	<path d="M744.42,159.71c1.83,0,3.31-1.48,3.31-3.31c0,0,0,0,0,0v-25.94c0-1.83-1.48-3.31-3.31-3.31c-1.83,0-3.31,1.48-3.31,3.31
		v25.94C741.11,158.22,742.59,159.71,744.42,159.71C744.42,159.71,744.42,159.71,744.42,159.71z"/>
	<path d="M788.85,153.09c-8.09,0-14.65,6.56-14.65,14.65s6.56,14.65,14.65,14.65c8.09,0,14.65-6.56,14.65-14.65
		C803.5,159.65,796.94,153.1,788.85,153.09z M788.85,175.78c-4.44,0-8.04-3.6-8.04-8.04s3.6-8.04,8.04-8.04
		c4.44,0,8.04,3.6,8.04,8.04C796.89,172.18,793.29,175.78,788.85,175.78z"/>
	<path d="M795.83,93.64c-4.96,0-8.98,4.02-8.98,8.98s4.02,8.98,8.98,8.98s8.98-4.02,8.98-8.98
		C804.8,97.67,800.78,93.65,795.83,93.64z M795.83,104.99c-1.31,0-2.36-1.06-2.36-2.36c0-1.31,1.06-2.36,2.36-2.36
		c1.31,0,2.36,1.06,2.36,2.36C798.19,103.93,797.13,104.99,795.83,104.99z"/>
	<path d="M781.88,125.55c4.96,0,8.98-4.02,8.98-8.98c0-4.96-4.02-8.98-8.98-8.98s-8.98,4.02-8.98,8.98
		C772.9,121.53,776.92,125.55,781.88,125.55z M781.88,114.21c1.31,0,2.36,1.06,2.36,2.36c0,1.31-1.06,2.36-2.36,2.36
		c-1.31,0-2.36-1.06-2.36-2.36C779.52,115.27,780.58,114.21,781.88,114.21z"/>
	<path d="M614.89,122.95c8.09,0,14.65-6.56,14.65-14.65s-6.56-14.65-14.65-14.65s-14.65,6.56-14.65,14.65
		C600.25,116.39,606.8,122.94,614.89,122.95z M614.89,100.26c4.44,0,8.04,3.6,8.04,8.04c0,4.44-3.6,8.04-8.04,8.04
		s-8.04-3.6-8.04-8.04l0,0C606.86,103.86,610.46,100.27,614.89,100.26z"/>
	<path d="M607.92,164.43c-4.96,0-8.98,4.02-8.98,8.98s4.02,8.98,8.98,8.98s8.98-4.02,8.98-8.98
		C616.9,168.46,612.88,164.44,607.92,164.43z M607.92,175.78c-1.31,0-2.36-1.06-2.36-2.36s1.06-2.36,2.36-2.36
		c1.31,0,2.36,1.06,2.36,2.36C610.28,174.72,609.22,175.78,607.92,175.78z"/>
	<path d="M621.86,150.49c-4.96,0-8.98,4.02-8.98,8.98s4.02,8.98,8.98,8.98s8.98-4.02,8.98-8.98
		C630.84,154.51,626.82,150.5,621.86,150.49z M621.86,161.83c-1.31,0-2.36-1.06-2.36-2.36s1.06-2.36,2.36-2.36
		c1.31,0,2.36,1.06,2.36,2.36C624.23,160.78,623.17,161.83,621.86,161.83z"/>
</g>
<g id="game_controller-video_game_controller-controller-monitor-hands">
	<path d="M-15.36,312.37h-216.6c-2.06,0-3.73,1.67-3.73,3.73v171.79c0,2.06,1.67,3.73,3.73,3.73h44.14l4.41,15.46v25.62
		c0,2.06,1.67,3.73,3.73,3.73h29.88c2.06,0,3.73-1.67,3.73-3.73v-22.82c7.32-1.5,13.05-7.21,14.56-14.53h15.68
		c0.73,3.6,2.51,6.9,5.12,9.49c2.59,2.57,5.87,4.33,9.45,5.08v22.78c0,2.06,1.67,3.73,3.73,3.73h29.88c2.06,0,3.73-1.67,3.73-3.73
		v-25.62l4.41-15.46h44.14c2.06,0,3.73-1.67,3.73-3.73V316.1C-11.63,314.04-13.3,312.37-15.36,312.37L-15.36,312.37z
		 M-157.08,496.55l3.55,10.61v21.81h-22.41v-22.41c0.01-0.34-0.04-0.68-0.15-1.01l-6.12-21.47c-0.4-1.43,0.07-2.96,1.2-3.92
		l12.55-10.46v15.72c-0.01,1.51,0.91,2.87,2.32,3.44c1.39,0.58,3,0.28,4.07-0.78l8.96-9c1.42-1.46,3.76-1.5,5.23-0.07
		c0.03,0.02,0.05,0.05,0.07,0.07c0.71,0.68,1.1,1.63,1.08,2.61c0.02,0.99-0.37,1.95-1.08,2.65l-8.37,8.37
		C-157.19,493.72-157.54,495.2-157.08,496.55L-157.08,496.55z M-100.1,502.53c-2.01-0.48-3.86-1.5-5.34-2.95
		c-2.11-2.11-3.29-4.97-3.29-7.95c0-2.06-1.67-3.73-3.73-3.73h-22.41c-2.06,0-3.73,1.67-3.73,3.73c-0.02,5.19-3.58,9.7-8.63,10.9
		l-2.05-6.16l6.76-6.72c4.38-4.38,4.38-11.49,0-15.87c-4.38-4.38-11.49-4.38-15.87,0l-2.61,2.65v-14.68
		c0.02-6.18,5.02-11.19,11.2-11.2h52.28c6.18,0.02,11.19,5.02,11.2,11.2v14.68l-2.65-2.65c-4.38-4.37-11.48-4.36-15.85,0.02
		c-4.37,4.38-4.36,11.48,0.02,15.85l6.76,6.72L-100.1,502.53z M-65.1,484.08l-6.12,21.47c-0.11,0.33-0.16,0.67-0.15,1.01v22.41
		h-22.41v-21.81l3.55-10.61c0.45-1.35,0.11-2.84-0.9-3.85l-8.37-8.37c-0.71-0.7-1.1-1.66-1.08-2.65c-0.02-0.98,0.38-1.93,1.08-2.61
		c1.42-1.45,3.76-1.48,5.21-0.05c0.02,0.02,0.04,0.04,0.05,0.05l9,9c1.07,1.06,2.68,1.37,4.07,0.78c1.4-0.56,2.32-1.92,2.32-3.44
		v-15.68l12.55,10.46C-65.17,481.14-64.7,482.66-65.1,484.08L-65.1,484.08z M-19.09,484.15h-38.47c0.38-3.69-1.11-7.33-3.96-9.71
		l-17.51-14.6c-0.95-9.5-8.94-16.74-18.49-16.77h-52.28c-9.55,0.03-17.53,7.27-18.49,16.77l-17.51,14.6
		c-2.85,2.38-4.34,6.02-3.96,9.71h-38.47V319.84h209.13V484.15z"/>
	<path d="M-127.39,349.71h7.47v7.47h-7.47V349.71z"/>
	<path d="M-90.46,381.64l-14.53-29.09v-6.57c-0.01-3.52-1.67-6.84-4.48-8.96l-11.95-8.96c-1.32-1.01-3.16-1.01-4.48,0l-11.95,8.96
		c-2.82,2.12-4.47,5.44-4.48,8.96v6.57l-14.53,29.09c-0.93,1.84-0.19,4.09,1.65,5.02c0.52,0.26,1.09,0.4,1.67,0.4h18.67v7.47
		c0,0.73,0.22,1.45,0.63,2.05l7.47,11.2c1.11,1.71,3.4,2.2,5.11,1.08c0.43-0.28,0.8-0.65,1.08-1.08l7.47-11.2
		c0.42-0.6,0.64-1.32,0.63-2.05v-7.47h18.67c2.06-0.01,3.73-1.68,3.72-3.75C-90.06,382.73-90.2,382.16-90.46,381.64L-90.46,381.64z
		 M-142.33,379.59h-5.15l5.15-10.31V379.59z M-119.93,393.41l-3.73,5.6l-3.73-5.6v-6.35h7.47V393.41z M-112.46,379.59h-7.47v-11.2
		h-7.47v11.2h-7.47v-33.61c0.01-1.17,0.56-2.28,1.49-2.99l9.71-7.28l9.71,7.28c0.93,0.71,1.49,1.81,1.49,2.99V379.59z
		 M-104.99,379.59v-10.31l5.15,10.31H-104.99z"/>
	<path d="M-153.95,411.52l-14.53-29.09v-6.57c-0.01-3.52-1.67-6.84-4.48-8.96l-11.95-8.96c-1.32-1.01-3.16-1.01-4.48,0l-11.95,8.96
		c-2.82,2.12-4.47,5.44-4.48,8.96v6.57l-14.53,29.09c-0.93,1.84-0.19,4.09,1.65,5.02c0.52,0.26,1.09,0.4,1.67,0.4h18.67v7.47
		c0,0.73,0.22,1.45,0.63,2.05l7.47,11.2c1.11,1.71,3.4,2.2,5.11,1.08c0.43-0.28,0.8-0.65,1.08-1.08l7.47-11.2
		c0.42-0.6,0.64-1.32,0.63-2.05v-7.47h18.67c2.06-0.01,3.73-1.68,3.72-3.75C-153.55,412.61-153.69,412.04-153.95,411.52z
		 M-205.82,409.46h-5.15l5.15-10.31V409.46z M-183.41,423.28l-3.73,5.6l-3.73-5.6v-6.35h7.47V423.28z M-175.94,409.46h-7.47v-11.2
		h-7.47v11.2h-7.47v-33.61c0.01-1.17,0.56-2.28,1.49-2.99l9.71-7.28l9.71,7.28c0.93,0.71,1.49,1.81,1.49,2.99V409.46z
		 M-168.47,409.46v-10.31l5.15,10.31H-168.47z"/>
	<path d="M-190.88,379.59h7.47v7.47h-7.47V379.59z"/>
	<path d="M-63.91,379.59h7.47v7.47h-7.47V379.59z"/>
	<path d="M-26.97,411.52l-14.53-29.09v-6.57c-0.01-3.52-1.67-6.84-4.48-8.96l-11.95-8.96c-1.32-1.01-3.16-1.01-4.48,0l-11.95,8.96
		c-2.82,2.12-4.47,5.44-4.48,8.96v6.57l-14.53,29.09c-0.93,1.84-0.19,4.09,1.65,5.02c0.52,0.26,1.09,0.4,1.67,0.4h18.67v7.47
		c0,0.73,0.22,1.45,0.63,2.05l7.47,11.2c1.11,1.71,3.4,2.2,5.11,1.08c0.43-0.28,0.8-0.65,1.08-1.08l7.47-11.2
		c0.42-0.6,0.64-1.32,0.63-2.05v-7.47h18.67c2.06-0.01,3.73-1.68,3.72-3.75C-26.58,412.61-26.71,412.04-26.97,411.52L-26.97,411.52z
		 M-78.85,409.46H-84l5.15-10.31V409.46z M-56.44,423.28l-3.73,5.6l-3.73-5.6v-6.35h7.47V423.28z M-48.97,409.46h-7.47v-11.2h-7.47
		v11.2h-7.47v-33.61c0.01-1.17,0.56-2.28,1.49-2.99l9.71-7.28l9.71,7.28c0.93,0.71,1.49,1.81,1.49,2.99V409.46z M-41.5,409.46
		v-10.31l5.15,10.31H-41.5z"/>
	<path d="M-127.39,416.93h7.47v7.47h-7.47V416.93z"/>
	<path d="M-213.29,424.4h7.47v7.47h-7.47V424.4z"/>
	<path d="M-168.47,424.4h7.47v7.47h-7.47V424.4z"/>
	<path d="M-149.8,394.53h7.47V402h-7.47V394.53z"/>
	<path d="M-104.99,394.53h7.47V402h-7.47V394.53z"/>
	<path d="M-86.32,424.4h7.47v7.47h-7.47V424.4z"/>
	<path d="M-41.5,424.4h7.47v7.47h-7.47V424.4z"/>
	<path d="M-190.88,446.81h7.47v7.47h-7.47V446.81z"/>
	<path d="M-63.91,446.81h7.47v7.47h-7.47V446.81z"/>
	<path d="M-63.91,327.31h7.47v7.47h-7.47V327.31z"/>
	<path d="M-48.97,327.31h7.47v7.47h-7.47V327.31z"/>
	<path d="M-34.03,327.31h7.47v7.47h-7.47V327.31z"/>
	<path d="M-213.29,334.77h11.2v-7.47h-14.94c-2.06,0-3.73,1.67-3.73,3.73v14.94h7.47V334.77z"/>
	<path d="M-220.76,353.45h7.47v7.47h-7.47V353.45z"/>
</g>
<g>
	<path d="M350.31,304.9c-61.77,0-112.03,50.26-112.03,112.03s50.26,112.03,112.03,112.03s112.03-50.26,112.03-112.03
		S412.08,304.9,350.31,304.9z M350.31,520.35c-57.02,0-103.42-46.4-103.42-103.42s46.4-103.42,103.42-103.42
		s103.42,46.4,103.42,103.42S407.33,520.35,350.31,520.35z"/>
	<path d="M404.17,412.62h-49.55v-47.4c0-2.38-1.93-4.31-4.31-4.31c-2.38,0-4.31,1.93-4.31,4.31v47.4h-49.55
		c-2.38,0-4.31,1.93-4.31,4.31c0,2.38,1.93,4.31,4.31,4.31H346v51.71c0,2.38,1.93,4.31,4.31,4.31c2.38,0,4.31-1.93,4.31-4.31v-51.71
		h49.55c2.38,0,4.31-1.93,4.31-4.31C408.48,414.55,406.55,412.62,404.17,412.62z"/>
</g>
<g>
	<path d="M138.99,350.19H78.12c-4.46,0-8.08,3.62-8.08,8.08v55.2c0,4.46,3.62,8.08,8.08,8.08h60.87c4.46,0,8.08-3.62,8.08-8.08
		c0-6.28,0-48.36,0-55.2C147.07,353.81,143.45,350.19,138.99,350.19z M99.18,415.75h-7.16v-7.16h7.16V415.75z M112.13,415.75h-7.16
		v-7.16h7.16V415.75z M112.13,402.8h-7.16v-7.16h7.16V402.8z M125.09,415.75h-7.16v-7.16h7.16V415.75z M138.99,415.75h-8.1v-7.91
		c0.8,0.48,1.72,0.76,2.72,0.76h7.66v4.88h0C141.27,414.73,140.25,415.75,138.99,415.75z M141.27,402.8h-7.16v-7.16h7.16V402.8z
		 M141.27,389.84h-7.16v-7.16h7.16V389.84z M141.27,376.88h-7.16v-7.16h7.16V376.88z M141.27,358.27v5.66h-7.66
		c-2.92,0-5.29,2.38-5.29,5.29v34.08c0,0.02,0,0.04,0,0.06c-0.68-0.36-1.45-0.57-2.27-0.57h-8.11v-8.11c0-2.67-2.17-4.84-4.84-4.84
		h-9.07c-2.67,0-4.84,2.17-4.84,4.84v8.11h-8.11c-2.67,0-4.84,2.17-4.84,4.84v8.11h-8.1c-1.26,0-2.28-1.02-2.28-2.28v-55.2
		c0-1.26,1.02-2.28,2.28-2.28h60.87C140.25,355.99,141.27,357.01,141.27,358.27L141.27,358.27z"/>
	<path d="M95.6,361.15H84.02c-1.6,0-2.9,1.3-2.9,2.9s1.3,2.9,2.9,2.9H95.6c1.6,0,2.9-1.3,2.9-2.9
		C98.5,362.44,97.2,361.15,95.6,361.15z"/>
	<path d="M134.09,505.68c8.04,0,14.58-6.54,14.58-14.58c0-8.04-6.54-14.58-14.58-14.58s-14.58,6.54-14.58,14.58
		S126.05,505.68,134.09,505.68z M134.09,482.33c4.84,0,8.78,3.94,8.78,8.78s-3.94,8.78-8.78,8.78c-4.84,0-8.78-3.94-8.78-8.78
		C125.31,486.26,129.25,482.33,134.09,482.33z"/>
	<path d="M160.3,429.45l0-82.61c0-5.61-4.56-10.18-10.18-10.18H66.99c-5.61,0-10.18,4.56-10.18,10.18v82.6
		c-2.7,0.89-4.65,3.44-4.65,6.43v15.74c0,2.99,1.95,5.54,4.65,6.43v66.44c0,5.61,4.56,10.18,10.18,10.18h34.8
		c0.08,0,0.15-0.02,0.23-0.02h13.08c0.08,0.01,0.15,0.02,0.23,0.02h34.8c5.61,0,10.18-4.56,10.18-10.18v-66.44
		c2.7-0.89,4.65-3.44,4.65-6.43v-15.74C164.95,432.89,163,430.35,160.3,429.45z M62.62,346.85c0-2.41,1.96-4.37,4.37-4.37h83.13
		c2.41,0,4.37,1.96,4.37,4.37v36.16c0,0,0,0,0,0.01v13.52c0,0,0,0,0,0v32.57H62.62V346.85z M154.5,524.49
		c0,2.41-1.96,4.37-4.37,4.37H66.99c-2.41,0-4.37-1.96-4.37-4.37V458.4h91.88V524.49z M159.15,451.62c0,0.54-0.44,0.97-0.97,0.97
		c-2.63,0-96.62,0-99.24,0c-0.54,0-0.97-0.44-0.97-0.97v-15.74c0-0.54,0.44-0.97,0.97-0.97h99.24c0.54,0,0.97,0.44,0.97,0.97V451.62
		z"/>
	<path d="M147.5,440.85h-13.56c-1.6,0-2.9,1.3-2.9,2.9s1.3,2.9,2.9,2.9h13.56c1.6,0,2.9-1.3,2.9-2.9S149.1,440.85,147.5,440.85z"/>
	<path d="M74.45,499.8h3.54c1.67,0,3.24-0.48,4.56-1.3c-0.82,1.33-1.3,2.89-1.3,4.56v3.54c0,3.31,2.69,6,6,6h5.39c3.31,0,6-2.69,6-6
		v-3.54c0-1.67-0.48-3.24-1.3-4.56c1.33,0.82,2.89,1.3,4.56,1.3h3.54c3.31,0,6-2.69,6-6v-5.39c0-3.31-2.69-6-6-6h-3.54
		c-1.67,0-3.24,0.48-4.56,1.3c0.82-1.33,1.3-2.89,1.3-4.56v-3.54c0-3.31-2.69-6-6-6h-5.39c-3.31,0-6,2.69-6,6v3.54
		c0,1.67,0.48,3.24,1.3,4.56c-1.33-0.82-2.89-1.3-4.56-1.3h-3.54c-3.31,0-6,2.69-6,6v5.39C68.45,497.11,71.14,499.8,74.45,499.8z
		 M101.91,488.21h3.54c0.11,0,0.2,0.09,0.2,0.2v5.39c0,0.11-0.09,0.2-0.2,0.2h-3.54c-1.6,0-2.9-1.3-2.9-2.9
		C99.02,489.51,100.32,488.21,101.91,488.21z M92.65,506.81h-5.39c-0.11,0-0.2-0.09-0.2-0.2v-3.54c0-1.6,1.3-2.9,2.9-2.9
		s2.9,1.3,2.9,2.9v3.54h0C92.85,506.72,92.76,506.81,92.65,506.81z M87.25,475.4h5.39c0.11,0,0.2,0.09,0.2,0.2v3.54
		c0,1.6-1.3,2.9-2.9,2.9c-1.6,0-2.9-1.3-2.9-2.9v-3.54h0C87.06,475.49,87.14,475.4,87.25,475.4z M85.39,486.54
		c1.33,0.82,2.89,1.3,4.56,1.3c1.67,0,3.24-0.48,4.56-1.3c-0.82,1.33-1.3,2.89-1.3,4.56c0,1.67,0.48,3.24,1.3,4.56
		c-1.33-0.82-2.89-1.3-4.56-1.3c-1.67,0-3.24,0.48-4.56,1.3c0.82-1.33,1.3-2.89,1.3-4.56S86.21,487.87,85.39,486.54z M74.25,488.41
		c0-0.11,0.09-0.2,0.2-0.2h3.54c1.6,0,2.9,1.3,2.9,2.9c0,1.6-1.3,2.9-2.9,2.9h-3.54c-0.11,0-0.2-0.09-0.2-0.2V488.41z"/>
</g>
<g>
	<g>
		<g>
			<circle cx="410.87" cy="66.29" r="3.39"/>
		</g>
	</g>
	<g>
		<g>
			<g>
				<circle cx="395.9" cy="179.57" r="3.39"/>
			</g>
		</g>
		<g>
			<g>
				<path d="M453.84,168.96c-5.85,0-10.61,4.76-10.61,10.61c0,5.85,4.76,10.61,10.61,10.61s10.61-4.76,10.61-10.61
					C464.45,173.72,459.69,168.96,453.84,168.96z M453.84,183.41c-2.12,0-3.84-1.72-3.84-3.84c0-2.12,1.72-3.84,3.84-3.84
					c2.12,0,3.84,1.72,3.84,3.84C457.68,181.68,455.96,183.41,453.84,183.41z"/>
			</g>
		</g>
		<g>
			<g>
				<path d="M338.85,61.98c-6.32,0-11.46,5.14-11.46,11.46s5.14,11.45,11.46,11.45c6.32,0,11.45-5.14,11.45-11.45
					C350.31,67.12,345.17,61.98,338.85,61.98z M338.85,78.12c-2.58,0-4.68-2.1-4.68-4.68s2.1-4.68,4.68-4.68s4.68,2.1,4.68,4.68
					C343.53,76.02,341.43,78.12,338.85,78.12z"/>
			</g>
		</g>
		<g>
			<g>
				<path d="M394.56,84.28c-6.32,0-11.46,5.14-11.46,11.46s5.14,11.45,11.46,11.45s11.45-5.14,11.45-11.45
					C406.01,89.42,400.88,84.28,394.56,84.28z M394.56,100.41c-2.58,0-4.68-2.1-4.68-4.68c0-2.58,2.1-4.68,4.68-4.68
					c2.58,0,4.68,2.1,4.68,4.68C399.24,98.31,397.14,100.41,394.56,100.41z"/>
			</g>
		</g>
		<g>
			<g>
				<circle cx="410.87" cy="84.28" r="3.39"/>
			</g>
		</g>
		<g>
			<g>
				<circle cx="401.2" cy="75.42" r="3.39"/>
			</g>
		</g>
		<g>
			<g>
				<circle cx="420.54" cy="75.42" r="3.39"/>
			</g>
		</g>
		<g>
			<g>
				<path d="M364.78,92.35h-4.68v-4.68c0-1.87-1.52-3.39-3.39-3.39s-3.39,1.52-3.39,3.39v4.68h-4.68c-1.87,0-3.39,1.52-3.39,3.39
					s1.52,3.39,3.39,3.39h4.68v4.68c0,1.87,1.52,3.39,3.39,3.39s3.39-1.52,3.39-3.39v-4.68h4.68c1.87,0,3.39-1.52,3.39-3.39
					S366.65,92.35,364.78,92.35z"/>
			</g>
		</g>
		<path d="M478.28,144.1h-38.1c6.63-7.39,9.39-17.79,6.83-27.78c-3.19-12.45-6.01-24.99-9.35-37.4c-2.4-8.93-6.4-18.01-14.52-23.12
			c-1.56-0.98-3.23-1.8-4.97-2.44l-9.3-3.48c-4.16-1.56-8.82-0.79-12.26,1.91h-45.03c-3.44-2.7-8.1-3.47-12.26-1.91l-9.3,3.48
			c-8.8,3.29-15.45,10.69-17.78,19.79l-11.06,43.18c-2.56,9.99,0.2,20.39,6.83,27.78h-38.09c-4.33,0-7.85,3.52-7.85,7.85v21.52
			v12.19v21.52c0,4.33,3.52,7.85,7.85,7.85h13.75v2.25c0,1.87,1.52,3.39,3.39,3.39c1.87,0,3.39-1.52,3.39-3.39v-2.25h167.32v2.25
			c0,1.87,1.52,3.39,3.39,3.39s3.39-1.52,3.39-3.39v-2.25h13.75c4.33,0,7.85-3.52,7.85-7.85v-55.24
			C486.13,147.62,482.61,144.1,478.28,144.1z M389.7,58.56l-3.49,3.49c-1.06,1.06-2.48,1.65-3.99,1.65h-8.13h-8.13
			c-1.51,0-2.92-0.59-3.98-1.65l-3.49-3.49H389.7z M307.73,118l11.06-43.18c1.78-6.96,6.86-12.61,13.59-15.13l9.3-3.48
			c2.15-0.81,4.6-0.28,6.23,1.35c0,0,0,0,0,0l9.27,9.27c2.34,2.34,5.46,3.63,8.77,3.63h8.13h8.13c3.31,0,6.43-1.29,8.78-3.63
			l9.27-9.27c1.63-1.63,4.07-2.16,6.23-1.35l9.3,3.48c4.49,1.68,8.22,4.73,10.76,8.7c0.45,1.25,3.89,11.03,6.86,22.17l7.03,27.43
			c2.52,9.82-1.59,20.15-10.01,25.6L412.38,121c-3.54-4.44-8.83-6.98-14.51-6.98h-23.78h-23.78c-5.68,0-10.97,2.55-14.51,6.98
			l-18.05,22.61C309.32,138.15,305.22,127.82,307.73,118z M422.16,144.1h-63.28h-10.24h-14.78h-2.23h-5.61l15.07-18.88
			c2.25-2.82,5.61-4.44,9.22-4.44h23.78h23.78c3.61,0,6.97,1.62,9.22,4.44L422.16,144.1z M478.28,208.26H269.91
			c-0.59,0-1.07-0.48-1.07-1.07v-21.52v-8.81h107.71v5.42h-96.57c-1.87,0-3.39,1.52-3.39,3.39c0,1.87,1.52,3.39,3.39,3.39h97.06
			c3.46,0,6.28-2.82,6.28-6.28v-6.41c0-3.46-2.82-6.28-6.28-6.28h-108.2v-18.14c0-0.59,0.48-1.07,1.07-1.07h48.12
			c0.03,0,0.07,0.01,0.1,0.01c0.04,0,0.08-0.01,0.12-0.01h13.39h2.23h14.78h10.24h71.05c0.04,0,0.08,0.01,0.12,0.01
			c0.03,0,0.07-0.01,0.1-0.01h48.12c0.59,0,1.07,0.48,1.07,1.07v55.24h0C479.35,207.78,478.87,208.26,478.28,208.26z"/>
	</g>
</g>
</svg>
