<?xml version="1.0" encoding="utf-8"?>
<!-- Generator: Adobe Illustrator 24.1.0, SVG Export Plug-In . SVG Version: 6.00 Build 0)  -->
<svg version="1.1" id="Capa_1" xmlns="http://www.w3.org/2000/svg" xmlns:xlink="http://www.w3.org/1999/xlink" x="0px" y="0px"
	 viewBox="0 0 224.07 224.07" style="enable-background:new 0 0 224.07 224.07;" xml:space="preserve">
<g>
	<g>
		<g>
			<path d="M89.63-148.55H74.7v-14.94c0-2.06-1.67-3.73-3.73-3.73H56.03c-2.06,0-3.73,1.67-3.73,3.73v14.94H37.36
				c-2.06,0-3.73,1.67-3.73,3.73v14.94c0,2.06,1.67,3.73,3.73,3.73h14.94v14.94c0,2.06,1.67,3.73,3.73,3.73h14.94
				c2.06,0,3.73-1.67,3.73-3.73v-14.94h14.94c2.06,0,3.73-1.67,3.73-3.73v-14.94C93.37-146.88,91.69-148.55,89.63-148.55z
				 M85.9-133.61H70.96c-2.06,0-3.73,1.67-3.73,3.73v14.94h-7.47v-14.94c0-2.06-1.67-3.73-3.73-3.73H41.09v-7.47h14.94
				c2.06,0,3.73-1.67,3.73-3.73v-14.94h7.47v14.94c0,2.06,1.67,3.73,3.73,3.73H85.9V-133.61z"/>
		</g>
	</g>
	<g>
		<g>
			<path d="M227.41-144.17c-2.86-25.73-27.03-49.8-52.78-52.55c-2.19-0.24-4.39-0.37-6.59-0.37h-41.07v-14.94h-7.47v-7.47
				c0-8.25-6.69-14.94-14.94-14.94H85.9c-4.12,0-7.47-3.34-7.47-7.47s3.34-7.47,7.47-7.47h59.74c8.25,0,14.94-6.69,14.94-14.94
				c0-8.25-6.69-14.94-14.94-14.94h-18.67c-4.12,0-7.47-3.34-7.47-7.47v-14.94h-7.47v14.94c0,8.25,6.69,14.94,14.94,14.94h18.67
				c4.12,0,7.47,3.34,7.47,7.47c0,4.12-3.34,7.47-7.47,7.47H85.9c-8.25,0-14.94,6.69-14.94,14.94s6.69,14.94,14.94,14.94h18.67
				c4.12,0,7.47,3.34,7.47,7.47v7.47h-7.47v14.94H63.49c-2.2,0.01-4.4,0.13-6.59,0.37c-25.76,2.76-49.92,26.84-52.77,52.57
				C0.38-111.37,23.91-81.75,56.69-78c13.35,1.53,26.82-1.49,38.25-8.56c4.92-3.22,10.54-5.21,16.39-5.79
				c2.89-0.23,5.79-0.24,8.68-0.03c5.94,0.57,11.65,2.58,16.65,5.85c28.07,17.35,64.88,8.65,82.23-19.41
				C225.94-117.36,228.95-130.83,227.41-144.17z M112.03-204.56h7.47v7.47h-7.47V-204.56z M207.01-102.49
				c-16.88,18.88-44.88,22.93-66.42,9.61c-6.02-3.92-12.9-6.31-20.05-6.96c-1.58-0.11-3.17-0.17-4.77-0.17
				c-1.7,0-3.36,0.07-5.03,0.2c-7.04,0.67-13.81,3.04-19.75,6.89c-24.55,15.19-56.77,7.6-71.96-16.95
				c-6.18-9.99-8.82-21.78-7.48-33.46c2.46-22.11,24.02-43.59,46.15-45.97c1.92-0.22,3.86-0.33,5.79-0.33h104.55
				c1.93,0,3.87,0.1,5.79,0.31c22.13,2.38,43.69,23.86,46.15,45.97C221.75-128.49,217.02-113.6,207.01-102.49z"/>
		</g>
	</g>
	<g>
		<g>
			<path d="M168.04-174.69c-8.25,0-14.94,6.69-14.94,14.94s6.69,14.94,14.94,14.94c8.25,0,14.94-6.69,14.94-14.94
				S176.29-174.69,168.04-174.69z M168.04-152.28c-4.12,0-7.47-3.34-7.47-7.47s3.34-7.47,7.47-7.47s7.47,3.34,7.47,7.47
				S172.17-152.28,168.04-152.28z"/>
		</g>
	</g>
	<g>
		<g>
			<path d="M168.04-129.88c-8.25,0-14.94,6.69-14.94,14.94s6.69,14.94,14.94,14.94c8.25,0,14.94-6.69,14.94-14.94
				S176.29-129.88,168.04-129.88z M168.04-107.47c-4.12,0-7.47-3.34-7.47-7.47s3.34-7.47,7.47-7.47s7.47,3.34,7.47,7.47
				S172.17-107.47,168.04-107.47z"/>
		</g>
	</g>
	<g>
		<g>
			<path d="M141.91-152.28c-8.25,0-14.94,6.69-14.94,14.94s6.69,14.94,14.94,14.94s14.94-6.69,14.94-14.94
				S150.16-152.28,141.91-152.28z M141.91-129.88c-4.12,0-7.47-3.34-7.47-7.47s3.34-7.47,7.47-7.47s7.47,3.34,7.47,7.47
				S146.03-129.88,141.91-129.88z"/>
		</g>
	</g>
	<g>
		<g>
			<path d="M194.18-152.28c-8.25,0-14.94,6.69-14.94,14.94s6.69,14.94,14.94,14.94s14.94-6.69,14.94-14.94
				S202.43-152.28,194.18-152.28z M194.18-129.88c-4.12,0-7.47-3.34-7.47-7.47s3.34-7.47,7.47-7.47s7.47,3.34,7.47,7.47
				S198.31-129.88,194.18-129.88z"/>
		</g>
	</g>
</g>
<g>
	<g>
		<g>
			<path d="M456.04-312.37h-81.98c-2.06,0-3.73,1.67-3.73,3.73v120.17h7.45v-116.45h74.52v216.12H391.3v7.45h64.74
				c2.06,0,3.73-1.67,3.73-3.73v-223.57C459.76-310.7,458.09-312.37,456.04-312.37z"/>
		</g>
	</g>
	<g>
		<g>
			<path d="M407.6-312.37c-2.06,0-3.73,1.67-3.73,3.73v85.7c0,2.06,1.67,3.73,3.73,3.73c2.06,0,3.73-1.67,3.73-3.73v-85.7
				C411.32-310.7,409.65-312.37,407.6-312.37z"/>
		</g>
	</g>
	<g>
		<g>
			<path d="M407.6-159.59c-2.06,0-3.73,1.67-3.73,3.73v70.8c0,2.06,1.67,3.73,3.73,3.73c2.06,0,3.73-1.67,3.73-3.73v-70.8
				C411.32-157.92,409.65-159.59,407.6-159.59z"/>
		</g>
	</g>
	<g>
		<g>
			<path d="M407.6-204.31c-2.06,0-3.73,1.67-3.73,3.73v22.36c0,2.06,1.67,3.73,3.73,3.73c2.06,0,3.73-1.67,3.73-3.73v-22.36
				C411.32-202.64,409.65-204.31,407.6-204.31z"/>
		</g>
	</g>
	<g>
		<g>
			<path d="M396.16-138.64c-0.78-2.9-1.53-5.73-2.26-8.48c-6.75-25.47-11.62-43.87-24.53-47.69c-5.1-1.51-15.7-4.65-27.15,2.14
				c-9,5.34-39.13,5.33-48.12,0c-11.45-6.79-22.05-3.65-27.17-2.13c-12.88,3.81-17.76,22.22-24.5,47.68
				c-0.73,2.75-1.48,5.58-2.26,8.48c-6,22.21-5.97,43.32,0.08,53.79c2.14,3.72,4.96,6.06,8.37,6.97c0.7,0.19,1.4,0.28,2.11,0.28
				c8.12,0,16.33-11.89,24.29-23.41c3.4-4.92,6.91-10.01,8.81-11.49c1.32-1.02,6.38-3.38,24.67-3.13l22.78-0.02
				c15.59,0.07,20.04,2.22,21.23,3.15h0c1.9,1.47,5.41,6.56,8.81,11.49c8.65,12.53,17.6,25.51,26.4,23.14
				c3.41-0.9,6.23-3.25,8.37-6.97C402.13-95.32,402.16-116.44,396.16-138.64z M389.64-88.58c-1.12,1.94-2.41,3.11-3.83,3.49
				c-3.74,0.94-13.98-13.84-18.35-20.17c-4.23-6.12-7.57-10.96-10.38-13.14c-2.56-1.98-8.01-4.63-25.78-4.71l-22.75,0.02
				c-15.37-0.22-24.95,1.33-29.28,4.69c-2.81,2.18-6.15,7.02-10.38,13.14c-4.37,6.33-14.59,21.17-18.35,20.17
				c-1.42-0.38-2.71-1.55-3.83-3.49c-4.18-7.25-5.6-24.94,0.66-48.12c0.79-2.91,1.54-5.75,2.27-8.51
				c5.89-22.25,10.55-39.82,19.44-42.45c2.37-0.7,5.83-1.73,9.87-1.73c3.47,0,7.37,0.76,11.36,3.12c11.2,6.64,44.53,6.64,55.73,0
				c8.64-5.12,16.83-2.7,21.25-1.39c8.87,2.63,13.52,20.2,19.42,42.45c0.73,2.76,1.48,5.6,2.27,8.51
				C395.24-113.52,393.82-95.83,389.64-88.58z"/>
		</g>
	</g>
	<g>
		<g>
			<rect x="277.17" y="-170.77" width="7.45" height="29.81"/>
		</g>
	</g>
	<g>
		<g>
			<path d="M353.57-170.77c-9.25,0-16.77,7.52-16.77,16.77s7.52,16.77,16.77,16.77c9.25,0,16.77-7.52,16.77-16.77
				C370.34-163.25,362.81-170.77,353.57-170.77z M353.57-144.69c-5.14,0-9.32-4.18-9.32-9.32s4.18-9.32,9.32-9.32
				c5.14,0,9.32,4.18,9.32,9.32S358.7-144.69,353.57-144.69z"/>
		</g>
	</g>
	<g>
		<g>
			<path d="M435.54-293.74c-7.19,0-13.04,5.85-13.04,13.04c0,7.19,5.85,13.04,13.04,13.04c7.19,0,13.04-5.85,13.04-13.04
				C448.59-287.88,442.73-293.74,435.54-293.74z M435.54-275.11c-3.08,0-5.59-2.51-5.59-5.59c0-3.08,2.51-5.59,5.59-5.59
				c3.08,0,5.59,2.51,5.59,5.59C441.13-277.61,438.63-275.11,435.54-275.11z"/>
		</g>
	</g>
	<g>
		<g>
			<path d="M435.54-260.2c-7.19,0-13.04,5.85-13.04,13.04s5.85,13.04,13.04,13.04c7.19,0,13.04-5.85,13.04-13.04
				C448.59-254.35,442.73-260.2,435.54-260.2z M435.54-241.57c-3.08,0-5.59-2.51-5.59-5.59c0-3.08,2.51-5.59,5.59-5.59
				c3.08,0,5.59,2.51,5.59,5.59S438.63-241.57,435.54-241.57z"/>
		</g>
	</g>
	<g>
		<g>
			<path d="M407.6-226.66c-8.22,0-14.9,6.69-14.9,14.9s6.69,14.9,14.9,14.9c8.22,0,14.9-6.69,14.9-14.9S415.82-226.66,407.6-226.66z
				 M407.6-204.31c-4.11,0-7.45-3.34-7.45-7.45c0-4.11,3.34-7.45,7.45-7.45c4.11,0,7.45,3.34,7.45,7.45
				C415.05-207.65,411.71-204.31,407.6-204.31z"/>
		</g>
	</g>
	<g>
		<g>
			<path d="M407.6-181.95c-8.22,0-14.9,6.69-14.9,14.9c0,8.22,6.69,14.9,14.9,14.9c8.22,0,14.9-6.69,14.9-14.9
				C422.5-175.26,415.82-181.95,407.6-181.95z M407.6-159.59c-4.11,0-7.45-3.34-7.45-7.45s3.34-7.45,7.45-7.45
				c4.11,0,7.45,3.34,7.45,7.45C415.05-162.93,411.71-159.59,407.6-159.59z"/>
		</g>
	</g>
	<g>
		<g>
			<rect x="265.99" y="-159.59" width="29.81" height="7.45"/>
		</g>
	</g>
</g>
<g>
	<path d="M1029.28-232.02H845.86c-11.22,0.01-20.31,9.11-20.33,20.33V-137c0.01,11.22,9.11,20.31,20.33,20.33h183.42
		c11.22-0.01,20.31-9.11,20.33-20.33v-74.69C1049.59-222.91,1040.5-232.01,1029.28-232.02z M832.15-137v-74.69
		c0.01-7.57,6.14-13.7,13.71-13.71h23.16v102.11h-23.16C838.29-123.3,832.16-129.43,832.15-137z M875.64-123.29V-225.4H999.5v102.11
		H875.64z M1042.99-137c-0.01,7.57-6.14,13.7-13.71,13.71h-23.16V-225.4h23.16c7.57,0.01,13.7,6.14,13.71,13.71V-137z"/>
	<path d="M991.46-220.67H883.68c-1.83,0-3.31,1.48-3.31,3.31c0,0,0,0,0,0v86.04c0,1.83,1.48,3.31,3.31,3.31c0,0,0,0,0,0h107.78
		c1.83,0,3.31-1.48,3.31-3.31c0,0,0,0,0,0v-86.04C994.77-219.19,993.29-220.67,991.46-220.67
		C991.46-220.67,991.46-220.67,991.46-220.67z M988.15-134.64H886.99v-79.42h101.16V-134.64z"/>
	<path d="M980.11-152.66c1.83,0,3.31-1.48,3.31-3.31c0,0,0,0,0,0v-25.94c0-1.83-1.48-3.31-3.31-3.31c-1.83,0-3.31,1.48-3.31,3.31
		v25.94C976.8-154.14,978.28-152.66,980.11-152.66C980.11-152.66,980.11-152.66,980.11-152.66z"/>
	<path d="M1024.55-159.28c-8.09,0-14.65,6.56-14.65,14.65s6.56,14.65,14.65,14.65s14.65-6.56,14.65-14.65
		C1039.19-152.71,1032.64-159.27,1024.55-159.28z M1024.55-136.59c-4.44,0-8.04-3.6-8.04-8.04s3.6-8.04,8.04-8.04
		c4.44,0,8.04,3.6,8.04,8.04C1032.58-140.19,1028.99-136.59,1024.55-136.59z"/>
	<path d="M1031.52-218.72c-4.96,0-8.98,4.02-8.98,8.98s4.02,8.98,8.98,8.98s8.98-4.02,8.98-8.98
		C1040.5-214.7,1036.48-218.72,1031.52-218.72z M1031.52-207.38c-1.31,0-2.36-1.06-2.36-2.36c0-1.31,1.06-2.36,2.36-2.36
		c1.31,0,2.36,1.06,2.36,2.36C1033.88-208.44,1032.83-207.38,1031.52-207.38z"/>
	<path d="M1017.58-186.82c4.96,0,8.98-4.02,8.98-8.98s-4.02-8.98-8.98-8.98s-8.98,4.02-8.98,8.98
		C1008.6-190.84,1012.62-186.82,1017.58-186.82z M1017.58-198.16c1.31,0,2.36,1.06,2.36,2.36c0,1.31-1.06,2.36-2.36,2.36
		c-1.31,0-2.36-1.06-2.36-2.36C1015.21-197.1,1016.27-198.16,1017.58-198.16z"/>
	<path d="M850.59-189.42c8.09,0,14.65-6.56,14.65-14.65s-6.56-14.65-14.65-14.65s-14.65,6.56-14.65,14.65
		C835.94-195.98,842.5-189.43,850.59-189.42z M850.59-212.11c4.44,0,8.04,3.6,8.04,8.04s-3.6,8.04-8.04,8.04s-8.04-3.6-8.04-8.04
		l0,0C842.56-208.51,846.15-212.1,850.59-212.11z"/>
	<path d="M843.61-147.93c-4.96,0-8.98,4.02-8.98,8.98s4.02,8.98,8.98,8.98s8.98-4.02,8.98-8.98
		C852.59-143.91,848.57-147.93,843.61-147.93z M843.61-136.59c-1.31,0-2.36-1.06-2.36-2.36s1.06-2.36,2.36-2.36s2.36,1.06,2.36,2.36
		C845.98-137.65,844.92-136.59,843.61-136.59z"/>
	<path d="M857.56-161.88c-4.96,0-8.98,4.02-8.98,8.98s4.02,8.98,8.98,8.98s8.98-4.02,8.98-8.98
		C866.54-157.85,862.52-161.87,857.56-161.88z M857.56-150.53c-1.31,0-2.36-1.06-2.36-2.36c0-1.31,1.06-2.36,2.36-2.36
		c1.31,0,2.36,1.06,2.36,2.36C859.92-151.59,858.86-150.54,857.56-150.53z"/>
</g>
<g id="game_controller-video_game_controller-controller-monitor-hands">
	<path d="M220.34,0H3.73C1.67,0,0,1.67,0,3.73v171.79c0,2.06,1.67,3.73,3.73,3.73h44.14l4.41,15.46v25.62
		c0,2.06,1.67,3.73,3.73,3.73h29.88c2.06,0,3.73-1.67,3.73-3.73v-22.82c7.32-1.5,13.05-7.21,14.56-14.53h15.68
		c0.73,3.6,2.51,6.9,5.12,9.49c2.59,2.57,5.87,4.33,9.45,5.08v22.78c0,2.06,1.67,3.73,3.73,3.73h29.88c2.06,0,3.73-1.67,3.73-3.73
		v-25.62l4.41-15.46h44.14c2.06,0,3.73-1.67,3.73-3.73V3.73C224.07,1.67,222.4,0,220.34,0L220.34,0z M78.61,184.19l3.55,10.61v21.81
		H59.75v-22.41c0.01-0.34-0.04-0.68-0.15-1.01l-6.12-21.47c-0.4-1.43,0.07-2.96,1.2-3.92l12.55-10.46v15.72
		c-0.01,1.51,0.91,2.87,2.32,3.44c1.39,0.58,3,0.28,4.07-0.78l8.96-9c1.42-1.46,3.76-1.5,5.23-0.07c0.03,0.02,0.05,0.05,0.07,0.07
		c0.71,0.68,1.1,1.63,1.08,2.61c0.02,0.99-0.37,1.95-1.08,2.65l-8.37,8.37C78.51,181.35,78.16,182.84,78.61,184.19L78.61,184.19z
		 M135.6,190.16c-2.01-0.48-3.86-1.5-5.34-2.95c-2.11-2.11-3.29-4.97-3.29-7.95c0-2.06-1.67-3.73-3.73-3.73h-22.41
		c-2.06,0-3.73,1.67-3.73,3.73c-0.02,5.19-3.58,9.7-8.63,10.9L86.42,184l6.76-6.72c4.38-4.38,4.38-11.49,0-15.87
		s-11.49-4.38-15.87,0l-2.61,2.65v-14.68c0.02-6.18,5.02-11.19,11.2-11.2h52.28c6.18,0.02,11.19,5.02,11.2,11.2v14.68l-2.65-2.65
		c-4.38-4.37-11.48-4.36-15.85,0.02c-4.37,4.38-4.36,11.48,0.02,15.85l6.76,6.72L135.6,190.16z M170.59,171.71l-6.12,21.47
		c-0.11,0.33-0.16,0.67-0.15,1.01v22.41h-22.41v-21.81l3.55-10.61c0.45-1.35,0.11-2.84-0.9-3.85l-8.37-8.37
		c-0.71-0.7-1.1-1.66-1.08-2.65c-0.02-0.98,0.38-1.93,1.08-2.61c1.42-1.45,3.76-1.48,5.21-0.05c0.02,0.02,0.04,0.04,0.05,0.05l9,9
		c1.07,1.06,2.68,1.37,4.07,0.78c1.4-0.56,2.32-1.92,2.32-3.44v-15.68l12.55,10.46C170.53,168.77,170.99,170.29,170.59,171.71
		L170.59,171.71z M216.6,171.79h-38.47c0.38-3.69-1.11-7.33-3.96-9.71l-17.51-14.6c-0.95-9.5-8.94-16.74-18.49-16.77H85.89
		c-9.55,0.03-17.53,7.27-18.49,16.77l-17.51,14.6c-2.85,2.38-4.34,6.02-3.96,9.71H7.47V7.47H216.6V171.79z"/>
	<path d="M108.3,37.34h7.47v7.47h-7.47V37.34z"/>
	<path d="M145.23,69.27l-14.53-29.09v-6.57c-0.01-3.52-1.67-6.84-4.48-8.96l-11.95-8.96c-1.32-1.01-3.16-1.01-4.48,0l-11.95,8.96
		c-2.82,2.12-4.47,5.44-4.48,8.96v6.57L78.84,69.27c-0.93,1.84-0.19,4.09,1.65,5.02c0.52,0.26,1.09,0.4,1.67,0.4h18.67v7.47
		c0,0.73,0.22,1.45,0.63,2.05l7.47,11.2c1.11,1.71,3.4,2.2,5.11,1.08c0.43-0.28,0.8-0.65,1.08-1.08l7.47-11.2
		c0.42-0.6,0.64-1.32,0.63-2.05v-7.47h18.67c2.06-0.01,3.73-1.68,3.72-3.75C145.63,70.36,145.5,69.79,145.23,69.27L145.23,69.27z
		 M93.36,67.22h-5.15l5.15-10.31V67.22z M115.77,81.04l-3.73,5.6l-3.73-5.6v-6.35h7.47V81.04z M123.24,67.22h-7.47v-11.2h-7.47v11.2
		h-7.47V33.61c0.01-1.17,0.56-2.28,1.49-2.99l9.71-7.28l9.71,7.28c0.93,0.71,1.49,1.81,1.49,2.99V67.22z M130.71,67.22V56.91
		l5.15,10.31H130.71z"/>
	<path d="M81.75,99.15L67.22,70.06v-6.57c-0.01-3.52-1.67-6.84-4.48-8.96l-11.95-8.96c-1.32-1.01-3.16-1.01-4.48,0l-11.95,8.96
		c-2.82,2.12-4.47,5.44-4.48,8.96v6.57L15.35,99.15c-0.93,1.84-0.19,4.09,1.65,5.02c0.52,0.26,1.09,0.4,1.67,0.4h18.67v7.47
		c0,0.73,0.22,1.45,0.63,2.05l7.47,11.2c1.11,1.71,3.4,2.2,5.11,1.08c0.43-0.28,0.8-0.65,1.08-1.08l7.47-11.2
		c0.42-0.6,0.64-1.32,0.63-2.05v-7.47h18.67c2.06-0.01,3.73-1.68,3.72-3.75C82.15,100.24,82.01,99.67,81.75,99.15z M29.88,97.1
		h-5.15l5.15-10.31V97.1z M52.28,110.91l-3.73,5.6l-3.73-5.6v-6.35h7.47V110.91z M59.75,97.1h-7.47v-11.2h-7.47v11.2h-7.47V63.49
		c0.01-1.17,0.56-2.28,1.49-2.99l9.71-7.28l9.71,7.28c0.93,0.71,1.49,1.81,1.49,2.99V97.1z M67.22,97.1V86.79l5.15,10.31H67.22z"/>
	<path d="M44.81,67.22h7.47v7.47h-7.47V67.22z"/>
	<path d="M171.79,67.22h7.47v7.47h-7.47V67.22z"/>
	<path d="M208.72,99.15l-14.53-29.09v-6.57c-0.01-3.52-1.67-6.84-4.48-8.96l-11.95-8.96c-1.32-1.01-3.16-1.01-4.48,0l-11.95,8.96
		c-2.82,2.12-4.47,5.44-4.48,8.96v6.57l-14.53,29.09c-0.93,1.84-0.19,4.09,1.65,5.02c0.52,0.26,1.09,0.4,1.67,0.4h18.67v7.47
		c0,0.73,0.22,1.45,0.63,2.05l7.47,11.2c1.11,1.71,3.4,2.2,5.11,1.08c0.43-0.28,0.8-0.65,1.08-1.08l7.47-11.2
		c0.42-0.6,0.64-1.32,0.63-2.05v-7.47h18.67c2.06-0.01,3.73-1.68,3.72-3.75C209.12,100.24,208.98,99.67,208.72,99.15L208.72,99.15z
		 M156.85,97.1h-5.15l5.15-10.31V97.1z M179.26,110.91l-3.73,5.6l-3.73-5.6v-6.35h7.47V110.91z M186.72,97.1h-7.47v-11.2h-7.47v11.2
		h-7.47V63.49c0.01-1.17,0.56-2.28,1.49-2.99l9.71-7.28l9.71,7.28c0.93,0.71,1.49,1.81,1.49,2.99V97.1z M194.19,97.1V86.79
		l5.15,10.31H194.19z"/>
	<path d="M108.3,104.57h7.47v7.47h-7.47V104.57z"/>
	<path d="M22.41,112.03h7.47v7.47h-7.47V112.03z"/>
	<path d="M67.22,112.03h7.47v7.47h-7.47V112.03z"/>
	<path d="M85.89,82.16h7.47v7.47h-7.47V82.16z"/>
	<path d="M130.71,82.16h7.47v7.47h-7.47V82.16z"/>
	<path d="M149.38,112.03h7.47v7.47h-7.47V112.03z"/>
	<path d="M194.19,112.03h7.47v7.47h-7.47V112.03z"/>
	<path d="M44.81,134.44h7.47v7.47h-7.47V134.44z"/>
	<path d="M171.79,134.44h7.47v7.47h-7.47V134.44z"/>
	<path d="M171.79,14.94h7.47v7.47h-7.47V14.94z"/>
	<path d="M186.72,14.94h7.47v7.47h-7.47V14.94z"/>
	<path d="M201.66,14.94h7.47v7.47h-7.47V14.94z"/>
	<path d="M22.41,22.41h11.2v-7.47H18.67c-2.06,0-3.73,1.67-3.73,3.73v14.94h7.47V22.41z"/>
	<path d="M14.94,41.08h7.47v7.47h-7.47V41.08z"/>
</g>
<g>
	<path d="M586-7.47c-61.77,0-112.03,50.26-112.03,112.03S524.23,216.6,586,216.6s112.03-50.26,112.03-112.03S647.77-7.47,586-7.47z
		 M586,207.98c-57.02,0-103.42-46.4-103.42-103.42S528.98,1.15,586,1.15s103.42,46.4,103.42,103.42S643.02,207.98,586,207.98z"/>
	<path d="M639.86,100.26h-49.55v-47.4c0-2.38-1.93-4.31-4.31-4.31s-4.31,1.93-4.31,4.31v47.4h-49.55c-2.38,0-4.31,1.93-4.31,4.31
		c0,2.38,1.93,4.31,4.31,4.31h49.55v51.71c0,2.38,1.93,4.31,4.31,4.31s4.31-1.93,4.31-4.31v-51.71h49.55c2.38,0,4.31-1.93,4.31-4.31
		C644.17,102.18,642.24,100.26,639.86,100.26z"/>
</g>
<g>
	<path d="M374.68,37.82h-60.87c-4.46,0-8.08,3.62-8.08,8.08v55.2c0,4.46,3.62,8.08,8.08,8.08h60.87c4.46,0,8.08-3.62,8.08-8.08
		c0-6.28,0-48.36,0-55.2C382.77,41.44,379.14,37.82,374.68,37.82z M334.87,103.38h-7.16v-7.16h7.16V103.38z M347.83,103.38h-7.16
		v-7.16h7.16V103.38z M347.83,90.43h-7.16v-7.16h7.16V90.43z M360.79,103.38h-7.16v-7.16h7.16V103.38z M374.68,103.38h-8.1v-7.91
		c0.8,0.48,1.72,0.76,2.72,0.76h7.66v4.88h0C376.96,102.36,375.94,103.38,374.68,103.38z M376.96,90.43h-7.16v-7.16h7.16V90.43z
		 M376.96,77.47h-7.16v-7.16h7.16V77.47z M376.96,64.51h-7.16v-7.16h7.16V64.51z M376.96,45.9v5.66h-7.66
		c-2.92,0-5.29,2.38-5.29,5.29v34.08c0,0.02,0,0.04,0,0.06c-0.68-0.36-1.45-0.57-2.27-0.57h-8.11v-8.11c0-2.67-2.17-4.84-4.84-4.84
		h-9.07c-2.67,0-4.84,2.17-4.84,4.84v8.11h-8.11c-2.67,0-4.84,2.17-4.84,4.84v8.11h-8.1c-1.26,0-2.28-1.02-2.28-2.28V45.9
		c0-1.26,1.02-2.28,2.28-2.28h60.87C375.94,43.62,376.96,44.64,376.96,45.9L376.96,45.9z"/>
	<path d="M331.3,48.78h-11.58c-1.6,0-2.9,1.3-2.9,2.9s1.3,2.9,2.9,2.9h11.58c1.6,0,2.9-1.3,2.9-2.9
		C334.2,50.08,332.9,48.78,331.3,48.78z"/>
	<path d="M369.78,193.31c8.04,0,14.58-6.54,14.58-14.58c0-8.04-6.54-14.58-14.58-14.58s-14.58,6.54-14.58,14.58
		S361.75,193.31,369.78,193.31z M369.78,169.96c4.84,0,8.78,3.94,8.78,8.78s-3.94,8.78-8.78,8.78c-4.84,0-8.78-3.94-8.78-8.78
		C361.01,173.89,364.94,169.96,369.78,169.96z"/>
	<path d="M395.99,117.09l0-82.61c0-5.61-4.56-10.18-10.18-10.18h-83.13c-5.61,0-10.18,4.56-10.18,10.18v82.6
		c-2.7,0.89-4.65,3.44-4.65,6.43v15.74c0,2.99,1.95,5.54,4.65,6.43v66.44c0,5.61,4.56,10.18,10.18,10.18h34.8
		c0.08,0,0.15-0.02,0.23-0.02h13.08c0.08,0.01,0.15,0.02,0.23,0.02h34.8c5.61,0,10.18-4.56,10.18-10.18v-66.44
		c2.7-0.89,4.65-3.44,4.65-6.43v-15.74C400.65,120.52,398.69,117.98,395.99,117.09z M298.31,34.48c0-2.41,1.96-4.37,4.37-4.37h83.13
		c2.41,0,4.37,1.96,4.37,4.37v36.16c0,0,0,0,0,0.01v13.52c0,0,0,0,0,0v32.57h-91.88V34.48z M390.19,212.12
		c0,2.41-1.96,4.37-4.37,4.37h-83.13c-2.41,0-4.37-1.96-4.37-4.37v-66.09h91.88V212.12z M394.85,139.25c0,0.54-0.44,0.97-0.97,0.97
		c-2.63,0-96.62,0-99.24,0c-0.54,0-0.97-0.44-0.97-0.97v-15.74c0-0.54,0.44-0.97,0.97-0.97h99.24c0.54,0,0.97,0.44,0.97,0.97V139.25
		z"/>
	<path d="M383.2,128.48h-13.56c-1.6,0-2.9,1.3-2.9,2.9s1.3,2.9,2.9,2.9h13.56c1.6,0,2.9-1.3,2.9-2.9S384.8,128.48,383.2,128.48z"/>
	<path d="M310.14,187.43h3.54c1.67,0,3.24-0.48,4.56-1.3c-0.82,1.33-1.3,2.89-1.3,4.56v3.54c0,3.31,2.69,6,6,6h5.39
		c3.31,0,6-2.69,6-6v-3.54c0-1.67-0.48-3.24-1.3-4.56c1.33,0.82,2.89,1.3,4.56,1.3h3.54c3.31,0,6-2.69,6-6v-5.39c0-3.31-2.69-6-6-6
		h-3.54c-1.67,0-3.24,0.48-4.56,1.3c0.82-1.33,1.3-2.89,1.3-4.56v-3.54c0-3.31-2.69-6-6-6h-5.39c-3.31,0-6,2.69-6,6v3.54
		c0,1.67,0.48,3.24,1.3,4.56c-1.33-0.82-2.89-1.3-4.56-1.3h-3.54c-3.31,0-6,2.69-6,6v5.39
		C304.14,184.74,306.83,187.43,310.14,187.43z M337.61,175.84h3.54c0.11,0,0.2,0.09,0.2,0.2v5.39c0,0.11-0.09,0.2-0.2,0.2h-3.54
		c-1.6,0-2.9-1.3-2.9-2.9C334.71,177.14,336.01,175.84,337.61,175.84z M328.34,194.44h-5.39c-0.11,0-0.2-0.09-0.2-0.2v-3.54
		c0-1.6,1.3-2.9,2.9-2.9s2.9,1.3,2.9,2.9v3.54h0C328.54,194.35,328.45,194.44,328.34,194.44z M322.95,163.03h5.39
		c0.11,0,0.2,0.09,0.2,0.2v3.54c0,1.6-1.3,2.9-2.9,2.9c-1.6,0-2.9-1.3-2.9-2.9v-3.54h0C322.75,163.12,322.84,163.03,322.95,163.03z
		 M321.08,174.17c1.33,0.82,2.89,1.3,4.56,1.3c1.67,0,3.24-0.48,4.56-1.3c-0.82,1.33-1.3,2.89-1.3,4.56c0,1.67,0.48,3.24,1.3,4.56
		c-1.33-0.82-2.89-1.3-4.56-1.3c-1.67,0-3.24,0.48-4.56,1.3c0.82-1.33,1.3-2.89,1.3-4.56S321.9,175.5,321.08,174.17z M309.94,176.04
		c0-0.11,0.09-0.2,0.2-0.2h3.54c1.6,0,2.9,1.3,2.9,2.9c0,1.6-1.3,2.9-2.9,2.9h-3.54c-0.11,0-0.2-0.09-0.2-0.2V176.04z"/>
</g>
<g>
	<g>
		<g>
			<circle cx="646.56" cy="-246.08" r="3.39"/>
		</g>
	</g>
	<g>
		<g>
			<g>
				<circle cx="631.6" cy="-132.8" r="3.39"/>
			</g>
		</g>
		<g>
			<g>
				<path d="M689.53-143.41c-5.85,0-10.61,4.76-10.61,10.61c0,5.85,4.76,10.61,10.61,10.61c5.85,0,10.61-4.76,10.61-10.61
					C700.15-138.65,695.39-143.41,689.53-143.41z M689.53-128.96c-2.12,0-3.84-1.72-3.84-3.84s1.72-3.84,3.84-3.84
					c2.12,0,3.84,1.72,3.84,3.84S691.65-128.96,689.53-128.96z"/>
			</g>
		</g>
		<g>
			<g>
				<path d="M574.55-250.39c-6.32,0-11.46,5.14-11.46,11.46c0,6.32,5.14,11.45,11.46,11.45S586-232.62,586-238.93
					C586-245.25,580.86-250.39,574.55-250.39z M574.55-234.25c-2.58,0-4.68-2.1-4.68-4.68c0-2.58,2.1-4.68,4.68-4.68
					s4.68,2.1,4.68,4.68C579.23-236.35,577.13-234.25,574.55-234.25z"/>
			</g>
		</g>
		<g>
			<g>
				<path d="M630.25-228.09c-6.32,0-11.46,5.14-11.46,11.46c0,6.32,5.14,11.45,11.46,11.45s11.45-5.14,11.45-11.45
					C641.71-222.95,636.57-228.09,630.25-228.09z M630.25-211.95c-2.58,0-4.68-2.1-4.68-4.68c0-2.58,2.1-4.68,4.68-4.68
					s4.68,2.1,4.68,4.68C634.94-214.05,632.84-211.95,630.25-211.95z"/>
			</g>
		</g>
		<g>
			<g>
				<circle cx="646.56" cy="-228.09" r="3.39"/>
			</g>
		</g>
		<g>
			<g>
				<circle cx="636.89" cy="-236.94" r="3.39"/>
			</g>
		</g>
		<g>
			<g>
				<circle cx="656.23" cy="-236.94" r="3.39"/>
			</g>
		</g>
		<g>
			<g>
				<path d="M600.48-220.02h-4.68v-4.68c0-1.87-1.52-3.39-3.39-3.39s-3.39,1.52-3.39,3.39v4.68h-4.68c-1.87,0-3.39,1.52-3.39,3.39
					c0,1.87,1.52,3.39,3.39,3.39h4.68v4.68c0,1.87,1.52,3.39,3.39,3.39s3.39-1.52,3.39-3.39v-4.68h4.68c1.87,0,3.39-1.52,3.39-3.39
					C603.87-218.51,602.35-220.02,600.48-220.02z"/>
			</g>
		</g>
		<path d="M713.98-168.27h-38.1c6.63-7.39,9.39-17.79,6.83-27.78c-3.19-12.45-6.01-24.99-9.35-37.4c-2.4-8.93-6.4-18.01-14.52-23.12
			c-1.56-0.98-3.23-1.8-4.97-2.44l-9.3-3.48c-4.16-1.56-8.82-0.79-12.26,1.91h-45.03c-3.44-2.7-8.1-3.47-12.26-1.91l-9.3,3.48
			c-8.8,3.29-15.45,10.69-17.78,19.79l-11.06,43.18c-2.56,9.99,0.2,20.39,6.83,27.78h-38.1c-4.33,0-7.85,3.52-7.85,7.85v21.52v12.19
			v21.52c0,4.33,3.52,7.85,7.85,7.85h13.75v2.25c0,1.87,1.52,3.39,3.39,3.39c1.87,0,3.39-1.52,3.39-3.39v-2.25h167.32v2.25
			c0,1.87,1.52,3.39,3.39,3.39s3.39-1.52,3.39-3.39v-2.25h13.75c4.33,0,7.85-3.52,7.85-7.85v-55.24
			C721.82-164.75,718.3-168.27,713.98-168.27z M625.39-253.8l-3.49,3.49c-1.06,1.06-2.48,1.65-3.99,1.65h-8.13h-8.13
			c-1.51,0-2.92-0.59-3.98-1.65l-3.49-3.49H625.39z M543.43-194.36l11.06-43.18c1.78-6.96,6.86-12.61,13.59-15.13l9.3-3.48
			c2.15-0.81,4.6-0.28,6.23,1.35c0,0,0,0,0,0l9.27,9.27c2.34,2.34,5.46,3.63,8.77,3.63h8.13h8.13c3.31,0,6.43-1.29,8.78-3.63
			l9.27-9.27c1.63-1.63,4.07-2.16,6.23-1.35l9.3,3.48c4.49,1.68,8.22,4.73,10.76,8.7c0.45,1.25,3.89,11.03,6.86,22.17l7.03,27.43
			c2.52,9.82-1.59,20.15-10.01,25.6l-18.05-22.61c-3.54-4.44-8.83-6.98-14.51-6.98h-23.78h-23.78c-5.68,0-10.97,2.55-14.51,6.98
			l-18.05,22.61C545.01-174.22,540.91-184.55,543.43-194.36z M657.86-168.27h-63.28h-10.24h-14.78h-2.23h-5.61l15.07-18.88
			c2.25-2.82,5.61-4.44,9.22-4.44h23.78h23.78c3.61,0,6.97,1.62,9.22,4.44L657.86-168.27z M713.98-104.11H505.6
			c-0.59,0-1.07-0.48-1.07-1.07v-21.52v-8.81h107.71v5.42h-96.57c-1.87,0-3.39,1.52-3.39,3.39c0,1.87,1.52,3.39,3.39,3.39h97.06
			c3.46,0,6.28-2.82,6.28-6.28V-136c0-3.46-2.82-6.28-6.28-6.28h-108.2v-18.14c0-0.59,0.48-1.07,1.07-1.07h48.12
			c0.03,0,0.07,0.01,0.1,0.01c0.04,0,0.08-0.01,0.12-0.01h13.39h2.23h14.78h10.24h71.05c0.04,0,0.08,0.01,0.12,0.01
			c0.03,0,0.07-0.01,0.1-0.01h48.12c0.59,0,1.07,0.48,1.07,1.07v55.24h0C715.05-104.59,714.57-104.11,713.98-104.11z"/>
	</g>
</g>
</svg>
