<?xml version="1.0" encoding="utf-8"?>
<!-- Generator: Adobe Illustrator 24.1.0, SVG Export Plug-In . SVG Version: 6.00 Build 0)  -->
<svg version="1.1" id="Capa_1" xmlns="http://www.w3.org/2000/svg" xmlns:xlink="http://www.w3.org/1999/xlink" x="0px" y="0px"
	 viewBox="0 0 224.07 171.6" style="enable-background:new 0 0 224.07 171.6;" xml:space="preserve">
<g>
	<g>
		<g>
			<path d="M-408.12,114.74h-14.94V99.81c0-2.06-1.67-3.73-3.73-3.73h-14.94c-2.06,0-3.73,1.67-3.73,3.73v14.94h-14.94
				c-2.06,0-3.73,1.67-3.73,3.73v14.94c0,2.06,1.67,3.73,3.73,3.73h14.94v14.94c0,2.06,1.67,3.73,3.73,3.73h14.94
				c2.06,0,3.73-1.67,3.73-3.73v-14.94h14.94c2.06,0,3.73-1.67,3.73-3.73v-14.94C-404.39,116.41-406.06,114.74-408.12,114.74z
				 M-411.86,129.68h-14.94c-2.06,0-3.73,1.67-3.73,3.73v14.94h-7.47v-14.94c0-2.06-1.67-3.73-3.73-3.73h-14.94v-7.47h14.94
				c2.06,0,3.73-1.67,3.73-3.73v-14.94h7.47v14.94c0,2.06,1.67,3.73,3.73,3.73h14.94V129.68z"/>
		</g>
	</g>
	<g>
		<g>
			<path d="M-270.34,119.12c-2.86-25.73-27.03-49.8-52.78-52.55c-2.19-0.24-4.39-0.37-6.59-0.37h-41.07V51.26h-7.47V43.8
				c0-8.25-6.69-14.94-14.94-14.94h-18.67c-4.12,0-7.47-3.34-7.47-7.47s3.34-7.47,7.47-7.47h59.74c8.25,0,14.94-6.69,14.94-14.94
				s-6.69-14.94-14.94-14.94h-18.67c-4.12,0-7.47-3.34-7.47-7.47v-14.94h-7.47v14.94c0,8.25,6.69,14.94,14.94,14.94h18.67
				c4.12,0,7.47,3.34,7.47,7.47s-3.34,7.47-7.47,7.47h-59.74c-8.25,0-14.94,6.69-14.94,14.94s6.69,14.94,14.94,14.94h18.67
				c4.12,0,7.47,3.34,7.47,7.47v7.47h-7.47V66.2h-41.07c-2.2,0.01-4.4,0.13-6.59,0.37c-25.76,2.76-49.92,26.84-52.77,52.57
				c-3.75,32.78,19.78,62.4,52.56,66.15c13.35,1.53,26.82-1.49,38.25-8.56c4.92-3.22,10.54-5.21,16.39-5.79
				c2.89-0.23,5.79-0.24,8.68-0.03c5.94,0.57,11.65,2.58,16.65,5.85c28.07,17.35,64.88,8.65,82.23-19.41
				C-271.81,145.93-268.81,132.46-270.34,119.12z M-385.72,58.73h7.47v7.47h-7.47V58.73z M-290.74,160.8
				c-16.88,18.88-44.88,22.93-66.42,9.61c-6.02-3.92-12.9-6.31-20.05-6.96c-1.58-0.11-3.17-0.17-4.77-0.17
				c-1.7,0-3.36,0.07-5.03,0.2c-7.04,0.67-13.81,3.04-19.75,6.89c-24.55,15.19-56.77,7.6-71.96-16.95
				c-6.18-9.99-8.82-21.78-7.48-33.46c2.46-22.11,24.02-43.59,46.15-45.97c1.92-0.22,3.86-0.33,5.79-0.33h104.55
				c1.93,0,3.87,0.1,5.79,0.31c22.13,2.38,43.69,23.86,46.15,45.97C-276.01,134.8-280.74,149.69-290.74,160.8z"/>
		</g>
	</g>
	<g>
		<g>
			<path d="M-329.71,88.6c-8.25,0-14.94,6.69-14.94,14.94s6.69,14.94,14.94,14.94s14.94-6.69,14.94-14.94S-321.46,88.6-329.71,88.6z
				 M-329.71,111.01c-4.12,0-7.47-3.34-7.47-7.47s3.34-7.47,7.47-7.47s7.47,3.34,7.47,7.47S-325.58,111.01-329.71,111.01z"/>
		</g>
	</g>
	<g>
		<g>
			<path d="M-329.71,133.41c-8.25,0-14.94,6.69-14.94,14.94s6.69,14.94,14.94,14.94s14.94-6.69,14.94-14.94
				S-321.46,133.41-329.71,133.41z M-329.71,155.82c-4.12,0-7.47-3.34-7.47-7.47s3.34-7.47,7.47-7.47s7.47,3.34,7.47,7.47
				S-325.58,155.82-329.71,155.82z"/>
		</g>
	</g>
	<g>
		<g>
			<path d="M-355.85,111.01c-8.25,0-14.94,6.69-14.94,14.94s6.69,14.94,14.94,14.94c8.25,0,14.94-6.69,14.94-14.94
				S-347.6,111.01-355.85,111.01z M-355.85,133.41c-4.12,0-7.47-3.34-7.47-7.47c0-4.12,3.34-7.47,7.47-7.47
				c4.12,0,7.47,3.34,7.47,7.47C-348.38,130.07-351.72,133.41-355.85,133.41z"/>
		</g>
	</g>
	<g>
		<g>
			<path d="M-303.57,111.01c-8.25,0-14.94,6.69-14.94,14.94s6.69,14.94,14.94,14.94c8.25,0,14.94-6.69,14.94-14.94
				S-295.32,111.01-303.57,111.01z M-303.57,133.41c-4.12,0-7.47-3.34-7.47-7.47c0-4.12,3.34-7.47,7.47-7.47
				c4.12,0,7.47,3.34,7.47,7.47C-296.1,130.07-299.45,133.41-303.57,133.41z"/>
		</g>
	</g>
</g>
<g>
	<g>
		<g>
			<path d="M-41.71-49.08h-81.98c-2.06,0-3.73,1.67-3.73,3.73V74.82h7.45V-41.62h74.52V174.5h-61.02v7.45h64.74
				c2.06,0,3.73-1.67,3.73-3.73V-45.35C-37.99-47.41-39.66-49.08-41.71-49.08z"/>
		</g>
	</g>
	<g>
		<g>
			<path d="M-90.16-49.08c-2.06,0-3.73,1.67-3.73,3.73v85.7c0,2.06,1.67,3.73,3.73,3.73c2.06,0,3.73-1.67,3.73-3.73v-85.7
				C-86.43-47.41-88.1-49.08-90.16-49.08z"/>
		</g>
	</g>
	<g>
		<g>
			<path d="M-90.16,103.7c-2.06,0-3.73,1.67-3.73,3.73v70.8c0,2.06,1.67,3.73,3.73,3.73c2.06,0,3.73-1.67,3.73-3.73v-70.8
				C-86.43,105.37-88.1,103.7-90.16,103.7z"/>
		</g>
	</g>
	<g>
		<g>
			<path d="M-90.16,58.98c-2.06,0-3.73,1.67-3.73,3.73v22.36c0,2.06,1.67,3.73,3.73,3.73c2.06,0,3.73-1.67,3.73-3.73V62.71
				C-86.43,60.65-88.1,58.98-90.16,58.98z"/>
		</g>
	</g>
	<g>
		<g>
			<path d="M-101.59,124.65c-0.78-2.9-1.53-5.73-2.26-8.48c-6.75-25.47-11.62-43.87-24.53-47.69c-5.1-1.51-15.7-4.65-27.15,2.14
				c-9,5.34-39.13,5.33-48.12,0c-11.45-6.79-22.05-3.65-27.17-2.13c-12.88,3.81-17.76,22.22-24.5,47.68
				c-0.73,2.75-1.48,5.58-2.26,8.48c-6,22.21-5.97,43.32,0.08,53.79c2.14,3.72,4.96,6.06,8.37,6.97c0.7,0.19,1.4,0.28,2.11,0.28
				c8.12,0,16.33-11.89,24.29-23.41c3.4-4.92,6.91-10.01,8.81-11.49c1.32-1.02,6.38-3.38,24.67-3.13l22.78-0.02
				c15.59,0.07,20.04,2.22,21.23,3.15h0c1.9,1.47,5.41,6.56,8.81,11.49c8.65,12.53,17.6,25.51,26.4,23.14
				c3.41-0.9,6.23-3.25,8.37-6.97C-95.62,167.97-95.59,146.85-101.59,124.65z M-108.12,174.71c-1.12,1.94-2.41,3.11-3.83,3.49
				c-3.74,0.94-13.98-13.84-18.35-20.17c-4.23-6.12-7.57-10.96-10.38-13.14c-2.56-1.98-8.01-4.63-25.78-4.71l-22.75,0.02
				c-15.37-0.22-24.95,1.33-29.28,4.69c-2.81,2.18-6.15,7.02-10.38,13.14c-4.37,6.33-14.59,21.17-18.35,20.17
				c-1.42-0.38-2.71-1.55-3.83-3.49c-4.18-7.25-5.6-24.94,0.66-48.12c0.79-2.91,1.54-5.75,2.27-8.51
				c5.9-22.25,10.55-39.82,19.44-42.45c2.37-0.7,5.83-1.73,9.87-1.73c3.47,0,7.37,0.76,11.36,3.12c11.2,6.64,44.53,6.64,55.73,0
				c8.64-5.12,16.83-2.7,21.25-1.39c8.87,2.63,13.52,20.2,19.42,42.45c0.73,2.76,1.48,5.6,2.27,8.51
				C-102.52,149.77-103.93,167.46-108.12,174.71z"/>
		</g>
	</g>
	<g>
		<g>
			<rect x="-220.58" y="92.52" width="7.45" height="29.81"/>
		</g>
	</g>
	<g>
		<g>
			<path d="M-144.19,92.52c-9.25,0-16.77,7.52-16.77,16.77s7.52,16.77,16.77,16.77c9.25,0,16.77-7.52,16.77-16.77
				C-127.42,100.04-134.94,92.52-144.19,92.52z M-144.19,118.6c-5.14,0-9.32-4.18-9.32-9.32s4.18-9.32,9.32-9.32
				c5.14,0,9.32,4.18,9.32,9.32S-139.05,118.6-144.19,118.6z"/>
		</g>
	</g>
	<g>
		<g>
			<path d="M-62.21-30.45c-7.19,0-13.04,5.85-13.04,13.04S-69.4-4.36-62.21-4.36c7.19,0,13.04-5.85,13.04-13.04
				S-55.02-30.45-62.21-30.45z M-62.21-11.82c-3.08,0-5.59-2.51-5.59-5.59s2.51-5.59,5.59-5.59c3.08,0,5.59,2.51,5.59,5.59
				S-59.13-11.82-62.21-11.82z"/>
		</g>
	</g>
	<g>
		<g>
			<path d="M-62.21,3.09c-7.19,0-13.04,5.85-13.04,13.04s5.85,13.04,13.04,13.04c7.19,0,13.04-5.85,13.04-13.04
				C-49.17,8.94-55.02,3.09-62.21,3.09z M-62.21,21.72c-3.08,0-5.59-2.51-5.59-5.59s2.51-5.59,5.59-5.59c3.08,0,5.59,2.51,5.59,5.59
				C-56.62,19.21-59.13,21.72-62.21,21.72z"/>
		</g>
	</g>
	<g>
		<g>
			<path d="M-90.16,36.63c-8.22,0-14.9,6.69-14.9,14.9s6.69,14.9,14.9,14.9c8.22,0,14.9-6.69,14.9-14.9S-81.94,36.63-90.16,36.63z
				 M-90.16,58.98c-4.11,0-7.45-3.34-7.45-7.45s3.34-7.45,7.45-7.45s7.45,3.34,7.45,7.45S-86.05,58.98-90.16,58.98z"/>
		</g>
	</g>
	<g>
		<g>
			<path d="M-90.16,81.34c-8.22,0-14.9,6.69-14.9,14.9c0,8.22,6.69,14.9,14.9,14.9c8.22,0,14.9-6.69,14.9-14.9
				C-75.25,88.03-81.94,81.34-90.16,81.34z M-90.16,103.7c-4.11,0-7.45-3.34-7.45-7.45s3.34-7.45,7.45-7.45s7.45,3.34,7.45,7.45
				C-82.7,100.36-86.05,103.7-90.16,103.7z"/>
		</g>
	</g>
	<g>
		<g>
			<rect x="-231.76" y="103.7" width="29.81" height="7.45"/>
		</g>
	</g>
</g>
<g>
	<path d="M531.52,31.27H348.11c-11.22,0.01-20.31,9.11-20.33,20.33v74.69c0.01,11.22,9.11,20.31,20.33,20.33h183.42
		c11.22-0.01,20.31-9.11,20.33-20.33V51.6C551.84,40.38,542.75,31.28,531.52,31.27z M334.4,126.29V51.6
		c0.01-7.57,6.14-13.7,13.71-13.71h23.16V140h-23.16C340.54,139.99,334.41,133.86,334.4,126.29z M377.89,140V37.89h123.85V140
		H377.89z M545.23,126.29c-0.01,7.57-6.14,13.7-13.71,13.71h-23.16V37.89h23.16c7.57,0.01,13.7,6.14,13.71,13.71V126.29z"/>
	<path d="M493.71,42.62H385.93c-1.83,0-3.31,1.48-3.31,3.31c0,0,0,0,0,0v86.04c0,1.83,1.48,3.31,3.31,3.31c0,0,0,0,0,0h107.78
		c1.83,0,3.31-1.48,3.31-3.31c0,0,0,0,0,0V45.93C497.02,44.1,495.54,42.62,493.71,42.62C493.71,42.62,493.71,42.62,493.71,42.62z
		 M490.4,128.65H389.24V49.23H490.4V128.65z"/>
	<path d="M482.36,110.63c1.83,0,3.31-1.48,3.31-3.31c0,0,0,0,0,0V81.38c0-1.83-1.48-3.31-3.31-3.31s-3.31,1.48-3.31,3.31v25.94
		C479.05,109.15,480.53,110.63,482.36,110.63C482.36,110.63,482.36,110.63,482.36,110.63z"/>
	<path d="M526.8,104.01c-8.09,0-14.65,6.56-14.65,14.65s6.56,14.65,14.65,14.65c8.09,0,14.65-6.56,14.65-14.65
		C541.44,110.58,534.89,104.02,526.8,104.01z M526.8,126.7c-4.44,0-8.04-3.6-8.04-8.04c0-4.44,3.6-8.04,8.04-8.04
		c4.44,0,8.04,3.6,8.04,8.04C534.83,123.1,531.23,126.7,526.8,126.7z"/>
	<path d="M533.77,44.57c-4.96,0-8.98,4.02-8.98,8.98s4.02,8.98,8.98,8.98s8.98-4.02,8.98-8.98
		C542.74,48.59,538.73,44.57,533.77,44.57z M533.77,55.91c-1.31,0-2.36-1.06-2.36-2.36c0-1.31,1.06-2.36,2.36-2.36
		c1.31,0,2.36,1.06,2.36,2.36C536.13,54.85,535.07,55.91,533.77,55.91z"/>
	<path d="M519.82,76.47c4.96,0,8.98-4.02,8.98-8.98s-4.02-8.98-8.98-8.98c-4.96,0-8.98,4.02-8.98,8.98
		C510.85,72.45,514.86,76.47,519.82,76.47z M519.82,65.13c1.31,0,2.36,1.06,2.36,2.36s-1.06,2.36-2.36,2.36
		c-1.31,0-2.36-1.06-2.36-2.36C517.46,66.19,518.52,65.13,519.82,65.13z"/>
	<path d="M352.84,73.87c8.09,0,14.65-6.56,14.65-14.65s-6.56-14.65-14.65-14.65c-8.09,0-14.65,6.56-14.65,14.65
		C338.19,67.31,344.75,73.87,352.84,73.87z M352.84,51.18c4.44,0,8.04,3.6,8.04,8.04s-3.6,8.04-8.04,8.04
		c-4.44,0-8.04-3.6-8.04-8.04l0,0C344.8,54.78,348.4,51.19,352.84,51.18z"/>
	<path d="M345.86,115.36c-4.96,0-8.98,4.02-8.98,8.98c0,4.96,4.02,8.98,8.98,8.98s8.98-4.02,8.98-8.98
		C354.84,119.38,350.82,115.36,345.86,115.36z M345.86,126.7c-1.31,0-2.36-1.06-2.36-2.36c0-1.31,1.06-2.36,2.36-2.36
		c1.31,0,2.36,1.06,2.36,2.36C348.22,125.64,347.17,126.7,345.86,126.7z"/>
	<path d="M359.81,101.41c-4.96,0-8.98,4.02-8.98,8.98s4.02,8.98,8.98,8.98s8.98-4.02,8.98-8.98
		C368.78,105.44,364.77,101.42,359.81,101.41z M359.81,112.76c-1.31,0-2.36-1.06-2.36-2.36s1.06-2.36,2.36-2.36
		c1.31,0,2.36,1.06,2.36,2.36C362.17,111.7,361.11,112.75,359.81,112.76z"/>
</g>
<g id="game_controller-video_game_controller-controller-monitor-hands">
	<path d="M-277.42,263.29h-216.6c-2.06,0-3.73,1.67-3.73,3.73v171.79c0,2.06,1.67,3.73,3.73,3.73h44.14l4.41,15.46v25.62
		c0,2.06,1.67,3.73,3.73,3.73h29.88c2.06,0,3.73-1.67,3.73-3.73v-22.82c7.32-1.5,13.05-7.21,14.56-14.53h15.68
		c0.73,3.6,2.51,6.9,5.12,9.49c2.59,2.57,5.87,4.33,9.45,5.08v22.78c0,2.06,1.67,3.73,3.73,3.73h29.88c2.06,0,3.73-1.67,3.73-3.73
		v-25.62l4.41-15.46h44.14c2.06,0,3.73-1.67,3.73-3.73V267.02C-273.68,264.96-275.36,263.29-277.42,263.29L-277.42,263.29z
		 M-419.14,447.48l3.55,10.61v21.81H-438v-22.41c0.01-0.34-0.04-0.68-0.15-1.01l-6.12-21.47c-0.4-1.43,0.07-2.96,1.2-3.92
		l12.55-10.46v15.72c-0.01,1.51,0.91,2.87,2.32,3.44c1.39,0.58,3,0.28,4.07-0.78l8.96-9c1.42-1.46,3.76-1.5,5.23-0.07
		c0.03,0.02,0.05,0.05,0.07,0.07c0.71,0.68,1.1,1.63,1.08,2.61c0.02,0.99-0.37,1.95-1.08,2.65l-8.37,8.37
		C-419.25,444.64-419.59,446.13-419.14,447.48L-419.14,447.48z M-362.15,453.45c-2.01-0.48-3.86-1.5-5.34-2.95
		c-2.11-2.11-3.29-4.97-3.29-7.95c0-2.06-1.67-3.73-3.73-3.73h-22.41c-2.06,0-3.73,1.67-3.73,3.73c-0.02,5.19-3.58,9.7-8.63,10.9
		l-2.05-6.16l6.76-6.72c4.38-4.38,4.38-11.49,0-15.87c-4.38-4.38-11.49-4.38-15.87,0l-2.61,2.65v-14.68
		c0.02-6.18,5.02-11.19,11.2-11.2h52.28c6.18,0.02,11.18,5.02,11.2,11.2v14.68l-2.65-2.65c-4.38-4.37-11.48-4.36-15.85,0.02
		c-4.37,4.38-4.36,11.48,0.02,15.85l6.76,6.72L-362.15,453.45z M-327.16,435l-6.12,21.47c-0.11,0.33-0.16,0.67-0.15,1.01v22.41
		h-22.41v-21.81l3.55-10.61c0.45-1.35,0.11-2.84-0.9-3.85l-8.37-8.37c-0.71-0.7-1.1-1.66-1.08-2.65c-0.02-0.98,0.38-1.93,1.08-2.61
		c1.42-1.45,3.76-1.48,5.21-0.05c0.02,0.02,0.04,0.04,0.05,0.05l9,9c1.07,1.06,2.68,1.37,4.07,0.78c1.4-0.56,2.32-1.92,2.32-3.44
		v-15.68l12.55,10.46C-327.23,432.06-326.76,433.59-327.16,435L-327.16,435z M-281.15,435.08h-38.47c0.38-3.69-1.11-7.33-3.96-9.71
		l-17.51-14.6c-0.95-9.5-8.94-16.74-18.49-16.77h-52.28c-9.55,0.03-17.53,7.27-18.49,16.77l-17.51,14.6
		c-2.85,2.38-4.34,6.02-3.96,9.71h-38.47V270.76h209.13V435.08z"/>
	<path d="M-389.45,300.64h7.47v7.47h-7.47V300.64z"/>
	<path d="M-352.52,332.57l-14.53-29.09v-6.57c-0.01-3.52-1.67-6.84-4.48-8.96l-11.95-8.96c-1.32-1.01-3.16-1.01-4.48,0l-11.95,8.96
		c-2.82,2.12-4.47,5.44-4.48,8.96v6.57l-14.53,29.09c-0.93,1.84-0.19,4.09,1.65,5.02c0.52,0.26,1.09,0.4,1.67,0.4h18.67v7.47
		c0,0.73,0.22,1.45,0.63,2.05l7.47,11.2c1.11,1.71,3.4,2.2,5.11,1.08c0.43-0.28,0.8-0.65,1.08-1.08l7.47-11.2
		c0.42-0.6,0.64-1.32,0.63-2.05v-7.47h18.67c2.06-0.01,3.73-1.68,3.72-3.75C-352.12,333.65-352.26,333.08-352.52,332.57
		L-352.52,332.57z M-404.39,330.51h-5.15l5.15-10.31V330.51z M-381.98,344.33l-3.73,5.6l-3.73-5.6v-6.35h7.47V344.33z
		 M-374.51,330.51h-7.47v-11.2h-7.47v11.2h-7.47V296.9c0.01-1.17,0.56-2.28,1.49-2.99l9.71-7.28l9.71,7.28
		c0.93,0.71,1.49,1.81,1.49,2.99V330.51z M-367.05,330.51V320.2l5.15,10.31H-367.05z"/>
	<path d="M-416,362.44l-14.53-29.09v-6.57c-0.01-3.52-1.67-6.84-4.48-8.96l-11.95-8.96c-1.32-1.01-3.16-1.01-4.48,0l-11.95,8.96
		c-2.82,2.12-4.47,5.44-4.48,8.96v6.57l-14.53,29.09c-0.93,1.84-0.19,4.09,1.65,5.02c0.52,0.26,1.09,0.4,1.67,0.4h18.67v7.47
		c0,0.73,0.22,1.45,0.63,2.05l7.47,11.2c1.11,1.71,3.4,2.2,5.11,1.08c0.43-0.28,0.8-0.65,1.08-1.08l7.47-11.2
		c0.42-0.6,0.64-1.32,0.63-2.05v-7.47h18.67c2.06-0.01,3.73-1.68,3.72-3.75C-415.61,363.53-415.74,362.96-416,362.44z
		 M-467.88,360.39h-5.15l5.15-10.31V360.39z M-445.47,374.2l-3.73,5.6l-3.73-5.6v-6.35h7.47V374.2z M-438,360.39h-7.47v-11.2h-7.47
		v11.2h-7.47v-33.61c0.01-1.17,0.56-2.28,1.49-2.99l9.71-7.28l9.71,7.28c0.93,0.71,1.49,1.81,1.49,2.99V360.39z M-430.53,360.39
		v-10.31l5.15,10.31H-430.53z"/>
	<path d="M-452.94,330.51h7.47v7.47h-7.47V330.51z"/>
	<path d="M-325.97,330.51h7.47v7.47h-7.47V330.51z"/>
	<path d="M-289.03,362.44l-14.53-29.09v-6.57c-0.01-3.52-1.67-6.84-4.48-8.96l-11.95-8.96c-1.32-1.01-3.16-1.01-4.48,0l-11.95,8.96
		c-2.82,2.12-4.47,5.44-4.48,8.96v6.57l-14.53,29.09c-0.93,1.84-0.19,4.09,1.65,5.02c0.52,0.26,1.09,0.4,1.67,0.4h18.67v7.47
		c0,0.73,0.22,1.45,0.63,2.05l7.47,11.2c1.11,1.71,3.4,2.2,5.11,1.08c0.43-0.28,0.8-0.65,1.08-1.08l7.47-11.2
		c0.42-0.6,0.64-1.32,0.63-2.05v-7.47h18.67c2.06-0.01,3.73-1.68,3.72-3.75C-288.63,363.53-288.77,362.96-289.03,362.44
		L-289.03,362.44z M-340.9,360.39h-5.15l5.15-10.31V360.39z M-318.5,374.2l-3.73,5.6l-3.73-5.6v-6.35h7.47V374.2z M-311.03,360.39
		h-7.47v-11.2h-7.47v11.2h-7.47v-33.61c0.01-1.17,0.56-2.28,1.49-2.99l9.71-7.28l9.71,7.28c0.93,0.71,1.49,1.81,1.49,2.99V360.39z
		 M-303.56,360.39v-10.31l5.15,10.31H-303.56z"/>
	<path d="M-389.45,367.86h7.47v7.47h-7.47V367.86z"/>
	<path d="M-475.35,375.32h7.47v7.47h-7.47V375.32z"/>
	<path d="M-430.53,375.32h7.47v7.47h-7.47V375.32z"/>
	<path d="M-411.86,345.45h7.47v7.47h-7.47V345.45z"/>
	<path d="M-367.05,345.45h7.47v7.47h-7.47V345.45z"/>
	<path d="M-348.37,375.32h7.47v7.47h-7.47V375.32z"/>
	<path d="M-303.56,375.32h7.47v7.47h-7.47V375.32z"/>
	<path d="M-452.94,397.73h7.47v7.47h-7.47V397.73z"/>
	<path d="M-325.97,397.73h7.47v7.47h-7.47V397.73z"/>
	<path d="M-325.97,278.23h7.47v7.47h-7.47V278.23z"/>
	<path d="M-311.03,278.23h7.47v7.47h-7.47V278.23z"/>
	<path d="M-296.09,278.23h7.47v7.47h-7.47V278.23z"/>
	<path d="M-475.35,285.7h11.2v-7.47h-14.94c-2.06,0-3.73,1.67-3.73,3.73v14.94h7.47V285.7z"/>
	<path d="M-482.81,304.37h7.47v7.47h-7.47V304.37z"/>
</g>
<g>
	<path d="M88.25,255.82c-61.77,0-112.03,50.26-112.03,112.03S26.47,479.89,88.25,479.89s112.03-50.26,112.03-112.03
		S150.02,255.82,88.25,255.82z M88.25,471.27c-57.02,0-103.42-46.4-103.42-103.42s46.4-103.42,103.42-103.42
		s103.42,46.4,103.42,103.42S145.27,471.27,88.25,471.27z"/>
	<path d="M142.11,363.55H92.56v-47.4c0-2.38-1.93-4.31-4.31-4.31s-4.31,1.93-4.31,4.31v47.4H34.38c-2.38,0-4.31,1.93-4.31,4.31
		c0,2.38,1.93,4.31,4.31,4.31h49.55v51.71c0,2.38,1.93,4.31,4.31,4.31s4.31-1.93,4.31-4.31v-51.71h49.55c2.38,0,4.31-1.93,4.31-4.31
		C146.42,365.47,144.49,363.55,142.11,363.55z"/>
</g>
<g>
	<path d="M-123.07,301.11h-60.87c-4.46,0-8.08,3.62-8.08,8.08v55.2c0,4.46,3.62,8.08,8.08,8.08h60.87c4.46,0,8.08-3.62,8.08-8.08
		c0-6.28,0-48.36,0-55.2C-114.99,304.73-118.61,301.11-123.07,301.11z M-162.88,366.67h-7.16v-7.16h7.16V366.67z M-149.92,366.67
		h-7.16v-7.16h7.16V366.67z M-149.92,353.72h-7.16v-7.16h7.16V353.72z M-136.97,366.67h-7.16v-7.16h7.16V366.67z M-123.07,366.67
		h-8.1v-7.91c0.8,0.48,1.72,0.76,2.72,0.76h7.66v4.88h0C-120.79,365.65-121.81,366.67-123.07,366.67z M-120.79,353.72h-7.16v-7.16
		h7.16V353.72z M-120.79,340.76h-7.16v-7.16h7.16V340.76z M-120.79,327.81h-7.16v-7.16h7.16V327.81z M-120.79,309.19v5.66h-7.66
		c-2.92,0-5.29,2.38-5.29,5.29v34.08c0,0.02,0,0.04,0,0.06c-0.68-0.36-1.45-0.57-2.27-0.57h-8.11v-8.11c0-2.67-2.17-4.84-4.84-4.84
		h-9.07c-2.67,0-4.84,2.17-4.84,4.84v8.11h-8.11c-2.67,0-4.84,2.17-4.84,4.84v8.11h-8.1c-1.26,0-2.28-1.02-2.28-2.28v-55.2
		c0-1.26,1.02-2.28,2.28-2.28h60.87C-121.81,306.91-120.79,307.93-120.79,309.19L-120.79,309.19z"/>
	<path d="M-166.46,312.07h-11.58c-1.6,0-2.9,1.3-2.9,2.9s1.3,2.9,2.9,2.9h11.58c1.6,0,2.9-1.3,2.9-2.9
		C-163.56,313.37-164.85,312.07-166.46,312.07z"/>
	<path d="M-127.97,456.6c8.04,0,14.58-6.54,14.58-14.58c0-8.04-6.54-14.58-14.58-14.58s-14.58,6.54-14.58,14.58
		S-136.01,456.6-127.97,456.6z M-127.97,433.25c4.84,0,8.78,3.94,8.78,8.78s-3.94,8.78-8.78,8.78c-4.84,0-8.78-3.94-8.78-8.78
		C-136.75,437.19-132.81,433.25-127.97,433.25z"/>
	<path d="M-101.76,380.38l0-82.61c0-5.61-4.56-10.18-10.18-10.18h-83.13c-5.61,0-10.18,4.56-10.18,10.18v82.6
		c-2.7,0.89-4.65,3.44-4.65,6.43v15.74c0,2.99,1.95,5.54,4.65,6.43v66.44c0,5.61,4.56,10.18,10.18,10.18h34.8
		c0.08,0,0.15-0.02,0.23-0.02h13.08c0.08,0.01,0.15,0.02,0.23,0.02h34.8c5.61,0,10.18-4.56,10.18-10.18v-66.44
		c2.7-0.89,4.65-3.44,4.65-6.43v-15.74C-97.11,383.81-99.06,381.27-101.76,380.38z M-199.44,297.77c0-2.41,1.96-4.37,4.37-4.37
		h83.13c2.41,0,4.37,1.96,4.37,4.37v36.16c0,0,0,0,0,0.01v13.52c0,0,0,0,0,0v32.57h-91.88V297.77z M-107.56,475.41
		c0,2.41-1.96,4.37-4.37,4.37h-83.13c-2.41,0-4.37-1.96-4.37-4.37v-66.09h91.88V475.41z M-102.91,402.54c0,0.54-0.44,0.97-0.97,0.97
		c-2.63,0-96.62,0-99.24,0c-0.54,0-0.97-0.44-0.97-0.97v-15.74c0-0.54,0.44-0.97,0.97-0.97h99.24c0.54,0,0.97,0.44,0.97,0.97V402.54
		z"/>
	<path d="M-114.56,391.77h-13.56c-1.6,0-2.9,1.3-2.9,2.9s1.3,2.9,2.9,2.9h13.56c1.6,0,2.9-1.3,2.9-2.9S-112.95,391.77-114.56,391.77
		z"/>
	<path d="M-187.61,450.72h3.54c1.67,0,3.24-0.48,4.56-1.3c-0.82,1.33-1.3,2.89-1.3,4.56v3.54c0,3.31,2.69,6,6,6h5.39
		c3.31,0,6-2.69,6-6v-3.54c0-1.67-0.48-3.24-1.3-4.56c1.33,0.82,2.89,1.3,4.56,1.3h3.54c3.31,0,6-2.69,6-6v-5.39c0-3.31-2.69-6-6-6
		h-3.54c-1.67,0-3.24,0.48-4.56,1.3c0.82-1.33,1.3-2.89,1.3-4.56v-3.54c0-3.31-2.69-6-6-6h-5.39c-3.31,0-6,2.69-6,6v3.54
		c0,1.67,0.48,3.24,1.3,4.56c-1.33-0.82-2.89-1.3-4.56-1.3h-3.54c-3.31,0-6,2.69-6,6v5.39
		C-193.61,448.03-190.92,450.72-187.61,450.72z M-160.14,439.13h3.54c0.11,0,0.2,0.09,0.2,0.2v5.39c0,0.11-0.09,0.2-0.2,0.2h-3.54
		c-1.6,0-2.9-1.3-2.9-2.9C-163.04,440.43-161.74,439.13-160.14,439.13z M-169.41,457.73h-5.39c-0.11,0-0.2-0.09-0.2-0.2v-3.54
		c0-1.6,1.3-2.9,2.9-2.9s2.9,1.3,2.9,2.9v3.54h0C-169.21,457.64-169.3,457.73-169.41,457.73z M-174.8,426.32h5.39
		c0.11,0,0.2,0.09,0.2,0.2v3.54c0,1.6-1.3,2.9-2.9,2.9c-1.6,0-2.9-1.3-2.9-2.9v-3.54h0C-175,426.41-174.91,426.32-174.8,426.32z
		 M-176.67,437.46c1.33,0.82,2.89,1.3,4.56,1.3c1.67,0,3.24-0.48,4.56-1.3c-0.82,1.33-1.3,2.89-1.3,4.56c0,1.67,0.48,3.24,1.3,4.56
		c-1.33-0.82-2.89-1.3-4.56-1.3c-1.67,0-3.24,0.48-4.56,1.3c0.82-1.33,1.3-2.89,1.3-4.56S-175.85,438.79-176.67,437.46z
		 M-187.81,439.33c0-0.11,0.09-0.2,0.2-0.2h3.54c1.6,0,2.9,1.3,2.9,2.9c0,1.6-1.3,2.9-2.9,2.9h-3.54c-0.11,0-0.2-0.09-0.2-0.2
		V439.33z"/>
</g>
<g>
	<g>
		<g>
			<circle cx="148.81" cy="17.21" r="3.39"/>
		</g>
	</g>
	<g>
		<g>
			<g>
				<circle cx="133.85" cy="130.49" r="3.39"/>
			</g>
		</g>
		<g>
			<g>
				<path d="M191.78,119.88c-5.85,0-10.61,4.76-10.61,10.61s4.76,10.61,10.61,10.61s10.61-4.76,10.61-10.61
					S197.63,119.88,191.78,119.88z M191.78,134.33c-2.12,0-3.84-1.72-3.84-3.84s1.72-3.84,3.84-3.84c2.12,0,3.84,1.72,3.84,3.84
					S193.9,134.33,191.78,134.33z"/>
			</g>
		</g>
		<g>
			<g>
				<path d="M76.79,12.9c-6.32,0-11.46,5.14-11.46,11.46s5.14,11.45,11.46,11.45s11.45-5.14,11.45-11.45
					C88.25,18.04,83.11,12.9,76.79,12.9z M76.79,29.04c-2.58,0-4.68-2.1-4.68-4.68s2.1-4.68,4.68-4.68s4.68,2.1,4.68,4.68
					C81.47,26.94,79.37,29.04,76.79,29.04z"/>
			</g>
		</g>
		<g>
			<g>
				<path d="M132.5,35.2c-6.32,0-11.46,5.14-11.46,11.46s5.14,11.45,11.46,11.45c6.32,0,11.45-5.14,11.45-11.45
					S138.82,35.2,132.5,35.2z M132.5,51.34c-2.58,0-4.68-2.1-4.68-4.68c0-2.58,2.1-4.68,4.68-4.68c2.58,0,4.68,2.1,4.68,4.68
					C137.18,49.24,135.08,51.34,132.5,51.34z"/>
			</g>
		</g>
		<g>
			<g>
				<circle cx="148.81" cy="35.2" r="3.39"/>
			</g>
		</g>
		<g>
			<g>
				<circle cx="139.14" cy="26.35" r="3.39"/>
			</g>
		</g>
		<g>
			<g>
				<circle cx="158.48" cy="26.35" r="3.39"/>
			</g>
		</g>
		<g>
			<g>
				<path d="M102.73,43.27h-4.68v-4.68c0-1.87-1.52-3.39-3.39-3.39s-3.39,1.52-3.39,3.39v4.68h-4.68c-1.87,0-3.39,1.52-3.39,3.39
					s1.52,3.39,3.39,3.39h4.68v4.68c0,1.87,1.52,3.39,3.39,3.39s3.39-1.52,3.39-3.39v-4.68h4.68c1.87,0,3.39-1.52,3.39-3.39
					S104.6,43.27,102.73,43.27z"/>
			</g>
		</g>
		<path d="M216.22,95.02h-38.1c6.63-7.39,9.39-17.79,6.83-27.78c-3.19-12.45-6.01-24.99-9.35-37.4c-2.4-8.93-6.4-18.01-14.52-23.12
			c-1.56-0.98-3.23-1.8-4.97-2.44l-9.3-3.48c-4.16-1.56-8.82-0.79-12.26,1.91H89.52c-3.44-2.7-8.1-3.47-12.26-1.91l-9.3,3.48
			c-8.8,3.29-15.45,10.69-17.78,19.79L39.11,67.24c-2.56,9.99,0.2,20.39,6.83,27.78H7.85c-4.33,0-7.85,3.52-7.85,7.85v21.52v12.19
			v21.52c0,4.33,3.52,7.85,7.85,7.85H21.6v2.25c0,1.87,1.52,3.39,3.39,3.39c1.87,0,3.39-1.52,3.39-3.39v-2.25h167.32v2.25
			c0,1.87,1.52,3.39,3.39,3.39s3.39-1.52,3.39-3.39v-2.25h13.75c4.33,0,7.85-3.52,7.85-7.85v-55.24
			C224.07,98.54,220.55,95.02,216.22,95.02z M127.64,9.49l-3.49,3.49c-1.06,1.06-2.48,1.65-3.99,1.65h-8.13h-8.13
			c-1.5,0-2.92-0.59-3.98-1.65l-3.49-3.49H127.64z M45.68,68.93l11.06-43.18c1.78-6.96,6.86-12.61,13.59-15.13l9.3-3.48
			c2.15-0.81,4.6-0.28,6.23,1.35c0,0,0,0,0,0l9.27,9.27c2.34,2.34,5.46,3.63,8.77,3.63h8.13h8.13c3.31,0,6.43-1.29,8.78-3.63
			l9.27-9.27c1.63-1.63,4.07-2.16,6.23-1.35l9.3,3.48c4.49,1.68,8.22,4.73,10.76,8.7c0.45,1.25,3.89,11.03,6.86,22.17l7.03,27.43
			c2.52,9.82-1.59,20.15-10.01,25.6l-18.05-22.61c-3.54-4.44-8.83-6.98-14.51-6.98h-23.78H88.26c-5.68,0-10.97,2.55-14.51,6.98
			L55.69,94.53C47.26,89.07,43.16,78.74,45.68,68.93z M160.11,95.02H96.83H86.59H71.81h-2.23h-5.61l15.07-18.88
			c2.25-2.82,5.61-4.44,9.22-4.44h23.78h23.78c3.61,0,6.97,1.62,9.22,4.44L160.11,95.02z M216.22,159.18H7.85
			c-0.59,0-1.07-0.48-1.07-1.07v-21.52v-8.81h107.71v5.42H17.91c-1.87,0-3.39,1.52-3.39,3.39c0,1.87,1.52,3.39,3.39,3.39h97.06
			c3.46,0,6.28-2.82,6.28-6.28v-6.41c0-3.46-2.82-6.28-6.28-6.28H6.77v-18.14c0-0.59,0.48-1.07,1.07-1.07h48.12
			c0.03,0,0.07,0.01,0.1,0.01c0.04,0,0.08-0.01,0.12-0.01h13.39h2.23h14.78h10.24h71.05c0.04,0,0.08,0.01,0.12,0.01
			c0.03,0,0.07-0.01,0.1-0.01h48.12c0.59,0,1.07,0.48,1.07,1.07v55.24h0C217.3,158.7,216.81,159.18,216.22,159.18z"/>
	</g>
</g>
</svg>
