<?xml version="1.0" encoding="UTF-8"?>
<svg version="1.1" viewBox="0 0 948 918" width="1280" height="1280" xmlns="http://www.w3.org/2000/svg">
<path transform="translate(515)" d="m0 0h55l28 2 30 4 16 5 13 7 13 11 9 12 8 16 4 13 3 17v4l16-7 18-5 17-3h35l21 4 17 6 16 8 15 10 14 12 10 10 9 11 12 17 9 15 12 23 9 20 9 25 7 24 5 25 3 27v34l-3 24-6 25-3 3h-5l-3-4-12-36-13-32-14-29-13-24-7-11 2 13 4 25 2 25v26l-2 26-5 30-6 21-6 16-8 16-9 14-9 10-5 4h-1v-13l1-21v-22l-2-29-4-25-5-19-8-21-5-10-5 28-6 23-10 28-7 16-5 2v17l-1 29v33l2 29 4 24 7 25 12 36 6 28 2 16v42l-4 27-6 22-7 19-10 21-12 19-13 16-12 13-13 12-17 13-19 12-23 12-26 10-24 7-31 6-26 3-19 1h-23l-31-2-35-5-27-6-29-9-28-11-32-16-20-12-15-10-19-14-11-9-13-11-13-12-24-24-7-8-11-13-13-17-13-18-13-21-3-4-6 1h-25l-15-4-16-8-11-7-11-10-8-7-15-16-11-15-8-16-7-18-5-19-3-20v-20l3-17 5-14 6-10 9-10 10-7 4-1v-19h-9l-1-4v-11l5-14 6-12-19 12-16 7-7 2-12 1-2-9-1-11v-38l3-30 5-28 8-31 11-32 11-25 11-22 10-17 14-21 12-16 9-11 11-12 15-15 11-9 16-12 22-14 22-12 29-14 33-13 33-11 37-10 30-7 43-8 42-6 42-4zm352 260 1 2z" fill="#151515"/>
<path transform="translate(683,215)" d="m0 0h7l7 7 7 8 12 14 13 18 12 20 8 18 5 15 4 18 3 22 1 16v23l-17-6-16-3-22-1h-43l-20 2-16 4-11 6-7 8-2 6v17l5 16 2 4 7 2h39l78-5h20l1-3-2 46-10 2-117 13h-8l3 18 6 19 7 14 7 9 8 8 10 6 10 4 9 2h20l15-3 12-5 11-7 7-7 8-13 3-7 2 3 4 22 7 25 9 28 5 22 3 24v35l-3 23-5 21-8 22-10 20-11 17-10 13-12 13-11 11-17 13-15 10-16 9-23 10-24 8-25 6-24 4-20 2-33 1-35-2-29-4-26-5-25-7-21-7-26-11-24-12-22-13-21-14-19-14-11-9-13-11-13-12-15-14-7-8-8-8-7-8-11-13-13-17-13-18v-2l-8 1h-12l-17-3-13-5-13-8-11-9-17-17-9-11-9-12-8-15-8-22-5-22-1-8v-26l4-18 6-12 9-10 9-6 10-3 7-1h13l14 3 16 8 13 10 8 8 13 17 11 19 10 21v2h3l-4-13 1-2 12 12 13 9 17 9 15 5 11 2 7-1 3-1 2-5v-8l-8-21-7-28-4-28-2-24v-53l10-5 21-9 19-9 8-4-3 10-11 29-10 29v6l4 4h8l10-10-3 14 4 1v2l21-6 33-6 40-5 76-7 23-3 18-4 9-5 3-8 2-10v-21l-3-10-5-8-8-7-14-6 6-10 12-17 13-17 9-11 12-14 12-13 19-19 11-9 16-13 24-16 20-11 23-9z" fill="#E9A17C"/>
<path transform="translate(701,636)" d="m0 0h18l11 4 7 5 6 9 4 12 1 7v44l-3 24-5 18-9 19-9 14-8 10-9 10-11 10-18 12-23 11-24 7-15 3-18 2h-43l-27-3-26-5-26-7-16-8-13-9-16-16-9-14-6-13-6-21-2-21v-26l3-21 5-15 6-10 8-9 12-7 13-3h17l25 5 27 6 29 5 17 2h39l25-5 21-7 24-11 11-5z" fill="#C1262B"/>
<path transform="translate(239,424)" d="m0 0 5 5 8 16 6 18 5 25 2 18 1 18v18l-2 30-4 29-8 39-1 7v31l3 16 5 15 8 16 10 16 12 14 15 15 14 11 15 11 21 13 29 15 24 11 34 13 36 12 36 10 33 8 34 7 41 7-1 2-26 6-28 4-33 2-34-1-29-3-29-5-28-7-27-9-26-11-24-12-22-13-21-14-19-14-11-9-13-11-13-12-15-14-7-8-8-8-7-8-11-13-13-17-13-18v-2l-8 1h-12l-17-3-13-5-13-8-11-9-17-17-9-11-9-12-8-15-8-22-5-22-1-8v-26l4-18 6-12 9-10 9-6 10-3 7-1h13l14 3 16 8 13 10 8 8 13 17 11 19 10 21v2h3l-4-13 1-2 12 12 13 9 17 9 15 5 11 2 7-1 3-1 2-5v-8l-8-21-7-28-4-28-2-24v-53z" fill="#D88E5E"/>
<path transform="translate(77,486)" d="m0 0h13l14 3 16 8 13 10 8 8 13 17 11 19 10 21v2h3l1-3 6 25 3 23v21l-3 19-5 13-6 10-9 10-1 1-9 1h-12l-17-3-13-5-13-8-11-9-17-17-9-11-9-12-8-15-8-22-5-22-1-8v-26l4-18 6-12 9-10 9-6 10-3z" fill="#E9A17C"/>
<path transform="translate(703,642)" d="m0 0h14l9 3 8 6 6 12 2 13v15l-1 3-25 10-36 12-29 8-26 5-17 3-31 4-31 1-30-1-30-4-28-7-23-8-21-10v-7l4-15 6-12 9-10 12-6 11-2h10l14 2 40 9 36 6 23 2h20l17-2 25-6 21-8 28-13z" fill="#FEFEFE"/>
<path transform="translate(488,510)" d="m0 0h7l1 2v20l-2 15-4 15-8 17-9 11-10 8-14 7-17 4-10 1h-9l-15-2-14-5-12-8-12-12-8-13-7-15-5-17-2-13 16-2z" fill="#FDFDFD"/>
<path transform="translate(701,636)" d="m0 0h18l11 4 7 5 6 9 4 12 1 7v44l-3 24-5 18-9 19-9 14-8 10-9 10-11 10-18 12-23 11-24 7-15 3-18 2h-43l-27-3-26-5-26-7-16-8-13-9-16-16-9-14-6-13-6-21-2-21v-26l3-21 5-15 6-10 8-9 12-7 13-3h17l25 5 27 6 29 5 17 2h39l25-5 21-7 24-11 11-5zm2 6-13 3-30 14-19 7-25 6-17 2h-20l-31-3-38-7-35-8-9-1h-10l-14 3-10 6-8 9-6 12-4 15-2 16v23l2 20 5 19 8 17 8 11 9 10 14 11 17 9 22 6 24 5 22 3 11 1h42l23-3 24-6 20-8 16-9 7-5v-17l-4-20-11-32-12-25-2-3 8-3 31-9 28-10 17-7 1-3v-15l-3-16-6-10-9-6-7-2z" fill="#171616"/>
<path transform="translate(82,517)" d="m0 0h17l15 5 11 6 9 7 10 9 10 12 7 11-1 2-14-3h-12l-9 3-5 4-5 10-2 8v17l3 10 6 10 9 9 14 8 10 5-1 2-27 3-10 3-4 2-1 2-6-1-11-8-11-11-9-13-8-17-5-17-2-11-1-11v-20l2-15 6-12 7-6z" fill="#D98F5F"/>
<path transform="translate(754,493)" d="m0 0h4l1 30-4 14-8 16-10 11-11 7-11 4-10 2h-23l-13-4-11-6-11-11-8-13-6-15-4-20 1-1z" fill="#FDFDFE"/>
<path transform="translate(413,706)" d="m0 0 20 9 19 7 21 6 19 4 24 3 37 1 24-1 45-6 23-5 11-2 5 8 10 21 3 8v3l-16-4-25-6-29-4-14-1h-29l2 6 7 16 5 18 3 18 1 11v24l-2 2-4-1-1-29-3-21-6-21-7-16-3-6-14 1-24 4-28 7-25 9-20 9-17 9h-2l-5-12-4-16-2-20v-23z" fill="#931821"/>
<path transform="translate(703,642)" d="m0 0h14l9 3 5 4-5 3-14 9-15 7-21 7-22 5-27 4-21 2-18 1h-59l-35-2-13-1h-16l-5 5-3 7v10l4 10 3 3v2l4 2 9 5-4 1-21-6-19-7-19-9v-7l4-15 6-12 9-10 12-6 11-2h10l14 2 40 9 36 6 23 2h20l17-2 25-6 21-8 28-13z" fill="#CAD0DA"/>
<path transform="translate(304,178)" d="m0 0 7 1 1 5-1 9h6l16-9 6-2h6l1 1-1 7-6 9-12 14-8 8-8 7-14 12-17 13-17 11-14 7-3 1h-7l-1-4 1-6-1-2h-6l-16 8-3 1h-8l-2-2 1-7 7-11 12-13 19-19 10-8 16-12 16-10 14-7z" fill="#3A3A3A"/>
<path transform="translate(220,163)" d="m0 0h5l2 2v8l-5 14-10 19-12 18-13 17-13 15-11 11-10 7-4 2h-6l-1-1v-10l5-13-1-5-5-1-7 1-5-3-2-3v-12l4-11 7-13 8-10 9-9 12-7h10l4 4 3 6h5l17-17 10-7z" fill="#3A3A3A"/>
<path transform="translate(485,285)" d="m0 0 2 1-11 27-11 30-11 33-1 1-32 4-44 8-17 5-7 2 6-7 24-24 8-7 12-11 11-9 13-11 13-10 16-12 20-14z" fill="#E9A17C"/>
<path transform="translate(518,184)" d="m0 0 4 2 1 4-3 11-8 17-16 24-11 14-11 12-10 10-10 6h-5l-1-1v-10l4-10-1-5h-11l-5-4-1-6 2-10 8-16 7-9 9-9 12-6h6l4 4 2 5h6l9-10 9-8z" fill="#3A3A3A"/>
<path transform="translate(656,504)" d="m0 0 4 1h-2l1 6h2l2-4 5-3 7 1 8 7 4 8 2 8v16l-4 11 1 3 11 7 10 4 14 3-3 2-13 3h-23l-13-4-11-6-11-11-8-13-6-15-4-20 1-1z" fill="#CAD1DB"/>
<path transform="translate(364,522)" d="m0 0h8l5 21 6 16 8 15 11 13 10 8 14 7 16 4-4 2-16 2h-9l-15-2-14-5-12-8-12-12-8-13-7-15-5-17-2-13 16-2z" fill="#CAD1DB"/>
<path transform="translate(490,503)" d="m0 0h11l1 1 1 11v14l-2 18-4 15-6 15-8 12-11 11-11 7-12 5-11 3-6 1h-29l-15-4-14-7-9-7-9-9-10-15-8-18-5-18-2-11v-8l2-1zm-2 7-145 14-5 1 3 17 6 18 9 17 7 9 10 10 11 7 14 5 15 2h9l16-2 16-5 12-7 10-9 7-10 7-15 4-15 2-15v-20l-1-2z" fill="#1B1919"/>
<path transform="translate(392,196)" d="m0 0h5l2 2-1 6-7 11-15 16-7 7-11 9-12 10-21 14-14 7-8 2-3-1-1-4 5-10 13-15 11-11 8-7 13-11 20-14 17-9z" fill="#3A3A3A"/>
<path transform="translate(655,722)" d="m0 0 4 4 12 25 3 8v3l-16-4-25-6-29-4-14-1h-31l-6-9v-2l24-1 45-6 23-5z" fill="#941922"/>
<path transform="translate(448,516)" d="m0 0 7 1 6 5 4 8 2 8v14l-3 11-4 6-6 5h-7l-6-4-6-12-1-4v-18l4-11 7-8z" fill="#171717"/>
<path transform="translate(668,504)" d="m0 0 7 1 8 7 4 8 2 8v16l-4 11-5 5-7 1-6-3-6-7-4-10-1-5v-14l3-10 5-6z" fill="#171717"/>
<path transform="translate(546,737)" d="m0 0h7l7 10 9 19 6 21 3 18 1 11v24l-2 2-4-1-1-29-3-21-6-21-7-16-7-12-3-3z" fill="#151515"/>
<path transform="translate(443,523)" d="m0 0h5l3 4 1 3v14l-3 6-1 1h-5l-3-3-2-7v-8l3-8z" fill="#F9FAFB"/>
<path transform="translate(664,512)" d="m0 0 4 1 3 3 2 6v10l-3 6-5-1-4-7v-14z" fill="#F8F9FA"/>
<path transform="translate(664,503)" d="m0 0h5l-8 8h-2l-1-6z" fill="#F0F2F4"/>
</svg>
